G04 #@! TF.GenerationSoftware,KiCad,Pcbnew,(6.0.0-rc1-dev-1546-g786ee0e)*
G04 #@! TF.CreationDate,2021-05-18T14:50:20-07:00
G04 #@! TF.ProjectId,Dock,446f636b-2e6b-4696-9361-645f70636258,rev?*
G04 #@! TF.SameCoordinates,Original*
G04 #@! TF.FileFunction,Legend,Top*
G04 #@! TF.FilePolarity,Positive*
%FSLAX46Y46*%
G04 Gerber Fmt 4.6, Leading zero omitted, Abs format (unit mm)*
G04 Created by KiCad (PCBNEW (6.0.0-rc1-dev-1546-g786ee0e)) date Tue 18 May 2021 02:50:20 PM PDT*
%MOMM*%
%LPD*%
G04 APERTURE LIST*
%ADD10C,0.150000*%
%ADD11C,0.120000*%
G04 APERTURE END LIST*
D10*
X65380952Y-59428571D02*
X65523809Y-59476190D01*
X65571428Y-59523809D01*
X65619047Y-59619047D01*
X65619047Y-59761904D01*
X65571428Y-59857142D01*
X65523809Y-59904761D01*
X65428571Y-59952380D01*
X65047619Y-59952380D01*
X65047619Y-58952380D01*
X65380952Y-58952380D01*
X65476190Y-59000000D01*
X65523809Y-59047619D01*
X65571428Y-59142857D01*
X65571428Y-59238095D01*
X65523809Y-59333333D01*
X65476190Y-59380952D01*
X65380952Y-59428571D01*
X65047619Y-59428571D01*
X66000000Y-59666666D02*
X66476190Y-59666666D01*
X65904761Y-59952380D02*
X66238095Y-58952380D01*
X66571428Y-59952380D01*
X66761904Y-58952380D02*
X67333333Y-58952380D01*
X67047619Y-59952380D02*
X67047619Y-58952380D01*
X67523809Y-58952380D02*
X68095238Y-58952380D01*
X67809523Y-59952380D02*
X67809523Y-58952380D01*
X65023809Y-57452380D02*
X65023809Y-56452380D01*
X65690476Y-56452380D02*
X65880952Y-56452380D01*
X65976190Y-56500000D01*
X66071428Y-56595238D01*
X66119047Y-56785714D01*
X66119047Y-57119047D01*
X66071428Y-57309523D01*
X65976190Y-57404761D01*
X65880952Y-57452380D01*
X65690476Y-57452380D01*
X65595238Y-57404761D01*
X65500000Y-57309523D01*
X65452380Y-57119047D01*
X65452380Y-56785714D01*
X65500000Y-56595238D01*
X65595238Y-56500000D01*
X65690476Y-56452380D01*
X67071428Y-57452380D02*
X66500000Y-57452380D01*
X66785714Y-57452380D02*
X66785714Y-56452380D01*
X66690476Y-56595238D01*
X66595238Y-56690476D01*
X66500000Y-56738095D01*
X67928571Y-56785714D02*
X67928571Y-57452380D01*
X67690476Y-56404761D02*
X67452380Y-57119047D01*
X68071428Y-57119047D01*
X65023809Y-54952380D02*
X65023809Y-53952380D01*
X65690476Y-53952380D02*
X65880952Y-53952380D01*
X65976190Y-54000000D01*
X66071428Y-54095238D01*
X66119047Y-54285714D01*
X66119047Y-54619047D01*
X66071428Y-54809523D01*
X65976190Y-54904761D01*
X65880952Y-54952380D01*
X65690476Y-54952380D01*
X65595238Y-54904761D01*
X65500000Y-54809523D01*
X65452380Y-54619047D01*
X65452380Y-54285714D01*
X65500000Y-54095238D01*
X65595238Y-54000000D01*
X65690476Y-53952380D01*
X67071428Y-54952380D02*
X66500000Y-54952380D01*
X66785714Y-54952380D02*
X66785714Y-53952380D01*
X66690476Y-54095238D01*
X66595238Y-54190476D01*
X66500000Y-54238095D01*
X67404761Y-53952380D02*
X68023809Y-53952380D01*
X67690476Y-54333333D01*
X67833333Y-54333333D01*
X67928571Y-54380952D01*
X67976190Y-54428571D01*
X68023809Y-54523809D01*
X68023809Y-54761904D01*
X67976190Y-54857142D01*
X67928571Y-54904761D01*
X67833333Y-54952380D01*
X67547619Y-54952380D01*
X67452380Y-54904761D01*
X67404761Y-54857142D01*
X65023809Y-52452380D02*
X65023809Y-51452380D01*
X65690476Y-51452380D02*
X65880952Y-51452380D01*
X65976190Y-51500000D01*
X66071428Y-51595238D01*
X66119047Y-51785714D01*
X66119047Y-52119047D01*
X66071428Y-52309523D01*
X65976190Y-52404761D01*
X65880952Y-52452380D01*
X65690476Y-52452380D01*
X65595238Y-52404761D01*
X65500000Y-52309523D01*
X65452380Y-52119047D01*
X65452380Y-51785714D01*
X65500000Y-51595238D01*
X65595238Y-51500000D01*
X65690476Y-51452380D01*
X67071428Y-52452380D02*
X66500000Y-52452380D01*
X66785714Y-52452380D02*
X66785714Y-51452380D01*
X66690476Y-51595238D01*
X66595238Y-51690476D01*
X66500000Y-51738095D01*
X67976190Y-51452380D02*
X67500000Y-51452380D01*
X67452380Y-51928571D01*
X67500000Y-51880952D01*
X67595238Y-51833333D01*
X67833333Y-51833333D01*
X67928571Y-51880952D01*
X67976190Y-51928571D01*
X68023809Y-52023809D01*
X68023809Y-52261904D01*
X67976190Y-52357142D01*
X67928571Y-52404761D01*
X67833333Y-52452380D01*
X67595238Y-52452380D01*
X67500000Y-52404761D01*
X67452380Y-52357142D01*
X65023809Y-49952380D02*
X65023809Y-48952380D01*
X65690476Y-48952380D02*
X65880952Y-48952380D01*
X65976190Y-49000000D01*
X66071428Y-49095238D01*
X66119047Y-49285714D01*
X66119047Y-49619047D01*
X66071428Y-49809523D01*
X65976190Y-49904761D01*
X65880952Y-49952380D01*
X65690476Y-49952380D01*
X65595238Y-49904761D01*
X65500000Y-49809523D01*
X65452380Y-49619047D01*
X65452380Y-49285714D01*
X65500000Y-49095238D01*
X65595238Y-49000000D01*
X65690476Y-48952380D01*
X67071428Y-49952380D02*
X66500000Y-49952380D01*
X66785714Y-49952380D02*
X66785714Y-48952380D01*
X66690476Y-49095238D01*
X66595238Y-49190476D01*
X66500000Y-49238095D01*
X67452380Y-49047619D02*
X67500000Y-49000000D01*
X67595238Y-48952380D01*
X67833333Y-48952380D01*
X67928571Y-49000000D01*
X67976190Y-49047619D01*
X68023809Y-49142857D01*
X68023809Y-49238095D01*
X67976190Y-49380952D01*
X67404761Y-49952380D01*
X68023809Y-49952380D01*
X65166666Y-46928571D02*
X65309523Y-46976190D01*
X65357142Y-47023809D01*
X65404761Y-47119047D01*
X65404761Y-47261904D01*
X65357142Y-47357142D01*
X65309523Y-47404761D01*
X65214285Y-47452380D01*
X64833333Y-47452380D01*
X64833333Y-46452380D01*
X65166666Y-46452380D01*
X65261904Y-46500000D01*
X65309523Y-46547619D01*
X65357142Y-46642857D01*
X65357142Y-46738095D01*
X65309523Y-46833333D01*
X65261904Y-46880952D01*
X65166666Y-46928571D01*
X64833333Y-46928571D01*
X66023809Y-46452380D02*
X66214285Y-46452380D01*
X66309523Y-46500000D01*
X66404761Y-46595238D01*
X66452380Y-46785714D01*
X66452380Y-47119047D01*
X66404761Y-47309523D01*
X66309523Y-47404761D01*
X66214285Y-47452380D01*
X66023809Y-47452380D01*
X65928571Y-47404761D01*
X65833333Y-47309523D01*
X65785714Y-47119047D01*
X65785714Y-46785714D01*
X65833333Y-46595238D01*
X65928571Y-46500000D01*
X66023809Y-46452380D01*
X67071428Y-46452380D02*
X67261904Y-46452380D01*
X67357142Y-46500000D01*
X67452380Y-46595238D01*
X67500000Y-46785714D01*
X67500000Y-47119047D01*
X67452380Y-47309523D01*
X67357142Y-47404761D01*
X67261904Y-47452380D01*
X67071428Y-47452380D01*
X66976190Y-47404761D01*
X66880952Y-47309523D01*
X66833333Y-47119047D01*
X66833333Y-46785714D01*
X66880952Y-46595238D01*
X66976190Y-46500000D01*
X67071428Y-46452380D01*
X67785714Y-46452380D02*
X68357142Y-46452380D01*
X68071428Y-47452380D02*
X68071428Y-46452380D01*
X68880952Y-46452380D02*
X68976190Y-46452380D01*
X69071428Y-46500000D01*
X69119047Y-46547619D01*
X69166666Y-46642857D01*
X69214285Y-46833333D01*
X69214285Y-47071428D01*
X69166666Y-47261904D01*
X69119047Y-47357142D01*
X69071428Y-47404761D01*
X68976190Y-47452380D01*
X68880952Y-47452380D01*
X68785714Y-47404761D01*
X68738095Y-47357142D01*
X68690476Y-47261904D01*
X68642857Y-47071428D01*
X68642857Y-46833333D01*
X68690476Y-46642857D01*
X68738095Y-46547619D01*
X68785714Y-46500000D01*
X68880952Y-46452380D01*
X65452380Y-44952380D02*
X65119047Y-44476190D01*
X64880952Y-44952380D02*
X64880952Y-43952380D01*
X65261904Y-43952380D01*
X65357142Y-44000000D01*
X65404761Y-44047619D01*
X65452380Y-44142857D01*
X65452380Y-44285714D01*
X65404761Y-44380952D01*
X65357142Y-44428571D01*
X65261904Y-44476190D01*
X64880952Y-44476190D01*
X65833333Y-44904761D02*
X65976190Y-44952380D01*
X66214285Y-44952380D01*
X66309523Y-44904761D01*
X66357142Y-44857142D01*
X66404761Y-44761904D01*
X66404761Y-44666666D01*
X66357142Y-44571428D01*
X66309523Y-44523809D01*
X66214285Y-44476190D01*
X66023809Y-44428571D01*
X65928571Y-44380952D01*
X65880952Y-44333333D01*
X65833333Y-44238095D01*
X65833333Y-44142857D01*
X65880952Y-44047619D01*
X65928571Y-44000000D01*
X66023809Y-43952380D01*
X66261904Y-43952380D01*
X66404761Y-44000000D01*
X66690476Y-43952380D02*
X67261904Y-43952380D01*
X66976190Y-44952380D02*
X66976190Y-43952380D01*
X64857142Y-41904761D02*
X65000000Y-41952380D01*
X65238095Y-41952380D01*
X65333333Y-41904761D01*
X65380952Y-41857142D01*
X65428571Y-41761904D01*
X65428571Y-41666666D01*
X65380952Y-41571428D01*
X65333333Y-41523809D01*
X65238095Y-41476190D01*
X65047619Y-41428571D01*
X64952380Y-41380952D01*
X64904761Y-41333333D01*
X64857142Y-41238095D01*
X64857142Y-41142857D01*
X64904761Y-41047619D01*
X64952380Y-41000000D01*
X65047619Y-40952380D01*
X65285714Y-40952380D01*
X65428571Y-41000000D01*
X65714285Y-40952380D02*
X66285714Y-40952380D01*
X66000000Y-41952380D02*
X66000000Y-40952380D01*
X66523809Y-40952380D02*
X67190476Y-41952380D01*
X67190476Y-40952380D02*
X66523809Y-41952380D01*
X64738095Y-39404761D02*
X64880952Y-39452380D01*
X65119047Y-39452380D01*
X65214285Y-39404761D01*
X65261904Y-39357142D01*
X65309523Y-39261904D01*
X65309523Y-39166666D01*
X65261904Y-39071428D01*
X65214285Y-39023809D01*
X65119047Y-38976190D01*
X64928571Y-38928571D01*
X64833333Y-38880952D01*
X64785714Y-38833333D01*
X64738095Y-38738095D01*
X64738095Y-38642857D01*
X64785714Y-38547619D01*
X64833333Y-38500000D01*
X64928571Y-38452380D01*
X65166666Y-38452380D01*
X65309523Y-38500000D01*
X66309523Y-39452380D02*
X65976190Y-38976190D01*
X65738095Y-39452380D02*
X65738095Y-38452380D01*
X66119047Y-38452380D01*
X66214285Y-38500000D01*
X66261904Y-38547619D01*
X66309523Y-38642857D01*
X66309523Y-38785714D01*
X66261904Y-38880952D01*
X66214285Y-38928571D01*
X66119047Y-38976190D01*
X65738095Y-38976190D01*
X66642857Y-38452380D02*
X67309523Y-39452380D01*
X67309523Y-38452380D02*
X66642857Y-39452380D01*
X65166666Y-36428571D02*
X65309523Y-36476190D01*
X65357142Y-36523809D01*
X65404761Y-36619047D01*
X65404761Y-36761904D01*
X65357142Y-36857142D01*
X65309523Y-36904761D01*
X65214285Y-36952380D01*
X64833333Y-36952380D01*
X64833333Y-35952380D01*
X65166666Y-35952380D01*
X65261904Y-36000000D01*
X65309523Y-36047619D01*
X65357142Y-36142857D01*
X65357142Y-36238095D01*
X65309523Y-36333333D01*
X65261904Y-36380952D01*
X65166666Y-36428571D01*
X64833333Y-36428571D01*
X66023809Y-35952380D02*
X66214285Y-35952380D01*
X66309523Y-36000000D01*
X66404761Y-36095238D01*
X66452380Y-36285714D01*
X66452380Y-36619047D01*
X66404761Y-36809523D01*
X66309523Y-36904761D01*
X66214285Y-36952380D01*
X66023809Y-36952380D01*
X65928571Y-36904761D01*
X65833333Y-36809523D01*
X65785714Y-36619047D01*
X65785714Y-36285714D01*
X65833333Y-36095238D01*
X65928571Y-36000000D01*
X66023809Y-35952380D01*
X67071428Y-35952380D02*
X67261904Y-35952380D01*
X67357142Y-36000000D01*
X67452380Y-36095238D01*
X67500000Y-36285714D01*
X67500000Y-36619047D01*
X67452380Y-36809523D01*
X67357142Y-36904761D01*
X67261904Y-36952380D01*
X67071428Y-36952380D01*
X66976190Y-36904761D01*
X66880952Y-36809523D01*
X66833333Y-36619047D01*
X66833333Y-36285714D01*
X66880952Y-36095238D01*
X66976190Y-36000000D01*
X67071428Y-35952380D01*
X67785714Y-35952380D02*
X68357142Y-35952380D01*
X68071428Y-36952380D02*
X68071428Y-35952380D01*
X69214285Y-36952380D02*
X68642857Y-36952380D01*
X68928571Y-36952380D02*
X68928571Y-35952380D01*
X68833333Y-36095238D01*
X68738095Y-36190476D01*
X68642857Y-36238095D01*
X64523809Y-33452380D02*
X65142857Y-33452380D01*
X64809523Y-33833333D01*
X64952380Y-33833333D01*
X65047619Y-33880952D01*
X65095238Y-33928571D01*
X65142857Y-34023809D01*
X65142857Y-34261904D01*
X65095238Y-34357142D01*
X65047619Y-34404761D01*
X64952380Y-34452380D01*
X64666666Y-34452380D01*
X64571428Y-34404761D01*
X64523809Y-34357142D01*
X65571428Y-34357142D02*
X65619047Y-34404761D01*
X65571428Y-34452380D01*
X65523809Y-34404761D01*
X65571428Y-34357142D01*
X65571428Y-34452380D01*
X65952380Y-33452380D02*
X66571428Y-33452380D01*
X66238095Y-33833333D01*
X66380952Y-33833333D01*
X66476190Y-33880952D01*
X66523809Y-33928571D01*
X66571428Y-34023809D01*
X66571428Y-34261904D01*
X66523809Y-34357142D01*
X66476190Y-34404761D01*
X66380952Y-34452380D01*
X66095238Y-34452380D01*
X66000000Y-34404761D01*
X65952380Y-34357142D01*
X66857142Y-33452380D02*
X67190476Y-34452380D01*
X67523809Y-33452380D01*
X65238095Y-31000000D02*
X65142857Y-30952380D01*
X65000000Y-30952380D01*
X64857142Y-31000000D01*
X64761904Y-31095238D01*
X64714285Y-31190476D01*
X64666666Y-31380952D01*
X64666666Y-31523809D01*
X64714285Y-31714285D01*
X64761904Y-31809523D01*
X64857142Y-31904761D01*
X65000000Y-31952380D01*
X65095238Y-31952380D01*
X65238095Y-31904761D01*
X65285714Y-31857142D01*
X65285714Y-31523809D01*
X65095238Y-31523809D01*
X65714285Y-31952380D02*
X65714285Y-30952380D01*
X66285714Y-31952380D01*
X66285714Y-30952380D01*
X66761904Y-31952380D02*
X66761904Y-30952380D01*
X67000000Y-30952380D01*
X67142857Y-31000000D01*
X67238095Y-31095238D01*
X67285714Y-31190476D01*
X67333333Y-31380952D01*
X67333333Y-31523809D01*
X67285714Y-31714285D01*
X67238095Y-31809523D01*
X67142857Y-31904761D01*
X67000000Y-31952380D01*
X66761904Y-31952380D01*
D11*
X102000000Y-45500000D02*
G75*
G03X102000000Y-45500000I-17500000J0D01*
G01*
X63770000Y-60770000D02*
X62500000Y-60770000D01*
X63770000Y-59500000D02*
X63770000Y-60770000D01*
X61457071Y-31180000D02*
X61060000Y-31180000D01*
X61457071Y-31940000D02*
X61060000Y-31940000D01*
X52400000Y-31180000D02*
X58400000Y-31180000D01*
X52400000Y-31940000D02*
X52400000Y-31180000D01*
X58400000Y-31940000D02*
X52400000Y-31940000D01*
X61060000Y-32830000D02*
X58400000Y-32830000D01*
X61457071Y-33720000D02*
X61060000Y-33720000D01*
X61457071Y-34480000D02*
X61060000Y-34480000D01*
X52400000Y-33720000D02*
X58400000Y-33720000D01*
X52400000Y-34480000D02*
X52400000Y-33720000D01*
X58400000Y-34480000D02*
X52400000Y-34480000D01*
X61060000Y-35370000D02*
X58400000Y-35370000D01*
X61457071Y-36260000D02*
X61060000Y-36260000D01*
X61457071Y-37020000D02*
X61060000Y-37020000D01*
X52400000Y-36260000D02*
X58400000Y-36260000D01*
X52400000Y-37020000D02*
X52400000Y-36260000D01*
X58400000Y-37020000D02*
X52400000Y-37020000D01*
X61060000Y-37910000D02*
X58400000Y-37910000D01*
X61457071Y-38800000D02*
X61060000Y-38800000D01*
X61457071Y-39560000D02*
X61060000Y-39560000D01*
X52400000Y-38800000D02*
X58400000Y-38800000D01*
X52400000Y-39560000D02*
X52400000Y-38800000D01*
X58400000Y-39560000D02*
X52400000Y-39560000D01*
X61060000Y-40450000D02*
X58400000Y-40450000D01*
X61457071Y-41340000D02*
X61060000Y-41340000D01*
X61457071Y-42100000D02*
X61060000Y-42100000D01*
X52400000Y-41340000D02*
X58400000Y-41340000D01*
X52400000Y-42100000D02*
X52400000Y-41340000D01*
X58400000Y-42100000D02*
X52400000Y-42100000D01*
X61060000Y-42990000D02*
X58400000Y-42990000D01*
X61457071Y-43880000D02*
X61060000Y-43880000D01*
X61457071Y-44640000D02*
X61060000Y-44640000D01*
X52400000Y-43880000D02*
X58400000Y-43880000D01*
X52400000Y-44640000D02*
X52400000Y-43880000D01*
X58400000Y-44640000D02*
X52400000Y-44640000D01*
X61060000Y-45530000D02*
X58400000Y-45530000D01*
X61457071Y-46420000D02*
X61060000Y-46420000D01*
X61457071Y-47180000D02*
X61060000Y-47180000D01*
X52400000Y-46420000D02*
X58400000Y-46420000D01*
X52400000Y-47180000D02*
X52400000Y-46420000D01*
X58400000Y-47180000D02*
X52400000Y-47180000D01*
X61060000Y-48070000D02*
X58400000Y-48070000D01*
X61457071Y-48960000D02*
X61060000Y-48960000D01*
X61457071Y-49720000D02*
X61060000Y-49720000D01*
X52400000Y-48960000D02*
X58400000Y-48960000D01*
X52400000Y-49720000D02*
X52400000Y-48960000D01*
X58400000Y-49720000D02*
X52400000Y-49720000D01*
X61060000Y-50610000D02*
X58400000Y-50610000D01*
X61457071Y-51500000D02*
X61060000Y-51500000D01*
X61457071Y-52260000D02*
X61060000Y-52260000D01*
X52400000Y-51500000D02*
X58400000Y-51500000D01*
X52400000Y-52260000D02*
X52400000Y-51500000D01*
X58400000Y-52260000D02*
X52400000Y-52260000D01*
X61060000Y-53150000D02*
X58400000Y-53150000D01*
X61457071Y-54040000D02*
X61060000Y-54040000D01*
X61457071Y-54800000D02*
X61060000Y-54800000D01*
X52400000Y-54040000D02*
X58400000Y-54040000D01*
X52400000Y-54800000D02*
X52400000Y-54040000D01*
X58400000Y-54800000D02*
X52400000Y-54800000D01*
X61060000Y-55690000D02*
X58400000Y-55690000D01*
X61457071Y-56580000D02*
X61060000Y-56580000D01*
X61457071Y-57340000D02*
X61060000Y-57340000D01*
X52400000Y-56580000D02*
X58400000Y-56580000D01*
X52400000Y-57340000D02*
X52400000Y-56580000D01*
X58400000Y-57340000D02*
X52400000Y-57340000D01*
X61060000Y-58230000D02*
X58400000Y-58230000D01*
X61390000Y-59120000D02*
X61060000Y-59120000D01*
X61390000Y-59880000D02*
X61060000Y-59880000D01*
X58400000Y-59220000D02*
X52400000Y-59220000D01*
X58400000Y-59340000D02*
X52400000Y-59340000D01*
X58400000Y-59460000D02*
X52400000Y-59460000D01*
X58400000Y-59580000D02*
X52400000Y-59580000D01*
X58400000Y-59700000D02*
X52400000Y-59700000D01*
X58400000Y-59820000D02*
X52400000Y-59820000D01*
X52400000Y-59120000D02*
X58400000Y-59120000D01*
X52400000Y-59880000D02*
X52400000Y-59120000D01*
X58400000Y-59880000D02*
X52400000Y-59880000D01*
X58400000Y-60830000D02*
X61060000Y-60830000D01*
X58400000Y-30230000D02*
X58400000Y-60830000D01*
X61060000Y-30230000D02*
X58400000Y-30230000D01*
X61060000Y-60830000D02*
X61060000Y-30230000D01*
D10*
X97761904Y-46952380D02*
X98333333Y-46952380D01*
X98047619Y-47952380D02*
X98047619Y-46952380D01*
X98666666Y-47952380D02*
X98666666Y-46952380D01*
X99047619Y-46952380D01*
X99142857Y-47000000D01*
X99190476Y-47047619D01*
X99238095Y-47142857D01*
X99238095Y-47285714D01*
X99190476Y-47380952D01*
X99142857Y-47428571D01*
X99047619Y-47476190D01*
X98666666Y-47476190D01*
X100190476Y-47952380D02*
X99619047Y-47952380D01*
X99904761Y-47952380D02*
X99904761Y-46952380D01*
X99809523Y-47095238D01*
X99714285Y-47190476D01*
X99619047Y-47238095D01*
X100571428Y-47047619D02*
X100619047Y-47000000D01*
X100714285Y-46952380D01*
X100952380Y-46952380D01*
X101047619Y-47000000D01*
X101095238Y-47047619D01*
X101142857Y-47142857D01*
X101142857Y-47238095D01*
X101095238Y-47380952D01*
X100523809Y-47952380D01*
X101142857Y-47952380D01*
X91761904Y-36952380D02*
X92333333Y-36952380D01*
X92047619Y-37952380D02*
X92047619Y-36952380D01*
X92666666Y-37952380D02*
X92666666Y-36952380D01*
X93047619Y-36952380D01*
X93142857Y-37000000D01*
X93190476Y-37047619D01*
X93238095Y-37142857D01*
X93238095Y-37285714D01*
X93190476Y-37380952D01*
X93142857Y-37428571D01*
X93047619Y-37476190D01*
X92666666Y-37476190D01*
X94190476Y-37952380D02*
X93619047Y-37952380D01*
X93904761Y-37952380D02*
X93904761Y-36952380D01*
X93809523Y-37095238D01*
X93714285Y-37190476D01*
X93619047Y-37238095D01*
X95142857Y-37952380D02*
X94571428Y-37952380D01*
X94857142Y-37952380D02*
X94857142Y-36952380D01*
X94761904Y-37095238D01*
X94666666Y-37190476D01*
X94571428Y-37238095D01*
X99761904Y-36952380D02*
X100333333Y-36952380D01*
X100047619Y-37952380D02*
X100047619Y-36952380D01*
X100666666Y-37952380D02*
X100666666Y-36952380D01*
X101047619Y-36952380D01*
X101142857Y-37000000D01*
X101190476Y-37047619D01*
X101238095Y-37142857D01*
X101238095Y-37285714D01*
X101190476Y-37380952D01*
X101142857Y-37428571D01*
X101047619Y-37476190D01*
X100666666Y-37476190D01*
X102190476Y-37952380D02*
X101619047Y-37952380D01*
X101904761Y-37952380D02*
X101904761Y-36952380D01*
X101809523Y-37095238D01*
X101714285Y-37190476D01*
X101619047Y-37238095D01*
X102809523Y-36952380D02*
X102904761Y-36952380D01*
X103000000Y-37000000D01*
X103047619Y-37047619D01*
X103095238Y-37142857D01*
X103142857Y-37333333D01*
X103142857Y-37571428D01*
X103095238Y-37761904D01*
X103047619Y-37857142D01*
X103000000Y-37904761D01*
X102904761Y-37952380D01*
X102809523Y-37952380D01*
X102714285Y-37904761D01*
X102666666Y-37857142D01*
X102619047Y-37761904D01*
X102571428Y-37571428D01*
X102571428Y-37333333D01*
X102619047Y-37142857D01*
X102666666Y-37047619D01*
X102714285Y-37000000D01*
X102809523Y-36952380D01*
X92738095Y-38952380D02*
X93309523Y-38952380D01*
X93023809Y-39952380D02*
X93023809Y-38952380D01*
X93642857Y-39952380D02*
X93642857Y-38952380D01*
X94023809Y-38952380D01*
X94119047Y-39000000D01*
X94166666Y-39047619D01*
X94214285Y-39142857D01*
X94214285Y-39285714D01*
X94166666Y-39380952D01*
X94119047Y-39428571D01*
X94023809Y-39476190D01*
X93642857Y-39476190D01*
X94690476Y-39952380D02*
X94880952Y-39952380D01*
X94976190Y-39904761D01*
X95023809Y-39857142D01*
X95119047Y-39714285D01*
X95166666Y-39523809D01*
X95166666Y-39142857D01*
X95119047Y-39047619D01*
X95071428Y-39000000D01*
X94976190Y-38952380D01*
X94785714Y-38952380D01*
X94690476Y-39000000D01*
X94642857Y-39047619D01*
X94595238Y-39142857D01*
X94595238Y-39380952D01*
X94642857Y-39476190D01*
X94690476Y-39523809D01*
X94785714Y-39571428D01*
X94976190Y-39571428D01*
X95071428Y-39523809D01*
X95119047Y-39476190D01*
X95166666Y-39380952D01*
X99738095Y-38952380D02*
X100309523Y-38952380D01*
X100023809Y-39952380D02*
X100023809Y-38952380D01*
X100642857Y-39952380D02*
X100642857Y-38952380D01*
X101023809Y-38952380D01*
X101119047Y-39000000D01*
X101166666Y-39047619D01*
X101214285Y-39142857D01*
X101214285Y-39285714D01*
X101166666Y-39380952D01*
X101119047Y-39428571D01*
X101023809Y-39476190D01*
X100642857Y-39476190D01*
X101785714Y-39380952D02*
X101690476Y-39333333D01*
X101642857Y-39285714D01*
X101595238Y-39190476D01*
X101595238Y-39142857D01*
X101642857Y-39047619D01*
X101690476Y-39000000D01*
X101785714Y-38952380D01*
X101976190Y-38952380D01*
X102071428Y-39000000D01*
X102119047Y-39047619D01*
X102166666Y-39142857D01*
X102166666Y-39190476D01*
X102119047Y-39285714D01*
X102071428Y-39333333D01*
X101976190Y-39380952D01*
X101785714Y-39380952D01*
X101690476Y-39428571D01*
X101642857Y-39476190D01*
X101595238Y-39571428D01*
X101595238Y-39761904D01*
X101642857Y-39857142D01*
X101690476Y-39904761D01*
X101785714Y-39952380D01*
X101976190Y-39952380D01*
X102071428Y-39904761D01*
X102119047Y-39857142D01*
X102166666Y-39761904D01*
X102166666Y-39571428D01*
X102119047Y-39476190D01*
X102071428Y-39428571D01*
X101976190Y-39380952D01*
X92738095Y-52952380D02*
X93309523Y-52952380D01*
X93023809Y-53952380D02*
X93023809Y-52952380D01*
X93642857Y-53952380D02*
X93642857Y-52952380D01*
X94023809Y-52952380D01*
X94119047Y-53000000D01*
X94166666Y-53047619D01*
X94214285Y-53142857D01*
X94214285Y-53285714D01*
X94166666Y-53380952D01*
X94119047Y-53428571D01*
X94023809Y-53476190D01*
X93642857Y-53476190D01*
X94547619Y-52952380D02*
X95214285Y-52952380D01*
X94785714Y-53952380D01*
X92738095Y-50952380D02*
X93309523Y-50952380D01*
X93023809Y-51952380D02*
X93023809Y-50952380D01*
X93642857Y-51952380D02*
X93642857Y-50952380D01*
X94023809Y-50952380D01*
X94119047Y-51000000D01*
X94166666Y-51047619D01*
X94214285Y-51142857D01*
X94214285Y-51285714D01*
X94166666Y-51380952D01*
X94119047Y-51428571D01*
X94023809Y-51476190D01*
X93642857Y-51476190D01*
X95071428Y-50952380D02*
X94880952Y-50952380D01*
X94785714Y-51000000D01*
X94738095Y-51047619D01*
X94642857Y-51190476D01*
X94595238Y-51380952D01*
X94595238Y-51761904D01*
X94642857Y-51857142D01*
X94690476Y-51904761D01*
X94785714Y-51952380D01*
X94976190Y-51952380D01*
X95071428Y-51904761D01*
X95119047Y-51857142D01*
X95166666Y-51761904D01*
X95166666Y-51523809D01*
X95119047Y-51428571D01*
X95071428Y-51380952D01*
X94976190Y-51333333D01*
X94785714Y-51333333D01*
X94690476Y-51380952D01*
X94642857Y-51428571D01*
X94595238Y-51523809D01*
X99738095Y-50952380D02*
X100309523Y-50952380D01*
X100023809Y-51952380D02*
X100023809Y-50952380D01*
X100642857Y-51952380D02*
X100642857Y-50952380D01*
X101023809Y-50952380D01*
X101119047Y-51000000D01*
X101166666Y-51047619D01*
X101214285Y-51142857D01*
X101214285Y-51285714D01*
X101166666Y-51380952D01*
X101119047Y-51428571D01*
X101023809Y-51476190D01*
X100642857Y-51476190D01*
X102119047Y-50952380D02*
X101642857Y-50952380D01*
X101595238Y-51428571D01*
X101642857Y-51380952D01*
X101738095Y-51333333D01*
X101976190Y-51333333D01*
X102071428Y-51380952D01*
X102119047Y-51428571D01*
X102166666Y-51523809D01*
X102166666Y-51761904D01*
X102119047Y-51857142D01*
X102071428Y-51904761D01*
X101976190Y-51952380D01*
X101738095Y-51952380D01*
X101642857Y-51904761D01*
X101595238Y-51857142D01*
X92738095Y-54952380D02*
X93309523Y-54952380D01*
X93023809Y-55952380D02*
X93023809Y-54952380D01*
X93642857Y-55952380D02*
X93642857Y-54952380D01*
X94023809Y-54952380D01*
X94119047Y-55000000D01*
X94166666Y-55047619D01*
X94214285Y-55142857D01*
X94214285Y-55285714D01*
X94166666Y-55380952D01*
X94119047Y-55428571D01*
X94023809Y-55476190D01*
X93642857Y-55476190D01*
X95071428Y-55285714D02*
X95071428Y-55952380D01*
X94833333Y-54904761D02*
X94595238Y-55619047D01*
X95214285Y-55619047D01*
X99738095Y-52952380D02*
X100309523Y-52952380D01*
X100023809Y-53952380D02*
X100023809Y-52952380D01*
X100642857Y-53952380D02*
X100642857Y-52952380D01*
X101023809Y-52952380D01*
X101119047Y-53000000D01*
X101166666Y-53047619D01*
X101214285Y-53142857D01*
X101214285Y-53285714D01*
X101166666Y-53380952D01*
X101119047Y-53428571D01*
X101023809Y-53476190D01*
X100642857Y-53476190D01*
X101547619Y-52952380D02*
X102166666Y-52952380D01*
X101833333Y-53333333D01*
X101976190Y-53333333D01*
X102071428Y-53380952D01*
X102119047Y-53428571D01*
X102166666Y-53523809D01*
X102166666Y-53761904D01*
X102119047Y-53857142D01*
X102071428Y-53904761D01*
X101976190Y-53952380D01*
X101690476Y-53952380D01*
X101595238Y-53904761D01*
X101547619Y-53857142D01*
X89238095Y-58952380D02*
X89809523Y-58952380D01*
X89523809Y-59952380D02*
X89523809Y-58952380D01*
X90142857Y-59952380D02*
X90142857Y-58952380D01*
X90523809Y-58952380D01*
X90619047Y-59000000D01*
X90666666Y-59047619D01*
X90714285Y-59142857D01*
X90714285Y-59285714D01*
X90666666Y-59380952D01*
X90619047Y-59428571D01*
X90523809Y-59476190D01*
X90142857Y-59476190D01*
X91095238Y-59047619D02*
X91142857Y-59000000D01*
X91238095Y-58952380D01*
X91476190Y-58952380D01*
X91571428Y-59000000D01*
X91619047Y-59047619D01*
X91666666Y-59142857D01*
X91666666Y-59238095D01*
X91619047Y-59380952D01*
X91047619Y-59952380D01*
X91666666Y-59952380D01*
X77238095Y-58952380D02*
X77809523Y-58952380D01*
X77523809Y-59952380D02*
X77523809Y-58952380D01*
X78142857Y-59952380D02*
X78142857Y-58952380D01*
X78523809Y-58952380D01*
X78619047Y-59000000D01*
X78666666Y-59047619D01*
X78714285Y-59142857D01*
X78714285Y-59285714D01*
X78666666Y-59380952D01*
X78619047Y-59428571D01*
X78523809Y-59476190D01*
X78142857Y-59476190D01*
X79666666Y-59952380D02*
X79095238Y-59952380D01*
X79380952Y-59952380D02*
X79380952Y-58952380D01*
X79285714Y-59095238D01*
X79190476Y-59190476D01*
X79095238Y-59238095D01*
X57781666Y-61222380D02*
X57781666Y-61936666D01*
X57734047Y-62079523D01*
X57638809Y-62174761D01*
X57495952Y-62222380D01*
X57400714Y-62222380D01*
X58781666Y-62222380D02*
X58210238Y-62222380D01*
X58495952Y-62222380D02*
X58495952Y-61222380D01*
X58400714Y-61365238D01*
X58305476Y-61460476D01*
X58210238Y-61508095D01*
M02*
