G04 #@! TF.GenerationSoftware,KiCad,Pcbnew,(6.0.0-rc1-dev-1546-g786ee0e)*
G04 #@! TF.CreationDate,2021-05-18T14:50:20-07:00
G04 #@! TF.ProjectId,Dock,446f636b-2e6b-4696-9361-645f70636258,rev?*
G04 #@! TF.SameCoordinates,Original*
G04 #@! TF.FileFunction,Copper,L1,Top*
G04 #@! TF.FilePolarity,Positive*
%FSLAX46Y46*%
G04 Gerber Fmt 4.6, Leading zero omitted, Abs format (unit mm)*
G04 Created by KiCad (PCBNEW (6.0.0-rc1-dev-1546-g786ee0e)) date Tue 18 May 2021 02:50:20 PM PDT*
%MOMM*%
%LPD*%
G04 APERTURE LIST*
%ADD10C,1.500000*%
%ADD11O,1.700000X1.700000*%
%ADD12R,1.700000X1.700000*%
%ADD13C,0.800000*%
%ADD14C,0.250000*%
%ADD15C,0.254000*%
G04 APERTURE END LIST*
D10*
X96500000Y-47500000D03*
X96500000Y-37500000D03*
X98500000Y-37500000D03*
X96500000Y-39500000D03*
X98500000Y-39500000D03*
X96500000Y-53500000D03*
X96500000Y-51500000D03*
X98500000Y-51500000D03*
X96500000Y-55500000D03*
X98500000Y-53500000D03*
X90500000Y-59000000D03*
X78500000Y-59000000D03*
D11*
X62500000Y-31560000D03*
X62500000Y-34100000D03*
X62500000Y-36640000D03*
X62500000Y-39180000D03*
X62500000Y-41720000D03*
X62500000Y-44260000D03*
X62500000Y-46800000D03*
X62500000Y-49340000D03*
X62500000Y-51880000D03*
X62500000Y-54420000D03*
X62500000Y-56960000D03*
D12*
X62500000Y-59500000D03*
D13*
X98000000Y-61500000D03*
X89000000Y-48500000D03*
X86000000Y-51500000D03*
X90500000Y-50500000D03*
X81000000Y-55500000D03*
X91000000Y-52500000D03*
D14*
X69000000Y-43140000D02*
X69140000Y-43140000D01*
X62500000Y-36640000D02*
X69000000Y-43140000D01*
X69140000Y-43140000D02*
X73500000Y-47500000D01*
X73500000Y-47500000D02*
X73500000Y-61000000D01*
X73500000Y-61000000D02*
X76500000Y-64000000D01*
X76500000Y-64000000D02*
X92500000Y-64000000D01*
X98500000Y-58000000D02*
X98500000Y-53500000D01*
X92500000Y-64000000D02*
X98500000Y-58000000D01*
X62500000Y-39180000D02*
X71000000Y-47680000D01*
X71000000Y-47680000D02*
X71000000Y-59136410D01*
X71000000Y-59136410D02*
X71000000Y-62000000D01*
X71000000Y-62000000D02*
X75000000Y-66000000D01*
X93500000Y-66000000D02*
X98000000Y-61500000D01*
X75000000Y-66000000D02*
X93500000Y-66000000D01*
X89399999Y-48100001D02*
X91899999Y-48100001D01*
X89000000Y-48500000D02*
X89399999Y-48100001D01*
X98500000Y-41500000D02*
X98500000Y-39500000D01*
X91899999Y-48100001D02*
X98500000Y-41500000D01*
X86000000Y-50000000D02*
X96500000Y-39500000D01*
X86000000Y-51500000D02*
X86000000Y-50000000D01*
X90500000Y-50500000D02*
X97500000Y-43500000D01*
X97500000Y-43500000D02*
X99000000Y-43500000D01*
X99000000Y-43500000D02*
X102000000Y-40500000D01*
X102000000Y-40500000D02*
X102000000Y-39000000D01*
X102000000Y-39000000D02*
X100500000Y-37500000D01*
X100500000Y-37500000D02*
X98500000Y-37500000D01*
X81000000Y-53000000D02*
X92500000Y-41500000D01*
X81000000Y-55500000D02*
X81000000Y-53000000D01*
X92500000Y-41500000D02*
X92500000Y-39500000D01*
X92500000Y-39500000D02*
X94500000Y-37500000D01*
X94500000Y-37500000D02*
X96500000Y-37500000D01*
X96000000Y-47500000D02*
X96500000Y-47500000D01*
X91000000Y-52500000D02*
X96000000Y-47500000D01*
X78500000Y-47560000D02*
X78500000Y-59000000D01*
X62500000Y-31560000D02*
X78500000Y-47560000D01*
X62500000Y-34100000D02*
X75500000Y-47100000D01*
X75500000Y-47100000D02*
X75500000Y-59500000D01*
X75500000Y-59500000D02*
X78000000Y-62000000D01*
X87500000Y-62000000D02*
X90500000Y-59000000D01*
X78000000Y-62000000D02*
X87500000Y-62000000D01*
D15*
G36*
X108815000Y-69815000D02*
G01*
X60185000Y-69815000D01*
X60185000Y-66545098D01*
X60270315Y-66545098D01*
X60340583Y-67171555D01*
X60531193Y-67772432D01*
X60834883Y-68324843D01*
X61240087Y-68807747D01*
X61731371Y-69202749D01*
X62290021Y-69494804D01*
X62894758Y-69672788D01*
X63522549Y-69729921D01*
X64149482Y-69664028D01*
X64751675Y-69477618D01*
X65306193Y-69177791D01*
X65791913Y-68775968D01*
X66190336Y-68287455D01*
X66486284Y-67730857D01*
X66668485Y-67127377D01*
X66730000Y-66500000D01*
X66728741Y-66409813D01*
X66649732Y-65784398D01*
X66450752Y-65186241D01*
X66139378Y-64638124D01*
X65727471Y-64160925D01*
X65230721Y-63772821D01*
X64668047Y-63488594D01*
X64060884Y-63319071D01*
X63432356Y-63270708D01*
X62806405Y-63345349D01*
X62206873Y-63540148D01*
X61656595Y-63847688D01*
X61176532Y-64256253D01*
X60784970Y-64750282D01*
X60496822Y-65310958D01*
X60323064Y-65916923D01*
X60270315Y-66545098D01*
X60185000Y-66545098D01*
X60185000Y-34100000D01*
X61007815Y-34100000D01*
X61036487Y-34391111D01*
X61121401Y-34671034D01*
X61259294Y-34929014D01*
X61444866Y-35155134D01*
X61670986Y-35340706D01*
X61725791Y-35370000D01*
X61670986Y-35399294D01*
X61444866Y-35584866D01*
X61259294Y-35810986D01*
X61121401Y-36068966D01*
X61036487Y-36348889D01*
X61007815Y-36640000D01*
X61036487Y-36931111D01*
X61121401Y-37211034D01*
X61259294Y-37469014D01*
X61444866Y-37695134D01*
X61670986Y-37880706D01*
X61725791Y-37910000D01*
X61670986Y-37939294D01*
X61444866Y-38124866D01*
X61259294Y-38350986D01*
X61121401Y-38608966D01*
X61036487Y-38888889D01*
X61007815Y-39180000D01*
X61036487Y-39471111D01*
X61121401Y-39751034D01*
X61259294Y-40009014D01*
X61444866Y-40235134D01*
X61670986Y-40420706D01*
X61725791Y-40450000D01*
X61670986Y-40479294D01*
X61444866Y-40664866D01*
X61259294Y-40890986D01*
X61121401Y-41148966D01*
X61036487Y-41428889D01*
X61007815Y-41720000D01*
X61036487Y-42011111D01*
X61121401Y-42291034D01*
X61259294Y-42549014D01*
X61444866Y-42775134D01*
X61670986Y-42960706D01*
X61725791Y-42990000D01*
X61670986Y-43019294D01*
X61444866Y-43204866D01*
X61259294Y-43430986D01*
X61121401Y-43688966D01*
X61036487Y-43968889D01*
X61007815Y-44260000D01*
X61036487Y-44551111D01*
X61121401Y-44831034D01*
X61259294Y-45089014D01*
X61444866Y-45315134D01*
X61670986Y-45500706D01*
X61725791Y-45530000D01*
X61670986Y-45559294D01*
X61444866Y-45744866D01*
X61259294Y-45970986D01*
X61121401Y-46228966D01*
X61036487Y-46508889D01*
X61007815Y-46800000D01*
X61036487Y-47091111D01*
X61121401Y-47371034D01*
X61259294Y-47629014D01*
X61444866Y-47855134D01*
X61670986Y-48040706D01*
X61725791Y-48070000D01*
X61670986Y-48099294D01*
X61444866Y-48284866D01*
X61259294Y-48510986D01*
X61121401Y-48768966D01*
X61036487Y-49048889D01*
X61007815Y-49340000D01*
X61036487Y-49631111D01*
X61121401Y-49911034D01*
X61259294Y-50169014D01*
X61444866Y-50395134D01*
X61670986Y-50580706D01*
X61725791Y-50610000D01*
X61670986Y-50639294D01*
X61444866Y-50824866D01*
X61259294Y-51050986D01*
X61121401Y-51308966D01*
X61036487Y-51588889D01*
X61007815Y-51880000D01*
X61036487Y-52171111D01*
X61121401Y-52451034D01*
X61259294Y-52709014D01*
X61444866Y-52935134D01*
X61670986Y-53120706D01*
X61725791Y-53150000D01*
X61670986Y-53179294D01*
X61444866Y-53364866D01*
X61259294Y-53590986D01*
X61121401Y-53848966D01*
X61036487Y-54128889D01*
X61007815Y-54420000D01*
X61036487Y-54711111D01*
X61121401Y-54991034D01*
X61259294Y-55249014D01*
X61444866Y-55475134D01*
X61670986Y-55660706D01*
X61725791Y-55690000D01*
X61670986Y-55719294D01*
X61444866Y-55904866D01*
X61259294Y-56130986D01*
X61121401Y-56388966D01*
X61036487Y-56668889D01*
X61007815Y-56960000D01*
X61036487Y-57251111D01*
X61121401Y-57531034D01*
X61259294Y-57789014D01*
X61444866Y-58015134D01*
X61474687Y-58039607D01*
X61405820Y-58060498D01*
X61295506Y-58119463D01*
X61198815Y-58198815D01*
X61119463Y-58295506D01*
X61060498Y-58405820D01*
X61024188Y-58525518D01*
X61011928Y-58650000D01*
X61011928Y-60350000D01*
X61024188Y-60474482D01*
X61060498Y-60594180D01*
X61119463Y-60704494D01*
X61198815Y-60801185D01*
X61295506Y-60880537D01*
X61405820Y-60939502D01*
X61525518Y-60975812D01*
X61650000Y-60988072D01*
X63350000Y-60988072D01*
X63474482Y-60975812D01*
X63594180Y-60939502D01*
X63704494Y-60880537D01*
X63801185Y-60801185D01*
X63880537Y-60704494D01*
X63939502Y-60594180D01*
X63975812Y-60474482D01*
X63988072Y-60350000D01*
X63988072Y-58650000D01*
X63975812Y-58525518D01*
X63939502Y-58405820D01*
X63880537Y-58295506D01*
X63801185Y-58198815D01*
X63704494Y-58119463D01*
X63594180Y-58060498D01*
X63525313Y-58039607D01*
X63555134Y-58015134D01*
X63740706Y-57789014D01*
X63878599Y-57531034D01*
X63963513Y-57251111D01*
X63992185Y-56960000D01*
X63963513Y-56668889D01*
X63878599Y-56388966D01*
X63740706Y-56130986D01*
X63555134Y-55904866D01*
X63329014Y-55719294D01*
X63274209Y-55690000D01*
X63329014Y-55660706D01*
X63555134Y-55475134D01*
X63740706Y-55249014D01*
X63878599Y-54991034D01*
X63963513Y-54711111D01*
X63992185Y-54420000D01*
X63963513Y-54128889D01*
X63878599Y-53848966D01*
X63740706Y-53590986D01*
X63555134Y-53364866D01*
X63329014Y-53179294D01*
X63274209Y-53150000D01*
X63329014Y-53120706D01*
X63555134Y-52935134D01*
X63740706Y-52709014D01*
X63878599Y-52451034D01*
X63963513Y-52171111D01*
X63992185Y-51880000D01*
X63963513Y-51588889D01*
X63878599Y-51308966D01*
X63740706Y-51050986D01*
X63555134Y-50824866D01*
X63329014Y-50639294D01*
X63274209Y-50610000D01*
X63329014Y-50580706D01*
X63555134Y-50395134D01*
X63740706Y-50169014D01*
X63878599Y-49911034D01*
X63963513Y-49631111D01*
X63992185Y-49340000D01*
X63963513Y-49048889D01*
X63878599Y-48768966D01*
X63740706Y-48510986D01*
X63555134Y-48284866D01*
X63329014Y-48099294D01*
X63274209Y-48070000D01*
X63329014Y-48040706D01*
X63555134Y-47855134D01*
X63740706Y-47629014D01*
X63878599Y-47371034D01*
X63963513Y-47091111D01*
X63992185Y-46800000D01*
X63963513Y-46508889D01*
X63878599Y-46228966D01*
X63740706Y-45970986D01*
X63555134Y-45744866D01*
X63329014Y-45559294D01*
X63274209Y-45530000D01*
X63329014Y-45500706D01*
X63555134Y-45315134D01*
X63740706Y-45089014D01*
X63878599Y-44831034D01*
X63963513Y-44551111D01*
X63992185Y-44260000D01*
X63963513Y-43968889D01*
X63878599Y-43688966D01*
X63740706Y-43430986D01*
X63555134Y-43204866D01*
X63329014Y-43019294D01*
X63274209Y-42990000D01*
X63329014Y-42960706D01*
X63555134Y-42775134D01*
X63740706Y-42549014D01*
X63878599Y-42291034D01*
X63963513Y-42011111D01*
X63989765Y-41744567D01*
X70240000Y-47994802D01*
X70240001Y-59099068D01*
X70240000Y-59099078D01*
X70240001Y-61962668D01*
X70236324Y-62000000D01*
X70240001Y-62037333D01*
X70250998Y-62148986D01*
X70264180Y-62192442D01*
X70294454Y-62292246D01*
X70365026Y-62424276D01*
X70423254Y-62495226D01*
X70460000Y-62540001D01*
X70488998Y-62563799D01*
X74436201Y-66511003D01*
X74459999Y-66540001D01*
X74575724Y-66634974D01*
X74707753Y-66705546D01*
X74851014Y-66749003D01*
X74962667Y-66760000D01*
X74962676Y-66760000D01*
X74999999Y-66763676D01*
X75037322Y-66760000D01*
X93462678Y-66760000D01*
X93500000Y-66763676D01*
X93537322Y-66760000D01*
X93537333Y-66760000D01*
X93648986Y-66749003D01*
X93792247Y-66705546D01*
X93924276Y-66634974D01*
X94033790Y-66545098D01*
X102270315Y-66545098D01*
X102340583Y-67171555D01*
X102531193Y-67772432D01*
X102834883Y-68324843D01*
X103240087Y-68807747D01*
X103731371Y-69202749D01*
X104290021Y-69494804D01*
X104894758Y-69672788D01*
X105522549Y-69729921D01*
X106149482Y-69664028D01*
X106751675Y-69477618D01*
X107306193Y-69177791D01*
X107791913Y-68775968D01*
X108190336Y-68287455D01*
X108486284Y-67730857D01*
X108668485Y-67127377D01*
X108730000Y-66500000D01*
X108728741Y-66409813D01*
X108649732Y-65784398D01*
X108450752Y-65186241D01*
X108139378Y-64638124D01*
X107727471Y-64160925D01*
X107230721Y-63772821D01*
X106668047Y-63488594D01*
X106060884Y-63319071D01*
X105432356Y-63270708D01*
X104806405Y-63345349D01*
X104206873Y-63540148D01*
X103656595Y-63847688D01*
X103176532Y-64256253D01*
X102784970Y-64750282D01*
X102496822Y-65310958D01*
X102323064Y-65916923D01*
X102270315Y-66545098D01*
X94033790Y-66545098D01*
X94040001Y-66540001D01*
X94063804Y-66510997D01*
X98039802Y-62535000D01*
X98101939Y-62535000D01*
X98301898Y-62495226D01*
X98490256Y-62417205D01*
X98659774Y-62303937D01*
X98803937Y-62159774D01*
X98917205Y-61990256D01*
X98995226Y-61801898D01*
X99035000Y-61601939D01*
X99035000Y-61398061D01*
X98995226Y-61198102D01*
X98917205Y-61009744D01*
X98803937Y-60840226D01*
X98659774Y-60696063D01*
X98490256Y-60582795D01*
X98301898Y-60504774D01*
X98101939Y-60465000D01*
X97898061Y-60465000D01*
X97698102Y-60504774D01*
X97509744Y-60582795D01*
X97340226Y-60696063D01*
X97196063Y-60840226D01*
X97082795Y-61009744D01*
X97004774Y-61198102D01*
X96965000Y-61398061D01*
X96965000Y-61460198D01*
X93185199Y-65240000D01*
X75314802Y-65240000D01*
X71760000Y-61685199D01*
X71760000Y-47717322D01*
X71763676Y-47679999D01*
X71760000Y-47642676D01*
X71760000Y-47642667D01*
X71749003Y-47531014D01*
X71705546Y-47387753D01*
X71634974Y-47255724D01*
X71540001Y-47139999D01*
X71511004Y-47116202D01*
X63940797Y-39545996D01*
X63963513Y-39471111D01*
X63989765Y-39204567D01*
X68436200Y-43651002D01*
X68459999Y-43680001D01*
X68488997Y-43703799D01*
X68575723Y-43774974D01*
X68707753Y-43845546D01*
X68798173Y-43872974D01*
X72740000Y-47814802D01*
X72740001Y-60962668D01*
X72736324Y-61000000D01*
X72750998Y-61148985D01*
X72794454Y-61292246D01*
X72865026Y-61424276D01*
X72918142Y-61488997D01*
X72960000Y-61540001D01*
X72988998Y-61563799D01*
X75936201Y-64511003D01*
X75959999Y-64540001D01*
X76075724Y-64634974D01*
X76207753Y-64705546D01*
X76351014Y-64749003D01*
X76462667Y-64760000D01*
X76462675Y-64760000D01*
X76500000Y-64763676D01*
X76537325Y-64760000D01*
X92462678Y-64760000D01*
X92500000Y-64763676D01*
X92537322Y-64760000D01*
X92537333Y-64760000D01*
X92648986Y-64749003D01*
X92792247Y-64705546D01*
X92924276Y-64634974D01*
X93040001Y-64540001D01*
X93063804Y-64510997D01*
X99011009Y-58563794D01*
X99040001Y-58540001D01*
X99063795Y-58511008D01*
X99063799Y-58511004D01*
X99134973Y-58424277D01*
X99134974Y-58424276D01*
X99205546Y-58292247D01*
X99249003Y-58148986D01*
X99260000Y-58037333D01*
X99260000Y-58037324D01*
X99263676Y-58000001D01*
X99260000Y-57962678D01*
X99260000Y-54657909D01*
X99382886Y-54575799D01*
X99575799Y-54382886D01*
X99727371Y-54156043D01*
X99831775Y-53903989D01*
X99885000Y-53636411D01*
X99885000Y-53363589D01*
X99831775Y-53096011D01*
X99727371Y-52843957D01*
X99575799Y-52617114D01*
X99458685Y-52500000D01*
X99575799Y-52382886D01*
X99727371Y-52156043D01*
X99831775Y-51903989D01*
X99885000Y-51636411D01*
X99885000Y-51363589D01*
X99831775Y-51096011D01*
X99727371Y-50843957D01*
X99575799Y-50617114D01*
X99382886Y-50424201D01*
X99156043Y-50272629D01*
X98903989Y-50168225D01*
X98636411Y-50115000D01*
X98363589Y-50115000D01*
X98096011Y-50168225D01*
X97843957Y-50272629D01*
X97617114Y-50424201D01*
X97500000Y-50541315D01*
X97382886Y-50424201D01*
X97156043Y-50272629D01*
X96903989Y-50168225D01*
X96636411Y-50115000D01*
X96363589Y-50115000D01*
X96096011Y-50168225D01*
X95843957Y-50272629D01*
X95617114Y-50424201D01*
X95424201Y-50617114D01*
X95272629Y-50843957D01*
X95168225Y-51096011D01*
X95115000Y-51363589D01*
X95115000Y-51636411D01*
X95168225Y-51903989D01*
X95272629Y-52156043D01*
X95424201Y-52382886D01*
X95541315Y-52500000D01*
X95424201Y-52617114D01*
X95272629Y-52843957D01*
X95168225Y-53096011D01*
X95115000Y-53363589D01*
X95115000Y-53636411D01*
X95168225Y-53903989D01*
X95272629Y-54156043D01*
X95424201Y-54382886D01*
X95541315Y-54500000D01*
X95424201Y-54617114D01*
X95272629Y-54843957D01*
X95168225Y-55096011D01*
X95115000Y-55363589D01*
X95115000Y-55636411D01*
X95168225Y-55903989D01*
X95272629Y-56156043D01*
X95424201Y-56382886D01*
X95617114Y-56575799D01*
X95843957Y-56727371D01*
X96096011Y-56831775D01*
X96363589Y-56885000D01*
X96636411Y-56885000D01*
X96903989Y-56831775D01*
X97156043Y-56727371D01*
X97382886Y-56575799D01*
X97575799Y-56382886D01*
X97727371Y-56156043D01*
X97740000Y-56125553D01*
X97740000Y-57685197D01*
X92185199Y-63240000D01*
X76814802Y-63240000D01*
X74260000Y-60685199D01*
X74260000Y-47537322D01*
X74263676Y-47499999D01*
X74260000Y-47462676D01*
X74260000Y-47462667D01*
X74249003Y-47351014D01*
X74205546Y-47207753D01*
X74169330Y-47139999D01*
X74134974Y-47075723D01*
X74063799Y-46988997D01*
X74040001Y-46959999D01*
X74011003Y-46936201D01*
X69703804Y-42629003D01*
X69680001Y-42599999D01*
X69564276Y-42505026D01*
X69432247Y-42434454D01*
X69341828Y-42407026D01*
X63940797Y-37005996D01*
X63963513Y-36931111D01*
X63989765Y-36664567D01*
X74740000Y-47414802D01*
X74740001Y-59462668D01*
X74736324Y-59500000D01*
X74750998Y-59648985D01*
X74794454Y-59792246D01*
X74865026Y-59924276D01*
X74936201Y-60011002D01*
X74960000Y-60040001D01*
X74988998Y-60063799D01*
X77436200Y-62511002D01*
X77459999Y-62540001D01*
X77488997Y-62563799D01*
X77575723Y-62634974D01*
X77707753Y-62705546D01*
X77851014Y-62749003D01*
X77962667Y-62760000D01*
X77962677Y-62760000D01*
X78000000Y-62763676D01*
X78037323Y-62760000D01*
X87462678Y-62760000D01*
X87500000Y-62763676D01*
X87537322Y-62760000D01*
X87537333Y-62760000D01*
X87648986Y-62749003D01*
X87792247Y-62705546D01*
X87924276Y-62634974D01*
X88040001Y-62540001D01*
X88063804Y-62510997D01*
X90218635Y-60356167D01*
X90363589Y-60385000D01*
X90636411Y-60385000D01*
X90903989Y-60331775D01*
X91156043Y-60227371D01*
X91382886Y-60075799D01*
X91575799Y-59882886D01*
X91727371Y-59656043D01*
X91831775Y-59403989D01*
X91885000Y-59136411D01*
X91885000Y-58863589D01*
X91831775Y-58596011D01*
X91727371Y-58343957D01*
X91575799Y-58117114D01*
X91382886Y-57924201D01*
X91156043Y-57772629D01*
X90903989Y-57668225D01*
X90636411Y-57615000D01*
X90363589Y-57615000D01*
X90096011Y-57668225D01*
X89843957Y-57772629D01*
X89617114Y-57924201D01*
X89424201Y-58117114D01*
X89272629Y-58343957D01*
X89168225Y-58596011D01*
X89115000Y-58863589D01*
X89115000Y-59136411D01*
X89143833Y-59281365D01*
X87185199Y-61240000D01*
X78314802Y-61240000D01*
X77031795Y-59956993D01*
X77722612Y-59956993D01*
X77788137Y-60195860D01*
X78035116Y-60311760D01*
X78299960Y-60377250D01*
X78572492Y-60389812D01*
X78842238Y-60348965D01*
X79098832Y-60256277D01*
X79211863Y-60195860D01*
X79277388Y-59956993D01*
X78500000Y-59179605D01*
X77722612Y-59956993D01*
X77031795Y-59956993D01*
X76260000Y-59185199D01*
X76260000Y-59072492D01*
X77110188Y-59072492D01*
X77151035Y-59342238D01*
X77243723Y-59598832D01*
X77304140Y-59711863D01*
X77543007Y-59777388D01*
X78320395Y-59000000D01*
X78679605Y-59000000D01*
X79456993Y-59777388D01*
X79695860Y-59711863D01*
X79811760Y-59464884D01*
X79877250Y-59200040D01*
X79889812Y-58927508D01*
X79848965Y-58657762D01*
X79756277Y-58401168D01*
X79695860Y-58288137D01*
X79456993Y-58222612D01*
X78679605Y-59000000D01*
X78320395Y-59000000D01*
X77543007Y-58222612D01*
X77304140Y-58288137D01*
X77188240Y-58535116D01*
X77122750Y-58799960D01*
X77110188Y-59072492D01*
X76260000Y-59072492D01*
X76260000Y-58043007D01*
X77722612Y-58043007D01*
X78500000Y-58820395D01*
X79277388Y-58043007D01*
X79211863Y-57804140D01*
X78964884Y-57688240D01*
X78700040Y-57622750D01*
X78427508Y-57610188D01*
X78157762Y-57651035D01*
X77901168Y-57743723D01*
X77788137Y-57804140D01*
X77722612Y-58043007D01*
X76260000Y-58043007D01*
X76260000Y-55398061D01*
X79965000Y-55398061D01*
X79965000Y-55601939D01*
X80004774Y-55801898D01*
X80082795Y-55990256D01*
X80196063Y-56159774D01*
X80340226Y-56303937D01*
X80509744Y-56417205D01*
X80698102Y-56495226D01*
X80898061Y-56535000D01*
X81101939Y-56535000D01*
X81301898Y-56495226D01*
X81490256Y-56417205D01*
X81659774Y-56303937D01*
X81803937Y-56159774D01*
X81917205Y-55990256D01*
X81995226Y-55801898D01*
X82035000Y-55601939D01*
X82035000Y-55398061D01*
X81995226Y-55198102D01*
X81917205Y-55009744D01*
X81803937Y-54840226D01*
X81760000Y-54796289D01*
X81760000Y-53314801D01*
X85262846Y-49811955D01*
X85250998Y-49851014D01*
X85240001Y-49962667D01*
X85236324Y-50000000D01*
X85240001Y-50037332D01*
X85240000Y-50796289D01*
X85196063Y-50840226D01*
X85082795Y-51009744D01*
X85004774Y-51198102D01*
X84965000Y-51398061D01*
X84965000Y-51601939D01*
X85004774Y-51801898D01*
X85082795Y-51990256D01*
X85196063Y-52159774D01*
X85340226Y-52303937D01*
X85509744Y-52417205D01*
X85698102Y-52495226D01*
X85898061Y-52535000D01*
X86101939Y-52535000D01*
X86301898Y-52495226D01*
X86490256Y-52417205D01*
X86659774Y-52303937D01*
X86803937Y-52159774D01*
X86917205Y-51990256D01*
X86995226Y-51801898D01*
X87035000Y-51601939D01*
X87035000Y-51398061D01*
X86995226Y-51198102D01*
X86917205Y-51009744D01*
X86803937Y-50840226D01*
X86760000Y-50796289D01*
X86760000Y-50314801D01*
X88083496Y-48991305D01*
X88196063Y-49159774D01*
X88340226Y-49303937D01*
X88509744Y-49417205D01*
X88698102Y-49495226D01*
X88898061Y-49535000D01*
X89101939Y-49535000D01*
X89301898Y-49495226D01*
X89490256Y-49417205D01*
X89659774Y-49303937D01*
X89803937Y-49159774D01*
X89917205Y-48990256D01*
X89971159Y-48860001D01*
X91065198Y-48860001D01*
X90460199Y-49465000D01*
X90398061Y-49465000D01*
X90198102Y-49504774D01*
X90009744Y-49582795D01*
X89840226Y-49696063D01*
X89696063Y-49840226D01*
X89582795Y-50009744D01*
X89504774Y-50198102D01*
X89465000Y-50398061D01*
X89465000Y-50601939D01*
X89504774Y-50801898D01*
X89582795Y-50990256D01*
X89696063Y-51159774D01*
X89840226Y-51303937D01*
X90009744Y-51417205D01*
X90198102Y-51495226D01*
X90398061Y-51535000D01*
X90601939Y-51535000D01*
X90646556Y-51526125D01*
X90509744Y-51582795D01*
X90340226Y-51696063D01*
X90196063Y-51840226D01*
X90082795Y-52009744D01*
X90004774Y-52198102D01*
X89965000Y-52398061D01*
X89965000Y-52601939D01*
X90004774Y-52801898D01*
X90082795Y-52990256D01*
X90196063Y-53159774D01*
X90340226Y-53303937D01*
X90509744Y-53417205D01*
X90698102Y-53495226D01*
X90898061Y-53535000D01*
X91101939Y-53535000D01*
X91301898Y-53495226D01*
X91490256Y-53417205D01*
X91659774Y-53303937D01*
X91803937Y-53159774D01*
X91917205Y-52990256D01*
X91995226Y-52801898D01*
X92035000Y-52601939D01*
X92035000Y-52539801D01*
X95846413Y-48728388D01*
X96096011Y-48831775D01*
X96363589Y-48885000D01*
X96636411Y-48885000D01*
X96903989Y-48831775D01*
X97156043Y-48727371D01*
X97382886Y-48575799D01*
X97575799Y-48382886D01*
X97727371Y-48156043D01*
X97831775Y-47903989D01*
X97885000Y-47636411D01*
X97885000Y-47363589D01*
X97831775Y-47096011D01*
X97727371Y-46843957D01*
X97575799Y-46617114D01*
X97382886Y-46424201D01*
X97156043Y-46272629D01*
X96903989Y-46168225D01*
X96636411Y-46115000D01*
X96363589Y-46115000D01*
X96096011Y-46168225D01*
X95843957Y-46272629D01*
X95718032Y-46356769D01*
X97814802Y-44260000D01*
X98962678Y-44260000D01*
X99000000Y-44263676D01*
X99037322Y-44260000D01*
X99037333Y-44260000D01*
X99148986Y-44249003D01*
X99292247Y-44205546D01*
X99424276Y-44134974D01*
X99540001Y-44040001D01*
X99563804Y-44010997D01*
X102511004Y-41063798D01*
X102540001Y-41040001D01*
X102634974Y-40924276D01*
X102705546Y-40792247D01*
X102749003Y-40648986D01*
X102760000Y-40537333D01*
X102760000Y-40537325D01*
X102763676Y-40500000D01*
X102760000Y-40462675D01*
X102760000Y-39037322D01*
X102763676Y-38999999D01*
X102760000Y-38962676D01*
X102760000Y-38962667D01*
X102749003Y-38851014D01*
X102705546Y-38707753D01*
X102634974Y-38575724D01*
X102540001Y-38459999D01*
X102511003Y-38436201D01*
X101063804Y-36989003D01*
X101040001Y-36959999D01*
X100924276Y-36865026D01*
X100792247Y-36794454D01*
X100648986Y-36750997D01*
X100537333Y-36740000D01*
X100537322Y-36740000D01*
X100500000Y-36736324D01*
X100462678Y-36740000D01*
X99657909Y-36740000D01*
X99575799Y-36617114D01*
X99382886Y-36424201D01*
X99156043Y-36272629D01*
X98903989Y-36168225D01*
X98636411Y-36115000D01*
X98363589Y-36115000D01*
X98096011Y-36168225D01*
X97843957Y-36272629D01*
X97617114Y-36424201D01*
X97500000Y-36541315D01*
X97382886Y-36424201D01*
X97156043Y-36272629D01*
X96903989Y-36168225D01*
X96636411Y-36115000D01*
X96363589Y-36115000D01*
X96096011Y-36168225D01*
X95843957Y-36272629D01*
X95617114Y-36424201D01*
X95424201Y-36617114D01*
X95342091Y-36740000D01*
X94537322Y-36740000D01*
X94499999Y-36736324D01*
X94462676Y-36740000D01*
X94462667Y-36740000D01*
X94351014Y-36750997D01*
X94225782Y-36788985D01*
X94207753Y-36794454D01*
X94075723Y-36865026D01*
X93995199Y-36931111D01*
X93959999Y-36959999D01*
X93936201Y-36988997D01*
X91988998Y-38936201D01*
X91960000Y-38959999D01*
X91936202Y-38988997D01*
X91936201Y-38988998D01*
X91865026Y-39075724D01*
X91794454Y-39207754D01*
X91768825Y-39292246D01*
X91750998Y-39351014D01*
X91743782Y-39424275D01*
X91736324Y-39500000D01*
X91740001Y-39537332D01*
X91740000Y-41185198D01*
X80488998Y-52436201D01*
X80460000Y-52459999D01*
X80436202Y-52488997D01*
X80436201Y-52488998D01*
X80365026Y-52575724D01*
X80294454Y-52707754D01*
X80250998Y-52851015D01*
X80236324Y-53000000D01*
X80240001Y-53037332D01*
X80240000Y-54796289D01*
X80196063Y-54840226D01*
X80082795Y-55009744D01*
X80004774Y-55198102D01*
X79965000Y-55398061D01*
X76260000Y-55398061D01*
X76260000Y-47137322D01*
X76263676Y-47099999D01*
X76260000Y-47062676D01*
X76260000Y-47062667D01*
X76249003Y-46951014D01*
X76205546Y-46807753D01*
X76134974Y-46675724D01*
X76040001Y-46559999D01*
X76011004Y-46536202D01*
X63940797Y-34465996D01*
X63963513Y-34391111D01*
X63992185Y-34100000D01*
X63963513Y-33808889D01*
X63878599Y-33528966D01*
X63740706Y-33270986D01*
X63555134Y-33044866D01*
X63329014Y-32859294D01*
X63264477Y-32824799D01*
X63381355Y-32755178D01*
X63597588Y-32560269D01*
X63771641Y-32326920D01*
X63896825Y-32064099D01*
X63941476Y-31916890D01*
X63820155Y-31687000D01*
X62627000Y-31687000D01*
X62627000Y-31707000D01*
X62373000Y-31707000D01*
X62373000Y-31687000D01*
X61179845Y-31687000D01*
X61058524Y-31916890D01*
X61103175Y-32064099D01*
X61228359Y-32326920D01*
X61402412Y-32560269D01*
X61618645Y-32755178D01*
X61735523Y-32824799D01*
X61670986Y-32859294D01*
X61444866Y-33044866D01*
X61259294Y-33270986D01*
X61121401Y-33528966D01*
X61036487Y-33808889D01*
X61007815Y-34100000D01*
X60185000Y-34100000D01*
X60185000Y-31203110D01*
X61058524Y-31203110D01*
X61179845Y-31433000D01*
X62373000Y-31433000D01*
X62373000Y-30239186D01*
X62627000Y-30239186D01*
X62627000Y-31433000D01*
X63820155Y-31433000D01*
X63941476Y-31203110D01*
X63896825Y-31055901D01*
X63771641Y-30793080D01*
X63597588Y-30559731D01*
X63381355Y-30364822D01*
X63131252Y-30215843D01*
X62856891Y-30118519D01*
X62627000Y-30239186D01*
X62373000Y-30239186D01*
X62143109Y-30118519D01*
X61868748Y-30215843D01*
X61618645Y-30364822D01*
X61402412Y-30559731D01*
X61228359Y-30793080D01*
X61103175Y-31055901D01*
X61058524Y-31203110D01*
X60185000Y-31203110D01*
X60185000Y-24545098D01*
X60270315Y-24545098D01*
X60340583Y-25171555D01*
X60531193Y-25772432D01*
X60834883Y-26324843D01*
X61240087Y-26807747D01*
X61731371Y-27202749D01*
X62290021Y-27494804D01*
X62894758Y-27672788D01*
X63522549Y-27729921D01*
X64149482Y-27664028D01*
X64751675Y-27477618D01*
X65306193Y-27177791D01*
X65791913Y-26775968D01*
X66190336Y-26287455D01*
X66486284Y-25730857D01*
X66668485Y-25127377D01*
X66725578Y-24545098D01*
X102270315Y-24545098D01*
X102340583Y-25171555D01*
X102531193Y-25772432D01*
X102834883Y-26324843D01*
X103240087Y-26807747D01*
X103731371Y-27202749D01*
X104290021Y-27494804D01*
X104894758Y-27672788D01*
X105522549Y-27729921D01*
X106149482Y-27664028D01*
X106751675Y-27477618D01*
X107306193Y-27177791D01*
X107791913Y-26775968D01*
X108190336Y-26287455D01*
X108486284Y-25730857D01*
X108668485Y-25127377D01*
X108730000Y-24500000D01*
X108728741Y-24409813D01*
X108649732Y-23784398D01*
X108450752Y-23186241D01*
X108139378Y-22638124D01*
X107727471Y-22160925D01*
X107230721Y-21772821D01*
X106668047Y-21488594D01*
X106060884Y-21319071D01*
X105432356Y-21270708D01*
X104806405Y-21345349D01*
X104206873Y-21540148D01*
X103656595Y-21847688D01*
X103176532Y-22256253D01*
X102784970Y-22750282D01*
X102496822Y-23310958D01*
X102323064Y-23916923D01*
X102270315Y-24545098D01*
X66725578Y-24545098D01*
X66730000Y-24500000D01*
X66728741Y-24409813D01*
X66649732Y-23784398D01*
X66450752Y-23186241D01*
X66139378Y-22638124D01*
X65727471Y-22160925D01*
X65230721Y-21772821D01*
X64668047Y-21488594D01*
X64060884Y-21319071D01*
X63432356Y-21270708D01*
X62806405Y-21345349D01*
X62206873Y-21540148D01*
X61656595Y-21847688D01*
X61176532Y-22256253D01*
X60784970Y-22750282D01*
X60496822Y-23310958D01*
X60323064Y-23916923D01*
X60270315Y-24545098D01*
X60185000Y-24545098D01*
X60185000Y-21160000D01*
X108815001Y-21160000D01*
X108815000Y-69815000D01*
X108815000Y-69815000D01*
G37*
X108815000Y-69815000D02*
X60185000Y-69815000D01*
X60185000Y-66545098D01*
X60270315Y-66545098D01*
X60340583Y-67171555D01*
X60531193Y-67772432D01*
X60834883Y-68324843D01*
X61240087Y-68807747D01*
X61731371Y-69202749D01*
X62290021Y-69494804D01*
X62894758Y-69672788D01*
X63522549Y-69729921D01*
X64149482Y-69664028D01*
X64751675Y-69477618D01*
X65306193Y-69177791D01*
X65791913Y-68775968D01*
X66190336Y-68287455D01*
X66486284Y-67730857D01*
X66668485Y-67127377D01*
X66730000Y-66500000D01*
X66728741Y-66409813D01*
X66649732Y-65784398D01*
X66450752Y-65186241D01*
X66139378Y-64638124D01*
X65727471Y-64160925D01*
X65230721Y-63772821D01*
X64668047Y-63488594D01*
X64060884Y-63319071D01*
X63432356Y-63270708D01*
X62806405Y-63345349D01*
X62206873Y-63540148D01*
X61656595Y-63847688D01*
X61176532Y-64256253D01*
X60784970Y-64750282D01*
X60496822Y-65310958D01*
X60323064Y-65916923D01*
X60270315Y-66545098D01*
X60185000Y-66545098D01*
X60185000Y-34100000D01*
X61007815Y-34100000D01*
X61036487Y-34391111D01*
X61121401Y-34671034D01*
X61259294Y-34929014D01*
X61444866Y-35155134D01*
X61670986Y-35340706D01*
X61725791Y-35370000D01*
X61670986Y-35399294D01*
X61444866Y-35584866D01*
X61259294Y-35810986D01*
X61121401Y-36068966D01*
X61036487Y-36348889D01*
X61007815Y-36640000D01*
X61036487Y-36931111D01*
X61121401Y-37211034D01*
X61259294Y-37469014D01*
X61444866Y-37695134D01*
X61670986Y-37880706D01*
X61725791Y-37910000D01*
X61670986Y-37939294D01*
X61444866Y-38124866D01*
X61259294Y-38350986D01*
X61121401Y-38608966D01*
X61036487Y-38888889D01*
X61007815Y-39180000D01*
X61036487Y-39471111D01*
X61121401Y-39751034D01*
X61259294Y-40009014D01*
X61444866Y-40235134D01*
X61670986Y-40420706D01*
X61725791Y-40450000D01*
X61670986Y-40479294D01*
X61444866Y-40664866D01*
X61259294Y-40890986D01*
X61121401Y-41148966D01*
X61036487Y-41428889D01*
X61007815Y-41720000D01*
X61036487Y-42011111D01*
X61121401Y-42291034D01*
X61259294Y-42549014D01*
X61444866Y-42775134D01*
X61670986Y-42960706D01*
X61725791Y-42990000D01*
X61670986Y-43019294D01*
X61444866Y-43204866D01*
X61259294Y-43430986D01*
X61121401Y-43688966D01*
X61036487Y-43968889D01*
X61007815Y-44260000D01*
X61036487Y-44551111D01*
X61121401Y-44831034D01*
X61259294Y-45089014D01*
X61444866Y-45315134D01*
X61670986Y-45500706D01*
X61725791Y-45530000D01*
X61670986Y-45559294D01*
X61444866Y-45744866D01*
X61259294Y-45970986D01*
X61121401Y-46228966D01*
X61036487Y-46508889D01*
X61007815Y-46800000D01*
X61036487Y-47091111D01*
X61121401Y-47371034D01*
X61259294Y-47629014D01*
X61444866Y-47855134D01*
X61670986Y-48040706D01*
X61725791Y-48070000D01*
X61670986Y-48099294D01*
X61444866Y-48284866D01*
X61259294Y-48510986D01*
X61121401Y-48768966D01*
X61036487Y-49048889D01*
X61007815Y-49340000D01*
X61036487Y-49631111D01*
X61121401Y-49911034D01*
X61259294Y-50169014D01*
X61444866Y-50395134D01*
X61670986Y-50580706D01*
X61725791Y-50610000D01*
X61670986Y-50639294D01*
X61444866Y-50824866D01*
X61259294Y-51050986D01*
X61121401Y-51308966D01*
X61036487Y-51588889D01*
X61007815Y-51880000D01*
X61036487Y-52171111D01*
X61121401Y-52451034D01*
X61259294Y-52709014D01*
X61444866Y-52935134D01*
X61670986Y-53120706D01*
X61725791Y-53150000D01*
X61670986Y-53179294D01*
X61444866Y-53364866D01*
X61259294Y-53590986D01*
X61121401Y-53848966D01*
X61036487Y-54128889D01*
X61007815Y-54420000D01*
X61036487Y-54711111D01*
X61121401Y-54991034D01*
X61259294Y-55249014D01*
X61444866Y-55475134D01*
X61670986Y-55660706D01*
X61725791Y-55690000D01*
X61670986Y-55719294D01*
X61444866Y-55904866D01*
X61259294Y-56130986D01*
X61121401Y-56388966D01*
X61036487Y-56668889D01*
X61007815Y-56960000D01*
X61036487Y-57251111D01*
X61121401Y-57531034D01*
X61259294Y-57789014D01*
X61444866Y-58015134D01*
X61474687Y-58039607D01*
X61405820Y-58060498D01*
X61295506Y-58119463D01*
X61198815Y-58198815D01*
X61119463Y-58295506D01*
X61060498Y-58405820D01*
X61024188Y-58525518D01*
X61011928Y-58650000D01*
X61011928Y-60350000D01*
X61024188Y-60474482D01*
X61060498Y-60594180D01*
X61119463Y-60704494D01*
X61198815Y-60801185D01*
X61295506Y-60880537D01*
X61405820Y-60939502D01*
X61525518Y-60975812D01*
X61650000Y-60988072D01*
X63350000Y-60988072D01*
X63474482Y-60975812D01*
X63594180Y-60939502D01*
X63704494Y-60880537D01*
X63801185Y-60801185D01*
X63880537Y-60704494D01*
X63939502Y-60594180D01*
X63975812Y-60474482D01*
X63988072Y-60350000D01*
X63988072Y-58650000D01*
X63975812Y-58525518D01*
X63939502Y-58405820D01*
X63880537Y-58295506D01*
X63801185Y-58198815D01*
X63704494Y-58119463D01*
X63594180Y-58060498D01*
X63525313Y-58039607D01*
X63555134Y-58015134D01*
X63740706Y-57789014D01*
X63878599Y-57531034D01*
X63963513Y-57251111D01*
X63992185Y-56960000D01*
X63963513Y-56668889D01*
X63878599Y-56388966D01*
X63740706Y-56130986D01*
X63555134Y-55904866D01*
X63329014Y-55719294D01*
X63274209Y-55690000D01*
X63329014Y-55660706D01*
X63555134Y-55475134D01*
X63740706Y-55249014D01*
X63878599Y-54991034D01*
X63963513Y-54711111D01*
X63992185Y-54420000D01*
X63963513Y-54128889D01*
X63878599Y-53848966D01*
X63740706Y-53590986D01*
X63555134Y-53364866D01*
X63329014Y-53179294D01*
X63274209Y-53150000D01*
X63329014Y-53120706D01*
X63555134Y-52935134D01*
X63740706Y-52709014D01*
X63878599Y-52451034D01*
X63963513Y-52171111D01*
X63992185Y-51880000D01*
X63963513Y-51588889D01*
X63878599Y-51308966D01*
X63740706Y-51050986D01*
X63555134Y-50824866D01*
X63329014Y-50639294D01*
X63274209Y-50610000D01*
X63329014Y-50580706D01*
X63555134Y-50395134D01*
X63740706Y-50169014D01*
X63878599Y-49911034D01*
X63963513Y-49631111D01*
X63992185Y-49340000D01*
X63963513Y-49048889D01*
X63878599Y-48768966D01*
X63740706Y-48510986D01*
X63555134Y-48284866D01*
X63329014Y-48099294D01*
X63274209Y-48070000D01*
X63329014Y-48040706D01*
X63555134Y-47855134D01*
X63740706Y-47629014D01*
X63878599Y-47371034D01*
X63963513Y-47091111D01*
X63992185Y-46800000D01*
X63963513Y-46508889D01*
X63878599Y-46228966D01*
X63740706Y-45970986D01*
X63555134Y-45744866D01*
X63329014Y-45559294D01*
X63274209Y-45530000D01*
X63329014Y-45500706D01*
X63555134Y-45315134D01*
X63740706Y-45089014D01*
X63878599Y-44831034D01*
X63963513Y-44551111D01*
X63992185Y-44260000D01*
X63963513Y-43968889D01*
X63878599Y-43688966D01*
X63740706Y-43430986D01*
X63555134Y-43204866D01*
X63329014Y-43019294D01*
X63274209Y-42990000D01*
X63329014Y-42960706D01*
X63555134Y-42775134D01*
X63740706Y-42549014D01*
X63878599Y-42291034D01*
X63963513Y-42011111D01*
X63989765Y-41744567D01*
X70240000Y-47994802D01*
X70240001Y-59099068D01*
X70240000Y-59099078D01*
X70240001Y-61962668D01*
X70236324Y-62000000D01*
X70240001Y-62037333D01*
X70250998Y-62148986D01*
X70264180Y-62192442D01*
X70294454Y-62292246D01*
X70365026Y-62424276D01*
X70423254Y-62495226D01*
X70460000Y-62540001D01*
X70488998Y-62563799D01*
X74436201Y-66511003D01*
X74459999Y-66540001D01*
X74575724Y-66634974D01*
X74707753Y-66705546D01*
X74851014Y-66749003D01*
X74962667Y-66760000D01*
X74962676Y-66760000D01*
X74999999Y-66763676D01*
X75037322Y-66760000D01*
X93462678Y-66760000D01*
X93500000Y-66763676D01*
X93537322Y-66760000D01*
X93537333Y-66760000D01*
X93648986Y-66749003D01*
X93792247Y-66705546D01*
X93924276Y-66634974D01*
X94033790Y-66545098D01*
X102270315Y-66545098D01*
X102340583Y-67171555D01*
X102531193Y-67772432D01*
X102834883Y-68324843D01*
X103240087Y-68807747D01*
X103731371Y-69202749D01*
X104290021Y-69494804D01*
X104894758Y-69672788D01*
X105522549Y-69729921D01*
X106149482Y-69664028D01*
X106751675Y-69477618D01*
X107306193Y-69177791D01*
X107791913Y-68775968D01*
X108190336Y-68287455D01*
X108486284Y-67730857D01*
X108668485Y-67127377D01*
X108730000Y-66500000D01*
X108728741Y-66409813D01*
X108649732Y-65784398D01*
X108450752Y-65186241D01*
X108139378Y-64638124D01*
X107727471Y-64160925D01*
X107230721Y-63772821D01*
X106668047Y-63488594D01*
X106060884Y-63319071D01*
X105432356Y-63270708D01*
X104806405Y-63345349D01*
X104206873Y-63540148D01*
X103656595Y-63847688D01*
X103176532Y-64256253D01*
X102784970Y-64750282D01*
X102496822Y-65310958D01*
X102323064Y-65916923D01*
X102270315Y-66545098D01*
X94033790Y-66545098D01*
X94040001Y-66540001D01*
X94063804Y-66510997D01*
X98039802Y-62535000D01*
X98101939Y-62535000D01*
X98301898Y-62495226D01*
X98490256Y-62417205D01*
X98659774Y-62303937D01*
X98803937Y-62159774D01*
X98917205Y-61990256D01*
X98995226Y-61801898D01*
X99035000Y-61601939D01*
X99035000Y-61398061D01*
X98995226Y-61198102D01*
X98917205Y-61009744D01*
X98803937Y-60840226D01*
X98659774Y-60696063D01*
X98490256Y-60582795D01*
X98301898Y-60504774D01*
X98101939Y-60465000D01*
X97898061Y-60465000D01*
X97698102Y-60504774D01*
X97509744Y-60582795D01*
X97340226Y-60696063D01*
X97196063Y-60840226D01*
X97082795Y-61009744D01*
X97004774Y-61198102D01*
X96965000Y-61398061D01*
X96965000Y-61460198D01*
X93185199Y-65240000D01*
X75314802Y-65240000D01*
X71760000Y-61685199D01*
X71760000Y-47717322D01*
X71763676Y-47679999D01*
X71760000Y-47642676D01*
X71760000Y-47642667D01*
X71749003Y-47531014D01*
X71705546Y-47387753D01*
X71634974Y-47255724D01*
X71540001Y-47139999D01*
X71511004Y-47116202D01*
X63940797Y-39545996D01*
X63963513Y-39471111D01*
X63989765Y-39204567D01*
X68436200Y-43651002D01*
X68459999Y-43680001D01*
X68488997Y-43703799D01*
X68575723Y-43774974D01*
X68707753Y-43845546D01*
X68798173Y-43872974D01*
X72740000Y-47814802D01*
X72740001Y-60962668D01*
X72736324Y-61000000D01*
X72750998Y-61148985D01*
X72794454Y-61292246D01*
X72865026Y-61424276D01*
X72918142Y-61488997D01*
X72960000Y-61540001D01*
X72988998Y-61563799D01*
X75936201Y-64511003D01*
X75959999Y-64540001D01*
X76075724Y-64634974D01*
X76207753Y-64705546D01*
X76351014Y-64749003D01*
X76462667Y-64760000D01*
X76462675Y-64760000D01*
X76500000Y-64763676D01*
X76537325Y-64760000D01*
X92462678Y-64760000D01*
X92500000Y-64763676D01*
X92537322Y-64760000D01*
X92537333Y-64760000D01*
X92648986Y-64749003D01*
X92792247Y-64705546D01*
X92924276Y-64634974D01*
X93040001Y-64540001D01*
X93063804Y-64510997D01*
X99011009Y-58563794D01*
X99040001Y-58540001D01*
X99063795Y-58511008D01*
X99063799Y-58511004D01*
X99134973Y-58424277D01*
X99134974Y-58424276D01*
X99205546Y-58292247D01*
X99249003Y-58148986D01*
X99260000Y-58037333D01*
X99260000Y-58037324D01*
X99263676Y-58000001D01*
X99260000Y-57962678D01*
X99260000Y-54657909D01*
X99382886Y-54575799D01*
X99575799Y-54382886D01*
X99727371Y-54156043D01*
X99831775Y-53903989D01*
X99885000Y-53636411D01*
X99885000Y-53363589D01*
X99831775Y-53096011D01*
X99727371Y-52843957D01*
X99575799Y-52617114D01*
X99458685Y-52500000D01*
X99575799Y-52382886D01*
X99727371Y-52156043D01*
X99831775Y-51903989D01*
X99885000Y-51636411D01*
X99885000Y-51363589D01*
X99831775Y-51096011D01*
X99727371Y-50843957D01*
X99575799Y-50617114D01*
X99382886Y-50424201D01*
X99156043Y-50272629D01*
X98903989Y-50168225D01*
X98636411Y-50115000D01*
X98363589Y-50115000D01*
X98096011Y-50168225D01*
X97843957Y-50272629D01*
X97617114Y-50424201D01*
X97500000Y-50541315D01*
X97382886Y-50424201D01*
X97156043Y-50272629D01*
X96903989Y-50168225D01*
X96636411Y-50115000D01*
X96363589Y-50115000D01*
X96096011Y-50168225D01*
X95843957Y-50272629D01*
X95617114Y-50424201D01*
X95424201Y-50617114D01*
X95272629Y-50843957D01*
X95168225Y-51096011D01*
X95115000Y-51363589D01*
X95115000Y-51636411D01*
X95168225Y-51903989D01*
X95272629Y-52156043D01*
X95424201Y-52382886D01*
X95541315Y-52500000D01*
X95424201Y-52617114D01*
X95272629Y-52843957D01*
X95168225Y-53096011D01*
X95115000Y-53363589D01*
X95115000Y-53636411D01*
X95168225Y-53903989D01*
X95272629Y-54156043D01*
X95424201Y-54382886D01*
X95541315Y-54500000D01*
X95424201Y-54617114D01*
X95272629Y-54843957D01*
X95168225Y-55096011D01*
X95115000Y-55363589D01*
X95115000Y-55636411D01*
X95168225Y-55903989D01*
X95272629Y-56156043D01*
X95424201Y-56382886D01*
X95617114Y-56575799D01*
X95843957Y-56727371D01*
X96096011Y-56831775D01*
X96363589Y-56885000D01*
X96636411Y-56885000D01*
X96903989Y-56831775D01*
X97156043Y-56727371D01*
X97382886Y-56575799D01*
X97575799Y-56382886D01*
X97727371Y-56156043D01*
X97740000Y-56125553D01*
X97740000Y-57685197D01*
X92185199Y-63240000D01*
X76814802Y-63240000D01*
X74260000Y-60685199D01*
X74260000Y-47537322D01*
X74263676Y-47499999D01*
X74260000Y-47462676D01*
X74260000Y-47462667D01*
X74249003Y-47351014D01*
X74205546Y-47207753D01*
X74169330Y-47139999D01*
X74134974Y-47075723D01*
X74063799Y-46988997D01*
X74040001Y-46959999D01*
X74011003Y-46936201D01*
X69703804Y-42629003D01*
X69680001Y-42599999D01*
X69564276Y-42505026D01*
X69432247Y-42434454D01*
X69341828Y-42407026D01*
X63940797Y-37005996D01*
X63963513Y-36931111D01*
X63989765Y-36664567D01*
X74740000Y-47414802D01*
X74740001Y-59462668D01*
X74736324Y-59500000D01*
X74750998Y-59648985D01*
X74794454Y-59792246D01*
X74865026Y-59924276D01*
X74936201Y-60011002D01*
X74960000Y-60040001D01*
X74988998Y-60063799D01*
X77436200Y-62511002D01*
X77459999Y-62540001D01*
X77488997Y-62563799D01*
X77575723Y-62634974D01*
X77707753Y-62705546D01*
X77851014Y-62749003D01*
X77962667Y-62760000D01*
X77962677Y-62760000D01*
X78000000Y-62763676D01*
X78037323Y-62760000D01*
X87462678Y-62760000D01*
X87500000Y-62763676D01*
X87537322Y-62760000D01*
X87537333Y-62760000D01*
X87648986Y-62749003D01*
X87792247Y-62705546D01*
X87924276Y-62634974D01*
X88040001Y-62540001D01*
X88063804Y-62510997D01*
X90218635Y-60356167D01*
X90363589Y-60385000D01*
X90636411Y-60385000D01*
X90903989Y-60331775D01*
X91156043Y-60227371D01*
X91382886Y-60075799D01*
X91575799Y-59882886D01*
X91727371Y-59656043D01*
X91831775Y-59403989D01*
X91885000Y-59136411D01*
X91885000Y-58863589D01*
X91831775Y-58596011D01*
X91727371Y-58343957D01*
X91575799Y-58117114D01*
X91382886Y-57924201D01*
X91156043Y-57772629D01*
X90903989Y-57668225D01*
X90636411Y-57615000D01*
X90363589Y-57615000D01*
X90096011Y-57668225D01*
X89843957Y-57772629D01*
X89617114Y-57924201D01*
X89424201Y-58117114D01*
X89272629Y-58343957D01*
X89168225Y-58596011D01*
X89115000Y-58863589D01*
X89115000Y-59136411D01*
X89143833Y-59281365D01*
X87185199Y-61240000D01*
X78314802Y-61240000D01*
X77031795Y-59956993D01*
X77722612Y-59956993D01*
X77788137Y-60195860D01*
X78035116Y-60311760D01*
X78299960Y-60377250D01*
X78572492Y-60389812D01*
X78842238Y-60348965D01*
X79098832Y-60256277D01*
X79211863Y-60195860D01*
X79277388Y-59956993D01*
X78500000Y-59179605D01*
X77722612Y-59956993D01*
X77031795Y-59956993D01*
X76260000Y-59185199D01*
X76260000Y-59072492D01*
X77110188Y-59072492D01*
X77151035Y-59342238D01*
X77243723Y-59598832D01*
X77304140Y-59711863D01*
X77543007Y-59777388D01*
X78320395Y-59000000D01*
X78679605Y-59000000D01*
X79456993Y-59777388D01*
X79695860Y-59711863D01*
X79811760Y-59464884D01*
X79877250Y-59200040D01*
X79889812Y-58927508D01*
X79848965Y-58657762D01*
X79756277Y-58401168D01*
X79695860Y-58288137D01*
X79456993Y-58222612D01*
X78679605Y-59000000D01*
X78320395Y-59000000D01*
X77543007Y-58222612D01*
X77304140Y-58288137D01*
X77188240Y-58535116D01*
X77122750Y-58799960D01*
X77110188Y-59072492D01*
X76260000Y-59072492D01*
X76260000Y-58043007D01*
X77722612Y-58043007D01*
X78500000Y-58820395D01*
X79277388Y-58043007D01*
X79211863Y-57804140D01*
X78964884Y-57688240D01*
X78700040Y-57622750D01*
X78427508Y-57610188D01*
X78157762Y-57651035D01*
X77901168Y-57743723D01*
X77788137Y-57804140D01*
X77722612Y-58043007D01*
X76260000Y-58043007D01*
X76260000Y-55398061D01*
X79965000Y-55398061D01*
X79965000Y-55601939D01*
X80004774Y-55801898D01*
X80082795Y-55990256D01*
X80196063Y-56159774D01*
X80340226Y-56303937D01*
X80509744Y-56417205D01*
X80698102Y-56495226D01*
X80898061Y-56535000D01*
X81101939Y-56535000D01*
X81301898Y-56495226D01*
X81490256Y-56417205D01*
X81659774Y-56303937D01*
X81803937Y-56159774D01*
X81917205Y-55990256D01*
X81995226Y-55801898D01*
X82035000Y-55601939D01*
X82035000Y-55398061D01*
X81995226Y-55198102D01*
X81917205Y-55009744D01*
X81803937Y-54840226D01*
X81760000Y-54796289D01*
X81760000Y-53314801D01*
X85262846Y-49811955D01*
X85250998Y-49851014D01*
X85240001Y-49962667D01*
X85236324Y-50000000D01*
X85240001Y-50037332D01*
X85240000Y-50796289D01*
X85196063Y-50840226D01*
X85082795Y-51009744D01*
X85004774Y-51198102D01*
X84965000Y-51398061D01*
X84965000Y-51601939D01*
X85004774Y-51801898D01*
X85082795Y-51990256D01*
X85196063Y-52159774D01*
X85340226Y-52303937D01*
X85509744Y-52417205D01*
X85698102Y-52495226D01*
X85898061Y-52535000D01*
X86101939Y-52535000D01*
X86301898Y-52495226D01*
X86490256Y-52417205D01*
X86659774Y-52303937D01*
X86803937Y-52159774D01*
X86917205Y-51990256D01*
X86995226Y-51801898D01*
X87035000Y-51601939D01*
X87035000Y-51398061D01*
X86995226Y-51198102D01*
X86917205Y-51009744D01*
X86803937Y-50840226D01*
X86760000Y-50796289D01*
X86760000Y-50314801D01*
X88083496Y-48991305D01*
X88196063Y-49159774D01*
X88340226Y-49303937D01*
X88509744Y-49417205D01*
X88698102Y-49495226D01*
X88898061Y-49535000D01*
X89101939Y-49535000D01*
X89301898Y-49495226D01*
X89490256Y-49417205D01*
X89659774Y-49303937D01*
X89803937Y-49159774D01*
X89917205Y-48990256D01*
X89971159Y-48860001D01*
X91065198Y-48860001D01*
X90460199Y-49465000D01*
X90398061Y-49465000D01*
X90198102Y-49504774D01*
X90009744Y-49582795D01*
X89840226Y-49696063D01*
X89696063Y-49840226D01*
X89582795Y-50009744D01*
X89504774Y-50198102D01*
X89465000Y-50398061D01*
X89465000Y-50601939D01*
X89504774Y-50801898D01*
X89582795Y-50990256D01*
X89696063Y-51159774D01*
X89840226Y-51303937D01*
X90009744Y-51417205D01*
X90198102Y-51495226D01*
X90398061Y-51535000D01*
X90601939Y-51535000D01*
X90646556Y-51526125D01*
X90509744Y-51582795D01*
X90340226Y-51696063D01*
X90196063Y-51840226D01*
X90082795Y-52009744D01*
X90004774Y-52198102D01*
X89965000Y-52398061D01*
X89965000Y-52601939D01*
X90004774Y-52801898D01*
X90082795Y-52990256D01*
X90196063Y-53159774D01*
X90340226Y-53303937D01*
X90509744Y-53417205D01*
X90698102Y-53495226D01*
X90898061Y-53535000D01*
X91101939Y-53535000D01*
X91301898Y-53495226D01*
X91490256Y-53417205D01*
X91659774Y-53303937D01*
X91803937Y-53159774D01*
X91917205Y-52990256D01*
X91995226Y-52801898D01*
X92035000Y-52601939D01*
X92035000Y-52539801D01*
X95846413Y-48728388D01*
X96096011Y-48831775D01*
X96363589Y-48885000D01*
X96636411Y-48885000D01*
X96903989Y-48831775D01*
X97156043Y-48727371D01*
X97382886Y-48575799D01*
X97575799Y-48382886D01*
X97727371Y-48156043D01*
X97831775Y-47903989D01*
X97885000Y-47636411D01*
X97885000Y-47363589D01*
X97831775Y-47096011D01*
X97727371Y-46843957D01*
X97575799Y-46617114D01*
X97382886Y-46424201D01*
X97156043Y-46272629D01*
X96903989Y-46168225D01*
X96636411Y-46115000D01*
X96363589Y-46115000D01*
X96096011Y-46168225D01*
X95843957Y-46272629D01*
X95718032Y-46356769D01*
X97814802Y-44260000D01*
X98962678Y-44260000D01*
X99000000Y-44263676D01*
X99037322Y-44260000D01*
X99037333Y-44260000D01*
X99148986Y-44249003D01*
X99292247Y-44205546D01*
X99424276Y-44134974D01*
X99540001Y-44040001D01*
X99563804Y-44010997D01*
X102511004Y-41063798D01*
X102540001Y-41040001D01*
X102634974Y-40924276D01*
X102705546Y-40792247D01*
X102749003Y-40648986D01*
X102760000Y-40537333D01*
X102760000Y-40537325D01*
X102763676Y-40500000D01*
X102760000Y-40462675D01*
X102760000Y-39037322D01*
X102763676Y-38999999D01*
X102760000Y-38962676D01*
X102760000Y-38962667D01*
X102749003Y-38851014D01*
X102705546Y-38707753D01*
X102634974Y-38575724D01*
X102540001Y-38459999D01*
X102511003Y-38436201D01*
X101063804Y-36989003D01*
X101040001Y-36959999D01*
X100924276Y-36865026D01*
X100792247Y-36794454D01*
X100648986Y-36750997D01*
X100537333Y-36740000D01*
X100537322Y-36740000D01*
X100500000Y-36736324D01*
X100462678Y-36740000D01*
X99657909Y-36740000D01*
X99575799Y-36617114D01*
X99382886Y-36424201D01*
X99156043Y-36272629D01*
X98903989Y-36168225D01*
X98636411Y-36115000D01*
X98363589Y-36115000D01*
X98096011Y-36168225D01*
X97843957Y-36272629D01*
X97617114Y-36424201D01*
X97500000Y-36541315D01*
X97382886Y-36424201D01*
X97156043Y-36272629D01*
X96903989Y-36168225D01*
X96636411Y-36115000D01*
X96363589Y-36115000D01*
X96096011Y-36168225D01*
X95843957Y-36272629D01*
X95617114Y-36424201D01*
X95424201Y-36617114D01*
X95342091Y-36740000D01*
X94537322Y-36740000D01*
X94499999Y-36736324D01*
X94462676Y-36740000D01*
X94462667Y-36740000D01*
X94351014Y-36750997D01*
X94225782Y-36788985D01*
X94207753Y-36794454D01*
X94075723Y-36865026D01*
X93995199Y-36931111D01*
X93959999Y-36959999D01*
X93936201Y-36988997D01*
X91988998Y-38936201D01*
X91960000Y-38959999D01*
X91936202Y-38988997D01*
X91936201Y-38988998D01*
X91865026Y-39075724D01*
X91794454Y-39207754D01*
X91768825Y-39292246D01*
X91750998Y-39351014D01*
X91743782Y-39424275D01*
X91736324Y-39500000D01*
X91740001Y-39537332D01*
X91740000Y-41185198D01*
X80488998Y-52436201D01*
X80460000Y-52459999D01*
X80436202Y-52488997D01*
X80436201Y-52488998D01*
X80365026Y-52575724D01*
X80294454Y-52707754D01*
X80250998Y-52851015D01*
X80236324Y-53000000D01*
X80240001Y-53037332D01*
X80240000Y-54796289D01*
X80196063Y-54840226D01*
X80082795Y-55009744D01*
X80004774Y-55198102D01*
X79965000Y-55398061D01*
X76260000Y-55398061D01*
X76260000Y-47137322D01*
X76263676Y-47099999D01*
X76260000Y-47062676D01*
X76260000Y-47062667D01*
X76249003Y-46951014D01*
X76205546Y-46807753D01*
X76134974Y-46675724D01*
X76040001Y-46559999D01*
X76011004Y-46536202D01*
X63940797Y-34465996D01*
X63963513Y-34391111D01*
X63992185Y-34100000D01*
X63963513Y-33808889D01*
X63878599Y-33528966D01*
X63740706Y-33270986D01*
X63555134Y-33044866D01*
X63329014Y-32859294D01*
X63264477Y-32824799D01*
X63381355Y-32755178D01*
X63597588Y-32560269D01*
X63771641Y-32326920D01*
X63896825Y-32064099D01*
X63941476Y-31916890D01*
X63820155Y-31687000D01*
X62627000Y-31687000D01*
X62627000Y-31707000D01*
X62373000Y-31707000D01*
X62373000Y-31687000D01*
X61179845Y-31687000D01*
X61058524Y-31916890D01*
X61103175Y-32064099D01*
X61228359Y-32326920D01*
X61402412Y-32560269D01*
X61618645Y-32755178D01*
X61735523Y-32824799D01*
X61670986Y-32859294D01*
X61444866Y-33044866D01*
X61259294Y-33270986D01*
X61121401Y-33528966D01*
X61036487Y-33808889D01*
X61007815Y-34100000D01*
X60185000Y-34100000D01*
X60185000Y-31203110D01*
X61058524Y-31203110D01*
X61179845Y-31433000D01*
X62373000Y-31433000D01*
X62373000Y-30239186D01*
X62627000Y-30239186D01*
X62627000Y-31433000D01*
X63820155Y-31433000D01*
X63941476Y-31203110D01*
X63896825Y-31055901D01*
X63771641Y-30793080D01*
X63597588Y-30559731D01*
X63381355Y-30364822D01*
X63131252Y-30215843D01*
X62856891Y-30118519D01*
X62627000Y-30239186D01*
X62373000Y-30239186D01*
X62143109Y-30118519D01*
X61868748Y-30215843D01*
X61618645Y-30364822D01*
X61402412Y-30559731D01*
X61228359Y-30793080D01*
X61103175Y-31055901D01*
X61058524Y-31203110D01*
X60185000Y-31203110D01*
X60185000Y-24545098D01*
X60270315Y-24545098D01*
X60340583Y-25171555D01*
X60531193Y-25772432D01*
X60834883Y-26324843D01*
X61240087Y-26807747D01*
X61731371Y-27202749D01*
X62290021Y-27494804D01*
X62894758Y-27672788D01*
X63522549Y-27729921D01*
X64149482Y-27664028D01*
X64751675Y-27477618D01*
X65306193Y-27177791D01*
X65791913Y-26775968D01*
X66190336Y-26287455D01*
X66486284Y-25730857D01*
X66668485Y-25127377D01*
X66725578Y-24545098D01*
X102270315Y-24545098D01*
X102340583Y-25171555D01*
X102531193Y-25772432D01*
X102834883Y-26324843D01*
X103240087Y-26807747D01*
X103731371Y-27202749D01*
X104290021Y-27494804D01*
X104894758Y-27672788D01*
X105522549Y-27729921D01*
X106149482Y-27664028D01*
X106751675Y-27477618D01*
X107306193Y-27177791D01*
X107791913Y-26775968D01*
X108190336Y-26287455D01*
X108486284Y-25730857D01*
X108668485Y-25127377D01*
X108730000Y-24500000D01*
X108728741Y-24409813D01*
X108649732Y-23784398D01*
X108450752Y-23186241D01*
X108139378Y-22638124D01*
X107727471Y-22160925D01*
X107230721Y-21772821D01*
X106668047Y-21488594D01*
X106060884Y-21319071D01*
X105432356Y-21270708D01*
X104806405Y-21345349D01*
X104206873Y-21540148D01*
X103656595Y-21847688D01*
X103176532Y-22256253D01*
X102784970Y-22750282D01*
X102496822Y-23310958D01*
X102323064Y-23916923D01*
X102270315Y-24545098D01*
X66725578Y-24545098D01*
X66730000Y-24500000D01*
X66728741Y-24409813D01*
X66649732Y-23784398D01*
X66450752Y-23186241D01*
X66139378Y-22638124D01*
X65727471Y-22160925D01*
X65230721Y-21772821D01*
X64668047Y-21488594D01*
X64060884Y-21319071D01*
X63432356Y-21270708D01*
X62806405Y-21345349D01*
X62206873Y-21540148D01*
X61656595Y-21847688D01*
X61176532Y-22256253D01*
X60784970Y-22750282D01*
X60496822Y-23310958D01*
X60323064Y-23916923D01*
X60270315Y-24545098D01*
X60185000Y-24545098D01*
X60185000Y-21160000D01*
X108815001Y-21160000D01*
X108815000Y-69815000D01*
M02*
