M48
; DRILL file {KiCad (6.0.0-rc1-dev-1546-g786ee0e)} date Tue 18 May 2021 02:50:16 PM PDT
; FORMAT={-:-/ absolute / inch / decimal}
; #@! TF.CreationDate,2021-05-18T14:50:16-07:00
; #@! TF.GenerationSoftware,Kicad,Pcbnew,(6.0.0-rc1-dev-1546-g786ee0e)
; #@! TF.FileFunction,Plated,1,2,PTH
FMAT,2
INCH
T1C0.0157
T2C0.0394
T3C0.0433
%
G90
G05
T1
X3.189Y-2.185
X3.3858Y-2.0276
X3.5039Y-1.9094
X3.563Y-1.9882
X3.5827Y-2.0669
X3.8583Y-2.4213
T2
X2.4606Y-1.2425
X2.4606Y-1.3425
X2.4606Y-1.4425
X2.4606Y-1.5425
X2.4606Y-1.6425
X2.4606Y-1.7425
X2.4606Y-1.8425
X2.4606Y-1.9425
X2.4606Y-2.0425
X2.4606Y-2.1425
X2.4606Y-2.2425
X2.4606Y-2.3425
T3
X3.563Y-2.3228
X3.878Y-2.0276
X3.7992Y-1.5551
X3.878Y-2.1063
X3.0906Y-2.3228
X3.7992Y-2.185
X3.7992Y-2.1063
X3.7992Y-2.0276
X3.878Y-1.5551
X3.7992Y-1.8701
X3.878Y-1.4764
X3.7992Y-1.4764
T0
M30
