G04 #@! TF.GenerationSoftware,KiCad,Pcbnew,(6.0.0-rc1-dev-1546-g786ee0e)*
G04 #@! TF.CreationDate,2021-05-18T16:26:03-07:00
G04 #@! TF.ProjectId,FingerBoard,46696e67-6572-4426-9f61-72642e6b6963,rev?*
G04 #@! TF.SameCoordinates,Original*
G04 #@! TF.FileFunction,Paste,Top*
G04 #@! TF.FilePolarity,Positive*
%FSLAX46Y46*%
G04 Gerber Fmt 4.6, Leading zero omitted, Abs format (unit mm)*
G04 Created by KiCad (PCBNEW (6.0.0-rc1-dev-1546-g786ee0e)) date Tue 18 May 2021 04:26:03 PM PDT*
%MOMM*%
%LPD*%
G04 APERTURE LIST*
%ADD10R,0.350000X0.375000*%
%ADD11R,0.375000X0.350000*%
%ADD12C,0.100000*%
%ADD13C,0.560000*%
G04 APERTURE END LIST*
D10*
X148650000Y-59037500D03*
X149150000Y-59037500D03*
X149150000Y-60562500D03*
X148650000Y-60562500D03*
D11*
X149662500Y-59050000D03*
X148137500Y-59050000D03*
X149662500Y-60550000D03*
X148137500Y-60550000D03*
X149662500Y-60050000D03*
X149662500Y-59550000D03*
X148137500Y-60050000D03*
X148137500Y-59550000D03*
D12*
G36*
X150983722Y-60000674D02*
G01*
X150997313Y-60002690D01*
X151010640Y-60006028D01*
X151023576Y-60010657D01*
X151035996Y-60016531D01*
X151047780Y-60023594D01*
X151058815Y-60031779D01*
X151068995Y-60041005D01*
X151078221Y-60051185D01*
X151086406Y-60062220D01*
X151093469Y-60074004D01*
X151099343Y-60086424D01*
X151103972Y-60099360D01*
X151107310Y-60112687D01*
X151109326Y-60126278D01*
X151110000Y-60140000D01*
X151110000Y-60420000D01*
X151109326Y-60433722D01*
X151107310Y-60447313D01*
X151103972Y-60460640D01*
X151099343Y-60473576D01*
X151093469Y-60485996D01*
X151086406Y-60497780D01*
X151078221Y-60508815D01*
X151068995Y-60518995D01*
X151058815Y-60528221D01*
X151047780Y-60536406D01*
X151035996Y-60543469D01*
X151023576Y-60549343D01*
X151010640Y-60553972D01*
X150997313Y-60557310D01*
X150983722Y-60559326D01*
X150970000Y-60560000D01*
X150630000Y-60560000D01*
X150616278Y-60559326D01*
X150602687Y-60557310D01*
X150589360Y-60553972D01*
X150576424Y-60549343D01*
X150564004Y-60543469D01*
X150552220Y-60536406D01*
X150541185Y-60528221D01*
X150531005Y-60518995D01*
X150521779Y-60508815D01*
X150513594Y-60497780D01*
X150506531Y-60485996D01*
X150500657Y-60473576D01*
X150496028Y-60460640D01*
X150492690Y-60447313D01*
X150490674Y-60433722D01*
X150490000Y-60420000D01*
X150490000Y-60140000D01*
X150490674Y-60126278D01*
X150492690Y-60112687D01*
X150496028Y-60099360D01*
X150500657Y-60086424D01*
X150506531Y-60074004D01*
X150513594Y-60062220D01*
X150521779Y-60051185D01*
X150531005Y-60041005D01*
X150541185Y-60031779D01*
X150552220Y-60023594D01*
X150564004Y-60016531D01*
X150576424Y-60010657D01*
X150589360Y-60006028D01*
X150602687Y-60002690D01*
X150616278Y-60000674D01*
X150630000Y-60000000D01*
X150970000Y-60000000D01*
X150983722Y-60000674D01*
X150983722Y-60000674D01*
G37*
D13*
X150800000Y-60280000D03*
D12*
G36*
X150983722Y-59040674D02*
G01*
X150997313Y-59042690D01*
X151010640Y-59046028D01*
X151023576Y-59050657D01*
X151035996Y-59056531D01*
X151047780Y-59063594D01*
X151058815Y-59071779D01*
X151068995Y-59081005D01*
X151078221Y-59091185D01*
X151086406Y-59102220D01*
X151093469Y-59114004D01*
X151099343Y-59126424D01*
X151103972Y-59139360D01*
X151107310Y-59152687D01*
X151109326Y-59166278D01*
X151110000Y-59180000D01*
X151110000Y-59460000D01*
X151109326Y-59473722D01*
X151107310Y-59487313D01*
X151103972Y-59500640D01*
X151099343Y-59513576D01*
X151093469Y-59525996D01*
X151086406Y-59537780D01*
X151078221Y-59548815D01*
X151068995Y-59558995D01*
X151058815Y-59568221D01*
X151047780Y-59576406D01*
X151035996Y-59583469D01*
X151023576Y-59589343D01*
X151010640Y-59593972D01*
X150997313Y-59597310D01*
X150983722Y-59599326D01*
X150970000Y-59600000D01*
X150630000Y-59600000D01*
X150616278Y-59599326D01*
X150602687Y-59597310D01*
X150589360Y-59593972D01*
X150576424Y-59589343D01*
X150564004Y-59583469D01*
X150552220Y-59576406D01*
X150541185Y-59568221D01*
X150531005Y-59558995D01*
X150521779Y-59548815D01*
X150513594Y-59537780D01*
X150506531Y-59525996D01*
X150500657Y-59513576D01*
X150496028Y-59500640D01*
X150492690Y-59487313D01*
X150490674Y-59473722D01*
X150490000Y-59460000D01*
X150490000Y-59180000D01*
X150490674Y-59166278D01*
X150492690Y-59152687D01*
X150496028Y-59139360D01*
X150500657Y-59126424D01*
X150506531Y-59114004D01*
X150513594Y-59102220D01*
X150521779Y-59091185D01*
X150531005Y-59081005D01*
X150541185Y-59071779D01*
X150552220Y-59063594D01*
X150564004Y-59056531D01*
X150576424Y-59050657D01*
X150589360Y-59046028D01*
X150602687Y-59042690D01*
X150616278Y-59040674D01*
X150630000Y-59040000D01*
X150970000Y-59040000D01*
X150983722Y-59040674D01*
X150983722Y-59040674D01*
G37*
D13*
X150800000Y-59320000D03*
D12*
G36*
X147183722Y-59040674D02*
G01*
X147197313Y-59042690D01*
X147210640Y-59046028D01*
X147223576Y-59050657D01*
X147235996Y-59056531D01*
X147247780Y-59063594D01*
X147258815Y-59071779D01*
X147268995Y-59081005D01*
X147278221Y-59091185D01*
X147286406Y-59102220D01*
X147293469Y-59114004D01*
X147299343Y-59126424D01*
X147303972Y-59139360D01*
X147307310Y-59152687D01*
X147309326Y-59166278D01*
X147310000Y-59180000D01*
X147310000Y-59460000D01*
X147309326Y-59473722D01*
X147307310Y-59487313D01*
X147303972Y-59500640D01*
X147299343Y-59513576D01*
X147293469Y-59525996D01*
X147286406Y-59537780D01*
X147278221Y-59548815D01*
X147268995Y-59558995D01*
X147258815Y-59568221D01*
X147247780Y-59576406D01*
X147235996Y-59583469D01*
X147223576Y-59589343D01*
X147210640Y-59593972D01*
X147197313Y-59597310D01*
X147183722Y-59599326D01*
X147170000Y-59600000D01*
X146830000Y-59600000D01*
X146816278Y-59599326D01*
X146802687Y-59597310D01*
X146789360Y-59593972D01*
X146776424Y-59589343D01*
X146764004Y-59583469D01*
X146752220Y-59576406D01*
X146741185Y-59568221D01*
X146731005Y-59558995D01*
X146721779Y-59548815D01*
X146713594Y-59537780D01*
X146706531Y-59525996D01*
X146700657Y-59513576D01*
X146696028Y-59500640D01*
X146692690Y-59487313D01*
X146690674Y-59473722D01*
X146690000Y-59460000D01*
X146690000Y-59180000D01*
X146690674Y-59166278D01*
X146692690Y-59152687D01*
X146696028Y-59139360D01*
X146700657Y-59126424D01*
X146706531Y-59114004D01*
X146713594Y-59102220D01*
X146721779Y-59091185D01*
X146731005Y-59081005D01*
X146741185Y-59071779D01*
X146752220Y-59063594D01*
X146764004Y-59056531D01*
X146776424Y-59050657D01*
X146789360Y-59046028D01*
X146802687Y-59042690D01*
X146816278Y-59040674D01*
X146830000Y-59040000D01*
X147170000Y-59040000D01*
X147183722Y-59040674D01*
X147183722Y-59040674D01*
G37*
D13*
X147000000Y-59320000D03*
D12*
G36*
X147183722Y-60000674D02*
G01*
X147197313Y-60002690D01*
X147210640Y-60006028D01*
X147223576Y-60010657D01*
X147235996Y-60016531D01*
X147247780Y-60023594D01*
X147258815Y-60031779D01*
X147268995Y-60041005D01*
X147278221Y-60051185D01*
X147286406Y-60062220D01*
X147293469Y-60074004D01*
X147299343Y-60086424D01*
X147303972Y-60099360D01*
X147307310Y-60112687D01*
X147309326Y-60126278D01*
X147310000Y-60140000D01*
X147310000Y-60420000D01*
X147309326Y-60433722D01*
X147307310Y-60447313D01*
X147303972Y-60460640D01*
X147299343Y-60473576D01*
X147293469Y-60485996D01*
X147286406Y-60497780D01*
X147278221Y-60508815D01*
X147268995Y-60518995D01*
X147258815Y-60528221D01*
X147247780Y-60536406D01*
X147235996Y-60543469D01*
X147223576Y-60549343D01*
X147210640Y-60553972D01*
X147197313Y-60557310D01*
X147183722Y-60559326D01*
X147170000Y-60560000D01*
X146830000Y-60560000D01*
X146816278Y-60559326D01*
X146802687Y-60557310D01*
X146789360Y-60553972D01*
X146776424Y-60549343D01*
X146764004Y-60543469D01*
X146752220Y-60536406D01*
X146741185Y-60528221D01*
X146731005Y-60518995D01*
X146721779Y-60508815D01*
X146713594Y-60497780D01*
X146706531Y-60485996D01*
X146700657Y-60473576D01*
X146696028Y-60460640D01*
X146692690Y-60447313D01*
X146690674Y-60433722D01*
X146690000Y-60420000D01*
X146690000Y-60140000D01*
X146690674Y-60126278D01*
X146692690Y-60112687D01*
X146696028Y-60099360D01*
X146700657Y-60086424D01*
X146706531Y-60074004D01*
X146713594Y-60062220D01*
X146721779Y-60051185D01*
X146731005Y-60041005D01*
X146741185Y-60031779D01*
X146752220Y-60023594D01*
X146764004Y-60016531D01*
X146776424Y-60010657D01*
X146789360Y-60006028D01*
X146802687Y-60002690D01*
X146816278Y-60000674D01*
X146830000Y-60000000D01*
X147170000Y-60000000D01*
X147183722Y-60000674D01*
X147183722Y-60000674D01*
G37*
D13*
X147000000Y-60280000D03*
M02*
