%TF.GenerationSoftware,KiCad,Pcbnew,(6.0.0-rc1-dev-1546-g786ee0e)*%
%TF.CreationDate,2021-05-18T14:47:41-07:00*%
%TF.ProjectId,MainBoard,4d61696e-426f-4617-9264-2e6b69636164,rev?*%
%TF.SameCoordinates,Original*%
%TF.FileFunction,Legend,Bot*%
%TF.FilePolarity,Positive*%
%FSLAX46Y46*%
G04 Gerber Fmt 4.6, Leading zero omitted, Abs format (unit mm)*
G04 Created by KiCad (PCBNEW (6.0.0-rc1-dev-1546-g786ee0e)) date Tue 18 May 2021 02:47:41 PM PDT*
%MOMM*%
%LPD*%
G04 APERTURE LIST*
%ADD10C,0.120000*%
%ADD11C,0.150000*%
%ADD12C,0.100000*%
G04 APERTURE END LIST*
D10*
%TO.C,U3*%
X122300000Y-48900000D02*
X122300000Y-48900000D01*
X122300000Y-48400000D02*
X122300000Y-48900000D01*
X120600000Y-48900000D02*
X120600000Y-48900000D01*
X120100000Y-48900000D02*
X120600000Y-48900000D01*
X120100000Y-48400000D02*
X120100000Y-48900000D01*
X120100000Y-47200000D02*
X120100000Y-47200000D01*
X120100000Y-46700000D02*
X120100000Y-47200000D01*
X120600000Y-46700000D02*
X120100000Y-46700000D01*
X121800000Y-46700000D02*
X121800000Y-46700000D01*
X122300000Y-46700000D02*
X121800000Y-46700000D01*
X122300000Y-47200000D02*
X122300000Y-46700000D01*
%TO.C,C4*%
X119760000Y-47092164D02*
X119760000Y-47307836D01*
X119040000Y-47092164D02*
X119040000Y-47307836D01*
%TO.C,TP11*%
X144800000Y-39800000D02*
X144800000Y-41200000D01*
X146200000Y-39800000D02*
X144800000Y-39800000D01*
X146200000Y-41200000D02*
X146200000Y-39800000D01*
X144800000Y-41200000D02*
X146200000Y-41200000D01*
%TO.C,IC1*%
X130600000Y-50840000D02*
X130600000Y-54150000D01*
X136420000Y-52500000D02*
X136420000Y-50860000D01*
%TO.C,TP10*%
X126800000Y-51300000D02*
X126800000Y-52700000D01*
X128200000Y-51300000D02*
X126800000Y-51300000D01*
X128200000Y-52700000D02*
X128200000Y-51300000D01*
X126800000Y-52700000D02*
X128200000Y-52700000D01*
%TO.C,TP14*%
X138800000Y-51300000D02*
X138800000Y-52700000D01*
X140200000Y-51300000D02*
X138800000Y-51300000D01*
X140200000Y-52700000D02*
X140200000Y-51300000D01*
X138800000Y-52700000D02*
X140200000Y-52700000D01*
%TO.C,TP1*%
X144800000Y-43800000D02*
X144800000Y-45200000D01*
X146200000Y-43800000D02*
X144800000Y-43800000D01*
X146200000Y-45200000D02*
X146200000Y-43800000D01*
X144800000Y-45200000D02*
X146200000Y-45200000D01*
%TO.C,TP2*%
X146800000Y-31800000D02*
X146800000Y-33200000D01*
X148200000Y-31800000D02*
X146800000Y-31800000D01*
X148200000Y-33200000D02*
X148200000Y-31800000D01*
X146800000Y-33200000D02*
X148200000Y-33200000D01*
%TO.C,TP3*%
X144800000Y-29800000D02*
X144800000Y-31200000D01*
X146200000Y-29800000D02*
X144800000Y-29800000D01*
X146200000Y-31200000D02*
X146200000Y-29800000D01*
X144800000Y-31200000D02*
X146200000Y-31200000D01*
%TO.C,TP4*%
X144800000Y-45800000D02*
X144800000Y-47200000D01*
X146200000Y-45800000D02*
X144800000Y-45800000D01*
X146200000Y-47200000D02*
X146200000Y-45800000D01*
X144800000Y-47200000D02*
X146200000Y-47200000D01*
%TO.C,TP5*%
X146800000Y-29800000D02*
X146800000Y-31200000D01*
X148200000Y-29800000D02*
X146800000Y-29800000D01*
X148200000Y-31200000D02*
X148200000Y-29800000D01*
X146800000Y-31200000D02*
X148200000Y-31200000D01*
%TO.C,TP6*%
X144800000Y-31800000D02*
X144800000Y-33200000D01*
X146200000Y-31800000D02*
X144800000Y-31800000D01*
X146200000Y-33200000D02*
X146200000Y-31800000D01*
X144800000Y-33200000D02*
X146200000Y-33200000D01*
%TO.C,TP7*%
X146800000Y-45800000D02*
X146800000Y-47200000D01*
X148200000Y-45800000D02*
X146800000Y-45800000D01*
X148200000Y-47200000D02*
X148200000Y-45800000D01*
X146800000Y-47200000D02*
X148200000Y-47200000D01*
%TO.C,TP8*%
X146800000Y-43800000D02*
X146800000Y-45200000D01*
X148200000Y-43800000D02*
X146800000Y-43800000D01*
X148200000Y-45200000D02*
X148200000Y-43800000D01*
X146800000Y-45200000D02*
X148200000Y-45200000D01*
%TO.C,TP9*%
X144800000Y-47800000D02*
X144800000Y-49200000D01*
X146200000Y-47800000D02*
X144800000Y-47800000D01*
X146200000Y-49200000D02*
X146200000Y-47800000D01*
X144800000Y-49200000D02*
X146200000Y-49200000D01*
%TO.C,BZ1*%
X120000000Y-38500000D02*
X120000000Y-38500000D01*
X120000000Y-38500000D02*
X120000000Y-38500000D01*
X120000000Y-38500000D02*
X120000000Y-38500000D01*
X120000000Y-38500000D02*
X120000000Y-38500000D01*
X120000000Y-38500000D02*
X120000000Y-38500000D01*
%TO.C,U3*%
D11*
X122502380Y-47038095D02*
X123311904Y-47038095D01*
X123407142Y-47085714D01*
X123454761Y-47133333D01*
X123502380Y-47228571D01*
X123502380Y-47419047D01*
X123454761Y-47514285D01*
X123407142Y-47561904D01*
X123311904Y-47609523D01*
X122502380Y-47609523D01*
X122502380Y-47990476D02*
X122502380Y-48609523D01*
X122883333Y-48276190D01*
X122883333Y-48419047D01*
X122930952Y-48514285D01*
X122978571Y-48561904D01*
X123073809Y-48609523D01*
X123311904Y-48609523D01*
X123407142Y-48561904D01*
X123454761Y-48514285D01*
X123502380Y-48419047D01*
X123502380Y-48133333D01*
X123454761Y-48038095D01*
X123407142Y-47990476D01*
%TO.C,C4*%
D12*
X118778571Y-46716666D02*
X118802380Y-46692857D01*
X118826190Y-46621428D01*
X118826190Y-46573809D01*
X118802380Y-46502380D01*
X118754761Y-46454761D01*
X118707142Y-46430952D01*
X118611904Y-46407142D01*
X118540476Y-46407142D01*
X118445238Y-46430952D01*
X118397619Y-46454761D01*
X118350000Y-46502380D01*
X118326190Y-46573809D01*
X118326190Y-46621428D01*
X118350000Y-46692857D01*
X118373809Y-46716666D01*
X118492857Y-47145238D02*
X118826190Y-47145238D01*
X118302380Y-47026190D02*
X118659523Y-46907142D01*
X118659523Y-47216666D01*
%TO.C,TP11*%
D11*
X147238095Y-41400380D02*
X146666666Y-41400380D01*
X146952380Y-42400380D02*
X146952380Y-41400380D01*
X146333333Y-42400380D02*
X146333333Y-41400380D01*
X145952380Y-41400380D01*
X145857142Y-41448000D01*
X145809523Y-41495619D01*
X145761904Y-41590857D01*
X145761904Y-41733714D01*
X145809523Y-41828952D01*
X145857142Y-41876571D01*
X145952380Y-41924190D01*
X146333333Y-41924190D01*
X144809523Y-42400380D02*
X145380952Y-42400380D01*
X145095238Y-42400380D02*
X145095238Y-41400380D01*
X145190476Y-41543238D01*
X145285714Y-41638476D01*
X145380952Y-41686095D01*
X143857142Y-42400380D02*
X144428571Y-42400380D01*
X144142857Y-42400380D02*
X144142857Y-41400380D01*
X144238095Y-41543238D01*
X144333333Y-41638476D01*
X144428571Y-41686095D01*
%TO.C,IC1*%
X134476190Y-50202380D02*
X134476190Y-49202380D01*
X133428571Y-50107142D02*
X133476190Y-50154761D01*
X133619047Y-50202380D01*
X133714285Y-50202380D01*
X133857142Y-50154761D01*
X133952380Y-50059523D01*
X134000000Y-49964285D01*
X134047619Y-49773809D01*
X134047619Y-49630952D01*
X134000000Y-49440476D01*
X133952380Y-49345238D01*
X133857142Y-49250000D01*
X133714285Y-49202380D01*
X133619047Y-49202380D01*
X133476190Y-49250000D01*
X133428571Y-49297619D01*
X132476190Y-50202380D02*
X133047619Y-50202380D01*
X132761904Y-50202380D02*
X132761904Y-49202380D01*
X132857142Y-49345238D01*
X132952380Y-49440476D01*
X133047619Y-49488095D01*
%TO.C,J6*%
X148933333Y-36102380D02*
X148933333Y-36816666D01*
X148980952Y-36959523D01*
X149076190Y-37054761D01*
X149219047Y-37102380D01*
X149314285Y-37102380D01*
X148028571Y-36102380D02*
X148219047Y-36102380D01*
X148314285Y-36150000D01*
X148361904Y-36197619D01*
X148457142Y-36340476D01*
X148504761Y-36530952D01*
X148504761Y-36911904D01*
X148457142Y-37007142D01*
X148409523Y-37054761D01*
X148314285Y-37102380D01*
X148123809Y-37102380D01*
X148028571Y-37054761D01*
X147980952Y-37007142D01*
X147933333Y-36911904D01*
X147933333Y-36673809D01*
X147980952Y-36578571D01*
X148028571Y-36530952D01*
X148123809Y-36483333D01*
X148314285Y-36483333D01*
X148409523Y-36530952D01*
X148457142Y-36578571D01*
X148504761Y-36673809D01*
%TO.C,TP10*%
X129238095Y-53150380D02*
X128666666Y-53150380D01*
X128952380Y-54150380D02*
X128952380Y-53150380D01*
X128333333Y-54150380D02*
X128333333Y-53150380D01*
X127952380Y-53150380D01*
X127857142Y-53198000D01*
X127809523Y-53245619D01*
X127761904Y-53340857D01*
X127761904Y-53483714D01*
X127809523Y-53578952D01*
X127857142Y-53626571D01*
X127952380Y-53674190D01*
X128333333Y-53674190D01*
X126809523Y-54150380D02*
X127380952Y-54150380D01*
X127095238Y-54150380D02*
X127095238Y-53150380D01*
X127190476Y-53293238D01*
X127285714Y-53388476D01*
X127380952Y-53436095D01*
X126190476Y-53150380D02*
X126095238Y-53150380D01*
X126000000Y-53198000D01*
X125952380Y-53245619D01*
X125904761Y-53340857D01*
X125857142Y-53531333D01*
X125857142Y-53769428D01*
X125904761Y-53959904D01*
X125952380Y-54055142D01*
X126000000Y-54102761D01*
X126095238Y-54150380D01*
X126190476Y-54150380D01*
X126285714Y-54102761D01*
X126333333Y-54055142D01*
X126380952Y-53959904D01*
X126428571Y-53769428D01*
X126428571Y-53531333D01*
X126380952Y-53340857D01*
X126333333Y-53245619D01*
X126285714Y-53198000D01*
X126190476Y-53150380D01*
%TO.C,TP14*%
X141238095Y-53202380D02*
X140666666Y-53202380D01*
X140952380Y-54202380D02*
X140952380Y-53202380D01*
X140333333Y-54202380D02*
X140333333Y-53202380D01*
X139952380Y-53202380D01*
X139857142Y-53250000D01*
X139809523Y-53297619D01*
X139761904Y-53392857D01*
X139761904Y-53535714D01*
X139809523Y-53630952D01*
X139857142Y-53678571D01*
X139952380Y-53726190D01*
X140333333Y-53726190D01*
X138809523Y-54202380D02*
X139380952Y-54202380D01*
X139095238Y-54202380D02*
X139095238Y-53202380D01*
X139190476Y-53345238D01*
X139285714Y-53440476D01*
X139380952Y-53488095D01*
X137952380Y-53535714D02*
X137952380Y-54202380D01*
X138190476Y-53154761D02*
X138428571Y-53869047D01*
X137809523Y-53869047D01*
%TO.C,TP1*%
X144261904Y-43952380D02*
X143690476Y-43952380D01*
X143976190Y-44952380D02*
X143976190Y-43952380D01*
X143357142Y-44952380D02*
X143357142Y-43952380D01*
X142976190Y-43952380D01*
X142880952Y-44000000D01*
X142833333Y-44047619D01*
X142785714Y-44142857D01*
X142785714Y-44285714D01*
X142833333Y-44380952D01*
X142880952Y-44428571D01*
X142976190Y-44476190D01*
X143357142Y-44476190D01*
X141833333Y-44952380D02*
X142404761Y-44952380D01*
X142119047Y-44952380D02*
X142119047Y-43952380D01*
X142214285Y-44095238D01*
X142309523Y-44190476D01*
X142404761Y-44238095D01*
%TO.C,TP2*%
D12*
X149880952Y-32226190D02*
X149595238Y-32226190D01*
X149738095Y-32726190D02*
X149738095Y-32226190D01*
X149428571Y-32726190D02*
X149428571Y-32226190D01*
X149238095Y-32226190D01*
X149190476Y-32250000D01*
X149166666Y-32273809D01*
X149142857Y-32321428D01*
X149142857Y-32392857D01*
X149166666Y-32440476D01*
X149190476Y-32464285D01*
X149238095Y-32488095D01*
X149428571Y-32488095D01*
X148952380Y-32273809D02*
X148928571Y-32250000D01*
X148880952Y-32226190D01*
X148761904Y-32226190D01*
X148714285Y-32250000D01*
X148690476Y-32273809D01*
X148666666Y-32321428D01*
X148666666Y-32369047D01*
X148690476Y-32440476D01*
X148976190Y-32726190D01*
X148666666Y-32726190D01*
%TO.C,TP3*%
D11*
X144261904Y-29952380D02*
X143690476Y-29952380D01*
X143976190Y-30952380D02*
X143976190Y-29952380D01*
X143357142Y-30952380D02*
X143357142Y-29952380D01*
X142976190Y-29952380D01*
X142880952Y-30000000D01*
X142833333Y-30047619D01*
X142785714Y-30142857D01*
X142785714Y-30285714D01*
X142833333Y-30380952D01*
X142880952Y-30428571D01*
X142976190Y-30476190D01*
X143357142Y-30476190D01*
X142452380Y-29952380D02*
X141833333Y-29952380D01*
X142166666Y-30333333D01*
X142023809Y-30333333D01*
X141928571Y-30380952D01*
X141880952Y-30428571D01*
X141833333Y-30523809D01*
X141833333Y-30761904D01*
X141880952Y-30857142D01*
X141928571Y-30904761D01*
X142023809Y-30952380D01*
X142309523Y-30952380D01*
X142404761Y-30904761D01*
X142452380Y-30857142D01*
%TO.C,TP4*%
X144261904Y-45952380D02*
X143690476Y-45952380D01*
X143976190Y-46952380D02*
X143976190Y-45952380D01*
X143357142Y-46952380D02*
X143357142Y-45952380D01*
X142976190Y-45952380D01*
X142880952Y-46000000D01*
X142833333Y-46047619D01*
X142785714Y-46142857D01*
X142785714Y-46285714D01*
X142833333Y-46380952D01*
X142880952Y-46428571D01*
X142976190Y-46476190D01*
X143357142Y-46476190D01*
X141928571Y-46285714D02*
X141928571Y-46952380D01*
X142166666Y-45904761D02*
X142404761Y-46619047D01*
X141785714Y-46619047D01*
%TO.C,TP5*%
D12*
X147880952Y-28726190D02*
X147595238Y-28726190D01*
X147738095Y-29226190D02*
X147738095Y-28726190D01*
X147428571Y-29226190D02*
X147428571Y-28726190D01*
X147238095Y-28726190D01*
X147190476Y-28750000D01*
X147166666Y-28773809D01*
X147142857Y-28821428D01*
X147142857Y-28892857D01*
X147166666Y-28940476D01*
X147190476Y-28964285D01*
X147238095Y-28988095D01*
X147428571Y-28988095D01*
X146690476Y-28726190D02*
X146928571Y-28726190D01*
X146952380Y-28964285D01*
X146928571Y-28940476D01*
X146880952Y-28916666D01*
X146761904Y-28916666D01*
X146714285Y-28940476D01*
X146690476Y-28964285D01*
X146666666Y-29011904D01*
X146666666Y-29130952D01*
X146690476Y-29178571D01*
X146714285Y-29202380D01*
X146761904Y-29226190D01*
X146880952Y-29226190D01*
X146928571Y-29202380D01*
X146952380Y-29178571D01*
%TO.C,TP6*%
D11*
X144261904Y-31952380D02*
X143690476Y-31952380D01*
X143976190Y-32952380D02*
X143976190Y-31952380D01*
X143357142Y-32952380D02*
X143357142Y-31952380D01*
X142976190Y-31952380D01*
X142880952Y-32000000D01*
X142833333Y-32047619D01*
X142785714Y-32142857D01*
X142785714Y-32285714D01*
X142833333Y-32380952D01*
X142880952Y-32428571D01*
X142976190Y-32476190D01*
X143357142Y-32476190D01*
X141928571Y-31952380D02*
X142119047Y-31952380D01*
X142214285Y-32000000D01*
X142261904Y-32047619D01*
X142357142Y-32190476D01*
X142404761Y-32380952D01*
X142404761Y-32761904D01*
X142357142Y-32857142D01*
X142309523Y-32904761D01*
X142214285Y-32952380D01*
X142023809Y-32952380D01*
X141928571Y-32904761D01*
X141880952Y-32857142D01*
X141833333Y-32761904D01*
X141833333Y-32523809D01*
X141880952Y-32428571D01*
X141928571Y-32380952D01*
X142023809Y-32333333D01*
X142214285Y-32333333D01*
X142309523Y-32380952D01*
X142357142Y-32428571D01*
X142404761Y-32523809D01*
%TO.C,TP7*%
D12*
X148130952Y-47726190D02*
X147845238Y-47726190D01*
X147988095Y-48226190D02*
X147988095Y-47726190D01*
X147678571Y-48226190D02*
X147678571Y-47726190D01*
X147488095Y-47726190D01*
X147440476Y-47750000D01*
X147416666Y-47773809D01*
X147392857Y-47821428D01*
X147392857Y-47892857D01*
X147416666Y-47940476D01*
X147440476Y-47964285D01*
X147488095Y-47988095D01*
X147678571Y-47988095D01*
X147226190Y-47726190D02*
X146892857Y-47726190D01*
X147107142Y-48226190D01*
%TO.C,TP8*%
X149880952Y-44226190D02*
X149595238Y-44226190D01*
X149738095Y-44726190D02*
X149738095Y-44226190D01*
X149428571Y-44726190D02*
X149428571Y-44226190D01*
X149238095Y-44226190D01*
X149190476Y-44250000D01*
X149166666Y-44273809D01*
X149142857Y-44321428D01*
X149142857Y-44392857D01*
X149166666Y-44440476D01*
X149190476Y-44464285D01*
X149238095Y-44488095D01*
X149428571Y-44488095D01*
X148857142Y-44440476D02*
X148904761Y-44416666D01*
X148928571Y-44392857D01*
X148952380Y-44345238D01*
X148952380Y-44321428D01*
X148928571Y-44273809D01*
X148904761Y-44250000D01*
X148857142Y-44226190D01*
X148761904Y-44226190D01*
X148714285Y-44250000D01*
X148690476Y-44273809D01*
X148666666Y-44321428D01*
X148666666Y-44345238D01*
X148690476Y-44392857D01*
X148714285Y-44416666D01*
X148761904Y-44440476D01*
X148857142Y-44440476D01*
X148904761Y-44464285D01*
X148928571Y-44488095D01*
X148952380Y-44535714D01*
X148952380Y-44630952D01*
X148928571Y-44678571D01*
X148904761Y-44702380D01*
X148857142Y-44726190D01*
X148761904Y-44726190D01*
X148714285Y-44702380D01*
X148690476Y-44678571D01*
X148666666Y-44630952D01*
X148666666Y-44535714D01*
X148690476Y-44488095D01*
X148714285Y-44464285D01*
X148761904Y-44440476D01*
%TO.C,TP9*%
D11*
X144261904Y-48202380D02*
X143690476Y-48202380D01*
X143976190Y-49202380D02*
X143976190Y-48202380D01*
X143357142Y-49202380D02*
X143357142Y-48202380D01*
X142976190Y-48202380D01*
X142880952Y-48250000D01*
X142833333Y-48297619D01*
X142785714Y-48392857D01*
X142785714Y-48535714D01*
X142833333Y-48630952D01*
X142880952Y-48678571D01*
X142976190Y-48726190D01*
X143357142Y-48726190D01*
X142309523Y-49202380D02*
X142119047Y-49202380D01*
X142023809Y-49154761D01*
X141976190Y-49107142D01*
X141880952Y-48964285D01*
X141833333Y-48773809D01*
X141833333Y-48392857D01*
X141880952Y-48297619D01*
X141928571Y-48250000D01*
X142023809Y-48202380D01*
X142214285Y-48202380D01*
X142309523Y-48250000D01*
X142357142Y-48297619D01*
X142404761Y-48392857D01*
X142404761Y-48630952D01*
X142357142Y-48726190D01*
X142309523Y-48773809D01*
X142214285Y-48821428D01*
X142023809Y-48821428D01*
X141928571Y-48773809D01*
X141880952Y-48726190D01*
X141833333Y-48630952D01*
%TO.C,BZ1*%
X119428571Y-37619047D02*
X119476190Y-37761904D01*
X119523809Y-37809523D01*
X119619047Y-37857142D01*
X119761904Y-37857142D01*
X119857142Y-37809523D01*
X119904761Y-37761904D01*
X119952380Y-37666666D01*
X119952380Y-37285714D01*
X118952380Y-37285714D01*
X118952380Y-37619047D01*
X119000000Y-37714285D01*
X119047619Y-37761904D01*
X119142857Y-37809523D01*
X119238095Y-37809523D01*
X119333333Y-37761904D01*
X119380952Y-37714285D01*
X119428571Y-37619047D01*
X119428571Y-37285714D01*
X118952380Y-38190476D02*
X118952380Y-38857142D01*
X119952380Y-38190476D01*
X119952380Y-38857142D01*
X119952380Y-39761904D02*
X119952380Y-39190476D01*
X119952380Y-39476190D02*
X118952380Y-39476190D01*
X119095238Y-39380952D01*
X119190476Y-39285714D01*
X119238095Y-39190476D01*
%TD*%
M02*
