%TF.GenerationSoftware,KiCad,Pcbnew,(6.0.0-rc1-dev-1546-g786ee0e)*%
%TF.CreationDate,2021-05-18T14:47:40-07:00*%
%TF.ProjectId,MainBoard,4d61696e-426f-4617-9264-2e6b69636164,rev?*%
%TF.SameCoordinates,Original*%
%TF.FileFunction,Copper,L4,Bot*%
%TF.FilePolarity,Positive*%
%FSLAX46Y46*%
G04 Gerber Fmt 4.6, Leading zero omitted, Abs format (unit mm)*
G04 Created by KiCad (PCBNEW (6.0.0-rc1-dev-1546-g786ee0e)) date Tue 18 May 2021 02:47:40 PM PDT*
%MOMM*%
%LPD*%
G04 APERTURE LIST*
%TA.AperFunction,SMDPad,CuDef*%
%ADD10R,0.375000X0.350000*%
%TD*%
%TA.AperFunction,SMDPad,CuDef*%
%ADD11R,0.350000X0.375000*%
%TD*%
%TA.AperFunction,Conductor*%
%ADD12C,0.100000*%
%TD*%
%TA.AperFunction,SMDPad,CuDef*%
%ADD13C,0.560000*%
%TD*%
%TA.AperFunction,SMDPad,CuDef*%
%ADD14R,1.000000X1.000000*%
%TD*%
%TA.AperFunction,SMDPad,CuDef*%
%ADD15C,0.350000*%
%TD*%
%TA.AperFunction,SMDPad,CuDef*%
%ADD16R,3.000000X2.000000*%
%TD*%
%TA.AperFunction,ComponentPad*%
%ADD17C,0.850000*%
%TD*%
%TA.AperFunction,Conductor*%
%ADD18C,0.850000*%
%TD*%
%TA.AperFunction,SMDPad,CuDef*%
%ADD19R,2.000000X2.000000*%
%TD*%
%TA.AperFunction,ViaPad*%
%ADD20C,0.400000*%
%TD*%
%TA.AperFunction,Conductor*%
%ADD21C,0.200000*%
%TD*%
G04 APERTURE END LIST*
D10*
%TO.P,U3,12*%
%TO.N,Net-(U3-Pad12)*%
X121962500Y-48050000D03*
%TO.P,U3,11*%
%TO.N,Net-(U3-Pad11)*%
X121962500Y-47550000D03*
%TO.P,U3,6*%
%TO.N,GND*%
X120437500Y-47550000D03*
%TO.P,U3,5*%
%TO.N,Net-(C4-Pad2)*%
X120437500Y-48050000D03*
D11*
%TO.P,U3,10*%
%TO.N,+3V3*%
X121950000Y-47037500D03*
%TO.P,U3,1*%
%TO.N,SCL*%
X121950000Y-48562500D03*
%TO.P,U3,7*%
%TO.N,Net-(U3-Pad7)*%
X120450000Y-47037500D03*
%TO.P,U3,4*%
%TO.N,SDA*%
X120450000Y-48562500D03*
%TO.P,U3,8*%
%TO.N,GND*%
X120950000Y-47037500D03*
%TO.P,U3,9*%
%TO.N,+3V3*%
X121450000Y-47037500D03*
%TO.P,U3,3*%
X120950000Y-48562500D03*
%TO.P,U3,2*%
X121450000Y-48562500D03*
%TD*%
D12*
%TO.N,Net-(C4-Pad2)*%
%TO.C,C4*%
G36*
X119583722Y-47400674D02*
G01*
X119597313Y-47402690D01*
X119610640Y-47406028D01*
X119623576Y-47410657D01*
X119635996Y-47416531D01*
X119647780Y-47423594D01*
X119658815Y-47431779D01*
X119668995Y-47441005D01*
X119678221Y-47451185D01*
X119686406Y-47462220D01*
X119693469Y-47474004D01*
X119699343Y-47486424D01*
X119703972Y-47499360D01*
X119707310Y-47512687D01*
X119709326Y-47526278D01*
X119710000Y-47540000D01*
X119710000Y-47820000D01*
X119709326Y-47833722D01*
X119707310Y-47847313D01*
X119703972Y-47860640D01*
X119699343Y-47873576D01*
X119693469Y-47885996D01*
X119686406Y-47897780D01*
X119678221Y-47908815D01*
X119668995Y-47918995D01*
X119658815Y-47928221D01*
X119647780Y-47936406D01*
X119635996Y-47943469D01*
X119623576Y-47949343D01*
X119610640Y-47953972D01*
X119597313Y-47957310D01*
X119583722Y-47959326D01*
X119570000Y-47960000D01*
X119230000Y-47960000D01*
X119216278Y-47959326D01*
X119202687Y-47957310D01*
X119189360Y-47953972D01*
X119176424Y-47949343D01*
X119164004Y-47943469D01*
X119152220Y-47936406D01*
X119141185Y-47928221D01*
X119131005Y-47918995D01*
X119121779Y-47908815D01*
X119113594Y-47897780D01*
X119106531Y-47885996D01*
X119100657Y-47873576D01*
X119096028Y-47860640D01*
X119092690Y-47847313D01*
X119090674Y-47833722D01*
X119090000Y-47820000D01*
X119090000Y-47540000D01*
X119090674Y-47526278D01*
X119092690Y-47512687D01*
X119096028Y-47499360D01*
X119100657Y-47486424D01*
X119106531Y-47474004D01*
X119113594Y-47462220D01*
X119121779Y-47451185D01*
X119131005Y-47441005D01*
X119141185Y-47431779D01*
X119152220Y-47423594D01*
X119164004Y-47416531D01*
X119176424Y-47410657D01*
X119189360Y-47406028D01*
X119202687Y-47402690D01*
X119216278Y-47400674D01*
X119230000Y-47400000D01*
X119570000Y-47400000D01*
X119583722Y-47400674D01*
X119583722Y-47400674D01*
G37*
D13*
%TD*%
%TO.P,C4,2*%
%TO.N,Net-(C4-Pad2)*%
X119400000Y-47680000D03*
D12*
%TO.N,GND*%
%TO.C,C4*%
G36*
X119583722Y-46440674D02*
G01*
X119597313Y-46442690D01*
X119610640Y-46446028D01*
X119623576Y-46450657D01*
X119635996Y-46456531D01*
X119647780Y-46463594D01*
X119658815Y-46471779D01*
X119668995Y-46481005D01*
X119678221Y-46491185D01*
X119686406Y-46502220D01*
X119693469Y-46514004D01*
X119699343Y-46526424D01*
X119703972Y-46539360D01*
X119707310Y-46552687D01*
X119709326Y-46566278D01*
X119710000Y-46580000D01*
X119710000Y-46860000D01*
X119709326Y-46873722D01*
X119707310Y-46887313D01*
X119703972Y-46900640D01*
X119699343Y-46913576D01*
X119693469Y-46925996D01*
X119686406Y-46937780D01*
X119678221Y-46948815D01*
X119668995Y-46958995D01*
X119658815Y-46968221D01*
X119647780Y-46976406D01*
X119635996Y-46983469D01*
X119623576Y-46989343D01*
X119610640Y-46993972D01*
X119597313Y-46997310D01*
X119583722Y-46999326D01*
X119570000Y-47000000D01*
X119230000Y-47000000D01*
X119216278Y-46999326D01*
X119202687Y-46997310D01*
X119189360Y-46993972D01*
X119176424Y-46989343D01*
X119164004Y-46983469D01*
X119152220Y-46976406D01*
X119141185Y-46968221D01*
X119131005Y-46958995D01*
X119121779Y-46948815D01*
X119113594Y-46937780D01*
X119106531Y-46925996D01*
X119100657Y-46913576D01*
X119096028Y-46900640D01*
X119092690Y-46887313D01*
X119090674Y-46873722D01*
X119090000Y-46860000D01*
X119090000Y-46580000D01*
X119090674Y-46566278D01*
X119092690Y-46552687D01*
X119096028Y-46539360D01*
X119100657Y-46526424D01*
X119106531Y-46514004D01*
X119113594Y-46502220D01*
X119121779Y-46491185D01*
X119131005Y-46481005D01*
X119141185Y-46471779D01*
X119152220Y-46463594D01*
X119164004Y-46456531D01*
X119176424Y-46450657D01*
X119189360Y-46446028D01*
X119202687Y-46442690D01*
X119216278Y-46440674D01*
X119230000Y-46440000D01*
X119570000Y-46440000D01*
X119583722Y-46440674D01*
X119583722Y-46440674D01*
G37*
D13*
%TD*%
%TO.P,C4,1*%
%TO.N,GND*%
X119400000Y-46720000D03*
D14*
%TO.P,TP11,1*%
%TO.N,Net-(BT1-Pad1)*%
X145500000Y-40500000D03*
%TD*%
D12*
%TO.N,Net-(IC1-Pad14)*%
%TO.C,IC1*%
G36*
X135996076Y-50925421D02*
G01*
X136004570Y-50926681D01*
X136012900Y-50928768D01*
X136020985Y-50931661D01*
X136028747Y-50935332D01*
X136036112Y-50939746D01*
X136043009Y-50944862D01*
X136049372Y-50950628D01*
X136055138Y-50956991D01*
X136060254Y-50963888D01*
X136064668Y-50971253D01*
X136068339Y-50979015D01*
X136071232Y-50987100D01*
X136073319Y-50995430D01*
X136074579Y-51003924D01*
X136075000Y-51012500D01*
X136075000Y-51587500D01*
X136074579Y-51596076D01*
X136073319Y-51604570D01*
X136071232Y-51612900D01*
X136068339Y-51620985D01*
X136064668Y-51628747D01*
X136060254Y-51636112D01*
X136055138Y-51643009D01*
X136049372Y-51649372D01*
X136043009Y-51655138D01*
X136036112Y-51660254D01*
X136028747Y-51664668D01*
X136020985Y-51668339D01*
X136012900Y-51671232D01*
X136004570Y-51673319D01*
X135996076Y-51674579D01*
X135987500Y-51675000D01*
X135812500Y-51675000D01*
X135803924Y-51674579D01*
X135795430Y-51673319D01*
X135787100Y-51671232D01*
X135779015Y-51668339D01*
X135771253Y-51664668D01*
X135763888Y-51660254D01*
X135756991Y-51655138D01*
X135750628Y-51649372D01*
X135744862Y-51643009D01*
X135739746Y-51636112D01*
X135735332Y-51628747D01*
X135731661Y-51620985D01*
X135728768Y-51612900D01*
X135726681Y-51604570D01*
X135725421Y-51596076D01*
X135725000Y-51587500D01*
X135725000Y-51012500D01*
X135725421Y-51003924D01*
X135726681Y-50995430D01*
X135728768Y-50987100D01*
X135731661Y-50979015D01*
X135735332Y-50971253D01*
X135739746Y-50963888D01*
X135744862Y-50956991D01*
X135750628Y-50950628D01*
X135756991Y-50944862D01*
X135763888Y-50939746D01*
X135771253Y-50935332D01*
X135779015Y-50931661D01*
X135787100Y-50928768D01*
X135795430Y-50926681D01*
X135803924Y-50925421D01*
X135812500Y-50925000D01*
X135987500Y-50925000D01*
X135996076Y-50925421D01*
X135996076Y-50925421D01*
G37*
D15*
%TD*%
%TO.P,IC1,14*%
%TO.N,Net-(IC1-Pad14)*%
X135900000Y-51300000D03*
D12*
%TO.N,Net-(IC1-Pad13)*%
%TO.C,IC1*%
G36*
X135196076Y-50925421D02*
G01*
X135204570Y-50926681D01*
X135212900Y-50928768D01*
X135220985Y-50931661D01*
X135228747Y-50935332D01*
X135236112Y-50939746D01*
X135243009Y-50944862D01*
X135249372Y-50950628D01*
X135255138Y-50956991D01*
X135260254Y-50963888D01*
X135264668Y-50971253D01*
X135268339Y-50979015D01*
X135271232Y-50987100D01*
X135273319Y-50995430D01*
X135274579Y-51003924D01*
X135275000Y-51012500D01*
X135275000Y-51587500D01*
X135274579Y-51596076D01*
X135273319Y-51604570D01*
X135271232Y-51612900D01*
X135268339Y-51620985D01*
X135264668Y-51628747D01*
X135260254Y-51636112D01*
X135255138Y-51643009D01*
X135249372Y-51649372D01*
X135243009Y-51655138D01*
X135236112Y-51660254D01*
X135228747Y-51664668D01*
X135220985Y-51668339D01*
X135212900Y-51671232D01*
X135204570Y-51673319D01*
X135196076Y-51674579D01*
X135187500Y-51675000D01*
X135012500Y-51675000D01*
X135003924Y-51674579D01*
X134995430Y-51673319D01*
X134987100Y-51671232D01*
X134979015Y-51668339D01*
X134971253Y-51664668D01*
X134963888Y-51660254D01*
X134956991Y-51655138D01*
X134950628Y-51649372D01*
X134944862Y-51643009D01*
X134939746Y-51636112D01*
X134935332Y-51628747D01*
X134931661Y-51620985D01*
X134928768Y-51612900D01*
X134926681Y-51604570D01*
X134925421Y-51596076D01*
X134925000Y-51587500D01*
X134925000Y-51012500D01*
X134925421Y-51003924D01*
X134926681Y-50995430D01*
X134928768Y-50987100D01*
X134931661Y-50979015D01*
X134935332Y-50971253D01*
X134939746Y-50963888D01*
X134944862Y-50956991D01*
X134950628Y-50950628D01*
X134956991Y-50944862D01*
X134963888Y-50939746D01*
X134971253Y-50935332D01*
X134979015Y-50931661D01*
X134987100Y-50928768D01*
X134995430Y-50926681D01*
X135003924Y-50925421D01*
X135012500Y-50925000D01*
X135187500Y-50925000D01*
X135196076Y-50925421D01*
X135196076Y-50925421D01*
G37*
D15*
%TD*%
%TO.P,IC1,13*%
%TO.N,Net-(IC1-Pad13)*%
X135100000Y-51300000D03*
D12*
%TO.N,GND*%
%TO.C,IC1*%
G36*
X134396076Y-50925421D02*
G01*
X134404570Y-50926681D01*
X134412900Y-50928768D01*
X134420985Y-50931661D01*
X134428747Y-50935332D01*
X134436112Y-50939746D01*
X134443009Y-50944862D01*
X134449372Y-50950628D01*
X134455138Y-50956991D01*
X134460254Y-50963888D01*
X134464668Y-50971253D01*
X134468339Y-50979015D01*
X134471232Y-50987100D01*
X134473319Y-50995430D01*
X134474579Y-51003924D01*
X134475000Y-51012500D01*
X134475000Y-51587500D01*
X134474579Y-51596076D01*
X134473319Y-51604570D01*
X134471232Y-51612900D01*
X134468339Y-51620985D01*
X134464668Y-51628747D01*
X134460254Y-51636112D01*
X134455138Y-51643009D01*
X134449372Y-51649372D01*
X134443009Y-51655138D01*
X134436112Y-51660254D01*
X134428747Y-51664668D01*
X134420985Y-51668339D01*
X134412900Y-51671232D01*
X134404570Y-51673319D01*
X134396076Y-51674579D01*
X134387500Y-51675000D01*
X134212500Y-51675000D01*
X134203924Y-51674579D01*
X134195430Y-51673319D01*
X134187100Y-51671232D01*
X134179015Y-51668339D01*
X134171253Y-51664668D01*
X134163888Y-51660254D01*
X134156991Y-51655138D01*
X134150628Y-51649372D01*
X134144862Y-51643009D01*
X134139746Y-51636112D01*
X134135332Y-51628747D01*
X134131661Y-51620985D01*
X134128768Y-51612900D01*
X134126681Y-51604570D01*
X134125421Y-51596076D01*
X134125000Y-51587500D01*
X134125000Y-51012500D01*
X134125421Y-51003924D01*
X134126681Y-50995430D01*
X134128768Y-50987100D01*
X134131661Y-50979015D01*
X134135332Y-50971253D01*
X134139746Y-50963888D01*
X134144862Y-50956991D01*
X134150628Y-50950628D01*
X134156991Y-50944862D01*
X134163888Y-50939746D01*
X134171253Y-50935332D01*
X134179015Y-50931661D01*
X134187100Y-50928768D01*
X134195430Y-50926681D01*
X134203924Y-50925421D01*
X134212500Y-50925000D01*
X134387500Y-50925000D01*
X134396076Y-50925421D01*
X134396076Y-50925421D01*
G37*
D15*
%TD*%
%TO.P,IC1,12*%
%TO.N,GND*%
X134300000Y-51300000D03*
D12*
%TO.N,Net-(D2-Pad2)*%
%TO.C,IC1*%
G36*
X133596076Y-50925421D02*
G01*
X133604570Y-50926681D01*
X133612900Y-50928768D01*
X133620985Y-50931661D01*
X133628747Y-50935332D01*
X133636112Y-50939746D01*
X133643009Y-50944862D01*
X133649372Y-50950628D01*
X133655138Y-50956991D01*
X133660254Y-50963888D01*
X133664668Y-50971253D01*
X133668339Y-50979015D01*
X133671232Y-50987100D01*
X133673319Y-50995430D01*
X133674579Y-51003924D01*
X133675000Y-51012500D01*
X133675000Y-51587500D01*
X133674579Y-51596076D01*
X133673319Y-51604570D01*
X133671232Y-51612900D01*
X133668339Y-51620985D01*
X133664668Y-51628747D01*
X133660254Y-51636112D01*
X133655138Y-51643009D01*
X133649372Y-51649372D01*
X133643009Y-51655138D01*
X133636112Y-51660254D01*
X133628747Y-51664668D01*
X133620985Y-51668339D01*
X133612900Y-51671232D01*
X133604570Y-51673319D01*
X133596076Y-51674579D01*
X133587500Y-51675000D01*
X133412500Y-51675000D01*
X133403924Y-51674579D01*
X133395430Y-51673319D01*
X133387100Y-51671232D01*
X133379015Y-51668339D01*
X133371253Y-51664668D01*
X133363888Y-51660254D01*
X133356991Y-51655138D01*
X133350628Y-51649372D01*
X133344862Y-51643009D01*
X133339746Y-51636112D01*
X133335332Y-51628747D01*
X133331661Y-51620985D01*
X133328768Y-51612900D01*
X133326681Y-51604570D01*
X133325421Y-51596076D01*
X133325000Y-51587500D01*
X133325000Y-51012500D01*
X133325421Y-51003924D01*
X133326681Y-50995430D01*
X133328768Y-50987100D01*
X133331661Y-50979015D01*
X133335332Y-50971253D01*
X133339746Y-50963888D01*
X133344862Y-50956991D01*
X133350628Y-50950628D01*
X133356991Y-50944862D01*
X133363888Y-50939746D01*
X133371253Y-50935332D01*
X133379015Y-50931661D01*
X133387100Y-50928768D01*
X133395430Y-50926681D01*
X133403924Y-50925421D01*
X133412500Y-50925000D01*
X133587500Y-50925000D01*
X133596076Y-50925421D01*
X133596076Y-50925421D01*
G37*
D15*
%TD*%
%TO.P,IC1,11*%
%TO.N,Net-(D2-Pad2)*%
X133500000Y-51300000D03*
D12*
%TO.N,+3V3*%
%TO.C,IC1*%
G36*
X132796076Y-50925421D02*
G01*
X132804570Y-50926681D01*
X132812900Y-50928768D01*
X132820985Y-50931661D01*
X132828747Y-50935332D01*
X132836112Y-50939746D01*
X132843009Y-50944862D01*
X132849372Y-50950628D01*
X132855138Y-50956991D01*
X132860254Y-50963888D01*
X132864668Y-50971253D01*
X132868339Y-50979015D01*
X132871232Y-50987100D01*
X132873319Y-50995430D01*
X132874579Y-51003924D01*
X132875000Y-51012500D01*
X132875000Y-51587500D01*
X132874579Y-51596076D01*
X132873319Y-51604570D01*
X132871232Y-51612900D01*
X132868339Y-51620985D01*
X132864668Y-51628747D01*
X132860254Y-51636112D01*
X132855138Y-51643009D01*
X132849372Y-51649372D01*
X132843009Y-51655138D01*
X132836112Y-51660254D01*
X132828747Y-51664668D01*
X132820985Y-51668339D01*
X132812900Y-51671232D01*
X132804570Y-51673319D01*
X132796076Y-51674579D01*
X132787500Y-51675000D01*
X132612500Y-51675000D01*
X132603924Y-51674579D01*
X132595430Y-51673319D01*
X132587100Y-51671232D01*
X132579015Y-51668339D01*
X132571253Y-51664668D01*
X132563888Y-51660254D01*
X132556991Y-51655138D01*
X132550628Y-51649372D01*
X132544862Y-51643009D01*
X132539746Y-51636112D01*
X132535332Y-51628747D01*
X132531661Y-51620985D01*
X132528768Y-51612900D01*
X132526681Y-51604570D01*
X132525421Y-51596076D01*
X132525000Y-51587500D01*
X132525000Y-51012500D01*
X132525421Y-51003924D01*
X132526681Y-50995430D01*
X132528768Y-50987100D01*
X132531661Y-50979015D01*
X132535332Y-50971253D01*
X132539746Y-50963888D01*
X132544862Y-50956991D01*
X132550628Y-50950628D01*
X132556991Y-50944862D01*
X132563888Y-50939746D01*
X132571253Y-50935332D01*
X132579015Y-50931661D01*
X132587100Y-50928768D01*
X132595430Y-50926681D01*
X132603924Y-50925421D01*
X132612500Y-50925000D01*
X132787500Y-50925000D01*
X132796076Y-50925421D01*
X132796076Y-50925421D01*
G37*
D15*
%TD*%
%TO.P,IC1,10*%
%TO.N,+3V3*%
X132700000Y-51300000D03*
D12*
%TO.N,+3V3*%
%TO.C,IC1*%
G36*
X131996076Y-50925421D02*
G01*
X132004570Y-50926681D01*
X132012900Y-50928768D01*
X132020985Y-50931661D01*
X132028747Y-50935332D01*
X132036112Y-50939746D01*
X132043009Y-50944862D01*
X132049372Y-50950628D01*
X132055138Y-50956991D01*
X132060254Y-50963888D01*
X132064668Y-50971253D01*
X132068339Y-50979015D01*
X132071232Y-50987100D01*
X132073319Y-50995430D01*
X132074579Y-51003924D01*
X132075000Y-51012500D01*
X132075000Y-51587500D01*
X132074579Y-51596076D01*
X132073319Y-51604570D01*
X132071232Y-51612900D01*
X132068339Y-51620985D01*
X132064668Y-51628747D01*
X132060254Y-51636112D01*
X132055138Y-51643009D01*
X132049372Y-51649372D01*
X132043009Y-51655138D01*
X132036112Y-51660254D01*
X132028747Y-51664668D01*
X132020985Y-51668339D01*
X132012900Y-51671232D01*
X132004570Y-51673319D01*
X131996076Y-51674579D01*
X131987500Y-51675000D01*
X131812500Y-51675000D01*
X131803924Y-51674579D01*
X131795430Y-51673319D01*
X131787100Y-51671232D01*
X131779015Y-51668339D01*
X131771253Y-51664668D01*
X131763888Y-51660254D01*
X131756991Y-51655138D01*
X131750628Y-51649372D01*
X131744862Y-51643009D01*
X131739746Y-51636112D01*
X131735332Y-51628747D01*
X131731661Y-51620985D01*
X131728768Y-51612900D01*
X131726681Y-51604570D01*
X131725421Y-51596076D01*
X131725000Y-51587500D01*
X131725000Y-51012500D01*
X131725421Y-51003924D01*
X131726681Y-50995430D01*
X131728768Y-50987100D01*
X131731661Y-50979015D01*
X131735332Y-50971253D01*
X131739746Y-50963888D01*
X131744862Y-50956991D01*
X131750628Y-50950628D01*
X131756991Y-50944862D01*
X131763888Y-50939746D01*
X131771253Y-50935332D01*
X131779015Y-50931661D01*
X131787100Y-50928768D01*
X131795430Y-50926681D01*
X131803924Y-50925421D01*
X131812500Y-50925000D01*
X131987500Y-50925000D01*
X131996076Y-50925421D01*
X131996076Y-50925421D01*
G37*
D15*
%TD*%
%TO.P,IC1,9*%
%TO.N,+3V3*%
X131900000Y-51300000D03*
D12*
%TO.N,Net-(IC1-Pad8)*%
%TO.C,IC1*%
G36*
X131196076Y-50925421D02*
G01*
X131204570Y-50926681D01*
X131212900Y-50928768D01*
X131220985Y-50931661D01*
X131228747Y-50935332D01*
X131236112Y-50939746D01*
X131243009Y-50944862D01*
X131249372Y-50950628D01*
X131255138Y-50956991D01*
X131260254Y-50963888D01*
X131264668Y-50971253D01*
X131268339Y-50979015D01*
X131271232Y-50987100D01*
X131273319Y-50995430D01*
X131274579Y-51003924D01*
X131275000Y-51012500D01*
X131275000Y-51587500D01*
X131274579Y-51596076D01*
X131273319Y-51604570D01*
X131271232Y-51612900D01*
X131268339Y-51620985D01*
X131264668Y-51628747D01*
X131260254Y-51636112D01*
X131255138Y-51643009D01*
X131249372Y-51649372D01*
X131243009Y-51655138D01*
X131236112Y-51660254D01*
X131228747Y-51664668D01*
X131220985Y-51668339D01*
X131212900Y-51671232D01*
X131204570Y-51673319D01*
X131196076Y-51674579D01*
X131187500Y-51675000D01*
X131012500Y-51675000D01*
X131003924Y-51674579D01*
X130995430Y-51673319D01*
X130987100Y-51671232D01*
X130979015Y-51668339D01*
X130971253Y-51664668D01*
X130963888Y-51660254D01*
X130956991Y-51655138D01*
X130950628Y-51649372D01*
X130944862Y-51643009D01*
X130939746Y-51636112D01*
X130935332Y-51628747D01*
X130931661Y-51620985D01*
X130928768Y-51612900D01*
X130926681Y-51604570D01*
X130925421Y-51596076D01*
X130925000Y-51587500D01*
X130925000Y-51012500D01*
X130925421Y-51003924D01*
X130926681Y-50995430D01*
X130928768Y-50987100D01*
X130931661Y-50979015D01*
X130935332Y-50971253D01*
X130939746Y-50963888D01*
X130944862Y-50956991D01*
X130950628Y-50950628D01*
X130956991Y-50944862D01*
X130963888Y-50939746D01*
X130971253Y-50935332D01*
X130979015Y-50931661D01*
X130987100Y-50928768D01*
X130995430Y-50926681D01*
X131003924Y-50925421D01*
X131012500Y-50925000D01*
X131187500Y-50925000D01*
X131196076Y-50925421D01*
X131196076Y-50925421D01*
G37*
D15*
%TD*%
%TO.P,IC1,8*%
%TO.N,Net-(IC1-Pad8)*%
X131100000Y-51300000D03*
D12*
%TO.N,Net-(IC1-Pad7)*%
%TO.C,IC1*%
G36*
X131196076Y-53325421D02*
G01*
X131204570Y-53326681D01*
X131212900Y-53328768D01*
X131220985Y-53331661D01*
X131228747Y-53335332D01*
X131236112Y-53339746D01*
X131243009Y-53344862D01*
X131249372Y-53350628D01*
X131255138Y-53356991D01*
X131260254Y-53363888D01*
X131264668Y-53371253D01*
X131268339Y-53379015D01*
X131271232Y-53387100D01*
X131273319Y-53395430D01*
X131274579Y-53403924D01*
X131275000Y-53412500D01*
X131275000Y-53987500D01*
X131274579Y-53996076D01*
X131273319Y-54004570D01*
X131271232Y-54012900D01*
X131268339Y-54020985D01*
X131264668Y-54028747D01*
X131260254Y-54036112D01*
X131255138Y-54043009D01*
X131249372Y-54049372D01*
X131243009Y-54055138D01*
X131236112Y-54060254D01*
X131228747Y-54064668D01*
X131220985Y-54068339D01*
X131212900Y-54071232D01*
X131204570Y-54073319D01*
X131196076Y-54074579D01*
X131187500Y-54075000D01*
X131012500Y-54075000D01*
X131003924Y-54074579D01*
X130995430Y-54073319D01*
X130987100Y-54071232D01*
X130979015Y-54068339D01*
X130971253Y-54064668D01*
X130963888Y-54060254D01*
X130956991Y-54055138D01*
X130950628Y-54049372D01*
X130944862Y-54043009D01*
X130939746Y-54036112D01*
X130935332Y-54028747D01*
X130931661Y-54020985D01*
X130928768Y-54012900D01*
X130926681Y-54004570D01*
X130925421Y-53996076D01*
X130925000Y-53987500D01*
X130925000Y-53412500D01*
X130925421Y-53403924D01*
X130926681Y-53395430D01*
X130928768Y-53387100D01*
X130931661Y-53379015D01*
X130935332Y-53371253D01*
X130939746Y-53363888D01*
X130944862Y-53356991D01*
X130950628Y-53350628D01*
X130956991Y-53344862D01*
X130963888Y-53339746D01*
X130971253Y-53335332D01*
X130979015Y-53331661D01*
X130987100Y-53328768D01*
X130995430Y-53326681D01*
X131003924Y-53325421D01*
X131012500Y-53325000D01*
X131187500Y-53325000D01*
X131196076Y-53325421D01*
X131196076Y-53325421D01*
G37*
D15*
%TD*%
%TO.P,IC1,7*%
%TO.N,Net-(IC1-Pad7)*%
X131100000Y-53700000D03*
D12*
%TO.N,Net-(IC1-Pad6)*%
%TO.C,IC1*%
G36*
X131996076Y-53325421D02*
G01*
X132004570Y-53326681D01*
X132012900Y-53328768D01*
X132020985Y-53331661D01*
X132028747Y-53335332D01*
X132036112Y-53339746D01*
X132043009Y-53344862D01*
X132049372Y-53350628D01*
X132055138Y-53356991D01*
X132060254Y-53363888D01*
X132064668Y-53371253D01*
X132068339Y-53379015D01*
X132071232Y-53387100D01*
X132073319Y-53395430D01*
X132074579Y-53403924D01*
X132075000Y-53412500D01*
X132075000Y-53987500D01*
X132074579Y-53996076D01*
X132073319Y-54004570D01*
X132071232Y-54012900D01*
X132068339Y-54020985D01*
X132064668Y-54028747D01*
X132060254Y-54036112D01*
X132055138Y-54043009D01*
X132049372Y-54049372D01*
X132043009Y-54055138D01*
X132036112Y-54060254D01*
X132028747Y-54064668D01*
X132020985Y-54068339D01*
X132012900Y-54071232D01*
X132004570Y-54073319D01*
X131996076Y-54074579D01*
X131987500Y-54075000D01*
X131812500Y-54075000D01*
X131803924Y-54074579D01*
X131795430Y-54073319D01*
X131787100Y-54071232D01*
X131779015Y-54068339D01*
X131771253Y-54064668D01*
X131763888Y-54060254D01*
X131756991Y-54055138D01*
X131750628Y-54049372D01*
X131744862Y-54043009D01*
X131739746Y-54036112D01*
X131735332Y-54028747D01*
X131731661Y-54020985D01*
X131728768Y-54012900D01*
X131726681Y-54004570D01*
X131725421Y-53996076D01*
X131725000Y-53987500D01*
X131725000Y-53412500D01*
X131725421Y-53403924D01*
X131726681Y-53395430D01*
X131728768Y-53387100D01*
X131731661Y-53379015D01*
X131735332Y-53371253D01*
X131739746Y-53363888D01*
X131744862Y-53356991D01*
X131750628Y-53350628D01*
X131756991Y-53344862D01*
X131763888Y-53339746D01*
X131771253Y-53335332D01*
X131779015Y-53331661D01*
X131787100Y-53328768D01*
X131795430Y-53326681D01*
X131803924Y-53325421D01*
X131812500Y-53325000D01*
X131987500Y-53325000D01*
X131996076Y-53325421D01*
X131996076Y-53325421D01*
G37*
D15*
%TD*%
%TO.P,IC1,6*%
%TO.N,Net-(IC1-Pad6)*%
X131900000Y-53700000D03*
D12*
%TO.N,Net-(IC1-Pad5)*%
%TO.C,IC1*%
G36*
X132796076Y-53325421D02*
G01*
X132804570Y-53326681D01*
X132812900Y-53328768D01*
X132820985Y-53331661D01*
X132828747Y-53335332D01*
X132836112Y-53339746D01*
X132843009Y-53344862D01*
X132849372Y-53350628D01*
X132855138Y-53356991D01*
X132860254Y-53363888D01*
X132864668Y-53371253D01*
X132868339Y-53379015D01*
X132871232Y-53387100D01*
X132873319Y-53395430D01*
X132874579Y-53403924D01*
X132875000Y-53412500D01*
X132875000Y-53987500D01*
X132874579Y-53996076D01*
X132873319Y-54004570D01*
X132871232Y-54012900D01*
X132868339Y-54020985D01*
X132864668Y-54028747D01*
X132860254Y-54036112D01*
X132855138Y-54043009D01*
X132849372Y-54049372D01*
X132843009Y-54055138D01*
X132836112Y-54060254D01*
X132828747Y-54064668D01*
X132820985Y-54068339D01*
X132812900Y-54071232D01*
X132804570Y-54073319D01*
X132796076Y-54074579D01*
X132787500Y-54075000D01*
X132612500Y-54075000D01*
X132603924Y-54074579D01*
X132595430Y-54073319D01*
X132587100Y-54071232D01*
X132579015Y-54068339D01*
X132571253Y-54064668D01*
X132563888Y-54060254D01*
X132556991Y-54055138D01*
X132550628Y-54049372D01*
X132544862Y-54043009D01*
X132539746Y-54036112D01*
X132535332Y-54028747D01*
X132531661Y-54020985D01*
X132528768Y-54012900D01*
X132526681Y-54004570D01*
X132525421Y-53996076D01*
X132525000Y-53987500D01*
X132525000Y-53412500D01*
X132525421Y-53403924D01*
X132526681Y-53395430D01*
X132528768Y-53387100D01*
X132531661Y-53379015D01*
X132535332Y-53371253D01*
X132539746Y-53363888D01*
X132544862Y-53356991D01*
X132550628Y-53350628D01*
X132556991Y-53344862D01*
X132563888Y-53339746D01*
X132571253Y-53335332D01*
X132579015Y-53331661D01*
X132587100Y-53328768D01*
X132595430Y-53326681D01*
X132603924Y-53325421D01*
X132612500Y-53325000D01*
X132787500Y-53325000D01*
X132796076Y-53325421D01*
X132796076Y-53325421D01*
G37*
D15*
%TD*%
%TO.P,IC1,5*%
%TO.N,Net-(IC1-Pad5)*%
X132700000Y-53700000D03*
D12*
%TO.N,GND*%
%TO.C,IC1*%
G36*
X133596076Y-53325421D02*
G01*
X133604570Y-53326681D01*
X133612900Y-53328768D01*
X133620985Y-53331661D01*
X133628747Y-53335332D01*
X133636112Y-53339746D01*
X133643009Y-53344862D01*
X133649372Y-53350628D01*
X133655138Y-53356991D01*
X133660254Y-53363888D01*
X133664668Y-53371253D01*
X133668339Y-53379015D01*
X133671232Y-53387100D01*
X133673319Y-53395430D01*
X133674579Y-53403924D01*
X133675000Y-53412500D01*
X133675000Y-53987500D01*
X133674579Y-53996076D01*
X133673319Y-54004570D01*
X133671232Y-54012900D01*
X133668339Y-54020985D01*
X133664668Y-54028747D01*
X133660254Y-54036112D01*
X133655138Y-54043009D01*
X133649372Y-54049372D01*
X133643009Y-54055138D01*
X133636112Y-54060254D01*
X133628747Y-54064668D01*
X133620985Y-54068339D01*
X133612900Y-54071232D01*
X133604570Y-54073319D01*
X133596076Y-54074579D01*
X133587500Y-54075000D01*
X133412500Y-54075000D01*
X133403924Y-54074579D01*
X133395430Y-54073319D01*
X133387100Y-54071232D01*
X133379015Y-54068339D01*
X133371253Y-54064668D01*
X133363888Y-54060254D01*
X133356991Y-54055138D01*
X133350628Y-54049372D01*
X133344862Y-54043009D01*
X133339746Y-54036112D01*
X133335332Y-54028747D01*
X133331661Y-54020985D01*
X133328768Y-54012900D01*
X133326681Y-54004570D01*
X133325421Y-53996076D01*
X133325000Y-53987500D01*
X133325000Y-53412500D01*
X133325421Y-53403924D01*
X133326681Y-53395430D01*
X133328768Y-53387100D01*
X133331661Y-53379015D01*
X133335332Y-53371253D01*
X133339746Y-53363888D01*
X133344862Y-53356991D01*
X133350628Y-53350628D01*
X133356991Y-53344862D01*
X133363888Y-53339746D01*
X133371253Y-53335332D01*
X133379015Y-53331661D01*
X133387100Y-53328768D01*
X133395430Y-53326681D01*
X133403924Y-53325421D01*
X133412500Y-53325000D01*
X133587500Y-53325000D01*
X133596076Y-53325421D01*
X133596076Y-53325421D01*
G37*
D15*
%TD*%
%TO.P,IC1,4*%
%TO.N,GND*%
X133500000Y-53700000D03*
D12*
%TO.N,SDA*%
%TO.C,IC1*%
G36*
X134396076Y-53325421D02*
G01*
X134404570Y-53326681D01*
X134412900Y-53328768D01*
X134420985Y-53331661D01*
X134428747Y-53335332D01*
X134436112Y-53339746D01*
X134443009Y-53344862D01*
X134449372Y-53350628D01*
X134455138Y-53356991D01*
X134460254Y-53363888D01*
X134464668Y-53371253D01*
X134468339Y-53379015D01*
X134471232Y-53387100D01*
X134473319Y-53395430D01*
X134474579Y-53403924D01*
X134475000Y-53412500D01*
X134475000Y-53987500D01*
X134474579Y-53996076D01*
X134473319Y-54004570D01*
X134471232Y-54012900D01*
X134468339Y-54020985D01*
X134464668Y-54028747D01*
X134460254Y-54036112D01*
X134455138Y-54043009D01*
X134449372Y-54049372D01*
X134443009Y-54055138D01*
X134436112Y-54060254D01*
X134428747Y-54064668D01*
X134420985Y-54068339D01*
X134412900Y-54071232D01*
X134404570Y-54073319D01*
X134396076Y-54074579D01*
X134387500Y-54075000D01*
X134212500Y-54075000D01*
X134203924Y-54074579D01*
X134195430Y-54073319D01*
X134187100Y-54071232D01*
X134179015Y-54068339D01*
X134171253Y-54064668D01*
X134163888Y-54060254D01*
X134156991Y-54055138D01*
X134150628Y-54049372D01*
X134144862Y-54043009D01*
X134139746Y-54036112D01*
X134135332Y-54028747D01*
X134131661Y-54020985D01*
X134128768Y-54012900D01*
X134126681Y-54004570D01*
X134125421Y-53996076D01*
X134125000Y-53987500D01*
X134125000Y-53412500D01*
X134125421Y-53403924D01*
X134126681Y-53395430D01*
X134128768Y-53387100D01*
X134131661Y-53379015D01*
X134135332Y-53371253D01*
X134139746Y-53363888D01*
X134144862Y-53356991D01*
X134150628Y-53350628D01*
X134156991Y-53344862D01*
X134163888Y-53339746D01*
X134171253Y-53335332D01*
X134179015Y-53331661D01*
X134187100Y-53328768D01*
X134195430Y-53326681D01*
X134203924Y-53325421D01*
X134212500Y-53325000D01*
X134387500Y-53325000D01*
X134396076Y-53325421D01*
X134396076Y-53325421D01*
G37*
D15*
%TD*%
%TO.P,IC1,3*%
%TO.N,SDA*%
X134300000Y-53700000D03*
D12*
%TO.N,SCL*%
%TO.C,IC1*%
G36*
X135196076Y-53325421D02*
G01*
X135204570Y-53326681D01*
X135212900Y-53328768D01*
X135220985Y-53331661D01*
X135228747Y-53335332D01*
X135236112Y-53339746D01*
X135243009Y-53344862D01*
X135249372Y-53350628D01*
X135255138Y-53356991D01*
X135260254Y-53363888D01*
X135264668Y-53371253D01*
X135268339Y-53379015D01*
X135271232Y-53387100D01*
X135273319Y-53395430D01*
X135274579Y-53403924D01*
X135275000Y-53412500D01*
X135275000Y-53987500D01*
X135274579Y-53996076D01*
X135273319Y-54004570D01*
X135271232Y-54012900D01*
X135268339Y-54020985D01*
X135264668Y-54028747D01*
X135260254Y-54036112D01*
X135255138Y-54043009D01*
X135249372Y-54049372D01*
X135243009Y-54055138D01*
X135236112Y-54060254D01*
X135228747Y-54064668D01*
X135220985Y-54068339D01*
X135212900Y-54071232D01*
X135204570Y-54073319D01*
X135196076Y-54074579D01*
X135187500Y-54075000D01*
X135012500Y-54075000D01*
X135003924Y-54074579D01*
X134995430Y-54073319D01*
X134987100Y-54071232D01*
X134979015Y-54068339D01*
X134971253Y-54064668D01*
X134963888Y-54060254D01*
X134956991Y-54055138D01*
X134950628Y-54049372D01*
X134944862Y-54043009D01*
X134939746Y-54036112D01*
X134935332Y-54028747D01*
X134931661Y-54020985D01*
X134928768Y-54012900D01*
X134926681Y-54004570D01*
X134925421Y-53996076D01*
X134925000Y-53987500D01*
X134925000Y-53412500D01*
X134925421Y-53403924D01*
X134926681Y-53395430D01*
X134928768Y-53387100D01*
X134931661Y-53379015D01*
X134935332Y-53371253D01*
X134939746Y-53363888D01*
X134944862Y-53356991D01*
X134950628Y-53350628D01*
X134956991Y-53344862D01*
X134963888Y-53339746D01*
X134971253Y-53335332D01*
X134979015Y-53331661D01*
X134987100Y-53328768D01*
X134995430Y-53326681D01*
X135003924Y-53325421D01*
X135012500Y-53325000D01*
X135187500Y-53325000D01*
X135196076Y-53325421D01*
X135196076Y-53325421D01*
G37*
D15*
%TD*%
%TO.P,IC1,2*%
%TO.N,SCL*%
X135100000Y-53700000D03*
D12*
%TO.N,Net-(IC1-Pad1)*%
%TO.C,IC1*%
G36*
X135996076Y-53325421D02*
G01*
X136004570Y-53326681D01*
X136012900Y-53328768D01*
X136020985Y-53331661D01*
X136028747Y-53335332D01*
X136036112Y-53339746D01*
X136043009Y-53344862D01*
X136049372Y-53350628D01*
X136055138Y-53356991D01*
X136060254Y-53363888D01*
X136064668Y-53371253D01*
X136068339Y-53379015D01*
X136071232Y-53387100D01*
X136073319Y-53395430D01*
X136074579Y-53403924D01*
X136075000Y-53412500D01*
X136075000Y-53987500D01*
X136074579Y-53996076D01*
X136073319Y-54004570D01*
X136071232Y-54012900D01*
X136068339Y-54020985D01*
X136064668Y-54028747D01*
X136060254Y-54036112D01*
X136055138Y-54043009D01*
X136049372Y-54049372D01*
X136043009Y-54055138D01*
X136036112Y-54060254D01*
X136028747Y-54064668D01*
X136020985Y-54068339D01*
X136012900Y-54071232D01*
X136004570Y-54073319D01*
X135996076Y-54074579D01*
X135987500Y-54075000D01*
X135812500Y-54075000D01*
X135803924Y-54074579D01*
X135795430Y-54073319D01*
X135787100Y-54071232D01*
X135779015Y-54068339D01*
X135771253Y-54064668D01*
X135763888Y-54060254D01*
X135756991Y-54055138D01*
X135750628Y-54049372D01*
X135744862Y-54043009D01*
X135739746Y-54036112D01*
X135735332Y-54028747D01*
X135731661Y-54020985D01*
X135728768Y-54012900D01*
X135726681Y-54004570D01*
X135725421Y-53996076D01*
X135725000Y-53987500D01*
X135725000Y-53412500D01*
X135725421Y-53403924D01*
X135726681Y-53395430D01*
X135728768Y-53387100D01*
X135731661Y-53379015D01*
X135735332Y-53371253D01*
X135739746Y-53363888D01*
X135744862Y-53356991D01*
X135750628Y-53350628D01*
X135756991Y-53344862D01*
X135763888Y-53339746D01*
X135771253Y-53335332D01*
X135779015Y-53331661D01*
X135787100Y-53328768D01*
X135795430Y-53326681D01*
X135803924Y-53325421D01*
X135812500Y-53325000D01*
X135987500Y-53325000D01*
X135996076Y-53325421D01*
X135996076Y-53325421D01*
G37*
D15*
%TD*%
%TO.P,IC1,1*%
%TO.N,Net-(IC1-Pad1)*%
X135900000Y-53700000D03*
D16*
%TO.P,J6,4*%
%TO.N,GND*%
X148500000Y-34750000D03*
%TO.P,J6,3*%
%TO.N,SDA*%
X148500000Y-37250000D03*
%TO.P,J6,2*%
%TO.N,SCL*%
X148500000Y-39750000D03*
%TO.P,J6,1*%
%TO.N,+3V3*%
X148500000Y-42250000D03*
%TD*%
D14*
%TO.P,TP10,1*%
%TO.N,GND*%
X127500000Y-52000000D03*
%TD*%
%TO.P,TP14,1*%
%TO.N,+3V3*%
X139500000Y-52000000D03*
%TD*%
%TO.P,TP1,1*%
%TO.N,Net-(R2-Pad2)*%
X145500000Y-44500000D03*
%TD*%
%TO.P,TP2,1*%
%TO.N,Net-(TP2-Pad1)*%
X147500000Y-32500000D03*
%TD*%
%TO.P,TP3,1*%
%TO.N,Net-(TP3-Pad1)*%
X145500000Y-30500000D03*
%TD*%
%TO.P,TP4,1*%
%TO.N,Net-(R7-Pad1)*%
X145500000Y-46500000D03*
%TD*%
%TO.P,TP5,1*%
%TO.N,Net-(TP5-Pad1)*%
X147500000Y-30500000D03*
%TD*%
%TO.P,TP6,1*%
%TO.N,Net-(TP6-Pad1)*%
X145500000Y-32500000D03*
%TD*%
%TO.P,TP7,1*%
%TO.N,Net-(R8-Pad2)*%
X147500000Y-46500000D03*
%TD*%
%TO.P,TP8,1*%
%TO.N,Net-(TP8-Pad1)*%
X147500000Y-44500000D03*
%TD*%
%TO.P,TP9,1*%
%TO.N,Net-(TP9-Pad1)*%
X145500000Y-48500000D03*
%TD*%
D17*
%TO.P,BT1,2*%
%TO.N,GND*%
X144207107Y-50500000D03*
D18*
%TD*%
%TO.N,GND*%
%TO.C,BT1*%
X144207107Y-50500000D02*
X144207107Y-50500000D01*
D17*
%TO.P,BT1,1*%
%TO.N,Net-(BT1-Pad1)*%
X143500000Y-51207107D03*
D12*
%TD*%
%TO.N,Net-(BT1-Pad1)*%
%TO.C,BT1*%
G36*
X144101041Y-51207107D02*
G01*
X143500000Y-51808148D01*
X142898959Y-51207107D01*
X143500000Y-50606066D01*
X144101041Y-51207107D01*
X144101041Y-51207107D01*
G37*
D19*
%TO.P,BZ1,2*%
%TO.N,Net-(BZ1-Pad2)*%
X120000000Y-45000000D03*
%TO.P,BZ1,1*%
%TO.N,GND*%
X120000000Y-32000000D03*
%TD*%
D20*
%TO.N,GND*%
X134200000Y-36600000D03*
X134700000Y-37100000D03*
X133700000Y-36100000D03*
X134700000Y-36600000D03*
X134200000Y-36100000D03*
X134700000Y-36100000D03*
X130900000Y-40400000D03*
X130300000Y-39900000D03*
X130300000Y-40500000D03*
X127500000Y-52000000D03*
X118120000Y-32000000D03*
X118120000Y-45000000D03*
X128000000Y-47000000D03*
X146500000Y-44500000D03*
X146500000Y-38500000D03*
X146500000Y-34500000D03*
X141000000Y-31000000D03*
X126000000Y-30500000D03*
X132000000Y-36500000D03*
X146750000Y-47750000D03*
X131250000Y-55010010D03*
X136000000Y-55010010D03*
X123500000Y-28000000D03*
%TO.N,+3V3*%
X141500000Y-52750000D03*
X141490000Y-49500000D03*
X146750000Y-42500000D03*
X144500000Y-37500000D03*
X146750000Y-36000000D03*
X149250000Y-31750000D03*
X131450000Y-52800000D03*
X123500000Y-51750000D03*
X128750000Y-32000000D03*
X118500000Y-30750000D03*
X150500000Y-40500000D03*
X137450000Y-52800000D03*
%TO.N,SDA*%
X149500000Y-37500000D03*
X136500000Y-54500000D03*
%TO.N,SCL*%
X148500000Y-39750000D03*
X135000000Y-46000000D03*
%TO.N,Net-(R4-Pad1)*%
X129000000Y-42000000D03*
X124000000Y-37000000D03*
%TO.N,Net-(R5-Pad1)*%
X140000000Y-45500000D03*
X134500000Y-52500000D03*
%TO.N,Net-(D2-Pad2)*%
X124500000Y-52000000D03*
%TO.N,Net-(J3-Pad9)*%
X126500000Y-41000000D03*
X123474228Y-32025772D03*
%TO.N,Net-(J3-Pad8)*%
X126500000Y-39500000D03*
X123500000Y-31500000D03*
%TO.N,Net-(J3-Pad7)*%
X126500000Y-44500000D03*
X119250000Y-30500000D03*
%TO.N,Net-(J3-Pad6)*%
X126500000Y-43500000D03*
X121500000Y-30500000D03*
%TO.N,Net-(J3-Pad5)*%
X126500000Y-42000000D03*
X123500000Y-30000000D03*
%TO.N,Net-(IC1-Pad13)*%
X143000000Y-50000000D03*
%TO.N,Net-(R2-Pad2)*%
X144000000Y-43500000D03*
%TO.N,Net-(R2-Pad1)*%
X123000000Y-46000000D03*
X143500000Y-46500000D03*
%TO.N,Net-(R7-Pad1)*%
X143500000Y-47500000D03*
X147250000Y-48250000D03*
%TO.N,Net-(R8-Pad2)*%
X140500000Y-48500000D03*
X123500000Y-50000000D03*
%TO.N,Net-(TP8-Pad1)*%
X140500000Y-35000000D03*
%TO.N,Net-(TP9-Pad1)*%
X137000000Y-38500000D03*
%TO.N,Net-(TP6-Pad1)*%
X138000000Y-46000000D03*
%TO.N,Net-(TP5-Pad1)*%
X129000000Y-46500000D03*
%TO.N,Net-(TP2-Pad1)*%
X126500000Y-47000000D03*
%TO.N,Net-(TP3-Pad1)*%
X127000000Y-46000000D03*
%TO.N,Net-(BZ1-Pad2)*%
X125000000Y-34555000D03*
%TO.N,Net-(BT1-Pad1)*%
X144000000Y-41500000D03*
X145550000Y-45310000D03*
%TD*%
D21*
%TO.N,GND*%
X146750000Y-34750000D02*
X148500000Y-34750000D01*
X146500000Y-34500000D02*
X146750000Y-34750000D01*
X132189990Y-55010010D02*
X131250000Y-55010010D01*
X133500000Y-53700000D02*
X132189990Y-55010010D01*
X133500000Y-52100000D02*
X133500000Y-53700000D01*
X134300000Y-51300000D02*
X133500000Y-52100000D01*
X120000000Y-32000000D02*
X118120000Y-32000000D01*
X118120000Y-45440000D02*
X118120000Y-45000000D01*
X119400000Y-46720000D02*
X118120000Y-45440000D01*
X120825000Y-47550000D02*
X120437500Y-47550000D01*
X120950000Y-47425000D02*
X120825000Y-47550000D01*
X120950000Y-47037500D02*
X120950000Y-47425000D01*
X119723442Y-46396558D02*
X119400000Y-46720000D01*
X120513560Y-46396558D02*
X119723442Y-46396558D01*
X120950000Y-46832998D02*
X120513560Y-46396558D01*
X120950000Y-47037500D02*
X120950000Y-46832998D01*
%TO.N,+3V3*%
X132700000Y-51300000D02*
X131900000Y-51300000D01*
X131900000Y-52350000D02*
X131450000Y-52800000D01*
X131900000Y-51300000D02*
X131900000Y-52350000D01*
X131450000Y-52550000D02*
X131450000Y-52800000D01*
X132700000Y-51300000D02*
X131450000Y-52550000D01*
X147000000Y-42250000D02*
X146750000Y-42500000D01*
X148500000Y-42250000D02*
X147000000Y-42250000D01*
X140750000Y-52000000D02*
X141500000Y-52750000D01*
X139500000Y-52000000D02*
X140750000Y-52000000D01*
X137450000Y-52750000D02*
X137450000Y-52800000D01*
X138200000Y-52000000D02*
X137450000Y-52750000D01*
X139500000Y-52000000D02*
X138200000Y-52000000D01*
X121450000Y-47037500D02*
X121950000Y-47037500D01*
X121450000Y-47037500D02*
X121450000Y-48562500D01*
X121450000Y-48562500D02*
X120950000Y-48562500D01*
X121450000Y-49700000D02*
X123500000Y-51750000D01*
X121450000Y-47037500D02*
X121450000Y-49700000D01*
%TO.N,SDA*%
X135100000Y-54500000D02*
X136500000Y-54500000D01*
X134300000Y-53700000D02*
X135100000Y-54500000D01*
X130900011Y-55400011D02*
X131000000Y-55500000D01*
X133400000Y-55500000D02*
X134300000Y-54600000D01*
X128300000Y-53000000D02*
X130700011Y-55400011D01*
X134300000Y-54600000D02*
X134300000Y-53700000D01*
X130700011Y-55400011D02*
X130900011Y-55400011D01*
X124172798Y-53000000D02*
X128300000Y-53000000D01*
X131000000Y-55500000D02*
X133400000Y-55500000D01*
X120450000Y-49277202D02*
X124172798Y-53000000D01*
X120450000Y-48562500D02*
X120450000Y-49277202D01*
%TO.N,SCL*%
X135100000Y-52067460D02*
X134734990Y-51702450D01*
X134734990Y-46265010D02*
X135000000Y-46000000D01*
X135100000Y-53700000D02*
X135100000Y-52067460D01*
X122362500Y-48600000D02*
X134734990Y-48600000D01*
X122325000Y-48562500D02*
X122362500Y-48600000D01*
X121950000Y-48562500D02*
X122325000Y-48562500D01*
X134734990Y-48600000D02*
X134734990Y-46265010D01*
X134734990Y-51702450D02*
X134734990Y-48600000D01*
%TO.N,Net-(R4-Pad1)*%
X129000000Y-42000000D02*
X129000000Y-37500000D01*
X128500000Y-37000000D02*
X124000000Y-37000000D01*
X129000000Y-37500000D02*
X128500000Y-37000000D01*
%TO.N,Net-(D2-Pad2)*%
X125765010Y-50734990D02*
X124500000Y-52000000D01*
X132934990Y-50734990D02*
X125765010Y-50734990D01*
X133500000Y-51300000D02*
X132934990Y-50734990D01*
%TO.N,Net-(IC1-Pad13)*%
X136400000Y-50000000D02*
X143000000Y-50000000D01*
X135100000Y-51300000D02*
X136400000Y-50000000D01*
%TO.N,Net-(R2-Pad2)*%
X145200000Y-43500000D02*
X144000000Y-43500000D01*
X145500000Y-43800000D02*
X145200000Y-43500000D01*
X145500000Y-44500000D02*
X145500000Y-43800000D01*
%TO.N,Net-(R7-Pad1)*%
X144500000Y-46500000D02*
X143500000Y-47500000D01*
X145500000Y-46500000D02*
X144500000Y-46500000D01*
X143782842Y-47500000D02*
X143500000Y-47500000D01*
X146792001Y-48449999D02*
X145842002Y-47500000D01*
X145842002Y-47500000D02*
X143782842Y-47500000D01*
X147050001Y-48449999D02*
X146792001Y-48449999D01*
X147250000Y-48250000D02*
X147050001Y-48449999D01*
%TO.N,Net-(R8-Pad2)*%
X143190001Y-45809999D02*
X140500000Y-48500000D01*
X146109999Y-45809999D02*
X143190001Y-45809999D01*
X146800000Y-46500000D02*
X146109999Y-45809999D01*
X147500000Y-46500000D02*
X146800000Y-46500000D01*
%TO.N,Net-(TP8-Pad1)*%
X137609999Y-37890001D02*
X140500000Y-35000000D01*
X137609999Y-46187201D02*
X137609999Y-37890001D01*
X137812799Y-46390001D02*
X137609999Y-46187201D01*
X140520135Y-46390001D02*
X137812799Y-46390001D01*
X144955068Y-41955068D02*
X140520135Y-46390001D01*
X147500000Y-44500000D02*
X144955068Y-41955068D01*
%TO.N,Net-(TP9-Pad1)*%
X137000000Y-45987338D02*
X137000000Y-38500000D01*
X139902663Y-48890001D02*
X137000000Y-45987338D01*
X144409999Y-48890001D02*
X139902663Y-48890001D01*
X144800000Y-48500000D02*
X144409999Y-48890001D01*
X145500000Y-48500000D02*
X144800000Y-48500000D01*
%TO.N,Net-(TP6-Pad1)*%
X145500000Y-38500000D02*
X138000000Y-46000000D01*
X145500000Y-32500000D02*
X145500000Y-38500000D01*
%TO.N,Net-(TP5-Pad1)*%
X148152001Y-33190001D02*
X146847999Y-33190001D01*
X148190001Y-31890001D02*
X148190001Y-33152001D01*
X147500000Y-31200000D02*
X148190001Y-31890001D01*
X146847999Y-33190001D02*
X146500000Y-32842002D01*
X148190001Y-33152001D02*
X148152001Y-33190001D01*
X147500000Y-30500000D02*
X147500000Y-31200000D01*
X146500000Y-32842002D02*
X146500000Y-32157998D01*
X146152001Y-31809999D02*
X142690001Y-31809999D01*
X146500000Y-32157998D02*
X146152001Y-31809999D01*
X129000000Y-45500000D02*
X129000000Y-46500000D01*
X142690001Y-31809999D02*
X129000000Y-45500000D01*
%TO.N,Net-(TP2-Pad1)*%
X126577202Y-47000000D02*
X126500000Y-47000000D01*
X146690001Y-31190001D02*
X142387201Y-31190001D01*
X142387201Y-31190001D02*
X126577202Y-47000000D01*
X146800000Y-31300000D02*
X146690001Y-31190001D01*
X146800000Y-32500000D02*
X146800000Y-31300000D01*
X147500000Y-32500000D02*
X146800000Y-32500000D01*
%TO.N,Net-(TP3-Pad1)*%
X142500000Y-30500000D02*
X127000000Y-46000000D01*
X145500000Y-30500000D02*
X142500000Y-30500000D01*
%TO.N,Net-(BZ1-Pad2)*%
X120000000Y-39555000D02*
X125000000Y-34555000D01*
X120000000Y-45000000D02*
X120000000Y-39555000D01*
%TO.N,Net-(BT1-Pad1)*%
X145200000Y-41500000D02*
X144000000Y-41500000D01*
X145500000Y-41200000D02*
X145200000Y-41500000D01*
X145500000Y-40500000D02*
X145500000Y-41200000D01*
%TO.N,Net-(C4-Pad2)*%
X119770000Y-48050000D02*
X119400000Y-47680000D01*
X120437500Y-48050000D02*
X119770000Y-48050000D01*
%TD*%
M02*
