%TF.GenerationSoftware,KiCad,Pcbnew,(6.0.0-rc1-dev-1546-g786ee0e)*%
%TF.CreationDate,2021-05-18T14:47:40-07:00*%
%TF.ProjectId,MainBoard,4d61696e-426f-4617-9264-2e6b69636164,rev?*%
%TF.SameCoordinates,Original*%
%TF.FileFunction,Copper,L1,Top*%
%TF.FilePolarity,Positive*%
%FSLAX46Y46*%
G04 Gerber Fmt 4.6, Leading zero omitted, Abs format (unit mm)*
G04 Created by KiCad (PCBNEW (6.0.0-rc1-dev-1546-g786ee0e)) date Tue 18 May 2021 02:47:40 PM PDT*
%MOMM*%
%LPD*%
G04 APERTURE LIST*
%TA.AperFunction,SMDPad,CuDef*%
%ADD10R,2.000000X0.900000*%
%TD*%
%TA.AperFunction,SMDPad,CuDef*%
%ADD11R,0.900000X2.000000*%
%TD*%
%TA.AperFunction,SMDPad,CuDef*%
%ADD12R,5.000000X5.000000*%
%TD*%
%TA.AperFunction,Conductor*%
%ADD13C,0.100000*%
%TD*%
%TA.AperFunction,SMDPad,CuDef*%
%ADD14C,0.590000*%
%TD*%
%TA.AperFunction,SMDPad,CuDef*%
%ADD15C,0.560000*%
%TD*%
%TA.AperFunction,SMDPad,CuDef*%
%ADD16R,3.150000X0.350000*%
%TD*%
%TA.AperFunction,SMDPad,CuDef*%
%ADD17R,1.700000X0.550000*%
%TD*%
%TA.AperFunction,SMDPad,CuDef*%
%ADD18R,0.900000X1.000000*%
%TD*%
%TA.AperFunction,SMDPad,CuDef*%
%ADD19C,0.540000*%
%TD*%
%TA.AperFunction,SMDPad,CuDef*%
%ADD20R,0.650000X1.220000*%
%TD*%
%TA.AperFunction,SMDPad,CuDef*%
%ADD21R,1.000000X1.500000*%
%TD*%
%TA.AperFunction,ComponentPad*%
%ADD22C,0.850000*%
%TD*%
%TA.AperFunction,Conductor*%
%ADD23C,0.850000*%
%TD*%
%TA.AperFunction,SMDPad,CuDef*%
%ADD24C,0.875000*%
%TD*%
%TA.AperFunction,ViaPad*%
%ADD25C,0.400000*%
%TD*%
%TA.AperFunction,Conductor*%
%ADD26C,0.200000*%
%TD*%
%TA.AperFunction,Conductor*%
%ADD27C,0.500000*%
%TD*%
%TA.AperFunction,Conductor*%
%ADD28C,1.000000*%
%TD*%
G04 APERTURE END LIST*
D10*
%TO.P,U1,38*%
%TO.N,GND*%
X142000000Y-30745000D03*
%TO.P,U1,37*%
%TO.N,SPI1-MOSI*%
X142000000Y-32015000D03*
%TO.P,U1,36*%
%TO.N,SCL*%
X142000000Y-33285000D03*
%TO.P,U1,35*%
%TO.N,Net-(TP8-Pad1)*%
X142000000Y-34555000D03*
%TO.P,U1,34*%
%TO.N,Net-(TP9-Pad1)*%
X142000000Y-35825000D03*
%TO.P,U1,33*%
%TO.N,SDA*%
X142000000Y-37095000D03*
%TO.P,U1,32*%
%TO.N,Net-(U1-Pad32)*%
X142000000Y-38365000D03*
%TO.P,U1,31*%
%TO.N,SPI1-MISO*%
X142000000Y-39635000D03*
%TO.P,U1,30*%
%TO.N,SPI1-SCK*%
X142000000Y-40905000D03*
%TO.P,U1,29*%
%TO.N,Net-(U1-Pad29)*%
X142000000Y-42175000D03*
%TO.P,U1,28*%
%TO.N,Net-(U1-Pad28)*%
X142000000Y-43445000D03*
%TO.P,U1,27*%
%TO.N,Net-(U1-Pad27)*%
X142000000Y-44715000D03*
%TO.P,U1,26*%
%TO.N,Net-(R5-Pad1)*%
X142000000Y-45985000D03*
%TO.P,U1,25*%
%TO.N,Net-(R7-Pad1)*%
X142000000Y-47255000D03*
D11*
%TO.P,U1,24*%
%TO.N,Net-(R8-Pad2)*%
X139215000Y-48255000D03*
%TO.P,U1,23*%
%TO.N,Net-(TP6-Pad1)*%
X137945000Y-48255000D03*
%TO.P,U1,22*%
%TO.N,Net-(U1-Pad22)*%
X136675000Y-48255000D03*
%TO.P,U1,21*%
%TO.N,Net-(U1-Pad21)*%
X135405000Y-48255000D03*
%TO.P,U1,20*%
%TO.N,Net-(U1-Pad20)*%
X134135000Y-48255000D03*
%TO.P,U1,19*%
%TO.N,Net-(U1-Pad19)*%
X132865000Y-48255000D03*
%TO.P,U1,18*%
%TO.N,Net-(U1-Pad18)*%
X131595000Y-48255000D03*
%TO.P,U1,17*%
%TO.N,Net-(U1-Pad17)*%
X130325000Y-48255000D03*
%TO.P,U1,16*%
%TO.N,Net-(TP5-Pad1)*%
X129055000Y-48255000D03*
%TO.P,U1,15*%
%TO.N,GND*%
X127785000Y-48255000D03*
D10*
%TO.P,U1,14*%
%TO.N,Net-(TP2-Pad1)*%
X125000000Y-47255000D03*
%TO.P,U1,13*%
%TO.N,Net-(TP3-Pad1)*%
X125000000Y-45985000D03*
%TO.P,U1,12*%
%TO.N,Net-(J3-Pad7)*%
X125000000Y-44715000D03*
%TO.P,U1,11*%
%TO.N,Net-(J3-Pad6)*%
X125000000Y-43445000D03*
%TO.P,U1,10*%
%TO.N,Net-(J3-Pad5)*%
X125000000Y-42175000D03*
%TO.P,U1,9*%
%TO.N,Net-(J3-Pad9)*%
X125000000Y-40905000D03*
%TO.P,U1,8*%
%TO.N,Net-(J3-Pad8)*%
X125000000Y-39635000D03*
%TO.P,U1,7*%
%TO.N,Net-(R3-Pad1)*%
X125000000Y-38365000D03*
%TO.P,U1,6*%
%TO.N,Net-(R4-Pad1)*%
X125000000Y-37095000D03*
%TO.P,U1,5*%
%TO.N,+3V3*%
X125000000Y-35825000D03*
%TO.P,U1,4*%
%TO.N,Net-(BZ1-Pad2)*%
X125000000Y-34555000D03*
%TO.P,U1,3*%
%TO.N,Net-(R2-Pad1)*%
X125000000Y-33285000D03*
%TO.P,U1,2*%
%TO.N,+3V3*%
X125000000Y-32015000D03*
%TO.P,U1,1*%
%TO.N,GND*%
X125000000Y-30745000D03*
D12*
%TO.P,U1,39*%
X132500000Y-38245000D03*
%TD*%
D13*
%TO.N,GND*%
%TO.C,D1*%
G36*
X116796958Y-36180710D02*
G01*
X116811276Y-36182834D01*
X116825317Y-36186351D01*
X116838946Y-36191228D01*
X116852031Y-36197417D01*
X116864447Y-36204858D01*
X116876073Y-36213481D01*
X116886798Y-36223202D01*
X116896519Y-36233927D01*
X116905142Y-36245553D01*
X116912583Y-36257969D01*
X116918772Y-36271054D01*
X116923649Y-36284683D01*
X116927166Y-36298724D01*
X116929290Y-36313042D01*
X116930000Y-36327500D01*
X116930000Y-36672500D01*
X116929290Y-36686958D01*
X116927166Y-36701276D01*
X116923649Y-36715317D01*
X116918772Y-36728946D01*
X116912583Y-36742031D01*
X116905142Y-36754447D01*
X116896519Y-36766073D01*
X116886798Y-36776798D01*
X116876073Y-36786519D01*
X116864447Y-36795142D01*
X116852031Y-36802583D01*
X116838946Y-36808772D01*
X116825317Y-36813649D01*
X116811276Y-36817166D01*
X116796958Y-36819290D01*
X116782500Y-36820000D01*
X116487500Y-36820000D01*
X116473042Y-36819290D01*
X116458724Y-36817166D01*
X116444683Y-36813649D01*
X116431054Y-36808772D01*
X116417969Y-36802583D01*
X116405553Y-36795142D01*
X116393927Y-36786519D01*
X116383202Y-36776798D01*
X116373481Y-36766073D01*
X116364858Y-36754447D01*
X116357417Y-36742031D01*
X116351228Y-36728946D01*
X116346351Y-36715317D01*
X116342834Y-36701276D01*
X116340710Y-36686958D01*
X116340000Y-36672500D01*
X116340000Y-36327500D01*
X116340710Y-36313042D01*
X116342834Y-36298724D01*
X116346351Y-36284683D01*
X116351228Y-36271054D01*
X116357417Y-36257969D01*
X116364858Y-36245553D01*
X116373481Y-36233927D01*
X116383202Y-36223202D01*
X116393927Y-36213481D01*
X116405553Y-36204858D01*
X116417969Y-36197417D01*
X116431054Y-36191228D01*
X116444683Y-36186351D01*
X116458724Y-36182834D01*
X116473042Y-36180710D01*
X116487500Y-36180000D01*
X116782500Y-36180000D01*
X116796958Y-36180710D01*
X116796958Y-36180710D01*
G37*
D14*
%TD*%
%TO.P,D1,2*%
%TO.N,GND*%
X116635000Y-36500000D03*
D13*
%TO.N,Net-(D1-Pad1)*%
%TO.C,D1*%
G36*
X117766958Y-36180710D02*
G01*
X117781276Y-36182834D01*
X117795317Y-36186351D01*
X117808946Y-36191228D01*
X117822031Y-36197417D01*
X117834447Y-36204858D01*
X117846073Y-36213481D01*
X117856798Y-36223202D01*
X117866519Y-36233927D01*
X117875142Y-36245553D01*
X117882583Y-36257969D01*
X117888772Y-36271054D01*
X117893649Y-36284683D01*
X117897166Y-36298724D01*
X117899290Y-36313042D01*
X117900000Y-36327500D01*
X117900000Y-36672500D01*
X117899290Y-36686958D01*
X117897166Y-36701276D01*
X117893649Y-36715317D01*
X117888772Y-36728946D01*
X117882583Y-36742031D01*
X117875142Y-36754447D01*
X117866519Y-36766073D01*
X117856798Y-36776798D01*
X117846073Y-36786519D01*
X117834447Y-36795142D01*
X117822031Y-36802583D01*
X117808946Y-36808772D01*
X117795317Y-36813649D01*
X117781276Y-36817166D01*
X117766958Y-36819290D01*
X117752500Y-36820000D01*
X117457500Y-36820000D01*
X117443042Y-36819290D01*
X117428724Y-36817166D01*
X117414683Y-36813649D01*
X117401054Y-36808772D01*
X117387969Y-36802583D01*
X117375553Y-36795142D01*
X117363927Y-36786519D01*
X117353202Y-36776798D01*
X117343481Y-36766073D01*
X117334858Y-36754447D01*
X117327417Y-36742031D01*
X117321228Y-36728946D01*
X117316351Y-36715317D01*
X117312834Y-36701276D01*
X117310710Y-36686958D01*
X117310000Y-36672500D01*
X117310000Y-36327500D01*
X117310710Y-36313042D01*
X117312834Y-36298724D01*
X117316351Y-36284683D01*
X117321228Y-36271054D01*
X117327417Y-36257969D01*
X117334858Y-36245553D01*
X117343481Y-36233927D01*
X117353202Y-36223202D01*
X117363927Y-36213481D01*
X117375553Y-36204858D01*
X117387969Y-36197417D01*
X117401054Y-36191228D01*
X117414683Y-36186351D01*
X117428724Y-36182834D01*
X117443042Y-36180710D01*
X117457500Y-36180000D01*
X117752500Y-36180000D01*
X117766958Y-36180710D01*
X117766958Y-36180710D01*
G37*
D14*
%TD*%
%TO.P,D1,1*%
%TO.N,Net-(D1-Pad1)*%
X117605000Y-36500000D03*
D13*
%TO.N,Net-(C20-Pad2)*%
%TO.C,C20*%
G36*
X117193722Y-42190674D02*
G01*
X117207313Y-42192690D01*
X117220640Y-42196028D01*
X117233576Y-42200657D01*
X117245996Y-42206531D01*
X117257780Y-42213594D01*
X117268815Y-42221779D01*
X117278995Y-42231005D01*
X117288221Y-42241185D01*
X117296406Y-42252220D01*
X117303469Y-42264004D01*
X117309343Y-42276424D01*
X117313972Y-42289360D01*
X117317310Y-42302687D01*
X117319326Y-42316278D01*
X117320000Y-42330000D01*
X117320000Y-42670000D01*
X117319326Y-42683722D01*
X117317310Y-42697313D01*
X117313972Y-42710640D01*
X117309343Y-42723576D01*
X117303469Y-42735996D01*
X117296406Y-42747780D01*
X117288221Y-42758815D01*
X117278995Y-42768995D01*
X117268815Y-42778221D01*
X117257780Y-42786406D01*
X117245996Y-42793469D01*
X117233576Y-42799343D01*
X117220640Y-42803972D01*
X117207313Y-42807310D01*
X117193722Y-42809326D01*
X117180000Y-42810000D01*
X116900000Y-42810000D01*
X116886278Y-42809326D01*
X116872687Y-42807310D01*
X116859360Y-42803972D01*
X116846424Y-42799343D01*
X116834004Y-42793469D01*
X116822220Y-42786406D01*
X116811185Y-42778221D01*
X116801005Y-42768995D01*
X116791779Y-42758815D01*
X116783594Y-42747780D01*
X116776531Y-42735996D01*
X116770657Y-42723576D01*
X116766028Y-42710640D01*
X116762690Y-42697313D01*
X116760674Y-42683722D01*
X116760000Y-42670000D01*
X116760000Y-42330000D01*
X116760674Y-42316278D01*
X116762690Y-42302687D01*
X116766028Y-42289360D01*
X116770657Y-42276424D01*
X116776531Y-42264004D01*
X116783594Y-42252220D01*
X116791779Y-42241185D01*
X116801005Y-42231005D01*
X116811185Y-42221779D01*
X116822220Y-42213594D01*
X116834004Y-42206531D01*
X116846424Y-42200657D01*
X116859360Y-42196028D01*
X116872687Y-42192690D01*
X116886278Y-42190674D01*
X116900000Y-42190000D01*
X117180000Y-42190000D01*
X117193722Y-42190674D01*
X117193722Y-42190674D01*
G37*
D15*
%TD*%
%TO.P,C20,2*%
%TO.N,Net-(C20-Pad2)*%
X117040000Y-42500000D03*
D13*
%TO.N,Net-(C20-Pad1)*%
%TO.C,C20*%
G36*
X118153722Y-42190674D02*
G01*
X118167313Y-42192690D01*
X118180640Y-42196028D01*
X118193576Y-42200657D01*
X118205996Y-42206531D01*
X118217780Y-42213594D01*
X118228815Y-42221779D01*
X118238995Y-42231005D01*
X118248221Y-42241185D01*
X118256406Y-42252220D01*
X118263469Y-42264004D01*
X118269343Y-42276424D01*
X118273972Y-42289360D01*
X118277310Y-42302687D01*
X118279326Y-42316278D01*
X118280000Y-42330000D01*
X118280000Y-42670000D01*
X118279326Y-42683722D01*
X118277310Y-42697313D01*
X118273972Y-42710640D01*
X118269343Y-42723576D01*
X118263469Y-42735996D01*
X118256406Y-42747780D01*
X118248221Y-42758815D01*
X118238995Y-42768995D01*
X118228815Y-42778221D01*
X118217780Y-42786406D01*
X118205996Y-42793469D01*
X118193576Y-42799343D01*
X118180640Y-42803972D01*
X118167313Y-42807310D01*
X118153722Y-42809326D01*
X118140000Y-42810000D01*
X117860000Y-42810000D01*
X117846278Y-42809326D01*
X117832687Y-42807310D01*
X117819360Y-42803972D01*
X117806424Y-42799343D01*
X117794004Y-42793469D01*
X117782220Y-42786406D01*
X117771185Y-42778221D01*
X117761005Y-42768995D01*
X117751779Y-42758815D01*
X117743594Y-42747780D01*
X117736531Y-42735996D01*
X117730657Y-42723576D01*
X117726028Y-42710640D01*
X117722690Y-42697313D01*
X117720674Y-42683722D01*
X117720000Y-42670000D01*
X117720000Y-42330000D01*
X117720674Y-42316278D01*
X117722690Y-42302687D01*
X117726028Y-42289360D01*
X117730657Y-42276424D01*
X117736531Y-42264004D01*
X117743594Y-42252220D01*
X117751779Y-42241185D01*
X117761005Y-42231005D01*
X117771185Y-42221779D01*
X117782220Y-42213594D01*
X117794004Y-42206531D01*
X117806424Y-42200657D01*
X117819360Y-42196028D01*
X117832687Y-42192690D01*
X117846278Y-42190674D01*
X117860000Y-42190000D01*
X118140000Y-42190000D01*
X118153722Y-42190674D01*
X118153722Y-42190674D01*
G37*
D15*
%TD*%
%TO.P,C20,1*%
%TO.N,Net-(C20-Pad1)*%
X118000000Y-42500000D03*
D13*
%TO.N,Net-(C19-Pad2)*%
%TO.C,C19*%
G36*
X116993722Y-41190674D02*
G01*
X117007313Y-41192690D01*
X117020640Y-41196028D01*
X117033576Y-41200657D01*
X117045996Y-41206531D01*
X117057780Y-41213594D01*
X117068815Y-41221779D01*
X117078995Y-41231005D01*
X117088221Y-41241185D01*
X117096406Y-41252220D01*
X117103469Y-41264004D01*
X117109343Y-41276424D01*
X117113972Y-41289360D01*
X117117310Y-41302687D01*
X117119326Y-41316278D01*
X117120000Y-41330000D01*
X117120000Y-41670000D01*
X117119326Y-41683722D01*
X117117310Y-41697313D01*
X117113972Y-41710640D01*
X117109343Y-41723576D01*
X117103469Y-41735996D01*
X117096406Y-41747780D01*
X117088221Y-41758815D01*
X117078995Y-41768995D01*
X117068815Y-41778221D01*
X117057780Y-41786406D01*
X117045996Y-41793469D01*
X117033576Y-41799343D01*
X117020640Y-41803972D01*
X117007313Y-41807310D01*
X116993722Y-41809326D01*
X116980000Y-41810000D01*
X116700000Y-41810000D01*
X116686278Y-41809326D01*
X116672687Y-41807310D01*
X116659360Y-41803972D01*
X116646424Y-41799343D01*
X116634004Y-41793469D01*
X116622220Y-41786406D01*
X116611185Y-41778221D01*
X116601005Y-41768995D01*
X116591779Y-41758815D01*
X116583594Y-41747780D01*
X116576531Y-41735996D01*
X116570657Y-41723576D01*
X116566028Y-41710640D01*
X116562690Y-41697313D01*
X116560674Y-41683722D01*
X116560000Y-41670000D01*
X116560000Y-41330000D01*
X116560674Y-41316278D01*
X116562690Y-41302687D01*
X116566028Y-41289360D01*
X116570657Y-41276424D01*
X116576531Y-41264004D01*
X116583594Y-41252220D01*
X116591779Y-41241185D01*
X116601005Y-41231005D01*
X116611185Y-41221779D01*
X116622220Y-41213594D01*
X116634004Y-41206531D01*
X116646424Y-41200657D01*
X116659360Y-41196028D01*
X116672687Y-41192690D01*
X116686278Y-41190674D01*
X116700000Y-41190000D01*
X116980000Y-41190000D01*
X116993722Y-41190674D01*
X116993722Y-41190674D01*
G37*
D15*
%TD*%
%TO.P,C19,2*%
%TO.N,Net-(C19-Pad2)*%
X116840000Y-41500000D03*
D13*
%TO.N,Net-(C19-Pad1)*%
%TO.C,C19*%
G36*
X117953722Y-41190674D02*
G01*
X117967313Y-41192690D01*
X117980640Y-41196028D01*
X117993576Y-41200657D01*
X118005996Y-41206531D01*
X118017780Y-41213594D01*
X118028815Y-41221779D01*
X118038995Y-41231005D01*
X118048221Y-41241185D01*
X118056406Y-41252220D01*
X118063469Y-41264004D01*
X118069343Y-41276424D01*
X118073972Y-41289360D01*
X118077310Y-41302687D01*
X118079326Y-41316278D01*
X118080000Y-41330000D01*
X118080000Y-41670000D01*
X118079326Y-41683722D01*
X118077310Y-41697313D01*
X118073972Y-41710640D01*
X118069343Y-41723576D01*
X118063469Y-41735996D01*
X118056406Y-41747780D01*
X118048221Y-41758815D01*
X118038995Y-41768995D01*
X118028815Y-41778221D01*
X118017780Y-41786406D01*
X118005996Y-41793469D01*
X117993576Y-41799343D01*
X117980640Y-41803972D01*
X117967313Y-41807310D01*
X117953722Y-41809326D01*
X117940000Y-41810000D01*
X117660000Y-41810000D01*
X117646278Y-41809326D01*
X117632687Y-41807310D01*
X117619360Y-41803972D01*
X117606424Y-41799343D01*
X117594004Y-41793469D01*
X117582220Y-41786406D01*
X117571185Y-41778221D01*
X117561005Y-41768995D01*
X117551779Y-41758815D01*
X117543594Y-41747780D01*
X117536531Y-41735996D01*
X117530657Y-41723576D01*
X117526028Y-41710640D01*
X117522690Y-41697313D01*
X117520674Y-41683722D01*
X117520000Y-41670000D01*
X117520000Y-41330000D01*
X117520674Y-41316278D01*
X117522690Y-41302687D01*
X117526028Y-41289360D01*
X117530657Y-41276424D01*
X117536531Y-41264004D01*
X117543594Y-41252220D01*
X117551779Y-41241185D01*
X117561005Y-41231005D01*
X117571185Y-41221779D01*
X117582220Y-41213594D01*
X117594004Y-41206531D01*
X117606424Y-41200657D01*
X117619360Y-41196028D01*
X117632687Y-41192690D01*
X117646278Y-41190674D01*
X117660000Y-41190000D01*
X117940000Y-41190000D01*
X117953722Y-41190674D01*
X117953722Y-41190674D01*
G37*
D15*
%TD*%
%TO.P,C19,1*%
%TO.N,Net-(C19-Pad1)*%
X117800000Y-41500000D03*
D13*
%TO.N,Net-(C18-Pad2)*%
%TO.C,C18*%
G36*
X116773722Y-40190674D02*
G01*
X116787313Y-40192690D01*
X116800640Y-40196028D01*
X116813576Y-40200657D01*
X116825996Y-40206531D01*
X116837780Y-40213594D01*
X116848815Y-40221779D01*
X116858995Y-40231005D01*
X116868221Y-40241185D01*
X116876406Y-40252220D01*
X116883469Y-40264004D01*
X116889343Y-40276424D01*
X116893972Y-40289360D01*
X116897310Y-40302687D01*
X116899326Y-40316278D01*
X116900000Y-40330000D01*
X116900000Y-40670000D01*
X116899326Y-40683722D01*
X116897310Y-40697313D01*
X116893972Y-40710640D01*
X116889343Y-40723576D01*
X116883469Y-40735996D01*
X116876406Y-40747780D01*
X116868221Y-40758815D01*
X116858995Y-40768995D01*
X116848815Y-40778221D01*
X116837780Y-40786406D01*
X116825996Y-40793469D01*
X116813576Y-40799343D01*
X116800640Y-40803972D01*
X116787313Y-40807310D01*
X116773722Y-40809326D01*
X116760000Y-40810000D01*
X116480000Y-40810000D01*
X116466278Y-40809326D01*
X116452687Y-40807310D01*
X116439360Y-40803972D01*
X116426424Y-40799343D01*
X116414004Y-40793469D01*
X116402220Y-40786406D01*
X116391185Y-40778221D01*
X116381005Y-40768995D01*
X116371779Y-40758815D01*
X116363594Y-40747780D01*
X116356531Y-40735996D01*
X116350657Y-40723576D01*
X116346028Y-40710640D01*
X116342690Y-40697313D01*
X116340674Y-40683722D01*
X116340000Y-40670000D01*
X116340000Y-40330000D01*
X116340674Y-40316278D01*
X116342690Y-40302687D01*
X116346028Y-40289360D01*
X116350657Y-40276424D01*
X116356531Y-40264004D01*
X116363594Y-40252220D01*
X116371779Y-40241185D01*
X116381005Y-40231005D01*
X116391185Y-40221779D01*
X116402220Y-40213594D01*
X116414004Y-40206531D01*
X116426424Y-40200657D01*
X116439360Y-40196028D01*
X116452687Y-40192690D01*
X116466278Y-40190674D01*
X116480000Y-40190000D01*
X116760000Y-40190000D01*
X116773722Y-40190674D01*
X116773722Y-40190674D01*
G37*
D15*
%TD*%
%TO.P,C18,2*%
%TO.N,Net-(C18-Pad2)*%
X116620000Y-40500000D03*
D13*
%TO.N,Net-(C18-Pad1)*%
%TO.C,C18*%
G36*
X117733722Y-40190674D02*
G01*
X117747313Y-40192690D01*
X117760640Y-40196028D01*
X117773576Y-40200657D01*
X117785996Y-40206531D01*
X117797780Y-40213594D01*
X117808815Y-40221779D01*
X117818995Y-40231005D01*
X117828221Y-40241185D01*
X117836406Y-40252220D01*
X117843469Y-40264004D01*
X117849343Y-40276424D01*
X117853972Y-40289360D01*
X117857310Y-40302687D01*
X117859326Y-40316278D01*
X117860000Y-40330000D01*
X117860000Y-40670000D01*
X117859326Y-40683722D01*
X117857310Y-40697313D01*
X117853972Y-40710640D01*
X117849343Y-40723576D01*
X117843469Y-40735996D01*
X117836406Y-40747780D01*
X117828221Y-40758815D01*
X117818995Y-40768995D01*
X117808815Y-40778221D01*
X117797780Y-40786406D01*
X117785996Y-40793469D01*
X117773576Y-40799343D01*
X117760640Y-40803972D01*
X117747313Y-40807310D01*
X117733722Y-40809326D01*
X117720000Y-40810000D01*
X117440000Y-40810000D01*
X117426278Y-40809326D01*
X117412687Y-40807310D01*
X117399360Y-40803972D01*
X117386424Y-40799343D01*
X117374004Y-40793469D01*
X117362220Y-40786406D01*
X117351185Y-40778221D01*
X117341005Y-40768995D01*
X117331779Y-40758815D01*
X117323594Y-40747780D01*
X117316531Y-40735996D01*
X117310657Y-40723576D01*
X117306028Y-40710640D01*
X117302690Y-40697313D01*
X117300674Y-40683722D01*
X117300000Y-40670000D01*
X117300000Y-40330000D01*
X117300674Y-40316278D01*
X117302690Y-40302687D01*
X117306028Y-40289360D01*
X117310657Y-40276424D01*
X117316531Y-40264004D01*
X117323594Y-40252220D01*
X117331779Y-40241185D01*
X117341005Y-40231005D01*
X117351185Y-40221779D01*
X117362220Y-40213594D01*
X117374004Y-40206531D01*
X117386424Y-40200657D01*
X117399360Y-40196028D01*
X117412687Y-40192690D01*
X117426278Y-40190674D01*
X117440000Y-40190000D01*
X117720000Y-40190000D01*
X117733722Y-40190674D01*
X117733722Y-40190674D01*
G37*
D15*
%TD*%
%TO.P,C18,1*%
%TO.N,Net-(C18-Pad1)*%
X117580000Y-40500000D03*
D13*
%TO.N,Net-(C17-Pad2)*%
%TO.C,C17*%
G36*
X116713722Y-39190674D02*
G01*
X116727313Y-39192690D01*
X116740640Y-39196028D01*
X116753576Y-39200657D01*
X116765996Y-39206531D01*
X116777780Y-39213594D01*
X116788815Y-39221779D01*
X116798995Y-39231005D01*
X116808221Y-39241185D01*
X116816406Y-39252220D01*
X116823469Y-39264004D01*
X116829343Y-39276424D01*
X116833972Y-39289360D01*
X116837310Y-39302687D01*
X116839326Y-39316278D01*
X116840000Y-39330000D01*
X116840000Y-39670000D01*
X116839326Y-39683722D01*
X116837310Y-39697313D01*
X116833972Y-39710640D01*
X116829343Y-39723576D01*
X116823469Y-39735996D01*
X116816406Y-39747780D01*
X116808221Y-39758815D01*
X116798995Y-39768995D01*
X116788815Y-39778221D01*
X116777780Y-39786406D01*
X116765996Y-39793469D01*
X116753576Y-39799343D01*
X116740640Y-39803972D01*
X116727313Y-39807310D01*
X116713722Y-39809326D01*
X116700000Y-39810000D01*
X116420000Y-39810000D01*
X116406278Y-39809326D01*
X116392687Y-39807310D01*
X116379360Y-39803972D01*
X116366424Y-39799343D01*
X116354004Y-39793469D01*
X116342220Y-39786406D01*
X116331185Y-39778221D01*
X116321005Y-39768995D01*
X116311779Y-39758815D01*
X116303594Y-39747780D01*
X116296531Y-39735996D01*
X116290657Y-39723576D01*
X116286028Y-39710640D01*
X116282690Y-39697313D01*
X116280674Y-39683722D01*
X116280000Y-39670000D01*
X116280000Y-39330000D01*
X116280674Y-39316278D01*
X116282690Y-39302687D01*
X116286028Y-39289360D01*
X116290657Y-39276424D01*
X116296531Y-39264004D01*
X116303594Y-39252220D01*
X116311779Y-39241185D01*
X116321005Y-39231005D01*
X116331185Y-39221779D01*
X116342220Y-39213594D01*
X116354004Y-39206531D01*
X116366424Y-39200657D01*
X116379360Y-39196028D01*
X116392687Y-39192690D01*
X116406278Y-39190674D01*
X116420000Y-39190000D01*
X116700000Y-39190000D01*
X116713722Y-39190674D01*
X116713722Y-39190674D01*
G37*
D15*
%TD*%
%TO.P,C17,2*%
%TO.N,Net-(C17-Pad2)*%
X116560000Y-39500000D03*
D13*
%TO.N,Net-(C17-Pad1)*%
%TO.C,C17*%
G36*
X117673722Y-39190674D02*
G01*
X117687313Y-39192690D01*
X117700640Y-39196028D01*
X117713576Y-39200657D01*
X117725996Y-39206531D01*
X117737780Y-39213594D01*
X117748815Y-39221779D01*
X117758995Y-39231005D01*
X117768221Y-39241185D01*
X117776406Y-39252220D01*
X117783469Y-39264004D01*
X117789343Y-39276424D01*
X117793972Y-39289360D01*
X117797310Y-39302687D01*
X117799326Y-39316278D01*
X117800000Y-39330000D01*
X117800000Y-39670000D01*
X117799326Y-39683722D01*
X117797310Y-39697313D01*
X117793972Y-39710640D01*
X117789343Y-39723576D01*
X117783469Y-39735996D01*
X117776406Y-39747780D01*
X117768221Y-39758815D01*
X117758995Y-39768995D01*
X117748815Y-39778221D01*
X117737780Y-39786406D01*
X117725996Y-39793469D01*
X117713576Y-39799343D01*
X117700640Y-39803972D01*
X117687313Y-39807310D01*
X117673722Y-39809326D01*
X117660000Y-39810000D01*
X117380000Y-39810000D01*
X117366278Y-39809326D01*
X117352687Y-39807310D01*
X117339360Y-39803972D01*
X117326424Y-39799343D01*
X117314004Y-39793469D01*
X117302220Y-39786406D01*
X117291185Y-39778221D01*
X117281005Y-39768995D01*
X117271779Y-39758815D01*
X117263594Y-39747780D01*
X117256531Y-39735996D01*
X117250657Y-39723576D01*
X117246028Y-39710640D01*
X117242690Y-39697313D01*
X117240674Y-39683722D01*
X117240000Y-39670000D01*
X117240000Y-39330000D01*
X117240674Y-39316278D01*
X117242690Y-39302687D01*
X117246028Y-39289360D01*
X117250657Y-39276424D01*
X117256531Y-39264004D01*
X117263594Y-39252220D01*
X117271779Y-39241185D01*
X117281005Y-39231005D01*
X117291185Y-39221779D01*
X117302220Y-39213594D01*
X117314004Y-39206531D01*
X117326424Y-39200657D01*
X117339360Y-39196028D01*
X117352687Y-39192690D01*
X117366278Y-39190674D01*
X117380000Y-39190000D01*
X117660000Y-39190000D01*
X117673722Y-39190674D01*
X117673722Y-39190674D01*
G37*
D15*
%TD*%
%TO.P,C17,1*%
%TO.N,Net-(C17-Pad1)*%
X117520000Y-39500000D03*
D13*
%TO.N,Net-(C16-Pad2)*%
%TO.C,C16*%
G36*
X116693722Y-38190674D02*
G01*
X116707313Y-38192690D01*
X116720640Y-38196028D01*
X116733576Y-38200657D01*
X116745996Y-38206531D01*
X116757780Y-38213594D01*
X116768815Y-38221779D01*
X116778995Y-38231005D01*
X116788221Y-38241185D01*
X116796406Y-38252220D01*
X116803469Y-38264004D01*
X116809343Y-38276424D01*
X116813972Y-38289360D01*
X116817310Y-38302687D01*
X116819326Y-38316278D01*
X116820000Y-38330000D01*
X116820000Y-38670000D01*
X116819326Y-38683722D01*
X116817310Y-38697313D01*
X116813972Y-38710640D01*
X116809343Y-38723576D01*
X116803469Y-38735996D01*
X116796406Y-38747780D01*
X116788221Y-38758815D01*
X116778995Y-38768995D01*
X116768815Y-38778221D01*
X116757780Y-38786406D01*
X116745996Y-38793469D01*
X116733576Y-38799343D01*
X116720640Y-38803972D01*
X116707313Y-38807310D01*
X116693722Y-38809326D01*
X116680000Y-38810000D01*
X116400000Y-38810000D01*
X116386278Y-38809326D01*
X116372687Y-38807310D01*
X116359360Y-38803972D01*
X116346424Y-38799343D01*
X116334004Y-38793469D01*
X116322220Y-38786406D01*
X116311185Y-38778221D01*
X116301005Y-38768995D01*
X116291779Y-38758815D01*
X116283594Y-38747780D01*
X116276531Y-38735996D01*
X116270657Y-38723576D01*
X116266028Y-38710640D01*
X116262690Y-38697313D01*
X116260674Y-38683722D01*
X116260000Y-38670000D01*
X116260000Y-38330000D01*
X116260674Y-38316278D01*
X116262690Y-38302687D01*
X116266028Y-38289360D01*
X116270657Y-38276424D01*
X116276531Y-38264004D01*
X116283594Y-38252220D01*
X116291779Y-38241185D01*
X116301005Y-38231005D01*
X116311185Y-38221779D01*
X116322220Y-38213594D01*
X116334004Y-38206531D01*
X116346424Y-38200657D01*
X116359360Y-38196028D01*
X116372687Y-38192690D01*
X116386278Y-38190674D01*
X116400000Y-38190000D01*
X116680000Y-38190000D01*
X116693722Y-38190674D01*
X116693722Y-38190674D01*
G37*
D15*
%TD*%
%TO.P,C16,2*%
%TO.N,Net-(C16-Pad2)*%
X116540000Y-38500000D03*
D13*
%TO.N,Net-(C16-Pad1)*%
%TO.C,C16*%
G36*
X117653722Y-38190674D02*
G01*
X117667313Y-38192690D01*
X117680640Y-38196028D01*
X117693576Y-38200657D01*
X117705996Y-38206531D01*
X117717780Y-38213594D01*
X117728815Y-38221779D01*
X117738995Y-38231005D01*
X117748221Y-38241185D01*
X117756406Y-38252220D01*
X117763469Y-38264004D01*
X117769343Y-38276424D01*
X117773972Y-38289360D01*
X117777310Y-38302687D01*
X117779326Y-38316278D01*
X117780000Y-38330000D01*
X117780000Y-38670000D01*
X117779326Y-38683722D01*
X117777310Y-38697313D01*
X117773972Y-38710640D01*
X117769343Y-38723576D01*
X117763469Y-38735996D01*
X117756406Y-38747780D01*
X117748221Y-38758815D01*
X117738995Y-38768995D01*
X117728815Y-38778221D01*
X117717780Y-38786406D01*
X117705996Y-38793469D01*
X117693576Y-38799343D01*
X117680640Y-38803972D01*
X117667313Y-38807310D01*
X117653722Y-38809326D01*
X117640000Y-38810000D01*
X117360000Y-38810000D01*
X117346278Y-38809326D01*
X117332687Y-38807310D01*
X117319360Y-38803972D01*
X117306424Y-38799343D01*
X117294004Y-38793469D01*
X117282220Y-38786406D01*
X117271185Y-38778221D01*
X117261005Y-38768995D01*
X117251779Y-38758815D01*
X117243594Y-38747780D01*
X117236531Y-38735996D01*
X117230657Y-38723576D01*
X117226028Y-38710640D01*
X117222690Y-38697313D01*
X117220674Y-38683722D01*
X117220000Y-38670000D01*
X117220000Y-38330000D01*
X117220674Y-38316278D01*
X117222690Y-38302687D01*
X117226028Y-38289360D01*
X117230657Y-38276424D01*
X117236531Y-38264004D01*
X117243594Y-38252220D01*
X117251779Y-38241185D01*
X117261005Y-38231005D01*
X117271185Y-38221779D01*
X117282220Y-38213594D01*
X117294004Y-38206531D01*
X117306424Y-38200657D01*
X117319360Y-38196028D01*
X117332687Y-38192690D01*
X117346278Y-38190674D01*
X117360000Y-38190000D01*
X117640000Y-38190000D01*
X117653722Y-38190674D01*
X117653722Y-38190674D01*
G37*
D15*
%TD*%
%TO.P,C16,1*%
%TO.N,Net-(C16-Pad1)*%
X117500000Y-38500000D03*
D13*
%TO.N,Net-(C15-Pad2)*%
%TO.C,C15*%
G36*
X116773722Y-37190674D02*
G01*
X116787313Y-37192690D01*
X116800640Y-37196028D01*
X116813576Y-37200657D01*
X116825996Y-37206531D01*
X116837780Y-37213594D01*
X116848815Y-37221779D01*
X116858995Y-37231005D01*
X116868221Y-37241185D01*
X116876406Y-37252220D01*
X116883469Y-37264004D01*
X116889343Y-37276424D01*
X116893972Y-37289360D01*
X116897310Y-37302687D01*
X116899326Y-37316278D01*
X116900000Y-37330000D01*
X116900000Y-37670000D01*
X116899326Y-37683722D01*
X116897310Y-37697313D01*
X116893972Y-37710640D01*
X116889343Y-37723576D01*
X116883469Y-37735996D01*
X116876406Y-37747780D01*
X116868221Y-37758815D01*
X116858995Y-37768995D01*
X116848815Y-37778221D01*
X116837780Y-37786406D01*
X116825996Y-37793469D01*
X116813576Y-37799343D01*
X116800640Y-37803972D01*
X116787313Y-37807310D01*
X116773722Y-37809326D01*
X116760000Y-37810000D01*
X116480000Y-37810000D01*
X116466278Y-37809326D01*
X116452687Y-37807310D01*
X116439360Y-37803972D01*
X116426424Y-37799343D01*
X116414004Y-37793469D01*
X116402220Y-37786406D01*
X116391185Y-37778221D01*
X116381005Y-37768995D01*
X116371779Y-37758815D01*
X116363594Y-37747780D01*
X116356531Y-37735996D01*
X116350657Y-37723576D01*
X116346028Y-37710640D01*
X116342690Y-37697313D01*
X116340674Y-37683722D01*
X116340000Y-37670000D01*
X116340000Y-37330000D01*
X116340674Y-37316278D01*
X116342690Y-37302687D01*
X116346028Y-37289360D01*
X116350657Y-37276424D01*
X116356531Y-37264004D01*
X116363594Y-37252220D01*
X116371779Y-37241185D01*
X116381005Y-37231005D01*
X116391185Y-37221779D01*
X116402220Y-37213594D01*
X116414004Y-37206531D01*
X116426424Y-37200657D01*
X116439360Y-37196028D01*
X116452687Y-37192690D01*
X116466278Y-37190674D01*
X116480000Y-37190000D01*
X116760000Y-37190000D01*
X116773722Y-37190674D01*
X116773722Y-37190674D01*
G37*
D15*
%TD*%
%TO.P,C15,2*%
%TO.N,Net-(C15-Pad2)*%
X116620000Y-37500000D03*
D13*
%TO.N,Net-(C15-Pad1)*%
%TO.C,C15*%
G36*
X117733722Y-37190674D02*
G01*
X117747313Y-37192690D01*
X117760640Y-37196028D01*
X117773576Y-37200657D01*
X117785996Y-37206531D01*
X117797780Y-37213594D01*
X117808815Y-37221779D01*
X117818995Y-37231005D01*
X117828221Y-37241185D01*
X117836406Y-37252220D01*
X117843469Y-37264004D01*
X117849343Y-37276424D01*
X117853972Y-37289360D01*
X117857310Y-37302687D01*
X117859326Y-37316278D01*
X117860000Y-37330000D01*
X117860000Y-37670000D01*
X117859326Y-37683722D01*
X117857310Y-37697313D01*
X117853972Y-37710640D01*
X117849343Y-37723576D01*
X117843469Y-37735996D01*
X117836406Y-37747780D01*
X117828221Y-37758815D01*
X117818995Y-37768995D01*
X117808815Y-37778221D01*
X117797780Y-37786406D01*
X117785996Y-37793469D01*
X117773576Y-37799343D01*
X117760640Y-37803972D01*
X117747313Y-37807310D01*
X117733722Y-37809326D01*
X117720000Y-37810000D01*
X117440000Y-37810000D01*
X117426278Y-37809326D01*
X117412687Y-37807310D01*
X117399360Y-37803972D01*
X117386424Y-37799343D01*
X117374004Y-37793469D01*
X117362220Y-37786406D01*
X117351185Y-37778221D01*
X117341005Y-37768995D01*
X117331779Y-37758815D01*
X117323594Y-37747780D01*
X117316531Y-37735996D01*
X117310657Y-37723576D01*
X117306028Y-37710640D01*
X117302690Y-37697313D01*
X117300674Y-37683722D01*
X117300000Y-37670000D01*
X117300000Y-37330000D01*
X117300674Y-37316278D01*
X117302690Y-37302687D01*
X117306028Y-37289360D01*
X117310657Y-37276424D01*
X117316531Y-37264004D01*
X117323594Y-37252220D01*
X117331779Y-37241185D01*
X117341005Y-37231005D01*
X117351185Y-37221779D01*
X117362220Y-37213594D01*
X117374004Y-37206531D01*
X117386424Y-37200657D01*
X117399360Y-37196028D01*
X117412687Y-37192690D01*
X117426278Y-37190674D01*
X117440000Y-37190000D01*
X117720000Y-37190000D01*
X117733722Y-37190674D01*
X117733722Y-37190674D01*
G37*
D15*
%TD*%
%TO.P,C15,1*%
%TO.N,Net-(C15-Pad1)*%
X117580000Y-37500000D03*
D13*
%TO.N,GND*%
%TO.C,C14*%
G36*
X117493722Y-43190674D02*
G01*
X117507313Y-43192690D01*
X117520640Y-43196028D01*
X117533576Y-43200657D01*
X117545996Y-43206531D01*
X117557780Y-43213594D01*
X117568815Y-43221779D01*
X117578995Y-43231005D01*
X117588221Y-43241185D01*
X117596406Y-43252220D01*
X117603469Y-43264004D01*
X117609343Y-43276424D01*
X117613972Y-43289360D01*
X117617310Y-43302687D01*
X117619326Y-43316278D01*
X117620000Y-43330000D01*
X117620000Y-43670000D01*
X117619326Y-43683722D01*
X117617310Y-43697313D01*
X117613972Y-43710640D01*
X117609343Y-43723576D01*
X117603469Y-43735996D01*
X117596406Y-43747780D01*
X117588221Y-43758815D01*
X117578995Y-43768995D01*
X117568815Y-43778221D01*
X117557780Y-43786406D01*
X117545996Y-43793469D01*
X117533576Y-43799343D01*
X117520640Y-43803972D01*
X117507313Y-43807310D01*
X117493722Y-43809326D01*
X117480000Y-43810000D01*
X117200000Y-43810000D01*
X117186278Y-43809326D01*
X117172687Y-43807310D01*
X117159360Y-43803972D01*
X117146424Y-43799343D01*
X117134004Y-43793469D01*
X117122220Y-43786406D01*
X117111185Y-43778221D01*
X117101005Y-43768995D01*
X117091779Y-43758815D01*
X117083594Y-43747780D01*
X117076531Y-43735996D01*
X117070657Y-43723576D01*
X117066028Y-43710640D01*
X117062690Y-43697313D01*
X117060674Y-43683722D01*
X117060000Y-43670000D01*
X117060000Y-43330000D01*
X117060674Y-43316278D01*
X117062690Y-43302687D01*
X117066028Y-43289360D01*
X117070657Y-43276424D01*
X117076531Y-43264004D01*
X117083594Y-43252220D01*
X117091779Y-43241185D01*
X117101005Y-43231005D01*
X117111185Y-43221779D01*
X117122220Y-43213594D01*
X117134004Y-43206531D01*
X117146424Y-43200657D01*
X117159360Y-43196028D01*
X117172687Y-43192690D01*
X117186278Y-43190674D01*
X117200000Y-43190000D01*
X117480000Y-43190000D01*
X117493722Y-43190674D01*
X117493722Y-43190674D01*
G37*
D15*
%TD*%
%TO.P,C14,2*%
%TO.N,GND*%
X117340000Y-43500000D03*
D13*
%TO.N,Net-(C14-Pad1)*%
%TO.C,C14*%
G36*
X118453722Y-43190674D02*
G01*
X118467313Y-43192690D01*
X118480640Y-43196028D01*
X118493576Y-43200657D01*
X118505996Y-43206531D01*
X118517780Y-43213594D01*
X118528815Y-43221779D01*
X118538995Y-43231005D01*
X118548221Y-43241185D01*
X118556406Y-43252220D01*
X118563469Y-43264004D01*
X118569343Y-43276424D01*
X118573972Y-43289360D01*
X118577310Y-43302687D01*
X118579326Y-43316278D01*
X118580000Y-43330000D01*
X118580000Y-43670000D01*
X118579326Y-43683722D01*
X118577310Y-43697313D01*
X118573972Y-43710640D01*
X118569343Y-43723576D01*
X118563469Y-43735996D01*
X118556406Y-43747780D01*
X118548221Y-43758815D01*
X118538995Y-43768995D01*
X118528815Y-43778221D01*
X118517780Y-43786406D01*
X118505996Y-43793469D01*
X118493576Y-43799343D01*
X118480640Y-43803972D01*
X118467313Y-43807310D01*
X118453722Y-43809326D01*
X118440000Y-43810000D01*
X118160000Y-43810000D01*
X118146278Y-43809326D01*
X118132687Y-43807310D01*
X118119360Y-43803972D01*
X118106424Y-43799343D01*
X118094004Y-43793469D01*
X118082220Y-43786406D01*
X118071185Y-43778221D01*
X118061005Y-43768995D01*
X118051779Y-43758815D01*
X118043594Y-43747780D01*
X118036531Y-43735996D01*
X118030657Y-43723576D01*
X118026028Y-43710640D01*
X118022690Y-43697313D01*
X118020674Y-43683722D01*
X118020000Y-43670000D01*
X118020000Y-43330000D01*
X118020674Y-43316278D01*
X118022690Y-43302687D01*
X118026028Y-43289360D01*
X118030657Y-43276424D01*
X118036531Y-43264004D01*
X118043594Y-43252220D01*
X118051779Y-43241185D01*
X118061005Y-43231005D01*
X118071185Y-43221779D01*
X118082220Y-43213594D01*
X118094004Y-43206531D01*
X118106424Y-43200657D01*
X118119360Y-43196028D01*
X118132687Y-43192690D01*
X118146278Y-43190674D01*
X118160000Y-43190000D01*
X118440000Y-43190000D01*
X118453722Y-43190674D01*
X118453722Y-43190674D01*
G37*
D15*
%TD*%
%TO.P,C14,1*%
%TO.N,Net-(C14-Pad1)*%
X118300000Y-43500000D03*
D13*
%TO.N,GND*%
%TO.C,C13*%
G36*
X116993722Y-35190674D02*
G01*
X117007313Y-35192690D01*
X117020640Y-35196028D01*
X117033576Y-35200657D01*
X117045996Y-35206531D01*
X117057780Y-35213594D01*
X117068815Y-35221779D01*
X117078995Y-35231005D01*
X117088221Y-35241185D01*
X117096406Y-35252220D01*
X117103469Y-35264004D01*
X117109343Y-35276424D01*
X117113972Y-35289360D01*
X117117310Y-35302687D01*
X117119326Y-35316278D01*
X117120000Y-35330000D01*
X117120000Y-35670000D01*
X117119326Y-35683722D01*
X117117310Y-35697313D01*
X117113972Y-35710640D01*
X117109343Y-35723576D01*
X117103469Y-35735996D01*
X117096406Y-35747780D01*
X117088221Y-35758815D01*
X117078995Y-35768995D01*
X117068815Y-35778221D01*
X117057780Y-35786406D01*
X117045996Y-35793469D01*
X117033576Y-35799343D01*
X117020640Y-35803972D01*
X117007313Y-35807310D01*
X116993722Y-35809326D01*
X116980000Y-35810000D01*
X116700000Y-35810000D01*
X116686278Y-35809326D01*
X116672687Y-35807310D01*
X116659360Y-35803972D01*
X116646424Y-35799343D01*
X116634004Y-35793469D01*
X116622220Y-35786406D01*
X116611185Y-35778221D01*
X116601005Y-35768995D01*
X116591779Y-35758815D01*
X116583594Y-35747780D01*
X116576531Y-35735996D01*
X116570657Y-35723576D01*
X116566028Y-35710640D01*
X116562690Y-35697313D01*
X116560674Y-35683722D01*
X116560000Y-35670000D01*
X116560000Y-35330000D01*
X116560674Y-35316278D01*
X116562690Y-35302687D01*
X116566028Y-35289360D01*
X116570657Y-35276424D01*
X116576531Y-35264004D01*
X116583594Y-35252220D01*
X116591779Y-35241185D01*
X116601005Y-35231005D01*
X116611185Y-35221779D01*
X116622220Y-35213594D01*
X116634004Y-35206531D01*
X116646424Y-35200657D01*
X116659360Y-35196028D01*
X116672687Y-35192690D01*
X116686278Y-35190674D01*
X116700000Y-35190000D01*
X116980000Y-35190000D01*
X116993722Y-35190674D01*
X116993722Y-35190674D01*
G37*
D15*
%TD*%
%TO.P,C13,2*%
%TO.N,GND*%
X116840000Y-35500000D03*
D13*
%TO.N,Net-(C13-Pad1)*%
%TO.C,C13*%
G36*
X117953722Y-35190674D02*
G01*
X117967313Y-35192690D01*
X117980640Y-35196028D01*
X117993576Y-35200657D01*
X118005996Y-35206531D01*
X118017780Y-35213594D01*
X118028815Y-35221779D01*
X118038995Y-35231005D01*
X118048221Y-35241185D01*
X118056406Y-35252220D01*
X118063469Y-35264004D01*
X118069343Y-35276424D01*
X118073972Y-35289360D01*
X118077310Y-35302687D01*
X118079326Y-35316278D01*
X118080000Y-35330000D01*
X118080000Y-35670000D01*
X118079326Y-35683722D01*
X118077310Y-35697313D01*
X118073972Y-35710640D01*
X118069343Y-35723576D01*
X118063469Y-35735996D01*
X118056406Y-35747780D01*
X118048221Y-35758815D01*
X118038995Y-35768995D01*
X118028815Y-35778221D01*
X118017780Y-35786406D01*
X118005996Y-35793469D01*
X117993576Y-35799343D01*
X117980640Y-35803972D01*
X117967313Y-35807310D01*
X117953722Y-35809326D01*
X117940000Y-35810000D01*
X117660000Y-35810000D01*
X117646278Y-35809326D01*
X117632687Y-35807310D01*
X117619360Y-35803972D01*
X117606424Y-35799343D01*
X117594004Y-35793469D01*
X117582220Y-35786406D01*
X117571185Y-35778221D01*
X117561005Y-35768995D01*
X117551779Y-35758815D01*
X117543594Y-35747780D01*
X117536531Y-35735996D01*
X117530657Y-35723576D01*
X117526028Y-35710640D01*
X117522690Y-35697313D01*
X117520674Y-35683722D01*
X117520000Y-35670000D01*
X117520000Y-35330000D01*
X117520674Y-35316278D01*
X117522690Y-35302687D01*
X117526028Y-35289360D01*
X117530657Y-35276424D01*
X117536531Y-35264004D01*
X117543594Y-35252220D01*
X117551779Y-35241185D01*
X117561005Y-35231005D01*
X117571185Y-35221779D01*
X117582220Y-35213594D01*
X117594004Y-35206531D01*
X117606424Y-35200657D01*
X117619360Y-35196028D01*
X117632687Y-35192690D01*
X117646278Y-35190674D01*
X117660000Y-35190000D01*
X117940000Y-35190000D01*
X117953722Y-35190674D01*
X117953722Y-35190674D01*
G37*
D15*
%TD*%
%TO.P,C13,1*%
%TO.N,Net-(C13-Pad1)*%
X117800000Y-35500000D03*
D13*
%TO.N,GND*%
%TO.C,C12*%
G36*
X118273722Y-45190674D02*
G01*
X118287313Y-45192690D01*
X118300640Y-45196028D01*
X118313576Y-45200657D01*
X118325996Y-45206531D01*
X118337780Y-45213594D01*
X118348815Y-45221779D01*
X118358995Y-45231005D01*
X118368221Y-45241185D01*
X118376406Y-45252220D01*
X118383469Y-45264004D01*
X118389343Y-45276424D01*
X118393972Y-45289360D01*
X118397310Y-45302687D01*
X118399326Y-45316278D01*
X118400000Y-45330000D01*
X118400000Y-45670000D01*
X118399326Y-45683722D01*
X118397310Y-45697313D01*
X118393972Y-45710640D01*
X118389343Y-45723576D01*
X118383469Y-45735996D01*
X118376406Y-45747780D01*
X118368221Y-45758815D01*
X118358995Y-45768995D01*
X118348815Y-45778221D01*
X118337780Y-45786406D01*
X118325996Y-45793469D01*
X118313576Y-45799343D01*
X118300640Y-45803972D01*
X118287313Y-45807310D01*
X118273722Y-45809326D01*
X118260000Y-45810000D01*
X117980000Y-45810000D01*
X117966278Y-45809326D01*
X117952687Y-45807310D01*
X117939360Y-45803972D01*
X117926424Y-45799343D01*
X117914004Y-45793469D01*
X117902220Y-45786406D01*
X117891185Y-45778221D01*
X117881005Y-45768995D01*
X117871779Y-45758815D01*
X117863594Y-45747780D01*
X117856531Y-45735996D01*
X117850657Y-45723576D01*
X117846028Y-45710640D01*
X117842690Y-45697313D01*
X117840674Y-45683722D01*
X117840000Y-45670000D01*
X117840000Y-45330000D01*
X117840674Y-45316278D01*
X117842690Y-45302687D01*
X117846028Y-45289360D01*
X117850657Y-45276424D01*
X117856531Y-45264004D01*
X117863594Y-45252220D01*
X117871779Y-45241185D01*
X117881005Y-45231005D01*
X117891185Y-45221779D01*
X117902220Y-45213594D01*
X117914004Y-45206531D01*
X117926424Y-45200657D01*
X117939360Y-45196028D01*
X117952687Y-45192690D01*
X117966278Y-45190674D01*
X117980000Y-45190000D01*
X118260000Y-45190000D01*
X118273722Y-45190674D01*
X118273722Y-45190674D01*
G37*
D15*
%TD*%
%TO.P,C12,2*%
%TO.N,GND*%
X118120000Y-45500000D03*
D13*
%TO.N,Net-(C12-Pad1)*%
%TO.C,C12*%
G36*
X119233722Y-45190674D02*
G01*
X119247313Y-45192690D01*
X119260640Y-45196028D01*
X119273576Y-45200657D01*
X119285996Y-45206531D01*
X119297780Y-45213594D01*
X119308815Y-45221779D01*
X119318995Y-45231005D01*
X119328221Y-45241185D01*
X119336406Y-45252220D01*
X119343469Y-45264004D01*
X119349343Y-45276424D01*
X119353972Y-45289360D01*
X119357310Y-45302687D01*
X119359326Y-45316278D01*
X119360000Y-45330000D01*
X119360000Y-45670000D01*
X119359326Y-45683722D01*
X119357310Y-45697313D01*
X119353972Y-45710640D01*
X119349343Y-45723576D01*
X119343469Y-45735996D01*
X119336406Y-45747780D01*
X119328221Y-45758815D01*
X119318995Y-45768995D01*
X119308815Y-45778221D01*
X119297780Y-45786406D01*
X119285996Y-45793469D01*
X119273576Y-45799343D01*
X119260640Y-45803972D01*
X119247313Y-45807310D01*
X119233722Y-45809326D01*
X119220000Y-45810000D01*
X118940000Y-45810000D01*
X118926278Y-45809326D01*
X118912687Y-45807310D01*
X118899360Y-45803972D01*
X118886424Y-45799343D01*
X118874004Y-45793469D01*
X118862220Y-45786406D01*
X118851185Y-45778221D01*
X118841005Y-45768995D01*
X118831779Y-45758815D01*
X118823594Y-45747780D01*
X118816531Y-45735996D01*
X118810657Y-45723576D01*
X118806028Y-45710640D01*
X118802690Y-45697313D01*
X118800674Y-45683722D01*
X118800000Y-45670000D01*
X118800000Y-45330000D01*
X118800674Y-45316278D01*
X118802690Y-45302687D01*
X118806028Y-45289360D01*
X118810657Y-45276424D01*
X118816531Y-45264004D01*
X118823594Y-45252220D01*
X118831779Y-45241185D01*
X118841005Y-45231005D01*
X118851185Y-45221779D01*
X118862220Y-45213594D01*
X118874004Y-45206531D01*
X118886424Y-45200657D01*
X118899360Y-45196028D01*
X118912687Y-45192690D01*
X118926278Y-45190674D01*
X118940000Y-45190000D01*
X119220000Y-45190000D01*
X119233722Y-45190674D01*
X119233722Y-45190674D01*
G37*
D15*
%TD*%
%TO.P,C12,1*%
%TO.N,Net-(C12-Pad1)*%
X119080000Y-45500000D03*
D13*
%TO.N,GND*%
%TO.C,C11*%
G36*
X117893722Y-44190674D02*
G01*
X117907313Y-44192690D01*
X117920640Y-44196028D01*
X117933576Y-44200657D01*
X117945996Y-44206531D01*
X117957780Y-44213594D01*
X117968815Y-44221779D01*
X117978995Y-44231005D01*
X117988221Y-44241185D01*
X117996406Y-44252220D01*
X118003469Y-44264004D01*
X118009343Y-44276424D01*
X118013972Y-44289360D01*
X118017310Y-44302687D01*
X118019326Y-44316278D01*
X118020000Y-44330000D01*
X118020000Y-44670000D01*
X118019326Y-44683722D01*
X118017310Y-44697313D01*
X118013972Y-44710640D01*
X118009343Y-44723576D01*
X118003469Y-44735996D01*
X117996406Y-44747780D01*
X117988221Y-44758815D01*
X117978995Y-44768995D01*
X117968815Y-44778221D01*
X117957780Y-44786406D01*
X117945996Y-44793469D01*
X117933576Y-44799343D01*
X117920640Y-44803972D01*
X117907313Y-44807310D01*
X117893722Y-44809326D01*
X117880000Y-44810000D01*
X117600000Y-44810000D01*
X117586278Y-44809326D01*
X117572687Y-44807310D01*
X117559360Y-44803972D01*
X117546424Y-44799343D01*
X117534004Y-44793469D01*
X117522220Y-44786406D01*
X117511185Y-44778221D01*
X117501005Y-44768995D01*
X117491779Y-44758815D01*
X117483594Y-44747780D01*
X117476531Y-44735996D01*
X117470657Y-44723576D01*
X117466028Y-44710640D01*
X117462690Y-44697313D01*
X117460674Y-44683722D01*
X117460000Y-44670000D01*
X117460000Y-44330000D01*
X117460674Y-44316278D01*
X117462690Y-44302687D01*
X117466028Y-44289360D01*
X117470657Y-44276424D01*
X117476531Y-44264004D01*
X117483594Y-44252220D01*
X117491779Y-44241185D01*
X117501005Y-44231005D01*
X117511185Y-44221779D01*
X117522220Y-44213594D01*
X117534004Y-44206531D01*
X117546424Y-44200657D01*
X117559360Y-44196028D01*
X117572687Y-44192690D01*
X117586278Y-44190674D01*
X117600000Y-44190000D01*
X117880000Y-44190000D01*
X117893722Y-44190674D01*
X117893722Y-44190674D01*
G37*
D15*
%TD*%
%TO.P,C11,2*%
%TO.N,GND*%
X117740000Y-44500000D03*
D13*
%TO.N,Net-(C11-Pad1)*%
%TO.C,C11*%
G36*
X118853722Y-44190674D02*
G01*
X118867313Y-44192690D01*
X118880640Y-44196028D01*
X118893576Y-44200657D01*
X118905996Y-44206531D01*
X118917780Y-44213594D01*
X118928815Y-44221779D01*
X118938995Y-44231005D01*
X118948221Y-44241185D01*
X118956406Y-44252220D01*
X118963469Y-44264004D01*
X118969343Y-44276424D01*
X118973972Y-44289360D01*
X118977310Y-44302687D01*
X118979326Y-44316278D01*
X118980000Y-44330000D01*
X118980000Y-44670000D01*
X118979326Y-44683722D01*
X118977310Y-44697313D01*
X118973972Y-44710640D01*
X118969343Y-44723576D01*
X118963469Y-44735996D01*
X118956406Y-44747780D01*
X118948221Y-44758815D01*
X118938995Y-44768995D01*
X118928815Y-44778221D01*
X118917780Y-44786406D01*
X118905996Y-44793469D01*
X118893576Y-44799343D01*
X118880640Y-44803972D01*
X118867313Y-44807310D01*
X118853722Y-44809326D01*
X118840000Y-44810000D01*
X118560000Y-44810000D01*
X118546278Y-44809326D01*
X118532687Y-44807310D01*
X118519360Y-44803972D01*
X118506424Y-44799343D01*
X118494004Y-44793469D01*
X118482220Y-44786406D01*
X118471185Y-44778221D01*
X118461005Y-44768995D01*
X118451779Y-44758815D01*
X118443594Y-44747780D01*
X118436531Y-44735996D01*
X118430657Y-44723576D01*
X118426028Y-44710640D01*
X118422690Y-44697313D01*
X118420674Y-44683722D01*
X118420000Y-44670000D01*
X118420000Y-44330000D01*
X118420674Y-44316278D01*
X118422690Y-44302687D01*
X118426028Y-44289360D01*
X118430657Y-44276424D01*
X118436531Y-44264004D01*
X118443594Y-44252220D01*
X118451779Y-44241185D01*
X118461005Y-44231005D01*
X118471185Y-44221779D01*
X118482220Y-44213594D01*
X118494004Y-44206531D01*
X118506424Y-44200657D01*
X118519360Y-44196028D01*
X118532687Y-44192690D01*
X118546278Y-44190674D01*
X118560000Y-44190000D01*
X118840000Y-44190000D01*
X118853722Y-44190674D01*
X118853722Y-44190674D01*
G37*
D15*
%TD*%
%TO.P,C11,1*%
%TO.N,Net-(C11-Pad1)*%
X118700000Y-44500000D03*
D13*
%TO.N,GND*%
%TO.C,C10*%
G36*
X117193722Y-34190674D02*
G01*
X117207313Y-34192690D01*
X117220640Y-34196028D01*
X117233576Y-34200657D01*
X117245996Y-34206531D01*
X117257780Y-34213594D01*
X117268815Y-34221779D01*
X117278995Y-34231005D01*
X117288221Y-34241185D01*
X117296406Y-34252220D01*
X117303469Y-34264004D01*
X117309343Y-34276424D01*
X117313972Y-34289360D01*
X117317310Y-34302687D01*
X117319326Y-34316278D01*
X117320000Y-34330000D01*
X117320000Y-34670000D01*
X117319326Y-34683722D01*
X117317310Y-34697313D01*
X117313972Y-34710640D01*
X117309343Y-34723576D01*
X117303469Y-34735996D01*
X117296406Y-34747780D01*
X117288221Y-34758815D01*
X117278995Y-34768995D01*
X117268815Y-34778221D01*
X117257780Y-34786406D01*
X117245996Y-34793469D01*
X117233576Y-34799343D01*
X117220640Y-34803972D01*
X117207313Y-34807310D01*
X117193722Y-34809326D01*
X117180000Y-34810000D01*
X116900000Y-34810000D01*
X116886278Y-34809326D01*
X116872687Y-34807310D01*
X116859360Y-34803972D01*
X116846424Y-34799343D01*
X116834004Y-34793469D01*
X116822220Y-34786406D01*
X116811185Y-34778221D01*
X116801005Y-34768995D01*
X116791779Y-34758815D01*
X116783594Y-34747780D01*
X116776531Y-34735996D01*
X116770657Y-34723576D01*
X116766028Y-34710640D01*
X116762690Y-34697313D01*
X116760674Y-34683722D01*
X116760000Y-34670000D01*
X116760000Y-34330000D01*
X116760674Y-34316278D01*
X116762690Y-34302687D01*
X116766028Y-34289360D01*
X116770657Y-34276424D01*
X116776531Y-34264004D01*
X116783594Y-34252220D01*
X116791779Y-34241185D01*
X116801005Y-34231005D01*
X116811185Y-34221779D01*
X116822220Y-34213594D01*
X116834004Y-34206531D01*
X116846424Y-34200657D01*
X116859360Y-34196028D01*
X116872687Y-34192690D01*
X116886278Y-34190674D01*
X116900000Y-34190000D01*
X117180000Y-34190000D01*
X117193722Y-34190674D01*
X117193722Y-34190674D01*
G37*
D15*
%TD*%
%TO.P,C10,2*%
%TO.N,GND*%
X117040000Y-34500000D03*
D13*
%TO.N,Net-(C10-Pad1)*%
%TO.C,C10*%
G36*
X118153722Y-34190674D02*
G01*
X118167313Y-34192690D01*
X118180640Y-34196028D01*
X118193576Y-34200657D01*
X118205996Y-34206531D01*
X118217780Y-34213594D01*
X118228815Y-34221779D01*
X118238995Y-34231005D01*
X118248221Y-34241185D01*
X118256406Y-34252220D01*
X118263469Y-34264004D01*
X118269343Y-34276424D01*
X118273972Y-34289360D01*
X118277310Y-34302687D01*
X118279326Y-34316278D01*
X118280000Y-34330000D01*
X118280000Y-34670000D01*
X118279326Y-34683722D01*
X118277310Y-34697313D01*
X118273972Y-34710640D01*
X118269343Y-34723576D01*
X118263469Y-34735996D01*
X118256406Y-34747780D01*
X118248221Y-34758815D01*
X118238995Y-34768995D01*
X118228815Y-34778221D01*
X118217780Y-34786406D01*
X118205996Y-34793469D01*
X118193576Y-34799343D01*
X118180640Y-34803972D01*
X118167313Y-34807310D01*
X118153722Y-34809326D01*
X118140000Y-34810000D01*
X117860000Y-34810000D01*
X117846278Y-34809326D01*
X117832687Y-34807310D01*
X117819360Y-34803972D01*
X117806424Y-34799343D01*
X117794004Y-34793469D01*
X117782220Y-34786406D01*
X117771185Y-34778221D01*
X117761005Y-34768995D01*
X117751779Y-34758815D01*
X117743594Y-34747780D01*
X117736531Y-34735996D01*
X117730657Y-34723576D01*
X117726028Y-34710640D01*
X117722690Y-34697313D01*
X117720674Y-34683722D01*
X117720000Y-34670000D01*
X117720000Y-34330000D01*
X117720674Y-34316278D01*
X117722690Y-34302687D01*
X117726028Y-34289360D01*
X117730657Y-34276424D01*
X117736531Y-34264004D01*
X117743594Y-34252220D01*
X117751779Y-34241185D01*
X117761005Y-34231005D01*
X117771185Y-34221779D01*
X117782220Y-34213594D01*
X117794004Y-34206531D01*
X117806424Y-34200657D01*
X117819360Y-34196028D01*
X117832687Y-34192690D01*
X117846278Y-34190674D01*
X117860000Y-34190000D01*
X118140000Y-34190000D01*
X118153722Y-34190674D01*
X118153722Y-34190674D01*
G37*
D15*
%TD*%
%TO.P,C10,1*%
%TO.N,Net-(C10-Pad1)*%
X118000000Y-34500000D03*
D13*
%TO.N,GND*%
%TO.C,C8*%
G36*
X117493722Y-33190674D02*
G01*
X117507313Y-33192690D01*
X117520640Y-33196028D01*
X117533576Y-33200657D01*
X117545996Y-33206531D01*
X117557780Y-33213594D01*
X117568815Y-33221779D01*
X117578995Y-33231005D01*
X117588221Y-33241185D01*
X117596406Y-33252220D01*
X117603469Y-33264004D01*
X117609343Y-33276424D01*
X117613972Y-33289360D01*
X117617310Y-33302687D01*
X117619326Y-33316278D01*
X117620000Y-33330000D01*
X117620000Y-33670000D01*
X117619326Y-33683722D01*
X117617310Y-33697313D01*
X117613972Y-33710640D01*
X117609343Y-33723576D01*
X117603469Y-33735996D01*
X117596406Y-33747780D01*
X117588221Y-33758815D01*
X117578995Y-33768995D01*
X117568815Y-33778221D01*
X117557780Y-33786406D01*
X117545996Y-33793469D01*
X117533576Y-33799343D01*
X117520640Y-33803972D01*
X117507313Y-33807310D01*
X117493722Y-33809326D01*
X117480000Y-33810000D01*
X117200000Y-33810000D01*
X117186278Y-33809326D01*
X117172687Y-33807310D01*
X117159360Y-33803972D01*
X117146424Y-33799343D01*
X117134004Y-33793469D01*
X117122220Y-33786406D01*
X117111185Y-33778221D01*
X117101005Y-33768995D01*
X117091779Y-33758815D01*
X117083594Y-33747780D01*
X117076531Y-33735996D01*
X117070657Y-33723576D01*
X117066028Y-33710640D01*
X117062690Y-33697313D01*
X117060674Y-33683722D01*
X117060000Y-33670000D01*
X117060000Y-33330000D01*
X117060674Y-33316278D01*
X117062690Y-33302687D01*
X117066028Y-33289360D01*
X117070657Y-33276424D01*
X117076531Y-33264004D01*
X117083594Y-33252220D01*
X117091779Y-33241185D01*
X117101005Y-33231005D01*
X117111185Y-33221779D01*
X117122220Y-33213594D01*
X117134004Y-33206531D01*
X117146424Y-33200657D01*
X117159360Y-33196028D01*
X117172687Y-33192690D01*
X117186278Y-33190674D01*
X117200000Y-33190000D01*
X117480000Y-33190000D01*
X117493722Y-33190674D01*
X117493722Y-33190674D01*
G37*
D15*
%TD*%
%TO.P,C8,2*%
%TO.N,GND*%
X117340000Y-33500000D03*
D13*
%TO.N,Net-(C8-Pad1)*%
%TO.C,C8*%
G36*
X118453722Y-33190674D02*
G01*
X118467313Y-33192690D01*
X118480640Y-33196028D01*
X118493576Y-33200657D01*
X118505996Y-33206531D01*
X118517780Y-33213594D01*
X118528815Y-33221779D01*
X118538995Y-33231005D01*
X118548221Y-33241185D01*
X118556406Y-33252220D01*
X118563469Y-33264004D01*
X118569343Y-33276424D01*
X118573972Y-33289360D01*
X118577310Y-33302687D01*
X118579326Y-33316278D01*
X118580000Y-33330000D01*
X118580000Y-33670000D01*
X118579326Y-33683722D01*
X118577310Y-33697313D01*
X118573972Y-33710640D01*
X118569343Y-33723576D01*
X118563469Y-33735996D01*
X118556406Y-33747780D01*
X118548221Y-33758815D01*
X118538995Y-33768995D01*
X118528815Y-33778221D01*
X118517780Y-33786406D01*
X118505996Y-33793469D01*
X118493576Y-33799343D01*
X118480640Y-33803972D01*
X118467313Y-33807310D01*
X118453722Y-33809326D01*
X118440000Y-33810000D01*
X118160000Y-33810000D01*
X118146278Y-33809326D01*
X118132687Y-33807310D01*
X118119360Y-33803972D01*
X118106424Y-33799343D01*
X118094004Y-33793469D01*
X118082220Y-33786406D01*
X118071185Y-33778221D01*
X118061005Y-33768995D01*
X118051779Y-33758815D01*
X118043594Y-33747780D01*
X118036531Y-33735996D01*
X118030657Y-33723576D01*
X118026028Y-33710640D01*
X118022690Y-33697313D01*
X118020674Y-33683722D01*
X118020000Y-33670000D01*
X118020000Y-33330000D01*
X118020674Y-33316278D01*
X118022690Y-33302687D01*
X118026028Y-33289360D01*
X118030657Y-33276424D01*
X118036531Y-33264004D01*
X118043594Y-33252220D01*
X118051779Y-33241185D01*
X118061005Y-33231005D01*
X118071185Y-33221779D01*
X118082220Y-33213594D01*
X118094004Y-33206531D01*
X118106424Y-33200657D01*
X118119360Y-33196028D01*
X118132687Y-33192690D01*
X118146278Y-33190674D01*
X118160000Y-33190000D01*
X118440000Y-33190000D01*
X118453722Y-33190674D01*
X118453722Y-33190674D01*
G37*
D15*
%TD*%
%TO.P,C8,1*%
%TO.N,Net-(C8-Pad1)*%
X118300000Y-33500000D03*
D13*
%TO.N,Net-(C5-Pad2)*%
%TO.C,C6*%
G36*
X119233722Y-31190674D02*
G01*
X119247313Y-31192690D01*
X119260640Y-31196028D01*
X119273576Y-31200657D01*
X119285996Y-31206531D01*
X119297780Y-31213594D01*
X119308815Y-31221779D01*
X119318995Y-31231005D01*
X119328221Y-31241185D01*
X119336406Y-31252220D01*
X119343469Y-31264004D01*
X119349343Y-31276424D01*
X119353972Y-31289360D01*
X119357310Y-31302687D01*
X119359326Y-31316278D01*
X119360000Y-31330000D01*
X119360000Y-31670000D01*
X119359326Y-31683722D01*
X119357310Y-31697313D01*
X119353972Y-31710640D01*
X119349343Y-31723576D01*
X119343469Y-31735996D01*
X119336406Y-31747780D01*
X119328221Y-31758815D01*
X119318995Y-31768995D01*
X119308815Y-31778221D01*
X119297780Y-31786406D01*
X119285996Y-31793469D01*
X119273576Y-31799343D01*
X119260640Y-31803972D01*
X119247313Y-31807310D01*
X119233722Y-31809326D01*
X119220000Y-31810000D01*
X118940000Y-31810000D01*
X118926278Y-31809326D01*
X118912687Y-31807310D01*
X118899360Y-31803972D01*
X118886424Y-31799343D01*
X118874004Y-31793469D01*
X118862220Y-31786406D01*
X118851185Y-31778221D01*
X118841005Y-31768995D01*
X118831779Y-31758815D01*
X118823594Y-31747780D01*
X118816531Y-31735996D01*
X118810657Y-31723576D01*
X118806028Y-31710640D01*
X118802690Y-31697313D01*
X118800674Y-31683722D01*
X118800000Y-31670000D01*
X118800000Y-31330000D01*
X118800674Y-31316278D01*
X118802690Y-31302687D01*
X118806028Y-31289360D01*
X118810657Y-31276424D01*
X118816531Y-31264004D01*
X118823594Y-31252220D01*
X118831779Y-31241185D01*
X118841005Y-31231005D01*
X118851185Y-31221779D01*
X118862220Y-31213594D01*
X118874004Y-31206531D01*
X118886424Y-31200657D01*
X118899360Y-31196028D01*
X118912687Y-31192690D01*
X118926278Y-31190674D01*
X118940000Y-31190000D01*
X119220000Y-31190000D01*
X119233722Y-31190674D01*
X119233722Y-31190674D01*
G37*
D15*
%TD*%
%TO.P,C6,2*%
%TO.N,Net-(C5-Pad2)*%
X119080000Y-31500000D03*
D13*
%TO.N,GND*%
%TO.C,C6*%
G36*
X118273722Y-31190674D02*
G01*
X118287313Y-31192690D01*
X118300640Y-31196028D01*
X118313576Y-31200657D01*
X118325996Y-31206531D01*
X118337780Y-31213594D01*
X118348815Y-31221779D01*
X118358995Y-31231005D01*
X118368221Y-31241185D01*
X118376406Y-31252220D01*
X118383469Y-31264004D01*
X118389343Y-31276424D01*
X118393972Y-31289360D01*
X118397310Y-31302687D01*
X118399326Y-31316278D01*
X118400000Y-31330000D01*
X118400000Y-31670000D01*
X118399326Y-31683722D01*
X118397310Y-31697313D01*
X118393972Y-31710640D01*
X118389343Y-31723576D01*
X118383469Y-31735996D01*
X118376406Y-31747780D01*
X118368221Y-31758815D01*
X118358995Y-31768995D01*
X118348815Y-31778221D01*
X118337780Y-31786406D01*
X118325996Y-31793469D01*
X118313576Y-31799343D01*
X118300640Y-31803972D01*
X118287313Y-31807310D01*
X118273722Y-31809326D01*
X118260000Y-31810000D01*
X117980000Y-31810000D01*
X117966278Y-31809326D01*
X117952687Y-31807310D01*
X117939360Y-31803972D01*
X117926424Y-31799343D01*
X117914004Y-31793469D01*
X117902220Y-31786406D01*
X117891185Y-31778221D01*
X117881005Y-31768995D01*
X117871779Y-31758815D01*
X117863594Y-31747780D01*
X117856531Y-31735996D01*
X117850657Y-31723576D01*
X117846028Y-31710640D01*
X117842690Y-31697313D01*
X117840674Y-31683722D01*
X117840000Y-31670000D01*
X117840000Y-31330000D01*
X117840674Y-31316278D01*
X117842690Y-31302687D01*
X117846028Y-31289360D01*
X117850657Y-31276424D01*
X117856531Y-31264004D01*
X117863594Y-31252220D01*
X117871779Y-31241185D01*
X117881005Y-31231005D01*
X117891185Y-31221779D01*
X117902220Y-31213594D01*
X117914004Y-31206531D01*
X117926424Y-31200657D01*
X117939360Y-31196028D01*
X117952687Y-31192690D01*
X117966278Y-31190674D01*
X117980000Y-31190000D01*
X118260000Y-31190000D01*
X118273722Y-31190674D01*
X118273722Y-31190674D01*
G37*
D15*
%TD*%
%TO.P,C6,1*%
%TO.N,GND*%
X118120000Y-31500000D03*
D13*
%TO.N,Net-(C5-Pad2)*%
%TO.C,C5*%
G36*
X118833722Y-32190674D02*
G01*
X118847313Y-32192690D01*
X118860640Y-32196028D01*
X118873576Y-32200657D01*
X118885996Y-32206531D01*
X118897780Y-32213594D01*
X118908815Y-32221779D01*
X118918995Y-32231005D01*
X118928221Y-32241185D01*
X118936406Y-32252220D01*
X118943469Y-32264004D01*
X118949343Y-32276424D01*
X118953972Y-32289360D01*
X118957310Y-32302687D01*
X118959326Y-32316278D01*
X118960000Y-32330000D01*
X118960000Y-32670000D01*
X118959326Y-32683722D01*
X118957310Y-32697313D01*
X118953972Y-32710640D01*
X118949343Y-32723576D01*
X118943469Y-32735996D01*
X118936406Y-32747780D01*
X118928221Y-32758815D01*
X118918995Y-32768995D01*
X118908815Y-32778221D01*
X118897780Y-32786406D01*
X118885996Y-32793469D01*
X118873576Y-32799343D01*
X118860640Y-32803972D01*
X118847313Y-32807310D01*
X118833722Y-32809326D01*
X118820000Y-32810000D01*
X118540000Y-32810000D01*
X118526278Y-32809326D01*
X118512687Y-32807310D01*
X118499360Y-32803972D01*
X118486424Y-32799343D01*
X118474004Y-32793469D01*
X118462220Y-32786406D01*
X118451185Y-32778221D01*
X118441005Y-32768995D01*
X118431779Y-32758815D01*
X118423594Y-32747780D01*
X118416531Y-32735996D01*
X118410657Y-32723576D01*
X118406028Y-32710640D01*
X118402690Y-32697313D01*
X118400674Y-32683722D01*
X118400000Y-32670000D01*
X118400000Y-32330000D01*
X118400674Y-32316278D01*
X118402690Y-32302687D01*
X118406028Y-32289360D01*
X118410657Y-32276424D01*
X118416531Y-32264004D01*
X118423594Y-32252220D01*
X118431779Y-32241185D01*
X118441005Y-32231005D01*
X118451185Y-32221779D01*
X118462220Y-32213594D01*
X118474004Y-32206531D01*
X118486424Y-32200657D01*
X118499360Y-32196028D01*
X118512687Y-32192690D01*
X118526278Y-32190674D01*
X118540000Y-32190000D01*
X118820000Y-32190000D01*
X118833722Y-32190674D01*
X118833722Y-32190674D01*
G37*
D15*
%TD*%
%TO.P,C5,2*%
%TO.N,Net-(C5-Pad2)*%
X118680000Y-32500000D03*
D13*
%TO.N,GND*%
%TO.C,C5*%
G36*
X117873722Y-32190674D02*
G01*
X117887313Y-32192690D01*
X117900640Y-32196028D01*
X117913576Y-32200657D01*
X117925996Y-32206531D01*
X117937780Y-32213594D01*
X117948815Y-32221779D01*
X117958995Y-32231005D01*
X117968221Y-32241185D01*
X117976406Y-32252220D01*
X117983469Y-32264004D01*
X117989343Y-32276424D01*
X117993972Y-32289360D01*
X117997310Y-32302687D01*
X117999326Y-32316278D01*
X118000000Y-32330000D01*
X118000000Y-32670000D01*
X117999326Y-32683722D01*
X117997310Y-32697313D01*
X117993972Y-32710640D01*
X117989343Y-32723576D01*
X117983469Y-32735996D01*
X117976406Y-32747780D01*
X117968221Y-32758815D01*
X117958995Y-32768995D01*
X117948815Y-32778221D01*
X117937780Y-32786406D01*
X117925996Y-32793469D01*
X117913576Y-32799343D01*
X117900640Y-32803972D01*
X117887313Y-32807310D01*
X117873722Y-32809326D01*
X117860000Y-32810000D01*
X117580000Y-32810000D01*
X117566278Y-32809326D01*
X117552687Y-32807310D01*
X117539360Y-32803972D01*
X117526424Y-32799343D01*
X117514004Y-32793469D01*
X117502220Y-32786406D01*
X117491185Y-32778221D01*
X117481005Y-32768995D01*
X117471779Y-32758815D01*
X117463594Y-32747780D01*
X117456531Y-32735996D01*
X117450657Y-32723576D01*
X117446028Y-32710640D01*
X117442690Y-32697313D01*
X117440674Y-32683722D01*
X117440000Y-32670000D01*
X117440000Y-32330000D01*
X117440674Y-32316278D01*
X117442690Y-32302687D01*
X117446028Y-32289360D01*
X117450657Y-32276424D01*
X117456531Y-32264004D01*
X117463594Y-32252220D01*
X117471779Y-32241185D01*
X117481005Y-32231005D01*
X117491185Y-32221779D01*
X117502220Y-32213594D01*
X117514004Y-32206531D01*
X117526424Y-32200657D01*
X117539360Y-32196028D01*
X117552687Y-32192690D01*
X117566278Y-32190674D01*
X117580000Y-32190000D01*
X117860000Y-32190000D01*
X117873722Y-32190674D01*
X117873722Y-32190674D01*
G37*
D15*
%TD*%
%TO.P,C5,1*%
%TO.N,GND*%
X117720000Y-32500000D03*
D16*
%TO.P,J3,30*%
%TO.N,Net-(J3-Pad30)*%
X121500000Y-42500000D03*
%TO.P,J3,29*%
%TO.N,Net-(C12-Pad1)*%
X121500000Y-42000000D03*
%TO.P,J3,28*%
%TO.N,Net-(C11-Pad1)*%
X121500000Y-41500000D03*
%TO.P,J3,27*%
%TO.N,Net-(C14-Pad1)*%
X121500000Y-41000000D03*
%TO.P,J3,26*%
%TO.N,Net-(C20-Pad2)*%
X121500000Y-40500000D03*
%TO.P,J3,25*%
%TO.N,Net-(C20-Pad1)*%
X121500000Y-40000000D03*
%TO.P,J3,24*%
%TO.N,Net-(C19-Pad2)*%
X121500000Y-39500000D03*
%TO.P,J3,23*%
%TO.N,Net-(C19-Pad1)*%
X121500000Y-39000000D03*
%TO.P,J3,22*%
%TO.N,Net-(C18-Pad2)*%
X121500000Y-38500000D03*
%TO.P,J3,21*%
%TO.N,Net-(C18-Pad1)*%
X121500000Y-38000000D03*
%TO.P,J3,20*%
%TO.N,Net-(C17-Pad2)*%
X121500000Y-37500000D03*
%TO.P,J3,19*%
%TO.N,Net-(C17-Pad1)*%
X121500000Y-37000000D03*
%TO.P,J3,18*%
%TO.N,Net-(C16-Pad2)*%
X121500000Y-36500000D03*
%TO.P,J3,17*%
%TO.N,Net-(C16-Pad1)*%
X121500000Y-36000000D03*
%TO.P,J3,16*%
%TO.N,Net-(C15-Pad2)*%
X121500000Y-35500000D03*
%TO.P,J3,15*%
%TO.N,Net-(C15-Pad1)*%
X121500000Y-35000000D03*
%TO.P,J3,14*%
%TO.N,Net-(D1-Pad1)*%
X121500000Y-34500000D03*
%TO.P,J3,13*%
%TO.N,Net-(C13-Pad1)*%
X121500000Y-34000000D03*
%TO.P,J3,12*%
%TO.N,Net-(C10-Pad1)*%
X121500000Y-33500000D03*
%TO.P,J3,11*%
%TO.N,Net-(C8-Pad1)*%
X121500000Y-33000000D03*
%TO.P,J3,10*%
%TO.N,Net-(C5-Pad2)*%
X121500000Y-32500000D03*
%TO.P,J3,9*%
%TO.N,Net-(J3-Pad9)*%
X121500000Y-32000000D03*
%TO.P,J3,8*%
%TO.N,Net-(J3-Pad8)*%
X121500000Y-31500000D03*
%TO.P,J3,7*%
%TO.N,Net-(J3-Pad7)*%
X121500000Y-31000000D03*
%TO.P,J3,6*%
%TO.N,Net-(J3-Pad6)*%
X121500000Y-30500000D03*
%TO.P,J3,5*%
%TO.N,Net-(J3-Pad5)*%
X121500000Y-30000000D03*
%TO.P,J3,4*%
%TO.N,SPI1-SCK*%
X121500000Y-29500000D03*
%TO.P,J3,3*%
%TO.N,SPI1-MOSI*%
X121500000Y-29000000D03*
%TO.P,J3,2*%
%TO.N,+3V3*%
X121500000Y-28500000D03*
%TO.P,J3,1*%
%TO.N,GND*%
X121500000Y-28000000D03*
%TD*%
D17*
%TO.P,SW1,SH*%
%TO.N,N/C*%
X139500000Y-50575000D03*
D18*
%TO.P,SW1,1*%
%TO.N,Net-(R3-Pad1)*%
X137450000Y-51200000D03*
%TO.P,SW1,2*%
%TO.N,+3V3*%
X137450000Y-52800000D03*
%TO.P,SW1,1*%
%TO.N,Net-(R3-Pad1)*%
X141550000Y-51200000D03*
%TO.P,SW1,2*%
%TO.N,+3V3*%
X141550000Y-52800000D03*
%TD*%
D17*
%TO.P,SW2,SH*%
%TO.N,N/C*%
X127500000Y-50575000D03*
D18*
%TO.P,SW2,1*%
%TO.N,Net-(R4-Pad1)*%
X125450000Y-51200000D03*
%TO.P,SW2,2*%
%TO.N,+3V3*%
X125450000Y-52800000D03*
%TO.P,SW2,1*%
%TO.N,Net-(R4-Pad1)*%
X129550000Y-51200000D03*
%TO.P,SW2,2*%
%TO.N,+3V3*%
X129550000Y-52800000D03*
%TD*%
D17*
%TO.P,SW3,SH*%
%TO.N,N/C*%
X133500000Y-50575000D03*
D18*
%TO.P,SW3,1*%
%TO.N,Net-(R5-Pad1)*%
X131450000Y-51200000D03*
%TO.P,SW3,2*%
%TO.N,+3V3*%
X131450000Y-52800000D03*
%TO.P,SW3,1*%
%TO.N,Net-(R5-Pad1)*%
X135550000Y-51200000D03*
%TO.P,SW3,2*%
%TO.N,+3V3*%
X135550000Y-52800000D03*
%TD*%
D13*
%TO.N,GND*%
%TO.C,C7*%
G36*
X145633722Y-30690674D02*
G01*
X145647313Y-30692690D01*
X145660640Y-30696028D01*
X145673576Y-30700657D01*
X145685996Y-30706531D01*
X145697780Y-30713594D01*
X145708815Y-30721779D01*
X145718995Y-30731005D01*
X145728221Y-30741185D01*
X145736406Y-30752220D01*
X145743469Y-30764004D01*
X145749343Y-30776424D01*
X145753972Y-30789360D01*
X145757310Y-30802687D01*
X145759326Y-30816278D01*
X145760000Y-30830000D01*
X145760000Y-31170000D01*
X145759326Y-31183722D01*
X145757310Y-31197313D01*
X145753972Y-31210640D01*
X145749343Y-31223576D01*
X145743469Y-31235996D01*
X145736406Y-31247780D01*
X145728221Y-31258815D01*
X145718995Y-31268995D01*
X145708815Y-31278221D01*
X145697780Y-31286406D01*
X145685996Y-31293469D01*
X145673576Y-31299343D01*
X145660640Y-31303972D01*
X145647313Y-31307310D01*
X145633722Y-31309326D01*
X145620000Y-31310000D01*
X145340000Y-31310000D01*
X145326278Y-31309326D01*
X145312687Y-31307310D01*
X145299360Y-31303972D01*
X145286424Y-31299343D01*
X145274004Y-31293469D01*
X145262220Y-31286406D01*
X145251185Y-31278221D01*
X145241005Y-31268995D01*
X145231779Y-31258815D01*
X145223594Y-31247780D01*
X145216531Y-31235996D01*
X145210657Y-31223576D01*
X145206028Y-31210640D01*
X145202690Y-31197313D01*
X145200674Y-31183722D01*
X145200000Y-31170000D01*
X145200000Y-30830000D01*
X145200674Y-30816278D01*
X145202690Y-30802687D01*
X145206028Y-30789360D01*
X145210657Y-30776424D01*
X145216531Y-30764004D01*
X145223594Y-30752220D01*
X145231779Y-30741185D01*
X145241005Y-30731005D01*
X145251185Y-30721779D01*
X145262220Y-30713594D01*
X145274004Y-30706531D01*
X145286424Y-30700657D01*
X145299360Y-30696028D01*
X145312687Y-30692690D01*
X145326278Y-30690674D01*
X145340000Y-30690000D01*
X145620000Y-30690000D01*
X145633722Y-30690674D01*
X145633722Y-30690674D01*
G37*
D15*
%TD*%
%TO.P,C7,2*%
%TO.N,GND*%
X145480000Y-31000000D03*
D13*
%TO.N,+3V3*%
%TO.C,C7*%
G36*
X144673722Y-30690674D02*
G01*
X144687313Y-30692690D01*
X144700640Y-30696028D01*
X144713576Y-30700657D01*
X144725996Y-30706531D01*
X144737780Y-30713594D01*
X144748815Y-30721779D01*
X144758995Y-30731005D01*
X144768221Y-30741185D01*
X144776406Y-30752220D01*
X144783469Y-30764004D01*
X144789343Y-30776424D01*
X144793972Y-30789360D01*
X144797310Y-30802687D01*
X144799326Y-30816278D01*
X144800000Y-30830000D01*
X144800000Y-31170000D01*
X144799326Y-31183722D01*
X144797310Y-31197313D01*
X144793972Y-31210640D01*
X144789343Y-31223576D01*
X144783469Y-31235996D01*
X144776406Y-31247780D01*
X144768221Y-31258815D01*
X144758995Y-31268995D01*
X144748815Y-31278221D01*
X144737780Y-31286406D01*
X144725996Y-31293469D01*
X144713576Y-31299343D01*
X144700640Y-31303972D01*
X144687313Y-31307310D01*
X144673722Y-31309326D01*
X144660000Y-31310000D01*
X144380000Y-31310000D01*
X144366278Y-31309326D01*
X144352687Y-31307310D01*
X144339360Y-31303972D01*
X144326424Y-31299343D01*
X144314004Y-31293469D01*
X144302220Y-31286406D01*
X144291185Y-31278221D01*
X144281005Y-31268995D01*
X144271779Y-31258815D01*
X144263594Y-31247780D01*
X144256531Y-31235996D01*
X144250657Y-31223576D01*
X144246028Y-31210640D01*
X144242690Y-31197313D01*
X144240674Y-31183722D01*
X144240000Y-31170000D01*
X144240000Y-30830000D01*
X144240674Y-30816278D01*
X144242690Y-30802687D01*
X144246028Y-30789360D01*
X144250657Y-30776424D01*
X144256531Y-30764004D01*
X144263594Y-30752220D01*
X144271779Y-30741185D01*
X144281005Y-30731005D01*
X144291185Y-30721779D01*
X144302220Y-30713594D01*
X144314004Y-30706531D01*
X144326424Y-30700657D01*
X144339360Y-30696028D01*
X144352687Y-30692690D01*
X144366278Y-30690674D01*
X144380000Y-30690000D01*
X144660000Y-30690000D01*
X144673722Y-30690674D01*
X144673722Y-30690674D01*
G37*
D15*
%TD*%
%TO.P,C7,1*%
%TO.N,+3V3*%
X144520000Y-31000000D03*
D13*
%TO.N,GND*%
%TO.C,C9*%
G36*
X146133722Y-34190674D02*
G01*
X146147313Y-34192690D01*
X146160640Y-34196028D01*
X146173576Y-34200657D01*
X146185996Y-34206531D01*
X146197780Y-34213594D01*
X146208815Y-34221779D01*
X146218995Y-34231005D01*
X146228221Y-34241185D01*
X146236406Y-34252220D01*
X146243469Y-34264004D01*
X146249343Y-34276424D01*
X146253972Y-34289360D01*
X146257310Y-34302687D01*
X146259326Y-34316278D01*
X146260000Y-34330000D01*
X146260000Y-34670000D01*
X146259326Y-34683722D01*
X146257310Y-34697313D01*
X146253972Y-34710640D01*
X146249343Y-34723576D01*
X146243469Y-34735996D01*
X146236406Y-34747780D01*
X146228221Y-34758815D01*
X146218995Y-34768995D01*
X146208815Y-34778221D01*
X146197780Y-34786406D01*
X146185996Y-34793469D01*
X146173576Y-34799343D01*
X146160640Y-34803972D01*
X146147313Y-34807310D01*
X146133722Y-34809326D01*
X146120000Y-34810000D01*
X145840000Y-34810000D01*
X145826278Y-34809326D01*
X145812687Y-34807310D01*
X145799360Y-34803972D01*
X145786424Y-34799343D01*
X145774004Y-34793469D01*
X145762220Y-34786406D01*
X145751185Y-34778221D01*
X145741005Y-34768995D01*
X145731779Y-34758815D01*
X145723594Y-34747780D01*
X145716531Y-34735996D01*
X145710657Y-34723576D01*
X145706028Y-34710640D01*
X145702690Y-34697313D01*
X145700674Y-34683722D01*
X145700000Y-34670000D01*
X145700000Y-34330000D01*
X145700674Y-34316278D01*
X145702690Y-34302687D01*
X145706028Y-34289360D01*
X145710657Y-34276424D01*
X145716531Y-34264004D01*
X145723594Y-34252220D01*
X145731779Y-34241185D01*
X145741005Y-34231005D01*
X145751185Y-34221779D01*
X145762220Y-34213594D01*
X145774004Y-34206531D01*
X145786424Y-34200657D01*
X145799360Y-34196028D01*
X145812687Y-34192690D01*
X145826278Y-34190674D01*
X145840000Y-34190000D01*
X146120000Y-34190000D01*
X146133722Y-34190674D01*
X146133722Y-34190674D01*
G37*
D15*
%TD*%
%TO.P,C9,2*%
%TO.N,GND*%
X145980000Y-34500000D03*
D13*
%TO.N,+3V3*%
%TO.C,C9*%
G36*
X145173722Y-34190674D02*
G01*
X145187313Y-34192690D01*
X145200640Y-34196028D01*
X145213576Y-34200657D01*
X145225996Y-34206531D01*
X145237780Y-34213594D01*
X145248815Y-34221779D01*
X145258995Y-34231005D01*
X145268221Y-34241185D01*
X145276406Y-34252220D01*
X145283469Y-34264004D01*
X145289343Y-34276424D01*
X145293972Y-34289360D01*
X145297310Y-34302687D01*
X145299326Y-34316278D01*
X145300000Y-34330000D01*
X145300000Y-34670000D01*
X145299326Y-34683722D01*
X145297310Y-34697313D01*
X145293972Y-34710640D01*
X145289343Y-34723576D01*
X145283469Y-34735996D01*
X145276406Y-34747780D01*
X145268221Y-34758815D01*
X145258995Y-34768995D01*
X145248815Y-34778221D01*
X145237780Y-34786406D01*
X145225996Y-34793469D01*
X145213576Y-34799343D01*
X145200640Y-34803972D01*
X145187313Y-34807310D01*
X145173722Y-34809326D01*
X145160000Y-34810000D01*
X144880000Y-34810000D01*
X144866278Y-34809326D01*
X144852687Y-34807310D01*
X144839360Y-34803972D01*
X144826424Y-34799343D01*
X144814004Y-34793469D01*
X144802220Y-34786406D01*
X144791185Y-34778221D01*
X144781005Y-34768995D01*
X144771779Y-34758815D01*
X144763594Y-34747780D01*
X144756531Y-34735996D01*
X144750657Y-34723576D01*
X144746028Y-34710640D01*
X144742690Y-34697313D01*
X144740674Y-34683722D01*
X144740000Y-34670000D01*
X144740000Y-34330000D01*
X144740674Y-34316278D01*
X144742690Y-34302687D01*
X144746028Y-34289360D01*
X144750657Y-34276424D01*
X144756531Y-34264004D01*
X144763594Y-34252220D01*
X144771779Y-34241185D01*
X144781005Y-34231005D01*
X144791185Y-34221779D01*
X144802220Y-34213594D01*
X144814004Y-34206531D01*
X144826424Y-34200657D01*
X144839360Y-34196028D01*
X144852687Y-34192690D01*
X144866278Y-34190674D01*
X144880000Y-34190000D01*
X145160000Y-34190000D01*
X145173722Y-34190674D01*
X145173722Y-34190674D01*
G37*
D15*
%TD*%
%TO.P,C9,1*%
%TO.N,+3V3*%
X145020000Y-34500000D03*
D13*
%TO.N,GND*%
%TO.C,C23*%
G36*
X146133722Y-35190674D02*
G01*
X146147313Y-35192690D01*
X146160640Y-35196028D01*
X146173576Y-35200657D01*
X146185996Y-35206531D01*
X146197780Y-35213594D01*
X146208815Y-35221779D01*
X146218995Y-35231005D01*
X146228221Y-35241185D01*
X146236406Y-35252220D01*
X146243469Y-35264004D01*
X146249343Y-35276424D01*
X146253972Y-35289360D01*
X146257310Y-35302687D01*
X146259326Y-35316278D01*
X146260000Y-35330000D01*
X146260000Y-35670000D01*
X146259326Y-35683722D01*
X146257310Y-35697313D01*
X146253972Y-35710640D01*
X146249343Y-35723576D01*
X146243469Y-35735996D01*
X146236406Y-35747780D01*
X146228221Y-35758815D01*
X146218995Y-35768995D01*
X146208815Y-35778221D01*
X146197780Y-35786406D01*
X146185996Y-35793469D01*
X146173576Y-35799343D01*
X146160640Y-35803972D01*
X146147313Y-35807310D01*
X146133722Y-35809326D01*
X146120000Y-35810000D01*
X145840000Y-35810000D01*
X145826278Y-35809326D01*
X145812687Y-35807310D01*
X145799360Y-35803972D01*
X145786424Y-35799343D01*
X145774004Y-35793469D01*
X145762220Y-35786406D01*
X145751185Y-35778221D01*
X145741005Y-35768995D01*
X145731779Y-35758815D01*
X145723594Y-35747780D01*
X145716531Y-35735996D01*
X145710657Y-35723576D01*
X145706028Y-35710640D01*
X145702690Y-35697313D01*
X145700674Y-35683722D01*
X145700000Y-35670000D01*
X145700000Y-35330000D01*
X145700674Y-35316278D01*
X145702690Y-35302687D01*
X145706028Y-35289360D01*
X145710657Y-35276424D01*
X145716531Y-35264004D01*
X145723594Y-35252220D01*
X145731779Y-35241185D01*
X145741005Y-35231005D01*
X145751185Y-35221779D01*
X145762220Y-35213594D01*
X145774004Y-35206531D01*
X145786424Y-35200657D01*
X145799360Y-35196028D01*
X145812687Y-35192690D01*
X145826278Y-35190674D01*
X145840000Y-35190000D01*
X146120000Y-35190000D01*
X146133722Y-35190674D01*
X146133722Y-35190674D01*
G37*
D15*
%TD*%
%TO.P,C23,2*%
%TO.N,GND*%
X145980000Y-35500000D03*
D13*
%TO.N,+3V3*%
%TO.C,C23*%
G36*
X145173722Y-35190674D02*
G01*
X145187313Y-35192690D01*
X145200640Y-35196028D01*
X145213576Y-35200657D01*
X145225996Y-35206531D01*
X145237780Y-35213594D01*
X145248815Y-35221779D01*
X145258995Y-35231005D01*
X145268221Y-35241185D01*
X145276406Y-35252220D01*
X145283469Y-35264004D01*
X145289343Y-35276424D01*
X145293972Y-35289360D01*
X145297310Y-35302687D01*
X145299326Y-35316278D01*
X145300000Y-35330000D01*
X145300000Y-35670000D01*
X145299326Y-35683722D01*
X145297310Y-35697313D01*
X145293972Y-35710640D01*
X145289343Y-35723576D01*
X145283469Y-35735996D01*
X145276406Y-35747780D01*
X145268221Y-35758815D01*
X145258995Y-35768995D01*
X145248815Y-35778221D01*
X145237780Y-35786406D01*
X145225996Y-35793469D01*
X145213576Y-35799343D01*
X145200640Y-35803972D01*
X145187313Y-35807310D01*
X145173722Y-35809326D01*
X145160000Y-35810000D01*
X144880000Y-35810000D01*
X144866278Y-35809326D01*
X144852687Y-35807310D01*
X144839360Y-35803972D01*
X144826424Y-35799343D01*
X144814004Y-35793469D01*
X144802220Y-35786406D01*
X144791185Y-35778221D01*
X144781005Y-35768995D01*
X144771779Y-35758815D01*
X144763594Y-35747780D01*
X144756531Y-35735996D01*
X144750657Y-35723576D01*
X144746028Y-35710640D01*
X144742690Y-35697313D01*
X144740674Y-35683722D01*
X144740000Y-35670000D01*
X144740000Y-35330000D01*
X144740674Y-35316278D01*
X144742690Y-35302687D01*
X144746028Y-35289360D01*
X144750657Y-35276424D01*
X144756531Y-35264004D01*
X144763594Y-35252220D01*
X144771779Y-35241185D01*
X144781005Y-35231005D01*
X144791185Y-35221779D01*
X144802220Y-35213594D01*
X144814004Y-35206531D01*
X144826424Y-35200657D01*
X144839360Y-35196028D01*
X144852687Y-35192690D01*
X144866278Y-35190674D01*
X144880000Y-35190000D01*
X145160000Y-35190000D01*
X145173722Y-35190674D01*
X145173722Y-35190674D01*
G37*
D15*
%TD*%
%TO.P,C23,1*%
%TO.N,+3V3*%
X145020000Y-35500000D03*
D13*
%TO.N,GND*%
%TO.C,C24*%
G36*
X146133722Y-36190674D02*
G01*
X146147313Y-36192690D01*
X146160640Y-36196028D01*
X146173576Y-36200657D01*
X146185996Y-36206531D01*
X146197780Y-36213594D01*
X146208815Y-36221779D01*
X146218995Y-36231005D01*
X146228221Y-36241185D01*
X146236406Y-36252220D01*
X146243469Y-36264004D01*
X146249343Y-36276424D01*
X146253972Y-36289360D01*
X146257310Y-36302687D01*
X146259326Y-36316278D01*
X146260000Y-36330000D01*
X146260000Y-36670000D01*
X146259326Y-36683722D01*
X146257310Y-36697313D01*
X146253972Y-36710640D01*
X146249343Y-36723576D01*
X146243469Y-36735996D01*
X146236406Y-36747780D01*
X146228221Y-36758815D01*
X146218995Y-36768995D01*
X146208815Y-36778221D01*
X146197780Y-36786406D01*
X146185996Y-36793469D01*
X146173576Y-36799343D01*
X146160640Y-36803972D01*
X146147313Y-36807310D01*
X146133722Y-36809326D01*
X146120000Y-36810000D01*
X145840000Y-36810000D01*
X145826278Y-36809326D01*
X145812687Y-36807310D01*
X145799360Y-36803972D01*
X145786424Y-36799343D01*
X145774004Y-36793469D01*
X145762220Y-36786406D01*
X145751185Y-36778221D01*
X145741005Y-36768995D01*
X145731779Y-36758815D01*
X145723594Y-36747780D01*
X145716531Y-36735996D01*
X145710657Y-36723576D01*
X145706028Y-36710640D01*
X145702690Y-36697313D01*
X145700674Y-36683722D01*
X145700000Y-36670000D01*
X145700000Y-36330000D01*
X145700674Y-36316278D01*
X145702690Y-36302687D01*
X145706028Y-36289360D01*
X145710657Y-36276424D01*
X145716531Y-36264004D01*
X145723594Y-36252220D01*
X145731779Y-36241185D01*
X145741005Y-36231005D01*
X145751185Y-36221779D01*
X145762220Y-36213594D01*
X145774004Y-36206531D01*
X145786424Y-36200657D01*
X145799360Y-36196028D01*
X145812687Y-36192690D01*
X145826278Y-36190674D01*
X145840000Y-36190000D01*
X146120000Y-36190000D01*
X146133722Y-36190674D01*
X146133722Y-36190674D01*
G37*
D15*
%TD*%
%TO.P,C24,2*%
%TO.N,GND*%
X145980000Y-36500000D03*
D13*
%TO.N,+3V3*%
%TO.C,C24*%
G36*
X145173722Y-36190674D02*
G01*
X145187313Y-36192690D01*
X145200640Y-36196028D01*
X145213576Y-36200657D01*
X145225996Y-36206531D01*
X145237780Y-36213594D01*
X145248815Y-36221779D01*
X145258995Y-36231005D01*
X145268221Y-36241185D01*
X145276406Y-36252220D01*
X145283469Y-36264004D01*
X145289343Y-36276424D01*
X145293972Y-36289360D01*
X145297310Y-36302687D01*
X145299326Y-36316278D01*
X145300000Y-36330000D01*
X145300000Y-36670000D01*
X145299326Y-36683722D01*
X145297310Y-36697313D01*
X145293972Y-36710640D01*
X145289343Y-36723576D01*
X145283469Y-36735996D01*
X145276406Y-36747780D01*
X145268221Y-36758815D01*
X145258995Y-36768995D01*
X145248815Y-36778221D01*
X145237780Y-36786406D01*
X145225996Y-36793469D01*
X145213576Y-36799343D01*
X145200640Y-36803972D01*
X145187313Y-36807310D01*
X145173722Y-36809326D01*
X145160000Y-36810000D01*
X144880000Y-36810000D01*
X144866278Y-36809326D01*
X144852687Y-36807310D01*
X144839360Y-36803972D01*
X144826424Y-36799343D01*
X144814004Y-36793469D01*
X144802220Y-36786406D01*
X144791185Y-36778221D01*
X144781005Y-36768995D01*
X144771779Y-36758815D01*
X144763594Y-36747780D01*
X144756531Y-36735996D01*
X144750657Y-36723576D01*
X144746028Y-36710640D01*
X144742690Y-36697313D01*
X144740674Y-36683722D01*
X144740000Y-36670000D01*
X144740000Y-36330000D01*
X144740674Y-36316278D01*
X144742690Y-36302687D01*
X144746028Y-36289360D01*
X144750657Y-36276424D01*
X144756531Y-36264004D01*
X144763594Y-36252220D01*
X144771779Y-36241185D01*
X144781005Y-36231005D01*
X144791185Y-36221779D01*
X144802220Y-36213594D01*
X144814004Y-36206531D01*
X144826424Y-36200657D01*
X144839360Y-36196028D01*
X144852687Y-36192690D01*
X144866278Y-36190674D01*
X144880000Y-36190000D01*
X145160000Y-36190000D01*
X145173722Y-36190674D01*
X145173722Y-36190674D01*
G37*
D15*
%TD*%
%TO.P,C24,1*%
%TO.N,+3V3*%
X145020000Y-36500000D03*
D13*
%TO.N,GND*%
%TO.C,C25*%
G36*
X146133722Y-38190674D02*
G01*
X146147313Y-38192690D01*
X146160640Y-38196028D01*
X146173576Y-38200657D01*
X146185996Y-38206531D01*
X146197780Y-38213594D01*
X146208815Y-38221779D01*
X146218995Y-38231005D01*
X146228221Y-38241185D01*
X146236406Y-38252220D01*
X146243469Y-38264004D01*
X146249343Y-38276424D01*
X146253972Y-38289360D01*
X146257310Y-38302687D01*
X146259326Y-38316278D01*
X146260000Y-38330000D01*
X146260000Y-38670000D01*
X146259326Y-38683722D01*
X146257310Y-38697313D01*
X146253972Y-38710640D01*
X146249343Y-38723576D01*
X146243469Y-38735996D01*
X146236406Y-38747780D01*
X146228221Y-38758815D01*
X146218995Y-38768995D01*
X146208815Y-38778221D01*
X146197780Y-38786406D01*
X146185996Y-38793469D01*
X146173576Y-38799343D01*
X146160640Y-38803972D01*
X146147313Y-38807310D01*
X146133722Y-38809326D01*
X146120000Y-38810000D01*
X145840000Y-38810000D01*
X145826278Y-38809326D01*
X145812687Y-38807310D01*
X145799360Y-38803972D01*
X145786424Y-38799343D01*
X145774004Y-38793469D01*
X145762220Y-38786406D01*
X145751185Y-38778221D01*
X145741005Y-38768995D01*
X145731779Y-38758815D01*
X145723594Y-38747780D01*
X145716531Y-38735996D01*
X145710657Y-38723576D01*
X145706028Y-38710640D01*
X145702690Y-38697313D01*
X145700674Y-38683722D01*
X145700000Y-38670000D01*
X145700000Y-38330000D01*
X145700674Y-38316278D01*
X145702690Y-38302687D01*
X145706028Y-38289360D01*
X145710657Y-38276424D01*
X145716531Y-38264004D01*
X145723594Y-38252220D01*
X145731779Y-38241185D01*
X145741005Y-38231005D01*
X145751185Y-38221779D01*
X145762220Y-38213594D01*
X145774004Y-38206531D01*
X145786424Y-38200657D01*
X145799360Y-38196028D01*
X145812687Y-38192690D01*
X145826278Y-38190674D01*
X145840000Y-38190000D01*
X146120000Y-38190000D01*
X146133722Y-38190674D01*
X146133722Y-38190674D01*
G37*
D15*
%TD*%
%TO.P,C25,2*%
%TO.N,GND*%
X145980000Y-38500000D03*
D13*
%TO.N,+3V3*%
%TO.C,C25*%
G36*
X145173722Y-38190674D02*
G01*
X145187313Y-38192690D01*
X145200640Y-38196028D01*
X145213576Y-38200657D01*
X145225996Y-38206531D01*
X145237780Y-38213594D01*
X145248815Y-38221779D01*
X145258995Y-38231005D01*
X145268221Y-38241185D01*
X145276406Y-38252220D01*
X145283469Y-38264004D01*
X145289343Y-38276424D01*
X145293972Y-38289360D01*
X145297310Y-38302687D01*
X145299326Y-38316278D01*
X145300000Y-38330000D01*
X145300000Y-38670000D01*
X145299326Y-38683722D01*
X145297310Y-38697313D01*
X145293972Y-38710640D01*
X145289343Y-38723576D01*
X145283469Y-38735996D01*
X145276406Y-38747780D01*
X145268221Y-38758815D01*
X145258995Y-38768995D01*
X145248815Y-38778221D01*
X145237780Y-38786406D01*
X145225996Y-38793469D01*
X145213576Y-38799343D01*
X145200640Y-38803972D01*
X145187313Y-38807310D01*
X145173722Y-38809326D01*
X145160000Y-38810000D01*
X144880000Y-38810000D01*
X144866278Y-38809326D01*
X144852687Y-38807310D01*
X144839360Y-38803972D01*
X144826424Y-38799343D01*
X144814004Y-38793469D01*
X144802220Y-38786406D01*
X144791185Y-38778221D01*
X144781005Y-38768995D01*
X144771779Y-38758815D01*
X144763594Y-38747780D01*
X144756531Y-38735996D01*
X144750657Y-38723576D01*
X144746028Y-38710640D01*
X144742690Y-38697313D01*
X144740674Y-38683722D01*
X144740000Y-38670000D01*
X144740000Y-38330000D01*
X144740674Y-38316278D01*
X144742690Y-38302687D01*
X144746028Y-38289360D01*
X144750657Y-38276424D01*
X144756531Y-38264004D01*
X144763594Y-38252220D01*
X144771779Y-38241185D01*
X144781005Y-38231005D01*
X144791185Y-38221779D01*
X144802220Y-38213594D01*
X144814004Y-38206531D01*
X144826424Y-38200657D01*
X144839360Y-38196028D01*
X144852687Y-38192690D01*
X144866278Y-38190674D01*
X144880000Y-38190000D01*
X145160000Y-38190000D01*
X145173722Y-38190674D01*
X145173722Y-38190674D01*
G37*
D15*
%TD*%
%TO.P,C25,1*%
%TO.N,+3V3*%
X145020000Y-38500000D03*
D13*
%TO.N,GND*%
%TO.C,C26*%
G36*
X146133722Y-37190674D02*
G01*
X146147313Y-37192690D01*
X146160640Y-37196028D01*
X146173576Y-37200657D01*
X146185996Y-37206531D01*
X146197780Y-37213594D01*
X146208815Y-37221779D01*
X146218995Y-37231005D01*
X146228221Y-37241185D01*
X146236406Y-37252220D01*
X146243469Y-37264004D01*
X146249343Y-37276424D01*
X146253972Y-37289360D01*
X146257310Y-37302687D01*
X146259326Y-37316278D01*
X146260000Y-37330000D01*
X146260000Y-37670000D01*
X146259326Y-37683722D01*
X146257310Y-37697313D01*
X146253972Y-37710640D01*
X146249343Y-37723576D01*
X146243469Y-37735996D01*
X146236406Y-37747780D01*
X146228221Y-37758815D01*
X146218995Y-37768995D01*
X146208815Y-37778221D01*
X146197780Y-37786406D01*
X146185996Y-37793469D01*
X146173576Y-37799343D01*
X146160640Y-37803972D01*
X146147313Y-37807310D01*
X146133722Y-37809326D01*
X146120000Y-37810000D01*
X145840000Y-37810000D01*
X145826278Y-37809326D01*
X145812687Y-37807310D01*
X145799360Y-37803972D01*
X145786424Y-37799343D01*
X145774004Y-37793469D01*
X145762220Y-37786406D01*
X145751185Y-37778221D01*
X145741005Y-37768995D01*
X145731779Y-37758815D01*
X145723594Y-37747780D01*
X145716531Y-37735996D01*
X145710657Y-37723576D01*
X145706028Y-37710640D01*
X145702690Y-37697313D01*
X145700674Y-37683722D01*
X145700000Y-37670000D01*
X145700000Y-37330000D01*
X145700674Y-37316278D01*
X145702690Y-37302687D01*
X145706028Y-37289360D01*
X145710657Y-37276424D01*
X145716531Y-37264004D01*
X145723594Y-37252220D01*
X145731779Y-37241185D01*
X145741005Y-37231005D01*
X145751185Y-37221779D01*
X145762220Y-37213594D01*
X145774004Y-37206531D01*
X145786424Y-37200657D01*
X145799360Y-37196028D01*
X145812687Y-37192690D01*
X145826278Y-37190674D01*
X145840000Y-37190000D01*
X146120000Y-37190000D01*
X146133722Y-37190674D01*
X146133722Y-37190674D01*
G37*
D15*
%TD*%
%TO.P,C26,2*%
%TO.N,GND*%
X145980000Y-37500000D03*
D13*
%TO.N,+3V3*%
%TO.C,C26*%
G36*
X145173722Y-37190674D02*
G01*
X145187313Y-37192690D01*
X145200640Y-37196028D01*
X145213576Y-37200657D01*
X145225996Y-37206531D01*
X145237780Y-37213594D01*
X145248815Y-37221779D01*
X145258995Y-37231005D01*
X145268221Y-37241185D01*
X145276406Y-37252220D01*
X145283469Y-37264004D01*
X145289343Y-37276424D01*
X145293972Y-37289360D01*
X145297310Y-37302687D01*
X145299326Y-37316278D01*
X145300000Y-37330000D01*
X145300000Y-37670000D01*
X145299326Y-37683722D01*
X145297310Y-37697313D01*
X145293972Y-37710640D01*
X145289343Y-37723576D01*
X145283469Y-37735996D01*
X145276406Y-37747780D01*
X145268221Y-37758815D01*
X145258995Y-37768995D01*
X145248815Y-37778221D01*
X145237780Y-37786406D01*
X145225996Y-37793469D01*
X145213576Y-37799343D01*
X145200640Y-37803972D01*
X145187313Y-37807310D01*
X145173722Y-37809326D01*
X145160000Y-37810000D01*
X144880000Y-37810000D01*
X144866278Y-37809326D01*
X144852687Y-37807310D01*
X144839360Y-37803972D01*
X144826424Y-37799343D01*
X144814004Y-37793469D01*
X144802220Y-37786406D01*
X144791185Y-37778221D01*
X144781005Y-37768995D01*
X144771779Y-37758815D01*
X144763594Y-37747780D01*
X144756531Y-37735996D01*
X144750657Y-37723576D01*
X144746028Y-37710640D01*
X144742690Y-37697313D01*
X144740674Y-37683722D01*
X144740000Y-37670000D01*
X144740000Y-37330000D01*
X144740674Y-37316278D01*
X144742690Y-37302687D01*
X144746028Y-37289360D01*
X144750657Y-37276424D01*
X144756531Y-37264004D01*
X144763594Y-37252220D01*
X144771779Y-37241185D01*
X144781005Y-37231005D01*
X144791185Y-37221779D01*
X144802220Y-37213594D01*
X144814004Y-37206531D01*
X144826424Y-37200657D01*
X144839360Y-37196028D01*
X144852687Y-37192690D01*
X144866278Y-37190674D01*
X144880000Y-37190000D01*
X145160000Y-37190000D01*
X145173722Y-37190674D01*
X145173722Y-37190674D01*
G37*
D15*
%TD*%
%TO.P,C26,1*%
%TO.N,+3V3*%
X145020000Y-37500000D03*
D13*
%TO.N,Net-(D2-Pad2)*%
%TO.C,D2*%
G36*
X124146958Y-50680710D02*
G01*
X124161276Y-50682834D01*
X124175317Y-50686351D01*
X124188946Y-50691228D01*
X124202031Y-50697417D01*
X124214447Y-50704858D01*
X124226073Y-50713481D01*
X124236798Y-50723202D01*
X124246519Y-50733927D01*
X124255142Y-50745553D01*
X124262583Y-50757969D01*
X124268772Y-50771054D01*
X124273649Y-50784683D01*
X124277166Y-50798724D01*
X124279290Y-50813042D01*
X124280000Y-50827500D01*
X124280000Y-51172500D01*
X124279290Y-51186958D01*
X124277166Y-51201276D01*
X124273649Y-51215317D01*
X124268772Y-51228946D01*
X124262583Y-51242031D01*
X124255142Y-51254447D01*
X124246519Y-51266073D01*
X124236798Y-51276798D01*
X124226073Y-51286519D01*
X124214447Y-51295142D01*
X124202031Y-51302583D01*
X124188946Y-51308772D01*
X124175317Y-51313649D01*
X124161276Y-51317166D01*
X124146958Y-51319290D01*
X124132500Y-51320000D01*
X123837500Y-51320000D01*
X123823042Y-51319290D01*
X123808724Y-51317166D01*
X123794683Y-51313649D01*
X123781054Y-51308772D01*
X123767969Y-51302583D01*
X123755553Y-51295142D01*
X123743927Y-51286519D01*
X123733202Y-51276798D01*
X123723481Y-51266073D01*
X123714858Y-51254447D01*
X123707417Y-51242031D01*
X123701228Y-51228946D01*
X123696351Y-51215317D01*
X123692834Y-51201276D01*
X123690710Y-51186958D01*
X123690000Y-51172500D01*
X123690000Y-50827500D01*
X123690710Y-50813042D01*
X123692834Y-50798724D01*
X123696351Y-50784683D01*
X123701228Y-50771054D01*
X123707417Y-50757969D01*
X123714858Y-50745553D01*
X123723481Y-50733927D01*
X123733202Y-50723202D01*
X123743927Y-50713481D01*
X123755553Y-50704858D01*
X123767969Y-50697417D01*
X123781054Y-50691228D01*
X123794683Y-50686351D01*
X123808724Y-50682834D01*
X123823042Y-50680710D01*
X123837500Y-50680000D01*
X124132500Y-50680000D01*
X124146958Y-50680710D01*
X124146958Y-50680710D01*
G37*
D14*
%TD*%
%TO.P,D2,2*%
%TO.N,Net-(D2-Pad2)*%
X123985000Y-51000000D03*
D13*
%TO.N,+3V3*%
%TO.C,D2*%
G36*
X123176958Y-50680710D02*
G01*
X123191276Y-50682834D01*
X123205317Y-50686351D01*
X123218946Y-50691228D01*
X123232031Y-50697417D01*
X123244447Y-50704858D01*
X123256073Y-50713481D01*
X123266798Y-50723202D01*
X123276519Y-50733927D01*
X123285142Y-50745553D01*
X123292583Y-50757969D01*
X123298772Y-50771054D01*
X123303649Y-50784683D01*
X123307166Y-50798724D01*
X123309290Y-50813042D01*
X123310000Y-50827500D01*
X123310000Y-51172500D01*
X123309290Y-51186958D01*
X123307166Y-51201276D01*
X123303649Y-51215317D01*
X123298772Y-51228946D01*
X123292583Y-51242031D01*
X123285142Y-51254447D01*
X123276519Y-51266073D01*
X123266798Y-51276798D01*
X123256073Y-51286519D01*
X123244447Y-51295142D01*
X123232031Y-51302583D01*
X123218946Y-51308772D01*
X123205317Y-51313649D01*
X123191276Y-51317166D01*
X123176958Y-51319290D01*
X123162500Y-51320000D01*
X122867500Y-51320000D01*
X122853042Y-51319290D01*
X122838724Y-51317166D01*
X122824683Y-51313649D01*
X122811054Y-51308772D01*
X122797969Y-51302583D01*
X122785553Y-51295142D01*
X122773927Y-51286519D01*
X122763202Y-51276798D01*
X122753481Y-51266073D01*
X122744858Y-51254447D01*
X122737417Y-51242031D01*
X122731228Y-51228946D01*
X122726351Y-51215317D01*
X122722834Y-51201276D01*
X122720710Y-51186958D01*
X122720000Y-51172500D01*
X122720000Y-50827500D01*
X122720710Y-50813042D01*
X122722834Y-50798724D01*
X122726351Y-50784683D01*
X122731228Y-50771054D01*
X122737417Y-50757969D01*
X122744858Y-50745553D01*
X122753481Y-50733927D01*
X122763202Y-50723202D01*
X122773927Y-50713481D01*
X122785553Y-50704858D01*
X122797969Y-50697417D01*
X122811054Y-50691228D01*
X122824683Y-50686351D01*
X122838724Y-50682834D01*
X122853042Y-50680710D01*
X122867500Y-50680000D01*
X123162500Y-50680000D01*
X123176958Y-50680710D01*
X123176958Y-50680710D01*
G37*
D14*
%TD*%
%TO.P,D2,1*%
%TO.N,+3V3*%
X123015000Y-51000000D03*
D13*
%TO.N,Net-(IC1-Pad13)*%
%TO.C,R1*%
G36*
X143158232Y-49180650D02*
G01*
X143171337Y-49182594D01*
X143184188Y-49185813D01*
X143196662Y-49190276D01*
X143208639Y-49195941D01*
X143220002Y-49202752D01*
X143230643Y-49210644D01*
X143240459Y-49219541D01*
X143249356Y-49229357D01*
X143257248Y-49239998D01*
X143264059Y-49251361D01*
X143269724Y-49263338D01*
X143274187Y-49275812D01*
X143277406Y-49288663D01*
X143279350Y-49301768D01*
X143280000Y-49315000D01*
X143280000Y-49685000D01*
X143279350Y-49698232D01*
X143277406Y-49711337D01*
X143274187Y-49724188D01*
X143269724Y-49736662D01*
X143264059Y-49748639D01*
X143257248Y-49760002D01*
X143249356Y-49770643D01*
X143240459Y-49780459D01*
X143230643Y-49789356D01*
X143220002Y-49797248D01*
X143208639Y-49804059D01*
X143196662Y-49809724D01*
X143184188Y-49814187D01*
X143171337Y-49817406D01*
X143158232Y-49819350D01*
X143145000Y-49820000D01*
X142875000Y-49820000D01*
X142861768Y-49819350D01*
X142848663Y-49817406D01*
X142835812Y-49814187D01*
X142823338Y-49809724D01*
X142811361Y-49804059D01*
X142799998Y-49797248D01*
X142789357Y-49789356D01*
X142779541Y-49780459D01*
X142770644Y-49770643D01*
X142762752Y-49760002D01*
X142755941Y-49748639D01*
X142750276Y-49736662D01*
X142745813Y-49724188D01*
X142742594Y-49711337D01*
X142740650Y-49698232D01*
X142740000Y-49685000D01*
X142740000Y-49315000D01*
X142740650Y-49301768D01*
X142742594Y-49288663D01*
X142745813Y-49275812D01*
X142750276Y-49263338D01*
X142755941Y-49251361D01*
X142762752Y-49239998D01*
X142770644Y-49229357D01*
X142779541Y-49219541D01*
X142789357Y-49210644D01*
X142799998Y-49202752D01*
X142811361Y-49195941D01*
X142823338Y-49190276D01*
X142835812Y-49185813D01*
X142848663Y-49182594D01*
X142861768Y-49180650D01*
X142875000Y-49180000D01*
X143145000Y-49180000D01*
X143158232Y-49180650D01*
X143158232Y-49180650D01*
G37*
D19*
%TD*%
%TO.P,R1,2*%
%TO.N,Net-(IC1-Pad13)*%
X143010000Y-49500000D03*
D13*
%TO.N,+3V3*%
%TO.C,R1*%
G36*
X142138232Y-49180650D02*
G01*
X142151337Y-49182594D01*
X142164188Y-49185813D01*
X142176662Y-49190276D01*
X142188639Y-49195941D01*
X142200002Y-49202752D01*
X142210643Y-49210644D01*
X142220459Y-49219541D01*
X142229356Y-49229357D01*
X142237248Y-49239998D01*
X142244059Y-49251361D01*
X142249724Y-49263338D01*
X142254187Y-49275812D01*
X142257406Y-49288663D01*
X142259350Y-49301768D01*
X142260000Y-49315000D01*
X142260000Y-49685000D01*
X142259350Y-49698232D01*
X142257406Y-49711337D01*
X142254187Y-49724188D01*
X142249724Y-49736662D01*
X142244059Y-49748639D01*
X142237248Y-49760002D01*
X142229356Y-49770643D01*
X142220459Y-49780459D01*
X142210643Y-49789356D01*
X142200002Y-49797248D01*
X142188639Y-49804059D01*
X142176662Y-49809724D01*
X142164188Y-49814187D01*
X142151337Y-49817406D01*
X142138232Y-49819350D01*
X142125000Y-49820000D01*
X141855000Y-49820000D01*
X141841768Y-49819350D01*
X141828663Y-49817406D01*
X141815812Y-49814187D01*
X141803338Y-49809724D01*
X141791361Y-49804059D01*
X141779998Y-49797248D01*
X141769357Y-49789356D01*
X141759541Y-49780459D01*
X141750644Y-49770643D01*
X141742752Y-49760002D01*
X141735941Y-49748639D01*
X141730276Y-49736662D01*
X141725813Y-49724188D01*
X141722594Y-49711337D01*
X141720650Y-49698232D01*
X141720000Y-49685000D01*
X141720000Y-49315000D01*
X141720650Y-49301768D01*
X141722594Y-49288663D01*
X141725813Y-49275812D01*
X141730276Y-49263338D01*
X141735941Y-49251361D01*
X141742752Y-49239998D01*
X141750644Y-49229357D01*
X141759541Y-49219541D01*
X141769357Y-49210644D01*
X141779998Y-49202752D01*
X141791361Y-49195941D01*
X141803338Y-49190276D01*
X141815812Y-49185813D01*
X141828663Y-49182594D01*
X141841768Y-49180650D01*
X141855000Y-49180000D01*
X142125000Y-49180000D01*
X142138232Y-49180650D01*
X142138232Y-49180650D01*
G37*
D19*
%TD*%
%TO.P,R1,1*%
%TO.N,+3V3*%
X141990000Y-49500000D03*
D13*
%TO.N,Net-(R2-Pad2)*%
%TO.C,R2*%
G36*
X144198232Y-44230650D02*
G01*
X144211337Y-44232594D01*
X144224188Y-44235813D01*
X144236662Y-44240276D01*
X144248639Y-44245941D01*
X144260002Y-44252752D01*
X144270643Y-44260644D01*
X144280459Y-44269541D01*
X144289356Y-44279357D01*
X144297248Y-44289998D01*
X144304059Y-44301361D01*
X144309724Y-44313338D01*
X144314187Y-44325812D01*
X144317406Y-44338663D01*
X144319350Y-44351768D01*
X144320000Y-44365000D01*
X144320000Y-44635000D01*
X144319350Y-44648232D01*
X144317406Y-44661337D01*
X144314187Y-44674188D01*
X144309724Y-44686662D01*
X144304059Y-44698639D01*
X144297248Y-44710002D01*
X144289356Y-44720643D01*
X144280459Y-44730459D01*
X144270643Y-44739356D01*
X144260002Y-44747248D01*
X144248639Y-44754059D01*
X144236662Y-44759724D01*
X144224188Y-44764187D01*
X144211337Y-44767406D01*
X144198232Y-44769350D01*
X144185000Y-44770000D01*
X143815000Y-44770000D01*
X143801768Y-44769350D01*
X143788663Y-44767406D01*
X143775812Y-44764187D01*
X143763338Y-44759724D01*
X143751361Y-44754059D01*
X143739998Y-44747248D01*
X143729357Y-44739356D01*
X143719541Y-44730459D01*
X143710644Y-44720643D01*
X143702752Y-44710002D01*
X143695941Y-44698639D01*
X143690276Y-44686662D01*
X143685813Y-44674188D01*
X143682594Y-44661337D01*
X143680650Y-44648232D01*
X143680000Y-44635000D01*
X143680000Y-44365000D01*
X143680650Y-44351768D01*
X143682594Y-44338663D01*
X143685813Y-44325812D01*
X143690276Y-44313338D01*
X143695941Y-44301361D01*
X143702752Y-44289998D01*
X143710644Y-44279357D01*
X143719541Y-44269541D01*
X143729357Y-44260644D01*
X143739998Y-44252752D01*
X143751361Y-44245941D01*
X143763338Y-44240276D01*
X143775812Y-44235813D01*
X143788663Y-44232594D01*
X143801768Y-44230650D01*
X143815000Y-44230000D01*
X144185000Y-44230000D01*
X144198232Y-44230650D01*
X144198232Y-44230650D01*
G37*
D19*
%TD*%
%TO.P,R2,2*%
%TO.N,Net-(R2-Pad2)*%
X144000000Y-44500000D03*
D13*
%TO.N,Net-(R2-Pad1)*%
%TO.C,R2*%
G36*
X144198232Y-45250650D02*
G01*
X144211337Y-45252594D01*
X144224188Y-45255813D01*
X144236662Y-45260276D01*
X144248639Y-45265941D01*
X144260002Y-45272752D01*
X144270643Y-45280644D01*
X144280459Y-45289541D01*
X144289356Y-45299357D01*
X144297248Y-45309998D01*
X144304059Y-45321361D01*
X144309724Y-45333338D01*
X144314187Y-45345812D01*
X144317406Y-45358663D01*
X144319350Y-45371768D01*
X144320000Y-45385000D01*
X144320000Y-45655000D01*
X144319350Y-45668232D01*
X144317406Y-45681337D01*
X144314187Y-45694188D01*
X144309724Y-45706662D01*
X144304059Y-45718639D01*
X144297248Y-45730002D01*
X144289356Y-45740643D01*
X144280459Y-45750459D01*
X144270643Y-45759356D01*
X144260002Y-45767248D01*
X144248639Y-45774059D01*
X144236662Y-45779724D01*
X144224188Y-45784187D01*
X144211337Y-45787406D01*
X144198232Y-45789350D01*
X144185000Y-45790000D01*
X143815000Y-45790000D01*
X143801768Y-45789350D01*
X143788663Y-45787406D01*
X143775812Y-45784187D01*
X143763338Y-45779724D01*
X143751361Y-45774059D01*
X143739998Y-45767248D01*
X143729357Y-45759356D01*
X143719541Y-45750459D01*
X143710644Y-45740643D01*
X143702752Y-45730002D01*
X143695941Y-45718639D01*
X143690276Y-45706662D01*
X143685813Y-45694188D01*
X143682594Y-45681337D01*
X143680650Y-45668232D01*
X143680000Y-45655000D01*
X143680000Y-45385000D01*
X143680650Y-45371768D01*
X143682594Y-45358663D01*
X143685813Y-45345812D01*
X143690276Y-45333338D01*
X143695941Y-45321361D01*
X143702752Y-45309998D01*
X143710644Y-45299357D01*
X143719541Y-45289541D01*
X143729357Y-45280644D01*
X143739998Y-45272752D01*
X143751361Y-45265941D01*
X143763338Y-45260276D01*
X143775812Y-45255813D01*
X143788663Y-45252594D01*
X143801768Y-45250650D01*
X143815000Y-45250000D01*
X144185000Y-45250000D01*
X144198232Y-45250650D01*
X144198232Y-45250650D01*
G37*
D19*
%TD*%
%TO.P,R2,1*%
%TO.N,Net-(R2-Pad1)*%
X144000000Y-45520000D03*
D13*
%TO.N,GND*%
%TO.C,R3*%
G36*
X137638232Y-54180650D02*
G01*
X137651337Y-54182594D01*
X137664188Y-54185813D01*
X137676662Y-54190276D01*
X137688639Y-54195941D01*
X137700002Y-54202752D01*
X137710643Y-54210644D01*
X137720459Y-54219541D01*
X137729356Y-54229357D01*
X137737248Y-54239998D01*
X137744059Y-54251361D01*
X137749724Y-54263338D01*
X137754187Y-54275812D01*
X137757406Y-54288663D01*
X137759350Y-54301768D01*
X137760000Y-54315000D01*
X137760000Y-54685000D01*
X137759350Y-54698232D01*
X137757406Y-54711337D01*
X137754187Y-54724188D01*
X137749724Y-54736662D01*
X137744059Y-54748639D01*
X137737248Y-54760002D01*
X137729356Y-54770643D01*
X137720459Y-54780459D01*
X137710643Y-54789356D01*
X137700002Y-54797248D01*
X137688639Y-54804059D01*
X137676662Y-54809724D01*
X137664188Y-54814187D01*
X137651337Y-54817406D01*
X137638232Y-54819350D01*
X137625000Y-54820000D01*
X137355000Y-54820000D01*
X137341768Y-54819350D01*
X137328663Y-54817406D01*
X137315812Y-54814187D01*
X137303338Y-54809724D01*
X137291361Y-54804059D01*
X137279998Y-54797248D01*
X137269357Y-54789356D01*
X137259541Y-54780459D01*
X137250644Y-54770643D01*
X137242752Y-54760002D01*
X137235941Y-54748639D01*
X137230276Y-54736662D01*
X137225813Y-54724188D01*
X137222594Y-54711337D01*
X137220650Y-54698232D01*
X137220000Y-54685000D01*
X137220000Y-54315000D01*
X137220650Y-54301768D01*
X137222594Y-54288663D01*
X137225813Y-54275812D01*
X137230276Y-54263338D01*
X137235941Y-54251361D01*
X137242752Y-54239998D01*
X137250644Y-54229357D01*
X137259541Y-54219541D01*
X137269357Y-54210644D01*
X137279998Y-54202752D01*
X137291361Y-54195941D01*
X137303338Y-54190276D01*
X137315812Y-54185813D01*
X137328663Y-54182594D01*
X137341768Y-54180650D01*
X137355000Y-54180000D01*
X137625000Y-54180000D01*
X137638232Y-54180650D01*
X137638232Y-54180650D01*
G37*
D19*
%TD*%
%TO.P,R3,2*%
%TO.N,GND*%
X137490000Y-54500000D03*
D13*
%TO.N,Net-(R3-Pad1)*%
%TO.C,R3*%
G36*
X138658232Y-54180650D02*
G01*
X138671337Y-54182594D01*
X138684188Y-54185813D01*
X138696662Y-54190276D01*
X138708639Y-54195941D01*
X138720002Y-54202752D01*
X138730643Y-54210644D01*
X138740459Y-54219541D01*
X138749356Y-54229357D01*
X138757248Y-54239998D01*
X138764059Y-54251361D01*
X138769724Y-54263338D01*
X138774187Y-54275812D01*
X138777406Y-54288663D01*
X138779350Y-54301768D01*
X138780000Y-54315000D01*
X138780000Y-54685000D01*
X138779350Y-54698232D01*
X138777406Y-54711337D01*
X138774187Y-54724188D01*
X138769724Y-54736662D01*
X138764059Y-54748639D01*
X138757248Y-54760002D01*
X138749356Y-54770643D01*
X138740459Y-54780459D01*
X138730643Y-54789356D01*
X138720002Y-54797248D01*
X138708639Y-54804059D01*
X138696662Y-54809724D01*
X138684188Y-54814187D01*
X138671337Y-54817406D01*
X138658232Y-54819350D01*
X138645000Y-54820000D01*
X138375000Y-54820000D01*
X138361768Y-54819350D01*
X138348663Y-54817406D01*
X138335812Y-54814187D01*
X138323338Y-54809724D01*
X138311361Y-54804059D01*
X138299998Y-54797248D01*
X138289357Y-54789356D01*
X138279541Y-54780459D01*
X138270644Y-54770643D01*
X138262752Y-54760002D01*
X138255941Y-54748639D01*
X138250276Y-54736662D01*
X138245813Y-54724188D01*
X138242594Y-54711337D01*
X138240650Y-54698232D01*
X138240000Y-54685000D01*
X138240000Y-54315000D01*
X138240650Y-54301768D01*
X138242594Y-54288663D01*
X138245813Y-54275812D01*
X138250276Y-54263338D01*
X138255941Y-54251361D01*
X138262752Y-54239998D01*
X138270644Y-54229357D01*
X138279541Y-54219541D01*
X138289357Y-54210644D01*
X138299998Y-54202752D01*
X138311361Y-54195941D01*
X138323338Y-54190276D01*
X138335812Y-54185813D01*
X138348663Y-54182594D01*
X138361768Y-54180650D01*
X138375000Y-54180000D01*
X138645000Y-54180000D01*
X138658232Y-54180650D01*
X138658232Y-54180650D01*
G37*
D19*
%TD*%
%TO.P,R3,1*%
%TO.N,Net-(R3-Pad1)*%
X138510000Y-54500000D03*
D13*
%TO.N,GND*%
%TO.C,R4*%
G36*
X128638232Y-54180650D02*
G01*
X128651337Y-54182594D01*
X128664188Y-54185813D01*
X128676662Y-54190276D01*
X128688639Y-54195941D01*
X128700002Y-54202752D01*
X128710643Y-54210644D01*
X128720459Y-54219541D01*
X128729356Y-54229357D01*
X128737248Y-54239998D01*
X128744059Y-54251361D01*
X128749724Y-54263338D01*
X128754187Y-54275812D01*
X128757406Y-54288663D01*
X128759350Y-54301768D01*
X128760000Y-54315000D01*
X128760000Y-54685000D01*
X128759350Y-54698232D01*
X128757406Y-54711337D01*
X128754187Y-54724188D01*
X128749724Y-54736662D01*
X128744059Y-54748639D01*
X128737248Y-54760002D01*
X128729356Y-54770643D01*
X128720459Y-54780459D01*
X128710643Y-54789356D01*
X128700002Y-54797248D01*
X128688639Y-54804059D01*
X128676662Y-54809724D01*
X128664188Y-54814187D01*
X128651337Y-54817406D01*
X128638232Y-54819350D01*
X128625000Y-54820000D01*
X128355000Y-54820000D01*
X128341768Y-54819350D01*
X128328663Y-54817406D01*
X128315812Y-54814187D01*
X128303338Y-54809724D01*
X128291361Y-54804059D01*
X128279998Y-54797248D01*
X128269357Y-54789356D01*
X128259541Y-54780459D01*
X128250644Y-54770643D01*
X128242752Y-54760002D01*
X128235941Y-54748639D01*
X128230276Y-54736662D01*
X128225813Y-54724188D01*
X128222594Y-54711337D01*
X128220650Y-54698232D01*
X128220000Y-54685000D01*
X128220000Y-54315000D01*
X128220650Y-54301768D01*
X128222594Y-54288663D01*
X128225813Y-54275812D01*
X128230276Y-54263338D01*
X128235941Y-54251361D01*
X128242752Y-54239998D01*
X128250644Y-54229357D01*
X128259541Y-54219541D01*
X128269357Y-54210644D01*
X128279998Y-54202752D01*
X128291361Y-54195941D01*
X128303338Y-54190276D01*
X128315812Y-54185813D01*
X128328663Y-54182594D01*
X128341768Y-54180650D01*
X128355000Y-54180000D01*
X128625000Y-54180000D01*
X128638232Y-54180650D01*
X128638232Y-54180650D01*
G37*
D19*
%TD*%
%TO.P,R4,2*%
%TO.N,GND*%
X128490000Y-54500000D03*
D13*
%TO.N,Net-(R4-Pad1)*%
%TO.C,R4*%
G36*
X129658232Y-54180650D02*
G01*
X129671337Y-54182594D01*
X129684188Y-54185813D01*
X129696662Y-54190276D01*
X129708639Y-54195941D01*
X129720002Y-54202752D01*
X129730643Y-54210644D01*
X129740459Y-54219541D01*
X129749356Y-54229357D01*
X129757248Y-54239998D01*
X129764059Y-54251361D01*
X129769724Y-54263338D01*
X129774187Y-54275812D01*
X129777406Y-54288663D01*
X129779350Y-54301768D01*
X129780000Y-54315000D01*
X129780000Y-54685000D01*
X129779350Y-54698232D01*
X129777406Y-54711337D01*
X129774187Y-54724188D01*
X129769724Y-54736662D01*
X129764059Y-54748639D01*
X129757248Y-54760002D01*
X129749356Y-54770643D01*
X129740459Y-54780459D01*
X129730643Y-54789356D01*
X129720002Y-54797248D01*
X129708639Y-54804059D01*
X129696662Y-54809724D01*
X129684188Y-54814187D01*
X129671337Y-54817406D01*
X129658232Y-54819350D01*
X129645000Y-54820000D01*
X129375000Y-54820000D01*
X129361768Y-54819350D01*
X129348663Y-54817406D01*
X129335812Y-54814187D01*
X129323338Y-54809724D01*
X129311361Y-54804059D01*
X129299998Y-54797248D01*
X129289357Y-54789356D01*
X129279541Y-54780459D01*
X129270644Y-54770643D01*
X129262752Y-54760002D01*
X129255941Y-54748639D01*
X129250276Y-54736662D01*
X129245813Y-54724188D01*
X129242594Y-54711337D01*
X129240650Y-54698232D01*
X129240000Y-54685000D01*
X129240000Y-54315000D01*
X129240650Y-54301768D01*
X129242594Y-54288663D01*
X129245813Y-54275812D01*
X129250276Y-54263338D01*
X129255941Y-54251361D01*
X129262752Y-54239998D01*
X129270644Y-54229357D01*
X129279541Y-54219541D01*
X129289357Y-54210644D01*
X129299998Y-54202752D01*
X129311361Y-54195941D01*
X129323338Y-54190276D01*
X129335812Y-54185813D01*
X129348663Y-54182594D01*
X129361768Y-54180650D01*
X129375000Y-54180000D01*
X129645000Y-54180000D01*
X129658232Y-54180650D01*
X129658232Y-54180650D01*
G37*
D19*
%TD*%
%TO.P,R4,1*%
%TO.N,Net-(R4-Pad1)*%
X129510000Y-54500000D03*
D13*
%TO.N,GND*%
%TO.C,R5*%
G36*
X134138232Y-54180650D02*
G01*
X134151337Y-54182594D01*
X134164188Y-54185813D01*
X134176662Y-54190276D01*
X134188639Y-54195941D01*
X134200002Y-54202752D01*
X134210643Y-54210644D01*
X134220459Y-54219541D01*
X134229356Y-54229357D01*
X134237248Y-54239998D01*
X134244059Y-54251361D01*
X134249724Y-54263338D01*
X134254187Y-54275812D01*
X134257406Y-54288663D01*
X134259350Y-54301768D01*
X134260000Y-54315000D01*
X134260000Y-54685000D01*
X134259350Y-54698232D01*
X134257406Y-54711337D01*
X134254187Y-54724188D01*
X134249724Y-54736662D01*
X134244059Y-54748639D01*
X134237248Y-54760002D01*
X134229356Y-54770643D01*
X134220459Y-54780459D01*
X134210643Y-54789356D01*
X134200002Y-54797248D01*
X134188639Y-54804059D01*
X134176662Y-54809724D01*
X134164188Y-54814187D01*
X134151337Y-54817406D01*
X134138232Y-54819350D01*
X134125000Y-54820000D01*
X133855000Y-54820000D01*
X133841768Y-54819350D01*
X133828663Y-54817406D01*
X133815812Y-54814187D01*
X133803338Y-54809724D01*
X133791361Y-54804059D01*
X133779998Y-54797248D01*
X133769357Y-54789356D01*
X133759541Y-54780459D01*
X133750644Y-54770643D01*
X133742752Y-54760002D01*
X133735941Y-54748639D01*
X133730276Y-54736662D01*
X133725813Y-54724188D01*
X133722594Y-54711337D01*
X133720650Y-54698232D01*
X133720000Y-54685000D01*
X133720000Y-54315000D01*
X133720650Y-54301768D01*
X133722594Y-54288663D01*
X133725813Y-54275812D01*
X133730276Y-54263338D01*
X133735941Y-54251361D01*
X133742752Y-54239998D01*
X133750644Y-54229357D01*
X133759541Y-54219541D01*
X133769357Y-54210644D01*
X133779998Y-54202752D01*
X133791361Y-54195941D01*
X133803338Y-54190276D01*
X133815812Y-54185813D01*
X133828663Y-54182594D01*
X133841768Y-54180650D01*
X133855000Y-54180000D01*
X134125000Y-54180000D01*
X134138232Y-54180650D01*
X134138232Y-54180650D01*
G37*
D19*
%TD*%
%TO.P,R5,2*%
%TO.N,GND*%
X133990000Y-54500000D03*
D13*
%TO.N,Net-(R5-Pad1)*%
%TO.C,R5*%
G36*
X135158232Y-54180650D02*
G01*
X135171337Y-54182594D01*
X135184188Y-54185813D01*
X135196662Y-54190276D01*
X135208639Y-54195941D01*
X135220002Y-54202752D01*
X135230643Y-54210644D01*
X135240459Y-54219541D01*
X135249356Y-54229357D01*
X135257248Y-54239998D01*
X135264059Y-54251361D01*
X135269724Y-54263338D01*
X135274187Y-54275812D01*
X135277406Y-54288663D01*
X135279350Y-54301768D01*
X135280000Y-54315000D01*
X135280000Y-54685000D01*
X135279350Y-54698232D01*
X135277406Y-54711337D01*
X135274187Y-54724188D01*
X135269724Y-54736662D01*
X135264059Y-54748639D01*
X135257248Y-54760002D01*
X135249356Y-54770643D01*
X135240459Y-54780459D01*
X135230643Y-54789356D01*
X135220002Y-54797248D01*
X135208639Y-54804059D01*
X135196662Y-54809724D01*
X135184188Y-54814187D01*
X135171337Y-54817406D01*
X135158232Y-54819350D01*
X135145000Y-54820000D01*
X134875000Y-54820000D01*
X134861768Y-54819350D01*
X134848663Y-54817406D01*
X134835812Y-54814187D01*
X134823338Y-54809724D01*
X134811361Y-54804059D01*
X134799998Y-54797248D01*
X134789357Y-54789356D01*
X134779541Y-54780459D01*
X134770644Y-54770643D01*
X134762752Y-54760002D01*
X134755941Y-54748639D01*
X134750276Y-54736662D01*
X134745813Y-54724188D01*
X134742594Y-54711337D01*
X134740650Y-54698232D01*
X134740000Y-54685000D01*
X134740000Y-54315000D01*
X134740650Y-54301768D01*
X134742594Y-54288663D01*
X134745813Y-54275812D01*
X134750276Y-54263338D01*
X134755941Y-54251361D01*
X134762752Y-54239998D01*
X134770644Y-54229357D01*
X134779541Y-54219541D01*
X134789357Y-54210644D01*
X134799998Y-54202752D01*
X134811361Y-54195941D01*
X134823338Y-54190276D01*
X134835812Y-54185813D01*
X134848663Y-54182594D01*
X134861768Y-54180650D01*
X134875000Y-54180000D01*
X135145000Y-54180000D01*
X135158232Y-54180650D01*
X135158232Y-54180650D01*
G37*
D19*
%TD*%
%TO.P,R5,1*%
%TO.N,Net-(R5-Pad1)*%
X135010000Y-54500000D03*
D13*
%TO.N,Net-(R2-Pad1)*%
%TO.C,R6*%
G36*
X123158232Y-44680650D02*
G01*
X123171337Y-44682594D01*
X123184188Y-44685813D01*
X123196662Y-44690276D01*
X123208639Y-44695941D01*
X123220002Y-44702752D01*
X123230643Y-44710644D01*
X123240459Y-44719541D01*
X123249356Y-44729357D01*
X123257248Y-44739998D01*
X123264059Y-44751361D01*
X123269724Y-44763338D01*
X123274187Y-44775812D01*
X123277406Y-44788663D01*
X123279350Y-44801768D01*
X123280000Y-44815000D01*
X123280000Y-45185000D01*
X123279350Y-45198232D01*
X123277406Y-45211337D01*
X123274187Y-45224188D01*
X123269724Y-45236662D01*
X123264059Y-45248639D01*
X123257248Y-45260002D01*
X123249356Y-45270643D01*
X123240459Y-45280459D01*
X123230643Y-45289356D01*
X123220002Y-45297248D01*
X123208639Y-45304059D01*
X123196662Y-45309724D01*
X123184188Y-45314187D01*
X123171337Y-45317406D01*
X123158232Y-45319350D01*
X123145000Y-45320000D01*
X122875000Y-45320000D01*
X122861768Y-45319350D01*
X122848663Y-45317406D01*
X122835812Y-45314187D01*
X122823338Y-45309724D01*
X122811361Y-45304059D01*
X122799998Y-45297248D01*
X122789357Y-45289356D01*
X122779541Y-45280459D01*
X122770644Y-45270643D01*
X122762752Y-45260002D01*
X122755941Y-45248639D01*
X122750276Y-45236662D01*
X122745813Y-45224188D01*
X122742594Y-45211337D01*
X122740650Y-45198232D01*
X122740000Y-45185000D01*
X122740000Y-44815000D01*
X122740650Y-44801768D01*
X122742594Y-44788663D01*
X122745813Y-44775812D01*
X122750276Y-44763338D01*
X122755941Y-44751361D01*
X122762752Y-44739998D01*
X122770644Y-44729357D01*
X122779541Y-44719541D01*
X122789357Y-44710644D01*
X122799998Y-44702752D01*
X122811361Y-44695941D01*
X122823338Y-44690276D01*
X122835812Y-44685813D01*
X122848663Y-44682594D01*
X122861768Y-44680650D01*
X122875000Y-44680000D01*
X123145000Y-44680000D01*
X123158232Y-44680650D01*
X123158232Y-44680650D01*
G37*
D19*
%TD*%
%TO.P,R6,2*%
%TO.N,Net-(R2-Pad1)*%
X123010000Y-45000000D03*
D13*
%TO.N,+3V3*%
%TO.C,R6*%
G36*
X122138232Y-44680650D02*
G01*
X122151337Y-44682594D01*
X122164188Y-44685813D01*
X122176662Y-44690276D01*
X122188639Y-44695941D01*
X122200002Y-44702752D01*
X122210643Y-44710644D01*
X122220459Y-44719541D01*
X122229356Y-44729357D01*
X122237248Y-44739998D01*
X122244059Y-44751361D01*
X122249724Y-44763338D01*
X122254187Y-44775812D01*
X122257406Y-44788663D01*
X122259350Y-44801768D01*
X122260000Y-44815000D01*
X122260000Y-45185000D01*
X122259350Y-45198232D01*
X122257406Y-45211337D01*
X122254187Y-45224188D01*
X122249724Y-45236662D01*
X122244059Y-45248639D01*
X122237248Y-45260002D01*
X122229356Y-45270643D01*
X122220459Y-45280459D01*
X122210643Y-45289356D01*
X122200002Y-45297248D01*
X122188639Y-45304059D01*
X122176662Y-45309724D01*
X122164188Y-45314187D01*
X122151337Y-45317406D01*
X122138232Y-45319350D01*
X122125000Y-45320000D01*
X121855000Y-45320000D01*
X121841768Y-45319350D01*
X121828663Y-45317406D01*
X121815812Y-45314187D01*
X121803338Y-45309724D01*
X121791361Y-45304059D01*
X121779998Y-45297248D01*
X121769357Y-45289356D01*
X121759541Y-45280459D01*
X121750644Y-45270643D01*
X121742752Y-45260002D01*
X121735941Y-45248639D01*
X121730276Y-45236662D01*
X121725813Y-45224188D01*
X121722594Y-45211337D01*
X121720650Y-45198232D01*
X121720000Y-45185000D01*
X121720000Y-44815000D01*
X121720650Y-44801768D01*
X121722594Y-44788663D01*
X121725813Y-44775812D01*
X121730276Y-44763338D01*
X121735941Y-44751361D01*
X121742752Y-44739998D01*
X121750644Y-44729357D01*
X121759541Y-44719541D01*
X121769357Y-44710644D01*
X121779998Y-44702752D01*
X121791361Y-44695941D01*
X121803338Y-44690276D01*
X121815812Y-44685813D01*
X121828663Y-44682594D01*
X121841768Y-44680650D01*
X121855000Y-44680000D01*
X122125000Y-44680000D01*
X122138232Y-44680650D01*
X122138232Y-44680650D01*
G37*
D19*
%TD*%
%TO.P,R6,1*%
%TO.N,+3V3*%
X121990000Y-45000000D03*
D13*
%TO.N,+3V3*%
%TO.C,R7*%
G36*
X149198232Y-42720650D02*
G01*
X149211337Y-42722594D01*
X149224188Y-42725813D01*
X149236662Y-42730276D01*
X149248639Y-42735941D01*
X149260002Y-42742752D01*
X149270643Y-42750644D01*
X149280459Y-42759541D01*
X149289356Y-42769357D01*
X149297248Y-42779998D01*
X149304059Y-42791361D01*
X149309724Y-42803338D01*
X149314187Y-42815812D01*
X149317406Y-42828663D01*
X149319350Y-42841768D01*
X149320000Y-42855000D01*
X149320000Y-43125000D01*
X149319350Y-43138232D01*
X149317406Y-43151337D01*
X149314187Y-43164188D01*
X149309724Y-43176662D01*
X149304059Y-43188639D01*
X149297248Y-43200002D01*
X149289356Y-43210643D01*
X149280459Y-43220459D01*
X149270643Y-43229356D01*
X149260002Y-43237248D01*
X149248639Y-43244059D01*
X149236662Y-43249724D01*
X149224188Y-43254187D01*
X149211337Y-43257406D01*
X149198232Y-43259350D01*
X149185000Y-43260000D01*
X148815000Y-43260000D01*
X148801768Y-43259350D01*
X148788663Y-43257406D01*
X148775812Y-43254187D01*
X148763338Y-43249724D01*
X148751361Y-43244059D01*
X148739998Y-43237248D01*
X148729357Y-43229356D01*
X148719541Y-43220459D01*
X148710644Y-43210643D01*
X148702752Y-43200002D01*
X148695941Y-43188639D01*
X148690276Y-43176662D01*
X148685813Y-43164188D01*
X148682594Y-43151337D01*
X148680650Y-43138232D01*
X148680000Y-43125000D01*
X148680000Y-42855000D01*
X148680650Y-42841768D01*
X148682594Y-42828663D01*
X148685813Y-42815812D01*
X148690276Y-42803338D01*
X148695941Y-42791361D01*
X148702752Y-42779998D01*
X148710644Y-42769357D01*
X148719541Y-42759541D01*
X148729357Y-42750644D01*
X148739998Y-42742752D01*
X148751361Y-42735941D01*
X148763338Y-42730276D01*
X148775812Y-42725813D01*
X148788663Y-42722594D01*
X148801768Y-42720650D01*
X148815000Y-42720000D01*
X149185000Y-42720000D01*
X149198232Y-42720650D01*
X149198232Y-42720650D01*
G37*
D19*
%TD*%
%TO.P,R7,2*%
%TO.N,+3V3*%
X149000000Y-42990000D03*
D13*
%TO.N,Net-(R7-Pad1)*%
%TO.C,R7*%
G36*
X149198232Y-43740650D02*
G01*
X149211337Y-43742594D01*
X149224188Y-43745813D01*
X149236662Y-43750276D01*
X149248639Y-43755941D01*
X149260002Y-43762752D01*
X149270643Y-43770644D01*
X149280459Y-43779541D01*
X149289356Y-43789357D01*
X149297248Y-43799998D01*
X149304059Y-43811361D01*
X149309724Y-43823338D01*
X149314187Y-43835812D01*
X149317406Y-43848663D01*
X149319350Y-43861768D01*
X149320000Y-43875000D01*
X149320000Y-44145000D01*
X149319350Y-44158232D01*
X149317406Y-44171337D01*
X149314187Y-44184188D01*
X149309724Y-44196662D01*
X149304059Y-44208639D01*
X149297248Y-44220002D01*
X149289356Y-44230643D01*
X149280459Y-44240459D01*
X149270643Y-44249356D01*
X149260002Y-44257248D01*
X149248639Y-44264059D01*
X149236662Y-44269724D01*
X149224188Y-44274187D01*
X149211337Y-44277406D01*
X149198232Y-44279350D01*
X149185000Y-44280000D01*
X148815000Y-44280000D01*
X148801768Y-44279350D01*
X148788663Y-44277406D01*
X148775812Y-44274187D01*
X148763338Y-44269724D01*
X148751361Y-44264059D01*
X148739998Y-44257248D01*
X148729357Y-44249356D01*
X148719541Y-44240459D01*
X148710644Y-44230643D01*
X148702752Y-44220002D01*
X148695941Y-44208639D01*
X148690276Y-44196662D01*
X148685813Y-44184188D01*
X148682594Y-44171337D01*
X148680650Y-44158232D01*
X148680000Y-44145000D01*
X148680000Y-43875000D01*
X148680650Y-43861768D01*
X148682594Y-43848663D01*
X148685813Y-43835812D01*
X148690276Y-43823338D01*
X148695941Y-43811361D01*
X148702752Y-43799998D01*
X148710644Y-43789357D01*
X148719541Y-43779541D01*
X148729357Y-43770644D01*
X148739998Y-43762752D01*
X148751361Y-43755941D01*
X148763338Y-43750276D01*
X148775812Y-43745813D01*
X148788663Y-43742594D01*
X148801768Y-43740650D01*
X148815000Y-43740000D01*
X149185000Y-43740000D01*
X149198232Y-43740650D01*
X149198232Y-43740650D01*
G37*
D19*
%TD*%
%TO.P,R7,1*%
%TO.N,Net-(R7-Pad1)*%
X149000000Y-44010000D03*
D13*
%TO.N,Net-(R8-Pad2)*%
%TO.C,R8*%
G36*
X123158232Y-49680650D02*
G01*
X123171337Y-49682594D01*
X123184188Y-49685813D01*
X123196662Y-49690276D01*
X123208639Y-49695941D01*
X123220002Y-49702752D01*
X123230643Y-49710644D01*
X123240459Y-49719541D01*
X123249356Y-49729357D01*
X123257248Y-49739998D01*
X123264059Y-49751361D01*
X123269724Y-49763338D01*
X123274187Y-49775812D01*
X123277406Y-49788663D01*
X123279350Y-49801768D01*
X123280000Y-49815000D01*
X123280000Y-50185000D01*
X123279350Y-50198232D01*
X123277406Y-50211337D01*
X123274187Y-50224188D01*
X123269724Y-50236662D01*
X123264059Y-50248639D01*
X123257248Y-50260002D01*
X123249356Y-50270643D01*
X123240459Y-50280459D01*
X123230643Y-50289356D01*
X123220002Y-50297248D01*
X123208639Y-50304059D01*
X123196662Y-50309724D01*
X123184188Y-50314187D01*
X123171337Y-50317406D01*
X123158232Y-50319350D01*
X123145000Y-50320000D01*
X122875000Y-50320000D01*
X122861768Y-50319350D01*
X122848663Y-50317406D01*
X122835812Y-50314187D01*
X122823338Y-50309724D01*
X122811361Y-50304059D01*
X122799998Y-50297248D01*
X122789357Y-50289356D01*
X122779541Y-50280459D01*
X122770644Y-50270643D01*
X122762752Y-50260002D01*
X122755941Y-50248639D01*
X122750276Y-50236662D01*
X122745813Y-50224188D01*
X122742594Y-50211337D01*
X122740650Y-50198232D01*
X122740000Y-50185000D01*
X122740000Y-49815000D01*
X122740650Y-49801768D01*
X122742594Y-49788663D01*
X122745813Y-49775812D01*
X122750276Y-49763338D01*
X122755941Y-49751361D01*
X122762752Y-49739998D01*
X122770644Y-49729357D01*
X122779541Y-49719541D01*
X122789357Y-49710644D01*
X122799998Y-49702752D01*
X122811361Y-49695941D01*
X122823338Y-49690276D01*
X122835812Y-49685813D01*
X122848663Y-49682594D01*
X122861768Y-49680650D01*
X122875000Y-49680000D01*
X123145000Y-49680000D01*
X123158232Y-49680650D01*
X123158232Y-49680650D01*
G37*
D19*
%TD*%
%TO.P,R8,2*%
%TO.N,Net-(R8-Pad2)*%
X123010000Y-50000000D03*
D13*
%TO.N,Net-(JP1-Pad1)*%
%TO.C,R8*%
G36*
X122138232Y-49680650D02*
G01*
X122151337Y-49682594D01*
X122164188Y-49685813D01*
X122176662Y-49690276D01*
X122188639Y-49695941D01*
X122200002Y-49702752D01*
X122210643Y-49710644D01*
X122220459Y-49719541D01*
X122229356Y-49729357D01*
X122237248Y-49739998D01*
X122244059Y-49751361D01*
X122249724Y-49763338D01*
X122254187Y-49775812D01*
X122257406Y-49788663D01*
X122259350Y-49801768D01*
X122260000Y-49815000D01*
X122260000Y-50185000D01*
X122259350Y-50198232D01*
X122257406Y-50211337D01*
X122254187Y-50224188D01*
X122249724Y-50236662D01*
X122244059Y-50248639D01*
X122237248Y-50260002D01*
X122229356Y-50270643D01*
X122220459Y-50280459D01*
X122210643Y-50289356D01*
X122200002Y-50297248D01*
X122188639Y-50304059D01*
X122176662Y-50309724D01*
X122164188Y-50314187D01*
X122151337Y-50317406D01*
X122138232Y-50319350D01*
X122125000Y-50320000D01*
X121855000Y-50320000D01*
X121841768Y-50319350D01*
X121828663Y-50317406D01*
X121815812Y-50314187D01*
X121803338Y-50309724D01*
X121791361Y-50304059D01*
X121779998Y-50297248D01*
X121769357Y-50289356D01*
X121759541Y-50280459D01*
X121750644Y-50270643D01*
X121742752Y-50260002D01*
X121735941Y-50248639D01*
X121730276Y-50236662D01*
X121725813Y-50224188D01*
X121722594Y-50211337D01*
X121720650Y-50198232D01*
X121720000Y-50185000D01*
X121720000Y-49815000D01*
X121720650Y-49801768D01*
X121722594Y-49788663D01*
X121725813Y-49775812D01*
X121730276Y-49763338D01*
X121735941Y-49751361D01*
X121742752Y-49739998D01*
X121750644Y-49729357D01*
X121759541Y-49719541D01*
X121769357Y-49710644D01*
X121779998Y-49702752D01*
X121791361Y-49695941D01*
X121803338Y-49690276D01*
X121815812Y-49685813D01*
X121828663Y-49682594D01*
X121841768Y-49680650D01*
X121855000Y-49680000D01*
X122125000Y-49680000D01*
X122138232Y-49680650D01*
X122138232Y-49680650D01*
G37*
D19*
%TD*%
%TO.P,R8,1*%
%TO.N,Net-(JP1-Pad1)*%
X121990000Y-50000000D03*
D20*
%TO.P,U2,5*%
%TO.N,Net-(L1-Pad1)*%
X145550000Y-42690000D03*
%TO.P,U2,4*%
%TO.N,+3V3*%
X147450000Y-42690000D03*
%TO.P,U2,3*%
%TO.N,Net-(BT1-Pad1)*%
X147450000Y-45310000D03*
%TO.P,U2,2*%
%TO.N,GND*%
X146500000Y-45310000D03*
%TO.P,U2,1*%
%TO.N,Net-(BT1-Pad1)*%
X145550000Y-45310000D03*
%TD*%
D21*
%TO.P,JP1,1*%
%TO.N,Net-(JP1-Pad1)*%
X120850000Y-48000000D03*
%TO.P,JP1,2*%
%TO.N,GND*%
X122150000Y-48000000D03*
%TD*%
D22*
%TO.P,BT1,2*%
%TO.N,GND*%
X144207107Y-50500000D03*
D23*
%TD*%
%TO.N,GND*%
%TO.C,BT1*%
X144207107Y-50500000D02*
X144207107Y-50500000D01*
D22*
%TO.P,BT1,1*%
%TO.N,Net-(BT1-Pad1)*%
X143500000Y-51207107D03*
D13*
%TD*%
%TO.N,Net-(BT1-Pad1)*%
%TO.C,BT1*%
G36*
X144101041Y-51207107D02*
G01*
X143500000Y-51808148D01*
X142898959Y-51207107D01*
X143500000Y-50606066D01*
X144101041Y-51207107D01*
X144101041Y-51207107D01*
G37*
%TO.N,GND*%
%TO.C,C1*%
G36*
X146633722Y-46690674D02*
G01*
X146647313Y-46692690D01*
X146660640Y-46696028D01*
X146673576Y-46700657D01*
X146685996Y-46706531D01*
X146697780Y-46713594D01*
X146708815Y-46721779D01*
X146718995Y-46731005D01*
X146728221Y-46741185D01*
X146736406Y-46752220D01*
X146743469Y-46764004D01*
X146749343Y-46776424D01*
X146753972Y-46789360D01*
X146757310Y-46802687D01*
X146759326Y-46816278D01*
X146760000Y-46830000D01*
X146760000Y-47170000D01*
X146759326Y-47183722D01*
X146757310Y-47197313D01*
X146753972Y-47210640D01*
X146749343Y-47223576D01*
X146743469Y-47235996D01*
X146736406Y-47247780D01*
X146728221Y-47258815D01*
X146718995Y-47268995D01*
X146708815Y-47278221D01*
X146697780Y-47286406D01*
X146685996Y-47293469D01*
X146673576Y-47299343D01*
X146660640Y-47303972D01*
X146647313Y-47307310D01*
X146633722Y-47309326D01*
X146620000Y-47310000D01*
X146340000Y-47310000D01*
X146326278Y-47309326D01*
X146312687Y-47307310D01*
X146299360Y-47303972D01*
X146286424Y-47299343D01*
X146274004Y-47293469D01*
X146262220Y-47286406D01*
X146251185Y-47278221D01*
X146241005Y-47268995D01*
X146231779Y-47258815D01*
X146223594Y-47247780D01*
X146216531Y-47235996D01*
X146210657Y-47223576D01*
X146206028Y-47210640D01*
X146202690Y-47197313D01*
X146200674Y-47183722D01*
X146200000Y-47170000D01*
X146200000Y-46830000D01*
X146200674Y-46816278D01*
X146202690Y-46802687D01*
X146206028Y-46789360D01*
X146210657Y-46776424D01*
X146216531Y-46764004D01*
X146223594Y-46752220D01*
X146231779Y-46741185D01*
X146241005Y-46731005D01*
X146251185Y-46721779D01*
X146262220Y-46713594D01*
X146274004Y-46706531D01*
X146286424Y-46700657D01*
X146299360Y-46696028D01*
X146312687Y-46692690D01*
X146326278Y-46690674D01*
X146340000Y-46690000D01*
X146620000Y-46690000D01*
X146633722Y-46690674D01*
X146633722Y-46690674D01*
G37*
D15*
%TD*%
%TO.P,C1,2*%
%TO.N,GND*%
X146480000Y-47000000D03*
D13*
%TO.N,Net-(BT1-Pad1)*%
%TO.C,C1*%
G36*
X145673722Y-46690674D02*
G01*
X145687313Y-46692690D01*
X145700640Y-46696028D01*
X145713576Y-46700657D01*
X145725996Y-46706531D01*
X145737780Y-46713594D01*
X145748815Y-46721779D01*
X145758995Y-46731005D01*
X145768221Y-46741185D01*
X145776406Y-46752220D01*
X145783469Y-46764004D01*
X145789343Y-46776424D01*
X145793972Y-46789360D01*
X145797310Y-46802687D01*
X145799326Y-46816278D01*
X145800000Y-46830000D01*
X145800000Y-47170000D01*
X145799326Y-47183722D01*
X145797310Y-47197313D01*
X145793972Y-47210640D01*
X145789343Y-47223576D01*
X145783469Y-47235996D01*
X145776406Y-47247780D01*
X145768221Y-47258815D01*
X145758995Y-47268995D01*
X145748815Y-47278221D01*
X145737780Y-47286406D01*
X145725996Y-47293469D01*
X145713576Y-47299343D01*
X145700640Y-47303972D01*
X145687313Y-47307310D01*
X145673722Y-47309326D01*
X145660000Y-47310000D01*
X145380000Y-47310000D01*
X145366278Y-47309326D01*
X145352687Y-47307310D01*
X145339360Y-47303972D01*
X145326424Y-47299343D01*
X145314004Y-47293469D01*
X145302220Y-47286406D01*
X145291185Y-47278221D01*
X145281005Y-47268995D01*
X145271779Y-47258815D01*
X145263594Y-47247780D01*
X145256531Y-47235996D01*
X145250657Y-47223576D01*
X145246028Y-47210640D01*
X145242690Y-47197313D01*
X145240674Y-47183722D01*
X145240000Y-47170000D01*
X145240000Y-46830000D01*
X145240674Y-46816278D01*
X145242690Y-46802687D01*
X145246028Y-46789360D01*
X145250657Y-46776424D01*
X145256531Y-46764004D01*
X145263594Y-46752220D01*
X145271779Y-46741185D01*
X145281005Y-46731005D01*
X145291185Y-46721779D01*
X145302220Y-46713594D01*
X145314004Y-46706531D01*
X145326424Y-46700657D01*
X145339360Y-46696028D01*
X145352687Y-46692690D01*
X145366278Y-46690674D01*
X145380000Y-46690000D01*
X145660000Y-46690000D01*
X145673722Y-46690674D01*
X145673722Y-46690674D01*
G37*
D15*
%TD*%
%TO.P,C1,1*%
%TO.N,Net-(BT1-Pad1)*%
X145520000Y-47000000D03*
D13*
%TO.N,+3V3*%
%TO.C,L1*%
G36*
X147802691Y-39901053D02*
G01*
X147823926Y-39904203D01*
X147844750Y-39909419D01*
X147864962Y-39916651D01*
X147884368Y-39925830D01*
X147902781Y-39936866D01*
X147920024Y-39949654D01*
X147935930Y-39964070D01*
X147950346Y-39979976D01*
X147963134Y-39997219D01*
X147974170Y-40015632D01*
X147983349Y-40035038D01*
X147990581Y-40055250D01*
X147995797Y-40076074D01*
X147998947Y-40097309D01*
X148000000Y-40118750D01*
X148000000Y-40881250D01*
X147998947Y-40902691D01*
X147995797Y-40923926D01*
X147990581Y-40944750D01*
X147983349Y-40964962D01*
X147974170Y-40984368D01*
X147963134Y-41002781D01*
X147950346Y-41020024D01*
X147935930Y-41035930D01*
X147920024Y-41050346D01*
X147902781Y-41063134D01*
X147884368Y-41074170D01*
X147864962Y-41083349D01*
X147844750Y-41090581D01*
X147823926Y-41095797D01*
X147802691Y-41098947D01*
X147781250Y-41100000D01*
X147343750Y-41100000D01*
X147322309Y-41098947D01*
X147301074Y-41095797D01*
X147280250Y-41090581D01*
X147260038Y-41083349D01*
X147240632Y-41074170D01*
X147222219Y-41063134D01*
X147204976Y-41050346D01*
X147189070Y-41035930D01*
X147174654Y-41020024D01*
X147161866Y-41002781D01*
X147150830Y-40984368D01*
X147141651Y-40964962D01*
X147134419Y-40944750D01*
X147129203Y-40923926D01*
X147126053Y-40902691D01*
X147125000Y-40881250D01*
X147125000Y-40118750D01*
X147126053Y-40097309D01*
X147129203Y-40076074D01*
X147134419Y-40055250D01*
X147141651Y-40035038D01*
X147150830Y-40015632D01*
X147161866Y-39997219D01*
X147174654Y-39979976D01*
X147189070Y-39964070D01*
X147204976Y-39949654D01*
X147222219Y-39936866D01*
X147240632Y-39925830D01*
X147260038Y-39916651D01*
X147280250Y-39909419D01*
X147301074Y-39904203D01*
X147322309Y-39901053D01*
X147343750Y-39900000D01*
X147781250Y-39900000D01*
X147802691Y-39901053D01*
X147802691Y-39901053D01*
G37*
D24*
%TD*%
%TO.P,L1,2*%
%TO.N,+3V3*%
X147562500Y-40500000D03*
D13*
%TO.N,Net-(L1-Pad1)*%
%TO.C,L1*%
G36*
X145677691Y-39901053D02*
G01*
X145698926Y-39904203D01*
X145719750Y-39909419D01*
X145739962Y-39916651D01*
X145759368Y-39925830D01*
X145777781Y-39936866D01*
X145795024Y-39949654D01*
X145810930Y-39964070D01*
X145825346Y-39979976D01*
X145838134Y-39997219D01*
X145849170Y-40015632D01*
X145858349Y-40035038D01*
X145865581Y-40055250D01*
X145870797Y-40076074D01*
X145873947Y-40097309D01*
X145875000Y-40118750D01*
X145875000Y-40881250D01*
X145873947Y-40902691D01*
X145870797Y-40923926D01*
X145865581Y-40944750D01*
X145858349Y-40964962D01*
X145849170Y-40984368D01*
X145838134Y-41002781D01*
X145825346Y-41020024D01*
X145810930Y-41035930D01*
X145795024Y-41050346D01*
X145777781Y-41063134D01*
X145759368Y-41074170D01*
X145739962Y-41083349D01*
X145719750Y-41090581D01*
X145698926Y-41095797D01*
X145677691Y-41098947D01*
X145656250Y-41100000D01*
X145218750Y-41100000D01*
X145197309Y-41098947D01*
X145176074Y-41095797D01*
X145155250Y-41090581D01*
X145135038Y-41083349D01*
X145115632Y-41074170D01*
X145097219Y-41063134D01*
X145079976Y-41050346D01*
X145064070Y-41035930D01*
X145049654Y-41020024D01*
X145036866Y-41002781D01*
X145025830Y-40984368D01*
X145016651Y-40964962D01*
X145009419Y-40944750D01*
X145004203Y-40923926D01*
X145001053Y-40902691D01*
X145000000Y-40881250D01*
X145000000Y-40118750D01*
X145001053Y-40097309D01*
X145004203Y-40076074D01*
X145009419Y-40055250D01*
X145016651Y-40035038D01*
X145025830Y-40015632D01*
X145036866Y-39997219D01*
X145049654Y-39979976D01*
X145064070Y-39964070D01*
X145079976Y-39949654D01*
X145097219Y-39936866D01*
X145115632Y-39925830D01*
X145135038Y-39916651D01*
X145155250Y-39909419D01*
X145176074Y-39904203D01*
X145197309Y-39901053D01*
X145218750Y-39900000D01*
X145656250Y-39900000D01*
X145677691Y-39901053D01*
X145677691Y-39901053D01*
G37*
D24*
%TD*%
%TO.P,L1,1*%
%TO.N,Net-(L1-Pad1)*%
X145437500Y-40500000D03*
D13*
%TO.N,SDA*%
%TO.C,C2*%
G36*
X149133722Y-37190674D02*
G01*
X149147313Y-37192690D01*
X149160640Y-37196028D01*
X149173576Y-37200657D01*
X149185996Y-37206531D01*
X149197780Y-37213594D01*
X149208815Y-37221779D01*
X149218995Y-37231005D01*
X149228221Y-37241185D01*
X149236406Y-37252220D01*
X149243469Y-37264004D01*
X149249343Y-37276424D01*
X149253972Y-37289360D01*
X149257310Y-37302687D01*
X149259326Y-37316278D01*
X149260000Y-37330000D01*
X149260000Y-37670000D01*
X149259326Y-37683722D01*
X149257310Y-37697313D01*
X149253972Y-37710640D01*
X149249343Y-37723576D01*
X149243469Y-37735996D01*
X149236406Y-37747780D01*
X149228221Y-37758815D01*
X149218995Y-37768995D01*
X149208815Y-37778221D01*
X149197780Y-37786406D01*
X149185996Y-37793469D01*
X149173576Y-37799343D01*
X149160640Y-37803972D01*
X149147313Y-37807310D01*
X149133722Y-37809326D01*
X149120000Y-37810000D01*
X148840000Y-37810000D01*
X148826278Y-37809326D01*
X148812687Y-37807310D01*
X148799360Y-37803972D01*
X148786424Y-37799343D01*
X148774004Y-37793469D01*
X148762220Y-37786406D01*
X148751185Y-37778221D01*
X148741005Y-37768995D01*
X148731779Y-37758815D01*
X148723594Y-37747780D01*
X148716531Y-37735996D01*
X148710657Y-37723576D01*
X148706028Y-37710640D01*
X148702690Y-37697313D01*
X148700674Y-37683722D01*
X148700000Y-37670000D01*
X148700000Y-37330000D01*
X148700674Y-37316278D01*
X148702690Y-37302687D01*
X148706028Y-37289360D01*
X148710657Y-37276424D01*
X148716531Y-37264004D01*
X148723594Y-37252220D01*
X148731779Y-37241185D01*
X148741005Y-37231005D01*
X148751185Y-37221779D01*
X148762220Y-37213594D01*
X148774004Y-37206531D01*
X148786424Y-37200657D01*
X148799360Y-37196028D01*
X148812687Y-37192690D01*
X148826278Y-37190674D01*
X148840000Y-37190000D01*
X149120000Y-37190000D01*
X149133722Y-37190674D01*
X149133722Y-37190674D01*
G37*
D15*
%TD*%
%TO.P,C2,2*%
%TO.N,SDA*%
X148980000Y-37500000D03*
D13*
%TO.N,+3V3*%
%TO.C,C2*%
G36*
X148173722Y-37190674D02*
G01*
X148187313Y-37192690D01*
X148200640Y-37196028D01*
X148213576Y-37200657D01*
X148225996Y-37206531D01*
X148237780Y-37213594D01*
X148248815Y-37221779D01*
X148258995Y-37231005D01*
X148268221Y-37241185D01*
X148276406Y-37252220D01*
X148283469Y-37264004D01*
X148289343Y-37276424D01*
X148293972Y-37289360D01*
X148297310Y-37302687D01*
X148299326Y-37316278D01*
X148300000Y-37330000D01*
X148300000Y-37670000D01*
X148299326Y-37683722D01*
X148297310Y-37697313D01*
X148293972Y-37710640D01*
X148289343Y-37723576D01*
X148283469Y-37735996D01*
X148276406Y-37747780D01*
X148268221Y-37758815D01*
X148258995Y-37768995D01*
X148248815Y-37778221D01*
X148237780Y-37786406D01*
X148225996Y-37793469D01*
X148213576Y-37799343D01*
X148200640Y-37803972D01*
X148187313Y-37807310D01*
X148173722Y-37809326D01*
X148160000Y-37810000D01*
X147880000Y-37810000D01*
X147866278Y-37809326D01*
X147852687Y-37807310D01*
X147839360Y-37803972D01*
X147826424Y-37799343D01*
X147814004Y-37793469D01*
X147802220Y-37786406D01*
X147791185Y-37778221D01*
X147781005Y-37768995D01*
X147771779Y-37758815D01*
X147763594Y-37747780D01*
X147756531Y-37735996D01*
X147750657Y-37723576D01*
X147746028Y-37710640D01*
X147742690Y-37697313D01*
X147740674Y-37683722D01*
X147740000Y-37670000D01*
X147740000Y-37330000D01*
X147740674Y-37316278D01*
X147742690Y-37302687D01*
X147746028Y-37289360D01*
X147750657Y-37276424D01*
X147756531Y-37264004D01*
X147763594Y-37252220D01*
X147771779Y-37241185D01*
X147781005Y-37231005D01*
X147791185Y-37221779D01*
X147802220Y-37213594D01*
X147814004Y-37206531D01*
X147826424Y-37200657D01*
X147839360Y-37196028D01*
X147852687Y-37192690D01*
X147866278Y-37190674D01*
X147880000Y-37190000D01*
X148160000Y-37190000D01*
X148173722Y-37190674D01*
X148173722Y-37190674D01*
G37*
D15*
%TD*%
%TO.P,C2,1*%
%TO.N,+3V3*%
X148020000Y-37500000D03*
D13*
%TO.N,SCL*%
%TO.C,C3*%
G36*
X150133722Y-38690674D02*
G01*
X150147313Y-38692690D01*
X150160640Y-38696028D01*
X150173576Y-38700657D01*
X150185996Y-38706531D01*
X150197780Y-38713594D01*
X150208815Y-38721779D01*
X150218995Y-38731005D01*
X150228221Y-38741185D01*
X150236406Y-38752220D01*
X150243469Y-38764004D01*
X150249343Y-38776424D01*
X150253972Y-38789360D01*
X150257310Y-38802687D01*
X150259326Y-38816278D01*
X150260000Y-38830000D01*
X150260000Y-39170000D01*
X150259326Y-39183722D01*
X150257310Y-39197313D01*
X150253972Y-39210640D01*
X150249343Y-39223576D01*
X150243469Y-39235996D01*
X150236406Y-39247780D01*
X150228221Y-39258815D01*
X150218995Y-39268995D01*
X150208815Y-39278221D01*
X150197780Y-39286406D01*
X150185996Y-39293469D01*
X150173576Y-39299343D01*
X150160640Y-39303972D01*
X150147313Y-39307310D01*
X150133722Y-39309326D01*
X150120000Y-39310000D01*
X149840000Y-39310000D01*
X149826278Y-39309326D01*
X149812687Y-39307310D01*
X149799360Y-39303972D01*
X149786424Y-39299343D01*
X149774004Y-39293469D01*
X149762220Y-39286406D01*
X149751185Y-39278221D01*
X149741005Y-39268995D01*
X149731779Y-39258815D01*
X149723594Y-39247780D01*
X149716531Y-39235996D01*
X149710657Y-39223576D01*
X149706028Y-39210640D01*
X149702690Y-39197313D01*
X149700674Y-39183722D01*
X149700000Y-39170000D01*
X149700000Y-38830000D01*
X149700674Y-38816278D01*
X149702690Y-38802687D01*
X149706028Y-38789360D01*
X149710657Y-38776424D01*
X149716531Y-38764004D01*
X149723594Y-38752220D01*
X149731779Y-38741185D01*
X149741005Y-38731005D01*
X149751185Y-38721779D01*
X149762220Y-38713594D01*
X149774004Y-38706531D01*
X149786424Y-38700657D01*
X149799360Y-38696028D01*
X149812687Y-38692690D01*
X149826278Y-38690674D01*
X149840000Y-38690000D01*
X150120000Y-38690000D01*
X150133722Y-38690674D01*
X150133722Y-38690674D01*
G37*
D15*
%TD*%
%TO.P,C3,2*%
%TO.N,SCL*%
X149980000Y-39000000D03*
D13*
%TO.N,+3V3*%
%TO.C,C3*%
G36*
X149173722Y-38690674D02*
G01*
X149187313Y-38692690D01*
X149200640Y-38696028D01*
X149213576Y-38700657D01*
X149225996Y-38706531D01*
X149237780Y-38713594D01*
X149248815Y-38721779D01*
X149258995Y-38731005D01*
X149268221Y-38741185D01*
X149276406Y-38752220D01*
X149283469Y-38764004D01*
X149289343Y-38776424D01*
X149293972Y-38789360D01*
X149297310Y-38802687D01*
X149299326Y-38816278D01*
X149300000Y-38830000D01*
X149300000Y-39170000D01*
X149299326Y-39183722D01*
X149297310Y-39197313D01*
X149293972Y-39210640D01*
X149289343Y-39223576D01*
X149283469Y-39235996D01*
X149276406Y-39247780D01*
X149268221Y-39258815D01*
X149258995Y-39268995D01*
X149248815Y-39278221D01*
X149237780Y-39286406D01*
X149225996Y-39293469D01*
X149213576Y-39299343D01*
X149200640Y-39303972D01*
X149187313Y-39307310D01*
X149173722Y-39309326D01*
X149160000Y-39310000D01*
X148880000Y-39310000D01*
X148866278Y-39309326D01*
X148852687Y-39307310D01*
X148839360Y-39303972D01*
X148826424Y-39299343D01*
X148814004Y-39293469D01*
X148802220Y-39286406D01*
X148791185Y-39278221D01*
X148781005Y-39268995D01*
X148771779Y-39258815D01*
X148763594Y-39247780D01*
X148756531Y-39235996D01*
X148750657Y-39223576D01*
X148746028Y-39210640D01*
X148742690Y-39197313D01*
X148740674Y-39183722D01*
X148740000Y-39170000D01*
X148740000Y-38830000D01*
X148740674Y-38816278D01*
X148742690Y-38802687D01*
X148746028Y-38789360D01*
X148750657Y-38776424D01*
X148756531Y-38764004D01*
X148763594Y-38752220D01*
X148771779Y-38741185D01*
X148781005Y-38731005D01*
X148791185Y-38721779D01*
X148802220Y-38713594D01*
X148814004Y-38706531D01*
X148826424Y-38700657D01*
X148839360Y-38696028D01*
X148852687Y-38692690D01*
X148866278Y-38690674D01*
X148880000Y-38690000D01*
X149160000Y-38690000D01*
X149173722Y-38690674D01*
X149173722Y-38690674D01*
G37*
D15*
%TD*%
%TO.P,C3,1*%
%TO.N,+3V3*%
X149020000Y-39000000D03*
D25*
%TO.N,GND*%
X134200000Y-36600000D03*
X134700000Y-37100000D03*
X133700000Y-36100000D03*
X134700000Y-36600000D03*
X134200000Y-36100000D03*
X134700000Y-36100000D03*
X130900000Y-40400000D03*
X130300000Y-39900000D03*
X130300000Y-40500000D03*
X127500000Y-52000000D03*
X118120000Y-32000000D03*
X118120000Y-45000000D03*
X128000000Y-47000000D03*
X146500000Y-44500000D03*
X146500000Y-38500000D03*
X146500000Y-34500000D03*
X141000000Y-31000000D03*
X126000000Y-30500000D03*
X132000000Y-36500000D03*
X146750000Y-47750000D03*
X131250000Y-55010010D03*
X136000000Y-55010010D03*
X123500000Y-28000000D03*
%TO.N,+3V3*%
X141500000Y-52750000D03*
X141490000Y-49500000D03*
X146750000Y-42500000D03*
X144500000Y-37500000D03*
X146750000Y-36000000D03*
X149250000Y-31750000D03*
X131450000Y-52800000D03*
X123500000Y-51750000D03*
X128750000Y-32000000D03*
X118500000Y-30750000D03*
X150500000Y-40500000D03*
X137450000Y-52800000D03*
%TO.N,SDA*%
X149500000Y-37500000D03*
X136500000Y-54500000D03*
%TO.N,SCL*%
X148500000Y-39750000D03*
X135000000Y-46000000D03*
%TO.N,Net-(R4-Pad1)*%
X129000000Y-42000000D03*
X124000000Y-37000000D03*
%TO.N,Net-(R5-Pad1)*%
X140000000Y-45500000D03*
X134500000Y-52500000D03*
%TO.N,Net-(D2-Pad2)*%
X124500000Y-52000000D03*
%TO.N,Net-(J3-Pad9)*%
X126500000Y-41000000D03*
X123474228Y-32025772D03*
%TO.N,Net-(J3-Pad8)*%
X126500000Y-39500000D03*
X123500000Y-31500000D03*
%TO.N,Net-(J3-Pad7)*%
X126500000Y-44500000D03*
X119250000Y-30500000D03*
%TO.N,Net-(J3-Pad6)*%
X126500000Y-43500000D03*
X121500000Y-30500000D03*
%TO.N,Net-(J3-Pad5)*%
X126500000Y-42000000D03*
X123500000Y-30000000D03*
%TO.N,Net-(IC1-Pad13)*%
X143000000Y-50000000D03*
%TO.N,Net-(R2-Pad2)*%
X144000000Y-43500000D03*
%TO.N,Net-(R2-Pad1)*%
X123000000Y-46000000D03*
X143500000Y-46500000D03*
%TO.N,Net-(R7-Pad1)*%
X143500000Y-47500000D03*
X147250000Y-48250000D03*
%TO.N,Net-(R8-Pad2)*%
X140500000Y-48500000D03*
X123500000Y-50000000D03*
%TO.N,Net-(TP8-Pad1)*%
X140500000Y-35000000D03*
%TO.N,Net-(TP9-Pad1)*%
X137000000Y-38500000D03*
%TO.N,Net-(TP6-Pad1)*%
X138000000Y-46000000D03*
%TO.N,Net-(TP5-Pad1)*%
X129000000Y-46500000D03*
%TO.N,Net-(TP2-Pad1)*%
X126500000Y-47000000D03*
%TO.N,Net-(TP3-Pad1)*%
X127000000Y-46000000D03*
%TO.N,Net-(BZ1-Pad2)*%
X125000000Y-34555000D03*
%TO.N,Net-(BT1-Pad1)*%
X144000000Y-41500000D03*
X145550000Y-45310000D03*
%TD*%
D26*
%TO.N,GND*%
X118120000Y-31480000D02*
X118120000Y-32000000D01*
X118120000Y-45520000D02*
X118120000Y-45000000D01*
X128000000Y-47520000D02*
X128000000Y-47000000D01*
X146500000Y-45020000D02*
X146500000Y-44500000D01*
X145980000Y-38500000D02*
X146500000Y-38500000D01*
X145980000Y-34500000D02*
X146500000Y-34500000D01*
X118120000Y-32100000D02*
X117720000Y-32500000D01*
X118120000Y-31500000D02*
X118120000Y-32100000D01*
X117720000Y-33120000D02*
X117340000Y-33500000D01*
X117720000Y-32500000D02*
X117720000Y-33120000D01*
X117340000Y-34200000D02*
X117040000Y-34500000D01*
X117340000Y-33500000D02*
X117340000Y-34200000D01*
X117040000Y-35300000D02*
X116840000Y-35500000D01*
X117040000Y-34500000D02*
X117040000Y-35300000D01*
X116840000Y-36295000D02*
X116635000Y-36500000D01*
X116840000Y-35500000D02*
X116840000Y-36295000D01*
X117796558Y-45176558D02*
X118120000Y-45500000D01*
X117394611Y-44774611D02*
X117796558Y-45176558D01*
X117340000Y-44633830D02*
X117394611Y-44774611D01*
X117340000Y-44520000D02*
X117340000Y-44633830D01*
X117360000Y-44500000D02*
X117340000Y-44520000D01*
X117740000Y-44500000D02*
X117360000Y-44500000D01*
X117669222Y-44500000D02*
X117394611Y-44774611D01*
X117740000Y-44500000D02*
X117669222Y-44500000D01*
X117340000Y-44000000D02*
X117340000Y-44633830D01*
X117340000Y-43500000D02*
X117340000Y-44000000D01*
X117340000Y-44100000D02*
X117340000Y-44000000D01*
X117740000Y-44500000D02*
X117500000Y-44500000D01*
X117500000Y-44260000D02*
X117340000Y-44100000D01*
X117500000Y-44500000D02*
X117500000Y-44260000D01*
X134312737Y-54822737D02*
X133990000Y-54500000D01*
X134500010Y-55010010D02*
X134312737Y-54822737D01*
X136979990Y-55010010D02*
X136000000Y-55010010D01*
X137490000Y-54500000D02*
X136979990Y-55010010D01*
X128812737Y-54822737D02*
X128490000Y-54500000D01*
X129000010Y-55010010D02*
X128812737Y-54822737D01*
X133479990Y-55010010D02*
X131250000Y-55010010D01*
X133990000Y-54500000D02*
X133479990Y-55010010D01*
X145980000Y-34500000D02*
X145980000Y-37500000D01*
X145980000Y-38500000D02*
X145980000Y-37500000D01*
X146480000Y-47480000D02*
X146750000Y-47750000D01*
X146480000Y-47000000D02*
X146480000Y-47480000D01*
X142550000Y-30745000D02*
X142000000Y-30745000D01*
X143305010Y-31500010D02*
X142550000Y-30745000D01*
X145389990Y-31500010D02*
X143305010Y-31500010D01*
X145480000Y-31410000D02*
X145389990Y-31500010D01*
X145480000Y-31000000D02*
X145480000Y-31410000D01*
X131250000Y-55010010D02*
X129000010Y-55010010D01*
X136000000Y-55010010D02*
X134500010Y-55010010D01*
X121500000Y-28000000D02*
X123500000Y-28000000D01*
X118443442Y-45823442D02*
X118120000Y-45500000D01*
X119679999Y-47059999D02*
X118443442Y-45823442D01*
X121502001Y-47059999D02*
X119679999Y-47059999D01*
X122150000Y-47707998D02*
X121502001Y-47059999D01*
X122150000Y-48000000D02*
X122150000Y-47707998D01*
%TO.N,+3V3*%
X142010000Y-49500000D02*
X141490000Y-49500000D01*
X147270000Y-42500000D02*
X146750000Y-42500000D01*
X149040000Y-39000000D02*
X148520000Y-39000000D01*
X145020000Y-34500000D02*
X145020000Y-37500000D01*
X145020000Y-38500000D02*
X145020000Y-37500000D01*
X145020000Y-37500000D02*
X144500000Y-37500000D01*
X148250000Y-37750000D02*
X146750000Y-36250000D01*
X148064629Y-39997871D02*
X147562500Y-40500000D01*
X148064629Y-39455371D02*
X148064629Y-39997871D01*
X148520000Y-39000000D02*
X148064629Y-39455371D01*
X147562500Y-42577500D02*
X147450000Y-42690000D01*
X147562500Y-40500000D02*
X147562500Y-42577500D01*
X148700000Y-42690000D02*
X149000000Y-42990000D01*
X147450000Y-42690000D02*
X148700000Y-42690000D01*
X147999990Y-30499990D02*
X149250000Y-31750000D01*
X145020010Y-30499990D02*
X147999990Y-30499990D01*
X144520000Y-31000000D02*
X145020010Y-30499990D01*
X146750000Y-36000000D02*
X146750000Y-36250000D01*
X123015000Y-51265000D02*
X123500000Y-51750000D01*
X123015000Y-51000000D02*
X123015000Y-51265000D01*
X128735000Y-32015000D02*
X128750000Y-32000000D01*
X125000000Y-32015000D02*
X128735000Y-32015000D01*
X118859999Y-30390001D02*
X118500000Y-30750000D01*
X118859999Y-29365001D02*
X118859999Y-30390001D01*
X119725000Y-28500000D02*
X118859999Y-29365001D01*
X121500000Y-28500000D02*
X119725000Y-28500000D01*
X123349168Y-50665832D02*
X123015000Y-51000000D01*
X123411370Y-50665832D02*
X123349168Y-50665832D01*
X123890001Y-50187201D02*
X123411370Y-50665832D01*
X123890001Y-48147999D02*
X123890001Y-50187201D01*
X121990000Y-46247998D02*
X123890001Y-48147999D01*
X121990000Y-45000000D02*
X121990000Y-46247998D01*
X141699999Y-52550001D02*
X141500000Y-52750000D01*
X142200000Y-52050000D02*
X141699999Y-52550001D01*
X142200000Y-50130000D02*
X142200000Y-52050000D01*
X141990000Y-49920000D02*
X142200000Y-50130000D01*
X141990000Y-49500000D02*
X141990000Y-49920000D01*
X147562500Y-40500000D02*
X150500000Y-40500000D01*
X137450000Y-52800000D02*
X137450000Y-52800000D01*
D27*
X123500000Y-52032842D02*
X123500000Y-51750000D01*
X124267158Y-52800000D02*
X123500000Y-52032842D01*
X142340001Y-49850001D02*
X142312737Y-49822737D01*
X142340001Y-52009999D02*
X142340001Y-49850001D01*
X142312737Y-49822737D02*
X141990000Y-49500000D01*
D28*
X129550000Y-52800000D02*
X131450000Y-52800000D01*
X124521942Y-52800000D02*
X124506218Y-52790001D01*
X125450000Y-52800000D02*
X124521942Y-52800000D01*
D27*
X124506218Y-52790001D02*
X124267158Y-52800000D01*
D28*
X142250000Y-52512002D02*
X142250000Y-52290001D01*
X141962002Y-52800000D02*
X142250000Y-52512002D01*
X141550000Y-52800000D02*
X141962002Y-52800000D01*
D27*
X142250000Y-52290001D02*
X142340001Y-52009999D01*
D28*
X136400000Y-52800000D02*
X135590010Y-52800000D01*
D27*
X135550000Y-52800000D02*
X136400000Y-52800000D01*
D28*
X136700000Y-52800000D02*
X137419990Y-52800000D01*
D27*
X136400000Y-52800000D02*
X136700000Y-52800000D01*
X136700000Y-52800000D02*
X137450000Y-52800000D01*
D26*
X126190001Y-35157001D02*
X125637012Y-35709990D01*
X126190001Y-32612799D02*
X126190001Y-35157001D01*
X125592202Y-32015000D02*
X126190001Y-32612799D01*
X125000000Y-32015000D02*
X125592202Y-32015000D01*
X125175000Y-36000000D02*
X125000000Y-35825000D01*
D13*
%TO.N,Net-(C5-Pad2)*%
X119080000Y-31910000D02*
X119080000Y-31500000D01*
X119670000Y-32500000D02*
X119080000Y-31910000D01*
X121500000Y-32500000D02*
X119670000Y-32500000D01*
X119080000Y-32100000D02*
X118680000Y-32500000D01*
X119080000Y-31500000D02*
X119080000Y-32100000D01*
X118680000Y-32500000D02*
X121500000Y-32500000D01*
%TO.N,Net-(C8-Pad1)*%
X118800000Y-33000000D02*
X118300000Y-33500000D01*
X121500000Y-33000000D02*
X118800000Y-33000000D01*
%TO.N,Net-(C10-Pad1)*%
X118323442Y-34176558D02*
X118000000Y-34500000D01*
X118329438Y-34176558D02*
X118323442Y-34176558D01*
X119005996Y-33500000D02*
X118329438Y-34176558D01*
X121500000Y-33500000D02*
X119005996Y-33500000D01*
%TO.N,Net-(C11-Pad1)*%
X119140069Y-44059931D02*
X119023442Y-44176558D01*
X119140069Y-42184931D02*
X119140069Y-44059931D01*
X119825000Y-41500000D02*
X119140069Y-42184931D01*
X119023442Y-44176558D02*
X118700000Y-44500000D01*
X121500000Y-41500000D02*
X119825000Y-41500000D01*
%TO.N,Net-(C12-Pad1)*%
X119403442Y-42421558D02*
X119403442Y-45176558D01*
X119825000Y-42000000D02*
X119403442Y-42421558D01*
X119403442Y-45176558D02*
X119080000Y-45500000D01*
X121500000Y-42000000D02*
X119825000Y-42000000D01*
%TO.N,Net-(C13-Pad1)*%
X119300000Y-34000000D02*
X117800000Y-35500000D01*
X121500000Y-34000000D02*
X119300000Y-34000000D01*
%TO.N,Net-(C14-Pad1)*%
X118623442Y-43176558D02*
X118300000Y-43500000D01*
X118950059Y-42849941D02*
X118623442Y-43176558D01*
X118950059Y-41874941D02*
X118950059Y-42849941D01*
X119825000Y-41000000D02*
X118950059Y-41874941D01*
X121500000Y-41000000D02*
X119825000Y-41000000D01*
%TO.N,Net-(C15-Pad2)*%
X117070010Y-37950010D02*
X116943442Y-37823442D01*
X117835986Y-37950010D02*
X117070010Y-37950010D01*
X118825000Y-36960996D02*
X117835986Y-37950010D01*
X118825000Y-36500000D02*
X118825000Y-36960996D01*
X119825000Y-35500000D02*
X118825000Y-36500000D01*
X116943442Y-37823442D02*
X116620000Y-37500000D01*
X121500000Y-35500000D02*
X119825000Y-35500000D01*
%TO.N,Net-(C15-Pad1)*%
X117903442Y-37176558D02*
X117580000Y-37500000D01*
X118040010Y-37039990D02*
X117903442Y-37176558D01*
X118040010Y-36784990D02*
X118040010Y-37039990D01*
X119825000Y-35000000D02*
X118040010Y-36784990D01*
X121500000Y-35000000D02*
X119825000Y-35000000D01*
%TO.N,Net-(C16-Pad2)*%
X116863442Y-38823442D02*
X116540000Y-38500000D01*
X116990010Y-38950010D02*
X116863442Y-38823442D01*
X117755986Y-38950010D02*
X116990010Y-38950010D01*
X119325000Y-37380996D02*
X117755986Y-38950010D01*
X119325000Y-37000000D02*
X119325000Y-37380996D01*
X119825000Y-36500000D02*
X119325000Y-37000000D01*
X121500000Y-36500000D02*
X119825000Y-36500000D01*
%TO.N,Net-(C16-Pad1)*%
X117880000Y-38500000D02*
X117500000Y-38500000D01*
X119015010Y-36809990D02*
X119015010Y-37364990D01*
X119015010Y-37364990D02*
X117880000Y-38500000D01*
X119825000Y-36000000D02*
X119015010Y-36809990D01*
X121500000Y-36000000D02*
X119825000Y-36000000D01*
%TO.N,Net-(C17-Pad2)*%
X116883442Y-39823442D02*
X116560000Y-39500000D01*
X117010010Y-39950010D02*
X116883442Y-39823442D01*
X117775986Y-39950010D02*
X117010010Y-39950010D01*
X117940010Y-39785986D02*
X117775986Y-39950010D01*
X117940010Y-39384990D02*
X117940010Y-39785986D01*
X119825000Y-37500000D02*
X117940010Y-39384990D01*
X121500000Y-37500000D02*
X119825000Y-37500000D01*
%TO.N,Net-(C17-Pad1)*%
X117843442Y-39176558D02*
X117520000Y-39500000D01*
X119515010Y-37504990D02*
X117843442Y-39176558D01*
X119515010Y-37309990D02*
X119515010Y-37504990D01*
X119825000Y-37000000D02*
X119515010Y-37309990D01*
X121500000Y-37000000D02*
X119825000Y-37000000D01*
%TO.N,Net-(C18-Pad2)*%
X116943442Y-40823442D02*
X116620000Y-40500000D01*
X117070010Y-40950010D02*
X116943442Y-40823442D01*
X117835986Y-40950010D02*
X117070010Y-40950010D01*
X118000010Y-40785986D02*
X117835986Y-40950010D01*
X118000010Y-40497988D02*
X118000010Y-40785986D01*
X119997998Y-38500000D02*
X118000010Y-40497988D01*
X121500000Y-38500000D02*
X119997998Y-38500000D01*
%TO.N,Net-(C18-Pad1)*%
X117903442Y-40176558D02*
X117580000Y-40500000D01*
X117903442Y-40094556D02*
X117903442Y-40176558D01*
X119997998Y-38000000D02*
X117903442Y-40094556D01*
X121500000Y-38000000D02*
X119997998Y-38000000D01*
%TO.N,Net-(C19-Pad2)*%
X121500000Y-39500000D02*
X119593714Y-39500000D01*
X117163442Y-41823442D02*
X116840000Y-41500000D01*
X117290010Y-41950010D02*
X117163442Y-41823442D01*
X118055986Y-41950010D02*
X117290010Y-41950010D01*
X118380030Y-41625966D02*
X118055986Y-41950010D01*
X118380030Y-40713684D02*
X118380030Y-41625966D01*
X119593714Y-39500000D02*
X118380030Y-40713684D01*
%TO.N,Net-(C19-Pad1)*%
X118325000Y-40500000D02*
X118266712Y-40500000D01*
X119825000Y-39000000D02*
X118325000Y-40500000D01*
X121500000Y-39000000D02*
X119825000Y-39000000D01*
X118123442Y-41176558D02*
X117800000Y-41500000D01*
X118190020Y-41109980D02*
X118123442Y-41176558D01*
X118190020Y-40576692D02*
X118190020Y-41109980D01*
X118266712Y-40500000D02*
X118190020Y-40576692D01*
%TO.N,Net-(C20-Pad2)*%
X117490010Y-42950010D02*
X117363442Y-42823442D01*
X118255986Y-42950010D02*
X117490010Y-42950010D01*
X118760048Y-42445948D02*
X118255986Y-42950010D01*
X118760050Y-41564950D02*
X118760048Y-42445948D01*
X119825000Y-40500000D02*
X118760050Y-41564950D01*
X117363442Y-42823442D02*
X117040000Y-42500000D01*
X121500000Y-40500000D02*
X119825000Y-40500000D01*
%TO.N,Net-(C20-Pad1)*%
X118323442Y-42176558D02*
X118000000Y-42500000D01*
X118570040Y-41929960D02*
X118323442Y-42176558D01*
X118570040Y-41254960D02*
X118570040Y-41929960D01*
X119825000Y-40000000D02*
X118570040Y-41254960D01*
X121500000Y-40000000D02*
X119825000Y-40000000D01*
%TO.N,Net-(D1-Pad1)*%
X119605000Y-34500000D02*
X117605000Y-36500000D01*
X121500000Y-34500000D02*
X119605000Y-34500000D01*
D26*
%TO.N,SDA*%
X142550000Y-37095000D02*
X144455000Y-39000000D01*
X142000000Y-37095000D02*
X142550000Y-37095000D01*
X147480000Y-39000000D02*
X148980000Y-37500000D01*
X144455000Y-39000000D02*
X147480000Y-39000000D01*
X148980000Y-37500000D02*
X150000000Y-37500000D01*
%TO.N,SCL*%
X150303442Y-38676558D02*
X149980000Y-39000000D01*
X150390001Y-38589999D02*
X150303442Y-38676558D01*
X150390001Y-37312799D02*
X150390001Y-38589999D01*
X146362202Y-33285000D02*
X150390001Y-37312799D01*
X142000000Y-33285000D02*
X146362202Y-33285000D01*
X149230000Y-39750000D02*
X148500000Y-39750000D01*
X149980000Y-39000000D02*
X149230000Y-39750000D01*
%TO.N,SPI1-SCK*%
X123275000Y-29500000D02*
X121500000Y-29500000D01*
X129097002Y-29500000D02*
X123275000Y-29500000D01*
X135190001Y-35592999D02*
X129097002Y-29500000D01*
X135190001Y-37267203D02*
X135190001Y-35592999D01*
X138827798Y-40905000D02*
X135190001Y-37267203D01*
X142000000Y-40905000D02*
X138827798Y-40905000D01*
%TO.N,SPI1-MOSI*%
X123265001Y-29190010D02*
X123074991Y-29000000D01*
X123074991Y-29000000D02*
X121500000Y-29000000D01*
X129690010Y-29190010D02*
X123265001Y-29190010D01*
X132515000Y-32015000D02*
X129690010Y-29190010D01*
X142000000Y-32015000D02*
X132515000Y-32015000D01*
%TO.N,Net-(R3-Pad1)*%
X126200000Y-38365000D02*
X125000000Y-38365000D01*
X128770001Y-40935001D02*
X126200000Y-38365000D01*
X133687003Y-40935001D02*
X128770001Y-40935001D01*
X140890001Y-48687201D02*
X140890001Y-48137999D01*
X140132201Y-49445001D02*
X140890001Y-48687201D01*
X139154999Y-49445001D02*
X140132201Y-49445001D01*
X137450000Y-51150000D02*
X139154999Y-49445001D01*
X140890001Y-48137999D02*
X133687003Y-40935001D01*
X137450000Y-51200000D02*
X137450000Y-51150000D01*
D27*
X137450000Y-51200000D02*
X141550000Y-51200000D01*
D28*
X141250000Y-51500000D02*
X141499991Y-51250009D01*
X137750000Y-51500000D02*
X141250000Y-51500000D01*
X137450000Y-51200000D02*
X137750000Y-51500000D01*
X138510000Y-51847998D02*
X138510000Y-53100000D01*
X137862002Y-51200000D02*
X138510000Y-51847998D01*
X137450000Y-51200000D02*
X137862002Y-51200000D01*
D27*
X138510000Y-54500000D02*
X138510000Y-53100000D01*
D26*
%TO.N,Net-(R4-Pad1)*%
X129000000Y-45247998D02*
X129000000Y-42000000D01*
X127144999Y-47102999D02*
X129000000Y-45247998D01*
X127144999Y-49407001D02*
X127144999Y-47102999D01*
X127182999Y-49445001D02*
X127144999Y-49407001D01*
X127845001Y-49445001D02*
X127182999Y-49445001D01*
X129550000Y-51150000D02*
X127845001Y-49445001D01*
X129550000Y-51200000D02*
X129550000Y-51150000D01*
X124905000Y-37000000D02*
X125000000Y-37095000D01*
X124000000Y-37000000D02*
X124905000Y-37000000D01*
D27*
X129550000Y-51250000D02*
X129550000Y-51200000D01*
X128600000Y-52200000D02*
X129550000Y-51250000D01*
X128600000Y-53590000D02*
X128600000Y-52200000D01*
X129510000Y-54500000D02*
X128600000Y-53590000D01*
X125450000Y-51200000D02*
X129550000Y-51200000D01*
D28*
X129309999Y-51440001D02*
X128859999Y-51440001D01*
X129550000Y-51200000D02*
X129309999Y-51440001D01*
D26*
%TO.N,Net-(R5-Pad1)*%
X140485000Y-45985000D02*
X140000000Y-45500000D01*
X142000000Y-45985000D02*
X140485000Y-45985000D01*
D27*
X134500000Y-52250000D02*
X135550000Y-51200000D01*
X134500000Y-52500000D02*
X134500000Y-52250000D01*
X135010000Y-53822002D02*
X135010000Y-54500000D01*
X134500000Y-53312002D02*
X135010000Y-53822002D01*
X134500000Y-52500000D02*
X134500000Y-53312002D01*
D28*
X132177999Y-51440001D02*
X132600000Y-51440001D01*
X131690001Y-51440001D02*
X132177999Y-51440001D01*
X131450000Y-51200000D02*
X131690001Y-51440001D01*
D27*
X135550000Y-51200000D02*
X132600000Y-51440001D01*
D28*
X135309999Y-51440001D02*
X132177999Y-51440001D01*
X134500000Y-51837998D02*
X134500000Y-53312002D01*
X134897997Y-51440001D02*
X134500000Y-51837998D01*
X135309999Y-51440001D02*
X134897997Y-51440001D01*
X135550000Y-51200000D02*
X135309999Y-51440001D01*
D26*
%TO.N,Net-(D2-Pad2)*%
X124500000Y-51515000D02*
X123985000Y-51000000D01*
X124500000Y-52000000D02*
X124500000Y-51515000D01*
%TO.N,Net-(J3-Pad9)*%
X125000000Y-41135000D02*
X126365000Y-41135000D01*
X121525772Y-32025772D02*
X121500000Y-32000000D01*
X123474228Y-32025772D02*
X121525772Y-32025772D01*
%TO.N,Net-(J3-Pad8)*%
X126365000Y-39635000D02*
X126500000Y-39500000D01*
X125000000Y-39635000D02*
X126365000Y-39635000D01*
X123500000Y-31500000D02*
X121500000Y-31500000D01*
%TO.N,Net-(J3-Pad7)*%
X125000000Y-44635000D02*
X126365000Y-44635000D01*
X119750000Y-31000000D02*
X121500000Y-31000000D01*
X119250000Y-30500000D02*
X119750000Y-31000000D01*
%TO.N,Net-(J3-Pad6)*%
X125000000Y-43635000D02*
X126365000Y-43635000D01*
%TO.N,Net-(J3-Pad5)*%
X125000000Y-42135000D02*
X126365000Y-42135000D01*
X123500000Y-30000000D02*
X121500000Y-30000000D01*
%TO.N,Net-(IC1-Pad13)*%
X143000000Y-49510000D02*
X143010000Y-49500000D01*
X143000000Y-50000000D02*
X143000000Y-49510000D01*
%TO.N,Net-(R2-Pad2)*%
X144000000Y-43500000D02*
X144000000Y-44500000D01*
%TO.N,Net-(R2-Pad1)*%
X124450000Y-33285000D02*
X125000000Y-33285000D01*
X123265001Y-34469999D02*
X124450000Y-33285000D01*
X123265001Y-44744999D02*
X123265001Y-34469999D01*
X123010000Y-45000000D02*
X123265001Y-44744999D01*
X123010000Y-45990000D02*
X123000000Y-46000000D01*
X123010000Y-45000000D02*
X123010000Y-45990000D01*
X143500000Y-46020000D02*
X144000000Y-45520000D01*
X143500000Y-46500000D02*
X143500000Y-46020000D01*
%TO.N,Net-(R7-Pad1)*%
X142245000Y-47500000D02*
X142000000Y-47255000D01*
X143500000Y-47500000D02*
X142245000Y-47500000D01*
X148682041Y-46762946D02*
X148613681Y-46886321D01*
X148613681Y-46886321D02*
X147250000Y-48250000D01*
X148924690Y-46300614D02*
X148805085Y-46532747D01*
X149000000Y-46148865D02*
X148924690Y-46300614D01*
X148805085Y-46532747D02*
X148682041Y-46762946D01*
X149000000Y-44010000D02*
X149000000Y-46148865D01*
%TO.N,Net-(R8-Pad2)*%
X139460000Y-48500000D02*
X139215000Y-48255000D01*
X140500000Y-48500000D02*
X139460000Y-48500000D01*
X123010000Y-50000000D02*
X123500000Y-50000000D01*
%TO.N,Net-(JP1-Pad1)*%
X120850000Y-48860000D02*
X120850000Y-48000000D01*
X121990000Y-50000000D02*
X120850000Y-48860000D01*
%TO.N,Net-(TP8-Pad1)*%
X140500000Y-35000000D02*
X141000000Y-34500000D01*
X141055000Y-34555000D02*
X142000000Y-34555000D01*
X141000000Y-34500000D02*
X141055000Y-34555000D01*
%TO.N,Net-(TP9-Pad1)*%
X139675000Y-35825000D02*
X142000000Y-35825000D01*
X137000000Y-38500000D02*
X139675000Y-35825000D01*
%TO.N,Net-(TP6-Pad1)*%
X138000000Y-48200000D02*
X137945000Y-48255000D01*
X138000000Y-46000000D02*
X138000000Y-48200000D01*
%TO.N,Net-(TP5-Pad1)*%
X129000000Y-48200000D02*
X129055000Y-48255000D01*
X129000000Y-46500000D02*
X129000000Y-48200000D01*
%TO.N,Net-(TP2-Pad1)*%
X125255000Y-47000000D02*
X125000000Y-47255000D01*
X126500000Y-47000000D02*
X125255000Y-47000000D01*
%TO.N,Net-(TP3-Pad1)*%
X125015000Y-46000000D02*
X125000000Y-45985000D01*
X127000000Y-46000000D02*
X125015000Y-46000000D01*
%TO.N,Net-(BT1-Pad1)*%
X143500000Y-49020000D02*
X145520000Y-47000000D01*
X143500000Y-51207107D02*
X143500000Y-49020000D01*
X145520000Y-45340000D02*
X145550000Y-45310000D01*
X145520000Y-47000000D02*
X145520000Y-45340000D01*
X145940001Y-44109999D02*
X145550000Y-44500000D01*
X146859999Y-44109999D02*
X145940001Y-44109999D01*
X147450000Y-44700000D02*
X146859999Y-44109999D01*
X147450000Y-45310000D02*
X147450000Y-44700000D01*
X145550000Y-44500000D02*
X145550000Y-45310000D01*
X144510010Y-43460010D02*
X145550000Y-44500000D01*
X144510010Y-42010010D02*
X144510010Y-43460010D01*
X144000000Y-41500000D02*
X144510010Y-42010010D01*
%TO.N,Net-(L1-Pad1)*%
X145550000Y-40612500D02*
X145437500Y-40500000D01*
X145550000Y-42690000D02*
X145550000Y-40612500D01*
%TD*%
M02*
