G04 #@! TF.GenerationSoftware,KiCad,Pcbnew,(6.0.0-rc1-dev-1546-g786ee0e)*
G04 #@! TF.CreationDate,2021-05-18T14:48:32-07:00
G04 #@! TF.ProjectId,MuxBoard,4d757842-6f61-4726-942e-6b696361645f,rev?*
G04 #@! TF.SameCoordinates,Original*
G04 #@! TF.FileFunction,Legend,Top*
G04 #@! TF.FilePolarity,Positive*
%FSLAX46Y46*%
G04 Gerber Fmt 4.6, Leading zero omitted, Abs format (unit mm)*
G04 Created by KiCad (PCBNEW (6.0.0-rc1-dev-1546-g786ee0e)) date Tue 18 May 2021 02:48:32 PM PDT*
%MOMM*%
%LPD*%
G04 APERTURE LIST*
%ADD10C,0.120000*%
%ADD11C,0.150000*%
%ADD12C,0.100000*%
G04 APERTURE END LIST*
D10*
X130300000Y-52700000D02*
X130300000Y-50300000D01*
X132700000Y-52700000D02*
X130300000Y-52700000D01*
X132700000Y-50300000D02*
X132700000Y-52700000D01*
X130300000Y-50300000D02*
X132700000Y-50300000D01*
X143800000Y-84700000D02*
X143800000Y-82300000D01*
X146200000Y-84700000D02*
X143800000Y-84700000D01*
X146200000Y-82300000D02*
X146200000Y-84700000D01*
X143800000Y-82300000D02*
X146200000Y-82300000D01*
X143800000Y-80200000D02*
X143800000Y-77800000D01*
X146200000Y-80200000D02*
X143800000Y-80200000D01*
X146200000Y-77800000D02*
X146200000Y-80200000D01*
X143800000Y-77800000D02*
X146200000Y-77800000D01*
X143800000Y-75700000D02*
X143800000Y-73300000D01*
X146200000Y-75700000D02*
X143800000Y-75700000D01*
X146200000Y-73300000D02*
X146200000Y-75700000D01*
X143800000Y-73300000D02*
X146200000Y-73300000D01*
X143800000Y-71200000D02*
X143800000Y-68800000D01*
X146200000Y-71200000D02*
X143800000Y-71200000D01*
X146200000Y-68800000D02*
X146200000Y-71200000D01*
X143800000Y-68800000D02*
X146200000Y-68800000D01*
X143800000Y-66700000D02*
X143800000Y-64300000D01*
X146200000Y-66700000D02*
X143800000Y-66700000D01*
X146200000Y-64300000D02*
X146200000Y-66700000D01*
X143800000Y-64300000D02*
X146200000Y-64300000D01*
X143800000Y-62200000D02*
X143800000Y-59800000D01*
X146200000Y-62200000D02*
X143800000Y-62200000D01*
X146200000Y-59800000D02*
X146200000Y-62200000D01*
X143800000Y-59800000D02*
X146200000Y-59800000D01*
X143800000Y-57700000D02*
X143800000Y-55300000D01*
X146200000Y-57700000D02*
X143800000Y-57700000D01*
X146200000Y-55300000D02*
X146200000Y-57700000D01*
X143800000Y-55300000D02*
X146200000Y-55300000D01*
X143800000Y-52700000D02*
X143800000Y-50300000D01*
X146200000Y-52700000D02*
X143800000Y-52700000D01*
X146200000Y-50300000D02*
X146200000Y-52700000D01*
X143800000Y-50300000D02*
X146200000Y-50300000D01*
X147800000Y-84700000D02*
X147800000Y-82300000D01*
X150200000Y-84700000D02*
X147800000Y-84700000D01*
X150200000Y-82300000D02*
X150200000Y-84700000D01*
X147800000Y-82300000D02*
X150200000Y-82300000D01*
X147800000Y-80200000D02*
X147800000Y-77800000D01*
X150200000Y-80200000D02*
X147800000Y-80200000D01*
X150200000Y-77800000D02*
X150200000Y-80200000D01*
X147800000Y-77800000D02*
X150200000Y-77800000D01*
X147800000Y-75700000D02*
X147800000Y-73300000D01*
X150200000Y-75700000D02*
X147800000Y-75700000D01*
X150200000Y-73300000D02*
X150200000Y-75700000D01*
X147800000Y-73300000D02*
X150200000Y-73300000D01*
X147800000Y-71200000D02*
X147800000Y-68800000D01*
X150200000Y-71200000D02*
X147800000Y-71200000D01*
X150200000Y-68800000D02*
X150200000Y-71200000D01*
X147800000Y-68800000D02*
X150200000Y-68800000D01*
X147800000Y-66700000D02*
X147800000Y-64300000D01*
X150200000Y-66700000D02*
X147800000Y-66700000D01*
X150200000Y-64300000D02*
X150200000Y-66700000D01*
X147800000Y-64300000D02*
X150200000Y-64300000D01*
X147800000Y-62200000D02*
X147800000Y-59800000D01*
X150200000Y-62200000D02*
X147800000Y-62200000D01*
X150200000Y-59800000D02*
X150200000Y-62200000D01*
X147800000Y-59800000D02*
X150200000Y-59800000D01*
X147800000Y-57700000D02*
X147800000Y-55300000D01*
X150200000Y-57700000D02*
X147800000Y-57700000D01*
X150200000Y-55300000D02*
X150200000Y-57700000D01*
X147800000Y-55300000D02*
X150200000Y-55300000D01*
X147800000Y-52700000D02*
X147800000Y-50300000D01*
X150200000Y-52700000D02*
X147800000Y-52700000D01*
X150200000Y-50300000D02*
X150200000Y-52700000D01*
X147800000Y-50300000D02*
X150200000Y-50300000D01*
X133800000Y-56200000D02*
X133800000Y-53800000D01*
X136200000Y-56200000D02*
X133800000Y-56200000D01*
X136200000Y-53800000D02*
X136200000Y-56200000D01*
X133800000Y-53800000D02*
X136200000Y-53800000D01*
X130300000Y-56200000D02*
X130300000Y-53800000D01*
X132700000Y-56200000D02*
X130300000Y-56200000D01*
X132700000Y-53800000D02*
X132700000Y-56200000D01*
X130300000Y-53800000D02*
X132700000Y-53800000D01*
X133800000Y-52700000D02*
X133800000Y-50300000D01*
X136200000Y-52700000D02*
X133800000Y-52700000D01*
X136200000Y-50300000D02*
X136200000Y-52700000D01*
X133800000Y-50300000D02*
X136200000Y-50300000D01*
X138346359Y-51080000D02*
X138653641Y-51080000D01*
X138346359Y-50320000D02*
X138653641Y-50320000D01*
X140846359Y-51080000D02*
X141153641Y-51080000D01*
X140846359Y-50320000D02*
X141153641Y-50320000D01*
X131740000Y-72425000D02*
X129925000Y-72425000D01*
X131740000Y-72190000D02*
X131740000Y-72425000D01*
X135600000Y-72190000D02*
X131740000Y-72190000D01*
X139460000Y-72190000D02*
X139460000Y-72425000D01*
X135600000Y-72190000D02*
X139460000Y-72190000D01*
X131740000Y-85210000D02*
X131740000Y-84975000D01*
X135600000Y-85210000D02*
X131740000Y-85210000D01*
X139460000Y-85210000D02*
X139460000Y-84975000D01*
X135600000Y-85210000D02*
X139460000Y-85210000D01*
X131740000Y-58925000D02*
X129925000Y-58925000D01*
X131740000Y-58690000D02*
X131740000Y-58925000D01*
X135600000Y-58690000D02*
X131740000Y-58690000D01*
X139460000Y-58690000D02*
X139460000Y-58925000D01*
X135600000Y-58690000D02*
X139460000Y-58690000D01*
X131740000Y-71710000D02*
X131740000Y-71475000D01*
X135600000Y-71710000D02*
X131740000Y-71710000D01*
X139460000Y-71710000D02*
X139460000Y-71475000D01*
X135600000Y-71710000D02*
X139460000Y-71710000D01*
D11*
X142625000Y-53900000D02*
X142625000Y-55400000D01*
X137375000Y-52400000D02*
X137375000Y-55400000D01*
X129761904Y-52652380D02*
X130333333Y-52652380D01*
X130047619Y-53652380D02*
X130047619Y-52652380D01*
X130666666Y-53652380D02*
X130666666Y-52652380D01*
X131047619Y-52652380D01*
X131142857Y-52700000D01*
X131190476Y-52747619D01*
X131238095Y-52842857D01*
X131238095Y-52985714D01*
X131190476Y-53080952D01*
X131142857Y-53128571D01*
X131047619Y-53176190D01*
X130666666Y-53176190D01*
X132190476Y-53652380D02*
X131619047Y-53652380D01*
X131904761Y-53652380D02*
X131904761Y-52652380D01*
X131809523Y-52795238D01*
X131714285Y-52890476D01*
X131619047Y-52938095D01*
X132666666Y-53652380D02*
X132857142Y-53652380D01*
X132952380Y-53604761D01*
X133000000Y-53557142D01*
X133095238Y-53414285D01*
X133142857Y-53223809D01*
X133142857Y-52842857D01*
X133095238Y-52747619D01*
X133047619Y-52700000D01*
X132952380Y-52652380D01*
X132761904Y-52652380D01*
X132666666Y-52700000D01*
X132619047Y-52747619D01*
X132571428Y-52842857D01*
X132571428Y-53080952D01*
X132619047Y-53176190D01*
X132666666Y-53223809D01*
X132761904Y-53271428D01*
X132952380Y-53271428D01*
X133047619Y-53223809D01*
X133095238Y-53176190D01*
X133142857Y-53080952D01*
X143261904Y-80954380D02*
X143833333Y-80954380D01*
X143547619Y-81954380D02*
X143547619Y-80954380D01*
X144166666Y-81954380D02*
X144166666Y-80954380D01*
X144547619Y-80954380D01*
X144642857Y-81002000D01*
X144690476Y-81049619D01*
X144738095Y-81144857D01*
X144738095Y-81287714D01*
X144690476Y-81382952D01*
X144642857Y-81430571D01*
X144547619Y-81478190D01*
X144166666Y-81478190D01*
X145690476Y-81954380D02*
X145119047Y-81954380D01*
X145404761Y-81954380D02*
X145404761Y-80954380D01*
X145309523Y-81097238D01*
X145214285Y-81192476D01*
X145119047Y-81240095D01*
X146261904Y-81382952D02*
X146166666Y-81335333D01*
X146119047Y-81287714D01*
X146071428Y-81192476D01*
X146071428Y-81144857D01*
X146119047Y-81049619D01*
X146166666Y-81002000D01*
X146261904Y-80954380D01*
X146452380Y-80954380D01*
X146547619Y-81002000D01*
X146595238Y-81049619D01*
X146642857Y-81144857D01*
X146642857Y-81192476D01*
X146595238Y-81287714D01*
X146547619Y-81335333D01*
X146452380Y-81382952D01*
X146261904Y-81382952D01*
X146166666Y-81430571D01*
X146119047Y-81478190D01*
X146071428Y-81573428D01*
X146071428Y-81763904D01*
X146119047Y-81859142D01*
X146166666Y-81906761D01*
X146261904Y-81954380D01*
X146452380Y-81954380D01*
X146547619Y-81906761D01*
X146595238Y-81859142D01*
X146642857Y-81763904D01*
X146642857Y-81573428D01*
X146595238Y-81478190D01*
X146547619Y-81430571D01*
X146452380Y-81382952D01*
X143261904Y-76454380D02*
X143833333Y-76454380D01*
X143547619Y-77454380D02*
X143547619Y-76454380D01*
X144166666Y-77454380D02*
X144166666Y-76454380D01*
X144547619Y-76454380D01*
X144642857Y-76502000D01*
X144690476Y-76549619D01*
X144738095Y-76644857D01*
X144738095Y-76787714D01*
X144690476Y-76882952D01*
X144642857Y-76930571D01*
X144547619Y-76978190D01*
X144166666Y-76978190D01*
X145690476Y-77454380D02*
X145119047Y-77454380D01*
X145404761Y-77454380D02*
X145404761Y-76454380D01*
X145309523Y-76597238D01*
X145214285Y-76692476D01*
X145119047Y-76740095D01*
X146023809Y-76454380D02*
X146690476Y-76454380D01*
X146261904Y-77454380D01*
X143261904Y-71954380D02*
X143833333Y-71954380D01*
X143547619Y-72954380D02*
X143547619Y-71954380D01*
X144166666Y-72954380D02*
X144166666Y-71954380D01*
X144547619Y-71954380D01*
X144642857Y-72002000D01*
X144690476Y-72049619D01*
X144738095Y-72144857D01*
X144738095Y-72287714D01*
X144690476Y-72382952D01*
X144642857Y-72430571D01*
X144547619Y-72478190D01*
X144166666Y-72478190D01*
X145690476Y-72954380D02*
X145119047Y-72954380D01*
X145404761Y-72954380D02*
X145404761Y-71954380D01*
X145309523Y-72097238D01*
X145214285Y-72192476D01*
X145119047Y-72240095D01*
X146547619Y-71954380D02*
X146357142Y-71954380D01*
X146261904Y-72002000D01*
X146214285Y-72049619D01*
X146119047Y-72192476D01*
X146071428Y-72382952D01*
X146071428Y-72763904D01*
X146119047Y-72859142D01*
X146166666Y-72906761D01*
X146261904Y-72954380D01*
X146452380Y-72954380D01*
X146547619Y-72906761D01*
X146595238Y-72859142D01*
X146642857Y-72763904D01*
X146642857Y-72525809D01*
X146595238Y-72430571D01*
X146547619Y-72382952D01*
X146452380Y-72335333D01*
X146261904Y-72335333D01*
X146166666Y-72382952D01*
X146119047Y-72430571D01*
X146071428Y-72525809D01*
X143261904Y-67454380D02*
X143833333Y-67454380D01*
X143547619Y-68454380D02*
X143547619Y-67454380D01*
X144166666Y-68454380D02*
X144166666Y-67454380D01*
X144547619Y-67454380D01*
X144642857Y-67502000D01*
X144690476Y-67549619D01*
X144738095Y-67644857D01*
X144738095Y-67787714D01*
X144690476Y-67882952D01*
X144642857Y-67930571D01*
X144547619Y-67978190D01*
X144166666Y-67978190D01*
X145690476Y-68454380D02*
X145119047Y-68454380D01*
X145404761Y-68454380D02*
X145404761Y-67454380D01*
X145309523Y-67597238D01*
X145214285Y-67692476D01*
X145119047Y-67740095D01*
X146595238Y-67454380D02*
X146119047Y-67454380D01*
X146071428Y-67930571D01*
X146119047Y-67882952D01*
X146214285Y-67835333D01*
X146452380Y-67835333D01*
X146547619Y-67882952D01*
X146595238Y-67930571D01*
X146642857Y-68025809D01*
X146642857Y-68263904D01*
X146595238Y-68359142D01*
X146547619Y-68406761D01*
X146452380Y-68454380D01*
X146214285Y-68454380D01*
X146119047Y-68406761D01*
X146071428Y-68359142D01*
X143261904Y-62954380D02*
X143833333Y-62954380D01*
X143547619Y-63954380D02*
X143547619Y-62954380D01*
X144166666Y-63954380D02*
X144166666Y-62954380D01*
X144547619Y-62954380D01*
X144642857Y-63002000D01*
X144690476Y-63049619D01*
X144738095Y-63144857D01*
X144738095Y-63287714D01*
X144690476Y-63382952D01*
X144642857Y-63430571D01*
X144547619Y-63478190D01*
X144166666Y-63478190D01*
X145690476Y-63954380D02*
X145119047Y-63954380D01*
X145404761Y-63954380D02*
X145404761Y-62954380D01*
X145309523Y-63097238D01*
X145214285Y-63192476D01*
X145119047Y-63240095D01*
X146547619Y-63287714D02*
X146547619Y-63954380D01*
X146309523Y-62906761D02*
X146071428Y-63621047D01*
X146690476Y-63621047D01*
X143261904Y-58454380D02*
X143833333Y-58454380D01*
X143547619Y-59454380D02*
X143547619Y-58454380D01*
X144166666Y-59454380D02*
X144166666Y-58454380D01*
X144547619Y-58454380D01*
X144642857Y-58502000D01*
X144690476Y-58549619D01*
X144738095Y-58644857D01*
X144738095Y-58787714D01*
X144690476Y-58882952D01*
X144642857Y-58930571D01*
X144547619Y-58978190D01*
X144166666Y-58978190D01*
X145690476Y-59454380D02*
X145119047Y-59454380D01*
X145404761Y-59454380D02*
X145404761Y-58454380D01*
X145309523Y-58597238D01*
X145214285Y-58692476D01*
X145119047Y-58740095D01*
X146023809Y-58454380D02*
X146642857Y-58454380D01*
X146309523Y-58835333D01*
X146452380Y-58835333D01*
X146547619Y-58882952D01*
X146595238Y-58930571D01*
X146642857Y-59025809D01*
X146642857Y-59263904D01*
X146595238Y-59359142D01*
X146547619Y-59406761D01*
X146452380Y-59454380D01*
X146166666Y-59454380D01*
X146071428Y-59406761D01*
X146023809Y-59359142D01*
X143261904Y-53954380D02*
X143833333Y-53954380D01*
X143547619Y-54954380D02*
X143547619Y-53954380D01*
X144166666Y-54954380D02*
X144166666Y-53954380D01*
X144547619Y-53954380D01*
X144642857Y-54002000D01*
X144690476Y-54049619D01*
X144738095Y-54144857D01*
X144738095Y-54287714D01*
X144690476Y-54382952D01*
X144642857Y-54430571D01*
X144547619Y-54478190D01*
X144166666Y-54478190D01*
X145690476Y-54954380D02*
X145119047Y-54954380D01*
X145404761Y-54954380D02*
X145404761Y-53954380D01*
X145309523Y-54097238D01*
X145214285Y-54192476D01*
X145119047Y-54240095D01*
X146071428Y-54049619D02*
X146119047Y-54002000D01*
X146214285Y-53954380D01*
X146452380Y-53954380D01*
X146547619Y-54002000D01*
X146595238Y-54049619D01*
X146642857Y-54144857D01*
X146642857Y-54240095D01*
X146595238Y-54382952D01*
X146023809Y-54954380D01*
X146642857Y-54954380D01*
D12*
X144130952Y-49526190D02*
X144416666Y-49526190D01*
X144273809Y-50026190D02*
X144273809Y-49526190D01*
X144583333Y-50026190D02*
X144583333Y-49526190D01*
X144773809Y-49526190D01*
X144821428Y-49550000D01*
X144845238Y-49573809D01*
X144869047Y-49621428D01*
X144869047Y-49692857D01*
X144845238Y-49740476D01*
X144821428Y-49764285D01*
X144773809Y-49788095D01*
X144583333Y-49788095D01*
X145345238Y-50026190D02*
X145059523Y-50026190D01*
X145202380Y-50026190D02*
X145202380Y-49526190D01*
X145154761Y-49597619D01*
X145107142Y-49645238D01*
X145059523Y-49669047D01*
X145821428Y-50026190D02*
X145535714Y-50026190D01*
X145678571Y-50026190D02*
X145678571Y-49526190D01*
X145630952Y-49597619D01*
X145583333Y-49645238D01*
X145535714Y-49669047D01*
D11*
X147261904Y-80954380D02*
X147833333Y-80954380D01*
X147547619Y-81954380D02*
X147547619Y-80954380D01*
X148166666Y-81954380D02*
X148166666Y-80954380D01*
X148547619Y-80954380D01*
X148642857Y-81002000D01*
X148690476Y-81049619D01*
X148738095Y-81144857D01*
X148738095Y-81287714D01*
X148690476Y-81382952D01*
X148642857Y-81430571D01*
X148547619Y-81478190D01*
X148166666Y-81478190D01*
X149690476Y-81954380D02*
X149119047Y-81954380D01*
X149404761Y-81954380D02*
X149404761Y-80954380D01*
X149309523Y-81097238D01*
X149214285Y-81192476D01*
X149119047Y-81240095D01*
X150309523Y-80954380D02*
X150404761Y-80954380D01*
X150500000Y-81002000D01*
X150547619Y-81049619D01*
X150595238Y-81144857D01*
X150642857Y-81335333D01*
X150642857Y-81573428D01*
X150595238Y-81763904D01*
X150547619Y-81859142D01*
X150500000Y-81906761D01*
X150404761Y-81954380D01*
X150309523Y-81954380D01*
X150214285Y-81906761D01*
X150166666Y-81859142D01*
X150119047Y-81763904D01*
X150071428Y-81573428D01*
X150071428Y-81335333D01*
X150119047Y-81144857D01*
X150166666Y-81049619D01*
X150214285Y-81002000D01*
X150309523Y-80954380D01*
X147738095Y-76454380D02*
X148309523Y-76454380D01*
X148023809Y-77454380D02*
X148023809Y-76454380D01*
X148642857Y-77454380D02*
X148642857Y-76454380D01*
X149023809Y-76454380D01*
X149119047Y-76502000D01*
X149166666Y-76549619D01*
X149214285Y-76644857D01*
X149214285Y-76787714D01*
X149166666Y-76882952D01*
X149119047Y-76930571D01*
X149023809Y-76978190D01*
X148642857Y-76978190D01*
X149690476Y-77454380D02*
X149880952Y-77454380D01*
X149976190Y-77406761D01*
X150023809Y-77359142D01*
X150119047Y-77216285D01*
X150166666Y-77025809D01*
X150166666Y-76644857D01*
X150119047Y-76549619D01*
X150071428Y-76502000D01*
X149976190Y-76454380D01*
X149785714Y-76454380D01*
X149690476Y-76502000D01*
X149642857Y-76549619D01*
X149595238Y-76644857D01*
X149595238Y-76882952D01*
X149642857Y-76978190D01*
X149690476Y-77025809D01*
X149785714Y-77073428D01*
X149976190Y-77073428D01*
X150071428Y-77025809D01*
X150119047Y-76978190D01*
X150166666Y-76882952D01*
X147738095Y-71954380D02*
X148309523Y-71954380D01*
X148023809Y-72954380D02*
X148023809Y-71954380D01*
X148642857Y-72954380D02*
X148642857Y-71954380D01*
X149023809Y-71954380D01*
X149119047Y-72002000D01*
X149166666Y-72049619D01*
X149214285Y-72144857D01*
X149214285Y-72287714D01*
X149166666Y-72382952D01*
X149119047Y-72430571D01*
X149023809Y-72478190D01*
X148642857Y-72478190D01*
X149785714Y-72382952D02*
X149690476Y-72335333D01*
X149642857Y-72287714D01*
X149595238Y-72192476D01*
X149595238Y-72144857D01*
X149642857Y-72049619D01*
X149690476Y-72002000D01*
X149785714Y-71954380D01*
X149976190Y-71954380D01*
X150071428Y-72002000D01*
X150119047Y-72049619D01*
X150166666Y-72144857D01*
X150166666Y-72192476D01*
X150119047Y-72287714D01*
X150071428Y-72335333D01*
X149976190Y-72382952D01*
X149785714Y-72382952D01*
X149690476Y-72430571D01*
X149642857Y-72478190D01*
X149595238Y-72573428D01*
X149595238Y-72763904D01*
X149642857Y-72859142D01*
X149690476Y-72906761D01*
X149785714Y-72954380D01*
X149976190Y-72954380D01*
X150071428Y-72906761D01*
X150119047Y-72859142D01*
X150166666Y-72763904D01*
X150166666Y-72573428D01*
X150119047Y-72478190D01*
X150071428Y-72430571D01*
X149976190Y-72382952D01*
X147738095Y-67454380D02*
X148309523Y-67454380D01*
X148023809Y-68454380D02*
X148023809Y-67454380D01*
X148642857Y-68454380D02*
X148642857Y-67454380D01*
X149023809Y-67454380D01*
X149119047Y-67502000D01*
X149166666Y-67549619D01*
X149214285Y-67644857D01*
X149214285Y-67787714D01*
X149166666Y-67882952D01*
X149119047Y-67930571D01*
X149023809Y-67978190D01*
X148642857Y-67978190D01*
X149547619Y-67454380D02*
X150214285Y-67454380D01*
X149785714Y-68454380D01*
X147738095Y-62954380D02*
X148309523Y-62954380D01*
X148023809Y-63954380D02*
X148023809Y-62954380D01*
X148642857Y-63954380D02*
X148642857Y-62954380D01*
X149023809Y-62954380D01*
X149119047Y-63002000D01*
X149166666Y-63049619D01*
X149214285Y-63144857D01*
X149214285Y-63287714D01*
X149166666Y-63382952D01*
X149119047Y-63430571D01*
X149023809Y-63478190D01*
X148642857Y-63478190D01*
X150071428Y-62954380D02*
X149880952Y-62954380D01*
X149785714Y-63002000D01*
X149738095Y-63049619D01*
X149642857Y-63192476D01*
X149595238Y-63382952D01*
X149595238Y-63763904D01*
X149642857Y-63859142D01*
X149690476Y-63906761D01*
X149785714Y-63954380D01*
X149976190Y-63954380D01*
X150071428Y-63906761D01*
X150119047Y-63859142D01*
X150166666Y-63763904D01*
X150166666Y-63525809D01*
X150119047Y-63430571D01*
X150071428Y-63382952D01*
X149976190Y-63335333D01*
X149785714Y-63335333D01*
X149690476Y-63382952D01*
X149642857Y-63430571D01*
X149595238Y-63525809D01*
X147738095Y-58454380D02*
X148309523Y-58454380D01*
X148023809Y-59454380D02*
X148023809Y-58454380D01*
X148642857Y-59454380D02*
X148642857Y-58454380D01*
X149023809Y-58454380D01*
X149119047Y-58502000D01*
X149166666Y-58549619D01*
X149214285Y-58644857D01*
X149214285Y-58787714D01*
X149166666Y-58882952D01*
X149119047Y-58930571D01*
X149023809Y-58978190D01*
X148642857Y-58978190D01*
X150119047Y-58454380D02*
X149642857Y-58454380D01*
X149595238Y-58930571D01*
X149642857Y-58882952D01*
X149738095Y-58835333D01*
X149976190Y-58835333D01*
X150071428Y-58882952D01*
X150119047Y-58930571D01*
X150166666Y-59025809D01*
X150166666Y-59263904D01*
X150119047Y-59359142D01*
X150071428Y-59406761D01*
X149976190Y-59454380D01*
X149738095Y-59454380D01*
X149642857Y-59406761D01*
X149595238Y-59359142D01*
X147738095Y-53954380D02*
X148309523Y-53954380D01*
X148023809Y-54954380D02*
X148023809Y-53954380D01*
X148642857Y-54954380D02*
X148642857Y-53954380D01*
X149023809Y-53954380D01*
X149119047Y-54002000D01*
X149166666Y-54049619D01*
X149214285Y-54144857D01*
X149214285Y-54287714D01*
X149166666Y-54382952D01*
X149119047Y-54430571D01*
X149023809Y-54478190D01*
X148642857Y-54478190D01*
X150071428Y-54287714D02*
X150071428Y-54954380D01*
X149833333Y-53906761D02*
X149595238Y-54621047D01*
X150214285Y-54621047D01*
D12*
X148369047Y-49526190D02*
X148654761Y-49526190D01*
X148511904Y-50026190D02*
X148511904Y-49526190D01*
X148821428Y-50026190D02*
X148821428Y-49526190D01*
X149011904Y-49526190D01*
X149059523Y-49550000D01*
X149083333Y-49573809D01*
X149107142Y-49621428D01*
X149107142Y-49692857D01*
X149083333Y-49740476D01*
X149059523Y-49764285D01*
X149011904Y-49788095D01*
X148821428Y-49788095D01*
X149273809Y-49526190D02*
X149583333Y-49526190D01*
X149416666Y-49716666D01*
X149488095Y-49716666D01*
X149535714Y-49740476D01*
X149559523Y-49764285D01*
X149583333Y-49811904D01*
X149583333Y-49930952D01*
X149559523Y-49978571D01*
X149535714Y-50002380D01*
X149488095Y-50026190D01*
X149345238Y-50026190D01*
X149297619Y-50002380D01*
X149273809Y-49978571D01*
D11*
X133838095Y-56452380D02*
X134409523Y-56452380D01*
X134123809Y-57452380D02*
X134123809Y-56452380D01*
X134742857Y-57452380D02*
X134742857Y-56452380D01*
X135123809Y-56452380D01*
X135219047Y-56500000D01*
X135266666Y-56547619D01*
X135314285Y-56642857D01*
X135314285Y-56785714D01*
X135266666Y-56880952D01*
X135219047Y-56928571D01*
X135123809Y-56976190D01*
X134742857Y-56976190D01*
X135695238Y-56547619D02*
X135742857Y-56500000D01*
X135838095Y-56452380D01*
X136076190Y-56452380D01*
X136171428Y-56500000D01*
X136219047Y-56547619D01*
X136266666Y-56642857D01*
X136266666Y-56738095D01*
X136219047Y-56880952D01*
X135647619Y-57452380D01*
X136266666Y-57452380D01*
X130238095Y-56452380D02*
X130809523Y-56452380D01*
X130523809Y-57452380D02*
X130523809Y-56452380D01*
X131142857Y-57452380D02*
X131142857Y-56452380D01*
X131523809Y-56452380D01*
X131619047Y-56500000D01*
X131666666Y-56547619D01*
X131714285Y-56642857D01*
X131714285Y-56785714D01*
X131666666Y-56880952D01*
X131619047Y-56928571D01*
X131523809Y-56976190D01*
X131142857Y-56976190D01*
X132666666Y-57452380D02*
X132095238Y-57452380D01*
X132380952Y-57452380D02*
X132380952Y-56452380D01*
X132285714Y-56595238D01*
X132190476Y-56690476D01*
X132095238Y-56738095D01*
X134833333Y-53652380D02*
X134500000Y-53176190D01*
X134261904Y-53652380D02*
X134261904Y-52652380D01*
X134642857Y-52652380D01*
X134738095Y-52700000D01*
X134785714Y-52747619D01*
X134833333Y-52842857D01*
X134833333Y-52985714D01*
X134785714Y-53080952D01*
X134738095Y-53128571D01*
X134642857Y-53176190D01*
X134261904Y-53176190D01*
X135166666Y-52652380D02*
X135785714Y-52652380D01*
X135452380Y-53033333D01*
X135595238Y-53033333D01*
X135690476Y-53080952D01*
X135738095Y-53128571D01*
X135785714Y-53223809D01*
X135785714Y-53461904D01*
X135738095Y-53557142D01*
X135690476Y-53604761D01*
X135595238Y-53652380D01*
X135309523Y-53652380D01*
X135214285Y-53604761D01*
X135166666Y-53557142D01*
X137033333Y-52152380D02*
X136700000Y-51676190D01*
X136461904Y-52152380D02*
X136461904Y-51152380D01*
X136842857Y-51152380D01*
X136938095Y-51200000D01*
X136985714Y-51247619D01*
X137033333Y-51342857D01*
X137033333Y-51485714D01*
X136985714Y-51580952D01*
X136938095Y-51628571D01*
X136842857Y-51676190D01*
X136461904Y-51676190D01*
X137414285Y-51247619D02*
X137461904Y-51200000D01*
X137557142Y-51152380D01*
X137795238Y-51152380D01*
X137890476Y-51200000D01*
X137938095Y-51247619D01*
X137985714Y-51342857D01*
X137985714Y-51438095D01*
X137938095Y-51580952D01*
X137366666Y-52152380D01*
X137985714Y-52152380D01*
X142733333Y-51852380D02*
X142400000Y-51376190D01*
X142161904Y-51852380D02*
X142161904Y-50852380D01*
X142542857Y-50852380D01*
X142638095Y-50900000D01*
X142685714Y-50947619D01*
X142733333Y-51042857D01*
X142733333Y-51185714D01*
X142685714Y-51280952D01*
X142638095Y-51328571D01*
X142542857Y-51376190D01*
X142161904Y-51376190D01*
X143685714Y-51852380D02*
X143114285Y-51852380D01*
X143400000Y-51852380D02*
X143400000Y-50852380D01*
X143304761Y-50995238D01*
X143209523Y-51090476D01*
X143114285Y-51138095D01*
X134838095Y-78252380D02*
X134838095Y-79061904D01*
X134885714Y-79157142D01*
X134933333Y-79204761D01*
X135028571Y-79252380D01*
X135219047Y-79252380D01*
X135314285Y-79204761D01*
X135361904Y-79157142D01*
X135409523Y-79061904D01*
X135409523Y-78252380D01*
X135790476Y-78252380D02*
X136409523Y-78252380D01*
X136076190Y-78633333D01*
X136219047Y-78633333D01*
X136314285Y-78680952D01*
X136361904Y-78728571D01*
X136409523Y-78823809D01*
X136409523Y-79061904D01*
X136361904Y-79157142D01*
X136314285Y-79204761D01*
X136219047Y-79252380D01*
X135933333Y-79252380D01*
X135838095Y-79204761D01*
X135790476Y-79157142D01*
X134838095Y-64652380D02*
X134838095Y-65461904D01*
X134885714Y-65557142D01*
X134933333Y-65604761D01*
X135028571Y-65652380D01*
X135219047Y-65652380D01*
X135314285Y-65604761D01*
X135361904Y-65557142D01*
X135409523Y-65461904D01*
X135409523Y-64652380D01*
X135838095Y-64747619D02*
X135885714Y-64700000D01*
X135980952Y-64652380D01*
X136219047Y-64652380D01*
X136314285Y-64700000D01*
X136361904Y-64747619D01*
X136409523Y-64842857D01*
X136409523Y-64938095D01*
X136361904Y-65080952D01*
X135790476Y-65652380D01*
X136409523Y-65652380D01*
X136552380Y-54661904D02*
X137361904Y-54661904D01*
X137457142Y-54614285D01*
X137504761Y-54566666D01*
X137552380Y-54471428D01*
X137552380Y-54280952D01*
X137504761Y-54185714D01*
X137457142Y-54138095D01*
X137361904Y-54090476D01*
X136552380Y-54090476D01*
X137552380Y-53090476D02*
X137552380Y-53661904D01*
X137552380Y-53376190D02*
X136552380Y-53376190D01*
X136695238Y-53471428D01*
X136790476Y-53566666D01*
X136838095Y-53661904D01*
M02*
