M48
; DRILL file {KiCad (6.0.0-rc1-dev-1546-g786ee0e)} date Tue 18 May 2021 02:48:30 PM PDT
; FORMAT={-:-/ absolute / inch / decimal}
; #@! TF.CreationDate,2021-05-18T14:48:30-07:00
; #@! TF.GenerationSoftware,Kicad,Pcbnew,(6.0.0-rc1-dev-1546-g786ee0e)
; #@! TF.FileFunction,Plated,1,2,PTH
FMAT,2
INCH
T1C0.0079
%
G90
G05
T1
X5.1772Y-2.252
X5.2087Y-2.874
X5.2126Y-2.3386
X5.2362Y-2.7913
X5.2362Y-3.3307
X5.2559Y-2.0276
X5.315Y-2.248
X5.4134Y-2.2323
X5.437Y-2.0354
X5.4567Y-2.2165
X5.4685Y-2.3543
X5.4778Y-2.2313
X5.499Y-2.2179
X5.501Y-2.0354
X5.5197Y-2.2313
X5.5217Y-2.4919
X5.5217Y-2.9234
X5.5217Y-3.0234
X5.5404Y-2.2161
X5.5423Y-2.0354
X5.5609Y-2.2087
X5.5787Y-2.8622
X5.5827Y-2.0394
X5.5827Y-2.3819
X5.5866Y-2.2313
X5.5866Y-2.9724
X5.5945Y-1.9724
X5.6063Y-2.4449
T0
M30
