G04 #@! TF.GenerationSoftware,KiCad,Pcbnew,(6.0.0-rc1-dev-1546-g786ee0e)*
G04 #@! TF.CreationDate,2021-05-18T14:48:32-07:00
G04 #@! TF.ProjectId,MuxBoard,4d757842-6f61-4726-942e-6b696361645f,rev?*
G04 #@! TF.SameCoordinates,Original*
G04 #@! TF.FileFunction,Paste,Top*
G04 #@! TF.FilePolarity,Positive*
%FSLAX46Y46*%
G04 Gerber Fmt 4.6, Leading zero omitted, Abs format (unit mm)*
G04 Created by KiCad (PCBNEW (6.0.0-rc1-dev-1546-g786ee0e)) date Tue 18 May 2021 02:48:32 PM PDT*
%MOMM*%
%LPD*%
G04 APERTURE LIST*
%ADD10C,0.100000*%
%ADD11C,0.540000*%
%ADD12C,0.600000*%
%ADD13R,0.710000X0.670000*%
%ADD14R,0.250000X0.650000*%
G04 APERTURE END LIST*
D10*
G36*
X139158232Y-50380650D02*
G01*
X139171337Y-50382594D01*
X139184188Y-50385813D01*
X139196662Y-50390276D01*
X139208639Y-50395941D01*
X139220002Y-50402752D01*
X139230643Y-50410644D01*
X139240459Y-50419541D01*
X139249356Y-50429357D01*
X139257248Y-50439998D01*
X139264059Y-50451361D01*
X139269724Y-50463338D01*
X139274187Y-50475812D01*
X139277406Y-50488663D01*
X139279350Y-50501768D01*
X139280000Y-50515000D01*
X139280000Y-50885000D01*
X139279350Y-50898232D01*
X139277406Y-50911337D01*
X139274187Y-50924188D01*
X139269724Y-50936662D01*
X139264059Y-50948639D01*
X139257248Y-50960002D01*
X139249356Y-50970643D01*
X139240459Y-50980459D01*
X139230643Y-50989356D01*
X139220002Y-50997248D01*
X139208639Y-51004059D01*
X139196662Y-51009724D01*
X139184188Y-51014187D01*
X139171337Y-51017406D01*
X139158232Y-51019350D01*
X139145000Y-51020000D01*
X138875000Y-51020000D01*
X138861768Y-51019350D01*
X138848663Y-51017406D01*
X138835812Y-51014187D01*
X138823338Y-51009724D01*
X138811361Y-51004059D01*
X138799998Y-50997248D01*
X138789357Y-50989356D01*
X138779541Y-50980459D01*
X138770644Y-50970643D01*
X138762752Y-50960002D01*
X138755941Y-50948639D01*
X138750276Y-50936662D01*
X138745813Y-50924188D01*
X138742594Y-50911337D01*
X138740650Y-50898232D01*
X138740000Y-50885000D01*
X138740000Y-50515000D01*
X138740650Y-50501768D01*
X138742594Y-50488663D01*
X138745813Y-50475812D01*
X138750276Y-50463338D01*
X138755941Y-50451361D01*
X138762752Y-50439998D01*
X138770644Y-50429357D01*
X138779541Y-50419541D01*
X138789357Y-50410644D01*
X138799998Y-50402752D01*
X138811361Y-50395941D01*
X138823338Y-50390276D01*
X138835812Y-50385813D01*
X138848663Y-50382594D01*
X138861768Y-50380650D01*
X138875000Y-50380000D01*
X139145000Y-50380000D01*
X139158232Y-50380650D01*
X139158232Y-50380650D01*
G37*
D11*
X139010000Y-50700000D03*
D10*
G36*
X138138232Y-50380650D02*
G01*
X138151337Y-50382594D01*
X138164188Y-50385813D01*
X138176662Y-50390276D01*
X138188639Y-50395941D01*
X138200002Y-50402752D01*
X138210643Y-50410644D01*
X138220459Y-50419541D01*
X138229356Y-50429357D01*
X138237248Y-50439998D01*
X138244059Y-50451361D01*
X138249724Y-50463338D01*
X138254187Y-50475812D01*
X138257406Y-50488663D01*
X138259350Y-50501768D01*
X138260000Y-50515000D01*
X138260000Y-50885000D01*
X138259350Y-50898232D01*
X138257406Y-50911337D01*
X138254187Y-50924188D01*
X138249724Y-50936662D01*
X138244059Y-50948639D01*
X138237248Y-50960002D01*
X138229356Y-50970643D01*
X138220459Y-50980459D01*
X138210643Y-50989356D01*
X138200002Y-50997248D01*
X138188639Y-51004059D01*
X138176662Y-51009724D01*
X138164188Y-51014187D01*
X138151337Y-51017406D01*
X138138232Y-51019350D01*
X138125000Y-51020000D01*
X137855000Y-51020000D01*
X137841768Y-51019350D01*
X137828663Y-51017406D01*
X137815812Y-51014187D01*
X137803338Y-51009724D01*
X137791361Y-51004059D01*
X137779998Y-50997248D01*
X137769357Y-50989356D01*
X137759541Y-50980459D01*
X137750644Y-50970643D01*
X137742752Y-50960002D01*
X137735941Y-50948639D01*
X137730276Y-50936662D01*
X137725813Y-50924188D01*
X137722594Y-50911337D01*
X137720650Y-50898232D01*
X137720000Y-50885000D01*
X137720000Y-50515000D01*
X137720650Y-50501768D01*
X137722594Y-50488663D01*
X137725813Y-50475812D01*
X137730276Y-50463338D01*
X137735941Y-50451361D01*
X137742752Y-50439998D01*
X137750644Y-50429357D01*
X137759541Y-50419541D01*
X137769357Y-50410644D01*
X137779998Y-50402752D01*
X137791361Y-50395941D01*
X137803338Y-50390276D01*
X137815812Y-50385813D01*
X137828663Y-50382594D01*
X137841768Y-50380650D01*
X137855000Y-50380000D01*
X138125000Y-50380000D01*
X138138232Y-50380650D01*
X138138232Y-50380650D01*
G37*
D11*
X137990000Y-50700000D03*
D10*
G36*
X141658232Y-50380650D02*
G01*
X141671337Y-50382594D01*
X141684188Y-50385813D01*
X141696662Y-50390276D01*
X141708639Y-50395941D01*
X141720002Y-50402752D01*
X141730643Y-50410644D01*
X141740459Y-50419541D01*
X141749356Y-50429357D01*
X141757248Y-50439998D01*
X141764059Y-50451361D01*
X141769724Y-50463338D01*
X141774187Y-50475812D01*
X141777406Y-50488663D01*
X141779350Y-50501768D01*
X141780000Y-50515000D01*
X141780000Y-50885000D01*
X141779350Y-50898232D01*
X141777406Y-50911337D01*
X141774187Y-50924188D01*
X141769724Y-50936662D01*
X141764059Y-50948639D01*
X141757248Y-50960002D01*
X141749356Y-50970643D01*
X141740459Y-50980459D01*
X141730643Y-50989356D01*
X141720002Y-50997248D01*
X141708639Y-51004059D01*
X141696662Y-51009724D01*
X141684188Y-51014187D01*
X141671337Y-51017406D01*
X141658232Y-51019350D01*
X141645000Y-51020000D01*
X141375000Y-51020000D01*
X141361768Y-51019350D01*
X141348663Y-51017406D01*
X141335812Y-51014187D01*
X141323338Y-51009724D01*
X141311361Y-51004059D01*
X141299998Y-50997248D01*
X141289357Y-50989356D01*
X141279541Y-50980459D01*
X141270644Y-50970643D01*
X141262752Y-50960002D01*
X141255941Y-50948639D01*
X141250276Y-50936662D01*
X141245813Y-50924188D01*
X141242594Y-50911337D01*
X141240650Y-50898232D01*
X141240000Y-50885000D01*
X141240000Y-50515000D01*
X141240650Y-50501768D01*
X141242594Y-50488663D01*
X141245813Y-50475812D01*
X141250276Y-50463338D01*
X141255941Y-50451361D01*
X141262752Y-50439998D01*
X141270644Y-50429357D01*
X141279541Y-50419541D01*
X141289357Y-50410644D01*
X141299998Y-50402752D01*
X141311361Y-50395941D01*
X141323338Y-50390276D01*
X141335812Y-50385813D01*
X141348663Y-50382594D01*
X141361768Y-50380650D01*
X141375000Y-50380000D01*
X141645000Y-50380000D01*
X141658232Y-50380650D01*
X141658232Y-50380650D01*
G37*
D11*
X141510000Y-50700000D03*
D10*
G36*
X140638232Y-50380650D02*
G01*
X140651337Y-50382594D01*
X140664188Y-50385813D01*
X140676662Y-50390276D01*
X140688639Y-50395941D01*
X140700002Y-50402752D01*
X140710643Y-50410644D01*
X140720459Y-50419541D01*
X140729356Y-50429357D01*
X140737248Y-50439998D01*
X140744059Y-50451361D01*
X140749724Y-50463338D01*
X140754187Y-50475812D01*
X140757406Y-50488663D01*
X140759350Y-50501768D01*
X140760000Y-50515000D01*
X140760000Y-50885000D01*
X140759350Y-50898232D01*
X140757406Y-50911337D01*
X140754187Y-50924188D01*
X140749724Y-50936662D01*
X140744059Y-50948639D01*
X140737248Y-50960002D01*
X140729356Y-50970643D01*
X140720459Y-50980459D01*
X140710643Y-50989356D01*
X140700002Y-50997248D01*
X140688639Y-51004059D01*
X140676662Y-51009724D01*
X140664188Y-51014187D01*
X140651337Y-51017406D01*
X140638232Y-51019350D01*
X140625000Y-51020000D01*
X140355000Y-51020000D01*
X140341768Y-51019350D01*
X140328663Y-51017406D01*
X140315812Y-51014187D01*
X140303338Y-51009724D01*
X140291361Y-51004059D01*
X140279998Y-50997248D01*
X140269357Y-50989356D01*
X140259541Y-50980459D01*
X140250644Y-50970643D01*
X140242752Y-50960002D01*
X140235941Y-50948639D01*
X140230276Y-50936662D01*
X140225813Y-50924188D01*
X140222594Y-50911337D01*
X140220650Y-50898232D01*
X140220000Y-50885000D01*
X140220000Y-50515000D01*
X140220650Y-50501768D01*
X140222594Y-50488663D01*
X140225813Y-50475812D01*
X140230276Y-50463338D01*
X140235941Y-50451361D01*
X140242752Y-50439998D01*
X140250644Y-50429357D01*
X140259541Y-50419541D01*
X140269357Y-50410644D01*
X140279998Y-50402752D01*
X140291361Y-50395941D01*
X140303338Y-50390276D01*
X140315812Y-50385813D01*
X140328663Y-50382594D01*
X140341768Y-50380650D01*
X140355000Y-50380000D01*
X140625000Y-50380000D01*
X140638232Y-50380650D01*
X140638232Y-50380650D01*
G37*
D11*
X140490000Y-50700000D03*
D10*
G36*
X141139703Y-72685722D02*
G01*
X141154264Y-72687882D01*
X141168543Y-72691459D01*
X141182403Y-72696418D01*
X141195710Y-72702712D01*
X141208336Y-72710280D01*
X141220159Y-72719048D01*
X141231066Y-72728934D01*
X141240952Y-72739841D01*
X141249720Y-72751664D01*
X141257288Y-72764290D01*
X141263582Y-72777597D01*
X141268541Y-72791457D01*
X141272118Y-72805736D01*
X141274278Y-72820297D01*
X141275000Y-72835000D01*
X141275000Y-73135000D01*
X141274278Y-73149703D01*
X141272118Y-73164264D01*
X141268541Y-73178543D01*
X141263582Y-73192403D01*
X141257288Y-73205710D01*
X141249720Y-73218336D01*
X141240952Y-73230159D01*
X141231066Y-73241066D01*
X141220159Y-73250952D01*
X141208336Y-73259720D01*
X141195710Y-73267288D01*
X141182403Y-73273582D01*
X141168543Y-73278541D01*
X141154264Y-73282118D01*
X141139703Y-73284278D01*
X141125000Y-73285000D01*
X139375000Y-73285000D01*
X139360297Y-73284278D01*
X139345736Y-73282118D01*
X139331457Y-73278541D01*
X139317597Y-73273582D01*
X139304290Y-73267288D01*
X139291664Y-73259720D01*
X139279841Y-73250952D01*
X139268934Y-73241066D01*
X139259048Y-73230159D01*
X139250280Y-73218336D01*
X139242712Y-73205710D01*
X139236418Y-73192403D01*
X139231459Y-73178543D01*
X139227882Y-73164264D01*
X139225722Y-73149703D01*
X139225000Y-73135000D01*
X139225000Y-72835000D01*
X139225722Y-72820297D01*
X139227882Y-72805736D01*
X139231459Y-72791457D01*
X139236418Y-72777597D01*
X139242712Y-72764290D01*
X139250280Y-72751664D01*
X139259048Y-72739841D01*
X139268934Y-72728934D01*
X139279841Y-72719048D01*
X139291664Y-72710280D01*
X139304290Y-72702712D01*
X139317597Y-72696418D01*
X139331457Y-72691459D01*
X139345736Y-72687882D01*
X139360297Y-72685722D01*
X139375000Y-72685000D01*
X141125000Y-72685000D01*
X141139703Y-72685722D01*
X141139703Y-72685722D01*
G37*
D12*
X140250000Y-72985000D03*
D10*
G36*
X141139703Y-73955722D02*
G01*
X141154264Y-73957882D01*
X141168543Y-73961459D01*
X141182403Y-73966418D01*
X141195710Y-73972712D01*
X141208336Y-73980280D01*
X141220159Y-73989048D01*
X141231066Y-73998934D01*
X141240952Y-74009841D01*
X141249720Y-74021664D01*
X141257288Y-74034290D01*
X141263582Y-74047597D01*
X141268541Y-74061457D01*
X141272118Y-74075736D01*
X141274278Y-74090297D01*
X141275000Y-74105000D01*
X141275000Y-74405000D01*
X141274278Y-74419703D01*
X141272118Y-74434264D01*
X141268541Y-74448543D01*
X141263582Y-74462403D01*
X141257288Y-74475710D01*
X141249720Y-74488336D01*
X141240952Y-74500159D01*
X141231066Y-74511066D01*
X141220159Y-74520952D01*
X141208336Y-74529720D01*
X141195710Y-74537288D01*
X141182403Y-74543582D01*
X141168543Y-74548541D01*
X141154264Y-74552118D01*
X141139703Y-74554278D01*
X141125000Y-74555000D01*
X139375000Y-74555000D01*
X139360297Y-74554278D01*
X139345736Y-74552118D01*
X139331457Y-74548541D01*
X139317597Y-74543582D01*
X139304290Y-74537288D01*
X139291664Y-74529720D01*
X139279841Y-74520952D01*
X139268934Y-74511066D01*
X139259048Y-74500159D01*
X139250280Y-74488336D01*
X139242712Y-74475710D01*
X139236418Y-74462403D01*
X139231459Y-74448543D01*
X139227882Y-74434264D01*
X139225722Y-74419703D01*
X139225000Y-74405000D01*
X139225000Y-74105000D01*
X139225722Y-74090297D01*
X139227882Y-74075736D01*
X139231459Y-74061457D01*
X139236418Y-74047597D01*
X139242712Y-74034290D01*
X139250280Y-74021664D01*
X139259048Y-74009841D01*
X139268934Y-73998934D01*
X139279841Y-73989048D01*
X139291664Y-73980280D01*
X139304290Y-73972712D01*
X139317597Y-73966418D01*
X139331457Y-73961459D01*
X139345736Y-73957882D01*
X139360297Y-73955722D01*
X139375000Y-73955000D01*
X141125000Y-73955000D01*
X141139703Y-73955722D01*
X141139703Y-73955722D01*
G37*
D12*
X140250000Y-74255000D03*
D10*
G36*
X141139703Y-75225722D02*
G01*
X141154264Y-75227882D01*
X141168543Y-75231459D01*
X141182403Y-75236418D01*
X141195710Y-75242712D01*
X141208336Y-75250280D01*
X141220159Y-75259048D01*
X141231066Y-75268934D01*
X141240952Y-75279841D01*
X141249720Y-75291664D01*
X141257288Y-75304290D01*
X141263582Y-75317597D01*
X141268541Y-75331457D01*
X141272118Y-75345736D01*
X141274278Y-75360297D01*
X141275000Y-75375000D01*
X141275000Y-75675000D01*
X141274278Y-75689703D01*
X141272118Y-75704264D01*
X141268541Y-75718543D01*
X141263582Y-75732403D01*
X141257288Y-75745710D01*
X141249720Y-75758336D01*
X141240952Y-75770159D01*
X141231066Y-75781066D01*
X141220159Y-75790952D01*
X141208336Y-75799720D01*
X141195710Y-75807288D01*
X141182403Y-75813582D01*
X141168543Y-75818541D01*
X141154264Y-75822118D01*
X141139703Y-75824278D01*
X141125000Y-75825000D01*
X139375000Y-75825000D01*
X139360297Y-75824278D01*
X139345736Y-75822118D01*
X139331457Y-75818541D01*
X139317597Y-75813582D01*
X139304290Y-75807288D01*
X139291664Y-75799720D01*
X139279841Y-75790952D01*
X139268934Y-75781066D01*
X139259048Y-75770159D01*
X139250280Y-75758336D01*
X139242712Y-75745710D01*
X139236418Y-75732403D01*
X139231459Y-75718543D01*
X139227882Y-75704264D01*
X139225722Y-75689703D01*
X139225000Y-75675000D01*
X139225000Y-75375000D01*
X139225722Y-75360297D01*
X139227882Y-75345736D01*
X139231459Y-75331457D01*
X139236418Y-75317597D01*
X139242712Y-75304290D01*
X139250280Y-75291664D01*
X139259048Y-75279841D01*
X139268934Y-75268934D01*
X139279841Y-75259048D01*
X139291664Y-75250280D01*
X139304290Y-75242712D01*
X139317597Y-75236418D01*
X139331457Y-75231459D01*
X139345736Y-75227882D01*
X139360297Y-75225722D01*
X139375000Y-75225000D01*
X141125000Y-75225000D01*
X141139703Y-75225722D01*
X141139703Y-75225722D01*
G37*
D12*
X140250000Y-75525000D03*
D10*
G36*
X141139703Y-76495722D02*
G01*
X141154264Y-76497882D01*
X141168543Y-76501459D01*
X141182403Y-76506418D01*
X141195710Y-76512712D01*
X141208336Y-76520280D01*
X141220159Y-76529048D01*
X141231066Y-76538934D01*
X141240952Y-76549841D01*
X141249720Y-76561664D01*
X141257288Y-76574290D01*
X141263582Y-76587597D01*
X141268541Y-76601457D01*
X141272118Y-76615736D01*
X141274278Y-76630297D01*
X141275000Y-76645000D01*
X141275000Y-76945000D01*
X141274278Y-76959703D01*
X141272118Y-76974264D01*
X141268541Y-76988543D01*
X141263582Y-77002403D01*
X141257288Y-77015710D01*
X141249720Y-77028336D01*
X141240952Y-77040159D01*
X141231066Y-77051066D01*
X141220159Y-77060952D01*
X141208336Y-77069720D01*
X141195710Y-77077288D01*
X141182403Y-77083582D01*
X141168543Y-77088541D01*
X141154264Y-77092118D01*
X141139703Y-77094278D01*
X141125000Y-77095000D01*
X139375000Y-77095000D01*
X139360297Y-77094278D01*
X139345736Y-77092118D01*
X139331457Y-77088541D01*
X139317597Y-77083582D01*
X139304290Y-77077288D01*
X139291664Y-77069720D01*
X139279841Y-77060952D01*
X139268934Y-77051066D01*
X139259048Y-77040159D01*
X139250280Y-77028336D01*
X139242712Y-77015710D01*
X139236418Y-77002403D01*
X139231459Y-76988543D01*
X139227882Y-76974264D01*
X139225722Y-76959703D01*
X139225000Y-76945000D01*
X139225000Y-76645000D01*
X139225722Y-76630297D01*
X139227882Y-76615736D01*
X139231459Y-76601457D01*
X139236418Y-76587597D01*
X139242712Y-76574290D01*
X139250280Y-76561664D01*
X139259048Y-76549841D01*
X139268934Y-76538934D01*
X139279841Y-76529048D01*
X139291664Y-76520280D01*
X139304290Y-76512712D01*
X139317597Y-76506418D01*
X139331457Y-76501459D01*
X139345736Y-76497882D01*
X139360297Y-76495722D01*
X139375000Y-76495000D01*
X141125000Y-76495000D01*
X141139703Y-76495722D01*
X141139703Y-76495722D01*
G37*
D12*
X140250000Y-76795000D03*
D10*
G36*
X141139703Y-77765722D02*
G01*
X141154264Y-77767882D01*
X141168543Y-77771459D01*
X141182403Y-77776418D01*
X141195710Y-77782712D01*
X141208336Y-77790280D01*
X141220159Y-77799048D01*
X141231066Y-77808934D01*
X141240952Y-77819841D01*
X141249720Y-77831664D01*
X141257288Y-77844290D01*
X141263582Y-77857597D01*
X141268541Y-77871457D01*
X141272118Y-77885736D01*
X141274278Y-77900297D01*
X141275000Y-77915000D01*
X141275000Y-78215000D01*
X141274278Y-78229703D01*
X141272118Y-78244264D01*
X141268541Y-78258543D01*
X141263582Y-78272403D01*
X141257288Y-78285710D01*
X141249720Y-78298336D01*
X141240952Y-78310159D01*
X141231066Y-78321066D01*
X141220159Y-78330952D01*
X141208336Y-78339720D01*
X141195710Y-78347288D01*
X141182403Y-78353582D01*
X141168543Y-78358541D01*
X141154264Y-78362118D01*
X141139703Y-78364278D01*
X141125000Y-78365000D01*
X139375000Y-78365000D01*
X139360297Y-78364278D01*
X139345736Y-78362118D01*
X139331457Y-78358541D01*
X139317597Y-78353582D01*
X139304290Y-78347288D01*
X139291664Y-78339720D01*
X139279841Y-78330952D01*
X139268934Y-78321066D01*
X139259048Y-78310159D01*
X139250280Y-78298336D01*
X139242712Y-78285710D01*
X139236418Y-78272403D01*
X139231459Y-78258543D01*
X139227882Y-78244264D01*
X139225722Y-78229703D01*
X139225000Y-78215000D01*
X139225000Y-77915000D01*
X139225722Y-77900297D01*
X139227882Y-77885736D01*
X139231459Y-77871457D01*
X139236418Y-77857597D01*
X139242712Y-77844290D01*
X139250280Y-77831664D01*
X139259048Y-77819841D01*
X139268934Y-77808934D01*
X139279841Y-77799048D01*
X139291664Y-77790280D01*
X139304290Y-77782712D01*
X139317597Y-77776418D01*
X139331457Y-77771459D01*
X139345736Y-77767882D01*
X139360297Y-77765722D01*
X139375000Y-77765000D01*
X141125000Y-77765000D01*
X141139703Y-77765722D01*
X141139703Y-77765722D01*
G37*
D12*
X140250000Y-78065000D03*
D10*
G36*
X141139703Y-79035722D02*
G01*
X141154264Y-79037882D01*
X141168543Y-79041459D01*
X141182403Y-79046418D01*
X141195710Y-79052712D01*
X141208336Y-79060280D01*
X141220159Y-79069048D01*
X141231066Y-79078934D01*
X141240952Y-79089841D01*
X141249720Y-79101664D01*
X141257288Y-79114290D01*
X141263582Y-79127597D01*
X141268541Y-79141457D01*
X141272118Y-79155736D01*
X141274278Y-79170297D01*
X141275000Y-79185000D01*
X141275000Y-79485000D01*
X141274278Y-79499703D01*
X141272118Y-79514264D01*
X141268541Y-79528543D01*
X141263582Y-79542403D01*
X141257288Y-79555710D01*
X141249720Y-79568336D01*
X141240952Y-79580159D01*
X141231066Y-79591066D01*
X141220159Y-79600952D01*
X141208336Y-79609720D01*
X141195710Y-79617288D01*
X141182403Y-79623582D01*
X141168543Y-79628541D01*
X141154264Y-79632118D01*
X141139703Y-79634278D01*
X141125000Y-79635000D01*
X139375000Y-79635000D01*
X139360297Y-79634278D01*
X139345736Y-79632118D01*
X139331457Y-79628541D01*
X139317597Y-79623582D01*
X139304290Y-79617288D01*
X139291664Y-79609720D01*
X139279841Y-79600952D01*
X139268934Y-79591066D01*
X139259048Y-79580159D01*
X139250280Y-79568336D01*
X139242712Y-79555710D01*
X139236418Y-79542403D01*
X139231459Y-79528543D01*
X139227882Y-79514264D01*
X139225722Y-79499703D01*
X139225000Y-79485000D01*
X139225000Y-79185000D01*
X139225722Y-79170297D01*
X139227882Y-79155736D01*
X139231459Y-79141457D01*
X139236418Y-79127597D01*
X139242712Y-79114290D01*
X139250280Y-79101664D01*
X139259048Y-79089841D01*
X139268934Y-79078934D01*
X139279841Y-79069048D01*
X139291664Y-79060280D01*
X139304290Y-79052712D01*
X139317597Y-79046418D01*
X139331457Y-79041459D01*
X139345736Y-79037882D01*
X139360297Y-79035722D01*
X139375000Y-79035000D01*
X141125000Y-79035000D01*
X141139703Y-79035722D01*
X141139703Y-79035722D01*
G37*
D12*
X140250000Y-79335000D03*
D10*
G36*
X141139703Y-80305722D02*
G01*
X141154264Y-80307882D01*
X141168543Y-80311459D01*
X141182403Y-80316418D01*
X141195710Y-80322712D01*
X141208336Y-80330280D01*
X141220159Y-80339048D01*
X141231066Y-80348934D01*
X141240952Y-80359841D01*
X141249720Y-80371664D01*
X141257288Y-80384290D01*
X141263582Y-80397597D01*
X141268541Y-80411457D01*
X141272118Y-80425736D01*
X141274278Y-80440297D01*
X141275000Y-80455000D01*
X141275000Y-80755000D01*
X141274278Y-80769703D01*
X141272118Y-80784264D01*
X141268541Y-80798543D01*
X141263582Y-80812403D01*
X141257288Y-80825710D01*
X141249720Y-80838336D01*
X141240952Y-80850159D01*
X141231066Y-80861066D01*
X141220159Y-80870952D01*
X141208336Y-80879720D01*
X141195710Y-80887288D01*
X141182403Y-80893582D01*
X141168543Y-80898541D01*
X141154264Y-80902118D01*
X141139703Y-80904278D01*
X141125000Y-80905000D01*
X139375000Y-80905000D01*
X139360297Y-80904278D01*
X139345736Y-80902118D01*
X139331457Y-80898541D01*
X139317597Y-80893582D01*
X139304290Y-80887288D01*
X139291664Y-80879720D01*
X139279841Y-80870952D01*
X139268934Y-80861066D01*
X139259048Y-80850159D01*
X139250280Y-80838336D01*
X139242712Y-80825710D01*
X139236418Y-80812403D01*
X139231459Y-80798543D01*
X139227882Y-80784264D01*
X139225722Y-80769703D01*
X139225000Y-80755000D01*
X139225000Y-80455000D01*
X139225722Y-80440297D01*
X139227882Y-80425736D01*
X139231459Y-80411457D01*
X139236418Y-80397597D01*
X139242712Y-80384290D01*
X139250280Y-80371664D01*
X139259048Y-80359841D01*
X139268934Y-80348934D01*
X139279841Y-80339048D01*
X139291664Y-80330280D01*
X139304290Y-80322712D01*
X139317597Y-80316418D01*
X139331457Y-80311459D01*
X139345736Y-80307882D01*
X139360297Y-80305722D01*
X139375000Y-80305000D01*
X141125000Y-80305000D01*
X141139703Y-80305722D01*
X141139703Y-80305722D01*
G37*
D12*
X140250000Y-80605000D03*
D10*
G36*
X141139703Y-81575722D02*
G01*
X141154264Y-81577882D01*
X141168543Y-81581459D01*
X141182403Y-81586418D01*
X141195710Y-81592712D01*
X141208336Y-81600280D01*
X141220159Y-81609048D01*
X141231066Y-81618934D01*
X141240952Y-81629841D01*
X141249720Y-81641664D01*
X141257288Y-81654290D01*
X141263582Y-81667597D01*
X141268541Y-81681457D01*
X141272118Y-81695736D01*
X141274278Y-81710297D01*
X141275000Y-81725000D01*
X141275000Y-82025000D01*
X141274278Y-82039703D01*
X141272118Y-82054264D01*
X141268541Y-82068543D01*
X141263582Y-82082403D01*
X141257288Y-82095710D01*
X141249720Y-82108336D01*
X141240952Y-82120159D01*
X141231066Y-82131066D01*
X141220159Y-82140952D01*
X141208336Y-82149720D01*
X141195710Y-82157288D01*
X141182403Y-82163582D01*
X141168543Y-82168541D01*
X141154264Y-82172118D01*
X141139703Y-82174278D01*
X141125000Y-82175000D01*
X139375000Y-82175000D01*
X139360297Y-82174278D01*
X139345736Y-82172118D01*
X139331457Y-82168541D01*
X139317597Y-82163582D01*
X139304290Y-82157288D01*
X139291664Y-82149720D01*
X139279841Y-82140952D01*
X139268934Y-82131066D01*
X139259048Y-82120159D01*
X139250280Y-82108336D01*
X139242712Y-82095710D01*
X139236418Y-82082403D01*
X139231459Y-82068543D01*
X139227882Y-82054264D01*
X139225722Y-82039703D01*
X139225000Y-82025000D01*
X139225000Y-81725000D01*
X139225722Y-81710297D01*
X139227882Y-81695736D01*
X139231459Y-81681457D01*
X139236418Y-81667597D01*
X139242712Y-81654290D01*
X139250280Y-81641664D01*
X139259048Y-81629841D01*
X139268934Y-81618934D01*
X139279841Y-81609048D01*
X139291664Y-81600280D01*
X139304290Y-81592712D01*
X139317597Y-81586418D01*
X139331457Y-81581459D01*
X139345736Y-81577882D01*
X139360297Y-81575722D01*
X139375000Y-81575000D01*
X141125000Y-81575000D01*
X141139703Y-81575722D01*
X141139703Y-81575722D01*
G37*
D12*
X140250000Y-81875000D03*
D10*
G36*
X141139703Y-82845722D02*
G01*
X141154264Y-82847882D01*
X141168543Y-82851459D01*
X141182403Y-82856418D01*
X141195710Y-82862712D01*
X141208336Y-82870280D01*
X141220159Y-82879048D01*
X141231066Y-82888934D01*
X141240952Y-82899841D01*
X141249720Y-82911664D01*
X141257288Y-82924290D01*
X141263582Y-82937597D01*
X141268541Y-82951457D01*
X141272118Y-82965736D01*
X141274278Y-82980297D01*
X141275000Y-82995000D01*
X141275000Y-83295000D01*
X141274278Y-83309703D01*
X141272118Y-83324264D01*
X141268541Y-83338543D01*
X141263582Y-83352403D01*
X141257288Y-83365710D01*
X141249720Y-83378336D01*
X141240952Y-83390159D01*
X141231066Y-83401066D01*
X141220159Y-83410952D01*
X141208336Y-83419720D01*
X141195710Y-83427288D01*
X141182403Y-83433582D01*
X141168543Y-83438541D01*
X141154264Y-83442118D01*
X141139703Y-83444278D01*
X141125000Y-83445000D01*
X139375000Y-83445000D01*
X139360297Y-83444278D01*
X139345736Y-83442118D01*
X139331457Y-83438541D01*
X139317597Y-83433582D01*
X139304290Y-83427288D01*
X139291664Y-83419720D01*
X139279841Y-83410952D01*
X139268934Y-83401066D01*
X139259048Y-83390159D01*
X139250280Y-83378336D01*
X139242712Y-83365710D01*
X139236418Y-83352403D01*
X139231459Y-83338543D01*
X139227882Y-83324264D01*
X139225722Y-83309703D01*
X139225000Y-83295000D01*
X139225000Y-82995000D01*
X139225722Y-82980297D01*
X139227882Y-82965736D01*
X139231459Y-82951457D01*
X139236418Y-82937597D01*
X139242712Y-82924290D01*
X139250280Y-82911664D01*
X139259048Y-82899841D01*
X139268934Y-82888934D01*
X139279841Y-82879048D01*
X139291664Y-82870280D01*
X139304290Y-82862712D01*
X139317597Y-82856418D01*
X139331457Y-82851459D01*
X139345736Y-82847882D01*
X139360297Y-82845722D01*
X139375000Y-82845000D01*
X141125000Y-82845000D01*
X141139703Y-82845722D01*
X141139703Y-82845722D01*
G37*
D12*
X140250000Y-83145000D03*
D10*
G36*
X141139703Y-84115722D02*
G01*
X141154264Y-84117882D01*
X141168543Y-84121459D01*
X141182403Y-84126418D01*
X141195710Y-84132712D01*
X141208336Y-84140280D01*
X141220159Y-84149048D01*
X141231066Y-84158934D01*
X141240952Y-84169841D01*
X141249720Y-84181664D01*
X141257288Y-84194290D01*
X141263582Y-84207597D01*
X141268541Y-84221457D01*
X141272118Y-84235736D01*
X141274278Y-84250297D01*
X141275000Y-84265000D01*
X141275000Y-84565000D01*
X141274278Y-84579703D01*
X141272118Y-84594264D01*
X141268541Y-84608543D01*
X141263582Y-84622403D01*
X141257288Y-84635710D01*
X141249720Y-84648336D01*
X141240952Y-84660159D01*
X141231066Y-84671066D01*
X141220159Y-84680952D01*
X141208336Y-84689720D01*
X141195710Y-84697288D01*
X141182403Y-84703582D01*
X141168543Y-84708541D01*
X141154264Y-84712118D01*
X141139703Y-84714278D01*
X141125000Y-84715000D01*
X139375000Y-84715000D01*
X139360297Y-84714278D01*
X139345736Y-84712118D01*
X139331457Y-84708541D01*
X139317597Y-84703582D01*
X139304290Y-84697288D01*
X139291664Y-84689720D01*
X139279841Y-84680952D01*
X139268934Y-84671066D01*
X139259048Y-84660159D01*
X139250280Y-84648336D01*
X139242712Y-84635710D01*
X139236418Y-84622403D01*
X139231459Y-84608543D01*
X139227882Y-84594264D01*
X139225722Y-84579703D01*
X139225000Y-84565000D01*
X139225000Y-84265000D01*
X139225722Y-84250297D01*
X139227882Y-84235736D01*
X139231459Y-84221457D01*
X139236418Y-84207597D01*
X139242712Y-84194290D01*
X139250280Y-84181664D01*
X139259048Y-84169841D01*
X139268934Y-84158934D01*
X139279841Y-84149048D01*
X139291664Y-84140280D01*
X139304290Y-84132712D01*
X139317597Y-84126418D01*
X139331457Y-84121459D01*
X139345736Y-84117882D01*
X139360297Y-84115722D01*
X139375000Y-84115000D01*
X141125000Y-84115000D01*
X141139703Y-84115722D01*
X141139703Y-84115722D01*
G37*
D12*
X140250000Y-84415000D03*
D10*
G36*
X131839703Y-84115722D02*
G01*
X131854264Y-84117882D01*
X131868543Y-84121459D01*
X131882403Y-84126418D01*
X131895710Y-84132712D01*
X131908336Y-84140280D01*
X131920159Y-84149048D01*
X131931066Y-84158934D01*
X131940952Y-84169841D01*
X131949720Y-84181664D01*
X131957288Y-84194290D01*
X131963582Y-84207597D01*
X131968541Y-84221457D01*
X131972118Y-84235736D01*
X131974278Y-84250297D01*
X131975000Y-84265000D01*
X131975000Y-84565000D01*
X131974278Y-84579703D01*
X131972118Y-84594264D01*
X131968541Y-84608543D01*
X131963582Y-84622403D01*
X131957288Y-84635710D01*
X131949720Y-84648336D01*
X131940952Y-84660159D01*
X131931066Y-84671066D01*
X131920159Y-84680952D01*
X131908336Y-84689720D01*
X131895710Y-84697288D01*
X131882403Y-84703582D01*
X131868543Y-84708541D01*
X131854264Y-84712118D01*
X131839703Y-84714278D01*
X131825000Y-84715000D01*
X130075000Y-84715000D01*
X130060297Y-84714278D01*
X130045736Y-84712118D01*
X130031457Y-84708541D01*
X130017597Y-84703582D01*
X130004290Y-84697288D01*
X129991664Y-84689720D01*
X129979841Y-84680952D01*
X129968934Y-84671066D01*
X129959048Y-84660159D01*
X129950280Y-84648336D01*
X129942712Y-84635710D01*
X129936418Y-84622403D01*
X129931459Y-84608543D01*
X129927882Y-84594264D01*
X129925722Y-84579703D01*
X129925000Y-84565000D01*
X129925000Y-84265000D01*
X129925722Y-84250297D01*
X129927882Y-84235736D01*
X129931459Y-84221457D01*
X129936418Y-84207597D01*
X129942712Y-84194290D01*
X129950280Y-84181664D01*
X129959048Y-84169841D01*
X129968934Y-84158934D01*
X129979841Y-84149048D01*
X129991664Y-84140280D01*
X130004290Y-84132712D01*
X130017597Y-84126418D01*
X130031457Y-84121459D01*
X130045736Y-84117882D01*
X130060297Y-84115722D01*
X130075000Y-84115000D01*
X131825000Y-84115000D01*
X131839703Y-84115722D01*
X131839703Y-84115722D01*
G37*
D12*
X130950000Y-84415000D03*
D10*
G36*
X131839703Y-82845722D02*
G01*
X131854264Y-82847882D01*
X131868543Y-82851459D01*
X131882403Y-82856418D01*
X131895710Y-82862712D01*
X131908336Y-82870280D01*
X131920159Y-82879048D01*
X131931066Y-82888934D01*
X131940952Y-82899841D01*
X131949720Y-82911664D01*
X131957288Y-82924290D01*
X131963582Y-82937597D01*
X131968541Y-82951457D01*
X131972118Y-82965736D01*
X131974278Y-82980297D01*
X131975000Y-82995000D01*
X131975000Y-83295000D01*
X131974278Y-83309703D01*
X131972118Y-83324264D01*
X131968541Y-83338543D01*
X131963582Y-83352403D01*
X131957288Y-83365710D01*
X131949720Y-83378336D01*
X131940952Y-83390159D01*
X131931066Y-83401066D01*
X131920159Y-83410952D01*
X131908336Y-83419720D01*
X131895710Y-83427288D01*
X131882403Y-83433582D01*
X131868543Y-83438541D01*
X131854264Y-83442118D01*
X131839703Y-83444278D01*
X131825000Y-83445000D01*
X130075000Y-83445000D01*
X130060297Y-83444278D01*
X130045736Y-83442118D01*
X130031457Y-83438541D01*
X130017597Y-83433582D01*
X130004290Y-83427288D01*
X129991664Y-83419720D01*
X129979841Y-83410952D01*
X129968934Y-83401066D01*
X129959048Y-83390159D01*
X129950280Y-83378336D01*
X129942712Y-83365710D01*
X129936418Y-83352403D01*
X129931459Y-83338543D01*
X129927882Y-83324264D01*
X129925722Y-83309703D01*
X129925000Y-83295000D01*
X129925000Y-82995000D01*
X129925722Y-82980297D01*
X129927882Y-82965736D01*
X129931459Y-82951457D01*
X129936418Y-82937597D01*
X129942712Y-82924290D01*
X129950280Y-82911664D01*
X129959048Y-82899841D01*
X129968934Y-82888934D01*
X129979841Y-82879048D01*
X129991664Y-82870280D01*
X130004290Y-82862712D01*
X130017597Y-82856418D01*
X130031457Y-82851459D01*
X130045736Y-82847882D01*
X130060297Y-82845722D01*
X130075000Y-82845000D01*
X131825000Y-82845000D01*
X131839703Y-82845722D01*
X131839703Y-82845722D01*
G37*
D12*
X130950000Y-83145000D03*
D10*
G36*
X131839703Y-81575722D02*
G01*
X131854264Y-81577882D01*
X131868543Y-81581459D01*
X131882403Y-81586418D01*
X131895710Y-81592712D01*
X131908336Y-81600280D01*
X131920159Y-81609048D01*
X131931066Y-81618934D01*
X131940952Y-81629841D01*
X131949720Y-81641664D01*
X131957288Y-81654290D01*
X131963582Y-81667597D01*
X131968541Y-81681457D01*
X131972118Y-81695736D01*
X131974278Y-81710297D01*
X131975000Y-81725000D01*
X131975000Y-82025000D01*
X131974278Y-82039703D01*
X131972118Y-82054264D01*
X131968541Y-82068543D01*
X131963582Y-82082403D01*
X131957288Y-82095710D01*
X131949720Y-82108336D01*
X131940952Y-82120159D01*
X131931066Y-82131066D01*
X131920159Y-82140952D01*
X131908336Y-82149720D01*
X131895710Y-82157288D01*
X131882403Y-82163582D01*
X131868543Y-82168541D01*
X131854264Y-82172118D01*
X131839703Y-82174278D01*
X131825000Y-82175000D01*
X130075000Y-82175000D01*
X130060297Y-82174278D01*
X130045736Y-82172118D01*
X130031457Y-82168541D01*
X130017597Y-82163582D01*
X130004290Y-82157288D01*
X129991664Y-82149720D01*
X129979841Y-82140952D01*
X129968934Y-82131066D01*
X129959048Y-82120159D01*
X129950280Y-82108336D01*
X129942712Y-82095710D01*
X129936418Y-82082403D01*
X129931459Y-82068543D01*
X129927882Y-82054264D01*
X129925722Y-82039703D01*
X129925000Y-82025000D01*
X129925000Y-81725000D01*
X129925722Y-81710297D01*
X129927882Y-81695736D01*
X129931459Y-81681457D01*
X129936418Y-81667597D01*
X129942712Y-81654290D01*
X129950280Y-81641664D01*
X129959048Y-81629841D01*
X129968934Y-81618934D01*
X129979841Y-81609048D01*
X129991664Y-81600280D01*
X130004290Y-81592712D01*
X130017597Y-81586418D01*
X130031457Y-81581459D01*
X130045736Y-81577882D01*
X130060297Y-81575722D01*
X130075000Y-81575000D01*
X131825000Y-81575000D01*
X131839703Y-81575722D01*
X131839703Y-81575722D01*
G37*
D12*
X130950000Y-81875000D03*
D10*
G36*
X131839703Y-80305722D02*
G01*
X131854264Y-80307882D01*
X131868543Y-80311459D01*
X131882403Y-80316418D01*
X131895710Y-80322712D01*
X131908336Y-80330280D01*
X131920159Y-80339048D01*
X131931066Y-80348934D01*
X131940952Y-80359841D01*
X131949720Y-80371664D01*
X131957288Y-80384290D01*
X131963582Y-80397597D01*
X131968541Y-80411457D01*
X131972118Y-80425736D01*
X131974278Y-80440297D01*
X131975000Y-80455000D01*
X131975000Y-80755000D01*
X131974278Y-80769703D01*
X131972118Y-80784264D01*
X131968541Y-80798543D01*
X131963582Y-80812403D01*
X131957288Y-80825710D01*
X131949720Y-80838336D01*
X131940952Y-80850159D01*
X131931066Y-80861066D01*
X131920159Y-80870952D01*
X131908336Y-80879720D01*
X131895710Y-80887288D01*
X131882403Y-80893582D01*
X131868543Y-80898541D01*
X131854264Y-80902118D01*
X131839703Y-80904278D01*
X131825000Y-80905000D01*
X130075000Y-80905000D01*
X130060297Y-80904278D01*
X130045736Y-80902118D01*
X130031457Y-80898541D01*
X130017597Y-80893582D01*
X130004290Y-80887288D01*
X129991664Y-80879720D01*
X129979841Y-80870952D01*
X129968934Y-80861066D01*
X129959048Y-80850159D01*
X129950280Y-80838336D01*
X129942712Y-80825710D01*
X129936418Y-80812403D01*
X129931459Y-80798543D01*
X129927882Y-80784264D01*
X129925722Y-80769703D01*
X129925000Y-80755000D01*
X129925000Y-80455000D01*
X129925722Y-80440297D01*
X129927882Y-80425736D01*
X129931459Y-80411457D01*
X129936418Y-80397597D01*
X129942712Y-80384290D01*
X129950280Y-80371664D01*
X129959048Y-80359841D01*
X129968934Y-80348934D01*
X129979841Y-80339048D01*
X129991664Y-80330280D01*
X130004290Y-80322712D01*
X130017597Y-80316418D01*
X130031457Y-80311459D01*
X130045736Y-80307882D01*
X130060297Y-80305722D01*
X130075000Y-80305000D01*
X131825000Y-80305000D01*
X131839703Y-80305722D01*
X131839703Y-80305722D01*
G37*
D12*
X130950000Y-80605000D03*
D10*
G36*
X131839703Y-79035722D02*
G01*
X131854264Y-79037882D01*
X131868543Y-79041459D01*
X131882403Y-79046418D01*
X131895710Y-79052712D01*
X131908336Y-79060280D01*
X131920159Y-79069048D01*
X131931066Y-79078934D01*
X131940952Y-79089841D01*
X131949720Y-79101664D01*
X131957288Y-79114290D01*
X131963582Y-79127597D01*
X131968541Y-79141457D01*
X131972118Y-79155736D01*
X131974278Y-79170297D01*
X131975000Y-79185000D01*
X131975000Y-79485000D01*
X131974278Y-79499703D01*
X131972118Y-79514264D01*
X131968541Y-79528543D01*
X131963582Y-79542403D01*
X131957288Y-79555710D01*
X131949720Y-79568336D01*
X131940952Y-79580159D01*
X131931066Y-79591066D01*
X131920159Y-79600952D01*
X131908336Y-79609720D01*
X131895710Y-79617288D01*
X131882403Y-79623582D01*
X131868543Y-79628541D01*
X131854264Y-79632118D01*
X131839703Y-79634278D01*
X131825000Y-79635000D01*
X130075000Y-79635000D01*
X130060297Y-79634278D01*
X130045736Y-79632118D01*
X130031457Y-79628541D01*
X130017597Y-79623582D01*
X130004290Y-79617288D01*
X129991664Y-79609720D01*
X129979841Y-79600952D01*
X129968934Y-79591066D01*
X129959048Y-79580159D01*
X129950280Y-79568336D01*
X129942712Y-79555710D01*
X129936418Y-79542403D01*
X129931459Y-79528543D01*
X129927882Y-79514264D01*
X129925722Y-79499703D01*
X129925000Y-79485000D01*
X129925000Y-79185000D01*
X129925722Y-79170297D01*
X129927882Y-79155736D01*
X129931459Y-79141457D01*
X129936418Y-79127597D01*
X129942712Y-79114290D01*
X129950280Y-79101664D01*
X129959048Y-79089841D01*
X129968934Y-79078934D01*
X129979841Y-79069048D01*
X129991664Y-79060280D01*
X130004290Y-79052712D01*
X130017597Y-79046418D01*
X130031457Y-79041459D01*
X130045736Y-79037882D01*
X130060297Y-79035722D01*
X130075000Y-79035000D01*
X131825000Y-79035000D01*
X131839703Y-79035722D01*
X131839703Y-79035722D01*
G37*
D12*
X130950000Y-79335000D03*
D10*
G36*
X131839703Y-77765722D02*
G01*
X131854264Y-77767882D01*
X131868543Y-77771459D01*
X131882403Y-77776418D01*
X131895710Y-77782712D01*
X131908336Y-77790280D01*
X131920159Y-77799048D01*
X131931066Y-77808934D01*
X131940952Y-77819841D01*
X131949720Y-77831664D01*
X131957288Y-77844290D01*
X131963582Y-77857597D01*
X131968541Y-77871457D01*
X131972118Y-77885736D01*
X131974278Y-77900297D01*
X131975000Y-77915000D01*
X131975000Y-78215000D01*
X131974278Y-78229703D01*
X131972118Y-78244264D01*
X131968541Y-78258543D01*
X131963582Y-78272403D01*
X131957288Y-78285710D01*
X131949720Y-78298336D01*
X131940952Y-78310159D01*
X131931066Y-78321066D01*
X131920159Y-78330952D01*
X131908336Y-78339720D01*
X131895710Y-78347288D01*
X131882403Y-78353582D01*
X131868543Y-78358541D01*
X131854264Y-78362118D01*
X131839703Y-78364278D01*
X131825000Y-78365000D01*
X130075000Y-78365000D01*
X130060297Y-78364278D01*
X130045736Y-78362118D01*
X130031457Y-78358541D01*
X130017597Y-78353582D01*
X130004290Y-78347288D01*
X129991664Y-78339720D01*
X129979841Y-78330952D01*
X129968934Y-78321066D01*
X129959048Y-78310159D01*
X129950280Y-78298336D01*
X129942712Y-78285710D01*
X129936418Y-78272403D01*
X129931459Y-78258543D01*
X129927882Y-78244264D01*
X129925722Y-78229703D01*
X129925000Y-78215000D01*
X129925000Y-77915000D01*
X129925722Y-77900297D01*
X129927882Y-77885736D01*
X129931459Y-77871457D01*
X129936418Y-77857597D01*
X129942712Y-77844290D01*
X129950280Y-77831664D01*
X129959048Y-77819841D01*
X129968934Y-77808934D01*
X129979841Y-77799048D01*
X129991664Y-77790280D01*
X130004290Y-77782712D01*
X130017597Y-77776418D01*
X130031457Y-77771459D01*
X130045736Y-77767882D01*
X130060297Y-77765722D01*
X130075000Y-77765000D01*
X131825000Y-77765000D01*
X131839703Y-77765722D01*
X131839703Y-77765722D01*
G37*
D12*
X130950000Y-78065000D03*
D10*
G36*
X131839703Y-76495722D02*
G01*
X131854264Y-76497882D01*
X131868543Y-76501459D01*
X131882403Y-76506418D01*
X131895710Y-76512712D01*
X131908336Y-76520280D01*
X131920159Y-76529048D01*
X131931066Y-76538934D01*
X131940952Y-76549841D01*
X131949720Y-76561664D01*
X131957288Y-76574290D01*
X131963582Y-76587597D01*
X131968541Y-76601457D01*
X131972118Y-76615736D01*
X131974278Y-76630297D01*
X131975000Y-76645000D01*
X131975000Y-76945000D01*
X131974278Y-76959703D01*
X131972118Y-76974264D01*
X131968541Y-76988543D01*
X131963582Y-77002403D01*
X131957288Y-77015710D01*
X131949720Y-77028336D01*
X131940952Y-77040159D01*
X131931066Y-77051066D01*
X131920159Y-77060952D01*
X131908336Y-77069720D01*
X131895710Y-77077288D01*
X131882403Y-77083582D01*
X131868543Y-77088541D01*
X131854264Y-77092118D01*
X131839703Y-77094278D01*
X131825000Y-77095000D01*
X130075000Y-77095000D01*
X130060297Y-77094278D01*
X130045736Y-77092118D01*
X130031457Y-77088541D01*
X130017597Y-77083582D01*
X130004290Y-77077288D01*
X129991664Y-77069720D01*
X129979841Y-77060952D01*
X129968934Y-77051066D01*
X129959048Y-77040159D01*
X129950280Y-77028336D01*
X129942712Y-77015710D01*
X129936418Y-77002403D01*
X129931459Y-76988543D01*
X129927882Y-76974264D01*
X129925722Y-76959703D01*
X129925000Y-76945000D01*
X129925000Y-76645000D01*
X129925722Y-76630297D01*
X129927882Y-76615736D01*
X129931459Y-76601457D01*
X129936418Y-76587597D01*
X129942712Y-76574290D01*
X129950280Y-76561664D01*
X129959048Y-76549841D01*
X129968934Y-76538934D01*
X129979841Y-76529048D01*
X129991664Y-76520280D01*
X130004290Y-76512712D01*
X130017597Y-76506418D01*
X130031457Y-76501459D01*
X130045736Y-76497882D01*
X130060297Y-76495722D01*
X130075000Y-76495000D01*
X131825000Y-76495000D01*
X131839703Y-76495722D01*
X131839703Y-76495722D01*
G37*
D12*
X130950000Y-76795000D03*
D10*
G36*
X131839703Y-75225722D02*
G01*
X131854264Y-75227882D01*
X131868543Y-75231459D01*
X131882403Y-75236418D01*
X131895710Y-75242712D01*
X131908336Y-75250280D01*
X131920159Y-75259048D01*
X131931066Y-75268934D01*
X131940952Y-75279841D01*
X131949720Y-75291664D01*
X131957288Y-75304290D01*
X131963582Y-75317597D01*
X131968541Y-75331457D01*
X131972118Y-75345736D01*
X131974278Y-75360297D01*
X131975000Y-75375000D01*
X131975000Y-75675000D01*
X131974278Y-75689703D01*
X131972118Y-75704264D01*
X131968541Y-75718543D01*
X131963582Y-75732403D01*
X131957288Y-75745710D01*
X131949720Y-75758336D01*
X131940952Y-75770159D01*
X131931066Y-75781066D01*
X131920159Y-75790952D01*
X131908336Y-75799720D01*
X131895710Y-75807288D01*
X131882403Y-75813582D01*
X131868543Y-75818541D01*
X131854264Y-75822118D01*
X131839703Y-75824278D01*
X131825000Y-75825000D01*
X130075000Y-75825000D01*
X130060297Y-75824278D01*
X130045736Y-75822118D01*
X130031457Y-75818541D01*
X130017597Y-75813582D01*
X130004290Y-75807288D01*
X129991664Y-75799720D01*
X129979841Y-75790952D01*
X129968934Y-75781066D01*
X129959048Y-75770159D01*
X129950280Y-75758336D01*
X129942712Y-75745710D01*
X129936418Y-75732403D01*
X129931459Y-75718543D01*
X129927882Y-75704264D01*
X129925722Y-75689703D01*
X129925000Y-75675000D01*
X129925000Y-75375000D01*
X129925722Y-75360297D01*
X129927882Y-75345736D01*
X129931459Y-75331457D01*
X129936418Y-75317597D01*
X129942712Y-75304290D01*
X129950280Y-75291664D01*
X129959048Y-75279841D01*
X129968934Y-75268934D01*
X129979841Y-75259048D01*
X129991664Y-75250280D01*
X130004290Y-75242712D01*
X130017597Y-75236418D01*
X130031457Y-75231459D01*
X130045736Y-75227882D01*
X130060297Y-75225722D01*
X130075000Y-75225000D01*
X131825000Y-75225000D01*
X131839703Y-75225722D01*
X131839703Y-75225722D01*
G37*
D12*
X130950000Y-75525000D03*
D10*
G36*
X131839703Y-73955722D02*
G01*
X131854264Y-73957882D01*
X131868543Y-73961459D01*
X131882403Y-73966418D01*
X131895710Y-73972712D01*
X131908336Y-73980280D01*
X131920159Y-73989048D01*
X131931066Y-73998934D01*
X131940952Y-74009841D01*
X131949720Y-74021664D01*
X131957288Y-74034290D01*
X131963582Y-74047597D01*
X131968541Y-74061457D01*
X131972118Y-74075736D01*
X131974278Y-74090297D01*
X131975000Y-74105000D01*
X131975000Y-74405000D01*
X131974278Y-74419703D01*
X131972118Y-74434264D01*
X131968541Y-74448543D01*
X131963582Y-74462403D01*
X131957288Y-74475710D01*
X131949720Y-74488336D01*
X131940952Y-74500159D01*
X131931066Y-74511066D01*
X131920159Y-74520952D01*
X131908336Y-74529720D01*
X131895710Y-74537288D01*
X131882403Y-74543582D01*
X131868543Y-74548541D01*
X131854264Y-74552118D01*
X131839703Y-74554278D01*
X131825000Y-74555000D01*
X130075000Y-74555000D01*
X130060297Y-74554278D01*
X130045736Y-74552118D01*
X130031457Y-74548541D01*
X130017597Y-74543582D01*
X130004290Y-74537288D01*
X129991664Y-74529720D01*
X129979841Y-74520952D01*
X129968934Y-74511066D01*
X129959048Y-74500159D01*
X129950280Y-74488336D01*
X129942712Y-74475710D01*
X129936418Y-74462403D01*
X129931459Y-74448543D01*
X129927882Y-74434264D01*
X129925722Y-74419703D01*
X129925000Y-74405000D01*
X129925000Y-74105000D01*
X129925722Y-74090297D01*
X129927882Y-74075736D01*
X129931459Y-74061457D01*
X129936418Y-74047597D01*
X129942712Y-74034290D01*
X129950280Y-74021664D01*
X129959048Y-74009841D01*
X129968934Y-73998934D01*
X129979841Y-73989048D01*
X129991664Y-73980280D01*
X130004290Y-73972712D01*
X130017597Y-73966418D01*
X130031457Y-73961459D01*
X130045736Y-73957882D01*
X130060297Y-73955722D01*
X130075000Y-73955000D01*
X131825000Y-73955000D01*
X131839703Y-73955722D01*
X131839703Y-73955722D01*
G37*
D12*
X130950000Y-74255000D03*
D10*
G36*
X131839703Y-72685722D02*
G01*
X131854264Y-72687882D01*
X131868543Y-72691459D01*
X131882403Y-72696418D01*
X131895710Y-72702712D01*
X131908336Y-72710280D01*
X131920159Y-72719048D01*
X131931066Y-72728934D01*
X131940952Y-72739841D01*
X131949720Y-72751664D01*
X131957288Y-72764290D01*
X131963582Y-72777597D01*
X131968541Y-72791457D01*
X131972118Y-72805736D01*
X131974278Y-72820297D01*
X131975000Y-72835000D01*
X131975000Y-73135000D01*
X131974278Y-73149703D01*
X131972118Y-73164264D01*
X131968541Y-73178543D01*
X131963582Y-73192403D01*
X131957288Y-73205710D01*
X131949720Y-73218336D01*
X131940952Y-73230159D01*
X131931066Y-73241066D01*
X131920159Y-73250952D01*
X131908336Y-73259720D01*
X131895710Y-73267288D01*
X131882403Y-73273582D01*
X131868543Y-73278541D01*
X131854264Y-73282118D01*
X131839703Y-73284278D01*
X131825000Y-73285000D01*
X130075000Y-73285000D01*
X130060297Y-73284278D01*
X130045736Y-73282118D01*
X130031457Y-73278541D01*
X130017597Y-73273582D01*
X130004290Y-73267288D01*
X129991664Y-73259720D01*
X129979841Y-73250952D01*
X129968934Y-73241066D01*
X129959048Y-73230159D01*
X129950280Y-73218336D01*
X129942712Y-73205710D01*
X129936418Y-73192403D01*
X129931459Y-73178543D01*
X129927882Y-73164264D01*
X129925722Y-73149703D01*
X129925000Y-73135000D01*
X129925000Y-72835000D01*
X129925722Y-72820297D01*
X129927882Y-72805736D01*
X129931459Y-72791457D01*
X129936418Y-72777597D01*
X129942712Y-72764290D01*
X129950280Y-72751664D01*
X129959048Y-72739841D01*
X129968934Y-72728934D01*
X129979841Y-72719048D01*
X129991664Y-72710280D01*
X130004290Y-72702712D01*
X130017597Y-72696418D01*
X130031457Y-72691459D01*
X130045736Y-72687882D01*
X130060297Y-72685722D01*
X130075000Y-72685000D01*
X131825000Y-72685000D01*
X131839703Y-72685722D01*
X131839703Y-72685722D01*
G37*
D12*
X130950000Y-72985000D03*
D10*
G36*
X141139703Y-59185722D02*
G01*
X141154264Y-59187882D01*
X141168543Y-59191459D01*
X141182403Y-59196418D01*
X141195710Y-59202712D01*
X141208336Y-59210280D01*
X141220159Y-59219048D01*
X141231066Y-59228934D01*
X141240952Y-59239841D01*
X141249720Y-59251664D01*
X141257288Y-59264290D01*
X141263582Y-59277597D01*
X141268541Y-59291457D01*
X141272118Y-59305736D01*
X141274278Y-59320297D01*
X141275000Y-59335000D01*
X141275000Y-59635000D01*
X141274278Y-59649703D01*
X141272118Y-59664264D01*
X141268541Y-59678543D01*
X141263582Y-59692403D01*
X141257288Y-59705710D01*
X141249720Y-59718336D01*
X141240952Y-59730159D01*
X141231066Y-59741066D01*
X141220159Y-59750952D01*
X141208336Y-59759720D01*
X141195710Y-59767288D01*
X141182403Y-59773582D01*
X141168543Y-59778541D01*
X141154264Y-59782118D01*
X141139703Y-59784278D01*
X141125000Y-59785000D01*
X139375000Y-59785000D01*
X139360297Y-59784278D01*
X139345736Y-59782118D01*
X139331457Y-59778541D01*
X139317597Y-59773582D01*
X139304290Y-59767288D01*
X139291664Y-59759720D01*
X139279841Y-59750952D01*
X139268934Y-59741066D01*
X139259048Y-59730159D01*
X139250280Y-59718336D01*
X139242712Y-59705710D01*
X139236418Y-59692403D01*
X139231459Y-59678543D01*
X139227882Y-59664264D01*
X139225722Y-59649703D01*
X139225000Y-59635000D01*
X139225000Y-59335000D01*
X139225722Y-59320297D01*
X139227882Y-59305736D01*
X139231459Y-59291457D01*
X139236418Y-59277597D01*
X139242712Y-59264290D01*
X139250280Y-59251664D01*
X139259048Y-59239841D01*
X139268934Y-59228934D01*
X139279841Y-59219048D01*
X139291664Y-59210280D01*
X139304290Y-59202712D01*
X139317597Y-59196418D01*
X139331457Y-59191459D01*
X139345736Y-59187882D01*
X139360297Y-59185722D01*
X139375000Y-59185000D01*
X141125000Y-59185000D01*
X141139703Y-59185722D01*
X141139703Y-59185722D01*
G37*
D12*
X140250000Y-59485000D03*
D10*
G36*
X141139703Y-60455722D02*
G01*
X141154264Y-60457882D01*
X141168543Y-60461459D01*
X141182403Y-60466418D01*
X141195710Y-60472712D01*
X141208336Y-60480280D01*
X141220159Y-60489048D01*
X141231066Y-60498934D01*
X141240952Y-60509841D01*
X141249720Y-60521664D01*
X141257288Y-60534290D01*
X141263582Y-60547597D01*
X141268541Y-60561457D01*
X141272118Y-60575736D01*
X141274278Y-60590297D01*
X141275000Y-60605000D01*
X141275000Y-60905000D01*
X141274278Y-60919703D01*
X141272118Y-60934264D01*
X141268541Y-60948543D01*
X141263582Y-60962403D01*
X141257288Y-60975710D01*
X141249720Y-60988336D01*
X141240952Y-61000159D01*
X141231066Y-61011066D01*
X141220159Y-61020952D01*
X141208336Y-61029720D01*
X141195710Y-61037288D01*
X141182403Y-61043582D01*
X141168543Y-61048541D01*
X141154264Y-61052118D01*
X141139703Y-61054278D01*
X141125000Y-61055000D01*
X139375000Y-61055000D01*
X139360297Y-61054278D01*
X139345736Y-61052118D01*
X139331457Y-61048541D01*
X139317597Y-61043582D01*
X139304290Y-61037288D01*
X139291664Y-61029720D01*
X139279841Y-61020952D01*
X139268934Y-61011066D01*
X139259048Y-61000159D01*
X139250280Y-60988336D01*
X139242712Y-60975710D01*
X139236418Y-60962403D01*
X139231459Y-60948543D01*
X139227882Y-60934264D01*
X139225722Y-60919703D01*
X139225000Y-60905000D01*
X139225000Y-60605000D01*
X139225722Y-60590297D01*
X139227882Y-60575736D01*
X139231459Y-60561457D01*
X139236418Y-60547597D01*
X139242712Y-60534290D01*
X139250280Y-60521664D01*
X139259048Y-60509841D01*
X139268934Y-60498934D01*
X139279841Y-60489048D01*
X139291664Y-60480280D01*
X139304290Y-60472712D01*
X139317597Y-60466418D01*
X139331457Y-60461459D01*
X139345736Y-60457882D01*
X139360297Y-60455722D01*
X139375000Y-60455000D01*
X141125000Y-60455000D01*
X141139703Y-60455722D01*
X141139703Y-60455722D01*
G37*
D12*
X140250000Y-60755000D03*
D10*
G36*
X141139703Y-61725722D02*
G01*
X141154264Y-61727882D01*
X141168543Y-61731459D01*
X141182403Y-61736418D01*
X141195710Y-61742712D01*
X141208336Y-61750280D01*
X141220159Y-61759048D01*
X141231066Y-61768934D01*
X141240952Y-61779841D01*
X141249720Y-61791664D01*
X141257288Y-61804290D01*
X141263582Y-61817597D01*
X141268541Y-61831457D01*
X141272118Y-61845736D01*
X141274278Y-61860297D01*
X141275000Y-61875000D01*
X141275000Y-62175000D01*
X141274278Y-62189703D01*
X141272118Y-62204264D01*
X141268541Y-62218543D01*
X141263582Y-62232403D01*
X141257288Y-62245710D01*
X141249720Y-62258336D01*
X141240952Y-62270159D01*
X141231066Y-62281066D01*
X141220159Y-62290952D01*
X141208336Y-62299720D01*
X141195710Y-62307288D01*
X141182403Y-62313582D01*
X141168543Y-62318541D01*
X141154264Y-62322118D01*
X141139703Y-62324278D01*
X141125000Y-62325000D01*
X139375000Y-62325000D01*
X139360297Y-62324278D01*
X139345736Y-62322118D01*
X139331457Y-62318541D01*
X139317597Y-62313582D01*
X139304290Y-62307288D01*
X139291664Y-62299720D01*
X139279841Y-62290952D01*
X139268934Y-62281066D01*
X139259048Y-62270159D01*
X139250280Y-62258336D01*
X139242712Y-62245710D01*
X139236418Y-62232403D01*
X139231459Y-62218543D01*
X139227882Y-62204264D01*
X139225722Y-62189703D01*
X139225000Y-62175000D01*
X139225000Y-61875000D01*
X139225722Y-61860297D01*
X139227882Y-61845736D01*
X139231459Y-61831457D01*
X139236418Y-61817597D01*
X139242712Y-61804290D01*
X139250280Y-61791664D01*
X139259048Y-61779841D01*
X139268934Y-61768934D01*
X139279841Y-61759048D01*
X139291664Y-61750280D01*
X139304290Y-61742712D01*
X139317597Y-61736418D01*
X139331457Y-61731459D01*
X139345736Y-61727882D01*
X139360297Y-61725722D01*
X139375000Y-61725000D01*
X141125000Y-61725000D01*
X141139703Y-61725722D01*
X141139703Y-61725722D01*
G37*
D12*
X140250000Y-62025000D03*
D10*
G36*
X141139703Y-62995722D02*
G01*
X141154264Y-62997882D01*
X141168543Y-63001459D01*
X141182403Y-63006418D01*
X141195710Y-63012712D01*
X141208336Y-63020280D01*
X141220159Y-63029048D01*
X141231066Y-63038934D01*
X141240952Y-63049841D01*
X141249720Y-63061664D01*
X141257288Y-63074290D01*
X141263582Y-63087597D01*
X141268541Y-63101457D01*
X141272118Y-63115736D01*
X141274278Y-63130297D01*
X141275000Y-63145000D01*
X141275000Y-63445000D01*
X141274278Y-63459703D01*
X141272118Y-63474264D01*
X141268541Y-63488543D01*
X141263582Y-63502403D01*
X141257288Y-63515710D01*
X141249720Y-63528336D01*
X141240952Y-63540159D01*
X141231066Y-63551066D01*
X141220159Y-63560952D01*
X141208336Y-63569720D01*
X141195710Y-63577288D01*
X141182403Y-63583582D01*
X141168543Y-63588541D01*
X141154264Y-63592118D01*
X141139703Y-63594278D01*
X141125000Y-63595000D01*
X139375000Y-63595000D01*
X139360297Y-63594278D01*
X139345736Y-63592118D01*
X139331457Y-63588541D01*
X139317597Y-63583582D01*
X139304290Y-63577288D01*
X139291664Y-63569720D01*
X139279841Y-63560952D01*
X139268934Y-63551066D01*
X139259048Y-63540159D01*
X139250280Y-63528336D01*
X139242712Y-63515710D01*
X139236418Y-63502403D01*
X139231459Y-63488543D01*
X139227882Y-63474264D01*
X139225722Y-63459703D01*
X139225000Y-63445000D01*
X139225000Y-63145000D01*
X139225722Y-63130297D01*
X139227882Y-63115736D01*
X139231459Y-63101457D01*
X139236418Y-63087597D01*
X139242712Y-63074290D01*
X139250280Y-63061664D01*
X139259048Y-63049841D01*
X139268934Y-63038934D01*
X139279841Y-63029048D01*
X139291664Y-63020280D01*
X139304290Y-63012712D01*
X139317597Y-63006418D01*
X139331457Y-63001459D01*
X139345736Y-62997882D01*
X139360297Y-62995722D01*
X139375000Y-62995000D01*
X141125000Y-62995000D01*
X141139703Y-62995722D01*
X141139703Y-62995722D01*
G37*
D12*
X140250000Y-63295000D03*
D10*
G36*
X141139703Y-64265722D02*
G01*
X141154264Y-64267882D01*
X141168543Y-64271459D01*
X141182403Y-64276418D01*
X141195710Y-64282712D01*
X141208336Y-64290280D01*
X141220159Y-64299048D01*
X141231066Y-64308934D01*
X141240952Y-64319841D01*
X141249720Y-64331664D01*
X141257288Y-64344290D01*
X141263582Y-64357597D01*
X141268541Y-64371457D01*
X141272118Y-64385736D01*
X141274278Y-64400297D01*
X141275000Y-64415000D01*
X141275000Y-64715000D01*
X141274278Y-64729703D01*
X141272118Y-64744264D01*
X141268541Y-64758543D01*
X141263582Y-64772403D01*
X141257288Y-64785710D01*
X141249720Y-64798336D01*
X141240952Y-64810159D01*
X141231066Y-64821066D01*
X141220159Y-64830952D01*
X141208336Y-64839720D01*
X141195710Y-64847288D01*
X141182403Y-64853582D01*
X141168543Y-64858541D01*
X141154264Y-64862118D01*
X141139703Y-64864278D01*
X141125000Y-64865000D01*
X139375000Y-64865000D01*
X139360297Y-64864278D01*
X139345736Y-64862118D01*
X139331457Y-64858541D01*
X139317597Y-64853582D01*
X139304290Y-64847288D01*
X139291664Y-64839720D01*
X139279841Y-64830952D01*
X139268934Y-64821066D01*
X139259048Y-64810159D01*
X139250280Y-64798336D01*
X139242712Y-64785710D01*
X139236418Y-64772403D01*
X139231459Y-64758543D01*
X139227882Y-64744264D01*
X139225722Y-64729703D01*
X139225000Y-64715000D01*
X139225000Y-64415000D01*
X139225722Y-64400297D01*
X139227882Y-64385736D01*
X139231459Y-64371457D01*
X139236418Y-64357597D01*
X139242712Y-64344290D01*
X139250280Y-64331664D01*
X139259048Y-64319841D01*
X139268934Y-64308934D01*
X139279841Y-64299048D01*
X139291664Y-64290280D01*
X139304290Y-64282712D01*
X139317597Y-64276418D01*
X139331457Y-64271459D01*
X139345736Y-64267882D01*
X139360297Y-64265722D01*
X139375000Y-64265000D01*
X141125000Y-64265000D01*
X141139703Y-64265722D01*
X141139703Y-64265722D01*
G37*
D12*
X140250000Y-64565000D03*
D10*
G36*
X141139703Y-65535722D02*
G01*
X141154264Y-65537882D01*
X141168543Y-65541459D01*
X141182403Y-65546418D01*
X141195710Y-65552712D01*
X141208336Y-65560280D01*
X141220159Y-65569048D01*
X141231066Y-65578934D01*
X141240952Y-65589841D01*
X141249720Y-65601664D01*
X141257288Y-65614290D01*
X141263582Y-65627597D01*
X141268541Y-65641457D01*
X141272118Y-65655736D01*
X141274278Y-65670297D01*
X141275000Y-65685000D01*
X141275000Y-65985000D01*
X141274278Y-65999703D01*
X141272118Y-66014264D01*
X141268541Y-66028543D01*
X141263582Y-66042403D01*
X141257288Y-66055710D01*
X141249720Y-66068336D01*
X141240952Y-66080159D01*
X141231066Y-66091066D01*
X141220159Y-66100952D01*
X141208336Y-66109720D01*
X141195710Y-66117288D01*
X141182403Y-66123582D01*
X141168543Y-66128541D01*
X141154264Y-66132118D01*
X141139703Y-66134278D01*
X141125000Y-66135000D01*
X139375000Y-66135000D01*
X139360297Y-66134278D01*
X139345736Y-66132118D01*
X139331457Y-66128541D01*
X139317597Y-66123582D01*
X139304290Y-66117288D01*
X139291664Y-66109720D01*
X139279841Y-66100952D01*
X139268934Y-66091066D01*
X139259048Y-66080159D01*
X139250280Y-66068336D01*
X139242712Y-66055710D01*
X139236418Y-66042403D01*
X139231459Y-66028543D01*
X139227882Y-66014264D01*
X139225722Y-65999703D01*
X139225000Y-65985000D01*
X139225000Y-65685000D01*
X139225722Y-65670297D01*
X139227882Y-65655736D01*
X139231459Y-65641457D01*
X139236418Y-65627597D01*
X139242712Y-65614290D01*
X139250280Y-65601664D01*
X139259048Y-65589841D01*
X139268934Y-65578934D01*
X139279841Y-65569048D01*
X139291664Y-65560280D01*
X139304290Y-65552712D01*
X139317597Y-65546418D01*
X139331457Y-65541459D01*
X139345736Y-65537882D01*
X139360297Y-65535722D01*
X139375000Y-65535000D01*
X141125000Y-65535000D01*
X141139703Y-65535722D01*
X141139703Y-65535722D01*
G37*
D12*
X140250000Y-65835000D03*
D10*
G36*
X141139703Y-66805722D02*
G01*
X141154264Y-66807882D01*
X141168543Y-66811459D01*
X141182403Y-66816418D01*
X141195710Y-66822712D01*
X141208336Y-66830280D01*
X141220159Y-66839048D01*
X141231066Y-66848934D01*
X141240952Y-66859841D01*
X141249720Y-66871664D01*
X141257288Y-66884290D01*
X141263582Y-66897597D01*
X141268541Y-66911457D01*
X141272118Y-66925736D01*
X141274278Y-66940297D01*
X141275000Y-66955000D01*
X141275000Y-67255000D01*
X141274278Y-67269703D01*
X141272118Y-67284264D01*
X141268541Y-67298543D01*
X141263582Y-67312403D01*
X141257288Y-67325710D01*
X141249720Y-67338336D01*
X141240952Y-67350159D01*
X141231066Y-67361066D01*
X141220159Y-67370952D01*
X141208336Y-67379720D01*
X141195710Y-67387288D01*
X141182403Y-67393582D01*
X141168543Y-67398541D01*
X141154264Y-67402118D01*
X141139703Y-67404278D01*
X141125000Y-67405000D01*
X139375000Y-67405000D01*
X139360297Y-67404278D01*
X139345736Y-67402118D01*
X139331457Y-67398541D01*
X139317597Y-67393582D01*
X139304290Y-67387288D01*
X139291664Y-67379720D01*
X139279841Y-67370952D01*
X139268934Y-67361066D01*
X139259048Y-67350159D01*
X139250280Y-67338336D01*
X139242712Y-67325710D01*
X139236418Y-67312403D01*
X139231459Y-67298543D01*
X139227882Y-67284264D01*
X139225722Y-67269703D01*
X139225000Y-67255000D01*
X139225000Y-66955000D01*
X139225722Y-66940297D01*
X139227882Y-66925736D01*
X139231459Y-66911457D01*
X139236418Y-66897597D01*
X139242712Y-66884290D01*
X139250280Y-66871664D01*
X139259048Y-66859841D01*
X139268934Y-66848934D01*
X139279841Y-66839048D01*
X139291664Y-66830280D01*
X139304290Y-66822712D01*
X139317597Y-66816418D01*
X139331457Y-66811459D01*
X139345736Y-66807882D01*
X139360297Y-66805722D01*
X139375000Y-66805000D01*
X141125000Y-66805000D01*
X141139703Y-66805722D01*
X141139703Y-66805722D01*
G37*
D12*
X140250000Y-67105000D03*
D10*
G36*
X141139703Y-68075722D02*
G01*
X141154264Y-68077882D01*
X141168543Y-68081459D01*
X141182403Y-68086418D01*
X141195710Y-68092712D01*
X141208336Y-68100280D01*
X141220159Y-68109048D01*
X141231066Y-68118934D01*
X141240952Y-68129841D01*
X141249720Y-68141664D01*
X141257288Y-68154290D01*
X141263582Y-68167597D01*
X141268541Y-68181457D01*
X141272118Y-68195736D01*
X141274278Y-68210297D01*
X141275000Y-68225000D01*
X141275000Y-68525000D01*
X141274278Y-68539703D01*
X141272118Y-68554264D01*
X141268541Y-68568543D01*
X141263582Y-68582403D01*
X141257288Y-68595710D01*
X141249720Y-68608336D01*
X141240952Y-68620159D01*
X141231066Y-68631066D01*
X141220159Y-68640952D01*
X141208336Y-68649720D01*
X141195710Y-68657288D01*
X141182403Y-68663582D01*
X141168543Y-68668541D01*
X141154264Y-68672118D01*
X141139703Y-68674278D01*
X141125000Y-68675000D01*
X139375000Y-68675000D01*
X139360297Y-68674278D01*
X139345736Y-68672118D01*
X139331457Y-68668541D01*
X139317597Y-68663582D01*
X139304290Y-68657288D01*
X139291664Y-68649720D01*
X139279841Y-68640952D01*
X139268934Y-68631066D01*
X139259048Y-68620159D01*
X139250280Y-68608336D01*
X139242712Y-68595710D01*
X139236418Y-68582403D01*
X139231459Y-68568543D01*
X139227882Y-68554264D01*
X139225722Y-68539703D01*
X139225000Y-68525000D01*
X139225000Y-68225000D01*
X139225722Y-68210297D01*
X139227882Y-68195736D01*
X139231459Y-68181457D01*
X139236418Y-68167597D01*
X139242712Y-68154290D01*
X139250280Y-68141664D01*
X139259048Y-68129841D01*
X139268934Y-68118934D01*
X139279841Y-68109048D01*
X139291664Y-68100280D01*
X139304290Y-68092712D01*
X139317597Y-68086418D01*
X139331457Y-68081459D01*
X139345736Y-68077882D01*
X139360297Y-68075722D01*
X139375000Y-68075000D01*
X141125000Y-68075000D01*
X141139703Y-68075722D01*
X141139703Y-68075722D01*
G37*
D12*
X140250000Y-68375000D03*
D10*
G36*
X141139703Y-69345722D02*
G01*
X141154264Y-69347882D01*
X141168543Y-69351459D01*
X141182403Y-69356418D01*
X141195710Y-69362712D01*
X141208336Y-69370280D01*
X141220159Y-69379048D01*
X141231066Y-69388934D01*
X141240952Y-69399841D01*
X141249720Y-69411664D01*
X141257288Y-69424290D01*
X141263582Y-69437597D01*
X141268541Y-69451457D01*
X141272118Y-69465736D01*
X141274278Y-69480297D01*
X141275000Y-69495000D01*
X141275000Y-69795000D01*
X141274278Y-69809703D01*
X141272118Y-69824264D01*
X141268541Y-69838543D01*
X141263582Y-69852403D01*
X141257288Y-69865710D01*
X141249720Y-69878336D01*
X141240952Y-69890159D01*
X141231066Y-69901066D01*
X141220159Y-69910952D01*
X141208336Y-69919720D01*
X141195710Y-69927288D01*
X141182403Y-69933582D01*
X141168543Y-69938541D01*
X141154264Y-69942118D01*
X141139703Y-69944278D01*
X141125000Y-69945000D01*
X139375000Y-69945000D01*
X139360297Y-69944278D01*
X139345736Y-69942118D01*
X139331457Y-69938541D01*
X139317597Y-69933582D01*
X139304290Y-69927288D01*
X139291664Y-69919720D01*
X139279841Y-69910952D01*
X139268934Y-69901066D01*
X139259048Y-69890159D01*
X139250280Y-69878336D01*
X139242712Y-69865710D01*
X139236418Y-69852403D01*
X139231459Y-69838543D01*
X139227882Y-69824264D01*
X139225722Y-69809703D01*
X139225000Y-69795000D01*
X139225000Y-69495000D01*
X139225722Y-69480297D01*
X139227882Y-69465736D01*
X139231459Y-69451457D01*
X139236418Y-69437597D01*
X139242712Y-69424290D01*
X139250280Y-69411664D01*
X139259048Y-69399841D01*
X139268934Y-69388934D01*
X139279841Y-69379048D01*
X139291664Y-69370280D01*
X139304290Y-69362712D01*
X139317597Y-69356418D01*
X139331457Y-69351459D01*
X139345736Y-69347882D01*
X139360297Y-69345722D01*
X139375000Y-69345000D01*
X141125000Y-69345000D01*
X141139703Y-69345722D01*
X141139703Y-69345722D01*
G37*
D12*
X140250000Y-69645000D03*
D10*
G36*
X141139703Y-70615722D02*
G01*
X141154264Y-70617882D01*
X141168543Y-70621459D01*
X141182403Y-70626418D01*
X141195710Y-70632712D01*
X141208336Y-70640280D01*
X141220159Y-70649048D01*
X141231066Y-70658934D01*
X141240952Y-70669841D01*
X141249720Y-70681664D01*
X141257288Y-70694290D01*
X141263582Y-70707597D01*
X141268541Y-70721457D01*
X141272118Y-70735736D01*
X141274278Y-70750297D01*
X141275000Y-70765000D01*
X141275000Y-71065000D01*
X141274278Y-71079703D01*
X141272118Y-71094264D01*
X141268541Y-71108543D01*
X141263582Y-71122403D01*
X141257288Y-71135710D01*
X141249720Y-71148336D01*
X141240952Y-71160159D01*
X141231066Y-71171066D01*
X141220159Y-71180952D01*
X141208336Y-71189720D01*
X141195710Y-71197288D01*
X141182403Y-71203582D01*
X141168543Y-71208541D01*
X141154264Y-71212118D01*
X141139703Y-71214278D01*
X141125000Y-71215000D01*
X139375000Y-71215000D01*
X139360297Y-71214278D01*
X139345736Y-71212118D01*
X139331457Y-71208541D01*
X139317597Y-71203582D01*
X139304290Y-71197288D01*
X139291664Y-71189720D01*
X139279841Y-71180952D01*
X139268934Y-71171066D01*
X139259048Y-71160159D01*
X139250280Y-71148336D01*
X139242712Y-71135710D01*
X139236418Y-71122403D01*
X139231459Y-71108543D01*
X139227882Y-71094264D01*
X139225722Y-71079703D01*
X139225000Y-71065000D01*
X139225000Y-70765000D01*
X139225722Y-70750297D01*
X139227882Y-70735736D01*
X139231459Y-70721457D01*
X139236418Y-70707597D01*
X139242712Y-70694290D01*
X139250280Y-70681664D01*
X139259048Y-70669841D01*
X139268934Y-70658934D01*
X139279841Y-70649048D01*
X139291664Y-70640280D01*
X139304290Y-70632712D01*
X139317597Y-70626418D01*
X139331457Y-70621459D01*
X139345736Y-70617882D01*
X139360297Y-70615722D01*
X139375000Y-70615000D01*
X141125000Y-70615000D01*
X141139703Y-70615722D01*
X141139703Y-70615722D01*
G37*
D12*
X140250000Y-70915000D03*
D10*
G36*
X131839703Y-70615722D02*
G01*
X131854264Y-70617882D01*
X131868543Y-70621459D01*
X131882403Y-70626418D01*
X131895710Y-70632712D01*
X131908336Y-70640280D01*
X131920159Y-70649048D01*
X131931066Y-70658934D01*
X131940952Y-70669841D01*
X131949720Y-70681664D01*
X131957288Y-70694290D01*
X131963582Y-70707597D01*
X131968541Y-70721457D01*
X131972118Y-70735736D01*
X131974278Y-70750297D01*
X131975000Y-70765000D01*
X131975000Y-71065000D01*
X131974278Y-71079703D01*
X131972118Y-71094264D01*
X131968541Y-71108543D01*
X131963582Y-71122403D01*
X131957288Y-71135710D01*
X131949720Y-71148336D01*
X131940952Y-71160159D01*
X131931066Y-71171066D01*
X131920159Y-71180952D01*
X131908336Y-71189720D01*
X131895710Y-71197288D01*
X131882403Y-71203582D01*
X131868543Y-71208541D01*
X131854264Y-71212118D01*
X131839703Y-71214278D01*
X131825000Y-71215000D01*
X130075000Y-71215000D01*
X130060297Y-71214278D01*
X130045736Y-71212118D01*
X130031457Y-71208541D01*
X130017597Y-71203582D01*
X130004290Y-71197288D01*
X129991664Y-71189720D01*
X129979841Y-71180952D01*
X129968934Y-71171066D01*
X129959048Y-71160159D01*
X129950280Y-71148336D01*
X129942712Y-71135710D01*
X129936418Y-71122403D01*
X129931459Y-71108543D01*
X129927882Y-71094264D01*
X129925722Y-71079703D01*
X129925000Y-71065000D01*
X129925000Y-70765000D01*
X129925722Y-70750297D01*
X129927882Y-70735736D01*
X129931459Y-70721457D01*
X129936418Y-70707597D01*
X129942712Y-70694290D01*
X129950280Y-70681664D01*
X129959048Y-70669841D01*
X129968934Y-70658934D01*
X129979841Y-70649048D01*
X129991664Y-70640280D01*
X130004290Y-70632712D01*
X130017597Y-70626418D01*
X130031457Y-70621459D01*
X130045736Y-70617882D01*
X130060297Y-70615722D01*
X130075000Y-70615000D01*
X131825000Y-70615000D01*
X131839703Y-70615722D01*
X131839703Y-70615722D01*
G37*
D12*
X130950000Y-70915000D03*
D10*
G36*
X131839703Y-69345722D02*
G01*
X131854264Y-69347882D01*
X131868543Y-69351459D01*
X131882403Y-69356418D01*
X131895710Y-69362712D01*
X131908336Y-69370280D01*
X131920159Y-69379048D01*
X131931066Y-69388934D01*
X131940952Y-69399841D01*
X131949720Y-69411664D01*
X131957288Y-69424290D01*
X131963582Y-69437597D01*
X131968541Y-69451457D01*
X131972118Y-69465736D01*
X131974278Y-69480297D01*
X131975000Y-69495000D01*
X131975000Y-69795000D01*
X131974278Y-69809703D01*
X131972118Y-69824264D01*
X131968541Y-69838543D01*
X131963582Y-69852403D01*
X131957288Y-69865710D01*
X131949720Y-69878336D01*
X131940952Y-69890159D01*
X131931066Y-69901066D01*
X131920159Y-69910952D01*
X131908336Y-69919720D01*
X131895710Y-69927288D01*
X131882403Y-69933582D01*
X131868543Y-69938541D01*
X131854264Y-69942118D01*
X131839703Y-69944278D01*
X131825000Y-69945000D01*
X130075000Y-69945000D01*
X130060297Y-69944278D01*
X130045736Y-69942118D01*
X130031457Y-69938541D01*
X130017597Y-69933582D01*
X130004290Y-69927288D01*
X129991664Y-69919720D01*
X129979841Y-69910952D01*
X129968934Y-69901066D01*
X129959048Y-69890159D01*
X129950280Y-69878336D01*
X129942712Y-69865710D01*
X129936418Y-69852403D01*
X129931459Y-69838543D01*
X129927882Y-69824264D01*
X129925722Y-69809703D01*
X129925000Y-69795000D01*
X129925000Y-69495000D01*
X129925722Y-69480297D01*
X129927882Y-69465736D01*
X129931459Y-69451457D01*
X129936418Y-69437597D01*
X129942712Y-69424290D01*
X129950280Y-69411664D01*
X129959048Y-69399841D01*
X129968934Y-69388934D01*
X129979841Y-69379048D01*
X129991664Y-69370280D01*
X130004290Y-69362712D01*
X130017597Y-69356418D01*
X130031457Y-69351459D01*
X130045736Y-69347882D01*
X130060297Y-69345722D01*
X130075000Y-69345000D01*
X131825000Y-69345000D01*
X131839703Y-69345722D01*
X131839703Y-69345722D01*
G37*
D12*
X130950000Y-69645000D03*
D10*
G36*
X131839703Y-68075722D02*
G01*
X131854264Y-68077882D01*
X131868543Y-68081459D01*
X131882403Y-68086418D01*
X131895710Y-68092712D01*
X131908336Y-68100280D01*
X131920159Y-68109048D01*
X131931066Y-68118934D01*
X131940952Y-68129841D01*
X131949720Y-68141664D01*
X131957288Y-68154290D01*
X131963582Y-68167597D01*
X131968541Y-68181457D01*
X131972118Y-68195736D01*
X131974278Y-68210297D01*
X131975000Y-68225000D01*
X131975000Y-68525000D01*
X131974278Y-68539703D01*
X131972118Y-68554264D01*
X131968541Y-68568543D01*
X131963582Y-68582403D01*
X131957288Y-68595710D01*
X131949720Y-68608336D01*
X131940952Y-68620159D01*
X131931066Y-68631066D01*
X131920159Y-68640952D01*
X131908336Y-68649720D01*
X131895710Y-68657288D01*
X131882403Y-68663582D01*
X131868543Y-68668541D01*
X131854264Y-68672118D01*
X131839703Y-68674278D01*
X131825000Y-68675000D01*
X130075000Y-68675000D01*
X130060297Y-68674278D01*
X130045736Y-68672118D01*
X130031457Y-68668541D01*
X130017597Y-68663582D01*
X130004290Y-68657288D01*
X129991664Y-68649720D01*
X129979841Y-68640952D01*
X129968934Y-68631066D01*
X129959048Y-68620159D01*
X129950280Y-68608336D01*
X129942712Y-68595710D01*
X129936418Y-68582403D01*
X129931459Y-68568543D01*
X129927882Y-68554264D01*
X129925722Y-68539703D01*
X129925000Y-68525000D01*
X129925000Y-68225000D01*
X129925722Y-68210297D01*
X129927882Y-68195736D01*
X129931459Y-68181457D01*
X129936418Y-68167597D01*
X129942712Y-68154290D01*
X129950280Y-68141664D01*
X129959048Y-68129841D01*
X129968934Y-68118934D01*
X129979841Y-68109048D01*
X129991664Y-68100280D01*
X130004290Y-68092712D01*
X130017597Y-68086418D01*
X130031457Y-68081459D01*
X130045736Y-68077882D01*
X130060297Y-68075722D01*
X130075000Y-68075000D01*
X131825000Y-68075000D01*
X131839703Y-68075722D01*
X131839703Y-68075722D01*
G37*
D12*
X130950000Y-68375000D03*
D10*
G36*
X131839703Y-66805722D02*
G01*
X131854264Y-66807882D01*
X131868543Y-66811459D01*
X131882403Y-66816418D01*
X131895710Y-66822712D01*
X131908336Y-66830280D01*
X131920159Y-66839048D01*
X131931066Y-66848934D01*
X131940952Y-66859841D01*
X131949720Y-66871664D01*
X131957288Y-66884290D01*
X131963582Y-66897597D01*
X131968541Y-66911457D01*
X131972118Y-66925736D01*
X131974278Y-66940297D01*
X131975000Y-66955000D01*
X131975000Y-67255000D01*
X131974278Y-67269703D01*
X131972118Y-67284264D01*
X131968541Y-67298543D01*
X131963582Y-67312403D01*
X131957288Y-67325710D01*
X131949720Y-67338336D01*
X131940952Y-67350159D01*
X131931066Y-67361066D01*
X131920159Y-67370952D01*
X131908336Y-67379720D01*
X131895710Y-67387288D01*
X131882403Y-67393582D01*
X131868543Y-67398541D01*
X131854264Y-67402118D01*
X131839703Y-67404278D01*
X131825000Y-67405000D01*
X130075000Y-67405000D01*
X130060297Y-67404278D01*
X130045736Y-67402118D01*
X130031457Y-67398541D01*
X130017597Y-67393582D01*
X130004290Y-67387288D01*
X129991664Y-67379720D01*
X129979841Y-67370952D01*
X129968934Y-67361066D01*
X129959048Y-67350159D01*
X129950280Y-67338336D01*
X129942712Y-67325710D01*
X129936418Y-67312403D01*
X129931459Y-67298543D01*
X129927882Y-67284264D01*
X129925722Y-67269703D01*
X129925000Y-67255000D01*
X129925000Y-66955000D01*
X129925722Y-66940297D01*
X129927882Y-66925736D01*
X129931459Y-66911457D01*
X129936418Y-66897597D01*
X129942712Y-66884290D01*
X129950280Y-66871664D01*
X129959048Y-66859841D01*
X129968934Y-66848934D01*
X129979841Y-66839048D01*
X129991664Y-66830280D01*
X130004290Y-66822712D01*
X130017597Y-66816418D01*
X130031457Y-66811459D01*
X130045736Y-66807882D01*
X130060297Y-66805722D01*
X130075000Y-66805000D01*
X131825000Y-66805000D01*
X131839703Y-66805722D01*
X131839703Y-66805722D01*
G37*
D12*
X130950000Y-67105000D03*
D10*
G36*
X131839703Y-65535722D02*
G01*
X131854264Y-65537882D01*
X131868543Y-65541459D01*
X131882403Y-65546418D01*
X131895710Y-65552712D01*
X131908336Y-65560280D01*
X131920159Y-65569048D01*
X131931066Y-65578934D01*
X131940952Y-65589841D01*
X131949720Y-65601664D01*
X131957288Y-65614290D01*
X131963582Y-65627597D01*
X131968541Y-65641457D01*
X131972118Y-65655736D01*
X131974278Y-65670297D01*
X131975000Y-65685000D01*
X131975000Y-65985000D01*
X131974278Y-65999703D01*
X131972118Y-66014264D01*
X131968541Y-66028543D01*
X131963582Y-66042403D01*
X131957288Y-66055710D01*
X131949720Y-66068336D01*
X131940952Y-66080159D01*
X131931066Y-66091066D01*
X131920159Y-66100952D01*
X131908336Y-66109720D01*
X131895710Y-66117288D01*
X131882403Y-66123582D01*
X131868543Y-66128541D01*
X131854264Y-66132118D01*
X131839703Y-66134278D01*
X131825000Y-66135000D01*
X130075000Y-66135000D01*
X130060297Y-66134278D01*
X130045736Y-66132118D01*
X130031457Y-66128541D01*
X130017597Y-66123582D01*
X130004290Y-66117288D01*
X129991664Y-66109720D01*
X129979841Y-66100952D01*
X129968934Y-66091066D01*
X129959048Y-66080159D01*
X129950280Y-66068336D01*
X129942712Y-66055710D01*
X129936418Y-66042403D01*
X129931459Y-66028543D01*
X129927882Y-66014264D01*
X129925722Y-65999703D01*
X129925000Y-65985000D01*
X129925000Y-65685000D01*
X129925722Y-65670297D01*
X129927882Y-65655736D01*
X129931459Y-65641457D01*
X129936418Y-65627597D01*
X129942712Y-65614290D01*
X129950280Y-65601664D01*
X129959048Y-65589841D01*
X129968934Y-65578934D01*
X129979841Y-65569048D01*
X129991664Y-65560280D01*
X130004290Y-65552712D01*
X130017597Y-65546418D01*
X130031457Y-65541459D01*
X130045736Y-65537882D01*
X130060297Y-65535722D01*
X130075000Y-65535000D01*
X131825000Y-65535000D01*
X131839703Y-65535722D01*
X131839703Y-65535722D01*
G37*
D12*
X130950000Y-65835000D03*
D10*
G36*
X131839703Y-64265722D02*
G01*
X131854264Y-64267882D01*
X131868543Y-64271459D01*
X131882403Y-64276418D01*
X131895710Y-64282712D01*
X131908336Y-64290280D01*
X131920159Y-64299048D01*
X131931066Y-64308934D01*
X131940952Y-64319841D01*
X131949720Y-64331664D01*
X131957288Y-64344290D01*
X131963582Y-64357597D01*
X131968541Y-64371457D01*
X131972118Y-64385736D01*
X131974278Y-64400297D01*
X131975000Y-64415000D01*
X131975000Y-64715000D01*
X131974278Y-64729703D01*
X131972118Y-64744264D01*
X131968541Y-64758543D01*
X131963582Y-64772403D01*
X131957288Y-64785710D01*
X131949720Y-64798336D01*
X131940952Y-64810159D01*
X131931066Y-64821066D01*
X131920159Y-64830952D01*
X131908336Y-64839720D01*
X131895710Y-64847288D01*
X131882403Y-64853582D01*
X131868543Y-64858541D01*
X131854264Y-64862118D01*
X131839703Y-64864278D01*
X131825000Y-64865000D01*
X130075000Y-64865000D01*
X130060297Y-64864278D01*
X130045736Y-64862118D01*
X130031457Y-64858541D01*
X130017597Y-64853582D01*
X130004290Y-64847288D01*
X129991664Y-64839720D01*
X129979841Y-64830952D01*
X129968934Y-64821066D01*
X129959048Y-64810159D01*
X129950280Y-64798336D01*
X129942712Y-64785710D01*
X129936418Y-64772403D01*
X129931459Y-64758543D01*
X129927882Y-64744264D01*
X129925722Y-64729703D01*
X129925000Y-64715000D01*
X129925000Y-64415000D01*
X129925722Y-64400297D01*
X129927882Y-64385736D01*
X129931459Y-64371457D01*
X129936418Y-64357597D01*
X129942712Y-64344290D01*
X129950280Y-64331664D01*
X129959048Y-64319841D01*
X129968934Y-64308934D01*
X129979841Y-64299048D01*
X129991664Y-64290280D01*
X130004290Y-64282712D01*
X130017597Y-64276418D01*
X130031457Y-64271459D01*
X130045736Y-64267882D01*
X130060297Y-64265722D01*
X130075000Y-64265000D01*
X131825000Y-64265000D01*
X131839703Y-64265722D01*
X131839703Y-64265722D01*
G37*
D12*
X130950000Y-64565000D03*
D10*
G36*
X131839703Y-62995722D02*
G01*
X131854264Y-62997882D01*
X131868543Y-63001459D01*
X131882403Y-63006418D01*
X131895710Y-63012712D01*
X131908336Y-63020280D01*
X131920159Y-63029048D01*
X131931066Y-63038934D01*
X131940952Y-63049841D01*
X131949720Y-63061664D01*
X131957288Y-63074290D01*
X131963582Y-63087597D01*
X131968541Y-63101457D01*
X131972118Y-63115736D01*
X131974278Y-63130297D01*
X131975000Y-63145000D01*
X131975000Y-63445000D01*
X131974278Y-63459703D01*
X131972118Y-63474264D01*
X131968541Y-63488543D01*
X131963582Y-63502403D01*
X131957288Y-63515710D01*
X131949720Y-63528336D01*
X131940952Y-63540159D01*
X131931066Y-63551066D01*
X131920159Y-63560952D01*
X131908336Y-63569720D01*
X131895710Y-63577288D01*
X131882403Y-63583582D01*
X131868543Y-63588541D01*
X131854264Y-63592118D01*
X131839703Y-63594278D01*
X131825000Y-63595000D01*
X130075000Y-63595000D01*
X130060297Y-63594278D01*
X130045736Y-63592118D01*
X130031457Y-63588541D01*
X130017597Y-63583582D01*
X130004290Y-63577288D01*
X129991664Y-63569720D01*
X129979841Y-63560952D01*
X129968934Y-63551066D01*
X129959048Y-63540159D01*
X129950280Y-63528336D01*
X129942712Y-63515710D01*
X129936418Y-63502403D01*
X129931459Y-63488543D01*
X129927882Y-63474264D01*
X129925722Y-63459703D01*
X129925000Y-63445000D01*
X129925000Y-63145000D01*
X129925722Y-63130297D01*
X129927882Y-63115736D01*
X129931459Y-63101457D01*
X129936418Y-63087597D01*
X129942712Y-63074290D01*
X129950280Y-63061664D01*
X129959048Y-63049841D01*
X129968934Y-63038934D01*
X129979841Y-63029048D01*
X129991664Y-63020280D01*
X130004290Y-63012712D01*
X130017597Y-63006418D01*
X130031457Y-63001459D01*
X130045736Y-62997882D01*
X130060297Y-62995722D01*
X130075000Y-62995000D01*
X131825000Y-62995000D01*
X131839703Y-62995722D01*
X131839703Y-62995722D01*
G37*
D12*
X130950000Y-63295000D03*
D10*
G36*
X131839703Y-61725722D02*
G01*
X131854264Y-61727882D01*
X131868543Y-61731459D01*
X131882403Y-61736418D01*
X131895710Y-61742712D01*
X131908336Y-61750280D01*
X131920159Y-61759048D01*
X131931066Y-61768934D01*
X131940952Y-61779841D01*
X131949720Y-61791664D01*
X131957288Y-61804290D01*
X131963582Y-61817597D01*
X131968541Y-61831457D01*
X131972118Y-61845736D01*
X131974278Y-61860297D01*
X131975000Y-61875000D01*
X131975000Y-62175000D01*
X131974278Y-62189703D01*
X131972118Y-62204264D01*
X131968541Y-62218543D01*
X131963582Y-62232403D01*
X131957288Y-62245710D01*
X131949720Y-62258336D01*
X131940952Y-62270159D01*
X131931066Y-62281066D01*
X131920159Y-62290952D01*
X131908336Y-62299720D01*
X131895710Y-62307288D01*
X131882403Y-62313582D01*
X131868543Y-62318541D01*
X131854264Y-62322118D01*
X131839703Y-62324278D01*
X131825000Y-62325000D01*
X130075000Y-62325000D01*
X130060297Y-62324278D01*
X130045736Y-62322118D01*
X130031457Y-62318541D01*
X130017597Y-62313582D01*
X130004290Y-62307288D01*
X129991664Y-62299720D01*
X129979841Y-62290952D01*
X129968934Y-62281066D01*
X129959048Y-62270159D01*
X129950280Y-62258336D01*
X129942712Y-62245710D01*
X129936418Y-62232403D01*
X129931459Y-62218543D01*
X129927882Y-62204264D01*
X129925722Y-62189703D01*
X129925000Y-62175000D01*
X129925000Y-61875000D01*
X129925722Y-61860297D01*
X129927882Y-61845736D01*
X129931459Y-61831457D01*
X129936418Y-61817597D01*
X129942712Y-61804290D01*
X129950280Y-61791664D01*
X129959048Y-61779841D01*
X129968934Y-61768934D01*
X129979841Y-61759048D01*
X129991664Y-61750280D01*
X130004290Y-61742712D01*
X130017597Y-61736418D01*
X130031457Y-61731459D01*
X130045736Y-61727882D01*
X130060297Y-61725722D01*
X130075000Y-61725000D01*
X131825000Y-61725000D01*
X131839703Y-61725722D01*
X131839703Y-61725722D01*
G37*
D12*
X130950000Y-62025000D03*
D10*
G36*
X131839703Y-60455722D02*
G01*
X131854264Y-60457882D01*
X131868543Y-60461459D01*
X131882403Y-60466418D01*
X131895710Y-60472712D01*
X131908336Y-60480280D01*
X131920159Y-60489048D01*
X131931066Y-60498934D01*
X131940952Y-60509841D01*
X131949720Y-60521664D01*
X131957288Y-60534290D01*
X131963582Y-60547597D01*
X131968541Y-60561457D01*
X131972118Y-60575736D01*
X131974278Y-60590297D01*
X131975000Y-60605000D01*
X131975000Y-60905000D01*
X131974278Y-60919703D01*
X131972118Y-60934264D01*
X131968541Y-60948543D01*
X131963582Y-60962403D01*
X131957288Y-60975710D01*
X131949720Y-60988336D01*
X131940952Y-61000159D01*
X131931066Y-61011066D01*
X131920159Y-61020952D01*
X131908336Y-61029720D01*
X131895710Y-61037288D01*
X131882403Y-61043582D01*
X131868543Y-61048541D01*
X131854264Y-61052118D01*
X131839703Y-61054278D01*
X131825000Y-61055000D01*
X130075000Y-61055000D01*
X130060297Y-61054278D01*
X130045736Y-61052118D01*
X130031457Y-61048541D01*
X130017597Y-61043582D01*
X130004290Y-61037288D01*
X129991664Y-61029720D01*
X129979841Y-61020952D01*
X129968934Y-61011066D01*
X129959048Y-61000159D01*
X129950280Y-60988336D01*
X129942712Y-60975710D01*
X129936418Y-60962403D01*
X129931459Y-60948543D01*
X129927882Y-60934264D01*
X129925722Y-60919703D01*
X129925000Y-60905000D01*
X129925000Y-60605000D01*
X129925722Y-60590297D01*
X129927882Y-60575736D01*
X129931459Y-60561457D01*
X129936418Y-60547597D01*
X129942712Y-60534290D01*
X129950280Y-60521664D01*
X129959048Y-60509841D01*
X129968934Y-60498934D01*
X129979841Y-60489048D01*
X129991664Y-60480280D01*
X130004290Y-60472712D01*
X130017597Y-60466418D01*
X130031457Y-60461459D01*
X130045736Y-60457882D01*
X130060297Y-60455722D01*
X130075000Y-60455000D01*
X131825000Y-60455000D01*
X131839703Y-60455722D01*
X131839703Y-60455722D01*
G37*
D12*
X130950000Y-60755000D03*
D10*
G36*
X131839703Y-59185722D02*
G01*
X131854264Y-59187882D01*
X131868543Y-59191459D01*
X131882403Y-59196418D01*
X131895710Y-59202712D01*
X131908336Y-59210280D01*
X131920159Y-59219048D01*
X131931066Y-59228934D01*
X131940952Y-59239841D01*
X131949720Y-59251664D01*
X131957288Y-59264290D01*
X131963582Y-59277597D01*
X131968541Y-59291457D01*
X131972118Y-59305736D01*
X131974278Y-59320297D01*
X131975000Y-59335000D01*
X131975000Y-59635000D01*
X131974278Y-59649703D01*
X131972118Y-59664264D01*
X131968541Y-59678543D01*
X131963582Y-59692403D01*
X131957288Y-59705710D01*
X131949720Y-59718336D01*
X131940952Y-59730159D01*
X131931066Y-59741066D01*
X131920159Y-59750952D01*
X131908336Y-59759720D01*
X131895710Y-59767288D01*
X131882403Y-59773582D01*
X131868543Y-59778541D01*
X131854264Y-59782118D01*
X131839703Y-59784278D01*
X131825000Y-59785000D01*
X130075000Y-59785000D01*
X130060297Y-59784278D01*
X130045736Y-59782118D01*
X130031457Y-59778541D01*
X130017597Y-59773582D01*
X130004290Y-59767288D01*
X129991664Y-59759720D01*
X129979841Y-59750952D01*
X129968934Y-59741066D01*
X129959048Y-59730159D01*
X129950280Y-59718336D01*
X129942712Y-59705710D01*
X129936418Y-59692403D01*
X129931459Y-59678543D01*
X129927882Y-59664264D01*
X129925722Y-59649703D01*
X129925000Y-59635000D01*
X129925000Y-59335000D01*
X129925722Y-59320297D01*
X129927882Y-59305736D01*
X129931459Y-59291457D01*
X129936418Y-59277597D01*
X129942712Y-59264290D01*
X129950280Y-59251664D01*
X129959048Y-59239841D01*
X129968934Y-59228934D01*
X129979841Y-59219048D01*
X129991664Y-59210280D01*
X130004290Y-59202712D01*
X130017597Y-59196418D01*
X130031457Y-59191459D01*
X130045736Y-59187882D01*
X130060297Y-59185722D01*
X130075000Y-59185000D01*
X131825000Y-59185000D01*
X131839703Y-59185722D01*
X131839703Y-59185722D01*
G37*
D12*
X130950000Y-59485000D03*
D13*
X138240000Y-53485000D03*
X138240000Y-54315000D03*
X139120000Y-53485000D03*
X139120000Y-54315000D03*
X140000000Y-53485000D03*
X140000000Y-54315000D03*
X140880000Y-53485000D03*
X140880000Y-54315000D03*
X141760000Y-54315000D03*
X141760000Y-53485000D03*
D14*
X141750000Y-55325000D03*
X141250000Y-55325000D03*
X140750000Y-55325000D03*
X140250000Y-55325000D03*
X139750000Y-55325000D03*
X139250000Y-55325000D03*
X138750000Y-55325000D03*
X138250000Y-55325000D03*
X138250000Y-52475000D03*
X138750000Y-52475000D03*
X139250000Y-52475000D03*
X139750000Y-52475000D03*
X140250000Y-52475000D03*
X140750000Y-52475000D03*
X141250000Y-52475000D03*
X141750000Y-52475000D03*
M02*
