G04 #@! TF.GenerationSoftware,KiCad,Pcbnew,(6.0.0-rc1-dev-1546-g786ee0e)*
G04 #@! TF.CreationDate,2021-05-18T14:48:32-07:00
G04 #@! TF.ProjectId,MuxBoard,4d757842-6f61-4726-942e-6b696361645f,rev?*
G04 #@! TF.SameCoordinates,Original*
G04 #@! TF.FileFunction,Copper,L1,Top*
G04 #@! TF.FilePolarity,Positive*
%FSLAX46Y46*%
G04 Gerber Fmt 4.6, Leading zero omitted, Abs format (unit mm)*
G04 Created by KiCad (PCBNEW (6.0.0-rc1-dev-1546-g786ee0e)) date Tue 18 May 2021 02:48:32 PM PDT*
%MOMM*%
%LPD*%
G04 APERTURE LIST*
%ADD10R,2.000000X2.000000*%
%ADD11C,0.100000*%
%ADD12C,0.540000*%
%ADD13C,0.600000*%
%ADD14R,4.400000X1.660000*%
%ADD15R,0.250000X0.650000*%
%ADD16C,0.400000*%
%ADD17C,0.250000*%
%ADD18C,0.200000*%
%ADD19C,0.254000*%
G04 APERTURE END LIST*
D10*
X131500000Y-51500000D03*
X145000000Y-83500000D03*
X145000000Y-79000000D03*
X145000000Y-74500000D03*
X145000000Y-70000000D03*
X145000000Y-65500000D03*
X145000000Y-61000000D03*
X145000000Y-56500000D03*
X145000000Y-51500000D03*
X149000000Y-83500000D03*
X149000000Y-79000000D03*
X149000000Y-74500000D03*
X149000000Y-70000000D03*
X149000000Y-65500000D03*
X149000000Y-61000000D03*
X149000000Y-56500000D03*
X149000000Y-51500000D03*
X135000000Y-55000000D03*
X131500000Y-55000000D03*
X135000000Y-51500000D03*
D11*
G36*
X139158232Y-50380650D02*
G01*
X139171337Y-50382594D01*
X139184188Y-50385813D01*
X139196662Y-50390276D01*
X139208639Y-50395941D01*
X139220002Y-50402752D01*
X139230643Y-50410644D01*
X139240459Y-50419541D01*
X139249356Y-50429357D01*
X139257248Y-50439998D01*
X139264059Y-50451361D01*
X139269724Y-50463338D01*
X139274187Y-50475812D01*
X139277406Y-50488663D01*
X139279350Y-50501768D01*
X139280000Y-50515000D01*
X139280000Y-50885000D01*
X139279350Y-50898232D01*
X139277406Y-50911337D01*
X139274187Y-50924188D01*
X139269724Y-50936662D01*
X139264059Y-50948639D01*
X139257248Y-50960002D01*
X139249356Y-50970643D01*
X139240459Y-50980459D01*
X139230643Y-50989356D01*
X139220002Y-50997248D01*
X139208639Y-51004059D01*
X139196662Y-51009724D01*
X139184188Y-51014187D01*
X139171337Y-51017406D01*
X139158232Y-51019350D01*
X139145000Y-51020000D01*
X138875000Y-51020000D01*
X138861768Y-51019350D01*
X138848663Y-51017406D01*
X138835812Y-51014187D01*
X138823338Y-51009724D01*
X138811361Y-51004059D01*
X138799998Y-50997248D01*
X138789357Y-50989356D01*
X138779541Y-50980459D01*
X138770644Y-50970643D01*
X138762752Y-50960002D01*
X138755941Y-50948639D01*
X138750276Y-50936662D01*
X138745813Y-50924188D01*
X138742594Y-50911337D01*
X138740650Y-50898232D01*
X138740000Y-50885000D01*
X138740000Y-50515000D01*
X138740650Y-50501768D01*
X138742594Y-50488663D01*
X138745813Y-50475812D01*
X138750276Y-50463338D01*
X138755941Y-50451361D01*
X138762752Y-50439998D01*
X138770644Y-50429357D01*
X138779541Y-50419541D01*
X138789357Y-50410644D01*
X138799998Y-50402752D01*
X138811361Y-50395941D01*
X138823338Y-50390276D01*
X138835812Y-50385813D01*
X138848663Y-50382594D01*
X138861768Y-50380650D01*
X138875000Y-50380000D01*
X139145000Y-50380000D01*
X139158232Y-50380650D01*
X139158232Y-50380650D01*
G37*
D12*
X139010000Y-50700000D03*
D11*
G36*
X138138232Y-50380650D02*
G01*
X138151337Y-50382594D01*
X138164188Y-50385813D01*
X138176662Y-50390276D01*
X138188639Y-50395941D01*
X138200002Y-50402752D01*
X138210643Y-50410644D01*
X138220459Y-50419541D01*
X138229356Y-50429357D01*
X138237248Y-50439998D01*
X138244059Y-50451361D01*
X138249724Y-50463338D01*
X138254187Y-50475812D01*
X138257406Y-50488663D01*
X138259350Y-50501768D01*
X138260000Y-50515000D01*
X138260000Y-50885000D01*
X138259350Y-50898232D01*
X138257406Y-50911337D01*
X138254187Y-50924188D01*
X138249724Y-50936662D01*
X138244059Y-50948639D01*
X138237248Y-50960002D01*
X138229356Y-50970643D01*
X138220459Y-50980459D01*
X138210643Y-50989356D01*
X138200002Y-50997248D01*
X138188639Y-51004059D01*
X138176662Y-51009724D01*
X138164188Y-51014187D01*
X138151337Y-51017406D01*
X138138232Y-51019350D01*
X138125000Y-51020000D01*
X137855000Y-51020000D01*
X137841768Y-51019350D01*
X137828663Y-51017406D01*
X137815812Y-51014187D01*
X137803338Y-51009724D01*
X137791361Y-51004059D01*
X137779998Y-50997248D01*
X137769357Y-50989356D01*
X137759541Y-50980459D01*
X137750644Y-50970643D01*
X137742752Y-50960002D01*
X137735941Y-50948639D01*
X137730276Y-50936662D01*
X137725813Y-50924188D01*
X137722594Y-50911337D01*
X137720650Y-50898232D01*
X137720000Y-50885000D01*
X137720000Y-50515000D01*
X137720650Y-50501768D01*
X137722594Y-50488663D01*
X137725813Y-50475812D01*
X137730276Y-50463338D01*
X137735941Y-50451361D01*
X137742752Y-50439998D01*
X137750644Y-50429357D01*
X137759541Y-50419541D01*
X137769357Y-50410644D01*
X137779998Y-50402752D01*
X137791361Y-50395941D01*
X137803338Y-50390276D01*
X137815812Y-50385813D01*
X137828663Y-50382594D01*
X137841768Y-50380650D01*
X137855000Y-50380000D01*
X138125000Y-50380000D01*
X138138232Y-50380650D01*
X138138232Y-50380650D01*
G37*
D12*
X137990000Y-50700000D03*
D11*
G36*
X141658232Y-50380650D02*
G01*
X141671337Y-50382594D01*
X141684188Y-50385813D01*
X141696662Y-50390276D01*
X141708639Y-50395941D01*
X141720002Y-50402752D01*
X141730643Y-50410644D01*
X141740459Y-50419541D01*
X141749356Y-50429357D01*
X141757248Y-50439998D01*
X141764059Y-50451361D01*
X141769724Y-50463338D01*
X141774187Y-50475812D01*
X141777406Y-50488663D01*
X141779350Y-50501768D01*
X141780000Y-50515000D01*
X141780000Y-50885000D01*
X141779350Y-50898232D01*
X141777406Y-50911337D01*
X141774187Y-50924188D01*
X141769724Y-50936662D01*
X141764059Y-50948639D01*
X141757248Y-50960002D01*
X141749356Y-50970643D01*
X141740459Y-50980459D01*
X141730643Y-50989356D01*
X141720002Y-50997248D01*
X141708639Y-51004059D01*
X141696662Y-51009724D01*
X141684188Y-51014187D01*
X141671337Y-51017406D01*
X141658232Y-51019350D01*
X141645000Y-51020000D01*
X141375000Y-51020000D01*
X141361768Y-51019350D01*
X141348663Y-51017406D01*
X141335812Y-51014187D01*
X141323338Y-51009724D01*
X141311361Y-51004059D01*
X141299998Y-50997248D01*
X141289357Y-50989356D01*
X141279541Y-50980459D01*
X141270644Y-50970643D01*
X141262752Y-50960002D01*
X141255941Y-50948639D01*
X141250276Y-50936662D01*
X141245813Y-50924188D01*
X141242594Y-50911337D01*
X141240650Y-50898232D01*
X141240000Y-50885000D01*
X141240000Y-50515000D01*
X141240650Y-50501768D01*
X141242594Y-50488663D01*
X141245813Y-50475812D01*
X141250276Y-50463338D01*
X141255941Y-50451361D01*
X141262752Y-50439998D01*
X141270644Y-50429357D01*
X141279541Y-50419541D01*
X141289357Y-50410644D01*
X141299998Y-50402752D01*
X141311361Y-50395941D01*
X141323338Y-50390276D01*
X141335812Y-50385813D01*
X141348663Y-50382594D01*
X141361768Y-50380650D01*
X141375000Y-50380000D01*
X141645000Y-50380000D01*
X141658232Y-50380650D01*
X141658232Y-50380650D01*
G37*
D12*
X141510000Y-50700000D03*
D11*
G36*
X140638232Y-50380650D02*
G01*
X140651337Y-50382594D01*
X140664188Y-50385813D01*
X140676662Y-50390276D01*
X140688639Y-50395941D01*
X140700002Y-50402752D01*
X140710643Y-50410644D01*
X140720459Y-50419541D01*
X140729356Y-50429357D01*
X140737248Y-50439998D01*
X140744059Y-50451361D01*
X140749724Y-50463338D01*
X140754187Y-50475812D01*
X140757406Y-50488663D01*
X140759350Y-50501768D01*
X140760000Y-50515000D01*
X140760000Y-50885000D01*
X140759350Y-50898232D01*
X140757406Y-50911337D01*
X140754187Y-50924188D01*
X140749724Y-50936662D01*
X140744059Y-50948639D01*
X140737248Y-50960002D01*
X140729356Y-50970643D01*
X140720459Y-50980459D01*
X140710643Y-50989356D01*
X140700002Y-50997248D01*
X140688639Y-51004059D01*
X140676662Y-51009724D01*
X140664188Y-51014187D01*
X140651337Y-51017406D01*
X140638232Y-51019350D01*
X140625000Y-51020000D01*
X140355000Y-51020000D01*
X140341768Y-51019350D01*
X140328663Y-51017406D01*
X140315812Y-51014187D01*
X140303338Y-51009724D01*
X140291361Y-51004059D01*
X140279998Y-50997248D01*
X140269357Y-50989356D01*
X140259541Y-50980459D01*
X140250644Y-50970643D01*
X140242752Y-50960002D01*
X140235941Y-50948639D01*
X140230276Y-50936662D01*
X140225813Y-50924188D01*
X140222594Y-50911337D01*
X140220650Y-50898232D01*
X140220000Y-50885000D01*
X140220000Y-50515000D01*
X140220650Y-50501768D01*
X140222594Y-50488663D01*
X140225813Y-50475812D01*
X140230276Y-50463338D01*
X140235941Y-50451361D01*
X140242752Y-50439998D01*
X140250644Y-50429357D01*
X140259541Y-50419541D01*
X140269357Y-50410644D01*
X140279998Y-50402752D01*
X140291361Y-50395941D01*
X140303338Y-50390276D01*
X140315812Y-50385813D01*
X140328663Y-50382594D01*
X140341768Y-50380650D01*
X140355000Y-50380000D01*
X140625000Y-50380000D01*
X140638232Y-50380650D01*
X140638232Y-50380650D01*
G37*
D12*
X140490000Y-50700000D03*
D11*
G36*
X141139703Y-72685722D02*
G01*
X141154264Y-72687882D01*
X141168543Y-72691459D01*
X141182403Y-72696418D01*
X141195710Y-72702712D01*
X141208336Y-72710280D01*
X141220159Y-72719048D01*
X141231066Y-72728934D01*
X141240952Y-72739841D01*
X141249720Y-72751664D01*
X141257288Y-72764290D01*
X141263582Y-72777597D01*
X141268541Y-72791457D01*
X141272118Y-72805736D01*
X141274278Y-72820297D01*
X141275000Y-72835000D01*
X141275000Y-73135000D01*
X141274278Y-73149703D01*
X141272118Y-73164264D01*
X141268541Y-73178543D01*
X141263582Y-73192403D01*
X141257288Y-73205710D01*
X141249720Y-73218336D01*
X141240952Y-73230159D01*
X141231066Y-73241066D01*
X141220159Y-73250952D01*
X141208336Y-73259720D01*
X141195710Y-73267288D01*
X141182403Y-73273582D01*
X141168543Y-73278541D01*
X141154264Y-73282118D01*
X141139703Y-73284278D01*
X141125000Y-73285000D01*
X139375000Y-73285000D01*
X139360297Y-73284278D01*
X139345736Y-73282118D01*
X139331457Y-73278541D01*
X139317597Y-73273582D01*
X139304290Y-73267288D01*
X139291664Y-73259720D01*
X139279841Y-73250952D01*
X139268934Y-73241066D01*
X139259048Y-73230159D01*
X139250280Y-73218336D01*
X139242712Y-73205710D01*
X139236418Y-73192403D01*
X139231459Y-73178543D01*
X139227882Y-73164264D01*
X139225722Y-73149703D01*
X139225000Y-73135000D01*
X139225000Y-72835000D01*
X139225722Y-72820297D01*
X139227882Y-72805736D01*
X139231459Y-72791457D01*
X139236418Y-72777597D01*
X139242712Y-72764290D01*
X139250280Y-72751664D01*
X139259048Y-72739841D01*
X139268934Y-72728934D01*
X139279841Y-72719048D01*
X139291664Y-72710280D01*
X139304290Y-72702712D01*
X139317597Y-72696418D01*
X139331457Y-72691459D01*
X139345736Y-72687882D01*
X139360297Y-72685722D01*
X139375000Y-72685000D01*
X141125000Y-72685000D01*
X141139703Y-72685722D01*
X141139703Y-72685722D01*
G37*
D13*
X140250000Y-72985000D03*
D11*
G36*
X141139703Y-73955722D02*
G01*
X141154264Y-73957882D01*
X141168543Y-73961459D01*
X141182403Y-73966418D01*
X141195710Y-73972712D01*
X141208336Y-73980280D01*
X141220159Y-73989048D01*
X141231066Y-73998934D01*
X141240952Y-74009841D01*
X141249720Y-74021664D01*
X141257288Y-74034290D01*
X141263582Y-74047597D01*
X141268541Y-74061457D01*
X141272118Y-74075736D01*
X141274278Y-74090297D01*
X141275000Y-74105000D01*
X141275000Y-74405000D01*
X141274278Y-74419703D01*
X141272118Y-74434264D01*
X141268541Y-74448543D01*
X141263582Y-74462403D01*
X141257288Y-74475710D01*
X141249720Y-74488336D01*
X141240952Y-74500159D01*
X141231066Y-74511066D01*
X141220159Y-74520952D01*
X141208336Y-74529720D01*
X141195710Y-74537288D01*
X141182403Y-74543582D01*
X141168543Y-74548541D01*
X141154264Y-74552118D01*
X141139703Y-74554278D01*
X141125000Y-74555000D01*
X139375000Y-74555000D01*
X139360297Y-74554278D01*
X139345736Y-74552118D01*
X139331457Y-74548541D01*
X139317597Y-74543582D01*
X139304290Y-74537288D01*
X139291664Y-74529720D01*
X139279841Y-74520952D01*
X139268934Y-74511066D01*
X139259048Y-74500159D01*
X139250280Y-74488336D01*
X139242712Y-74475710D01*
X139236418Y-74462403D01*
X139231459Y-74448543D01*
X139227882Y-74434264D01*
X139225722Y-74419703D01*
X139225000Y-74405000D01*
X139225000Y-74105000D01*
X139225722Y-74090297D01*
X139227882Y-74075736D01*
X139231459Y-74061457D01*
X139236418Y-74047597D01*
X139242712Y-74034290D01*
X139250280Y-74021664D01*
X139259048Y-74009841D01*
X139268934Y-73998934D01*
X139279841Y-73989048D01*
X139291664Y-73980280D01*
X139304290Y-73972712D01*
X139317597Y-73966418D01*
X139331457Y-73961459D01*
X139345736Y-73957882D01*
X139360297Y-73955722D01*
X139375000Y-73955000D01*
X141125000Y-73955000D01*
X141139703Y-73955722D01*
X141139703Y-73955722D01*
G37*
D13*
X140250000Y-74255000D03*
D11*
G36*
X141139703Y-75225722D02*
G01*
X141154264Y-75227882D01*
X141168543Y-75231459D01*
X141182403Y-75236418D01*
X141195710Y-75242712D01*
X141208336Y-75250280D01*
X141220159Y-75259048D01*
X141231066Y-75268934D01*
X141240952Y-75279841D01*
X141249720Y-75291664D01*
X141257288Y-75304290D01*
X141263582Y-75317597D01*
X141268541Y-75331457D01*
X141272118Y-75345736D01*
X141274278Y-75360297D01*
X141275000Y-75375000D01*
X141275000Y-75675000D01*
X141274278Y-75689703D01*
X141272118Y-75704264D01*
X141268541Y-75718543D01*
X141263582Y-75732403D01*
X141257288Y-75745710D01*
X141249720Y-75758336D01*
X141240952Y-75770159D01*
X141231066Y-75781066D01*
X141220159Y-75790952D01*
X141208336Y-75799720D01*
X141195710Y-75807288D01*
X141182403Y-75813582D01*
X141168543Y-75818541D01*
X141154264Y-75822118D01*
X141139703Y-75824278D01*
X141125000Y-75825000D01*
X139375000Y-75825000D01*
X139360297Y-75824278D01*
X139345736Y-75822118D01*
X139331457Y-75818541D01*
X139317597Y-75813582D01*
X139304290Y-75807288D01*
X139291664Y-75799720D01*
X139279841Y-75790952D01*
X139268934Y-75781066D01*
X139259048Y-75770159D01*
X139250280Y-75758336D01*
X139242712Y-75745710D01*
X139236418Y-75732403D01*
X139231459Y-75718543D01*
X139227882Y-75704264D01*
X139225722Y-75689703D01*
X139225000Y-75675000D01*
X139225000Y-75375000D01*
X139225722Y-75360297D01*
X139227882Y-75345736D01*
X139231459Y-75331457D01*
X139236418Y-75317597D01*
X139242712Y-75304290D01*
X139250280Y-75291664D01*
X139259048Y-75279841D01*
X139268934Y-75268934D01*
X139279841Y-75259048D01*
X139291664Y-75250280D01*
X139304290Y-75242712D01*
X139317597Y-75236418D01*
X139331457Y-75231459D01*
X139345736Y-75227882D01*
X139360297Y-75225722D01*
X139375000Y-75225000D01*
X141125000Y-75225000D01*
X141139703Y-75225722D01*
X141139703Y-75225722D01*
G37*
D13*
X140250000Y-75525000D03*
D11*
G36*
X141139703Y-76495722D02*
G01*
X141154264Y-76497882D01*
X141168543Y-76501459D01*
X141182403Y-76506418D01*
X141195710Y-76512712D01*
X141208336Y-76520280D01*
X141220159Y-76529048D01*
X141231066Y-76538934D01*
X141240952Y-76549841D01*
X141249720Y-76561664D01*
X141257288Y-76574290D01*
X141263582Y-76587597D01*
X141268541Y-76601457D01*
X141272118Y-76615736D01*
X141274278Y-76630297D01*
X141275000Y-76645000D01*
X141275000Y-76945000D01*
X141274278Y-76959703D01*
X141272118Y-76974264D01*
X141268541Y-76988543D01*
X141263582Y-77002403D01*
X141257288Y-77015710D01*
X141249720Y-77028336D01*
X141240952Y-77040159D01*
X141231066Y-77051066D01*
X141220159Y-77060952D01*
X141208336Y-77069720D01*
X141195710Y-77077288D01*
X141182403Y-77083582D01*
X141168543Y-77088541D01*
X141154264Y-77092118D01*
X141139703Y-77094278D01*
X141125000Y-77095000D01*
X139375000Y-77095000D01*
X139360297Y-77094278D01*
X139345736Y-77092118D01*
X139331457Y-77088541D01*
X139317597Y-77083582D01*
X139304290Y-77077288D01*
X139291664Y-77069720D01*
X139279841Y-77060952D01*
X139268934Y-77051066D01*
X139259048Y-77040159D01*
X139250280Y-77028336D01*
X139242712Y-77015710D01*
X139236418Y-77002403D01*
X139231459Y-76988543D01*
X139227882Y-76974264D01*
X139225722Y-76959703D01*
X139225000Y-76945000D01*
X139225000Y-76645000D01*
X139225722Y-76630297D01*
X139227882Y-76615736D01*
X139231459Y-76601457D01*
X139236418Y-76587597D01*
X139242712Y-76574290D01*
X139250280Y-76561664D01*
X139259048Y-76549841D01*
X139268934Y-76538934D01*
X139279841Y-76529048D01*
X139291664Y-76520280D01*
X139304290Y-76512712D01*
X139317597Y-76506418D01*
X139331457Y-76501459D01*
X139345736Y-76497882D01*
X139360297Y-76495722D01*
X139375000Y-76495000D01*
X141125000Y-76495000D01*
X141139703Y-76495722D01*
X141139703Y-76495722D01*
G37*
D13*
X140250000Y-76795000D03*
D11*
G36*
X141139703Y-77765722D02*
G01*
X141154264Y-77767882D01*
X141168543Y-77771459D01*
X141182403Y-77776418D01*
X141195710Y-77782712D01*
X141208336Y-77790280D01*
X141220159Y-77799048D01*
X141231066Y-77808934D01*
X141240952Y-77819841D01*
X141249720Y-77831664D01*
X141257288Y-77844290D01*
X141263582Y-77857597D01*
X141268541Y-77871457D01*
X141272118Y-77885736D01*
X141274278Y-77900297D01*
X141275000Y-77915000D01*
X141275000Y-78215000D01*
X141274278Y-78229703D01*
X141272118Y-78244264D01*
X141268541Y-78258543D01*
X141263582Y-78272403D01*
X141257288Y-78285710D01*
X141249720Y-78298336D01*
X141240952Y-78310159D01*
X141231066Y-78321066D01*
X141220159Y-78330952D01*
X141208336Y-78339720D01*
X141195710Y-78347288D01*
X141182403Y-78353582D01*
X141168543Y-78358541D01*
X141154264Y-78362118D01*
X141139703Y-78364278D01*
X141125000Y-78365000D01*
X139375000Y-78365000D01*
X139360297Y-78364278D01*
X139345736Y-78362118D01*
X139331457Y-78358541D01*
X139317597Y-78353582D01*
X139304290Y-78347288D01*
X139291664Y-78339720D01*
X139279841Y-78330952D01*
X139268934Y-78321066D01*
X139259048Y-78310159D01*
X139250280Y-78298336D01*
X139242712Y-78285710D01*
X139236418Y-78272403D01*
X139231459Y-78258543D01*
X139227882Y-78244264D01*
X139225722Y-78229703D01*
X139225000Y-78215000D01*
X139225000Y-77915000D01*
X139225722Y-77900297D01*
X139227882Y-77885736D01*
X139231459Y-77871457D01*
X139236418Y-77857597D01*
X139242712Y-77844290D01*
X139250280Y-77831664D01*
X139259048Y-77819841D01*
X139268934Y-77808934D01*
X139279841Y-77799048D01*
X139291664Y-77790280D01*
X139304290Y-77782712D01*
X139317597Y-77776418D01*
X139331457Y-77771459D01*
X139345736Y-77767882D01*
X139360297Y-77765722D01*
X139375000Y-77765000D01*
X141125000Y-77765000D01*
X141139703Y-77765722D01*
X141139703Y-77765722D01*
G37*
D13*
X140250000Y-78065000D03*
D11*
G36*
X141139703Y-79035722D02*
G01*
X141154264Y-79037882D01*
X141168543Y-79041459D01*
X141182403Y-79046418D01*
X141195710Y-79052712D01*
X141208336Y-79060280D01*
X141220159Y-79069048D01*
X141231066Y-79078934D01*
X141240952Y-79089841D01*
X141249720Y-79101664D01*
X141257288Y-79114290D01*
X141263582Y-79127597D01*
X141268541Y-79141457D01*
X141272118Y-79155736D01*
X141274278Y-79170297D01*
X141275000Y-79185000D01*
X141275000Y-79485000D01*
X141274278Y-79499703D01*
X141272118Y-79514264D01*
X141268541Y-79528543D01*
X141263582Y-79542403D01*
X141257288Y-79555710D01*
X141249720Y-79568336D01*
X141240952Y-79580159D01*
X141231066Y-79591066D01*
X141220159Y-79600952D01*
X141208336Y-79609720D01*
X141195710Y-79617288D01*
X141182403Y-79623582D01*
X141168543Y-79628541D01*
X141154264Y-79632118D01*
X141139703Y-79634278D01*
X141125000Y-79635000D01*
X139375000Y-79635000D01*
X139360297Y-79634278D01*
X139345736Y-79632118D01*
X139331457Y-79628541D01*
X139317597Y-79623582D01*
X139304290Y-79617288D01*
X139291664Y-79609720D01*
X139279841Y-79600952D01*
X139268934Y-79591066D01*
X139259048Y-79580159D01*
X139250280Y-79568336D01*
X139242712Y-79555710D01*
X139236418Y-79542403D01*
X139231459Y-79528543D01*
X139227882Y-79514264D01*
X139225722Y-79499703D01*
X139225000Y-79485000D01*
X139225000Y-79185000D01*
X139225722Y-79170297D01*
X139227882Y-79155736D01*
X139231459Y-79141457D01*
X139236418Y-79127597D01*
X139242712Y-79114290D01*
X139250280Y-79101664D01*
X139259048Y-79089841D01*
X139268934Y-79078934D01*
X139279841Y-79069048D01*
X139291664Y-79060280D01*
X139304290Y-79052712D01*
X139317597Y-79046418D01*
X139331457Y-79041459D01*
X139345736Y-79037882D01*
X139360297Y-79035722D01*
X139375000Y-79035000D01*
X141125000Y-79035000D01*
X141139703Y-79035722D01*
X141139703Y-79035722D01*
G37*
D13*
X140250000Y-79335000D03*
D11*
G36*
X141139703Y-80305722D02*
G01*
X141154264Y-80307882D01*
X141168543Y-80311459D01*
X141182403Y-80316418D01*
X141195710Y-80322712D01*
X141208336Y-80330280D01*
X141220159Y-80339048D01*
X141231066Y-80348934D01*
X141240952Y-80359841D01*
X141249720Y-80371664D01*
X141257288Y-80384290D01*
X141263582Y-80397597D01*
X141268541Y-80411457D01*
X141272118Y-80425736D01*
X141274278Y-80440297D01*
X141275000Y-80455000D01*
X141275000Y-80755000D01*
X141274278Y-80769703D01*
X141272118Y-80784264D01*
X141268541Y-80798543D01*
X141263582Y-80812403D01*
X141257288Y-80825710D01*
X141249720Y-80838336D01*
X141240952Y-80850159D01*
X141231066Y-80861066D01*
X141220159Y-80870952D01*
X141208336Y-80879720D01*
X141195710Y-80887288D01*
X141182403Y-80893582D01*
X141168543Y-80898541D01*
X141154264Y-80902118D01*
X141139703Y-80904278D01*
X141125000Y-80905000D01*
X139375000Y-80905000D01*
X139360297Y-80904278D01*
X139345736Y-80902118D01*
X139331457Y-80898541D01*
X139317597Y-80893582D01*
X139304290Y-80887288D01*
X139291664Y-80879720D01*
X139279841Y-80870952D01*
X139268934Y-80861066D01*
X139259048Y-80850159D01*
X139250280Y-80838336D01*
X139242712Y-80825710D01*
X139236418Y-80812403D01*
X139231459Y-80798543D01*
X139227882Y-80784264D01*
X139225722Y-80769703D01*
X139225000Y-80755000D01*
X139225000Y-80455000D01*
X139225722Y-80440297D01*
X139227882Y-80425736D01*
X139231459Y-80411457D01*
X139236418Y-80397597D01*
X139242712Y-80384290D01*
X139250280Y-80371664D01*
X139259048Y-80359841D01*
X139268934Y-80348934D01*
X139279841Y-80339048D01*
X139291664Y-80330280D01*
X139304290Y-80322712D01*
X139317597Y-80316418D01*
X139331457Y-80311459D01*
X139345736Y-80307882D01*
X139360297Y-80305722D01*
X139375000Y-80305000D01*
X141125000Y-80305000D01*
X141139703Y-80305722D01*
X141139703Y-80305722D01*
G37*
D13*
X140250000Y-80605000D03*
D11*
G36*
X141139703Y-81575722D02*
G01*
X141154264Y-81577882D01*
X141168543Y-81581459D01*
X141182403Y-81586418D01*
X141195710Y-81592712D01*
X141208336Y-81600280D01*
X141220159Y-81609048D01*
X141231066Y-81618934D01*
X141240952Y-81629841D01*
X141249720Y-81641664D01*
X141257288Y-81654290D01*
X141263582Y-81667597D01*
X141268541Y-81681457D01*
X141272118Y-81695736D01*
X141274278Y-81710297D01*
X141275000Y-81725000D01*
X141275000Y-82025000D01*
X141274278Y-82039703D01*
X141272118Y-82054264D01*
X141268541Y-82068543D01*
X141263582Y-82082403D01*
X141257288Y-82095710D01*
X141249720Y-82108336D01*
X141240952Y-82120159D01*
X141231066Y-82131066D01*
X141220159Y-82140952D01*
X141208336Y-82149720D01*
X141195710Y-82157288D01*
X141182403Y-82163582D01*
X141168543Y-82168541D01*
X141154264Y-82172118D01*
X141139703Y-82174278D01*
X141125000Y-82175000D01*
X139375000Y-82175000D01*
X139360297Y-82174278D01*
X139345736Y-82172118D01*
X139331457Y-82168541D01*
X139317597Y-82163582D01*
X139304290Y-82157288D01*
X139291664Y-82149720D01*
X139279841Y-82140952D01*
X139268934Y-82131066D01*
X139259048Y-82120159D01*
X139250280Y-82108336D01*
X139242712Y-82095710D01*
X139236418Y-82082403D01*
X139231459Y-82068543D01*
X139227882Y-82054264D01*
X139225722Y-82039703D01*
X139225000Y-82025000D01*
X139225000Y-81725000D01*
X139225722Y-81710297D01*
X139227882Y-81695736D01*
X139231459Y-81681457D01*
X139236418Y-81667597D01*
X139242712Y-81654290D01*
X139250280Y-81641664D01*
X139259048Y-81629841D01*
X139268934Y-81618934D01*
X139279841Y-81609048D01*
X139291664Y-81600280D01*
X139304290Y-81592712D01*
X139317597Y-81586418D01*
X139331457Y-81581459D01*
X139345736Y-81577882D01*
X139360297Y-81575722D01*
X139375000Y-81575000D01*
X141125000Y-81575000D01*
X141139703Y-81575722D01*
X141139703Y-81575722D01*
G37*
D13*
X140250000Y-81875000D03*
D11*
G36*
X141139703Y-82845722D02*
G01*
X141154264Y-82847882D01*
X141168543Y-82851459D01*
X141182403Y-82856418D01*
X141195710Y-82862712D01*
X141208336Y-82870280D01*
X141220159Y-82879048D01*
X141231066Y-82888934D01*
X141240952Y-82899841D01*
X141249720Y-82911664D01*
X141257288Y-82924290D01*
X141263582Y-82937597D01*
X141268541Y-82951457D01*
X141272118Y-82965736D01*
X141274278Y-82980297D01*
X141275000Y-82995000D01*
X141275000Y-83295000D01*
X141274278Y-83309703D01*
X141272118Y-83324264D01*
X141268541Y-83338543D01*
X141263582Y-83352403D01*
X141257288Y-83365710D01*
X141249720Y-83378336D01*
X141240952Y-83390159D01*
X141231066Y-83401066D01*
X141220159Y-83410952D01*
X141208336Y-83419720D01*
X141195710Y-83427288D01*
X141182403Y-83433582D01*
X141168543Y-83438541D01*
X141154264Y-83442118D01*
X141139703Y-83444278D01*
X141125000Y-83445000D01*
X139375000Y-83445000D01*
X139360297Y-83444278D01*
X139345736Y-83442118D01*
X139331457Y-83438541D01*
X139317597Y-83433582D01*
X139304290Y-83427288D01*
X139291664Y-83419720D01*
X139279841Y-83410952D01*
X139268934Y-83401066D01*
X139259048Y-83390159D01*
X139250280Y-83378336D01*
X139242712Y-83365710D01*
X139236418Y-83352403D01*
X139231459Y-83338543D01*
X139227882Y-83324264D01*
X139225722Y-83309703D01*
X139225000Y-83295000D01*
X139225000Y-82995000D01*
X139225722Y-82980297D01*
X139227882Y-82965736D01*
X139231459Y-82951457D01*
X139236418Y-82937597D01*
X139242712Y-82924290D01*
X139250280Y-82911664D01*
X139259048Y-82899841D01*
X139268934Y-82888934D01*
X139279841Y-82879048D01*
X139291664Y-82870280D01*
X139304290Y-82862712D01*
X139317597Y-82856418D01*
X139331457Y-82851459D01*
X139345736Y-82847882D01*
X139360297Y-82845722D01*
X139375000Y-82845000D01*
X141125000Y-82845000D01*
X141139703Y-82845722D01*
X141139703Y-82845722D01*
G37*
D13*
X140250000Y-83145000D03*
D11*
G36*
X141139703Y-84115722D02*
G01*
X141154264Y-84117882D01*
X141168543Y-84121459D01*
X141182403Y-84126418D01*
X141195710Y-84132712D01*
X141208336Y-84140280D01*
X141220159Y-84149048D01*
X141231066Y-84158934D01*
X141240952Y-84169841D01*
X141249720Y-84181664D01*
X141257288Y-84194290D01*
X141263582Y-84207597D01*
X141268541Y-84221457D01*
X141272118Y-84235736D01*
X141274278Y-84250297D01*
X141275000Y-84265000D01*
X141275000Y-84565000D01*
X141274278Y-84579703D01*
X141272118Y-84594264D01*
X141268541Y-84608543D01*
X141263582Y-84622403D01*
X141257288Y-84635710D01*
X141249720Y-84648336D01*
X141240952Y-84660159D01*
X141231066Y-84671066D01*
X141220159Y-84680952D01*
X141208336Y-84689720D01*
X141195710Y-84697288D01*
X141182403Y-84703582D01*
X141168543Y-84708541D01*
X141154264Y-84712118D01*
X141139703Y-84714278D01*
X141125000Y-84715000D01*
X139375000Y-84715000D01*
X139360297Y-84714278D01*
X139345736Y-84712118D01*
X139331457Y-84708541D01*
X139317597Y-84703582D01*
X139304290Y-84697288D01*
X139291664Y-84689720D01*
X139279841Y-84680952D01*
X139268934Y-84671066D01*
X139259048Y-84660159D01*
X139250280Y-84648336D01*
X139242712Y-84635710D01*
X139236418Y-84622403D01*
X139231459Y-84608543D01*
X139227882Y-84594264D01*
X139225722Y-84579703D01*
X139225000Y-84565000D01*
X139225000Y-84265000D01*
X139225722Y-84250297D01*
X139227882Y-84235736D01*
X139231459Y-84221457D01*
X139236418Y-84207597D01*
X139242712Y-84194290D01*
X139250280Y-84181664D01*
X139259048Y-84169841D01*
X139268934Y-84158934D01*
X139279841Y-84149048D01*
X139291664Y-84140280D01*
X139304290Y-84132712D01*
X139317597Y-84126418D01*
X139331457Y-84121459D01*
X139345736Y-84117882D01*
X139360297Y-84115722D01*
X139375000Y-84115000D01*
X141125000Y-84115000D01*
X141139703Y-84115722D01*
X141139703Y-84115722D01*
G37*
D13*
X140250000Y-84415000D03*
D11*
G36*
X131839703Y-84115722D02*
G01*
X131854264Y-84117882D01*
X131868543Y-84121459D01*
X131882403Y-84126418D01*
X131895710Y-84132712D01*
X131908336Y-84140280D01*
X131920159Y-84149048D01*
X131931066Y-84158934D01*
X131940952Y-84169841D01*
X131949720Y-84181664D01*
X131957288Y-84194290D01*
X131963582Y-84207597D01*
X131968541Y-84221457D01*
X131972118Y-84235736D01*
X131974278Y-84250297D01*
X131975000Y-84265000D01*
X131975000Y-84565000D01*
X131974278Y-84579703D01*
X131972118Y-84594264D01*
X131968541Y-84608543D01*
X131963582Y-84622403D01*
X131957288Y-84635710D01*
X131949720Y-84648336D01*
X131940952Y-84660159D01*
X131931066Y-84671066D01*
X131920159Y-84680952D01*
X131908336Y-84689720D01*
X131895710Y-84697288D01*
X131882403Y-84703582D01*
X131868543Y-84708541D01*
X131854264Y-84712118D01*
X131839703Y-84714278D01*
X131825000Y-84715000D01*
X130075000Y-84715000D01*
X130060297Y-84714278D01*
X130045736Y-84712118D01*
X130031457Y-84708541D01*
X130017597Y-84703582D01*
X130004290Y-84697288D01*
X129991664Y-84689720D01*
X129979841Y-84680952D01*
X129968934Y-84671066D01*
X129959048Y-84660159D01*
X129950280Y-84648336D01*
X129942712Y-84635710D01*
X129936418Y-84622403D01*
X129931459Y-84608543D01*
X129927882Y-84594264D01*
X129925722Y-84579703D01*
X129925000Y-84565000D01*
X129925000Y-84265000D01*
X129925722Y-84250297D01*
X129927882Y-84235736D01*
X129931459Y-84221457D01*
X129936418Y-84207597D01*
X129942712Y-84194290D01*
X129950280Y-84181664D01*
X129959048Y-84169841D01*
X129968934Y-84158934D01*
X129979841Y-84149048D01*
X129991664Y-84140280D01*
X130004290Y-84132712D01*
X130017597Y-84126418D01*
X130031457Y-84121459D01*
X130045736Y-84117882D01*
X130060297Y-84115722D01*
X130075000Y-84115000D01*
X131825000Y-84115000D01*
X131839703Y-84115722D01*
X131839703Y-84115722D01*
G37*
D13*
X130950000Y-84415000D03*
D11*
G36*
X131839703Y-82845722D02*
G01*
X131854264Y-82847882D01*
X131868543Y-82851459D01*
X131882403Y-82856418D01*
X131895710Y-82862712D01*
X131908336Y-82870280D01*
X131920159Y-82879048D01*
X131931066Y-82888934D01*
X131940952Y-82899841D01*
X131949720Y-82911664D01*
X131957288Y-82924290D01*
X131963582Y-82937597D01*
X131968541Y-82951457D01*
X131972118Y-82965736D01*
X131974278Y-82980297D01*
X131975000Y-82995000D01*
X131975000Y-83295000D01*
X131974278Y-83309703D01*
X131972118Y-83324264D01*
X131968541Y-83338543D01*
X131963582Y-83352403D01*
X131957288Y-83365710D01*
X131949720Y-83378336D01*
X131940952Y-83390159D01*
X131931066Y-83401066D01*
X131920159Y-83410952D01*
X131908336Y-83419720D01*
X131895710Y-83427288D01*
X131882403Y-83433582D01*
X131868543Y-83438541D01*
X131854264Y-83442118D01*
X131839703Y-83444278D01*
X131825000Y-83445000D01*
X130075000Y-83445000D01*
X130060297Y-83444278D01*
X130045736Y-83442118D01*
X130031457Y-83438541D01*
X130017597Y-83433582D01*
X130004290Y-83427288D01*
X129991664Y-83419720D01*
X129979841Y-83410952D01*
X129968934Y-83401066D01*
X129959048Y-83390159D01*
X129950280Y-83378336D01*
X129942712Y-83365710D01*
X129936418Y-83352403D01*
X129931459Y-83338543D01*
X129927882Y-83324264D01*
X129925722Y-83309703D01*
X129925000Y-83295000D01*
X129925000Y-82995000D01*
X129925722Y-82980297D01*
X129927882Y-82965736D01*
X129931459Y-82951457D01*
X129936418Y-82937597D01*
X129942712Y-82924290D01*
X129950280Y-82911664D01*
X129959048Y-82899841D01*
X129968934Y-82888934D01*
X129979841Y-82879048D01*
X129991664Y-82870280D01*
X130004290Y-82862712D01*
X130017597Y-82856418D01*
X130031457Y-82851459D01*
X130045736Y-82847882D01*
X130060297Y-82845722D01*
X130075000Y-82845000D01*
X131825000Y-82845000D01*
X131839703Y-82845722D01*
X131839703Y-82845722D01*
G37*
D13*
X130950000Y-83145000D03*
D11*
G36*
X131839703Y-81575722D02*
G01*
X131854264Y-81577882D01*
X131868543Y-81581459D01*
X131882403Y-81586418D01*
X131895710Y-81592712D01*
X131908336Y-81600280D01*
X131920159Y-81609048D01*
X131931066Y-81618934D01*
X131940952Y-81629841D01*
X131949720Y-81641664D01*
X131957288Y-81654290D01*
X131963582Y-81667597D01*
X131968541Y-81681457D01*
X131972118Y-81695736D01*
X131974278Y-81710297D01*
X131975000Y-81725000D01*
X131975000Y-82025000D01*
X131974278Y-82039703D01*
X131972118Y-82054264D01*
X131968541Y-82068543D01*
X131963582Y-82082403D01*
X131957288Y-82095710D01*
X131949720Y-82108336D01*
X131940952Y-82120159D01*
X131931066Y-82131066D01*
X131920159Y-82140952D01*
X131908336Y-82149720D01*
X131895710Y-82157288D01*
X131882403Y-82163582D01*
X131868543Y-82168541D01*
X131854264Y-82172118D01*
X131839703Y-82174278D01*
X131825000Y-82175000D01*
X130075000Y-82175000D01*
X130060297Y-82174278D01*
X130045736Y-82172118D01*
X130031457Y-82168541D01*
X130017597Y-82163582D01*
X130004290Y-82157288D01*
X129991664Y-82149720D01*
X129979841Y-82140952D01*
X129968934Y-82131066D01*
X129959048Y-82120159D01*
X129950280Y-82108336D01*
X129942712Y-82095710D01*
X129936418Y-82082403D01*
X129931459Y-82068543D01*
X129927882Y-82054264D01*
X129925722Y-82039703D01*
X129925000Y-82025000D01*
X129925000Y-81725000D01*
X129925722Y-81710297D01*
X129927882Y-81695736D01*
X129931459Y-81681457D01*
X129936418Y-81667597D01*
X129942712Y-81654290D01*
X129950280Y-81641664D01*
X129959048Y-81629841D01*
X129968934Y-81618934D01*
X129979841Y-81609048D01*
X129991664Y-81600280D01*
X130004290Y-81592712D01*
X130017597Y-81586418D01*
X130031457Y-81581459D01*
X130045736Y-81577882D01*
X130060297Y-81575722D01*
X130075000Y-81575000D01*
X131825000Y-81575000D01*
X131839703Y-81575722D01*
X131839703Y-81575722D01*
G37*
D13*
X130950000Y-81875000D03*
D11*
G36*
X131839703Y-80305722D02*
G01*
X131854264Y-80307882D01*
X131868543Y-80311459D01*
X131882403Y-80316418D01*
X131895710Y-80322712D01*
X131908336Y-80330280D01*
X131920159Y-80339048D01*
X131931066Y-80348934D01*
X131940952Y-80359841D01*
X131949720Y-80371664D01*
X131957288Y-80384290D01*
X131963582Y-80397597D01*
X131968541Y-80411457D01*
X131972118Y-80425736D01*
X131974278Y-80440297D01*
X131975000Y-80455000D01*
X131975000Y-80755000D01*
X131974278Y-80769703D01*
X131972118Y-80784264D01*
X131968541Y-80798543D01*
X131963582Y-80812403D01*
X131957288Y-80825710D01*
X131949720Y-80838336D01*
X131940952Y-80850159D01*
X131931066Y-80861066D01*
X131920159Y-80870952D01*
X131908336Y-80879720D01*
X131895710Y-80887288D01*
X131882403Y-80893582D01*
X131868543Y-80898541D01*
X131854264Y-80902118D01*
X131839703Y-80904278D01*
X131825000Y-80905000D01*
X130075000Y-80905000D01*
X130060297Y-80904278D01*
X130045736Y-80902118D01*
X130031457Y-80898541D01*
X130017597Y-80893582D01*
X130004290Y-80887288D01*
X129991664Y-80879720D01*
X129979841Y-80870952D01*
X129968934Y-80861066D01*
X129959048Y-80850159D01*
X129950280Y-80838336D01*
X129942712Y-80825710D01*
X129936418Y-80812403D01*
X129931459Y-80798543D01*
X129927882Y-80784264D01*
X129925722Y-80769703D01*
X129925000Y-80755000D01*
X129925000Y-80455000D01*
X129925722Y-80440297D01*
X129927882Y-80425736D01*
X129931459Y-80411457D01*
X129936418Y-80397597D01*
X129942712Y-80384290D01*
X129950280Y-80371664D01*
X129959048Y-80359841D01*
X129968934Y-80348934D01*
X129979841Y-80339048D01*
X129991664Y-80330280D01*
X130004290Y-80322712D01*
X130017597Y-80316418D01*
X130031457Y-80311459D01*
X130045736Y-80307882D01*
X130060297Y-80305722D01*
X130075000Y-80305000D01*
X131825000Y-80305000D01*
X131839703Y-80305722D01*
X131839703Y-80305722D01*
G37*
D13*
X130950000Y-80605000D03*
D11*
G36*
X131839703Y-79035722D02*
G01*
X131854264Y-79037882D01*
X131868543Y-79041459D01*
X131882403Y-79046418D01*
X131895710Y-79052712D01*
X131908336Y-79060280D01*
X131920159Y-79069048D01*
X131931066Y-79078934D01*
X131940952Y-79089841D01*
X131949720Y-79101664D01*
X131957288Y-79114290D01*
X131963582Y-79127597D01*
X131968541Y-79141457D01*
X131972118Y-79155736D01*
X131974278Y-79170297D01*
X131975000Y-79185000D01*
X131975000Y-79485000D01*
X131974278Y-79499703D01*
X131972118Y-79514264D01*
X131968541Y-79528543D01*
X131963582Y-79542403D01*
X131957288Y-79555710D01*
X131949720Y-79568336D01*
X131940952Y-79580159D01*
X131931066Y-79591066D01*
X131920159Y-79600952D01*
X131908336Y-79609720D01*
X131895710Y-79617288D01*
X131882403Y-79623582D01*
X131868543Y-79628541D01*
X131854264Y-79632118D01*
X131839703Y-79634278D01*
X131825000Y-79635000D01*
X130075000Y-79635000D01*
X130060297Y-79634278D01*
X130045736Y-79632118D01*
X130031457Y-79628541D01*
X130017597Y-79623582D01*
X130004290Y-79617288D01*
X129991664Y-79609720D01*
X129979841Y-79600952D01*
X129968934Y-79591066D01*
X129959048Y-79580159D01*
X129950280Y-79568336D01*
X129942712Y-79555710D01*
X129936418Y-79542403D01*
X129931459Y-79528543D01*
X129927882Y-79514264D01*
X129925722Y-79499703D01*
X129925000Y-79485000D01*
X129925000Y-79185000D01*
X129925722Y-79170297D01*
X129927882Y-79155736D01*
X129931459Y-79141457D01*
X129936418Y-79127597D01*
X129942712Y-79114290D01*
X129950280Y-79101664D01*
X129959048Y-79089841D01*
X129968934Y-79078934D01*
X129979841Y-79069048D01*
X129991664Y-79060280D01*
X130004290Y-79052712D01*
X130017597Y-79046418D01*
X130031457Y-79041459D01*
X130045736Y-79037882D01*
X130060297Y-79035722D01*
X130075000Y-79035000D01*
X131825000Y-79035000D01*
X131839703Y-79035722D01*
X131839703Y-79035722D01*
G37*
D13*
X130950000Y-79335000D03*
D11*
G36*
X131839703Y-77765722D02*
G01*
X131854264Y-77767882D01*
X131868543Y-77771459D01*
X131882403Y-77776418D01*
X131895710Y-77782712D01*
X131908336Y-77790280D01*
X131920159Y-77799048D01*
X131931066Y-77808934D01*
X131940952Y-77819841D01*
X131949720Y-77831664D01*
X131957288Y-77844290D01*
X131963582Y-77857597D01*
X131968541Y-77871457D01*
X131972118Y-77885736D01*
X131974278Y-77900297D01*
X131975000Y-77915000D01*
X131975000Y-78215000D01*
X131974278Y-78229703D01*
X131972118Y-78244264D01*
X131968541Y-78258543D01*
X131963582Y-78272403D01*
X131957288Y-78285710D01*
X131949720Y-78298336D01*
X131940952Y-78310159D01*
X131931066Y-78321066D01*
X131920159Y-78330952D01*
X131908336Y-78339720D01*
X131895710Y-78347288D01*
X131882403Y-78353582D01*
X131868543Y-78358541D01*
X131854264Y-78362118D01*
X131839703Y-78364278D01*
X131825000Y-78365000D01*
X130075000Y-78365000D01*
X130060297Y-78364278D01*
X130045736Y-78362118D01*
X130031457Y-78358541D01*
X130017597Y-78353582D01*
X130004290Y-78347288D01*
X129991664Y-78339720D01*
X129979841Y-78330952D01*
X129968934Y-78321066D01*
X129959048Y-78310159D01*
X129950280Y-78298336D01*
X129942712Y-78285710D01*
X129936418Y-78272403D01*
X129931459Y-78258543D01*
X129927882Y-78244264D01*
X129925722Y-78229703D01*
X129925000Y-78215000D01*
X129925000Y-77915000D01*
X129925722Y-77900297D01*
X129927882Y-77885736D01*
X129931459Y-77871457D01*
X129936418Y-77857597D01*
X129942712Y-77844290D01*
X129950280Y-77831664D01*
X129959048Y-77819841D01*
X129968934Y-77808934D01*
X129979841Y-77799048D01*
X129991664Y-77790280D01*
X130004290Y-77782712D01*
X130017597Y-77776418D01*
X130031457Y-77771459D01*
X130045736Y-77767882D01*
X130060297Y-77765722D01*
X130075000Y-77765000D01*
X131825000Y-77765000D01*
X131839703Y-77765722D01*
X131839703Y-77765722D01*
G37*
D13*
X130950000Y-78065000D03*
D11*
G36*
X131839703Y-76495722D02*
G01*
X131854264Y-76497882D01*
X131868543Y-76501459D01*
X131882403Y-76506418D01*
X131895710Y-76512712D01*
X131908336Y-76520280D01*
X131920159Y-76529048D01*
X131931066Y-76538934D01*
X131940952Y-76549841D01*
X131949720Y-76561664D01*
X131957288Y-76574290D01*
X131963582Y-76587597D01*
X131968541Y-76601457D01*
X131972118Y-76615736D01*
X131974278Y-76630297D01*
X131975000Y-76645000D01*
X131975000Y-76945000D01*
X131974278Y-76959703D01*
X131972118Y-76974264D01*
X131968541Y-76988543D01*
X131963582Y-77002403D01*
X131957288Y-77015710D01*
X131949720Y-77028336D01*
X131940952Y-77040159D01*
X131931066Y-77051066D01*
X131920159Y-77060952D01*
X131908336Y-77069720D01*
X131895710Y-77077288D01*
X131882403Y-77083582D01*
X131868543Y-77088541D01*
X131854264Y-77092118D01*
X131839703Y-77094278D01*
X131825000Y-77095000D01*
X130075000Y-77095000D01*
X130060297Y-77094278D01*
X130045736Y-77092118D01*
X130031457Y-77088541D01*
X130017597Y-77083582D01*
X130004290Y-77077288D01*
X129991664Y-77069720D01*
X129979841Y-77060952D01*
X129968934Y-77051066D01*
X129959048Y-77040159D01*
X129950280Y-77028336D01*
X129942712Y-77015710D01*
X129936418Y-77002403D01*
X129931459Y-76988543D01*
X129927882Y-76974264D01*
X129925722Y-76959703D01*
X129925000Y-76945000D01*
X129925000Y-76645000D01*
X129925722Y-76630297D01*
X129927882Y-76615736D01*
X129931459Y-76601457D01*
X129936418Y-76587597D01*
X129942712Y-76574290D01*
X129950280Y-76561664D01*
X129959048Y-76549841D01*
X129968934Y-76538934D01*
X129979841Y-76529048D01*
X129991664Y-76520280D01*
X130004290Y-76512712D01*
X130017597Y-76506418D01*
X130031457Y-76501459D01*
X130045736Y-76497882D01*
X130060297Y-76495722D01*
X130075000Y-76495000D01*
X131825000Y-76495000D01*
X131839703Y-76495722D01*
X131839703Y-76495722D01*
G37*
D13*
X130950000Y-76795000D03*
D11*
G36*
X131839703Y-75225722D02*
G01*
X131854264Y-75227882D01*
X131868543Y-75231459D01*
X131882403Y-75236418D01*
X131895710Y-75242712D01*
X131908336Y-75250280D01*
X131920159Y-75259048D01*
X131931066Y-75268934D01*
X131940952Y-75279841D01*
X131949720Y-75291664D01*
X131957288Y-75304290D01*
X131963582Y-75317597D01*
X131968541Y-75331457D01*
X131972118Y-75345736D01*
X131974278Y-75360297D01*
X131975000Y-75375000D01*
X131975000Y-75675000D01*
X131974278Y-75689703D01*
X131972118Y-75704264D01*
X131968541Y-75718543D01*
X131963582Y-75732403D01*
X131957288Y-75745710D01*
X131949720Y-75758336D01*
X131940952Y-75770159D01*
X131931066Y-75781066D01*
X131920159Y-75790952D01*
X131908336Y-75799720D01*
X131895710Y-75807288D01*
X131882403Y-75813582D01*
X131868543Y-75818541D01*
X131854264Y-75822118D01*
X131839703Y-75824278D01*
X131825000Y-75825000D01*
X130075000Y-75825000D01*
X130060297Y-75824278D01*
X130045736Y-75822118D01*
X130031457Y-75818541D01*
X130017597Y-75813582D01*
X130004290Y-75807288D01*
X129991664Y-75799720D01*
X129979841Y-75790952D01*
X129968934Y-75781066D01*
X129959048Y-75770159D01*
X129950280Y-75758336D01*
X129942712Y-75745710D01*
X129936418Y-75732403D01*
X129931459Y-75718543D01*
X129927882Y-75704264D01*
X129925722Y-75689703D01*
X129925000Y-75675000D01*
X129925000Y-75375000D01*
X129925722Y-75360297D01*
X129927882Y-75345736D01*
X129931459Y-75331457D01*
X129936418Y-75317597D01*
X129942712Y-75304290D01*
X129950280Y-75291664D01*
X129959048Y-75279841D01*
X129968934Y-75268934D01*
X129979841Y-75259048D01*
X129991664Y-75250280D01*
X130004290Y-75242712D01*
X130017597Y-75236418D01*
X130031457Y-75231459D01*
X130045736Y-75227882D01*
X130060297Y-75225722D01*
X130075000Y-75225000D01*
X131825000Y-75225000D01*
X131839703Y-75225722D01*
X131839703Y-75225722D01*
G37*
D13*
X130950000Y-75525000D03*
D11*
G36*
X131839703Y-73955722D02*
G01*
X131854264Y-73957882D01*
X131868543Y-73961459D01*
X131882403Y-73966418D01*
X131895710Y-73972712D01*
X131908336Y-73980280D01*
X131920159Y-73989048D01*
X131931066Y-73998934D01*
X131940952Y-74009841D01*
X131949720Y-74021664D01*
X131957288Y-74034290D01*
X131963582Y-74047597D01*
X131968541Y-74061457D01*
X131972118Y-74075736D01*
X131974278Y-74090297D01*
X131975000Y-74105000D01*
X131975000Y-74405000D01*
X131974278Y-74419703D01*
X131972118Y-74434264D01*
X131968541Y-74448543D01*
X131963582Y-74462403D01*
X131957288Y-74475710D01*
X131949720Y-74488336D01*
X131940952Y-74500159D01*
X131931066Y-74511066D01*
X131920159Y-74520952D01*
X131908336Y-74529720D01*
X131895710Y-74537288D01*
X131882403Y-74543582D01*
X131868543Y-74548541D01*
X131854264Y-74552118D01*
X131839703Y-74554278D01*
X131825000Y-74555000D01*
X130075000Y-74555000D01*
X130060297Y-74554278D01*
X130045736Y-74552118D01*
X130031457Y-74548541D01*
X130017597Y-74543582D01*
X130004290Y-74537288D01*
X129991664Y-74529720D01*
X129979841Y-74520952D01*
X129968934Y-74511066D01*
X129959048Y-74500159D01*
X129950280Y-74488336D01*
X129942712Y-74475710D01*
X129936418Y-74462403D01*
X129931459Y-74448543D01*
X129927882Y-74434264D01*
X129925722Y-74419703D01*
X129925000Y-74405000D01*
X129925000Y-74105000D01*
X129925722Y-74090297D01*
X129927882Y-74075736D01*
X129931459Y-74061457D01*
X129936418Y-74047597D01*
X129942712Y-74034290D01*
X129950280Y-74021664D01*
X129959048Y-74009841D01*
X129968934Y-73998934D01*
X129979841Y-73989048D01*
X129991664Y-73980280D01*
X130004290Y-73972712D01*
X130017597Y-73966418D01*
X130031457Y-73961459D01*
X130045736Y-73957882D01*
X130060297Y-73955722D01*
X130075000Y-73955000D01*
X131825000Y-73955000D01*
X131839703Y-73955722D01*
X131839703Y-73955722D01*
G37*
D13*
X130950000Y-74255000D03*
D11*
G36*
X131839703Y-72685722D02*
G01*
X131854264Y-72687882D01*
X131868543Y-72691459D01*
X131882403Y-72696418D01*
X131895710Y-72702712D01*
X131908336Y-72710280D01*
X131920159Y-72719048D01*
X131931066Y-72728934D01*
X131940952Y-72739841D01*
X131949720Y-72751664D01*
X131957288Y-72764290D01*
X131963582Y-72777597D01*
X131968541Y-72791457D01*
X131972118Y-72805736D01*
X131974278Y-72820297D01*
X131975000Y-72835000D01*
X131975000Y-73135000D01*
X131974278Y-73149703D01*
X131972118Y-73164264D01*
X131968541Y-73178543D01*
X131963582Y-73192403D01*
X131957288Y-73205710D01*
X131949720Y-73218336D01*
X131940952Y-73230159D01*
X131931066Y-73241066D01*
X131920159Y-73250952D01*
X131908336Y-73259720D01*
X131895710Y-73267288D01*
X131882403Y-73273582D01*
X131868543Y-73278541D01*
X131854264Y-73282118D01*
X131839703Y-73284278D01*
X131825000Y-73285000D01*
X130075000Y-73285000D01*
X130060297Y-73284278D01*
X130045736Y-73282118D01*
X130031457Y-73278541D01*
X130017597Y-73273582D01*
X130004290Y-73267288D01*
X129991664Y-73259720D01*
X129979841Y-73250952D01*
X129968934Y-73241066D01*
X129959048Y-73230159D01*
X129950280Y-73218336D01*
X129942712Y-73205710D01*
X129936418Y-73192403D01*
X129931459Y-73178543D01*
X129927882Y-73164264D01*
X129925722Y-73149703D01*
X129925000Y-73135000D01*
X129925000Y-72835000D01*
X129925722Y-72820297D01*
X129927882Y-72805736D01*
X129931459Y-72791457D01*
X129936418Y-72777597D01*
X129942712Y-72764290D01*
X129950280Y-72751664D01*
X129959048Y-72739841D01*
X129968934Y-72728934D01*
X129979841Y-72719048D01*
X129991664Y-72710280D01*
X130004290Y-72702712D01*
X130017597Y-72696418D01*
X130031457Y-72691459D01*
X130045736Y-72687882D01*
X130060297Y-72685722D01*
X130075000Y-72685000D01*
X131825000Y-72685000D01*
X131839703Y-72685722D01*
X131839703Y-72685722D01*
G37*
D13*
X130950000Y-72985000D03*
D11*
G36*
X141139703Y-59185722D02*
G01*
X141154264Y-59187882D01*
X141168543Y-59191459D01*
X141182403Y-59196418D01*
X141195710Y-59202712D01*
X141208336Y-59210280D01*
X141220159Y-59219048D01*
X141231066Y-59228934D01*
X141240952Y-59239841D01*
X141249720Y-59251664D01*
X141257288Y-59264290D01*
X141263582Y-59277597D01*
X141268541Y-59291457D01*
X141272118Y-59305736D01*
X141274278Y-59320297D01*
X141275000Y-59335000D01*
X141275000Y-59635000D01*
X141274278Y-59649703D01*
X141272118Y-59664264D01*
X141268541Y-59678543D01*
X141263582Y-59692403D01*
X141257288Y-59705710D01*
X141249720Y-59718336D01*
X141240952Y-59730159D01*
X141231066Y-59741066D01*
X141220159Y-59750952D01*
X141208336Y-59759720D01*
X141195710Y-59767288D01*
X141182403Y-59773582D01*
X141168543Y-59778541D01*
X141154264Y-59782118D01*
X141139703Y-59784278D01*
X141125000Y-59785000D01*
X139375000Y-59785000D01*
X139360297Y-59784278D01*
X139345736Y-59782118D01*
X139331457Y-59778541D01*
X139317597Y-59773582D01*
X139304290Y-59767288D01*
X139291664Y-59759720D01*
X139279841Y-59750952D01*
X139268934Y-59741066D01*
X139259048Y-59730159D01*
X139250280Y-59718336D01*
X139242712Y-59705710D01*
X139236418Y-59692403D01*
X139231459Y-59678543D01*
X139227882Y-59664264D01*
X139225722Y-59649703D01*
X139225000Y-59635000D01*
X139225000Y-59335000D01*
X139225722Y-59320297D01*
X139227882Y-59305736D01*
X139231459Y-59291457D01*
X139236418Y-59277597D01*
X139242712Y-59264290D01*
X139250280Y-59251664D01*
X139259048Y-59239841D01*
X139268934Y-59228934D01*
X139279841Y-59219048D01*
X139291664Y-59210280D01*
X139304290Y-59202712D01*
X139317597Y-59196418D01*
X139331457Y-59191459D01*
X139345736Y-59187882D01*
X139360297Y-59185722D01*
X139375000Y-59185000D01*
X141125000Y-59185000D01*
X141139703Y-59185722D01*
X141139703Y-59185722D01*
G37*
D13*
X140250000Y-59485000D03*
D11*
G36*
X141139703Y-60455722D02*
G01*
X141154264Y-60457882D01*
X141168543Y-60461459D01*
X141182403Y-60466418D01*
X141195710Y-60472712D01*
X141208336Y-60480280D01*
X141220159Y-60489048D01*
X141231066Y-60498934D01*
X141240952Y-60509841D01*
X141249720Y-60521664D01*
X141257288Y-60534290D01*
X141263582Y-60547597D01*
X141268541Y-60561457D01*
X141272118Y-60575736D01*
X141274278Y-60590297D01*
X141275000Y-60605000D01*
X141275000Y-60905000D01*
X141274278Y-60919703D01*
X141272118Y-60934264D01*
X141268541Y-60948543D01*
X141263582Y-60962403D01*
X141257288Y-60975710D01*
X141249720Y-60988336D01*
X141240952Y-61000159D01*
X141231066Y-61011066D01*
X141220159Y-61020952D01*
X141208336Y-61029720D01*
X141195710Y-61037288D01*
X141182403Y-61043582D01*
X141168543Y-61048541D01*
X141154264Y-61052118D01*
X141139703Y-61054278D01*
X141125000Y-61055000D01*
X139375000Y-61055000D01*
X139360297Y-61054278D01*
X139345736Y-61052118D01*
X139331457Y-61048541D01*
X139317597Y-61043582D01*
X139304290Y-61037288D01*
X139291664Y-61029720D01*
X139279841Y-61020952D01*
X139268934Y-61011066D01*
X139259048Y-61000159D01*
X139250280Y-60988336D01*
X139242712Y-60975710D01*
X139236418Y-60962403D01*
X139231459Y-60948543D01*
X139227882Y-60934264D01*
X139225722Y-60919703D01*
X139225000Y-60905000D01*
X139225000Y-60605000D01*
X139225722Y-60590297D01*
X139227882Y-60575736D01*
X139231459Y-60561457D01*
X139236418Y-60547597D01*
X139242712Y-60534290D01*
X139250280Y-60521664D01*
X139259048Y-60509841D01*
X139268934Y-60498934D01*
X139279841Y-60489048D01*
X139291664Y-60480280D01*
X139304290Y-60472712D01*
X139317597Y-60466418D01*
X139331457Y-60461459D01*
X139345736Y-60457882D01*
X139360297Y-60455722D01*
X139375000Y-60455000D01*
X141125000Y-60455000D01*
X141139703Y-60455722D01*
X141139703Y-60455722D01*
G37*
D13*
X140250000Y-60755000D03*
D11*
G36*
X141139703Y-61725722D02*
G01*
X141154264Y-61727882D01*
X141168543Y-61731459D01*
X141182403Y-61736418D01*
X141195710Y-61742712D01*
X141208336Y-61750280D01*
X141220159Y-61759048D01*
X141231066Y-61768934D01*
X141240952Y-61779841D01*
X141249720Y-61791664D01*
X141257288Y-61804290D01*
X141263582Y-61817597D01*
X141268541Y-61831457D01*
X141272118Y-61845736D01*
X141274278Y-61860297D01*
X141275000Y-61875000D01*
X141275000Y-62175000D01*
X141274278Y-62189703D01*
X141272118Y-62204264D01*
X141268541Y-62218543D01*
X141263582Y-62232403D01*
X141257288Y-62245710D01*
X141249720Y-62258336D01*
X141240952Y-62270159D01*
X141231066Y-62281066D01*
X141220159Y-62290952D01*
X141208336Y-62299720D01*
X141195710Y-62307288D01*
X141182403Y-62313582D01*
X141168543Y-62318541D01*
X141154264Y-62322118D01*
X141139703Y-62324278D01*
X141125000Y-62325000D01*
X139375000Y-62325000D01*
X139360297Y-62324278D01*
X139345736Y-62322118D01*
X139331457Y-62318541D01*
X139317597Y-62313582D01*
X139304290Y-62307288D01*
X139291664Y-62299720D01*
X139279841Y-62290952D01*
X139268934Y-62281066D01*
X139259048Y-62270159D01*
X139250280Y-62258336D01*
X139242712Y-62245710D01*
X139236418Y-62232403D01*
X139231459Y-62218543D01*
X139227882Y-62204264D01*
X139225722Y-62189703D01*
X139225000Y-62175000D01*
X139225000Y-61875000D01*
X139225722Y-61860297D01*
X139227882Y-61845736D01*
X139231459Y-61831457D01*
X139236418Y-61817597D01*
X139242712Y-61804290D01*
X139250280Y-61791664D01*
X139259048Y-61779841D01*
X139268934Y-61768934D01*
X139279841Y-61759048D01*
X139291664Y-61750280D01*
X139304290Y-61742712D01*
X139317597Y-61736418D01*
X139331457Y-61731459D01*
X139345736Y-61727882D01*
X139360297Y-61725722D01*
X139375000Y-61725000D01*
X141125000Y-61725000D01*
X141139703Y-61725722D01*
X141139703Y-61725722D01*
G37*
D13*
X140250000Y-62025000D03*
D11*
G36*
X141139703Y-62995722D02*
G01*
X141154264Y-62997882D01*
X141168543Y-63001459D01*
X141182403Y-63006418D01*
X141195710Y-63012712D01*
X141208336Y-63020280D01*
X141220159Y-63029048D01*
X141231066Y-63038934D01*
X141240952Y-63049841D01*
X141249720Y-63061664D01*
X141257288Y-63074290D01*
X141263582Y-63087597D01*
X141268541Y-63101457D01*
X141272118Y-63115736D01*
X141274278Y-63130297D01*
X141275000Y-63145000D01*
X141275000Y-63445000D01*
X141274278Y-63459703D01*
X141272118Y-63474264D01*
X141268541Y-63488543D01*
X141263582Y-63502403D01*
X141257288Y-63515710D01*
X141249720Y-63528336D01*
X141240952Y-63540159D01*
X141231066Y-63551066D01*
X141220159Y-63560952D01*
X141208336Y-63569720D01*
X141195710Y-63577288D01*
X141182403Y-63583582D01*
X141168543Y-63588541D01*
X141154264Y-63592118D01*
X141139703Y-63594278D01*
X141125000Y-63595000D01*
X139375000Y-63595000D01*
X139360297Y-63594278D01*
X139345736Y-63592118D01*
X139331457Y-63588541D01*
X139317597Y-63583582D01*
X139304290Y-63577288D01*
X139291664Y-63569720D01*
X139279841Y-63560952D01*
X139268934Y-63551066D01*
X139259048Y-63540159D01*
X139250280Y-63528336D01*
X139242712Y-63515710D01*
X139236418Y-63502403D01*
X139231459Y-63488543D01*
X139227882Y-63474264D01*
X139225722Y-63459703D01*
X139225000Y-63445000D01*
X139225000Y-63145000D01*
X139225722Y-63130297D01*
X139227882Y-63115736D01*
X139231459Y-63101457D01*
X139236418Y-63087597D01*
X139242712Y-63074290D01*
X139250280Y-63061664D01*
X139259048Y-63049841D01*
X139268934Y-63038934D01*
X139279841Y-63029048D01*
X139291664Y-63020280D01*
X139304290Y-63012712D01*
X139317597Y-63006418D01*
X139331457Y-63001459D01*
X139345736Y-62997882D01*
X139360297Y-62995722D01*
X139375000Y-62995000D01*
X141125000Y-62995000D01*
X141139703Y-62995722D01*
X141139703Y-62995722D01*
G37*
D13*
X140250000Y-63295000D03*
D11*
G36*
X141139703Y-64265722D02*
G01*
X141154264Y-64267882D01*
X141168543Y-64271459D01*
X141182403Y-64276418D01*
X141195710Y-64282712D01*
X141208336Y-64290280D01*
X141220159Y-64299048D01*
X141231066Y-64308934D01*
X141240952Y-64319841D01*
X141249720Y-64331664D01*
X141257288Y-64344290D01*
X141263582Y-64357597D01*
X141268541Y-64371457D01*
X141272118Y-64385736D01*
X141274278Y-64400297D01*
X141275000Y-64415000D01*
X141275000Y-64715000D01*
X141274278Y-64729703D01*
X141272118Y-64744264D01*
X141268541Y-64758543D01*
X141263582Y-64772403D01*
X141257288Y-64785710D01*
X141249720Y-64798336D01*
X141240952Y-64810159D01*
X141231066Y-64821066D01*
X141220159Y-64830952D01*
X141208336Y-64839720D01*
X141195710Y-64847288D01*
X141182403Y-64853582D01*
X141168543Y-64858541D01*
X141154264Y-64862118D01*
X141139703Y-64864278D01*
X141125000Y-64865000D01*
X139375000Y-64865000D01*
X139360297Y-64864278D01*
X139345736Y-64862118D01*
X139331457Y-64858541D01*
X139317597Y-64853582D01*
X139304290Y-64847288D01*
X139291664Y-64839720D01*
X139279841Y-64830952D01*
X139268934Y-64821066D01*
X139259048Y-64810159D01*
X139250280Y-64798336D01*
X139242712Y-64785710D01*
X139236418Y-64772403D01*
X139231459Y-64758543D01*
X139227882Y-64744264D01*
X139225722Y-64729703D01*
X139225000Y-64715000D01*
X139225000Y-64415000D01*
X139225722Y-64400297D01*
X139227882Y-64385736D01*
X139231459Y-64371457D01*
X139236418Y-64357597D01*
X139242712Y-64344290D01*
X139250280Y-64331664D01*
X139259048Y-64319841D01*
X139268934Y-64308934D01*
X139279841Y-64299048D01*
X139291664Y-64290280D01*
X139304290Y-64282712D01*
X139317597Y-64276418D01*
X139331457Y-64271459D01*
X139345736Y-64267882D01*
X139360297Y-64265722D01*
X139375000Y-64265000D01*
X141125000Y-64265000D01*
X141139703Y-64265722D01*
X141139703Y-64265722D01*
G37*
D13*
X140250000Y-64565000D03*
D11*
G36*
X141139703Y-65535722D02*
G01*
X141154264Y-65537882D01*
X141168543Y-65541459D01*
X141182403Y-65546418D01*
X141195710Y-65552712D01*
X141208336Y-65560280D01*
X141220159Y-65569048D01*
X141231066Y-65578934D01*
X141240952Y-65589841D01*
X141249720Y-65601664D01*
X141257288Y-65614290D01*
X141263582Y-65627597D01*
X141268541Y-65641457D01*
X141272118Y-65655736D01*
X141274278Y-65670297D01*
X141275000Y-65685000D01*
X141275000Y-65985000D01*
X141274278Y-65999703D01*
X141272118Y-66014264D01*
X141268541Y-66028543D01*
X141263582Y-66042403D01*
X141257288Y-66055710D01*
X141249720Y-66068336D01*
X141240952Y-66080159D01*
X141231066Y-66091066D01*
X141220159Y-66100952D01*
X141208336Y-66109720D01*
X141195710Y-66117288D01*
X141182403Y-66123582D01*
X141168543Y-66128541D01*
X141154264Y-66132118D01*
X141139703Y-66134278D01*
X141125000Y-66135000D01*
X139375000Y-66135000D01*
X139360297Y-66134278D01*
X139345736Y-66132118D01*
X139331457Y-66128541D01*
X139317597Y-66123582D01*
X139304290Y-66117288D01*
X139291664Y-66109720D01*
X139279841Y-66100952D01*
X139268934Y-66091066D01*
X139259048Y-66080159D01*
X139250280Y-66068336D01*
X139242712Y-66055710D01*
X139236418Y-66042403D01*
X139231459Y-66028543D01*
X139227882Y-66014264D01*
X139225722Y-65999703D01*
X139225000Y-65985000D01*
X139225000Y-65685000D01*
X139225722Y-65670297D01*
X139227882Y-65655736D01*
X139231459Y-65641457D01*
X139236418Y-65627597D01*
X139242712Y-65614290D01*
X139250280Y-65601664D01*
X139259048Y-65589841D01*
X139268934Y-65578934D01*
X139279841Y-65569048D01*
X139291664Y-65560280D01*
X139304290Y-65552712D01*
X139317597Y-65546418D01*
X139331457Y-65541459D01*
X139345736Y-65537882D01*
X139360297Y-65535722D01*
X139375000Y-65535000D01*
X141125000Y-65535000D01*
X141139703Y-65535722D01*
X141139703Y-65535722D01*
G37*
D13*
X140250000Y-65835000D03*
D11*
G36*
X141139703Y-66805722D02*
G01*
X141154264Y-66807882D01*
X141168543Y-66811459D01*
X141182403Y-66816418D01*
X141195710Y-66822712D01*
X141208336Y-66830280D01*
X141220159Y-66839048D01*
X141231066Y-66848934D01*
X141240952Y-66859841D01*
X141249720Y-66871664D01*
X141257288Y-66884290D01*
X141263582Y-66897597D01*
X141268541Y-66911457D01*
X141272118Y-66925736D01*
X141274278Y-66940297D01*
X141275000Y-66955000D01*
X141275000Y-67255000D01*
X141274278Y-67269703D01*
X141272118Y-67284264D01*
X141268541Y-67298543D01*
X141263582Y-67312403D01*
X141257288Y-67325710D01*
X141249720Y-67338336D01*
X141240952Y-67350159D01*
X141231066Y-67361066D01*
X141220159Y-67370952D01*
X141208336Y-67379720D01*
X141195710Y-67387288D01*
X141182403Y-67393582D01*
X141168543Y-67398541D01*
X141154264Y-67402118D01*
X141139703Y-67404278D01*
X141125000Y-67405000D01*
X139375000Y-67405000D01*
X139360297Y-67404278D01*
X139345736Y-67402118D01*
X139331457Y-67398541D01*
X139317597Y-67393582D01*
X139304290Y-67387288D01*
X139291664Y-67379720D01*
X139279841Y-67370952D01*
X139268934Y-67361066D01*
X139259048Y-67350159D01*
X139250280Y-67338336D01*
X139242712Y-67325710D01*
X139236418Y-67312403D01*
X139231459Y-67298543D01*
X139227882Y-67284264D01*
X139225722Y-67269703D01*
X139225000Y-67255000D01*
X139225000Y-66955000D01*
X139225722Y-66940297D01*
X139227882Y-66925736D01*
X139231459Y-66911457D01*
X139236418Y-66897597D01*
X139242712Y-66884290D01*
X139250280Y-66871664D01*
X139259048Y-66859841D01*
X139268934Y-66848934D01*
X139279841Y-66839048D01*
X139291664Y-66830280D01*
X139304290Y-66822712D01*
X139317597Y-66816418D01*
X139331457Y-66811459D01*
X139345736Y-66807882D01*
X139360297Y-66805722D01*
X139375000Y-66805000D01*
X141125000Y-66805000D01*
X141139703Y-66805722D01*
X141139703Y-66805722D01*
G37*
D13*
X140250000Y-67105000D03*
D11*
G36*
X141139703Y-68075722D02*
G01*
X141154264Y-68077882D01*
X141168543Y-68081459D01*
X141182403Y-68086418D01*
X141195710Y-68092712D01*
X141208336Y-68100280D01*
X141220159Y-68109048D01*
X141231066Y-68118934D01*
X141240952Y-68129841D01*
X141249720Y-68141664D01*
X141257288Y-68154290D01*
X141263582Y-68167597D01*
X141268541Y-68181457D01*
X141272118Y-68195736D01*
X141274278Y-68210297D01*
X141275000Y-68225000D01*
X141275000Y-68525000D01*
X141274278Y-68539703D01*
X141272118Y-68554264D01*
X141268541Y-68568543D01*
X141263582Y-68582403D01*
X141257288Y-68595710D01*
X141249720Y-68608336D01*
X141240952Y-68620159D01*
X141231066Y-68631066D01*
X141220159Y-68640952D01*
X141208336Y-68649720D01*
X141195710Y-68657288D01*
X141182403Y-68663582D01*
X141168543Y-68668541D01*
X141154264Y-68672118D01*
X141139703Y-68674278D01*
X141125000Y-68675000D01*
X139375000Y-68675000D01*
X139360297Y-68674278D01*
X139345736Y-68672118D01*
X139331457Y-68668541D01*
X139317597Y-68663582D01*
X139304290Y-68657288D01*
X139291664Y-68649720D01*
X139279841Y-68640952D01*
X139268934Y-68631066D01*
X139259048Y-68620159D01*
X139250280Y-68608336D01*
X139242712Y-68595710D01*
X139236418Y-68582403D01*
X139231459Y-68568543D01*
X139227882Y-68554264D01*
X139225722Y-68539703D01*
X139225000Y-68525000D01*
X139225000Y-68225000D01*
X139225722Y-68210297D01*
X139227882Y-68195736D01*
X139231459Y-68181457D01*
X139236418Y-68167597D01*
X139242712Y-68154290D01*
X139250280Y-68141664D01*
X139259048Y-68129841D01*
X139268934Y-68118934D01*
X139279841Y-68109048D01*
X139291664Y-68100280D01*
X139304290Y-68092712D01*
X139317597Y-68086418D01*
X139331457Y-68081459D01*
X139345736Y-68077882D01*
X139360297Y-68075722D01*
X139375000Y-68075000D01*
X141125000Y-68075000D01*
X141139703Y-68075722D01*
X141139703Y-68075722D01*
G37*
D13*
X140250000Y-68375000D03*
D11*
G36*
X141139703Y-69345722D02*
G01*
X141154264Y-69347882D01*
X141168543Y-69351459D01*
X141182403Y-69356418D01*
X141195710Y-69362712D01*
X141208336Y-69370280D01*
X141220159Y-69379048D01*
X141231066Y-69388934D01*
X141240952Y-69399841D01*
X141249720Y-69411664D01*
X141257288Y-69424290D01*
X141263582Y-69437597D01*
X141268541Y-69451457D01*
X141272118Y-69465736D01*
X141274278Y-69480297D01*
X141275000Y-69495000D01*
X141275000Y-69795000D01*
X141274278Y-69809703D01*
X141272118Y-69824264D01*
X141268541Y-69838543D01*
X141263582Y-69852403D01*
X141257288Y-69865710D01*
X141249720Y-69878336D01*
X141240952Y-69890159D01*
X141231066Y-69901066D01*
X141220159Y-69910952D01*
X141208336Y-69919720D01*
X141195710Y-69927288D01*
X141182403Y-69933582D01*
X141168543Y-69938541D01*
X141154264Y-69942118D01*
X141139703Y-69944278D01*
X141125000Y-69945000D01*
X139375000Y-69945000D01*
X139360297Y-69944278D01*
X139345736Y-69942118D01*
X139331457Y-69938541D01*
X139317597Y-69933582D01*
X139304290Y-69927288D01*
X139291664Y-69919720D01*
X139279841Y-69910952D01*
X139268934Y-69901066D01*
X139259048Y-69890159D01*
X139250280Y-69878336D01*
X139242712Y-69865710D01*
X139236418Y-69852403D01*
X139231459Y-69838543D01*
X139227882Y-69824264D01*
X139225722Y-69809703D01*
X139225000Y-69795000D01*
X139225000Y-69495000D01*
X139225722Y-69480297D01*
X139227882Y-69465736D01*
X139231459Y-69451457D01*
X139236418Y-69437597D01*
X139242712Y-69424290D01*
X139250280Y-69411664D01*
X139259048Y-69399841D01*
X139268934Y-69388934D01*
X139279841Y-69379048D01*
X139291664Y-69370280D01*
X139304290Y-69362712D01*
X139317597Y-69356418D01*
X139331457Y-69351459D01*
X139345736Y-69347882D01*
X139360297Y-69345722D01*
X139375000Y-69345000D01*
X141125000Y-69345000D01*
X141139703Y-69345722D01*
X141139703Y-69345722D01*
G37*
D13*
X140250000Y-69645000D03*
D11*
G36*
X141139703Y-70615722D02*
G01*
X141154264Y-70617882D01*
X141168543Y-70621459D01*
X141182403Y-70626418D01*
X141195710Y-70632712D01*
X141208336Y-70640280D01*
X141220159Y-70649048D01*
X141231066Y-70658934D01*
X141240952Y-70669841D01*
X141249720Y-70681664D01*
X141257288Y-70694290D01*
X141263582Y-70707597D01*
X141268541Y-70721457D01*
X141272118Y-70735736D01*
X141274278Y-70750297D01*
X141275000Y-70765000D01*
X141275000Y-71065000D01*
X141274278Y-71079703D01*
X141272118Y-71094264D01*
X141268541Y-71108543D01*
X141263582Y-71122403D01*
X141257288Y-71135710D01*
X141249720Y-71148336D01*
X141240952Y-71160159D01*
X141231066Y-71171066D01*
X141220159Y-71180952D01*
X141208336Y-71189720D01*
X141195710Y-71197288D01*
X141182403Y-71203582D01*
X141168543Y-71208541D01*
X141154264Y-71212118D01*
X141139703Y-71214278D01*
X141125000Y-71215000D01*
X139375000Y-71215000D01*
X139360297Y-71214278D01*
X139345736Y-71212118D01*
X139331457Y-71208541D01*
X139317597Y-71203582D01*
X139304290Y-71197288D01*
X139291664Y-71189720D01*
X139279841Y-71180952D01*
X139268934Y-71171066D01*
X139259048Y-71160159D01*
X139250280Y-71148336D01*
X139242712Y-71135710D01*
X139236418Y-71122403D01*
X139231459Y-71108543D01*
X139227882Y-71094264D01*
X139225722Y-71079703D01*
X139225000Y-71065000D01*
X139225000Y-70765000D01*
X139225722Y-70750297D01*
X139227882Y-70735736D01*
X139231459Y-70721457D01*
X139236418Y-70707597D01*
X139242712Y-70694290D01*
X139250280Y-70681664D01*
X139259048Y-70669841D01*
X139268934Y-70658934D01*
X139279841Y-70649048D01*
X139291664Y-70640280D01*
X139304290Y-70632712D01*
X139317597Y-70626418D01*
X139331457Y-70621459D01*
X139345736Y-70617882D01*
X139360297Y-70615722D01*
X139375000Y-70615000D01*
X141125000Y-70615000D01*
X141139703Y-70615722D01*
X141139703Y-70615722D01*
G37*
D13*
X140250000Y-70915000D03*
D11*
G36*
X131839703Y-70615722D02*
G01*
X131854264Y-70617882D01*
X131868543Y-70621459D01*
X131882403Y-70626418D01*
X131895710Y-70632712D01*
X131908336Y-70640280D01*
X131920159Y-70649048D01*
X131931066Y-70658934D01*
X131940952Y-70669841D01*
X131949720Y-70681664D01*
X131957288Y-70694290D01*
X131963582Y-70707597D01*
X131968541Y-70721457D01*
X131972118Y-70735736D01*
X131974278Y-70750297D01*
X131975000Y-70765000D01*
X131975000Y-71065000D01*
X131974278Y-71079703D01*
X131972118Y-71094264D01*
X131968541Y-71108543D01*
X131963582Y-71122403D01*
X131957288Y-71135710D01*
X131949720Y-71148336D01*
X131940952Y-71160159D01*
X131931066Y-71171066D01*
X131920159Y-71180952D01*
X131908336Y-71189720D01*
X131895710Y-71197288D01*
X131882403Y-71203582D01*
X131868543Y-71208541D01*
X131854264Y-71212118D01*
X131839703Y-71214278D01*
X131825000Y-71215000D01*
X130075000Y-71215000D01*
X130060297Y-71214278D01*
X130045736Y-71212118D01*
X130031457Y-71208541D01*
X130017597Y-71203582D01*
X130004290Y-71197288D01*
X129991664Y-71189720D01*
X129979841Y-71180952D01*
X129968934Y-71171066D01*
X129959048Y-71160159D01*
X129950280Y-71148336D01*
X129942712Y-71135710D01*
X129936418Y-71122403D01*
X129931459Y-71108543D01*
X129927882Y-71094264D01*
X129925722Y-71079703D01*
X129925000Y-71065000D01*
X129925000Y-70765000D01*
X129925722Y-70750297D01*
X129927882Y-70735736D01*
X129931459Y-70721457D01*
X129936418Y-70707597D01*
X129942712Y-70694290D01*
X129950280Y-70681664D01*
X129959048Y-70669841D01*
X129968934Y-70658934D01*
X129979841Y-70649048D01*
X129991664Y-70640280D01*
X130004290Y-70632712D01*
X130017597Y-70626418D01*
X130031457Y-70621459D01*
X130045736Y-70617882D01*
X130060297Y-70615722D01*
X130075000Y-70615000D01*
X131825000Y-70615000D01*
X131839703Y-70615722D01*
X131839703Y-70615722D01*
G37*
D13*
X130950000Y-70915000D03*
D11*
G36*
X131839703Y-69345722D02*
G01*
X131854264Y-69347882D01*
X131868543Y-69351459D01*
X131882403Y-69356418D01*
X131895710Y-69362712D01*
X131908336Y-69370280D01*
X131920159Y-69379048D01*
X131931066Y-69388934D01*
X131940952Y-69399841D01*
X131949720Y-69411664D01*
X131957288Y-69424290D01*
X131963582Y-69437597D01*
X131968541Y-69451457D01*
X131972118Y-69465736D01*
X131974278Y-69480297D01*
X131975000Y-69495000D01*
X131975000Y-69795000D01*
X131974278Y-69809703D01*
X131972118Y-69824264D01*
X131968541Y-69838543D01*
X131963582Y-69852403D01*
X131957288Y-69865710D01*
X131949720Y-69878336D01*
X131940952Y-69890159D01*
X131931066Y-69901066D01*
X131920159Y-69910952D01*
X131908336Y-69919720D01*
X131895710Y-69927288D01*
X131882403Y-69933582D01*
X131868543Y-69938541D01*
X131854264Y-69942118D01*
X131839703Y-69944278D01*
X131825000Y-69945000D01*
X130075000Y-69945000D01*
X130060297Y-69944278D01*
X130045736Y-69942118D01*
X130031457Y-69938541D01*
X130017597Y-69933582D01*
X130004290Y-69927288D01*
X129991664Y-69919720D01*
X129979841Y-69910952D01*
X129968934Y-69901066D01*
X129959048Y-69890159D01*
X129950280Y-69878336D01*
X129942712Y-69865710D01*
X129936418Y-69852403D01*
X129931459Y-69838543D01*
X129927882Y-69824264D01*
X129925722Y-69809703D01*
X129925000Y-69795000D01*
X129925000Y-69495000D01*
X129925722Y-69480297D01*
X129927882Y-69465736D01*
X129931459Y-69451457D01*
X129936418Y-69437597D01*
X129942712Y-69424290D01*
X129950280Y-69411664D01*
X129959048Y-69399841D01*
X129968934Y-69388934D01*
X129979841Y-69379048D01*
X129991664Y-69370280D01*
X130004290Y-69362712D01*
X130017597Y-69356418D01*
X130031457Y-69351459D01*
X130045736Y-69347882D01*
X130060297Y-69345722D01*
X130075000Y-69345000D01*
X131825000Y-69345000D01*
X131839703Y-69345722D01*
X131839703Y-69345722D01*
G37*
D13*
X130950000Y-69645000D03*
D11*
G36*
X131839703Y-68075722D02*
G01*
X131854264Y-68077882D01*
X131868543Y-68081459D01*
X131882403Y-68086418D01*
X131895710Y-68092712D01*
X131908336Y-68100280D01*
X131920159Y-68109048D01*
X131931066Y-68118934D01*
X131940952Y-68129841D01*
X131949720Y-68141664D01*
X131957288Y-68154290D01*
X131963582Y-68167597D01*
X131968541Y-68181457D01*
X131972118Y-68195736D01*
X131974278Y-68210297D01*
X131975000Y-68225000D01*
X131975000Y-68525000D01*
X131974278Y-68539703D01*
X131972118Y-68554264D01*
X131968541Y-68568543D01*
X131963582Y-68582403D01*
X131957288Y-68595710D01*
X131949720Y-68608336D01*
X131940952Y-68620159D01*
X131931066Y-68631066D01*
X131920159Y-68640952D01*
X131908336Y-68649720D01*
X131895710Y-68657288D01*
X131882403Y-68663582D01*
X131868543Y-68668541D01*
X131854264Y-68672118D01*
X131839703Y-68674278D01*
X131825000Y-68675000D01*
X130075000Y-68675000D01*
X130060297Y-68674278D01*
X130045736Y-68672118D01*
X130031457Y-68668541D01*
X130017597Y-68663582D01*
X130004290Y-68657288D01*
X129991664Y-68649720D01*
X129979841Y-68640952D01*
X129968934Y-68631066D01*
X129959048Y-68620159D01*
X129950280Y-68608336D01*
X129942712Y-68595710D01*
X129936418Y-68582403D01*
X129931459Y-68568543D01*
X129927882Y-68554264D01*
X129925722Y-68539703D01*
X129925000Y-68525000D01*
X129925000Y-68225000D01*
X129925722Y-68210297D01*
X129927882Y-68195736D01*
X129931459Y-68181457D01*
X129936418Y-68167597D01*
X129942712Y-68154290D01*
X129950280Y-68141664D01*
X129959048Y-68129841D01*
X129968934Y-68118934D01*
X129979841Y-68109048D01*
X129991664Y-68100280D01*
X130004290Y-68092712D01*
X130017597Y-68086418D01*
X130031457Y-68081459D01*
X130045736Y-68077882D01*
X130060297Y-68075722D01*
X130075000Y-68075000D01*
X131825000Y-68075000D01*
X131839703Y-68075722D01*
X131839703Y-68075722D01*
G37*
D13*
X130950000Y-68375000D03*
D11*
G36*
X131839703Y-66805722D02*
G01*
X131854264Y-66807882D01*
X131868543Y-66811459D01*
X131882403Y-66816418D01*
X131895710Y-66822712D01*
X131908336Y-66830280D01*
X131920159Y-66839048D01*
X131931066Y-66848934D01*
X131940952Y-66859841D01*
X131949720Y-66871664D01*
X131957288Y-66884290D01*
X131963582Y-66897597D01*
X131968541Y-66911457D01*
X131972118Y-66925736D01*
X131974278Y-66940297D01*
X131975000Y-66955000D01*
X131975000Y-67255000D01*
X131974278Y-67269703D01*
X131972118Y-67284264D01*
X131968541Y-67298543D01*
X131963582Y-67312403D01*
X131957288Y-67325710D01*
X131949720Y-67338336D01*
X131940952Y-67350159D01*
X131931066Y-67361066D01*
X131920159Y-67370952D01*
X131908336Y-67379720D01*
X131895710Y-67387288D01*
X131882403Y-67393582D01*
X131868543Y-67398541D01*
X131854264Y-67402118D01*
X131839703Y-67404278D01*
X131825000Y-67405000D01*
X130075000Y-67405000D01*
X130060297Y-67404278D01*
X130045736Y-67402118D01*
X130031457Y-67398541D01*
X130017597Y-67393582D01*
X130004290Y-67387288D01*
X129991664Y-67379720D01*
X129979841Y-67370952D01*
X129968934Y-67361066D01*
X129959048Y-67350159D01*
X129950280Y-67338336D01*
X129942712Y-67325710D01*
X129936418Y-67312403D01*
X129931459Y-67298543D01*
X129927882Y-67284264D01*
X129925722Y-67269703D01*
X129925000Y-67255000D01*
X129925000Y-66955000D01*
X129925722Y-66940297D01*
X129927882Y-66925736D01*
X129931459Y-66911457D01*
X129936418Y-66897597D01*
X129942712Y-66884290D01*
X129950280Y-66871664D01*
X129959048Y-66859841D01*
X129968934Y-66848934D01*
X129979841Y-66839048D01*
X129991664Y-66830280D01*
X130004290Y-66822712D01*
X130017597Y-66816418D01*
X130031457Y-66811459D01*
X130045736Y-66807882D01*
X130060297Y-66805722D01*
X130075000Y-66805000D01*
X131825000Y-66805000D01*
X131839703Y-66805722D01*
X131839703Y-66805722D01*
G37*
D13*
X130950000Y-67105000D03*
D11*
G36*
X131839703Y-65535722D02*
G01*
X131854264Y-65537882D01*
X131868543Y-65541459D01*
X131882403Y-65546418D01*
X131895710Y-65552712D01*
X131908336Y-65560280D01*
X131920159Y-65569048D01*
X131931066Y-65578934D01*
X131940952Y-65589841D01*
X131949720Y-65601664D01*
X131957288Y-65614290D01*
X131963582Y-65627597D01*
X131968541Y-65641457D01*
X131972118Y-65655736D01*
X131974278Y-65670297D01*
X131975000Y-65685000D01*
X131975000Y-65985000D01*
X131974278Y-65999703D01*
X131972118Y-66014264D01*
X131968541Y-66028543D01*
X131963582Y-66042403D01*
X131957288Y-66055710D01*
X131949720Y-66068336D01*
X131940952Y-66080159D01*
X131931066Y-66091066D01*
X131920159Y-66100952D01*
X131908336Y-66109720D01*
X131895710Y-66117288D01*
X131882403Y-66123582D01*
X131868543Y-66128541D01*
X131854264Y-66132118D01*
X131839703Y-66134278D01*
X131825000Y-66135000D01*
X130075000Y-66135000D01*
X130060297Y-66134278D01*
X130045736Y-66132118D01*
X130031457Y-66128541D01*
X130017597Y-66123582D01*
X130004290Y-66117288D01*
X129991664Y-66109720D01*
X129979841Y-66100952D01*
X129968934Y-66091066D01*
X129959048Y-66080159D01*
X129950280Y-66068336D01*
X129942712Y-66055710D01*
X129936418Y-66042403D01*
X129931459Y-66028543D01*
X129927882Y-66014264D01*
X129925722Y-65999703D01*
X129925000Y-65985000D01*
X129925000Y-65685000D01*
X129925722Y-65670297D01*
X129927882Y-65655736D01*
X129931459Y-65641457D01*
X129936418Y-65627597D01*
X129942712Y-65614290D01*
X129950280Y-65601664D01*
X129959048Y-65589841D01*
X129968934Y-65578934D01*
X129979841Y-65569048D01*
X129991664Y-65560280D01*
X130004290Y-65552712D01*
X130017597Y-65546418D01*
X130031457Y-65541459D01*
X130045736Y-65537882D01*
X130060297Y-65535722D01*
X130075000Y-65535000D01*
X131825000Y-65535000D01*
X131839703Y-65535722D01*
X131839703Y-65535722D01*
G37*
D13*
X130950000Y-65835000D03*
D11*
G36*
X131839703Y-64265722D02*
G01*
X131854264Y-64267882D01*
X131868543Y-64271459D01*
X131882403Y-64276418D01*
X131895710Y-64282712D01*
X131908336Y-64290280D01*
X131920159Y-64299048D01*
X131931066Y-64308934D01*
X131940952Y-64319841D01*
X131949720Y-64331664D01*
X131957288Y-64344290D01*
X131963582Y-64357597D01*
X131968541Y-64371457D01*
X131972118Y-64385736D01*
X131974278Y-64400297D01*
X131975000Y-64415000D01*
X131975000Y-64715000D01*
X131974278Y-64729703D01*
X131972118Y-64744264D01*
X131968541Y-64758543D01*
X131963582Y-64772403D01*
X131957288Y-64785710D01*
X131949720Y-64798336D01*
X131940952Y-64810159D01*
X131931066Y-64821066D01*
X131920159Y-64830952D01*
X131908336Y-64839720D01*
X131895710Y-64847288D01*
X131882403Y-64853582D01*
X131868543Y-64858541D01*
X131854264Y-64862118D01*
X131839703Y-64864278D01*
X131825000Y-64865000D01*
X130075000Y-64865000D01*
X130060297Y-64864278D01*
X130045736Y-64862118D01*
X130031457Y-64858541D01*
X130017597Y-64853582D01*
X130004290Y-64847288D01*
X129991664Y-64839720D01*
X129979841Y-64830952D01*
X129968934Y-64821066D01*
X129959048Y-64810159D01*
X129950280Y-64798336D01*
X129942712Y-64785710D01*
X129936418Y-64772403D01*
X129931459Y-64758543D01*
X129927882Y-64744264D01*
X129925722Y-64729703D01*
X129925000Y-64715000D01*
X129925000Y-64415000D01*
X129925722Y-64400297D01*
X129927882Y-64385736D01*
X129931459Y-64371457D01*
X129936418Y-64357597D01*
X129942712Y-64344290D01*
X129950280Y-64331664D01*
X129959048Y-64319841D01*
X129968934Y-64308934D01*
X129979841Y-64299048D01*
X129991664Y-64290280D01*
X130004290Y-64282712D01*
X130017597Y-64276418D01*
X130031457Y-64271459D01*
X130045736Y-64267882D01*
X130060297Y-64265722D01*
X130075000Y-64265000D01*
X131825000Y-64265000D01*
X131839703Y-64265722D01*
X131839703Y-64265722D01*
G37*
D13*
X130950000Y-64565000D03*
D11*
G36*
X131839703Y-62995722D02*
G01*
X131854264Y-62997882D01*
X131868543Y-63001459D01*
X131882403Y-63006418D01*
X131895710Y-63012712D01*
X131908336Y-63020280D01*
X131920159Y-63029048D01*
X131931066Y-63038934D01*
X131940952Y-63049841D01*
X131949720Y-63061664D01*
X131957288Y-63074290D01*
X131963582Y-63087597D01*
X131968541Y-63101457D01*
X131972118Y-63115736D01*
X131974278Y-63130297D01*
X131975000Y-63145000D01*
X131975000Y-63445000D01*
X131974278Y-63459703D01*
X131972118Y-63474264D01*
X131968541Y-63488543D01*
X131963582Y-63502403D01*
X131957288Y-63515710D01*
X131949720Y-63528336D01*
X131940952Y-63540159D01*
X131931066Y-63551066D01*
X131920159Y-63560952D01*
X131908336Y-63569720D01*
X131895710Y-63577288D01*
X131882403Y-63583582D01*
X131868543Y-63588541D01*
X131854264Y-63592118D01*
X131839703Y-63594278D01*
X131825000Y-63595000D01*
X130075000Y-63595000D01*
X130060297Y-63594278D01*
X130045736Y-63592118D01*
X130031457Y-63588541D01*
X130017597Y-63583582D01*
X130004290Y-63577288D01*
X129991664Y-63569720D01*
X129979841Y-63560952D01*
X129968934Y-63551066D01*
X129959048Y-63540159D01*
X129950280Y-63528336D01*
X129942712Y-63515710D01*
X129936418Y-63502403D01*
X129931459Y-63488543D01*
X129927882Y-63474264D01*
X129925722Y-63459703D01*
X129925000Y-63445000D01*
X129925000Y-63145000D01*
X129925722Y-63130297D01*
X129927882Y-63115736D01*
X129931459Y-63101457D01*
X129936418Y-63087597D01*
X129942712Y-63074290D01*
X129950280Y-63061664D01*
X129959048Y-63049841D01*
X129968934Y-63038934D01*
X129979841Y-63029048D01*
X129991664Y-63020280D01*
X130004290Y-63012712D01*
X130017597Y-63006418D01*
X130031457Y-63001459D01*
X130045736Y-62997882D01*
X130060297Y-62995722D01*
X130075000Y-62995000D01*
X131825000Y-62995000D01*
X131839703Y-62995722D01*
X131839703Y-62995722D01*
G37*
D13*
X130950000Y-63295000D03*
D11*
G36*
X131839703Y-61725722D02*
G01*
X131854264Y-61727882D01*
X131868543Y-61731459D01*
X131882403Y-61736418D01*
X131895710Y-61742712D01*
X131908336Y-61750280D01*
X131920159Y-61759048D01*
X131931066Y-61768934D01*
X131940952Y-61779841D01*
X131949720Y-61791664D01*
X131957288Y-61804290D01*
X131963582Y-61817597D01*
X131968541Y-61831457D01*
X131972118Y-61845736D01*
X131974278Y-61860297D01*
X131975000Y-61875000D01*
X131975000Y-62175000D01*
X131974278Y-62189703D01*
X131972118Y-62204264D01*
X131968541Y-62218543D01*
X131963582Y-62232403D01*
X131957288Y-62245710D01*
X131949720Y-62258336D01*
X131940952Y-62270159D01*
X131931066Y-62281066D01*
X131920159Y-62290952D01*
X131908336Y-62299720D01*
X131895710Y-62307288D01*
X131882403Y-62313582D01*
X131868543Y-62318541D01*
X131854264Y-62322118D01*
X131839703Y-62324278D01*
X131825000Y-62325000D01*
X130075000Y-62325000D01*
X130060297Y-62324278D01*
X130045736Y-62322118D01*
X130031457Y-62318541D01*
X130017597Y-62313582D01*
X130004290Y-62307288D01*
X129991664Y-62299720D01*
X129979841Y-62290952D01*
X129968934Y-62281066D01*
X129959048Y-62270159D01*
X129950280Y-62258336D01*
X129942712Y-62245710D01*
X129936418Y-62232403D01*
X129931459Y-62218543D01*
X129927882Y-62204264D01*
X129925722Y-62189703D01*
X129925000Y-62175000D01*
X129925000Y-61875000D01*
X129925722Y-61860297D01*
X129927882Y-61845736D01*
X129931459Y-61831457D01*
X129936418Y-61817597D01*
X129942712Y-61804290D01*
X129950280Y-61791664D01*
X129959048Y-61779841D01*
X129968934Y-61768934D01*
X129979841Y-61759048D01*
X129991664Y-61750280D01*
X130004290Y-61742712D01*
X130017597Y-61736418D01*
X130031457Y-61731459D01*
X130045736Y-61727882D01*
X130060297Y-61725722D01*
X130075000Y-61725000D01*
X131825000Y-61725000D01*
X131839703Y-61725722D01*
X131839703Y-61725722D01*
G37*
D13*
X130950000Y-62025000D03*
D11*
G36*
X131839703Y-60455722D02*
G01*
X131854264Y-60457882D01*
X131868543Y-60461459D01*
X131882403Y-60466418D01*
X131895710Y-60472712D01*
X131908336Y-60480280D01*
X131920159Y-60489048D01*
X131931066Y-60498934D01*
X131940952Y-60509841D01*
X131949720Y-60521664D01*
X131957288Y-60534290D01*
X131963582Y-60547597D01*
X131968541Y-60561457D01*
X131972118Y-60575736D01*
X131974278Y-60590297D01*
X131975000Y-60605000D01*
X131975000Y-60905000D01*
X131974278Y-60919703D01*
X131972118Y-60934264D01*
X131968541Y-60948543D01*
X131963582Y-60962403D01*
X131957288Y-60975710D01*
X131949720Y-60988336D01*
X131940952Y-61000159D01*
X131931066Y-61011066D01*
X131920159Y-61020952D01*
X131908336Y-61029720D01*
X131895710Y-61037288D01*
X131882403Y-61043582D01*
X131868543Y-61048541D01*
X131854264Y-61052118D01*
X131839703Y-61054278D01*
X131825000Y-61055000D01*
X130075000Y-61055000D01*
X130060297Y-61054278D01*
X130045736Y-61052118D01*
X130031457Y-61048541D01*
X130017597Y-61043582D01*
X130004290Y-61037288D01*
X129991664Y-61029720D01*
X129979841Y-61020952D01*
X129968934Y-61011066D01*
X129959048Y-61000159D01*
X129950280Y-60988336D01*
X129942712Y-60975710D01*
X129936418Y-60962403D01*
X129931459Y-60948543D01*
X129927882Y-60934264D01*
X129925722Y-60919703D01*
X129925000Y-60905000D01*
X129925000Y-60605000D01*
X129925722Y-60590297D01*
X129927882Y-60575736D01*
X129931459Y-60561457D01*
X129936418Y-60547597D01*
X129942712Y-60534290D01*
X129950280Y-60521664D01*
X129959048Y-60509841D01*
X129968934Y-60498934D01*
X129979841Y-60489048D01*
X129991664Y-60480280D01*
X130004290Y-60472712D01*
X130017597Y-60466418D01*
X130031457Y-60461459D01*
X130045736Y-60457882D01*
X130060297Y-60455722D01*
X130075000Y-60455000D01*
X131825000Y-60455000D01*
X131839703Y-60455722D01*
X131839703Y-60455722D01*
G37*
D13*
X130950000Y-60755000D03*
D11*
G36*
X131839703Y-59185722D02*
G01*
X131854264Y-59187882D01*
X131868543Y-59191459D01*
X131882403Y-59196418D01*
X131895710Y-59202712D01*
X131908336Y-59210280D01*
X131920159Y-59219048D01*
X131931066Y-59228934D01*
X131940952Y-59239841D01*
X131949720Y-59251664D01*
X131957288Y-59264290D01*
X131963582Y-59277597D01*
X131968541Y-59291457D01*
X131972118Y-59305736D01*
X131974278Y-59320297D01*
X131975000Y-59335000D01*
X131975000Y-59635000D01*
X131974278Y-59649703D01*
X131972118Y-59664264D01*
X131968541Y-59678543D01*
X131963582Y-59692403D01*
X131957288Y-59705710D01*
X131949720Y-59718336D01*
X131940952Y-59730159D01*
X131931066Y-59741066D01*
X131920159Y-59750952D01*
X131908336Y-59759720D01*
X131895710Y-59767288D01*
X131882403Y-59773582D01*
X131868543Y-59778541D01*
X131854264Y-59782118D01*
X131839703Y-59784278D01*
X131825000Y-59785000D01*
X130075000Y-59785000D01*
X130060297Y-59784278D01*
X130045736Y-59782118D01*
X130031457Y-59778541D01*
X130017597Y-59773582D01*
X130004290Y-59767288D01*
X129991664Y-59759720D01*
X129979841Y-59750952D01*
X129968934Y-59741066D01*
X129959048Y-59730159D01*
X129950280Y-59718336D01*
X129942712Y-59705710D01*
X129936418Y-59692403D01*
X129931459Y-59678543D01*
X129927882Y-59664264D01*
X129925722Y-59649703D01*
X129925000Y-59635000D01*
X129925000Y-59335000D01*
X129925722Y-59320297D01*
X129927882Y-59305736D01*
X129931459Y-59291457D01*
X129936418Y-59277597D01*
X129942712Y-59264290D01*
X129950280Y-59251664D01*
X129959048Y-59239841D01*
X129968934Y-59228934D01*
X129979841Y-59219048D01*
X129991664Y-59210280D01*
X130004290Y-59202712D01*
X130017597Y-59196418D01*
X130031457Y-59191459D01*
X130045736Y-59187882D01*
X130060297Y-59185722D01*
X130075000Y-59185000D01*
X131825000Y-59185000D01*
X131839703Y-59185722D01*
X131839703Y-59185722D01*
G37*
D13*
X130950000Y-59485000D03*
D14*
X140000000Y-53900000D03*
D15*
X141750000Y-55325000D03*
X141250000Y-55325000D03*
X140750000Y-55325000D03*
X140250000Y-55325000D03*
X139750000Y-55325000D03*
X139250000Y-55325000D03*
X138750000Y-55325000D03*
X138250000Y-55325000D03*
X138250000Y-52475000D03*
X138750000Y-52475000D03*
X139250000Y-52475000D03*
X139750000Y-52475000D03*
X140250000Y-52475000D03*
X140750000Y-52475000D03*
X141250000Y-52475000D03*
X141750000Y-52475000D03*
D16*
X141900000Y-56675000D03*
X141900000Y-75500000D03*
X141246884Y-56100000D03*
X131500000Y-57200000D03*
X140725000Y-56289314D03*
X142400000Y-62100000D03*
X140200000Y-56675000D03*
X141800000Y-60500000D03*
X139674999Y-56335082D03*
X135000000Y-57100000D03*
X139135403Y-56675000D03*
X140250000Y-74255000D03*
X138600000Y-56300000D03*
X140250000Y-63295000D03*
X137500000Y-56700000D03*
X140250000Y-76795000D03*
X141700000Y-72700000D03*
X138900000Y-59800000D03*
X138100000Y-51700000D03*
X142100000Y-50100000D03*
X132300000Y-73000000D03*
X132400000Y-59400000D03*
X141800000Y-51800000D03*
X140775000Y-51700000D03*
X139725000Y-51700000D03*
X133500000Y-51500000D03*
X133000000Y-84600000D03*
X133000000Y-70900000D03*
D17*
X141750000Y-56525000D02*
X141900000Y-56675000D01*
X141750000Y-55325000D02*
X141750000Y-56525000D01*
D18*
X140275000Y-75500000D02*
X140250000Y-75525000D01*
X141900000Y-75500000D02*
X140275000Y-75500000D01*
X131500000Y-55000000D02*
X131500000Y-57200000D01*
X141246884Y-55328116D02*
X141250000Y-55325000D01*
X141246884Y-56100000D02*
X141246884Y-55328116D01*
D17*
X140750000Y-56264314D02*
X140725000Y-56289314D01*
X140750000Y-55325000D02*
X140750000Y-56264314D01*
D18*
X140325000Y-62100000D02*
X140250000Y-62025000D01*
X142400000Y-62100000D02*
X140325000Y-62100000D01*
D17*
X140199999Y-56599999D02*
X140300000Y-56700000D01*
X140199999Y-56037313D02*
X140199999Y-56599999D01*
X140250000Y-55987312D02*
X140199999Y-56037313D01*
X140250000Y-55325000D02*
X140250000Y-55987312D01*
D18*
X140505000Y-60500000D02*
X140250000Y-60755000D01*
X141800000Y-60500000D02*
X140505000Y-60500000D01*
D17*
X139674999Y-55975001D02*
X139674999Y-56335082D01*
X139750000Y-55900000D02*
X139674999Y-55975001D01*
X139750000Y-55325000D02*
X139750000Y-55900000D01*
D18*
X135000000Y-55000000D02*
X135000000Y-57100000D01*
D17*
X139135403Y-56097676D02*
X139135403Y-56675000D01*
X139224989Y-56008090D02*
X139135403Y-56097676D01*
X139224989Y-55350011D02*
X139224989Y-56008090D01*
X139250000Y-55325000D02*
X139224989Y-55350011D01*
X138600000Y-55996669D02*
X138600000Y-56300000D01*
X138750000Y-55846669D02*
X138600000Y-55996669D01*
X138750000Y-55325000D02*
X138750000Y-55846669D01*
X138250000Y-55325000D02*
X138250000Y-55525000D01*
D18*
X137500000Y-56075000D02*
X137500000Y-56700000D01*
X138250000Y-55325000D02*
X137500000Y-56075000D01*
D17*
X140925000Y-72725000D02*
X141675000Y-72725000D01*
X139675000Y-59775000D02*
X138925000Y-59775000D01*
X138750000Y-52475000D02*
X138250000Y-52475000D01*
X138250000Y-51850000D02*
X138100000Y-51700000D01*
X138250000Y-52475000D02*
X138250000Y-51850000D01*
D18*
X141510000Y-51120000D02*
X141510000Y-50700000D01*
X141299999Y-51330001D02*
X141510000Y-51120000D01*
X141299999Y-51900001D02*
X141299999Y-51330001D01*
X141250000Y-51950000D02*
X141299999Y-51900001D01*
X141250000Y-52475000D02*
X141250000Y-51950000D01*
X141510000Y-50690000D02*
X142100000Y-50100000D01*
X141510000Y-50700000D02*
X141510000Y-50690000D01*
X141900001Y-49900001D02*
X142100000Y-50100000D01*
X131500000Y-50300000D02*
X131899999Y-49900001D01*
X131899999Y-49900001D02*
X141900001Y-49900001D01*
X131500000Y-51500000D02*
X131500000Y-50300000D01*
X150300001Y-71240001D02*
X149040002Y-72500000D01*
X150300001Y-59759999D02*
X150300001Y-71240001D01*
X149789991Y-59249989D02*
X150300001Y-59759999D01*
X139450011Y-59249989D02*
X149789991Y-59249989D01*
X138900000Y-59800000D02*
X139450011Y-59249989D01*
X141900000Y-72500000D02*
X141725010Y-72674990D01*
X149040002Y-72500000D02*
X141900000Y-72500000D01*
D17*
X139250000Y-51960000D02*
X137990000Y-50700000D01*
X139250000Y-52475000D02*
X139250000Y-51960000D01*
X131525000Y-73025000D02*
X132275000Y-73025000D01*
X131625000Y-59425000D02*
X132375000Y-59425000D01*
X141750000Y-51850000D02*
X141800000Y-51800000D01*
X141750000Y-52475000D02*
X141750000Y-51850000D01*
X140750000Y-51725000D02*
X140775000Y-51700000D01*
X140750000Y-52475000D02*
X140750000Y-51725000D01*
X139750000Y-51725000D02*
X139725000Y-51700000D01*
X139750000Y-52475000D02*
X139750000Y-51725000D01*
D18*
X135000000Y-51500000D02*
X133500000Y-51500000D01*
X130950000Y-59485000D02*
X130950000Y-62025000D01*
X130950000Y-72985000D02*
X130950000Y-75525000D01*
X132815000Y-84415000D02*
X133000000Y-84600000D01*
X130950000Y-84415000D02*
X132815000Y-84415000D01*
X132985000Y-70915000D02*
X133000000Y-70900000D01*
X130950000Y-70915000D02*
X132985000Y-70915000D01*
D17*
X140250000Y-50940000D02*
X140490000Y-50700000D01*
X140250000Y-52475000D02*
X140250000Y-50940000D01*
X140490000Y-50700000D02*
X139010000Y-50700000D01*
X141375000Y-64565000D02*
X140250000Y-64565000D01*
X142815000Y-64565000D02*
X141375000Y-64565000D01*
X143750000Y-65500000D02*
X142815000Y-64565000D01*
X145000000Y-65500000D02*
X143750000Y-65500000D01*
X141375000Y-65835000D02*
X140250000Y-65835000D01*
X142365001Y-66825001D02*
X141375000Y-65835000D01*
X146424999Y-66825001D02*
X142365001Y-66825001D01*
X147750000Y-65500000D02*
X146424999Y-66825001D01*
X149000000Y-65500000D02*
X147750000Y-65500000D01*
X139125000Y-68375000D02*
X140250000Y-68375000D01*
X138899990Y-68149990D02*
X139125000Y-68375000D01*
X139198222Y-63920010D02*
X138899990Y-64218242D01*
X143329990Y-63920010D02*
X139198222Y-63920010D01*
X145000000Y-62250000D02*
X143329990Y-63920010D01*
X138899990Y-64218242D02*
X138899990Y-68149990D01*
X145000000Y-61000000D02*
X145000000Y-62250000D01*
X141301778Y-62669990D02*
X138769990Y-62669990D01*
X148924999Y-59674999D02*
X143739999Y-59674999D01*
X149000000Y-59750000D02*
X148924999Y-59674999D01*
X149000000Y-61000000D02*
X149000000Y-59750000D01*
X139879290Y-69274290D02*
X140250000Y-69645000D01*
X139387880Y-69274290D02*
X139879290Y-69274290D01*
X138449981Y-68336391D02*
X139387880Y-69274290D01*
X138449980Y-62990000D02*
X138449981Y-68336391D01*
X138769990Y-62669990D02*
X138449980Y-62990000D01*
D18*
X142570012Y-62669990D02*
X141301778Y-62669990D01*
X142900001Y-62340001D02*
X142570012Y-62669990D01*
X142900001Y-60514997D02*
X142900001Y-62340001D01*
X143739999Y-59674999D02*
X142900001Y-60514997D01*
D17*
X145000000Y-57750000D02*
X143950000Y-58800000D01*
X145000000Y-56500000D02*
X145000000Y-57750000D01*
X139238232Y-58800000D02*
X137100000Y-60938232D01*
X143950000Y-58800000D02*
X139238232Y-58800000D01*
X137100000Y-60938232D02*
X137100000Y-66600000D01*
X134055000Y-69645000D02*
X130950000Y-69645000D01*
X137100000Y-66600000D02*
X134055000Y-69645000D01*
X143739999Y-55174999D02*
X143600000Y-55314998D01*
X146424999Y-55174999D02*
X143739999Y-55174999D01*
X147750000Y-56500000D02*
X146424999Y-55174999D01*
X149000000Y-56500000D02*
X147750000Y-56500000D01*
X143600000Y-55314998D02*
X143600000Y-57800000D01*
X143050010Y-58349990D02*
X139050010Y-58349990D01*
X143600000Y-57800000D02*
X143050010Y-58349990D01*
X139050010Y-58349990D02*
X136600000Y-60800000D01*
X136600000Y-60800000D02*
X136600000Y-66300000D01*
X134525000Y-68375000D02*
X130950000Y-68375000D01*
X136600000Y-66300000D02*
X134525000Y-68375000D01*
X145000000Y-52750000D02*
X143100000Y-54650000D01*
X145000000Y-51500000D02*
X145000000Y-52750000D01*
X143100000Y-54650000D02*
X143100000Y-57500000D01*
X143100000Y-57500000D02*
X142800000Y-57800000D01*
X138963590Y-57800000D02*
X137263590Y-59500000D01*
X142800000Y-57800000D02*
X138963590Y-57800000D01*
X137263590Y-59500000D02*
X137100000Y-59500000D01*
X137100000Y-59500000D02*
X136000000Y-60600000D01*
X136000000Y-60600000D02*
X136000000Y-65200000D01*
X135365000Y-65835000D02*
X130950000Y-65835000D01*
X136000000Y-65200000D02*
X135365000Y-65835000D01*
X143739999Y-50174999D02*
X142525001Y-51389997D01*
X146424999Y-50174999D02*
X143739999Y-50174999D01*
X147750000Y-51500000D02*
X146424999Y-50174999D01*
X149000000Y-51500000D02*
X147750000Y-51500000D01*
X142525001Y-55585001D02*
X142500000Y-55610002D01*
X142525001Y-51389997D02*
X142525001Y-55585001D01*
X142500000Y-55610002D02*
X142500000Y-57300000D01*
X142500000Y-57300000D02*
X142400000Y-57200000D01*
X137077190Y-59049990D02*
X136850010Y-59049990D01*
X138927180Y-57200000D02*
X137077190Y-59049990D01*
X142400000Y-57200000D02*
X138927180Y-57200000D01*
X136850010Y-59049990D02*
X135500000Y-60400000D01*
X135500000Y-60400000D02*
X135500000Y-64000000D01*
X134935000Y-64565000D02*
X130950000Y-64565000D01*
X135500000Y-64000000D02*
X134935000Y-64565000D01*
X145000000Y-82250000D02*
X142100000Y-79350000D01*
X145000000Y-83500000D02*
X145000000Y-82250000D01*
X142100000Y-79350000D02*
X142100000Y-78800000D01*
X140620710Y-78435710D02*
X140250000Y-78065000D01*
X141735710Y-78435710D02*
X140620710Y-78435710D01*
X142100000Y-78800000D02*
X141735710Y-78435710D01*
X146424999Y-84825001D02*
X143739999Y-84825001D01*
X143739999Y-84825001D02*
X143300000Y-84385002D01*
X147750000Y-83500000D02*
X146424999Y-84825001D01*
X149000000Y-83500000D02*
X147750000Y-83500000D01*
X141375000Y-79335000D02*
X140250000Y-79335000D01*
X143300000Y-81260000D02*
X141375000Y-79335000D01*
X143300000Y-84385002D02*
X143300000Y-81260000D01*
X138899990Y-81649990D02*
X139125000Y-81875000D01*
X138899990Y-77718242D02*
X138899990Y-81649990D01*
X139198222Y-77420010D02*
X138899990Y-77718242D01*
X144670010Y-77420010D02*
X139198222Y-77420010D01*
X145000000Y-77750000D02*
X144670010Y-77420010D01*
X139125000Y-81875000D02*
X140250000Y-81875000D01*
X145000000Y-79000000D02*
X145000000Y-77750000D01*
X139125000Y-83145000D02*
X140250000Y-83145000D01*
X138449980Y-82469980D02*
X139125000Y-83145000D01*
X138449980Y-76898252D02*
X138449980Y-82469980D01*
X139198222Y-76150010D02*
X138449980Y-76898252D01*
X147400010Y-76150010D02*
X139198222Y-76150010D01*
X149000000Y-77750000D02*
X147400010Y-76150010D01*
X149000000Y-79000000D02*
X149000000Y-77750000D01*
X143350010Y-74899990D02*
X139178242Y-74899990D01*
X143750000Y-74500000D02*
X143350010Y-74899990D01*
X139178242Y-74899990D02*
X137900000Y-76178232D01*
X145000000Y-74500000D02*
X143750000Y-74500000D01*
X137900000Y-76178232D02*
X137900000Y-80100000D01*
X134855000Y-83145000D02*
X130950000Y-83145000D01*
X137900000Y-80100000D02*
X134855000Y-83145000D01*
X141321758Y-73610010D02*
X139198222Y-73610010D01*
X141831768Y-73100000D02*
X141321758Y-73610010D01*
X146350000Y-73100000D02*
X141831768Y-73100000D01*
X139198222Y-73610010D02*
X137200000Y-75608232D01*
X147750000Y-74500000D02*
X146350000Y-73100000D01*
X149000000Y-74500000D02*
X147750000Y-74500000D01*
X137200000Y-75608232D02*
X137200000Y-79700000D01*
X135025000Y-81875000D02*
X130950000Y-81875000D01*
X137200000Y-79700000D02*
X135025000Y-81875000D01*
X139178242Y-72359990D02*
X136500000Y-75038232D01*
X141390010Y-72359990D02*
X139178242Y-72359990D01*
X143750000Y-70000000D02*
X141390010Y-72359990D01*
X145000000Y-70000000D02*
X143750000Y-70000000D01*
X136500000Y-75038232D02*
X136500000Y-78100000D01*
X135265000Y-79335000D02*
X130950000Y-79335000D01*
X136500000Y-78100000D02*
X135265000Y-79335000D01*
X140951788Y-71909980D02*
X138790020Y-71909980D01*
X141600010Y-70814988D02*
X141600010Y-71261758D01*
X143739999Y-68674999D02*
X141600010Y-70814988D01*
X146424999Y-68674999D02*
X143739999Y-68674999D01*
X141600010Y-71261758D02*
X140951788Y-71909980D01*
X147750000Y-70000000D02*
X146424999Y-68674999D01*
X149000000Y-70000000D02*
X147750000Y-70000000D01*
X138790020Y-71909980D02*
X136000000Y-74700000D01*
X136000000Y-74700000D02*
X136000000Y-77300000D01*
X135235000Y-78065000D02*
X130950000Y-78065000D01*
X136000000Y-77300000D02*
X135235000Y-78065000D01*
D19*
G36*
X142848001Y-81447226D02*
G01*
X142848000Y-84362797D01*
X142845813Y-84385002D01*
X142848000Y-84407206D01*
X142854540Y-84473608D01*
X142880386Y-84558811D01*
X142922357Y-84637334D01*
X142978841Y-84706161D01*
X142996100Y-84720325D01*
X143398774Y-85123000D01*
X132465026Y-85123000D01*
X132468237Y-85119789D01*
X132537730Y-85015785D01*
X132585597Y-84900223D01*
X132610000Y-84777542D01*
X132610000Y-84700750D01*
X132451250Y-84542000D01*
X131077000Y-84542000D01*
X131077000Y-84562000D01*
X130823000Y-84562000D01*
X130823000Y-84542000D01*
X130803000Y-84542000D01*
X130803000Y-84288000D01*
X130823000Y-84288000D01*
X130823000Y-84268000D01*
X131077000Y-84268000D01*
X131077000Y-84288000D01*
X132451250Y-84288000D01*
X132474250Y-84265000D01*
X138896418Y-84265000D01*
X138896418Y-84565000D01*
X138905614Y-84658367D01*
X138932848Y-84748145D01*
X138977074Y-84830886D01*
X139036591Y-84903409D01*
X139109114Y-84962926D01*
X139191855Y-85007152D01*
X139281633Y-85034386D01*
X139375000Y-85043582D01*
X141125000Y-85043582D01*
X141218367Y-85034386D01*
X141308145Y-85007152D01*
X141390886Y-84962926D01*
X141463409Y-84903409D01*
X141522926Y-84830886D01*
X141567152Y-84748145D01*
X141594386Y-84658367D01*
X141603582Y-84565000D01*
X141603582Y-84265000D01*
X141594386Y-84171633D01*
X141567152Y-84081855D01*
X141522926Y-83999114D01*
X141463409Y-83926591D01*
X141390886Y-83867074D01*
X141308145Y-83822848D01*
X141218367Y-83795614D01*
X141125000Y-83786418D01*
X139375000Y-83786418D01*
X139281633Y-83795614D01*
X139191855Y-83822848D01*
X139109114Y-83867074D01*
X139036591Y-83926591D01*
X138977074Y-83999114D01*
X138932848Y-84081855D01*
X138905614Y-84171633D01*
X138896418Y-84265000D01*
X132474250Y-84265000D01*
X132610000Y-84129250D01*
X132610000Y-84052458D01*
X132585597Y-83929777D01*
X132537730Y-83814215D01*
X132468237Y-83710211D01*
X132379789Y-83621763D01*
X132342728Y-83597000D01*
X134832795Y-83597000D01*
X134855000Y-83599187D01*
X134877205Y-83597000D01*
X134943607Y-83590460D01*
X135028810Y-83564614D01*
X135107333Y-83522643D01*
X135176159Y-83466159D01*
X135190323Y-83448900D01*
X137997981Y-80641244D01*
X137997981Y-82447765D01*
X137995793Y-82469980D01*
X138004520Y-82558587D01*
X138030366Y-82643789D01*
X138072338Y-82722313D01*
X138128822Y-82791139D01*
X138146075Y-82805298D01*
X138789685Y-83448910D01*
X138803841Y-83466159D01*
X138872667Y-83522643D01*
X138951190Y-83564614D01*
X138989727Y-83576304D01*
X139036591Y-83633409D01*
X139109114Y-83692926D01*
X139191855Y-83737152D01*
X139281633Y-83764386D01*
X139375000Y-83773582D01*
X141125000Y-83773582D01*
X141218367Y-83764386D01*
X141308145Y-83737152D01*
X141390886Y-83692926D01*
X141463409Y-83633409D01*
X141522926Y-83560886D01*
X141567152Y-83478145D01*
X141594386Y-83388367D01*
X141603582Y-83295000D01*
X141603582Y-82995000D01*
X141594386Y-82901633D01*
X141567152Y-82811855D01*
X141522926Y-82729114D01*
X141463409Y-82656591D01*
X141390886Y-82597074D01*
X141308145Y-82552848D01*
X141218367Y-82525614D01*
X141125000Y-82516418D01*
X139375000Y-82516418D01*
X139281633Y-82525614D01*
X139191855Y-82552848D01*
X139178963Y-82559739D01*
X138901980Y-82282757D01*
X138901980Y-82268311D01*
X138951190Y-82294614D01*
X138989727Y-82306304D01*
X139036591Y-82363409D01*
X139109114Y-82422926D01*
X139191855Y-82467152D01*
X139281633Y-82494386D01*
X139375000Y-82503582D01*
X141125000Y-82503582D01*
X141218367Y-82494386D01*
X141308145Y-82467152D01*
X141390886Y-82422926D01*
X141463409Y-82363409D01*
X141522926Y-82290886D01*
X141567152Y-82208145D01*
X141594386Y-82118367D01*
X141603582Y-82025000D01*
X141603582Y-81725000D01*
X141594386Y-81631633D01*
X141567152Y-81541855D01*
X141522926Y-81459114D01*
X141463409Y-81386591D01*
X141390886Y-81327074D01*
X141308145Y-81282848D01*
X141218367Y-81255614D01*
X141125000Y-81246418D01*
X139375000Y-81246418D01*
X139351990Y-81248684D01*
X139351990Y-81231316D01*
X139375000Y-81233582D01*
X141125000Y-81233582D01*
X141218367Y-81224386D01*
X141308145Y-81197152D01*
X141390886Y-81152926D01*
X141463409Y-81093409D01*
X141522926Y-81020886D01*
X141567152Y-80938145D01*
X141594386Y-80848367D01*
X141603582Y-80755000D01*
X141603582Y-80455000D01*
X141594386Y-80361633D01*
X141567152Y-80271855D01*
X141522926Y-80189114D01*
X141463409Y-80116591D01*
X141390886Y-80057074D01*
X141308145Y-80012848D01*
X141218367Y-79985614D01*
X141125000Y-79976418D01*
X139375000Y-79976418D01*
X139351990Y-79978684D01*
X139351990Y-79961316D01*
X139375000Y-79963582D01*
X141125000Y-79963582D01*
X141218367Y-79954386D01*
X141308145Y-79927152D01*
X141321038Y-79920261D01*
X142848001Y-81447226D01*
X142848001Y-81447226D01*
G37*
X142848001Y-81447226D02*
X142848000Y-84362797D01*
X142845813Y-84385002D01*
X142848000Y-84407206D01*
X142854540Y-84473608D01*
X142880386Y-84558811D01*
X142922357Y-84637334D01*
X142978841Y-84706161D01*
X142996100Y-84720325D01*
X143398774Y-85123000D01*
X132465026Y-85123000D01*
X132468237Y-85119789D01*
X132537730Y-85015785D01*
X132585597Y-84900223D01*
X132610000Y-84777542D01*
X132610000Y-84700750D01*
X132451250Y-84542000D01*
X131077000Y-84542000D01*
X131077000Y-84562000D01*
X130823000Y-84562000D01*
X130823000Y-84542000D01*
X130803000Y-84542000D01*
X130803000Y-84288000D01*
X130823000Y-84288000D01*
X130823000Y-84268000D01*
X131077000Y-84268000D01*
X131077000Y-84288000D01*
X132451250Y-84288000D01*
X132474250Y-84265000D01*
X138896418Y-84265000D01*
X138896418Y-84565000D01*
X138905614Y-84658367D01*
X138932848Y-84748145D01*
X138977074Y-84830886D01*
X139036591Y-84903409D01*
X139109114Y-84962926D01*
X139191855Y-85007152D01*
X139281633Y-85034386D01*
X139375000Y-85043582D01*
X141125000Y-85043582D01*
X141218367Y-85034386D01*
X141308145Y-85007152D01*
X141390886Y-84962926D01*
X141463409Y-84903409D01*
X141522926Y-84830886D01*
X141567152Y-84748145D01*
X141594386Y-84658367D01*
X141603582Y-84565000D01*
X141603582Y-84265000D01*
X141594386Y-84171633D01*
X141567152Y-84081855D01*
X141522926Y-83999114D01*
X141463409Y-83926591D01*
X141390886Y-83867074D01*
X141308145Y-83822848D01*
X141218367Y-83795614D01*
X141125000Y-83786418D01*
X139375000Y-83786418D01*
X139281633Y-83795614D01*
X139191855Y-83822848D01*
X139109114Y-83867074D01*
X139036591Y-83926591D01*
X138977074Y-83999114D01*
X138932848Y-84081855D01*
X138905614Y-84171633D01*
X138896418Y-84265000D01*
X132474250Y-84265000D01*
X132610000Y-84129250D01*
X132610000Y-84052458D01*
X132585597Y-83929777D01*
X132537730Y-83814215D01*
X132468237Y-83710211D01*
X132379789Y-83621763D01*
X132342728Y-83597000D01*
X134832795Y-83597000D01*
X134855000Y-83599187D01*
X134877205Y-83597000D01*
X134943607Y-83590460D01*
X135028810Y-83564614D01*
X135107333Y-83522643D01*
X135176159Y-83466159D01*
X135190323Y-83448900D01*
X137997981Y-80641244D01*
X137997981Y-82447765D01*
X137995793Y-82469980D01*
X138004520Y-82558587D01*
X138030366Y-82643789D01*
X138072338Y-82722313D01*
X138128822Y-82791139D01*
X138146075Y-82805298D01*
X138789685Y-83448910D01*
X138803841Y-83466159D01*
X138872667Y-83522643D01*
X138951190Y-83564614D01*
X138989727Y-83576304D01*
X139036591Y-83633409D01*
X139109114Y-83692926D01*
X139191855Y-83737152D01*
X139281633Y-83764386D01*
X139375000Y-83773582D01*
X141125000Y-83773582D01*
X141218367Y-83764386D01*
X141308145Y-83737152D01*
X141390886Y-83692926D01*
X141463409Y-83633409D01*
X141522926Y-83560886D01*
X141567152Y-83478145D01*
X141594386Y-83388367D01*
X141603582Y-83295000D01*
X141603582Y-82995000D01*
X141594386Y-82901633D01*
X141567152Y-82811855D01*
X141522926Y-82729114D01*
X141463409Y-82656591D01*
X141390886Y-82597074D01*
X141308145Y-82552848D01*
X141218367Y-82525614D01*
X141125000Y-82516418D01*
X139375000Y-82516418D01*
X139281633Y-82525614D01*
X139191855Y-82552848D01*
X139178963Y-82559739D01*
X138901980Y-82282757D01*
X138901980Y-82268311D01*
X138951190Y-82294614D01*
X138989727Y-82306304D01*
X139036591Y-82363409D01*
X139109114Y-82422926D01*
X139191855Y-82467152D01*
X139281633Y-82494386D01*
X139375000Y-82503582D01*
X141125000Y-82503582D01*
X141218367Y-82494386D01*
X141308145Y-82467152D01*
X141390886Y-82422926D01*
X141463409Y-82363409D01*
X141522926Y-82290886D01*
X141567152Y-82208145D01*
X141594386Y-82118367D01*
X141603582Y-82025000D01*
X141603582Y-81725000D01*
X141594386Y-81631633D01*
X141567152Y-81541855D01*
X141522926Y-81459114D01*
X141463409Y-81386591D01*
X141390886Y-81327074D01*
X141308145Y-81282848D01*
X141218367Y-81255614D01*
X141125000Y-81246418D01*
X139375000Y-81246418D01*
X139351990Y-81248684D01*
X139351990Y-81231316D01*
X139375000Y-81233582D01*
X141125000Y-81233582D01*
X141218367Y-81224386D01*
X141308145Y-81197152D01*
X141390886Y-81152926D01*
X141463409Y-81093409D01*
X141522926Y-81020886D01*
X141567152Y-80938145D01*
X141594386Y-80848367D01*
X141603582Y-80755000D01*
X141603582Y-80455000D01*
X141594386Y-80361633D01*
X141567152Y-80271855D01*
X141522926Y-80189114D01*
X141463409Y-80116591D01*
X141390886Y-80057074D01*
X141308145Y-80012848D01*
X141218367Y-79985614D01*
X141125000Y-79976418D01*
X139375000Y-79976418D01*
X139351990Y-79978684D01*
X139351990Y-79961316D01*
X139375000Y-79963582D01*
X141125000Y-79963582D01*
X141218367Y-79954386D01*
X141308145Y-79927152D01*
X141321038Y-79920261D01*
X142848001Y-81447226D01*
G36*
X142612901Y-60198229D02*
G01*
X142596606Y-60211602D01*
X142583234Y-60227896D01*
X142583233Y-60227897D01*
X142543246Y-60276621D01*
X142524660Y-60311394D01*
X142503596Y-60350802D01*
X142479179Y-60431291D01*
X142473001Y-60494020D01*
X142473001Y-60494030D01*
X142470936Y-60514997D01*
X142473001Y-60535964D01*
X142473002Y-61577196D01*
X142451905Y-61573000D01*
X142348095Y-61573000D01*
X142246280Y-61593252D01*
X142150372Y-61632979D01*
X142090475Y-61673000D01*
X141557074Y-61673000D01*
X141522926Y-61609114D01*
X141463409Y-61536591D01*
X141390886Y-61477074D01*
X141308145Y-61432848D01*
X141218367Y-61405614D01*
X141125000Y-61396418D01*
X139375000Y-61396418D01*
X139281633Y-61405614D01*
X139191855Y-61432848D01*
X139109114Y-61477074D01*
X139036591Y-61536591D01*
X138977074Y-61609114D01*
X138932848Y-61691855D01*
X138905614Y-61781633D01*
X138896418Y-61875000D01*
X138896418Y-62175000D01*
X138900652Y-62217990D01*
X138792192Y-62217990D01*
X138769989Y-62215803D01*
X138747786Y-62217990D01*
X138747785Y-62217990D01*
X138681383Y-62224530D01*
X138596180Y-62250376D01*
X138517657Y-62292347D01*
X138448831Y-62348831D01*
X138434675Y-62366080D01*
X138146074Y-62654683D01*
X138128821Y-62668842D01*
X138072337Y-62737668D01*
X138055554Y-62769067D01*
X138030366Y-62816191D01*
X138004520Y-62901393D01*
X137995793Y-62990000D01*
X137997980Y-63012205D01*
X137997982Y-68314176D01*
X137995794Y-68336391D01*
X138004521Y-68424998D01*
X138030367Y-68510200D01*
X138062119Y-68569604D01*
X138072339Y-68588724D01*
X138128823Y-68657550D01*
X138146077Y-68671710D01*
X138902959Y-69428593D01*
X138896418Y-69495000D01*
X138896418Y-69795000D01*
X138905614Y-69888367D01*
X138932848Y-69978145D01*
X138977074Y-70060886D01*
X139036591Y-70133409D01*
X139109114Y-70192926D01*
X139191855Y-70237152D01*
X139281633Y-70264386D01*
X139375000Y-70273582D01*
X141125000Y-70273582D01*
X141218367Y-70264386D01*
X141308145Y-70237152D01*
X141390886Y-70192926D01*
X141463409Y-70133409D01*
X141522926Y-70060886D01*
X141567152Y-69978145D01*
X141594386Y-69888367D01*
X141603582Y-69795000D01*
X141603582Y-69495000D01*
X141594386Y-69401633D01*
X141567152Y-69311855D01*
X141522926Y-69229114D01*
X141463409Y-69156591D01*
X141390886Y-69097074D01*
X141308145Y-69052848D01*
X141218367Y-69025614D01*
X141125000Y-69016418D01*
X140260641Y-69016418D01*
X140247805Y-69003582D01*
X141125000Y-69003582D01*
X141218367Y-68994386D01*
X141308145Y-68967152D01*
X141390886Y-68922926D01*
X141463409Y-68863409D01*
X141522926Y-68790886D01*
X141567152Y-68708145D01*
X141594386Y-68618367D01*
X141603582Y-68525000D01*
X141603582Y-68225000D01*
X141594386Y-68131633D01*
X141567152Y-68041855D01*
X141522926Y-67959114D01*
X141463409Y-67886591D01*
X141390886Y-67827074D01*
X141308145Y-67782848D01*
X141218367Y-67755614D01*
X141125000Y-67746418D01*
X139375000Y-67746418D01*
X139351990Y-67748684D01*
X139351990Y-67731316D01*
X139375000Y-67733582D01*
X141125000Y-67733582D01*
X141218367Y-67724386D01*
X141308145Y-67697152D01*
X141390886Y-67652926D01*
X141463409Y-67593409D01*
X141522926Y-67520886D01*
X141567152Y-67438145D01*
X141594386Y-67348367D01*
X141603582Y-67255000D01*
X141603582Y-66955000D01*
X141594386Y-66861633D01*
X141567152Y-66771855D01*
X141522926Y-66689114D01*
X141463409Y-66616591D01*
X141390886Y-66557074D01*
X141308145Y-66512848D01*
X141218367Y-66485614D01*
X141125000Y-66476418D01*
X139375000Y-66476418D01*
X139351990Y-66478684D01*
X139351990Y-66461316D01*
X139375000Y-66463582D01*
X141125000Y-66463582D01*
X141218367Y-66454386D01*
X141308145Y-66427152D01*
X141321038Y-66420261D01*
X142029682Y-67128906D01*
X142043842Y-67146160D01*
X142112668Y-67202644D01*
X142191191Y-67244615D01*
X142276393Y-67270461D01*
X142365001Y-67279188D01*
X142387206Y-67277001D01*
X146402794Y-67277001D01*
X146424999Y-67279188D01*
X146447204Y-67277001D01*
X146513606Y-67270461D01*
X146598809Y-67244615D01*
X146677332Y-67202644D01*
X146746158Y-67146160D01*
X146760322Y-67128901D01*
X147671418Y-66217806D01*
X147671418Y-66500000D01*
X147677732Y-66564103D01*
X147696430Y-66625743D01*
X147726794Y-66682550D01*
X147767657Y-66732343D01*
X147817450Y-66773206D01*
X147874257Y-66803570D01*
X147935897Y-66822268D01*
X148000000Y-66828582D01*
X149873002Y-66828582D01*
X149873002Y-68671418D01*
X148000000Y-68671418D01*
X147935897Y-68677732D01*
X147874257Y-68696430D01*
X147817450Y-68726794D01*
X147767657Y-68767657D01*
X147726794Y-68817450D01*
X147696430Y-68874257D01*
X147677732Y-68935897D01*
X147671418Y-69000000D01*
X147671418Y-69282194D01*
X146760322Y-68371099D01*
X146746158Y-68353840D01*
X146677332Y-68297356D01*
X146598809Y-68255385D01*
X146513606Y-68229539D01*
X146447204Y-68222999D01*
X146424999Y-68220812D01*
X146402794Y-68222999D01*
X143762201Y-68222999D01*
X143739998Y-68220812D01*
X143717795Y-68222999D01*
X143717794Y-68222999D01*
X143651392Y-68229539D01*
X143566189Y-68255385D01*
X143487666Y-68297356D01*
X143418840Y-68353840D01*
X143404685Y-68371088D01*
X141400671Y-70375104D01*
X141390886Y-70367074D01*
X141308145Y-70322848D01*
X141218367Y-70295614D01*
X141125000Y-70286418D01*
X139375000Y-70286418D01*
X139281633Y-70295614D01*
X139191855Y-70322848D01*
X139109114Y-70367074D01*
X139036591Y-70426591D01*
X138977074Y-70499114D01*
X138932848Y-70581855D01*
X138905614Y-70671633D01*
X138896418Y-70765000D01*
X138896418Y-71065000D01*
X138905614Y-71158367D01*
X138932848Y-71248145D01*
X138977074Y-71330886D01*
X139036591Y-71403409D01*
X139103087Y-71457980D01*
X138812224Y-71457980D01*
X138790019Y-71455793D01*
X138701412Y-71464520D01*
X138655729Y-71478378D01*
X138616210Y-71490366D01*
X138537687Y-71532337D01*
X138468861Y-71588821D01*
X138454706Y-71606069D01*
X135696100Y-74364677D01*
X135678841Y-74378841D01*
X135622357Y-74447668D01*
X135595258Y-74498367D01*
X135580386Y-74526191D01*
X135554540Y-74611393D01*
X135545813Y-74700000D01*
X135548000Y-74722205D01*
X135548001Y-77112774D01*
X135047777Y-77613000D01*
X132193289Y-77613000D01*
X132163409Y-77576591D01*
X132090886Y-77517074D01*
X132008145Y-77472848D01*
X131918367Y-77445614D01*
X131825000Y-77436418D01*
X130075000Y-77436418D01*
X129981633Y-77445614D01*
X129891855Y-77472848D01*
X129877000Y-77480788D01*
X129877000Y-77379212D01*
X129891855Y-77387152D01*
X129981633Y-77414386D01*
X130075000Y-77423582D01*
X131825000Y-77423582D01*
X131918367Y-77414386D01*
X132008145Y-77387152D01*
X132090886Y-77342926D01*
X132163409Y-77283409D01*
X132222926Y-77210886D01*
X132267152Y-77128145D01*
X132294386Y-77038367D01*
X132303582Y-76945000D01*
X132303582Y-76645000D01*
X132294386Y-76551633D01*
X132267152Y-76461855D01*
X132236278Y-76404094D01*
X132275785Y-76387730D01*
X132379789Y-76318237D01*
X132468237Y-76229789D01*
X132537730Y-76125785D01*
X132585597Y-76010223D01*
X132610000Y-75887542D01*
X132610000Y-75810750D01*
X132451250Y-75652000D01*
X131077000Y-75652000D01*
X131077000Y-75672000D01*
X130823000Y-75672000D01*
X130823000Y-75652000D01*
X130803000Y-75652000D01*
X130803000Y-75398000D01*
X130823000Y-75398000D01*
X130823000Y-74382000D01*
X131077000Y-74382000D01*
X131077000Y-75398000D01*
X132451250Y-75398000D01*
X132610000Y-75239250D01*
X132610000Y-75162458D01*
X132585597Y-75039777D01*
X132537730Y-74924215D01*
X132514868Y-74890000D01*
X132537730Y-74855785D01*
X132585597Y-74740223D01*
X132610000Y-74617542D01*
X132610000Y-74540750D01*
X132451250Y-74382000D01*
X131077000Y-74382000D01*
X130823000Y-74382000D01*
X130803000Y-74382000D01*
X130803000Y-74128000D01*
X130823000Y-74128000D01*
X130823000Y-73112000D01*
X131077000Y-73112000D01*
X131077000Y-74128000D01*
X132451250Y-74128000D01*
X132610000Y-73969250D01*
X132610000Y-73892458D01*
X132585597Y-73769777D01*
X132537730Y-73654215D01*
X132514868Y-73620000D01*
X132537730Y-73585785D01*
X132585597Y-73470223D01*
X132610000Y-73347542D01*
X132610000Y-73270750D01*
X132451250Y-73112000D01*
X131077000Y-73112000D01*
X130823000Y-73112000D01*
X130803000Y-73112000D01*
X130803000Y-72858000D01*
X130823000Y-72858000D01*
X130823000Y-72208750D01*
X131077000Y-72208750D01*
X131077000Y-72858000D01*
X132451250Y-72858000D01*
X132610000Y-72699250D01*
X132610000Y-72622458D01*
X132585597Y-72499777D01*
X132537730Y-72384215D01*
X132468237Y-72280211D01*
X132379789Y-72191763D01*
X132275785Y-72122270D01*
X132160223Y-72074403D01*
X132037542Y-72050000D01*
X131235750Y-72050000D01*
X131077000Y-72208750D01*
X130823000Y-72208750D01*
X130664250Y-72050000D01*
X129877000Y-72050000D01*
X129877000Y-71850000D01*
X130664250Y-71850000D01*
X130823000Y-71691250D01*
X130823000Y-71042000D01*
X131077000Y-71042000D01*
X131077000Y-71691250D01*
X131235750Y-71850000D01*
X132037542Y-71850000D01*
X132160223Y-71825597D01*
X132275785Y-71777730D01*
X132379789Y-71708237D01*
X132468237Y-71619789D01*
X132537730Y-71515785D01*
X132585597Y-71400223D01*
X132610000Y-71277542D01*
X132610000Y-71200750D01*
X132451250Y-71042000D01*
X131077000Y-71042000D01*
X130823000Y-71042000D01*
X130803000Y-71042000D01*
X130803000Y-70788000D01*
X130823000Y-70788000D01*
X130823000Y-70768000D01*
X131077000Y-70768000D01*
X131077000Y-70788000D01*
X132451250Y-70788000D01*
X132610000Y-70629250D01*
X132610000Y-70552458D01*
X132585597Y-70429777D01*
X132537730Y-70314215D01*
X132468237Y-70210211D01*
X132379789Y-70121763D01*
X132342728Y-70097000D01*
X134032795Y-70097000D01*
X134055000Y-70099187D01*
X134077205Y-70097000D01*
X134143607Y-70090460D01*
X134228810Y-70064614D01*
X134307333Y-70022643D01*
X134376159Y-69966159D01*
X134390323Y-69948900D01*
X137403911Y-66935314D01*
X137421159Y-66921159D01*
X137477643Y-66852333D01*
X137519614Y-66773810D01*
X137545460Y-66688607D01*
X137552000Y-66622205D01*
X137554187Y-66600001D01*
X137552000Y-66577796D01*
X137552000Y-61125455D01*
X138516082Y-60161373D01*
X138564057Y-60209348D01*
X138650372Y-60267021D01*
X138746280Y-60306748D01*
X138848095Y-60327000D01*
X138951905Y-60327000D01*
X138993865Y-60318654D01*
X138977074Y-60339114D01*
X138932848Y-60421855D01*
X138905614Y-60511633D01*
X138896418Y-60605000D01*
X138896418Y-60905000D01*
X138905614Y-60998367D01*
X138932848Y-61088145D01*
X138977074Y-61170886D01*
X139036591Y-61243409D01*
X139109114Y-61302926D01*
X139191855Y-61347152D01*
X139281633Y-61374386D01*
X139375000Y-61383582D01*
X141125000Y-61383582D01*
X141218367Y-61374386D01*
X141308145Y-61347152D01*
X141390886Y-61302926D01*
X141463409Y-61243409D01*
X141522926Y-61170886D01*
X141567152Y-61088145D01*
X141594386Y-60998367D01*
X141595627Y-60985767D01*
X141646280Y-61006748D01*
X141748095Y-61027000D01*
X141851905Y-61027000D01*
X141953720Y-61006748D01*
X142049628Y-60967021D01*
X142135943Y-60909348D01*
X142209348Y-60835943D01*
X142267021Y-60749628D01*
X142306748Y-60653720D01*
X142327000Y-60551905D01*
X142327000Y-60448095D01*
X142306748Y-60346280D01*
X142267021Y-60250372D01*
X142209348Y-60164057D01*
X142135943Y-60090652D01*
X142049628Y-60032979D01*
X141953720Y-59993252D01*
X141851905Y-59973000D01*
X141748095Y-59973000D01*
X141646280Y-59993252D01*
X141550372Y-60032979D01*
X141490475Y-60073000D01*
X141315913Y-60073000D01*
X141390886Y-60032926D01*
X141463409Y-59973409D01*
X141522926Y-59900886D01*
X141567152Y-59818145D01*
X141594386Y-59728367D01*
X141599446Y-59676989D01*
X143134140Y-59676989D01*
X142612901Y-60198229D01*
X142612901Y-60198229D01*
G37*
X142612901Y-60198229D02*
X142596606Y-60211602D01*
X142583234Y-60227896D01*
X142583233Y-60227897D01*
X142543246Y-60276621D01*
X142524660Y-60311394D01*
X142503596Y-60350802D01*
X142479179Y-60431291D01*
X142473001Y-60494020D01*
X142473001Y-60494030D01*
X142470936Y-60514997D01*
X142473001Y-60535964D01*
X142473002Y-61577196D01*
X142451905Y-61573000D01*
X142348095Y-61573000D01*
X142246280Y-61593252D01*
X142150372Y-61632979D01*
X142090475Y-61673000D01*
X141557074Y-61673000D01*
X141522926Y-61609114D01*
X141463409Y-61536591D01*
X141390886Y-61477074D01*
X141308145Y-61432848D01*
X141218367Y-61405614D01*
X141125000Y-61396418D01*
X139375000Y-61396418D01*
X139281633Y-61405614D01*
X139191855Y-61432848D01*
X139109114Y-61477074D01*
X139036591Y-61536591D01*
X138977074Y-61609114D01*
X138932848Y-61691855D01*
X138905614Y-61781633D01*
X138896418Y-61875000D01*
X138896418Y-62175000D01*
X138900652Y-62217990D01*
X138792192Y-62217990D01*
X138769989Y-62215803D01*
X138747786Y-62217990D01*
X138747785Y-62217990D01*
X138681383Y-62224530D01*
X138596180Y-62250376D01*
X138517657Y-62292347D01*
X138448831Y-62348831D01*
X138434675Y-62366080D01*
X138146074Y-62654683D01*
X138128821Y-62668842D01*
X138072337Y-62737668D01*
X138055554Y-62769067D01*
X138030366Y-62816191D01*
X138004520Y-62901393D01*
X137995793Y-62990000D01*
X137997980Y-63012205D01*
X137997982Y-68314176D01*
X137995794Y-68336391D01*
X138004521Y-68424998D01*
X138030367Y-68510200D01*
X138062119Y-68569604D01*
X138072339Y-68588724D01*
X138128823Y-68657550D01*
X138146077Y-68671710D01*
X138902959Y-69428593D01*
X138896418Y-69495000D01*
X138896418Y-69795000D01*
X138905614Y-69888367D01*
X138932848Y-69978145D01*
X138977074Y-70060886D01*
X139036591Y-70133409D01*
X139109114Y-70192926D01*
X139191855Y-70237152D01*
X139281633Y-70264386D01*
X139375000Y-70273582D01*
X141125000Y-70273582D01*
X141218367Y-70264386D01*
X141308145Y-70237152D01*
X141390886Y-70192926D01*
X141463409Y-70133409D01*
X141522926Y-70060886D01*
X141567152Y-69978145D01*
X141594386Y-69888367D01*
X141603582Y-69795000D01*
X141603582Y-69495000D01*
X141594386Y-69401633D01*
X141567152Y-69311855D01*
X141522926Y-69229114D01*
X141463409Y-69156591D01*
X141390886Y-69097074D01*
X141308145Y-69052848D01*
X141218367Y-69025614D01*
X141125000Y-69016418D01*
X140260641Y-69016418D01*
X140247805Y-69003582D01*
X141125000Y-69003582D01*
X141218367Y-68994386D01*
X141308145Y-68967152D01*
X141390886Y-68922926D01*
X141463409Y-68863409D01*
X141522926Y-68790886D01*
X141567152Y-68708145D01*
X141594386Y-68618367D01*
X141603582Y-68525000D01*
X141603582Y-68225000D01*
X141594386Y-68131633D01*
X141567152Y-68041855D01*
X141522926Y-67959114D01*
X141463409Y-67886591D01*
X141390886Y-67827074D01*
X141308145Y-67782848D01*
X141218367Y-67755614D01*
X141125000Y-67746418D01*
X139375000Y-67746418D01*
X139351990Y-67748684D01*
X139351990Y-67731316D01*
X139375000Y-67733582D01*
X141125000Y-67733582D01*
X141218367Y-67724386D01*
X141308145Y-67697152D01*
X141390886Y-67652926D01*
X141463409Y-67593409D01*
X141522926Y-67520886D01*
X141567152Y-67438145D01*
X141594386Y-67348367D01*
X141603582Y-67255000D01*
X141603582Y-66955000D01*
X141594386Y-66861633D01*
X141567152Y-66771855D01*
X141522926Y-66689114D01*
X141463409Y-66616591D01*
X141390886Y-66557074D01*
X141308145Y-66512848D01*
X141218367Y-66485614D01*
X141125000Y-66476418D01*
X139375000Y-66476418D01*
X139351990Y-66478684D01*
X139351990Y-66461316D01*
X139375000Y-66463582D01*
X141125000Y-66463582D01*
X141218367Y-66454386D01*
X141308145Y-66427152D01*
X141321038Y-66420261D01*
X142029682Y-67128906D01*
X142043842Y-67146160D01*
X142112668Y-67202644D01*
X142191191Y-67244615D01*
X142276393Y-67270461D01*
X142365001Y-67279188D01*
X142387206Y-67277001D01*
X146402794Y-67277001D01*
X146424999Y-67279188D01*
X146447204Y-67277001D01*
X146513606Y-67270461D01*
X146598809Y-67244615D01*
X146677332Y-67202644D01*
X146746158Y-67146160D01*
X146760322Y-67128901D01*
X147671418Y-66217806D01*
X147671418Y-66500000D01*
X147677732Y-66564103D01*
X147696430Y-66625743D01*
X147726794Y-66682550D01*
X147767657Y-66732343D01*
X147817450Y-66773206D01*
X147874257Y-66803570D01*
X147935897Y-66822268D01*
X148000000Y-66828582D01*
X149873002Y-66828582D01*
X149873002Y-68671418D01*
X148000000Y-68671418D01*
X147935897Y-68677732D01*
X147874257Y-68696430D01*
X147817450Y-68726794D01*
X147767657Y-68767657D01*
X147726794Y-68817450D01*
X147696430Y-68874257D01*
X147677732Y-68935897D01*
X147671418Y-69000000D01*
X147671418Y-69282194D01*
X146760322Y-68371099D01*
X146746158Y-68353840D01*
X146677332Y-68297356D01*
X146598809Y-68255385D01*
X146513606Y-68229539D01*
X146447204Y-68222999D01*
X146424999Y-68220812D01*
X146402794Y-68222999D01*
X143762201Y-68222999D01*
X143739998Y-68220812D01*
X143717795Y-68222999D01*
X143717794Y-68222999D01*
X143651392Y-68229539D01*
X143566189Y-68255385D01*
X143487666Y-68297356D01*
X143418840Y-68353840D01*
X143404685Y-68371088D01*
X141400671Y-70375104D01*
X141390886Y-70367074D01*
X141308145Y-70322848D01*
X141218367Y-70295614D01*
X141125000Y-70286418D01*
X139375000Y-70286418D01*
X139281633Y-70295614D01*
X139191855Y-70322848D01*
X139109114Y-70367074D01*
X139036591Y-70426591D01*
X138977074Y-70499114D01*
X138932848Y-70581855D01*
X138905614Y-70671633D01*
X138896418Y-70765000D01*
X138896418Y-71065000D01*
X138905614Y-71158367D01*
X138932848Y-71248145D01*
X138977074Y-71330886D01*
X139036591Y-71403409D01*
X139103087Y-71457980D01*
X138812224Y-71457980D01*
X138790019Y-71455793D01*
X138701412Y-71464520D01*
X138655729Y-71478378D01*
X138616210Y-71490366D01*
X138537687Y-71532337D01*
X138468861Y-71588821D01*
X138454706Y-71606069D01*
X135696100Y-74364677D01*
X135678841Y-74378841D01*
X135622357Y-74447668D01*
X135595258Y-74498367D01*
X135580386Y-74526191D01*
X135554540Y-74611393D01*
X135545813Y-74700000D01*
X135548000Y-74722205D01*
X135548001Y-77112774D01*
X135047777Y-77613000D01*
X132193289Y-77613000D01*
X132163409Y-77576591D01*
X132090886Y-77517074D01*
X132008145Y-77472848D01*
X131918367Y-77445614D01*
X131825000Y-77436418D01*
X130075000Y-77436418D01*
X129981633Y-77445614D01*
X129891855Y-77472848D01*
X129877000Y-77480788D01*
X129877000Y-77379212D01*
X129891855Y-77387152D01*
X129981633Y-77414386D01*
X130075000Y-77423582D01*
X131825000Y-77423582D01*
X131918367Y-77414386D01*
X132008145Y-77387152D01*
X132090886Y-77342926D01*
X132163409Y-77283409D01*
X132222926Y-77210886D01*
X132267152Y-77128145D01*
X132294386Y-77038367D01*
X132303582Y-76945000D01*
X132303582Y-76645000D01*
X132294386Y-76551633D01*
X132267152Y-76461855D01*
X132236278Y-76404094D01*
X132275785Y-76387730D01*
X132379789Y-76318237D01*
X132468237Y-76229789D01*
X132537730Y-76125785D01*
X132585597Y-76010223D01*
X132610000Y-75887542D01*
X132610000Y-75810750D01*
X132451250Y-75652000D01*
X131077000Y-75652000D01*
X131077000Y-75672000D01*
X130823000Y-75672000D01*
X130823000Y-75652000D01*
X130803000Y-75652000D01*
X130803000Y-75398000D01*
X130823000Y-75398000D01*
X130823000Y-74382000D01*
X131077000Y-74382000D01*
X131077000Y-75398000D01*
X132451250Y-75398000D01*
X132610000Y-75239250D01*
X132610000Y-75162458D01*
X132585597Y-75039777D01*
X132537730Y-74924215D01*
X132514868Y-74890000D01*
X132537730Y-74855785D01*
X132585597Y-74740223D01*
X132610000Y-74617542D01*
X132610000Y-74540750D01*
X132451250Y-74382000D01*
X131077000Y-74382000D01*
X130823000Y-74382000D01*
X130803000Y-74382000D01*
X130803000Y-74128000D01*
X130823000Y-74128000D01*
X130823000Y-73112000D01*
X131077000Y-73112000D01*
X131077000Y-74128000D01*
X132451250Y-74128000D01*
X132610000Y-73969250D01*
X132610000Y-73892458D01*
X132585597Y-73769777D01*
X132537730Y-73654215D01*
X132514868Y-73620000D01*
X132537730Y-73585785D01*
X132585597Y-73470223D01*
X132610000Y-73347542D01*
X132610000Y-73270750D01*
X132451250Y-73112000D01*
X131077000Y-73112000D01*
X130823000Y-73112000D01*
X130803000Y-73112000D01*
X130803000Y-72858000D01*
X130823000Y-72858000D01*
X130823000Y-72208750D01*
X131077000Y-72208750D01*
X131077000Y-72858000D01*
X132451250Y-72858000D01*
X132610000Y-72699250D01*
X132610000Y-72622458D01*
X132585597Y-72499777D01*
X132537730Y-72384215D01*
X132468237Y-72280211D01*
X132379789Y-72191763D01*
X132275785Y-72122270D01*
X132160223Y-72074403D01*
X132037542Y-72050000D01*
X131235750Y-72050000D01*
X131077000Y-72208750D01*
X130823000Y-72208750D01*
X130664250Y-72050000D01*
X129877000Y-72050000D01*
X129877000Y-71850000D01*
X130664250Y-71850000D01*
X130823000Y-71691250D01*
X130823000Y-71042000D01*
X131077000Y-71042000D01*
X131077000Y-71691250D01*
X131235750Y-71850000D01*
X132037542Y-71850000D01*
X132160223Y-71825597D01*
X132275785Y-71777730D01*
X132379789Y-71708237D01*
X132468237Y-71619789D01*
X132537730Y-71515785D01*
X132585597Y-71400223D01*
X132610000Y-71277542D01*
X132610000Y-71200750D01*
X132451250Y-71042000D01*
X131077000Y-71042000D01*
X130823000Y-71042000D01*
X130803000Y-71042000D01*
X130803000Y-70788000D01*
X130823000Y-70788000D01*
X130823000Y-70768000D01*
X131077000Y-70768000D01*
X131077000Y-70788000D01*
X132451250Y-70788000D01*
X132610000Y-70629250D01*
X132610000Y-70552458D01*
X132585597Y-70429777D01*
X132537730Y-70314215D01*
X132468237Y-70210211D01*
X132379789Y-70121763D01*
X132342728Y-70097000D01*
X134032795Y-70097000D01*
X134055000Y-70099187D01*
X134077205Y-70097000D01*
X134143607Y-70090460D01*
X134228810Y-70064614D01*
X134307333Y-70022643D01*
X134376159Y-69966159D01*
X134390323Y-69948900D01*
X137403911Y-66935314D01*
X137421159Y-66921159D01*
X137477643Y-66852333D01*
X137519614Y-66773810D01*
X137545460Y-66688607D01*
X137552000Y-66622205D01*
X137554187Y-66600001D01*
X137552000Y-66577796D01*
X137552000Y-61125455D01*
X138516082Y-60161373D01*
X138564057Y-60209348D01*
X138650372Y-60267021D01*
X138746280Y-60306748D01*
X138848095Y-60327000D01*
X138951905Y-60327000D01*
X138993865Y-60318654D01*
X138977074Y-60339114D01*
X138932848Y-60421855D01*
X138905614Y-60511633D01*
X138896418Y-60605000D01*
X138896418Y-60905000D01*
X138905614Y-60998367D01*
X138932848Y-61088145D01*
X138977074Y-61170886D01*
X139036591Y-61243409D01*
X139109114Y-61302926D01*
X139191855Y-61347152D01*
X139281633Y-61374386D01*
X139375000Y-61383582D01*
X141125000Y-61383582D01*
X141218367Y-61374386D01*
X141308145Y-61347152D01*
X141390886Y-61302926D01*
X141463409Y-61243409D01*
X141522926Y-61170886D01*
X141567152Y-61088145D01*
X141594386Y-60998367D01*
X141595627Y-60985767D01*
X141646280Y-61006748D01*
X141748095Y-61027000D01*
X141851905Y-61027000D01*
X141953720Y-61006748D01*
X142049628Y-60967021D01*
X142135943Y-60909348D01*
X142209348Y-60835943D01*
X142267021Y-60749628D01*
X142306748Y-60653720D01*
X142327000Y-60551905D01*
X142327000Y-60448095D01*
X142306748Y-60346280D01*
X142267021Y-60250372D01*
X142209348Y-60164057D01*
X142135943Y-60090652D01*
X142049628Y-60032979D01*
X141953720Y-59993252D01*
X141851905Y-59973000D01*
X141748095Y-59973000D01*
X141646280Y-59993252D01*
X141550372Y-60032979D01*
X141490475Y-60073000D01*
X141315913Y-60073000D01*
X141390886Y-60032926D01*
X141463409Y-59973409D01*
X141522926Y-59900886D01*
X141567152Y-59818145D01*
X141594386Y-59728367D01*
X141599446Y-59676989D01*
X143134140Y-59676989D01*
X142612901Y-60198229D01*
G36*
X131212895Y-49983237D02*
G01*
X131196606Y-49996605D01*
X131183237Y-50012895D01*
X131183232Y-50012900D01*
X131143245Y-50061624D01*
X131130007Y-50086392D01*
X131103596Y-50135804D01*
X131092792Y-50171418D01*
X130500000Y-50171418D01*
X130435897Y-50177732D01*
X130374257Y-50196430D01*
X130317450Y-50226794D01*
X130267657Y-50267657D01*
X130226794Y-50317450D01*
X130196430Y-50374257D01*
X130177732Y-50435897D01*
X130171418Y-50500000D01*
X130171418Y-52500000D01*
X130177732Y-52564103D01*
X130196430Y-52625743D01*
X130226794Y-52682550D01*
X130267657Y-52732343D01*
X130317450Y-52773206D01*
X130374257Y-52803570D01*
X130435897Y-52822268D01*
X130500000Y-52828582D01*
X132500000Y-52828582D01*
X132564103Y-52822268D01*
X132625743Y-52803570D01*
X132682550Y-52773206D01*
X132732343Y-52732343D01*
X132773206Y-52682550D01*
X132803570Y-52625743D01*
X132822268Y-52564103D01*
X132828582Y-52500000D01*
X132828582Y-51785750D01*
X133365000Y-51785750D01*
X133365000Y-52562542D01*
X133389403Y-52685223D01*
X133437270Y-52800785D01*
X133506763Y-52904789D01*
X133595211Y-52993237D01*
X133699215Y-53062730D01*
X133814777Y-53110597D01*
X133937458Y-53135000D01*
X134714250Y-53135000D01*
X134873000Y-52976250D01*
X134873000Y-51627000D01*
X135127000Y-51627000D01*
X135127000Y-52976250D01*
X135285750Y-53135000D01*
X136062542Y-53135000D01*
X136185223Y-53110597D01*
X136300785Y-53062730D01*
X136404789Y-52993237D01*
X136493237Y-52904789D01*
X136562730Y-52800785D01*
X136610597Y-52685223D01*
X136635000Y-52562542D01*
X136635000Y-51785750D01*
X136476250Y-51627000D01*
X135127000Y-51627000D01*
X134873000Y-51627000D01*
X133523750Y-51627000D01*
X133365000Y-51785750D01*
X132828582Y-51785750D01*
X132828582Y-50500000D01*
X132822268Y-50435897D01*
X132803570Y-50374257D01*
X132778311Y-50327001D01*
X133386971Y-50327001D01*
X133365000Y-50437458D01*
X133365000Y-51214250D01*
X133523750Y-51373000D01*
X134873000Y-51373000D01*
X134873000Y-51353000D01*
X135127000Y-51353000D01*
X135127000Y-51373000D01*
X136476250Y-51373000D01*
X136635000Y-51214250D01*
X136635000Y-50437458D01*
X136613029Y-50327001D01*
X137432369Y-50327001D01*
X137426706Y-50337595D01*
X137400326Y-50424560D01*
X137391418Y-50515000D01*
X137391418Y-50885000D01*
X137400326Y-50975440D01*
X137426706Y-51062405D01*
X137469546Y-51142552D01*
X137527198Y-51212802D01*
X137597448Y-51270454D01*
X137677595Y-51313294D01*
X137726561Y-51328148D01*
X137690652Y-51364057D01*
X137632979Y-51450372D01*
X137593252Y-51546280D01*
X137573000Y-51648095D01*
X137573000Y-51751905D01*
X137593252Y-51853720D01*
X137632979Y-51949628D01*
X137690652Y-52035943D01*
X137764057Y-52109348D01*
X137798001Y-52132028D01*
X137798001Y-52133933D01*
X137796418Y-52150000D01*
X137796418Y-52468857D01*
X137795813Y-52475000D01*
X137796418Y-52481143D01*
X137796418Y-52741771D01*
X137735897Y-52747732D01*
X137674257Y-52766430D01*
X137617450Y-52796794D01*
X137567657Y-52837657D01*
X137526794Y-52887450D01*
X137496430Y-52944257D01*
X137477732Y-53005897D01*
X137471418Y-53070000D01*
X137471418Y-54730000D01*
X137477732Y-54794103D01*
X137496430Y-54855743D01*
X137526794Y-54912550D01*
X137567657Y-54962343D01*
X137617450Y-55003206D01*
X137674257Y-55033570D01*
X137735897Y-55052268D01*
X137796418Y-55058229D01*
X137796418Y-55174712D01*
X137212900Y-55758232D01*
X137196605Y-55771605D01*
X137183233Y-55787899D01*
X137183232Y-55787900D01*
X137143245Y-55836624D01*
X137122052Y-55876274D01*
X137103595Y-55910805D01*
X137079178Y-55991294D01*
X137073000Y-56054023D01*
X137073000Y-56054033D01*
X137070935Y-56075000D01*
X137073000Y-56095968D01*
X137073001Y-56390475D01*
X137032979Y-56450372D01*
X136993252Y-56546280D01*
X136973000Y-56648095D01*
X136973000Y-56751905D01*
X136993252Y-56853720D01*
X137032979Y-56949628D01*
X137090652Y-57035943D01*
X137164057Y-57109348D01*
X137250372Y-57167021D01*
X137346280Y-57206748D01*
X137448095Y-57227000D01*
X137551905Y-57227000D01*
X137653720Y-57206748D01*
X137749628Y-57167021D01*
X137835943Y-57109348D01*
X137909348Y-57035943D01*
X137967021Y-56949628D01*
X138006748Y-56853720D01*
X138027000Y-56751905D01*
X138027000Y-56648095D01*
X138006748Y-56546280D01*
X137967021Y-56450372D01*
X137927000Y-56390475D01*
X137927000Y-56251868D01*
X138142004Y-56036865D01*
X138132979Y-56050372D01*
X138093252Y-56146280D01*
X138073000Y-56248095D01*
X138073000Y-56351905D01*
X138093252Y-56453720D01*
X138132979Y-56549628D01*
X138190652Y-56635943D01*
X138264057Y-56709348D01*
X138350372Y-56767021D01*
X138446280Y-56806748D01*
X138548095Y-56827000D01*
X138628313Y-56827000D01*
X138628655Y-56828720D01*
X138638407Y-56852263D01*
X138606021Y-56878841D01*
X138591861Y-56896095D01*
X136889967Y-58597990D01*
X136872212Y-58597990D01*
X136850009Y-58595803D01*
X136827806Y-58597990D01*
X136827805Y-58597990D01*
X136761403Y-58604530D01*
X136676200Y-58630376D01*
X136597677Y-58672347D01*
X136528851Y-58728831D01*
X136514695Y-58746080D01*
X135196100Y-60064677D01*
X135178841Y-60078841D01*
X135122357Y-60147668D01*
X135096200Y-60196605D01*
X135080386Y-60226191D01*
X135054540Y-60311393D01*
X135045813Y-60400000D01*
X135048000Y-60422205D01*
X135048001Y-63812775D01*
X134747777Y-64113000D01*
X132193289Y-64113000D01*
X132163409Y-64076591D01*
X132090886Y-64017074D01*
X132008145Y-63972848D01*
X131918367Y-63945614D01*
X131825000Y-63936418D01*
X130075000Y-63936418D01*
X129981633Y-63945614D01*
X129891855Y-63972848D01*
X129877000Y-63980788D01*
X129877000Y-63879212D01*
X129891855Y-63887152D01*
X129981633Y-63914386D01*
X130075000Y-63923582D01*
X131825000Y-63923582D01*
X131918367Y-63914386D01*
X132008145Y-63887152D01*
X132090886Y-63842926D01*
X132163409Y-63783409D01*
X132222926Y-63710886D01*
X132267152Y-63628145D01*
X132294386Y-63538367D01*
X132303582Y-63445000D01*
X132303582Y-63145000D01*
X132294386Y-63051633D01*
X132267152Y-62961855D01*
X132236278Y-62904094D01*
X132275785Y-62887730D01*
X132379789Y-62818237D01*
X132468237Y-62729789D01*
X132537730Y-62625785D01*
X132585597Y-62510223D01*
X132610000Y-62387542D01*
X132610000Y-62310750D01*
X132451250Y-62152000D01*
X131077000Y-62152000D01*
X131077000Y-62172000D01*
X130823000Y-62172000D01*
X130823000Y-62152000D01*
X130803000Y-62152000D01*
X130803000Y-61898000D01*
X130823000Y-61898000D01*
X130823000Y-60882000D01*
X131077000Y-60882000D01*
X131077000Y-61898000D01*
X132451250Y-61898000D01*
X132610000Y-61739250D01*
X132610000Y-61662458D01*
X132585597Y-61539777D01*
X132537730Y-61424215D01*
X132514868Y-61390000D01*
X132537730Y-61355785D01*
X132585597Y-61240223D01*
X132610000Y-61117542D01*
X132610000Y-61040750D01*
X132451250Y-60882000D01*
X131077000Y-60882000D01*
X130823000Y-60882000D01*
X130803000Y-60882000D01*
X130803000Y-60628000D01*
X130823000Y-60628000D01*
X130823000Y-59612000D01*
X131077000Y-59612000D01*
X131077000Y-60628000D01*
X132451250Y-60628000D01*
X132610000Y-60469250D01*
X132610000Y-60392458D01*
X132585597Y-60269777D01*
X132537730Y-60154215D01*
X132514868Y-60120000D01*
X132537730Y-60085785D01*
X132585597Y-59970223D01*
X132610000Y-59847542D01*
X132610000Y-59770750D01*
X132451250Y-59612000D01*
X131077000Y-59612000D01*
X130823000Y-59612000D01*
X130803000Y-59612000D01*
X130803000Y-59358000D01*
X130823000Y-59358000D01*
X130823000Y-58708750D01*
X131077000Y-58708750D01*
X131077000Y-59358000D01*
X132451250Y-59358000D01*
X132610000Y-59199250D01*
X132610000Y-59122458D01*
X132585597Y-58999777D01*
X132537730Y-58884215D01*
X132468237Y-58780211D01*
X132379789Y-58691763D01*
X132275785Y-58622270D01*
X132160223Y-58574403D01*
X132037542Y-58550000D01*
X131235750Y-58550000D01*
X131077000Y-58708750D01*
X130823000Y-58708750D01*
X130664250Y-58550000D01*
X129877000Y-58550000D01*
X129877000Y-54000000D01*
X130171418Y-54000000D01*
X130171418Y-56000000D01*
X130177732Y-56064103D01*
X130196430Y-56125743D01*
X130226794Y-56182550D01*
X130267657Y-56232343D01*
X130317450Y-56273206D01*
X130374257Y-56303570D01*
X130435897Y-56322268D01*
X130500000Y-56328582D01*
X131073001Y-56328582D01*
X131073001Y-56890474D01*
X131032979Y-56950372D01*
X130993252Y-57046280D01*
X130973000Y-57148095D01*
X130973000Y-57251905D01*
X130993252Y-57353720D01*
X131032979Y-57449628D01*
X131090652Y-57535943D01*
X131164057Y-57609348D01*
X131250372Y-57667021D01*
X131346280Y-57706748D01*
X131448095Y-57727000D01*
X131551905Y-57727000D01*
X131653720Y-57706748D01*
X131749628Y-57667021D01*
X131835943Y-57609348D01*
X131909348Y-57535943D01*
X131967021Y-57449628D01*
X132006748Y-57353720D01*
X132027000Y-57251905D01*
X132027000Y-57148095D01*
X132006748Y-57046280D01*
X131967021Y-56950372D01*
X131927000Y-56890475D01*
X131927000Y-56328582D01*
X132500000Y-56328582D01*
X132564103Y-56322268D01*
X132625743Y-56303570D01*
X132682550Y-56273206D01*
X132732343Y-56232343D01*
X132773206Y-56182550D01*
X132803570Y-56125743D01*
X132822268Y-56064103D01*
X132828582Y-56000000D01*
X132828582Y-54000000D01*
X133671418Y-54000000D01*
X133671418Y-56000000D01*
X133677732Y-56064103D01*
X133696430Y-56125743D01*
X133726794Y-56182550D01*
X133767657Y-56232343D01*
X133817450Y-56273206D01*
X133874257Y-56303570D01*
X133935897Y-56322268D01*
X134000000Y-56328582D01*
X134573001Y-56328582D01*
X134573001Y-56790474D01*
X134532979Y-56850372D01*
X134493252Y-56946280D01*
X134473000Y-57048095D01*
X134473000Y-57151905D01*
X134493252Y-57253720D01*
X134532979Y-57349628D01*
X134590652Y-57435943D01*
X134664057Y-57509348D01*
X134750372Y-57567021D01*
X134846280Y-57606748D01*
X134948095Y-57627000D01*
X135051905Y-57627000D01*
X135153720Y-57606748D01*
X135249628Y-57567021D01*
X135335943Y-57509348D01*
X135409348Y-57435943D01*
X135467021Y-57349628D01*
X135506748Y-57253720D01*
X135527000Y-57151905D01*
X135527000Y-57048095D01*
X135506748Y-56946280D01*
X135467021Y-56850372D01*
X135427000Y-56790475D01*
X135427000Y-56328582D01*
X136000000Y-56328582D01*
X136064103Y-56322268D01*
X136125743Y-56303570D01*
X136182550Y-56273206D01*
X136232343Y-56232343D01*
X136273206Y-56182550D01*
X136303570Y-56125743D01*
X136322268Y-56064103D01*
X136328582Y-56000000D01*
X136328582Y-54000000D01*
X136322268Y-53935897D01*
X136303570Y-53874257D01*
X136273206Y-53817450D01*
X136232343Y-53767657D01*
X136182550Y-53726794D01*
X136125743Y-53696430D01*
X136064103Y-53677732D01*
X136000000Y-53671418D01*
X134000000Y-53671418D01*
X133935897Y-53677732D01*
X133874257Y-53696430D01*
X133817450Y-53726794D01*
X133767657Y-53767657D01*
X133726794Y-53817450D01*
X133696430Y-53874257D01*
X133677732Y-53935897D01*
X133671418Y-54000000D01*
X132828582Y-54000000D01*
X132822268Y-53935897D01*
X132803570Y-53874257D01*
X132773206Y-53817450D01*
X132732343Y-53767657D01*
X132682550Y-53726794D01*
X132625743Y-53696430D01*
X132564103Y-53677732D01*
X132500000Y-53671418D01*
X130500000Y-53671418D01*
X130435897Y-53677732D01*
X130374257Y-53696430D01*
X130317450Y-53726794D01*
X130267657Y-53767657D01*
X130226794Y-53817450D01*
X130196430Y-53874257D01*
X130177732Y-53935897D01*
X130171418Y-54000000D01*
X129877000Y-54000000D01*
X129877000Y-49877000D01*
X131319132Y-49877000D01*
X131212895Y-49983237D01*
X131212895Y-49983237D01*
G37*
X131212895Y-49983237D02*
X131196606Y-49996605D01*
X131183237Y-50012895D01*
X131183232Y-50012900D01*
X131143245Y-50061624D01*
X131130007Y-50086392D01*
X131103596Y-50135804D01*
X131092792Y-50171418D01*
X130500000Y-50171418D01*
X130435897Y-50177732D01*
X130374257Y-50196430D01*
X130317450Y-50226794D01*
X130267657Y-50267657D01*
X130226794Y-50317450D01*
X130196430Y-50374257D01*
X130177732Y-50435897D01*
X130171418Y-50500000D01*
X130171418Y-52500000D01*
X130177732Y-52564103D01*
X130196430Y-52625743D01*
X130226794Y-52682550D01*
X130267657Y-52732343D01*
X130317450Y-52773206D01*
X130374257Y-52803570D01*
X130435897Y-52822268D01*
X130500000Y-52828582D01*
X132500000Y-52828582D01*
X132564103Y-52822268D01*
X132625743Y-52803570D01*
X132682550Y-52773206D01*
X132732343Y-52732343D01*
X132773206Y-52682550D01*
X132803570Y-52625743D01*
X132822268Y-52564103D01*
X132828582Y-52500000D01*
X132828582Y-51785750D01*
X133365000Y-51785750D01*
X133365000Y-52562542D01*
X133389403Y-52685223D01*
X133437270Y-52800785D01*
X133506763Y-52904789D01*
X133595211Y-52993237D01*
X133699215Y-53062730D01*
X133814777Y-53110597D01*
X133937458Y-53135000D01*
X134714250Y-53135000D01*
X134873000Y-52976250D01*
X134873000Y-51627000D01*
X135127000Y-51627000D01*
X135127000Y-52976250D01*
X135285750Y-53135000D01*
X136062542Y-53135000D01*
X136185223Y-53110597D01*
X136300785Y-53062730D01*
X136404789Y-52993237D01*
X136493237Y-52904789D01*
X136562730Y-52800785D01*
X136610597Y-52685223D01*
X136635000Y-52562542D01*
X136635000Y-51785750D01*
X136476250Y-51627000D01*
X135127000Y-51627000D01*
X134873000Y-51627000D01*
X133523750Y-51627000D01*
X133365000Y-51785750D01*
X132828582Y-51785750D01*
X132828582Y-50500000D01*
X132822268Y-50435897D01*
X132803570Y-50374257D01*
X132778311Y-50327001D01*
X133386971Y-50327001D01*
X133365000Y-50437458D01*
X133365000Y-51214250D01*
X133523750Y-51373000D01*
X134873000Y-51373000D01*
X134873000Y-51353000D01*
X135127000Y-51353000D01*
X135127000Y-51373000D01*
X136476250Y-51373000D01*
X136635000Y-51214250D01*
X136635000Y-50437458D01*
X136613029Y-50327001D01*
X137432369Y-50327001D01*
X137426706Y-50337595D01*
X137400326Y-50424560D01*
X137391418Y-50515000D01*
X137391418Y-50885000D01*
X137400326Y-50975440D01*
X137426706Y-51062405D01*
X137469546Y-51142552D01*
X137527198Y-51212802D01*
X137597448Y-51270454D01*
X137677595Y-51313294D01*
X137726561Y-51328148D01*
X137690652Y-51364057D01*
X137632979Y-51450372D01*
X137593252Y-51546280D01*
X137573000Y-51648095D01*
X137573000Y-51751905D01*
X137593252Y-51853720D01*
X137632979Y-51949628D01*
X137690652Y-52035943D01*
X137764057Y-52109348D01*
X137798001Y-52132028D01*
X137798001Y-52133933D01*
X137796418Y-52150000D01*
X137796418Y-52468857D01*
X137795813Y-52475000D01*
X137796418Y-52481143D01*
X137796418Y-52741771D01*
X137735897Y-52747732D01*
X137674257Y-52766430D01*
X137617450Y-52796794D01*
X137567657Y-52837657D01*
X137526794Y-52887450D01*
X137496430Y-52944257D01*
X137477732Y-53005897D01*
X137471418Y-53070000D01*
X137471418Y-54730000D01*
X137477732Y-54794103D01*
X137496430Y-54855743D01*
X137526794Y-54912550D01*
X137567657Y-54962343D01*
X137617450Y-55003206D01*
X137674257Y-55033570D01*
X137735897Y-55052268D01*
X137796418Y-55058229D01*
X137796418Y-55174712D01*
X137212900Y-55758232D01*
X137196605Y-55771605D01*
X137183233Y-55787899D01*
X137183232Y-55787900D01*
X137143245Y-55836624D01*
X137122052Y-55876274D01*
X137103595Y-55910805D01*
X137079178Y-55991294D01*
X137073000Y-56054023D01*
X137073000Y-56054033D01*
X137070935Y-56075000D01*
X137073000Y-56095968D01*
X137073001Y-56390475D01*
X137032979Y-56450372D01*
X136993252Y-56546280D01*
X136973000Y-56648095D01*
X136973000Y-56751905D01*
X136993252Y-56853720D01*
X137032979Y-56949628D01*
X137090652Y-57035943D01*
X137164057Y-57109348D01*
X137250372Y-57167021D01*
X137346280Y-57206748D01*
X137448095Y-57227000D01*
X137551905Y-57227000D01*
X137653720Y-57206748D01*
X137749628Y-57167021D01*
X137835943Y-57109348D01*
X137909348Y-57035943D01*
X137967021Y-56949628D01*
X138006748Y-56853720D01*
X138027000Y-56751905D01*
X138027000Y-56648095D01*
X138006748Y-56546280D01*
X137967021Y-56450372D01*
X137927000Y-56390475D01*
X137927000Y-56251868D01*
X138142004Y-56036865D01*
X138132979Y-56050372D01*
X138093252Y-56146280D01*
X138073000Y-56248095D01*
X138073000Y-56351905D01*
X138093252Y-56453720D01*
X138132979Y-56549628D01*
X138190652Y-56635943D01*
X138264057Y-56709348D01*
X138350372Y-56767021D01*
X138446280Y-56806748D01*
X138548095Y-56827000D01*
X138628313Y-56827000D01*
X138628655Y-56828720D01*
X138638407Y-56852263D01*
X138606021Y-56878841D01*
X138591861Y-56896095D01*
X136889967Y-58597990D01*
X136872212Y-58597990D01*
X136850009Y-58595803D01*
X136827806Y-58597990D01*
X136827805Y-58597990D01*
X136761403Y-58604530D01*
X136676200Y-58630376D01*
X136597677Y-58672347D01*
X136528851Y-58728831D01*
X136514695Y-58746080D01*
X135196100Y-60064677D01*
X135178841Y-60078841D01*
X135122357Y-60147668D01*
X135096200Y-60196605D01*
X135080386Y-60226191D01*
X135054540Y-60311393D01*
X135045813Y-60400000D01*
X135048000Y-60422205D01*
X135048001Y-63812775D01*
X134747777Y-64113000D01*
X132193289Y-64113000D01*
X132163409Y-64076591D01*
X132090886Y-64017074D01*
X132008145Y-63972848D01*
X131918367Y-63945614D01*
X131825000Y-63936418D01*
X130075000Y-63936418D01*
X129981633Y-63945614D01*
X129891855Y-63972848D01*
X129877000Y-63980788D01*
X129877000Y-63879212D01*
X129891855Y-63887152D01*
X129981633Y-63914386D01*
X130075000Y-63923582D01*
X131825000Y-63923582D01*
X131918367Y-63914386D01*
X132008145Y-63887152D01*
X132090886Y-63842926D01*
X132163409Y-63783409D01*
X132222926Y-63710886D01*
X132267152Y-63628145D01*
X132294386Y-63538367D01*
X132303582Y-63445000D01*
X132303582Y-63145000D01*
X132294386Y-63051633D01*
X132267152Y-62961855D01*
X132236278Y-62904094D01*
X132275785Y-62887730D01*
X132379789Y-62818237D01*
X132468237Y-62729789D01*
X132537730Y-62625785D01*
X132585597Y-62510223D01*
X132610000Y-62387542D01*
X132610000Y-62310750D01*
X132451250Y-62152000D01*
X131077000Y-62152000D01*
X131077000Y-62172000D01*
X130823000Y-62172000D01*
X130823000Y-62152000D01*
X130803000Y-62152000D01*
X130803000Y-61898000D01*
X130823000Y-61898000D01*
X130823000Y-60882000D01*
X131077000Y-60882000D01*
X131077000Y-61898000D01*
X132451250Y-61898000D01*
X132610000Y-61739250D01*
X132610000Y-61662458D01*
X132585597Y-61539777D01*
X132537730Y-61424215D01*
X132514868Y-61390000D01*
X132537730Y-61355785D01*
X132585597Y-61240223D01*
X132610000Y-61117542D01*
X132610000Y-61040750D01*
X132451250Y-60882000D01*
X131077000Y-60882000D01*
X130823000Y-60882000D01*
X130803000Y-60882000D01*
X130803000Y-60628000D01*
X130823000Y-60628000D01*
X130823000Y-59612000D01*
X131077000Y-59612000D01*
X131077000Y-60628000D01*
X132451250Y-60628000D01*
X132610000Y-60469250D01*
X132610000Y-60392458D01*
X132585597Y-60269777D01*
X132537730Y-60154215D01*
X132514868Y-60120000D01*
X132537730Y-60085785D01*
X132585597Y-59970223D01*
X132610000Y-59847542D01*
X132610000Y-59770750D01*
X132451250Y-59612000D01*
X131077000Y-59612000D01*
X130823000Y-59612000D01*
X130803000Y-59612000D01*
X130803000Y-59358000D01*
X130823000Y-59358000D01*
X130823000Y-58708750D01*
X131077000Y-58708750D01*
X131077000Y-59358000D01*
X132451250Y-59358000D01*
X132610000Y-59199250D01*
X132610000Y-59122458D01*
X132585597Y-58999777D01*
X132537730Y-58884215D01*
X132468237Y-58780211D01*
X132379789Y-58691763D01*
X132275785Y-58622270D01*
X132160223Y-58574403D01*
X132037542Y-58550000D01*
X131235750Y-58550000D01*
X131077000Y-58708750D01*
X130823000Y-58708750D01*
X130664250Y-58550000D01*
X129877000Y-58550000D01*
X129877000Y-54000000D01*
X130171418Y-54000000D01*
X130171418Y-56000000D01*
X130177732Y-56064103D01*
X130196430Y-56125743D01*
X130226794Y-56182550D01*
X130267657Y-56232343D01*
X130317450Y-56273206D01*
X130374257Y-56303570D01*
X130435897Y-56322268D01*
X130500000Y-56328582D01*
X131073001Y-56328582D01*
X131073001Y-56890474D01*
X131032979Y-56950372D01*
X130993252Y-57046280D01*
X130973000Y-57148095D01*
X130973000Y-57251905D01*
X130993252Y-57353720D01*
X131032979Y-57449628D01*
X131090652Y-57535943D01*
X131164057Y-57609348D01*
X131250372Y-57667021D01*
X131346280Y-57706748D01*
X131448095Y-57727000D01*
X131551905Y-57727000D01*
X131653720Y-57706748D01*
X131749628Y-57667021D01*
X131835943Y-57609348D01*
X131909348Y-57535943D01*
X131967021Y-57449628D01*
X132006748Y-57353720D01*
X132027000Y-57251905D01*
X132027000Y-57148095D01*
X132006748Y-57046280D01*
X131967021Y-56950372D01*
X131927000Y-56890475D01*
X131927000Y-56328582D01*
X132500000Y-56328582D01*
X132564103Y-56322268D01*
X132625743Y-56303570D01*
X132682550Y-56273206D01*
X132732343Y-56232343D01*
X132773206Y-56182550D01*
X132803570Y-56125743D01*
X132822268Y-56064103D01*
X132828582Y-56000000D01*
X132828582Y-54000000D01*
X133671418Y-54000000D01*
X133671418Y-56000000D01*
X133677732Y-56064103D01*
X133696430Y-56125743D01*
X133726794Y-56182550D01*
X133767657Y-56232343D01*
X133817450Y-56273206D01*
X133874257Y-56303570D01*
X133935897Y-56322268D01*
X134000000Y-56328582D01*
X134573001Y-56328582D01*
X134573001Y-56790474D01*
X134532979Y-56850372D01*
X134493252Y-56946280D01*
X134473000Y-57048095D01*
X134473000Y-57151905D01*
X134493252Y-57253720D01*
X134532979Y-57349628D01*
X134590652Y-57435943D01*
X134664057Y-57509348D01*
X134750372Y-57567021D01*
X134846280Y-57606748D01*
X134948095Y-57627000D01*
X135051905Y-57627000D01*
X135153720Y-57606748D01*
X135249628Y-57567021D01*
X135335943Y-57509348D01*
X135409348Y-57435943D01*
X135467021Y-57349628D01*
X135506748Y-57253720D01*
X135527000Y-57151905D01*
X135527000Y-57048095D01*
X135506748Y-56946280D01*
X135467021Y-56850372D01*
X135427000Y-56790475D01*
X135427000Y-56328582D01*
X136000000Y-56328582D01*
X136064103Y-56322268D01*
X136125743Y-56303570D01*
X136182550Y-56273206D01*
X136232343Y-56232343D01*
X136273206Y-56182550D01*
X136303570Y-56125743D01*
X136322268Y-56064103D01*
X136328582Y-56000000D01*
X136328582Y-54000000D01*
X136322268Y-53935897D01*
X136303570Y-53874257D01*
X136273206Y-53817450D01*
X136232343Y-53767657D01*
X136182550Y-53726794D01*
X136125743Y-53696430D01*
X136064103Y-53677732D01*
X136000000Y-53671418D01*
X134000000Y-53671418D01*
X133935897Y-53677732D01*
X133874257Y-53696430D01*
X133817450Y-53726794D01*
X133767657Y-53767657D01*
X133726794Y-53817450D01*
X133696430Y-53874257D01*
X133677732Y-53935897D01*
X133671418Y-54000000D01*
X132828582Y-54000000D01*
X132822268Y-53935897D01*
X132803570Y-53874257D01*
X132773206Y-53817450D01*
X132732343Y-53767657D01*
X132682550Y-53726794D01*
X132625743Y-53696430D01*
X132564103Y-53677732D01*
X132500000Y-53671418D01*
X130500000Y-53671418D01*
X130435897Y-53677732D01*
X130374257Y-53696430D01*
X130317450Y-53726794D01*
X130267657Y-53767657D01*
X130226794Y-53817450D01*
X130196430Y-53874257D01*
X130177732Y-53935897D01*
X130171418Y-54000000D01*
X129877000Y-54000000D01*
X129877000Y-49877000D01*
X131319132Y-49877000D01*
X131212895Y-49983237D01*
G36*
X142221101Y-51054674D02*
G01*
X142203842Y-51068838D01*
X142147358Y-51137665D01*
X142116131Y-51196088D01*
X142105387Y-51216188D01*
X142079541Y-51301390D01*
X142070814Y-51389997D01*
X142073001Y-51412202D01*
X142073001Y-51544696D01*
X142060223Y-51539403D01*
X141965657Y-51520593D01*
X141812500Y-51673750D01*
X141812500Y-52348000D01*
X141875000Y-52348000D01*
X141875000Y-52602000D01*
X141812500Y-52602000D01*
X141812500Y-52622000D01*
X141703582Y-52622000D01*
X141703582Y-52150000D01*
X141697268Y-52085897D01*
X141692756Y-52071022D01*
X141696404Y-52064197D01*
X141720821Y-51983708D01*
X141726999Y-51920979D01*
X141726999Y-51920966D01*
X141729064Y-51900002D01*
X141726999Y-51879037D01*
X141726999Y-51515000D01*
X141937542Y-51515000D01*
X141965657Y-51520593D01*
X141971250Y-51515000D01*
X141937542Y-51515000D01*
X141726999Y-51515000D01*
X141726999Y-51506870D01*
X141797106Y-51436763D01*
X141813395Y-51423395D01*
X141826764Y-51407105D01*
X141826768Y-51407101D01*
X141866755Y-51358376D01*
X141890852Y-51313294D01*
X141906405Y-51284196D01*
X141913233Y-51261689D01*
X141972802Y-51212802D01*
X142030454Y-51142552D01*
X142073294Y-51062405D01*
X142099674Y-50975440D01*
X142108582Y-50885000D01*
X142108582Y-50695287D01*
X142183067Y-50620802D01*
X142253720Y-50606748D01*
X142349628Y-50567021D01*
X142435943Y-50509348D01*
X142509348Y-50435943D01*
X142567021Y-50349628D01*
X142606748Y-50253720D01*
X142627000Y-50151905D01*
X142627000Y-50048095D01*
X142606748Y-49946280D01*
X142578051Y-49877000D01*
X143398774Y-49877000D01*
X142221101Y-51054674D01*
X142221101Y-51054674D01*
G37*
X142221101Y-51054674D02*
X142203842Y-51068838D01*
X142147358Y-51137665D01*
X142116131Y-51196088D01*
X142105387Y-51216188D01*
X142079541Y-51301390D01*
X142070814Y-51389997D01*
X142073001Y-51412202D01*
X142073001Y-51544696D01*
X142060223Y-51539403D01*
X141965657Y-51520593D01*
X141812500Y-51673750D01*
X141812500Y-52348000D01*
X141875000Y-52348000D01*
X141875000Y-52602000D01*
X141812500Y-52602000D01*
X141812500Y-52622000D01*
X141703582Y-52622000D01*
X141703582Y-52150000D01*
X141697268Y-52085897D01*
X141692756Y-52071022D01*
X141696404Y-52064197D01*
X141720821Y-51983708D01*
X141726999Y-51920979D01*
X141726999Y-51920966D01*
X141729064Y-51900002D01*
X141726999Y-51879037D01*
X141726999Y-51515000D01*
X141937542Y-51515000D01*
X141965657Y-51520593D01*
X141971250Y-51515000D01*
X141937542Y-51515000D01*
X141726999Y-51515000D01*
X141726999Y-51506870D01*
X141797106Y-51436763D01*
X141813395Y-51423395D01*
X141826764Y-51407105D01*
X141826768Y-51407101D01*
X141866755Y-51358376D01*
X141890852Y-51313294D01*
X141906405Y-51284196D01*
X141913233Y-51261689D01*
X141972802Y-51212802D01*
X142030454Y-51142552D01*
X142073294Y-51062405D01*
X142099674Y-50975440D01*
X142108582Y-50885000D01*
X142108582Y-50695287D01*
X142183067Y-50620802D01*
X142253720Y-50606748D01*
X142349628Y-50567021D01*
X142435943Y-50509348D01*
X142509348Y-50435943D01*
X142567021Y-50349628D01*
X142606748Y-50253720D01*
X142627000Y-50151905D01*
X142627000Y-50048095D01*
X142606748Y-49946280D01*
X142578051Y-49877000D01*
X143398774Y-49877000D01*
X142221101Y-51054674D01*
G36*
X140870934Y-51330001D02*
G01*
X140873000Y-51350978D01*
X140873000Y-51613250D01*
X140812500Y-51673750D01*
X140812500Y-52053696D01*
X140802732Y-52085897D01*
X140796418Y-52150000D01*
X140796418Y-52622000D01*
X140703582Y-52622000D01*
X140703582Y-52150000D01*
X140702000Y-52133939D01*
X140702000Y-51340998D01*
X140715440Y-51339674D01*
X140802405Y-51313294D01*
X140876479Y-51273700D01*
X140870934Y-51330001D01*
X140870934Y-51330001D01*
G37*
X140870934Y-51330001D02*
X140873000Y-51350978D01*
X140873000Y-51613250D01*
X140812500Y-51673750D01*
X140812500Y-52053696D01*
X140802732Y-52085897D01*
X140796418Y-52150000D01*
X140796418Y-52622000D01*
X140703582Y-52622000D01*
X140703582Y-52150000D01*
X140702000Y-52133939D01*
X140702000Y-51340998D01*
X140715440Y-51339674D01*
X140802405Y-51313294D01*
X140876479Y-51273700D01*
X140870934Y-51330001D01*
G36*
X139798000Y-52133936D02*
G01*
X139796418Y-52150000D01*
X139796418Y-52622000D01*
X139703582Y-52622000D01*
X139703582Y-52150000D01*
X139702000Y-52133939D01*
X139702000Y-51982204D01*
X139704187Y-51959999D01*
X139695460Y-51871392D01*
X139687500Y-51845152D01*
X139687500Y-51673750D01*
X139534343Y-51520593D01*
X139463841Y-51534616D01*
X139444225Y-51515000D01*
X139528750Y-51515000D01*
X139534343Y-51520593D01*
X139562458Y-51515000D01*
X139528750Y-51515000D01*
X139444225Y-51515000D01*
X139261111Y-51331887D01*
X139322405Y-51313294D01*
X139402552Y-51270454D01*
X139472802Y-51212802D01*
X139522700Y-51152000D01*
X139798001Y-51152000D01*
X139798000Y-52133936D01*
X139798000Y-52133936D01*
G37*
X139798000Y-52133936D02*
X139796418Y-52150000D01*
X139796418Y-52622000D01*
X139703582Y-52622000D01*
X139703582Y-52150000D01*
X139702000Y-52133939D01*
X139702000Y-51982204D01*
X139704187Y-51959999D01*
X139695460Y-51871392D01*
X139687500Y-51845152D01*
X139687500Y-51673750D01*
X139534343Y-51520593D01*
X139463841Y-51534616D01*
X139444225Y-51515000D01*
X139528750Y-51515000D01*
X139534343Y-51520593D01*
X139562458Y-51515000D01*
X139528750Y-51515000D01*
X139444225Y-51515000D01*
X139261111Y-51331887D01*
X139322405Y-51313294D01*
X139402552Y-51270454D01*
X139472802Y-51212802D01*
X139522700Y-51152000D01*
X139798001Y-51152000D01*
X139798000Y-52133936D01*
M02*
