M48
; DRILL file {KiCad (6.0.0-rc1-dev-1546-g786ee0e)} date Tue 18 May 2021 02:47:31 PM PDT
; FORMAT={-:-/ absolute / inch / decimal}
; #@! TF.CreationDate,2021-05-18T14:47:31-07:00
; #@! TF.GenerationSoftware,Kicad,Pcbnew,(6.0.0-rc1-dev-1546-g786ee0e)
; #@! TF.FileFunction,Plated,1,4,PTH
FMAT,2
INCH
T1C0.0079
T2C0.0197
%
G90
G05
T1
X4.6504Y-1.2598
X4.6504Y-1.7717
X4.6654Y-1.2106
X4.6949Y-1.2008
X4.7835Y-1.2008
X4.8425Y-1.811
X4.8612Y-1.2609
X4.8622Y-1.1024
X4.8622Y-1.1811
X4.8622Y-1.2402
X4.8622Y-1.9685
X4.8622Y-2.0374
X4.8819Y-1.4567
X4.9016Y-2.0472
X4.9213Y-1.3604
X4.9606Y-1.2008
X4.9803Y-1.5551
X4.9803Y-1.6142
X4.9803Y-1.6535
X4.9803Y-1.7126
X4.9803Y-1.752
X4.9803Y-1.8504
X5.0Y-1.811
X5.0197Y-2.0472
X5.0394Y-1.8504
X5.0689Y-1.2598
X5.0787Y-1.6535
X5.0787Y-1.8307
X5.1299Y-1.5709
X5.1299Y-1.5945
X5.1535Y-1.5906
X5.1673Y-2.1657
X5.1752Y-2.0787
X5.1969Y-1.437
X5.2638Y-1.4213
X5.2835Y-1.4213
X5.2835Y-1.4409
X5.2953Y-2.0669
X5.3031Y-1.4213
X5.3031Y-1.4409
X5.3031Y-1.4606
X5.315Y-1.811
X5.3543Y-2.1657
X5.374Y-2.1457
X5.3937Y-1.5157
X5.4114Y-2.0787
X5.4331Y-1.811
X5.5118Y-1.7913
X5.5315Y-1.378
X5.5315Y-1.9094
X5.5512Y-1.2205
X5.5705Y-1.9488
X5.5709Y-2.0768
X5.6299Y-1.9685
X5.6496Y-1.8307
X5.6496Y-1.8701
X5.6693Y-1.6339
X5.6693Y-1.7126
X5.689Y-1.4764
X5.7303Y-1.7839
X5.7677Y-1.3583
X5.7677Y-1.5157
X5.7677Y-1.752
X5.7776Y-1.4173
X5.7776Y-1.6732
X5.7776Y-1.8799
X5.7972Y-1.8996
X5.8465Y-1.565
X5.876Y-1.25
X5.8858Y-1.4764
X5.9252Y-1.5945
T2
X5.6496Y-2.016
X5.6774Y-1.9882
T0
M30
