%TF.GenerationSoftware,KiCad,Pcbnew,(6.0.0-rc1-dev-1546-g786ee0e)*%
%TF.CreationDate,2021-05-18T14:47:40-07:00*%
%TF.ProjectId,MainBoard,4d61696e-426f-4617-9264-2e6b69636164,rev?*%
%TF.SameCoordinates,Original*%
%TF.FileFunction,Copper,L3,Inr*%
%TF.FilePolarity,Positive*%
%FSLAX46Y46*%
G04 Gerber Fmt 4.6, Leading zero omitted, Abs format (unit mm)*
G04 Created by KiCad (PCBNEW (6.0.0-rc1-dev-1546-g786ee0e)) date Tue 18 May 2021 02:47:40 PM PDT*
%MOMM*%
%LPD*%
G04 APERTURE LIST*
%TA.AperFunction,ViaPad*%
%ADD10C,0.850000*%
%TD*%
%TA.AperFunction,Conductor*%
%ADD11C,0.850000*%
%TD*%
%TA.AperFunction,Conductor*%
%ADD12C,0.100000*%
%TD*%
%TA.AperFunction,ViaPad*%
%ADD13C,0.400000*%
%TD*%
%TA.AperFunction,Conductor*%
%ADD14C,0.200000*%
%TD*%
%TA.AperFunction,Conductor*%
%ADD15C,0.254000*%
%TD*%
G04 APERTURE END LIST*
D10*
%TO.N,GND*%
%TO.C,BT1*%
X144207107Y-50500000D03*
D11*
X144207107Y-50500000D02*
X144207107Y-50500000D01*
D10*
%TO.N,Net-(BT1-Pad1)*%
X143500000Y-51207107D03*
D12*
G36*
X144101041Y-51207107D02*
G01*
X143500000Y-51808148D01*
X142898959Y-51207107D01*
X143500000Y-50606066D01*
X144101041Y-51207107D01*
X144101041Y-51207107D01*
G37*
%TD*%
D13*
%TO.N,GND*%
X134200000Y-36600000D03*
X134700000Y-37100000D03*
X133700000Y-36100000D03*
X134700000Y-36600000D03*
X134200000Y-36100000D03*
X134700000Y-36100000D03*
X130900000Y-40400000D03*
X130300000Y-39900000D03*
X130300000Y-40500000D03*
X127500000Y-52000000D03*
X118120000Y-32000000D03*
X118120000Y-45000000D03*
X128000000Y-47000000D03*
X146500000Y-44500000D03*
X146500000Y-38500000D03*
X146500000Y-34500000D03*
X141000000Y-31000000D03*
X126000000Y-30500000D03*
X132000000Y-36500000D03*
X146750000Y-47750000D03*
X131250000Y-55010010D03*
X136000000Y-55010010D03*
X123500000Y-28000000D03*
%TO.N,+3V3*%
X141500000Y-52750000D03*
X141490000Y-49500000D03*
X146750000Y-42500000D03*
X144500000Y-37500000D03*
X146750000Y-36000000D03*
X149250000Y-31750000D03*
X131450000Y-52800000D03*
X123500000Y-51750000D03*
X128750000Y-32000000D03*
X118500000Y-30750000D03*
X150500000Y-40500000D03*
X137450000Y-52800000D03*
%TO.N,SDA*%
X149500000Y-37500000D03*
X136500000Y-54500000D03*
%TO.N,SCL*%
X148500000Y-39750000D03*
X135000000Y-46000000D03*
%TO.N,Net-(R4-Pad1)*%
X129000000Y-42000000D03*
X124000000Y-37000000D03*
%TO.N,Net-(R5-Pad1)*%
X140000000Y-45500000D03*
X134500000Y-52500000D03*
%TO.N,Net-(D2-Pad2)*%
X124500000Y-52000000D03*
%TO.N,Net-(J3-Pad9)*%
X126500000Y-41000000D03*
X123474228Y-32025772D03*
%TO.N,Net-(J3-Pad8)*%
X126500000Y-39500000D03*
X123500000Y-31500000D03*
%TO.N,Net-(J3-Pad7)*%
X126500000Y-44500000D03*
X119250000Y-30500000D03*
%TO.N,Net-(J3-Pad6)*%
X126500000Y-43500000D03*
X121500000Y-30500000D03*
%TO.N,Net-(J3-Pad5)*%
X126500000Y-42000000D03*
X123500000Y-30000000D03*
%TO.N,Net-(IC1-Pad13)*%
X143000000Y-50000000D03*
%TO.N,Net-(R2-Pad2)*%
X144000000Y-43500000D03*
%TO.N,Net-(R2-Pad1)*%
X123000000Y-46000000D03*
X143500000Y-46500000D03*
%TO.N,Net-(R7-Pad1)*%
X143500000Y-47500000D03*
X147250000Y-48250000D03*
%TO.N,Net-(R8-Pad2)*%
X140500000Y-48500000D03*
X123500000Y-50000000D03*
%TO.N,Net-(TP8-Pad1)*%
X140500000Y-35000000D03*
%TO.N,Net-(TP9-Pad1)*%
X137000000Y-38500000D03*
%TO.N,Net-(TP6-Pad1)*%
X138000000Y-46000000D03*
%TO.N,Net-(TP5-Pad1)*%
X129000000Y-46500000D03*
%TO.N,Net-(TP2-Pad1)*%
X126500000Y-47000000D03*
%TO.N,Net-(TP3-Pad1)*%
X127000000Y-46000000D03*
%TO.N,Net-(BZ1-Pad2)*%
X125000000Y-34555000D03*
%TO.N,Net-(BT1-Pad1)*%
X144000000Y-41500000D03*
X145550000Y-45310000D03*
%TD*%
D14*
%TO.N,*%
X136587327Y-55400011D02*
X135150011Y-55400011D01*
X138487338Y-53500000D02*
X136587327Y-55400011D01*
X139750000Y-53500000D02*
X138487338Y-53500000D01*
X135150011Y-55400011D02*
X134250000Y-54500000D01*
X134250000Y-54500000D02*
X134000000Y-54500000D01*
%TO.N,+3V3*%
X141490000Y-49500000D02*
X141490000Y-48510000D01*
X141490000Y-48510000D02*
X141500000Y-48500000D01*
X141500000Y-48500000D02*
X141750000Y-48500000D01*
X118500000Y-30750000D02*
X119250000Y-31500000D01*
X146750000Y-42500000D02*
X146750000Y-42000000D01*
X146750000Y-42000000D02*
X146750000Y-41750000D01*
X150500000Y-37922798D02*
X149327202Y-36750000D01*
X150500000Y-40500000D02*
X150500000Y-37922798D01*
X147500000Y-36750000D02*
X146750000Y-36000000D01*
X149327202Y-36750000D02*
X147500000Y-36750000D01*
X136800000Y-52800000D02*
X136100000Y-53500000D01*
X137450000Y-52800000D02*
X136800000Y-52800000D01*
X136100000Y-53500000D02*
X133750000Y-53500000D01*
X133050000Y-52800000D02*
X131450000Y-52800000D01*
X133750000Y-53500000D02*
X133050000Y-52800000D01*
X148750000Y-31750000D02*
X148500000Y-32000000D01*
X149250000Y-31750000D02*
X148750000Y-31750000D01*
X148500000Y-32000000D02*
X148000000Y-32500000D01*
%TO.N,SDA*%
X149500000Y-37782842D02*
X149500000Y-37500000D01*
X149500000Y-42077202D02*
X149500000Y-37782842D01*
X137077202Y-54500000D02*
X149500000Y-42077202D01*
X136500000Y-54500000D02*
X137077202Y-54500000D01*
%TO.N,SCL*%
X146800000Y-39750000D02*
X148500000Y-39750000D01*
X144827202Y-39750000D02*
X146800000Y-39750000D01*
X138187201Y-46390001D02*
X144827202Y-39750000D01*
X135390001Y-46390001D02*
X138187201Y-46390001D01*
X135000000Y-46000000D02*
X135390001Y-46390001D01*
%TO.N,Net-(R5-Pad1)*%
X137077202Y-52500000D02*
X134500000Y-52500000D01*
X140890001Y-46390001D02*
X140890001Y-48687201D01*
X140000000Y-45500000D02*
X140890001Y-46390001D01*
X140890001Y-48687201D02*
X137077202Y-52500000D01*
%TO.N,Net-(J3-Pad9)*%
X126000000Y-40500000D02*
X126000000Y-34500000D01*
X126500000Y-41000000D02*
X126000000Y-40500000D01*
X123525772Y-32025772D02*
X123474228Y-32025772D01*
X126000000Y-34500000D02*
X123525772Y-32025772D01*
%TO.N,Net-(J3-Pad8)*%
X126500000Y-34500000D02*
X123500000Y-31500000D01*
X126500000Y-39500000D02*
X126500000Y-34500000D01*
%TO.N,Net-(J3-Pad7)*%
X121422798Y-31000000D02*
X121500000Y-31000000D01*
X121109999Y-30687201D02*
X121422798Y-31000000D01*
X121109999Y-30312799D02*
X121109999Y-30687201D01*
X122102809Y-29319989D02*
X121109999Y-30312799D01*
X124051273Y-29319989D02*
X122102809Y-29319989D01*
X128000000Y-33268716D02*
X124051273Y-29319989D01*
X128000000Y-43000000D02*
X128000000Y-33268716D01*
X126500000Y-44500000D02*
X128000000Y-43000000D01*
X119750000Y-31000000D02*
X119250000Y-30500000D01*
X120750000Y-31000000D02*
X119750000Y-31000000D01*
X121422798Y-31000000D02*
X120750000Y-31000000D01*
X120750000Y-31000000D02*
X120500000Y-31000000D01*
%TO.N,Net-(J3-Pad6)*%
X123687201Y-29609999D02*
X122390001Y-29609999D01*
X122390001Y-29609999D02*
X121500000Y-30500000D01*
X127180010Y-33102808D02*
X123687201Y-29609999D01*
X127180010Y-42819990D02*
X127180010Y-33102808D01*
X126500000Y-43500000D02*
X127180010Y-42819990D01*
%TO.N,Net-(J3-Pad5)*%
X126890001Y-33390001D02*
X123500000Y-30000000D01*
X126890001Y-41609999D02*
X126890001Y-33390001D01*
X126500000Y-42000000D02*
X126890001Y-41609999D01*
%TO.N,Net-(R2-Pad1)*%
X148890001Y-41109999D02*
X143500000Y-46500000D01*
X148890001Y-39562799D02*
X148890001Y-41109999D01*
X148687201Y-39359999D02*
X148890001Y-39562799D01*
X133062799Y-39359999D02*
X148687201Y-39359999D01*
X126422798Y-46000000D02*
X133062799Y-39359999D01*
X123000000Y-46000000D02*
X126422798Y-46000000D01*
%TO.N,Net-(R8-Pad2)*%
X139000000Y-50000000D02*
X140500000Y-48500000D01*
X123500000Y-50000000D02*
X139000000Y-50000000D01*
%TD*%
D15*
%TO.N,+3V3*%
G36*
X122760033Y-30395521D02*
G01*
X122851413Y-30532281D01*
X122967719Y-30648587D01*
X123104479Y-30739967D01*
X123128701Y-30750000D01*
X123104479Y-30760033D01*
X122967719Y-30851413D01*
X122851413Y-30967719D01*
X122760033Y-31104479D01*
X122697089Y-31256440D01*
X122665000Y-31417760D01*
X122665000Y-31582240D01*
X122693922Y-31727639D01*
X122671317Y-31782212D01*
X122639228Y-31943532D01*
X122639228Y-32108012D01*
X122671317Y-32269332D01*
X122734261Y-32421293D01*
X122825641Y-32558053D01*
X122941947Y-32674359D01*
X123078707Y-32765739D01*
X123230668Y-32828683D01*
X123303780Y-32843226D01*
X124417343Y-33956789D01*
X124351413Y-34022719D01*
X124260033Y-34159479D01*
X124197089Y-34311440D01*
X124165000Y-34472760D01*
X124165000Y-34637240D01*
X124197089Y-34798560D01*
X124260033Y-34950521D01*
X124351413Y-35087281D01*
X124467719Y-35203587D01*
X124604479Y-35294967D01*
X124756440Y-35357911D01*
X124917760Y-35390000D01*
X125082240Y-35390000D01*
X125243560Y-35357911D01*
X125265001Y-35349030D01*
X125265000Y-40463895D01*
X125261444Y-40500000D01*
X125275583Y-40643560D01*
X125275635Y-40644084D01*
X125317663Y-40782632D01*
X125385913Y-40910319D01*
X125477762Y-41022237D01*
X125505808Y-41045254D01*
X125695345Y-41234791D01*
X125697089Y-41243560D01*
X125760033Y-41395521D01*
X125829844Y-41500000D01*
X125760033Y-41604479D01*
X125697089Y-41756440D01*
X125665000Y-41917760D01*
X125665000Y-42082240D01*
X125697089Y-42243560D01*
X125760033Y-42395521D01*
X125851413Y-42532281D01*
X125967719Y-42648587D01*
X126104479Y-42739967D01*
X126128701Y-42750000D01*
X126104479Y-42760033D01*
X125967719Y-42851413D01*
X125851413Y-42967719D01*
X125760033Y-43104479D01*
X125697089Y-43256440D01*
X125665000Y-43417760D01*
X125665000Y-43582240D01*
X125697089Y-43743560D01*
X125760033Y-43895521D01*
X125829844Y-44000000D01*
X125760033Y-44104479D01*
X125697089Y-44256440D01*
X125665000Y-44417760D01*
X125665000Y-44582240D01*
X125697089Y-44743560D01*
X125760033Y-44895521D01*
X125851413Y-45032281D01*
X125967719Y-45148587D01*
X126104479Y-45239967D01*
X126131990Y-45251362D01*
X126118352Y-45265000D01*
X123402955Y-45265000D01*
X123395521Y-45260033D01*
X123243560Y-45197089D01*
X123082240Y-45165000D01*
X122917760Y-45165000D01*
X122756440Y-45197089D01*
X122604479Y-45260033D01*
X122467719Y-45351413D01*
X122351413Y-45467719D01*
X122260033Y-45604479D01*
X122197089Y-45756440D01*
X122165000Y-45917760D01*
X122165000Y-46082240D01*
X122197089Y-46243560D01*
X122260033Y-46395521D01*
X122351413Y-46532281D01*
X122467719Y-46648587D01*
X122604479Y-46739967D01*
X122756440Y-46802911D01*
X122917760Y-46835000D01*
X123082240Y-46835000D01*
X123243560Y-46802911D01*
X123395521Y-46739967D01*
X123402955Y-46735000D01*
X125705970Y-46735000D01*
X125697089Y-46756440D01*
X125665000Y-46917760D01*
X125665000Y-47082240D01*
X125697089Y-47243560D01*
X125760033Y-47395521D01*
X125851413Y-47532281D01*
X125967719Y-47648587D01*
X126104479Y-47739967D01*
X126256440Y-47802911D01*
X126417760Y-47835000D01*
X126582240Y-47835000D01*
X126743560Y-47802911D01*
X126895521Y-47739967D01*
X127032281Y-47648587D01*
X127148587Y-47532281D01*
X127239967Y-47395521D01*
X127250000Y-47371299D01*
X127260033Y-47395521D01*
X127351413Y-47532281D01*
X127467719Y-47648587D01*
X127604479Y-47739967D01*
X127756440Y-47802911D01*
X127917760Y-47835000D01*
X128082240Y-47835000D01*
X128243560Y-47802911D01*
X128395521Y-47739967D01*
X128532281Y-47648587D01*
X128648587Y-47532281D01*
X128739967Y-47395521D01*
X128776661Y-47306933D01*
X128917760Y-47335000D01*
X129082240Y-47335000D01*
X129243560Y-47302911D01*
X129395521Y-47239967D01*
X129532281Y-47148587D01*
X129648587Y-47032281D01*
X129739967Y-46895521D01*
X129802911Y-46743560D01*
X129835000Y-46582240D01*
X129835000Y-46417760D01*
X129802911Y-46256440D01*
X129739967Y-46104479D01*
X129648587Y-45967719D01*
X129532281Y-45851413D01*
X129395521Y-45760033D01*
X129243560Y-45697089D01*
X129082240Y-45665000D01*
X128917760Y-45665000D01*
X128756440Y-45697089D01*
X128604479Y-45760033D01*
X128467719Y-45851413D01*
X128351413Y-45967719D01*
X128260033Y-46104479D01*
X128223339Y-46193067D01*
X128082240Y-46165000D01*
X127917760Y-46165000D01*
X127814450Y-46185550D01*
X127835000Y-46082240D01*
X127835000Y-45917760D01*
X127802911Y-45756440D01*
X127774469Y-45687775D01*
X133367246Y-40094999D01*
X143442756Y-40094999D01*
X138312225Y-45225531D01*
X138243560Y-45197089D01*
X138082240Y-45165000D01*
X137917760Y-45165000D01*
X137756440Y-45197089D01*
X137604479Y-45260033D01*
X137467719Y-45351413D01*
X137351413Y-45467719D01*
X137260033Y-45604479D01*
X137239106Y-45655001D01*
X135760894Y-45655001D01*
X135739967Y-45604479D01*
X135648587Y-45467719D01*
X135532281Y-45351413D01*
X135395521Y-45260033D01*
X135243560Y-45197089D01*
X135082240Y-45165000D01*
X134917760Y-45165000D01*
X134756440Y-45197089D01*
X134604479Y-45260033D01*
X134467719Y-45351413D01*
X134351413Y-45467719D01*
X134260033Y-45604479D01*
X134197089Y-45756440D01*
X134165000Y-45917760D01*
X134165000Y-46082240D01*
X134197089Y-46243560D01*
X134260033Y-46395521D01*
X134351413Y-46532281D01*
X134467719Y-46648587D01*
X134604479Y-46739967D01*
X134756440Y-46802911D01*
X134765209Y-46804655D01*
X134844742Y-46884188D01*
X134867763Y-46912239D01*
X134979681Y-47004088D01*
X135043525Y-47038213D01*
X135107367Y-47072338D01*
X135245916Y-47114366D01*
X135390001Y-47128557D01*
X135426106Y-47125001D01*
X138151096Y-47125001D01*
X138187201Y-47128557D01*
X138223306Y-47125001D01*
X138331286Y-47114366D01*
X138469834Y-47072338D01*
X138597521Y-47004088D01*
X138709439Y-46912239D01*
X138732460Y-46884188D01*
X139467924Y-46148724D01*
X139604479Y-46239967D01*
X139756440Y-46302911D01*
X139765209Y-46304655D01*
X140155001Y-46694448D01*
X140155002Y-47739106D01*
X140104479Y-47760033D01*
X139967719Y-47851413D01*
X139851413Y-47967719D01*
X139760033Y-48104479D01*
X139697089Y-48256440D01*
X139695345Y-48265208D01*
X138695554Y-49265000D01*
X123902955Y-49265000D01*
X123895521Y-49260033D01*
X123743560Y-49197089D01*
X123582240Y-49165000D01*
X123417760Y-49165000D01*
X123256440Y-49197089D01*
X123104479Y-49260033D01*
X122967719Y-49351413D01*
X122851413Y-49467719D01*
X122760033Y-49604479D01*
X122697089Y-49756440D01*
X122665000Y-49917760D01*
X122665000Y-50082240D01*
X122697089Y-50243560D01*
X122760033Y-50395521D01*
X122851413Y-50532281D01*
X122967719Y-50648587D01*
X123104479Y-50739967D01*
X123256440Y-50802911D01*
X123417760Y-50835000D01*
X123582240Y-50835000D01*
X123743560Y-50802911D01*
X123895521Y-50739967D01*
X123902955Y-50735000D01*
X137802756Y-50735000D01*
X136772756Y-51765000D01*
X134902955Y-51765000D01*
X134895521Y-51760033D01*
X134743560Y-51697089D01*
X134582240Y-51665000D01*
X134417760Y-51665000D01*
X134256440Y-51697089D01*
X134104479Y-51760033D01*
X133967719Y-51851413D01*
X133851413Y-51967719D01*
X133760033Y-52104479D01*
X133697089Y-52256440D01*
X133665000Y-52417760D01*
X133665000Y-52582240D01*
X133697089Y-52743560D01*
X133760033Y-52895521D01*
X133851413Y-53032281D01*
X133967719Y-53148587D01*
X134104479Y-53239967D01*
X134256440Y-53302911D01*
X134417760Y-53335000D01*
X134582240Y-53335000D01*
X134743560Y-53302911D01*
X134895521Y-53239967D01*
X134902955Y-53235000D01*
X137041097Y-53235000D01*
X137077202Y-53238556D01*
X137113307Y-53235000D01*
X137221287Y-53224365D01*
X137353496Y-53184260D01*
X136812225Y-53725531D01*
X136743560Y-53697089D01*
X136582240Y-53665000D01*
X136417760Y-53665000D01*
X136256440Y-53697089D01*
X136104479Y-53760033D01*
X135967719Y-53851413D01*
X135851413Y-53967719D01*
X135760033Y-54104479D01*
X135709467Y-54226556D01*
X135604479Y-54270043D01*
X135467719Y-54361423D01*
X135351413Y-54477729D01*
X135317672Y-54528226D01*
X134795258Y-54005812D01*
X134772238Y-53977762D01*
X134660320Y-53885913D01*
X134532633Y-53817663D01*
X134394085Y-53775635D01*
X134286105Y-53765000D01*
X134250000Y-53761444D01*
X134213895Y-53765000D01*
X133963895Y-53765000D01*
X133855915Y-53775635D01*
X133717367Y-53817663D01*
X133589680Y-53885913D01*
X133477762Y-53977762D01*
X133385913Y-54089680D01*
X133317663Y-54217367D01*
X133275635Y-54355915D01*
X133261444Y-54500000D01*
X133275635Y-54644085D01*
X133317663Y-54782633D01*
X133385913Y-54910320D01*
X133477762Y-55022238D01*
X133589680Y-55114087D01*
X133717367Y-55182337D01*
X133855915Y-55224365D01*
X133943550Y-55232996D01*
X134025759Y-55315206D01*
X133500000Y-55340000D01*
X132045522Y-55271408D01*
X132052911Y-55253570D01*
X132085000Y-55092250D01*
X132085000Y-54927770D01*
X132052911Y-54766450D01*
X131989967Y-54614489D01*
X131898587Y-54477729D01*
X131782281Y-54361423D01*
X131645521Y-54270043D01*
X131493560Y-54207099D01*
X131332240Y-54175010D01*
X131167760Y-54175010D01*
X131006440Y-54207099D01*
X130854479Y-54270043D01*
X130717719Y-54361423D01*
X130601413Y-54477729D01*
X130510033Y-54614489D01*
X130447089Y-54766450D01*
X130415000Y-54927770D01*
X130415000Y-55051751D01*
X130344499Y-55041717D01*
X128801790Y-54671346D01*
X127300783Y-54157436D01*
X125854800Y-53504550D01*
X124655431Y-52820441D01*
X124743560Y-52802911D01*
X124895521Y-52739967D01*
X125032281Y-52648587D01*
X125148587Y-52532281D01*
X125239967Y-52395521D01*
X125302911Y-52243560D01*
X125335000Y-52082240D01*
X125335000Y-51917760D01*
X126665000Y-51917760D01*
X126665000Y-52082240D01*
X126697089Y-52243560D01*
X126760033Y-52395521D01*
X126851413Y-52532281D01*
X126967719Y-52648587D01*
X127104479Y-52739967D01*
X127256440Y-52802911D01*
X127417760Y-52835000D01*
X127582240Y-52835000D01*
X127743560Y-52802911D01*
X127895521Y-52739967D01*
X128032281Y-52648587D01*
X128148587Y-52532281D01*
X128239967Y-52395521D01*
X128302911Y-52243560D01*
X128335000Y-52082240D01*
X128335000Y-51917760D01*
X128302911Y-51756440D01*
X128239967Y-51604479D01*
X128148587Y-51467719D01*
X128032281Y-51351413D01*
X127895521Y-51260033D01*
X127743560Y-51197089D01*
X127582240Y-51165000D01*
X127417760Y-51165000D01*
X127256440Y-51197089D01*
X127104479Y-51260033D01*
X126967719Y-51351413D01*
X126851413Y-51467719D01*
X126760033Y-51604479D01*
X126697089Y-51756440D01*
X126665000Y-51917760D01*
X125335000Y-51917760D01*
X125302911Y-51756440D01*
X125239967Y-51604479D01*
X125148587Y-51467719D01*
X125032281Y-51351413D01*
X124895521Y-51260033D01*
X124743560Y-51197089D01*
X124582240Y-51165000D01*
X124417760Y-51165000D01*
X124256440Y-51197089D01*
X124104479Y-51260033D01*
X123967719Y-51351413D01*
X123851413Y-51467719D01*
X123760033Y-51604479D01*
X123697089Y-51756440D01*
X123665000Y-51917760D01*
X123665000Y-52082240D01*
X123680213Y-52158718D01*
X123178645Y-51806210D01*
X121972227Y-50775832D01*
X120868130Y-49636492D01*
X119876154Y-48398304D01*
X119005104Y-47072257D01*
X118335930Y-45808407D01*
X118363560Y-45802911D01*
X118515521Y-45739967D01*
X118652281Y-45648587D01*
X118768587Y-45532281D01*
X118859967Y-45395521D01*
X118922911Y-45243560D01*
X118955000Y-45082240D01*
X118955000Y-44917760D01*
X118922911Y-44756440D01*
X118859967Y-44604479D01*
X118768587Y-44467719D01*
X118652281Y-44351413D01*
X118515521Y-44260033D01*
X118363560Y-44197089D01*
X118202240Y-44165000D01*
X118037760Y-44165000D01*
X117876440Y-44197089D01*
X117724479Y-44260033D01*
X117688572Y-44284025D01*
X117655568Y-44204347D01*
X117189060Y-42687938D01*
X116867328Y-41134356D01*
X116693230Y-39557392D01*
X116668310Y-37971043D01*
X116751204Y-36917760D01*
X123165000Y-36917760D01*
X123165000Y-37082240D01*
X123197089Y-37243560D01*
X123260033Y-37395521D01*
X123351413Y-37532281D01*
X123467719Y-37648587D01*
X123604479Y-37739967D01*
X123756440Y-37802911D01*
X123917760Y-37835000D01*
X124082240Y-37835000D01*
X124243560Y-37802911D01*
X124395521Y-37739967D01*
X124532281Y-37648587D01*
X124648587Y-37532281D01*
X124739967Y-37395521D01*
X124802911Y-37243560D01*
X124835000Y-37082240D01*
X124835000Y-36917760D01*
X124802911Y-36756440D01*
X124739967Y-36604479D01*
X124648587Y-36467719D01*
X124532281Y-36351413D01*
X124395521Y-36260033D01*
X124243560Y-36197089D01*
X124082240Y-36165000D01*
X123917760Y-36165000D01*
X123756440Y-36197089D01*
X123604479Y-36260033D01*
X123467719Y-36351413D01*
X123351413Y-36467719D01*
X123260033Y-36604479D01*
X123197089Y-36756440D01*
X123165000Y-36917760D01*
X116751204Y-36917760D01*
X116792788Y-36389388D01*
X117065562Y-34826468D01*
X117484208Y-33296154D01*
X117700442Y-32723906D01*
X117724479Y-32739967D01*
X117876440Y-32802911D01*
X118037760Y-32835000D01*
X118202240Y-32835000D01*
X118363560Y-32802911D01*
X118515521Y-32739967D01*
X118652281Y-32648587D01*
X118768587Y-32532281D01*
X118859967Y-32395521D01*
X118922911Y-32243560D01*
X118955000Y-32082240D01*
X118955000Y-31917760D01*
X118922911Y-31756440D01*
X118859967Y-31604479D01*
X118768587Y-31467719D01*
X118652281Y-31351413D01*
X118515521Y-31260033D01*
X118363560Y-31197089D01*
X118347804Y-31193955D01*
X118502690Y-30877793D01*
X118510033Y-30895521D01*
X118601413Y-31032281D01*
X118717719Y-31148587D01*
X118854479Y-31239967D01*
X119006440Y-31302911D01*
X119015209Y-31304655D01*
X119204746Y-31494192D01*
X119227762Y-31522238D01*
X119339680Y-31614087D01*
X119467367Y-31682337D01*
X119605915Y-31724365D01*
X119750000Y-31738556D01*
X119786105Y-31735000D01*
X121386693Y-31735000D01*
X121422798Y-31738556D01*
X121458903Y-31735000D01*
X121536105Y-31735000D01*
X121644085Y-31724365D01*
X121782633Y-31682337D01*
X121910320Y-31614087D01*
X122022238Y-31522238D01*
X122114087Y-31410320D01*
X122182337Y-31282633D01*
X122224365Y-31144085D01*
X122238556Y-31000000D01*
X122229769Y-30910783D01*
X122239967Y-30895521D01*
X122302911Y-30743560D01*
X122304655Y-30734791D01*
X122694448Y-30344999D01*
X122739106Y-30344999D01*
X122760033Y-30395521D01*
X122760033Y-30395521D01*
G37*
X122760033Y-30395521D02*
X122851413Y-30532281D01*
X122967719Y-30648587D01*
X123104479Y-30739967D01*
X123128701Y-30750000D01*
X123104479Y-30760033D01*
X122967719Y-30851413D01*
X122851413Y-30967719D01*
X122760033Y-31104479D01*
X122697089Y-31256440D01*
X122665000Y-31417760D01*
X122665000Y-31582240D01*
X122693922Y-31727639D01*
X122671317Y-31782212D01*
X122639228Y-31943532D01*
X122639228Y-32108012D01*
X122671317Y-32269332D01*
X122734261Y-32421293D01*
X122825641Y-32558053D01*
X122941947Y-32674359D01*
X123078707Y-32765739D01*
X123230668Y-32828683D01*
X123303780Y-32843226D01*
X124417343Y-33956789D01*
X124351413Y-34022719D01*
X124260033Y-34159479D01*
X124197089Y-34311440D01*
X124165000Y-34472760D01*
X124165000Y-34637240D01*
X124197089Y-34798560D01*
X124260033Y-34950521D01*
X124351413Y-35087281D01*
X124467719Y-35203587D01*
X124604479Y-35294967D01*
X124756440Y-35357911D01*
X124917760Y-35390000D01*
X125082240Y-35390000D01*
X125243560Y-35357911D01*
X125265001Y-35349030D01*
X125265000Y-40463895D01*
X125261444Y-40500000D01*
X125275583Y-40643560D01*
X125275635Y-40644084D01*
X125317663Y-40782632D01*
X125385913Y-40910319D01*
X125477762Y-41022237D01*
X125505808Y-41045254D01*
X125695345Y-41234791D01*
X125697089Y-41243560D01*
X125760033Y-41395521D01*
X125829844Y-41500000D01*
X125760033Y-41604479D01*
X125697089Y-41756440D01*
X125665000Y-41917760D01*
X125665000Y-42082240D01*
X125697089Y-42243560D01*
X125760033Y-42395521D01*
X125851413Y-42532281D01*
X125967719Y-42648587D01*
X126104479Y-42739967D01*
X126128701Y-42750000D01*
X126104479Y-42760033D01*
X125967719Y-42851413D01*
X125851413Y-42967719D01*
X125760033Y-43104479D01*
X125697089Y-43256440D01*
X125665000Y-43417760D01*
X125665000Y-43582240D01*
X125697089Y-43743560D01*
X125760033Y-43895521D01*
X125829844Y-44000000D01*
X125760033Y-44104479D01*
X125697089Y-44256440D01*
X125665000Y-44417760D01*
X125665000Y-44582240D01*
X125697089Y-44743560D01*
X125760033Y-44895521D01*
X125851413Y-45032281D01*
X125967719Y-45148587D01*
X126104479Y-45239967D01*
X126131990Y-45251362D01*
X126118352Y-45265000D01*
X123402955Y-45265000D01*
X123395521Y-45260033D01*
X123243560Y-45197089D01*
X123082240Y-45165000D01*
X122917760Y-45165000D01*
X122756440Y-45197089D01*
X122604479Y-45260033D01*
X122467719Y-45351413D01*
X122351413Y-45467719D01*
X122260033Y-45604479D01*
X122197089Y-45756440D01*
X122165000Y-45917760D01*
X122165000Y-46082240D01*
X122197089Y-46243560D01*
X122260033Y-46395521D01*
X122351413Y-46532281D01*
X122467719Y-46648587D01*
X122604479Y-46739967D01*
X122756440Y-46802911D01*
X122917760Y-46835000D01*
X123082240Y-46835000D01*
X123243560Y-46802911D01*
X123395521Y-46739967D01*
X123402955Y-46735000D01*
X125705970Y-46735000D01*
X125697089Y-46756440D01*
X125665000Y-46917760D01*
X125665000Y-47082240D01*
X125697089Y-47243560D01*
X125760033Y-47395521D01*
X125851413Y-47532281D01*
X125967719Y-47648587D01*
X126104479Y-47739967D01*
X126256440Y-47802911D01*
X126417760Y-47835000D01*
X126582240Y-47835000D01*
X126743560Y-47802911D01*
X126895521Y-47739967D01*
X127032281Y-47648587D01*
X127148587Y-47532281D01*
X127239967Y-47395521D01*
X127250000Y-47371299D01*
X127260033Y-47395521D01*
X127351413Y-47532281D01*
X127467719Y-47648587D01*
X127604479Y-47739967D01*
X127756440Y-47802911D01*
X127917760Y-47835000D01*
X128082240Y-47835000D01*
X128243560Y-47802911D01*
X128395521Y-47739967D01*
X128532281Y-47648587D01*
X128648587Y-47532281D01*
X128739967Y-47395521D01*
X128776661Y-47306933D01*
X128917760Y-47335000D01*
X129082240Y-47335000D01*
X129243560Y-47302911D01*
X129395521Y-47239967D01*
X129532281Y-47148587D01*
X129648587Y-47032281D01*
X129739967Y-46895521D01*
X129802911Y-46743560D01*
X129835000Y-46582240D01*
X129835000Y-46417760D01*
X129802911Y-46256440D01*
X129739967Y-46104479D01*
X129648587Y-45967719D01*
X129532281Y-45851413D01*
X129395521Y-45760033D01*
X129243560Y-45697089D01*
X129082240Y-45665000D01*
X128917760Y-45665000D01*
X128756440Y-45697089D01*
X128604479Y-45760033D01*
X128467719Y-45851413D01*
X128351413Y-45967719D01*
X128260033Y-46104479D01*
X128223339Y-46193067D01*
X128082240Y-46165000D01*
X127917760Y-46165000D01*
X127814450Y-46185550D01*
X127835000Y-46082240D01*
X127835000Y-45917760D01*
X127802911Y-45756440D01*
X127774469Y-45687775D01*
X133367246Y-40094999D01*
X143442756Y-40094999D01*
X138312225Y-45225531D01*
X138243560Y-45197089D01*
X138082240Y-45165000D01*
X137917760Y-45165000D01*
X137756440Y-45197089D01*
X137604479Y-45260033D01*
X137467719Y-45351413D01*
X137351413Y-45467719D01*
X137260033Y-45604479D01*
X137239106Y-45655001D01*
X135760894Y-45655001D01*
X135739967Y-45604479D01*
X135648587Y-45467719D01*
X135532281Y-45351413D01*
X135395521Y-45260033D01*
X135243560Y-45197089D01*
X135082240Y-45165000D01*
X134917760Y-45165000D01*
X134756440Y-45197089D01*
X134604479Y-45260033D01*
X134467719Y-45351413D01*
X134351413Y-45467719D01*
X134260033Y-45604479D01*
X134197089Y-45756440D01*
X134165000Y-45917760D01*
X134165000Y-46082240D01*
X134197089Y-46243560D01*
X134260033Y-46395521D01*
X134351413Y-46532281D01*
X134467719Y-46648587D01*
X134604479Y-46739967D01*
X134756440Y-46802911D01*
X134765209Y-46804655D01*
X134844742Y-46884188D01*
X134867763Y-46912239D01*
X134979681Y-47004088D01*
X135043525Y-47038213D01*
X135107367Y-47072338D01*
X135245916Y-47114366D01*
X135390001Y-47128557D01*
X135426106Y-47125001D01*
X138151096Y-47125001D01*
X138187201Y-47128557D01*
X138223306Y-47125001D01*
X138331286Y-47114366D01*
X138469834Y-47072338D01*
X138597521Y-47004088D01*
X138709439Y-46912239D01*
X138732460Y-46884188D01*
X139467924Y-46148724D01*
X139604479Y-46239967D01*
X139756440Y-46302911D01*
X139765209Y-46304655D01*
X140155001Y-46694448D01*
X140155002Y-47739106D01*
X140104479Y-47760033D01*
X139967719Y-47851413D01*
X139851413Y-47967719D01*
X139760033Y-48104479D01*
X139697089Y-48256440D01*
X139695345Y-48265208D01*
X138695554Y-49265000D01*
X123902955Y-49265000D01*
X123895521Y-49260033D01*
X123743560Y-49197089D01*
X123582240Y-49165000D01*
X123417760Y-49165000D01*
X123256440Y-49197089D01*
X123104479Y-49260033D01*
X122967719Y-49351413D01*
X122851413Y-49467719D01*
X122760033Y-49604479D01*
X122697089Y-49756440D01*
X122665000Y-49917760D01*
X122665000Y-50082240D01*
X122697089Y-50243560D01*
X122760033Y-50395521D01*
X122851413Y-50532281D01*
X122967719Y-50648587D01*
X123104479Y-50739967D01*
X123256440Y-50802911D01*
X123417760Y-50835000D01*
X123582240Y-50835000D01*
X123743560Y-50802911D01*
X123895521Y-50739967D01*
X123902955Y-50735000D01*
X137802756Y-50735000D01*
X136772756Y-51765000D01*
X134902955Y-51765000D01*
X134895521Y-51760033D01*
X134743560Y-51697089D01*
X134582240Y-51665000D01*
X134417760Y-51665000D01*
X134256440Y-51697089D01*
X134104479Y-51760033D01*
X133967719Y-51851413D01*
X133851413Y-51967719D01*
X133760033Y-52104479D01*
X133697089Y-52256440D01*
X133665000Y-52417760D01*
X133665000Y-52582240D01*
X133697089Y-52743560D01*
X133760033Y-52895521D01*
X133851413Y-53032281D01*
X133967719Y-53148587D01*
X134104479Y-53239967D01*
X134256440Y-53302911D01*
X134417760Y-53335000D01*
X134582240Y-53335000D01*
X134743560Y-53302911D01*
X134895521Y-53239967D01*
X134902955Y-53235000D01*
X137041097Y-53235000D01*
X137077202Y-53238556D01*
X137113307Y-53235000D01*
X137221287Y-53224365D01*
X137353496Y-53184260D01*
X136812225Y-53725531D01*
X136743560Y-53697089D01*
X136582240Y-53665000D01*
X136417760Y-53665000D01*
X136256440Y-53697089D01*
X136104479Y-53760033D01*
X135967719Y-53851413D01*
X135851413Y-53967719D01*
X135760033Y-54104479D01*
X135709467Y-54226556D01*
X135604479Y-54270043D01*
X135467719Y-54361423D01*
X135351413Y-54477729D01*
X135317672Y-54528226D01*
X134795258Y-54005812D01*
X134772238Y-53977762D01*
X134660320Y-53885913D01*
X134532633Y-53817663D01*
X134394085Y-53775635D01*
X134286105Y-53765000D01*
X134250000Y-53761444D01*
X134213895Y-53765000D01*
X133963895Y-53765000D01*
X133855915Y-53775635D01*
X133717367Y-53817663D01*
X133589680Y-53885913D01*
X133477762Y-53977762D01*
X133385913Y-54089680D01*
X133317663Y-54217367D01*
X133275635Y-54355915D01*
X133261444Y-54500000D01*
X133275635Y-54644085D01*
X133317663Y-54782633D01*
X133385913Y-54910320D01*
X133477762Y-55022238D01*
X133589680Y-55114087D01*
X133717367Y-55182337D01*
X133855915Y-55224365D01*
X133943550Y-55232996D01*
X134025759Y-55315206D01*
X133500000Y-55340000D01*
X132045522Y-55271408D01*
X132052911Y-55253570D01*
X132085000Y-55092250D01*
X132085000Y-54927770D01*
X132052911Y-54766450D01*
X131989967Y-54614489D01*
X131898587Y-54477729D01*
X131782281Y-54361423D01*
X131645521Y-54270043D01*
X131493560Y-54207099D01*
X131332240Y-54175010D01*
X131167760Y-54175010D01*
X131006440Y-54207099D01*
X130854479Y-54270043D01*
X130717719Y-54361423D01*
X130601413Y-54477729D01*
X130510033Y-54614489D01*
X130447089Y-54766450D01*
X130415000Y-54927770D01*
X130415000Y-55051751D01*
X130344499Y-55041717D01*
X128801790Y-54671346D01*
X127300783Y-54157436D01*
X125854800Y-53504550D01*
X124655431Y-52820441D01*
X124743560Y-52802911D01*
X124895521Y-52739967D01*
X125032281Y-52648587D01*
X125148587Y-52532281D01*
X125239967Y-52395521D01*
X125302911Y-52243560D01*
X125335000Y-52082240D01*
X125335000Y-51917760D01*
X126665000Y-51917760D01*
X126665000Y-52082240D01*
X126697089Y-52243560D01*
X126760033Y-52395521D01*
X126851413Y-52532281D01*
X126967719Y-52648587D01*
X127104479Y-52739967D01*
X127256440Y-52802911D01*
X127417760Y-52835000D01*
X127582240Y-52835000D01*
X127743560Y-52802911D01*
X127895521Y-52739967D01*
X128032281Y-52648587D01*
X128148587Y-52532281D01*
X128239967Y-52395521D01*
X128302911Y-52243560D01*
X128335000Y-52082240D01*
X128335000Y-51917760D01*
X128302911Y-51756440D01*
X128239967Y-51604479D01*
X128148587Y-51467719D01*
X128032281Y-51351413D01*
X127895521Y-51260033D01*
X127743560Y-51197089D01*
X127582240Y-51165000D01*
X127417760Y-51165000D01*
X127256440Y-51197089D01*
X127104479Y-51260033D01*
X126967719Y-51351413D01*
X126851413Y-51467719D01*
X126760033Y-51604479D01*
X126697089Y-51756440D01*
X126665000Y-51917760D01*
X125335000Y-51917760D01*
X125302911Y-51756440D01*
X125239967Y-51604479D01*
X125148587Y-51467719D01*
X125032281Y-51351413D01*
X124895521Y-51260033D01*
X124743560Y-51197089D01*
X124582240Y-51165000D01*
X124417760Y-51165000D01*
X124256440Y-51197089D01*
X124104479Y-51260033D01*
X123967719Y-51351413D01*
X123851413Y-51467719D01*
X123760033Y-51604479D01*
X123697089Y-51756440D01*
X123665000Y-51917760D01*
X123665000Y-52082240D01*
X123680213Y-52158718D01*
X123178645Y-51806210D01*
X121972227Y-50775832D01*
X120868130Y-49636492D01*
X119876154Y-48398304D01*
X119005104Y-47072257D01*
X118335930Y-45808407D01*
X118363560Y-45802911D01*
X118515521Y-45739967D01*
X118652281Y-45648587D01*
X118768587Y-45532281D01*
X118859967Y-45395521D01*
X118922911Y-45243560D01*
X118955000Y-45082240D01*
X118955000Y-44917760D01*
X118922911Y-44756440D01*
X118859967Y-44604479D01*
X118768587Y-44467719D01*
X118652281Y-44351413D01*
X118515521Y-44260033D01*
X118363560Y-44197089D01*
X118202240Y-44165000D01*
X118037760Y-44165000D01*
X117876440Y-44197089D01*
X117724479Y-44260033D01*
X117688572Y-44284025D01*
X117655568Y-44204347D01*
X117189060Y-42687938D01*
X116867328Y-41134356D01*
X116693230Y-39557392D01*
X116668310Y-37971043D01*
X116751204Y-36917760D01*
X123165000Y-36917760D01*
X123165000Y-37082240D01*
X123197089Y-37243560D01*
X123260033Y-37395521D01*
X123351413Y-37532281D01*
X123467719Y-37648587D01*
X123604479Y-37739967D01*
X123756440Y-37802911D01*
X123917760Y-37835000D01*
X124082240Y-37835000D01*
X124243560Y-37802911D01*
X124395521Y-37739967D01*
X124532281Y-37648587D01*
X124648587Y-37532281D01*
X124739967Y-37395521D01*
X124802911Y-37243560D01*
X124835000Y-37082240D01*
X124835000Y-36917760D01*
X124802911Y-36756440D01*
X124739967Y-36604479D01*
X124648587Y-36467719D01*
X124532281Y-36351413D01*
X124395521Y-36260033D01*
X124243560Y-36197089D01*
X124082240Y-36165000D01*
X123917760Y-36165000D01*
X123756440Y-36197089D01*
X123604479Y-36260033D01*
X123467719Y-36351413D01*
X123351413Y-36467719D01*
X123260033Y-36604479D01*
X123197089Y-36756440D01*
X123165000Y-36917760D01*
X116751204Y-36917760D01*
X116792788Y-36389388D01*
X117065562Y-34826468D01*
X117484208Y-33296154D01*
X117700442Y-32723906D01*
X117724479Y-32739967D01*
X117876440Y-32802911D01*
X118037760Y-32835000D01*
X118202240Y-32835000D01*
X118363560Y-32802911D01*
X118515521Y-32739967D01*
X118652281Y-32648587D01*
X118768587Y-32532281D01*
X118859967Y-32395521D01*
X118922911Y-32243560D01*
X118955000Y-32082240D01*
X118955000Y-31917760D01*
X118922911Y-31756440D01*
X118859967Y-31604479D01*
X118768587Y-31467719D01*
X118652281Y-31351413D01*
X118515521Y-31260033D01*
X118363560Y-31197089D01*
X118347804Y-31193955D01*
X118502690Y-30877793D01*
X118510033Y-30895521D01*
X118601413Y-31032281D01*
X118717719Y-31148587D01*
X118854479Y-31239967D01*
X119006440Y-31302911D01*
X119015209Y-31304655D01*
X119204746Y-31494192D01*
X119227762Y-31522238D01*
X119339680Y-31614087D01*
X119467367Y-31682337D01*
X119605915Y-31724365D01*
X119750000Y-31738556D01*
X119786105Y-31735000D01*
X121386693Y-31735000D01*
X121422798Y-31738556D01*
X121458903Y-31735000D01*
X121536105Y-31735000D01*
X121644085Y-31724365D01*
X121782633Y-31682337D01*
X121910320Y-31614087D01*
X122022238Y-31522238D01*
X122114087Y-31410320D01*
X122182337Y-31282633D01*
X122224365Y-31144085D01*
X122238556Y-31000000D01*
X122229769Y-30910783D01*
X122239967Y-30895521D01*
X122302911Y-30743560D01*
X122304655Y-30734791D01*
X122694448Y-30344999D01*
X122739106Y-30344999D01*
X122760033Y-30395521D01*
G36*
X142260033Y-50395521D02*
G01*
X142351413Y-50532281D01*
X142467719Y-50648587D01*
X142520106Y-50683590D01*
X142447774Y-50755922D01*
X142368422Y-50852613D01*
X142309457Y-50962927D01*
X142273147Y-51082625D01*
X142260887Y-51207107D01*
X142273147Y-51331589D01*
X142309457Y-51451287D01*
X142368422Y-51561601D01*
X142447774Y-51658292D01*
X143048815Y-52259333D01*
X143107776Y-52307721D01*
X142523323Y-52718482D01*
X141145200Y-53504550D01*
X140401487Y-53840349D01*
X140432337Y-53782633D01*
X140474365Y-53644085D01*
X140488556Y-53500000D01*
X140474365Y-53355915D01*
X140432337Y-53217367D01*
X140364087Y-53089680D01*
X140272238Y-52977762D01*
X140160320Y-52885913D01*
X140032633Y-52817663D01*
X139894085Y-52775635D01*
X139845772Y-52770877D01*
X142248638Y-50368011D01*
X142260033Y-50395521D01*
X142260033Y-50395521D01*
G37*
X142260033Y-50395521D02*
X142351413Y-50532281D01*
X142467719Y-50648587D01*
X142520106Y-50683590D01*
X142447774Y-50755922D01*
X142368422Y-50852613D01*
X142309457Y-50962927D01*
X142273147Y-51082625D01*
X142260887Y-51207107D01*
X142273147Y-51331589D01*
X142309457Y-51451287D01*
X142368422Y-51561601D01*
X142447774Y-51658292D01*
X143048815Y-52259333D01*
X143107776Y-52307721D01*
X142523323Y-52718482D01*
X141145200Y-53504550D01*
X140401487Y-53840349D01*
X140432337Y-53782633D01*
X140474365Y-53644085D01*
X140488556Y-53500000D01*
X140474365Y-53355915D01*
X140432337Y-53217367D01*
X140364087Y-53089680D01*
X140272238Y-52977762D01*
X140160320Y-52885913D01*
X140032633Y-52817663D01*
X139894085Y-52775635D01*
X139845772Y-52770877D01*
X142248638Y-50368011D01*
X142260033Y-50395521D01*
G36*
X148104479Y-40489967D02*
G01*
X148155002Y-40510894D01*
X148155002Y-40805551D01*
X143265209Y-45695345D01*
X143256440Y-45697089D01*
X143104479Y-45760033D01*
X142967719Y-45851413D01*
X142851413Y-45967719D01*
X142760033Y-46104479D01*
X142697089Y-46256440D01*
X142665000Y-46417760D01*
X142665000Y-46582240D01*
X142697089Y-46743560D01*
X142760033Y-46895521D01*
X142829844Y-47000000D01*
X142760033Y-47104479D01*
X142697089Y-47256440D01*
X142665000Y-47417760D01*
X142665000Y-47582240D01*
X142697089Y-47743560D01*
X142725531Y-47812225D01*
X141574261Y-48963495D01*
X141614366Y-48831286D01*
X141625001Y-48723306D01*
X141628557Y-48687202D01*
X141625001Y-48651097D01*
X141625001Y-46426095D01*
X141628556Y-46390000D01*
X141625001Y-46353905D01*
X141625001Y-46353896D01*
X141614366Y-46245916D01*
X141572338Y-46107368D01*
X141504088Y-45979681D01*
X141453270Y-45917760D01*
X141435254Y-45895807D01*
X141435251Y-45895804D01*
X141412238Y-45867763D01*
X141384198Y-45844751D01*
X140804655Y-45265209D01*
X140802911Y-45256440D01*
X140739967Y-45104479D01*
X140648724Y-44967924D01*
X142198888Y-43417760D01*
X143165000Y-43417760D01*
X143165000Y-43582240D01*
X143197089Y-43743560D01*
X143260033Y-43895521D01*
X143351413Y-44032281D01*
X143467719Y-44148587D01*
X143604479Y-44239967D01*
X143756440Y-44302911D01*
X143917760Y-44335000D01*
X144082240Y-44335000D01*
X144243560Y-44302911D01*
X144395521Y-44239967D01*
X144532281Y-44148587D01*
X144648587Y-44032281D01*
X144739967Y-43895521D01*
X144802911Y-43743560D01*
X144835000Y-43582240D01*
X144835000Y-43417760D01*
X144802911Y-43256440D01*
X144739967Y-43104479D01*
X144648587Y-42967719D01*
X144532281Y-42851413D01*
X144395521Y-42760033D01*
X144243560Y-42697089D01*
X144082240Y-42665000D01*
X143917760Y-42665000D01*
X143756440Y-42697089D01*
X143604479Y-42760033D01*
X143467719Y-42851413D01*
X143351413Y-42967719D01*
X143260033Y-43104479D01*
X143197089Y-43256440D01*
X143165000Y-43417760D01*
X142198888Y-43417760D01*
X143467924Y-42148724D01*
X143604479Y-42239967D01*
X143756440Y-42302911D01*
X143917760Y-42335000D01*
X144082240Y-42335000D01*
X144243560Y-42302911D01*
X144395521Y-42239967D01*
X144532281Y-42148587D01*
X144648587Y-42032281D01*
X144739967Y-41895521D01*
X144802911Y-41743560D01*
X144835000Y-41582240D01*
X144835000Y-41417760D01*
X144802911Y-41256440D01*
X144739967Y-41104479D01*
X144648724Y-40967925D01*
X145131649Y-40485000D01*
X148097045Y-40485000D01*
X148104479Y-40489967D01*
X148104479Y-40489967D01*
G37*
X148104479Y-40489967D02*
X148155002Y-40510894D01*
X148155002Y-40805551D01*
X143265209Y-45695345D01*
X143256440Y-45697089D01*
X143104479Y-45760033D01*
X142967719Y-45851413D01*
X142851413Y-45967719D01*
X142760033Y-46104479D01*
X142697089Y-46256440D01*
X142665000Y-46417760D01*
X142665000Y-46582240D01*
X142697089Y-46743560D01*
X142760033Y-46895521D01*
X142829844Y-47000000D01*
X142760033Y-47104479D01*
X142697089Y-47256440D01*
X142665000Y-47417760D01*
X142665000Y-47582240D01*
X142697089Y-47743560D01*
X142725531Y-47812225D01*
X141574261Y-48963495D01*
X141614366Y-48831286D01*
X141625001Y-48723306D01*
X141628557Y-48687202D01*
X141625001Y-48651097D01*
X141625001Y-46426095D01*
X141628556Y-46390000D01*
X141625001Y-46353905D01*
X141625001Y-46353896D01*
X141614366Y-46245916D01*
X141572338Y-46107368D01*
X141504088Y-45979681D01*
X141453270Y-45917760D01*
X141435254Y-45895807D01*
X141435251Y-45895804D01*
X141412238Y-45867763D01*
X141384198Y-45844751D01*
X140804655Y-45265209D01*
X140802911Y-45256440D01*
X140739967Y-45104479D01*
X140648724Y-44967924D01*
X142198888Y-43417760D01*
X143165000Y-43417760D01*
X143165000Y-43582240D01*
X143197089Y-43743560D01*
X143260033Y-43895521D01*
X143351413Y-44032281D01*
X143467719Y-44148587D01*
X143604479Y-44239967D01*
X143756440Y-44302911D01*
X143917760Y-44335000D01*
X144082240Y-44335000D01*
X144243560Y-44302911D01*
X144395521Y-44239967D01*
X144532281Y-44148587D01*
X144648587Y-44032281D01*
X144739967Y-43895521D01*
X144802911Y-43743560D01*
X144835000Y-43582240D01*
X144835000Y-43417760D01*
X144802911Y-43256440D01*
X144739967Y-43104479D01*
X144648587Y-42967719D01*
X144532281Y-42851413D01*
X144395521Y-42760033D01*
X144243560Y-42697089D01*
X144082240Y-42665000D01*
X143917760Y-42665000D01*
X143756440Y-42697089D01*
X143604479Y-42760033D01*
X143467719Y-42851413D01*
X143351413Y-42967719D01*
X143260033Y-43104479D01*
X143197089Y-43256440D01*
X143165000Y-43417760D01*
X142198888Y-43417760D01*
X143467924Y-42148724D01*
X143604479Y-42239967D01*
X143756440Y-42302911D01*
X143917760Y-42335000D01*
X144082240Y-42335000D01*
X144243560Y-42302911D01*
X144395521Y-42239967D01*
X144532281Y-42148587D01*
X144648587Y-42032281D01*
X144739967Y-41895521D01*
X144802911Y-41743560D01*
X144835000Y-41582240D01*
X144835000Y-41417760D01*
X144802911Y-41256440D01*
X144739967Y-41104479D01*
X144648724Y-40967925D01*
X145131649Y-40485000D01*
X148097045Y-40485000D01*
X148104479Y-40489967D01*
G36*
X147718482Y-29476677D02*
G01*
X148504550Y-30854800D01*
X149157436Y-32300783D01*
X149671346Y-33801790D01*
X150041717Y-35344499D01*
X150265263Y-36915216D01*
X150278585Y-37197712D01*
X150239967Y-37104479D01*
X150148587Y-36967719D01*
X150032281Y-36851413D01*
X149895521Y-36760033D01*
X149743560Y-36697089D01*
X149582240Y-36665000D01*
X149417760Y-36665000D01*
X149256440Y-36697089D01*
X149104479Y-36760033D01*
X148967719Y-36851413D01*
X148851413Y-36967719D01*
X148760033Y-37104479D01*
X148697089Y-37256440D01*
X148665000Y-37417760D01*
X148665000Y-37582240D01*
X148697089Y-37743560D01*
X148760033Y-37895521D01*
X148765001Y-37902956D01*
X148765001Y-38629106D01*
X148723306Y-38624999D01*
X148687201Y-38621443D01*
X148651096Y-38624999D01*
X147326495Y-38624999D01*
X147335000Y-38582240D01*
X147335000Y-38417760D01*
X147302911Y-38256440D01*
X147239967Y-38104479D01*
X147148587Y-37967719D01*
X147032281Y-37851413D01*
X146895521Y-37760033D01*
X146743560Y-37697089D01*
X146582240Y-37665000D01*
X146417760Y-37665000D01*
X146256440Y-37697089D01*
X146104479Y-37760033D01*
X145967719Y-37851413D01*
X145851413Y-37967719D01*
X145760033Y-38104479D01*
X145697089Y-38256440D01*
X145665000Y-38417760D01*
X145665000Y-38582240D01*
X145673505Y-38624999D01*
X137826495Y-38624999D01*
X137835000Y-38582240D01*
X137835000Y-38417760D01*
X137802911Y-38256440D01*
X137739967Y-38104479D01*
X137648587Y-37967719D01*
X137532281Y-37851413D01*
X137395521Y-37760033D01*
X137243560Y-37697089D01*
X137082240Y-37665000D01*
X136917760Y-37665000D01*
X136756440Y-37697089D01*
X136604479Y-37760033D01*
X136467719Y-37851413D01*
X136351413Y-37967719D01*
X136260033Y-38104479D01*
X136197089Y-38256440D01*
X136165000Y-38417760D01*
X136165000Y-38582240D01*
X136173505Y-38624999D01*
X133098893Y-38624999D01*
X133062798Y-38621444D01*
X133026703Y-38624999D01*
X133026694Y-38624999D01*
X132918714Y-38635634D01*
X132780166Y-38677662D01*
X132652479Y-38745912D01*
X132540561Y-38837761D01*
X132517545Y-38865806D01*
X131532110Y-39851242D01*
X131432281Y-39751413D01*
X131295521Y-39660033D01*
X131143560Y-39597089D01*
X131072470Y-39582948D01*
X131039967Y-39504479D01*
X130948587Y-39367719D01*
X130832281Y-39251413D01*
X130695521Y-39160033D01*
X130543560Y-39097089D01*
X130382240Y-39065000D01*
X130217760Y-39065000D01*
X130056440Y-39097089D01*
X129904479Y-39160033D01*
X129767719Y-39251413D01*
X129651413Y-39367719D01*
X129560033Y-39504479D01*
X129497089Y-39656440D01*
X129465000Y-39817760D01*
X129465000Y-39982240D01*
X129497089Y-40143560D01*
X129520467Y-40200000D01*
X129497089Y-40256440D01*
X129465000Y-40417760D01*
X129465000Y-40582240D01*
X129497089Y-40743560D01*
X129560033Y-40895521D01*
X129651413Y-41032281D01*
X129767719Y-41148587D01*
X129904479Y-41239967D01*
X130056440Y-41302911D01*
X130076458Y-41306893D01*
X129751362Y-41631989D01*
X129739967Y-41604479D01*
X129648587Y-41467719D01*
X129532281Y-41351413D01*
X129395521Y-41260033D01*
X129243560Y-41197089D01*
X129082240Y-41165000D01*
X128917760Y-41165000D01*
X128756440Y-41197089D01*
X128735000Y-41205970D01*
X128735000Y-36417760D01*
X131165000Y-36417760D01*
X131165000Y-36582240D01*
X131197089Y-36743560D01*
X131260033Y-36895521D01*
X131351413Y-37032281D01*
X131467719Y-37148587D01*
X131604479Y-37239967D01*
X131756440Y-37302911D01*
X131917760Y-37335000D01*
X132082240Y-37335000D01*
X132243560Y-37302911D01*
X132395521Y-37239967D01*
X132532281Y-37148587D01*
X132648587Y-37032281D01*
X132739967Y-36895521D01*
X132802911Y-36743560D01*
X132835000Y-36582240D01*
X132835000Y-36417760D01*
X132802911Y-36256440D01*
X132739967Y-36104479D01*
X132682024Y-36017760D01*
X132865000Y-36017760D01*
X132865000Y-36182240D01*
X132897089Y-36343560D01*
X132960033Y-36495521D01*
X133051413Y-36632281D01*
X133167719Y-36748587D01*
X133304479Y-36839967D01*
X133414472Y-36885528D01*
X133460033Y-36995521D01*
X133551413Y-37132281D01*
X133667719Y-37248587D01*
X133804479Y-37339967D01*
X133914472Y-37385528D01*
X133960033Y-37495521D01*
X134051413Y-37632281D01*
X134167719Y-37748587D01*
X134304479Y-37839967D01*
X134456440Y-37902911D01*
X134617760Y-37935000D01*
X134782240Y-37935000D01*
X134943560Y-37902911D01*
X135095521Y-37839967D01*
X135232281Y-37748587D01*
X135348587Y-37632281D01*
X135439967Y-37495521D01*
X135502911Y-37343560D01*
X135535000Y-37182240D01*
X135535000Y-37017760D01*
X135502911Y-36856440D01*
X135500243Y-36850000D01*
X135502911Y-36843560D01*
X135535000Y-36682240D01*
X135535000Y-36517760D01*
X135502911Y-36356440D01*
X135500243Y-36350000D01*
X135502911Y-36343560D01*
X135535000Y-36182240D01*
X135535000Y-36017760D01*
X135502911Y-35856440D01*
X135439967Y-35704479D01*
X135348587Y-35567719D01*
X135232281Y-35451413D01*
X135095521Y-35360033D01*
X134943560Y-35297089D01*
X134782240Y-35265000D01*
X134617760Y-35265000D01*
X134456440Y-35297089D01*
X134450000Y-35299757D01*
X134443560Y-35297089D01*
X134282240Y-35265000D01*
X134117760Y-35265000D01*
X133956440Y-35297089D01*
X133950000Y-35299757D01*
X133943560Y-35297089D01*
X133782240Y-35265000D01*
X133617760Y-35265000D01*
X133456440Y-35297089D01*
X133304479Y-35360033D01*
X133167719Y-35451413D01*
X133051413Y-35567719D01*
X132960033Y-35704479D01*
X132897089Y-35856440D01*
X132865000Y-36017760D01*
X132682024Y-36017760D01*
X132648587Y-35967719D01*
X132532281Y-35851413D01*
X132395521Y-35760033D01*
X132243560Y-35697089D01*
X132082240Y-35665000D01*
X131917760Y-35665000D01*
X131756440Y-35697089D01*
X131604479Y-35760033D01*
X131467719Y-35851413D01*
X131351413Y-35967719D01*
X131260033Y-36104479D01*
X131197089Y-36256440D01*
X131165000Y-36417760D01*
X128735000Y-36417760D01*
X128735000Y-34917760D01*
X139665000Y-34917760D01*
X139665000Y-35082240D01*
X139697089Y-35243560D01*
X139760033Y-35395521D01*
X139851413Y-35532281D01*
X139967719Y-35648587D01*
X140104479Y-35739967D01*
X140256440Y-35802911D01*
X140417760Y-35835000D01*
X140582240Y-35835000D01*
X140743560Y-35802911D01*
X140895521Y-35739967D01*
X141032281Y-35648587D01*
X141148587Y-35532281D01*
X141239967Y-35395521D01*
X141302911Y-35243560D01*
X141335000Y-35082240D01*
X141335000Y-34917760D01*
X141302911Y-34756440D01*
X141239967Y-34604479D01*
X141148587Y-34467719D01*
X141098628Y-34417760D01*
X145665000Y-34417760D01*
X145665000Y-34582240D01*
X145697089Y-34743560D01*
X145760033Y-34895521D01*
X145851413Y-35032281D01*
X145967719Y-35148587D01*
X146104479Y-35239967D01*
X146256440Y-35302911D01*
X146417760Y-35335000D01*
X146582240Y-35335000D01*
X146743560Y-35302911D01*
X146895521Y-35239967D01*
X147032281Y-35148587D01*
X147148587Y-35032281D01*
X147239967Y-34895521D01*
X147302911Y-34743560D01*
X147335000Y-34582240D01*
X147335000Y-34417760D01*
X147302911Y-34256440D01*
X147239967Y-34104479D01*
X147148587Y-33967719D01*
X147032281Y-33851413D01*
X146895521Y-33760033D01*
X146743560Y-33697089D01*
X146582240Y-33665000D01*
X146417760Y-33665000D01*
X146256440Y-33697089D01*
X146104479Y-33760033D01*
X145967719Y-33851413D01*
X145851413Y-33967719D01*
X145760033Y-34104479D01*
X145697089Y-34256440D01*
X145665000Y-34417760D01*
X141098628Y-34417760D01*
X141032281Y-34351413D01*
X140895521Y-34260033D01*
X140743560Y-34197089D01*
X140582240Y-34165000D01*
X140417760Y-34165000D01*
X140256440Y-34197089D01*
X140104479Y-34260033D01*
X139967719Y-34351413D01*
X139851413Y-34467719D01*
X139760033Y-34604479D01*
X139697089Y-34756440D01*
X139665000Y-34917760D01*
X128735000Y-34917760D01*
X128735000Y-33304810D01*
X128738555Y-33268715D01*
X128735000Y-33232620D01*
X128735000Y-33232611D01*
X128724365Y-33124631D01*
X128682337Y-32986083D01*
X128614087Y-32858396D01*
X128522238Y-32746478D01*
X128494193Y-32723462D01*
X126710441Y-30939710D01*
X126725107Y-30917760D01*
X140165000Y-30917760D01*
X140165000Y-31082240D01*
X140197089Y-31243560D01*
X140260033Y-31395521D01*
X140351413Y-31532281D01*
X140467719Y-31648587D01*
X140604479Y-31739967D01*
X140756440Y-31802911D01*
X140917760Y-31835000D01*
X141082240Y-31835000D01*
X141243560Y-31802911D01*
X141395521Y-31739967D01*
X141532281Y-31648587D01*
X141648587Y-31532281D01*
X141739967Y-31395521D01*
X141802911Y-31243560D01*
X141835000Y-31082240D01*
X141835000Y-30917760D01*
X141802911Y-30756440D01*
X141739967Y-30604479D01*
X141648587Y-30467719D01*
X141532281Y-30351413D01*
X141395521Y-30260033D01*
X141243560Y-30197089D01*
X141082240Y-30165000D01*
X140917760Y-30165000D01*
X140756440Y-30197089D01*
X140604479Y-30260033D01*
X140467719Y-30351413D01*
X140351413Y-30467719D01*
X140260033Y-30604479D01*
X140197089Y-30756440D01*
X140165000Y-30917760D01*
X126725107Y-30917760D01*
X126739967Y-30895521D01*
X126802911Y-30743560D01*
X126835000Y-30582240D01*
X126835000Y-30417760D01*
X126802911Y-30256440D01*
X126739967Y-30104479D01*
X126648587Y-29967719D01*
X126532281Y-29851413D01*
X126395521Y-29760033D01*
X126243560Y-29697089D01*
X126082240Y-29665000D01*
X125917760Y-29665000D01*
X125756440Y-29697089D01*
X125604479Y-29760033D01*
X125560290Y-29789559D01*
X124897730Y-29127000D01*
X147472725Y-29127000D01*
X147718482Y-29476677D01*
X147718482Y-29476677D01*
G37*
X147718482Y-29476677D02*
X148504550Y-30854800D01*
X149157436Y-32300783D01*
X149671346Y-33801790D01*
X150041717Y-35344499D01*
X150265263Y-36915216D01*
X150278585Y-37197712D01*
X150239967Y-37104479D01*
X150148587Y-36967719D01*
X150032281Y-36851413D01*
X149895521Y-36760033D01*
X149743560Y-36697089D01*
X149582240Y-36665000D01*
X149417760Y-36665000D01*
X149256440Y-36697089D01*
X149104479Y-36760033D01*
X148967719Y-36851413D01*
X148851413Y-36967719D01*
X148760033Y-37104479D01*
X148697089Y-37256440D01*
X148665000Y-37417760D01*
X148665000Y-37582240D01*
X148697089Y-37743560D01*
X148760033Y-37895521D01*
X148765001Y-37902956D01*
X148765001Y-38629106D01*
X148723306Y-38624999D01*
X148687201Y-38621443D01*
X148651096Y-38624999D01*
X147326495Y-38624999D01*
X147335000Y-38582240D01*
X147335000Y-38417760D01*
X147302911Y-38256440D01*
X147239967Y-38104479D01*
X147148587Y-37967719D01*
X147032281Y-37851413D01*
X146895521Y-37760033D01*
X146743560Y-37697089D01*
X146582240Y-37665000D01*
X146417760Y-37665000D01*
X146256440Y-37697089D01*
X146104479Y-37760033D01*
X145967719Y-37851413D01*
X145851413Y-37967719D01*
X145760033Y-38104479D01*
X145697089Y-38256440D01*
X145665000Y-38417760D01*
X145665000Y-38582240D01*
X145673505Y-38624999D01*
X137826495Y-38624999D01*
X137835000Y-38582240D01*
X137835000Y-38417760D01*
X137802911Y-38256440D01*
X137739967Y-38104479D01*
X137648587Y-37967719D01*
X137532281Y-37851413D01*
X137395521Y-37760033D01*
X137243560Y-37697089D01*
X137082240Y-37665000D01*
X136917760Y-37665000D01*
X136756440Y-37697089D01*
X136604479Y-37760033D01*
X136467719Y-37851413D01*
X136351413Y-37967719D01*
X136260033Y-38104479D01*
X136197089Y-38256440D01*
X136165000Y-38417760D01*
X136165000Y-38582240D01*
X136173505Y-38624999D01*
X133098893Y-38624999D01*
X133062798Y-38621444D01*
X133026703Y-38624999D01*
X133026694Y-38624999D01*
X132918714Y-38635634D01*
X132780166Y-38677662D01*
X132652479Y-38745912D01*
X132540561Y-38837761D01*
X132517545Y-38865806D01*
X131532110Y-39851242D01*
X131432281Y-39751413D01*
X131295521Y-39660033D01*
X131143560Y-39597089D01*
X131072470Y-39582948D01*
X131039967Y-39504479D01*
X130948587Y-39367719D01*
X130832281Y-39251413D01*
X130695521Y-39160033D01*
X130543560Y-39097089D01*
X130382240Y-39065000D01*
X130217760Y-39065000D01*
X130056440Y-39097089D01*
X129904479Y-39160033D01*
X129767719Y-39251413D01*
X129651413Y-39367719D01*
X129560033Y-39504479D01*
X129497089Y-39656440D01*
X129465000Y-39817760D01*
X129465000Y-39982240D01*
X129497089Y-40143560D01*
X129520467Y-40200000D01*
X129497089Y-40256440D01*
X129465000Y-40417760D01*
X129465000Y-40582240D01*
X129497089Y-40743560D01*
X129560033Y-40895521D01*
X129651413Y-41032281D01*
X129767719Y-41148587D01*
X129904479Y-41239967D01*
X130056440Y-41302911D01*
X130076458Y-41306893D01*
X129751362Y-41631989D01*
X129739967Y-41604479D01*
X129648587Y-41467719D01*
X129532281Y-41351413D01*
X129395521Y-41260033D01*
X129243560Y-41197089D01*
X129082240Y-41165000D01*
X128917760Y-41165000D01*
X128756440Y-41197089D01*
X128735000Y-41205970D01*
X128735000Y-36417760D01*
X131165000Y-36417760D01*
X131165000Y-36582240D01*
X131197089Y-36743560D01*
X131260033Y-36895521D01*
X131351413Y-37032281D01*
X131467719Y-37148587D01*
X131604479Y-37239967D01*
X131756440Y-37302911D01*
X131917760Y-37335000D01*
X132082240Y-37335000D01*
X132243560Y-37302911D01*
X132395521Y-37239967D01*
X132532281Y-37148587D01*
X132648587Y-37032281D01*
X132739967Y-36895521D01*
X132802911Y-36743560D01*
X132835000Y-36582240D01*
X132835000Y-36417760D01*
X132802911Y-36256440D01*
X132739967Y-36104479D01*
X132682024Y-36017760D01*
X132865000Y-36017760D01*
X132865000Y-36182240D01*
X132897089Y-36343560D01*
X132960033Y-36495521D01*
X133051413Y-36632281D01*
X133167719Y-36748587D01*
X133304479Y-36839967D01*
X133414472Y-36885528D01*
X133460033Y-36995521D01*
X133551413Y-37132281D01*
X133667719Y-37248587D01*
X133804479Y-37339967D01*
X133914472Y-37385528D01*
X133960033Y-37495521D01*
X134051413Y-37632281D01*
X134167719Y-37748587D01*
X134304479Y-37839967D01*
X134456440Y-37902911D01*
X134617760Y-37935000D01*
X134782240Y-37935000D01*
X134943560Y-37902911D01*
X135095521Y-37839967D01*
X135232281Y-37748587D01*
X135348587Y-37632281D01*
X135439967Y-37495521D01*
X135502911Y-37343560D01*
X135535000Y-37182240D01*
X135535000Y-37017760D01*
X135502911Y-36856440D01*
X135500243Y-36850000D01*
X135502911Y-36843560D01*
X135535000Y-36682240D01*
X135535000Y-36517760D01*
X135502911Y-36356440D01*
X135500243Y-36350000D01*
X135502911Y-36343560D01*
X135535000Y-36182240D01*
X135535000Y-36017760D01*
X135502911Y-35856440D01*
X135439967Y-35704479D01*
X135348587Y-35567719D01*
X135232281Y-35451413D01*
X135095521Y-35360033D01*
X134943560Y-35297089D01*
X134782240Y-35265000D01*
X134617760Y-35265000D01*
X134456440Y-35297089D01*
X134450000Y-35299757D01*
X134443560Y-35297089D01*
X134282240Y-35265000D01*
X134117760Y-35265000D01*
X133956440Y-35297089D01*
X133950000Y-35299757D01*
X133943560Y-35297089D01*
X133782240Y-35265000D01*
X133617760Y-35265000D01*
X133456440Y-35297089D01*
X133304479Y-35360033D01*
X133167719Y-35451413D01*
X133051413Y-35567719D01*
X132960033Y-35704479D01*
X132897089Y-35856440D01*
X132865000Y-36017760D01*
X132682024Y-36017760D01*
X132648587Y-35967719D01*
X132532281Y-35851413D01*
X132395521Y-35760033D01*
X132243560Y-35697089D01*
X132082240Y-35665000D01*
X131917760Y-35665000D01*
X131756440Y-35697089D01*
X131604479Y-35760033D01*
X131467719Y-35851413D01*
X131351413Y-35967719D01*
X131260033Y-36104479D01*
X131197089Y-36256440D01*
X131165000Y-36417760D01*
X128735000Y-36417760D01*
X128735000Y-34917760D01*
X139665000Y-34917760D01*
X139665000Y-35082240D01*
X139697089Y-35243560D01*
X139760033Y-35395521D01*
X139851413Y-35532281D01*
X139967719Y-35648587D01*
X140104479Y-35739967D01*
X140256440Y-35802911D01*
X140417760Y-35835000D01*
X140582240Y-35835000D01*
X140743560Y-35802911D01*
X140895521Y-35739967D01*
X141032281Y-35648587D01*
X141148587Y-35532281D01*
X141239967Y-35395521D01*
X141302911Y-35243560D01*
X141335000Y-35082240D01*
X141335000Y-34917760D01*
X141302911Y-34756440D01*
X141239967Y-34604479D01*
X141148587Y-34467719D01*
X141098628Y-34417760D01*
X145665000Y-34417760D01*
X145665000Y-34582240D01*
X145697089Y-34743560D01*
X145760033Y-34895521D01*
X145851413Y-35032281D01*
X145967719Y-35148587D01*
X146104479Y-35239967D01*
X146256440Y-35302911D01*
X146417760Y-35335000D01*
X146582240Y-35335000D01*
X146743560Y-35302911D01*
X146895521Y-35239967D01*
X147032281Y-35148587D01*
X147148587Y-35032281D01*
X147239967Y-34895521D01*
X147302911Y-34743560D01*
X147335000Y-34582240D01*
X147335000Y-34417760D01*
X147302911Y-34256440D01*
X147239967Y-34104479D01*
X147148587Y-33967719D01*
X147032281Y-33851413D01*
X146895521Y-33760033D01*
X146743560Y-33697089D01*
X146582240Y-33665000D01*
X146417760Y-33665000D01*
X146256440Y-33697089D01*
X146104479Y-33760033D01*
X145967719Y-33851413D01*
X145851413Y-33967719D01*
X145760033Y-34104479D01*
X145697089Y-34256440D01*
X145665000Y-34417760D01*
X141098628Y-34417760D01*
X141032281Y-34351413D01*
X140895521Y-34260033D01*
X140743560Y-34197089D01*
X140582240Y-34165000D01*
X140417760Y-34165000D01*
X140256440Y-34197089D01*
X140104479Y-34260033D01*
X139967719Y-34351413D01*
X139851413Y-34467719D01*
X139760033Y-34604479D01*
X139697089Y-34756440D01*
X139665000Y-34917760D01*
X128735000Y-34917760D01*
X128735000Y-33304810D01*
X128738555Y-33268715D01*
X128735000Y-33232620D01*
X128735000Y-33232611D01*
X128724365Y-33124631D01*
X128682337Y-32986083D01*
X128614087Y-32858396D01*
X128522238Y-32746478D01*
X128494193Y-32723462D01*
X126710441Y-30939710D01*
X126725107Y-30917760D01*
X140165000Y-30917760D01*
X140165000Y-31082240D01*
X140197089Y-31243560D01*
X140260033Y-31395521D01*
X140351413Y-31532281D01*
X140467719Y-31648587D01*
X140604479Y-31739967D01*
X140756440Y-31802911D01*
X140917760Y-31835000D01*
X141082240Y-31835000D01*
X141243560Y-31802911D01*
X141395521Y-31739967D01*
X141532281Y-31648587D01*
X141648587Y-31532281D01*
X141739967Y-31395521D01*
X141802911Y-31243560D01*
X141835000Y-31082240D01*
X141835000Y-30917760D01*
X141802911Y-30756440D01*
X141739967Y-30604479D01*
X141648587Y-30467719D01*
X141532281Y-30351413D01*
X141395521Y-30260033D01*
X141243560Y-30197089D01*
X141082240Y-30165000D01*
X140917760Y-30165000D01*
X140756440Y-30197089D01*
X140604479Y-30260033D01*
X140467719Y-30351413D01*
X140351413Y-30467719D01*
X140260033Y-30604479D01*
X140197089Y-30756440D01*
X140165000Y-30917760D01*
X126725107Y-30917760D01*
X126739967Y-30895521D01*
X126802911Y-30743560D01*
X126835000Y-30582240D01*
X126835000Y-30417760D01*
X126802911Y-30256440D01*
X126739967Y-30104479D01*
X126648587Y-29967719D01*
X126532281Y-29851413D01*
X126395521Y-29760033D01*
X126243560Y-29697089D01*
X126082240Y-29665000D01*
X125917760Y-29665000D01*
X125756440Y-29697089D01*
X125604479Y-29760033D01*
X125560290Y-29789559D01*
X124897730Y-29127000D01*
X147472725Y-29127000D01*
X147718482Y-29476677D01*
G36*
X150340000Y-38500000D02*
G01*
X150306770Y-39557392D01*
X150235000Y-40207478D01*
X150235000Y-37902955D01*
X150239967Y-37895521D01*
X150302911Y-37743560D01*
X150304056Y-37737806D01*
X150340000Y-38500000D01*
X150340000Y-38500000D01*
G37*
X150340000Y-38500000D02*
X150306770Y-39557392D01*
X150235000Y-40207478D01*
X150235000Y-37902955D01*
X150239967Y-37895521D01*
X150302911Y-37743560D01*
X150304056Y-37737806D01*
X150340000Y-38500000D01*
%TD*%
M02*
