%TF.GenerationSoftware,KiCad,Pcbnew,(6.0.0-rc1-dev-1546-g786ee0e)*%
%TF.CreationDate,2021-05-18T14:47:41-07:00*%
%TF.ProjectId,MainBoard,4d61696e-426f-4617-9264-2e6b69636164,rev?*%
%TF.SameCoordinates,Original*%
%TF.FileFunction,Soldermask,Top*%
%TF.FilePolarity,Negative*%
%FSLAX46Y46*%
G04 Gerber Fmt 4.6, Leading zero omitted, Abs format (unit mm)*
G04 Created by KiCad (PCBNEW (6.0.0-rc1-dev-1546-g786ee0e)) date Tue 18 May 2021 02:47:41 PM PDT*
%MOMM*%
%LPD*%
G04 APERTURE LIST*
%ADD10C,0.100000*%
G04 APERTURE END LIST*
D10*
G36*
X138721523Y-54181986D02*
G01*
X138735015Y-54186079D01*
X138747444Y-54192722D01*
X138758338Y-54201662D01*
X138767278Y-54212556D01*
X138773921Y-54224985D01*
X138778014Y-54238477D01*
X138780000Y-54258641D01*
X138780000Y-54741359D01*
X138778014Y-54761523D01*
X138773921Y-54775015D01*
X138767278Y-54787444D01*
X138758338Y-54798338D01*
X138747444Y-54807278D01*
X138735015Y-54813921D01*
X138721523Y-54818014D01*
X138701359Y-54820000D01*
X138318641Y-54820000D01*
X138298477Y-54818014D01*
X138284985Y-54813921D01*
X138272556Y-54807278D01*
X138261662Y-54798338D01*
X138252722Y-54787444D01*
X138246079Y-54775015D01*
X138241986Y-54761523D01*
X138240000Y-54741359D01*
X138240000Y-54258641D01*
X138241986Y-54238477D01*
X138246079Y-54224985D01*
X138252722Y-54212556D01*
X138261662Y-54201662D01*
X138272556Y-54192722D01*
X138284985Y-54186079D01*
X138298477Y-54181986D01*
X138318641Y-54180000D01*
X138701359Y-54180000D01*
X138721523Y-54181986D01*
X138721523Y-54181986D01*
G37*
G36*
X135221523Y-54181986D02*
G01*
X135235015Y-54186079D01*
X135247444Y-54192722D01*
X135258338Y-54201662D01*
X135267278Y-54212556D01*
X135273921Y-54224985D01*
X135278014Y-54238477D01*
X135280000Y-54258641D01*
X135280000Y-54741359D01*
X135278014Y-54761523D01*
X135273921Y-54775015D01*
X135267278Y-54787444D01*
X135258338Y-54798338D01*
X135247444Y-54807278D01*
X135235015Y-54813921D01*
X135221523Y-54818014D01*
X135201359Y-54820000D01*
X134818641Y-54820000D01*
X134798477Y-54818014D01*
X134784985Y-54813921D01*
X134772556Y-54807278D01*
X134761662Y-54798338D01*
X134752722Y-54787444D01*
X134746079Y-54775015D01*
X134741986Y-54761523D01*
X134740000Y-54741359D01*
X134740000Y-54258641D01*
X134741986Y-54238477D01*
X134746079Y-54224985D01*
X134752722Y-54212556D01*
X134761662Y-54201662D01*
X134772556Y-54192722D01*
X134784985Y-54186079D01*
X134798477Y-54181986D01*
X134818641Y-54180000D01*
X135201359Y-54180000D01*
X135221523Y-54181986D01*
X135221523Y-54181986D01*
G37*
G36*
X134201523Y-54181986D02*
G01*
X134215015Y-54186079D01*
X134227444Y-54192722D01*
X134238338Y-54201662D01*
X134247278Y-54212556D01*
X134253921Y-54224985D01*
X134258014Y-54238477D01*
X134260000Y-54258641D01*
X134260000Y-54741359D01*
X134258014Y-54761523D01*
X134253921Y-54775015D01*
X134247278Y-54787444D01*
X134238338Y-54798338D01*
X134227444Y-54807278D01*
X134215015Y-54813921D01*
X134201523Y-54818014D01*
X134181359Y-54820000D01*
X133798641Y-54820000D01*
X133778477Y-54818014D01*
X133764985Y-54813921D01*
X133752556Y-54807278D01*
X133741662Y-54798338D01*
X133732722Y-54787444D01*
X133726079Y-54775015D01*
X133721986Y-54761523D01*
X133720000Y-54741359D01*
X133720000Y-54258641D01*
X133721986Y-54238477D01*
X133726079Y-54224985D01*
X133732722Y-54212556D01*
X133741662Y-54201662D01*
X133752556Y-54192722D01*
X133764985Y-54186079D01*
X133778477Y-54181986D01*
X133798641Y-54180000D01*
X134181359Y-54180000D01*
X134201523Y-54181986D01*
X134201523Y-54181986D01*
G37*
G36*
X129721523Y-54181986D02*
G01*
X129735015Y-54186079D01*
X129747444Y-54192722D01*
X129758338Y-54201662D01*
X129767278Y-54212556D01*
X129773921Y-54224985D01*
X129778014Y-54238477D01*
X129780000Y-54258641D01*
X129780000Y-54741359D01*
X129778014Y-54761523D01*
X129773921Y-54775015D01*
X129767278Y-54787444D01*
X129758338Y-54798338D01*
X129747444Y-54807278D01*
X129735015Y-54813921D01*
X129721523Y-54818014D01*
X129701359Y-54820000D01*
X129318641Y-54820000D01*
X129298477Y-54818014D01*
X129284985Y-54813921D01*
X129272556Y-54807278D01*
X129261662Y-54798338D01*
X129252722Y-54787444D01*
X129246079Y-54775015D01*
X129241986Y-54761523D01*
X129240000Y-54741359D01*
X129240000Y-54258641D01*
X129241986Y-54238477D01*
X129246079Y-54224985D01*
X129252722Y-54212556D01*
X129261662Y-54201662D01*
X129272556Y-54192722D01*
X129284985Y-54186079D01*
X129298477Y-54181986D01*
X129318641Y-54180000D01*
X129701359Y-54180000D01*
X129721523Y-54181986D01*
X129721523Y-54181986D01*
G37*
G36*
X137701523Y-54181986D02*
G01*
X137715015Y-54186079D01*
X137727444Y-54192722D01*
X137738338Y-54201662D01*
X137747278Y-54212556D01*
X137753921Y-54224985D01*
X137758014Y-54238477D01*
X137760000Y-54258641D01*
X137760000Y-54741359D01*
X137758014Y-54761523D01*
X137753921Y-54775015D01*
X137747278Y-54787444D01*
X137738338Y-54798338D01*
X137727444Y-54807278D01*
X137715015Y-54813921D01*
X137701523Y-54818014D01*
X137681359Y-54820000D01*
X137298641Y-54820000D01*
X137278477Y-54818014D01*
X137264985Y-54813921D01*
X137252556Y-54807278D01*
X137241662Y-54798338D01*
X137232722Y-54787444D01*
X137226079Y-54775015D01*
X137221986Y-54761523D01*
X137220000Y-54741359D01*
X137220000Y-54258641D01*
X137221986Y-54238477D01*
X137226079Y-54224985D01*
X137232722Y-54212556D01*
X137241662Y-54201662D01*
X137252556Y-54192722D01*
X137264985Y-54186079D01*
X137278477Y-54181986D01*
X137298641Y-54180000D01*
X137681359Y-54180000D01*
X137701523Y-54181986D01*
X137701523Y-54181986D01*
G37*
G36*
X128701523Y-54181986D02*
G01*
X128715015Y-54186079D01*
X128727444Y-54192722D01*
X128738338Y-54201662D01*
X128747278Y-54212556D01*
X128753921Y-54224985D01*
X128758014Y-54238477D01*
X128760000Y-54258641D01*
X128760000Y-54741359D01*
X128758014Y-54761523D01*
X128753921Y-54775015D01*
X128747278Y-54787444D01*
X128738338Y-54798338D01*
X128727444Y-54807278D01*
X128715015Y-54813921D01*
X128701523Y-54818014D01*
X128681359Y-54820000D01*
X128298641Y-54820000D01*
X128278477Y-54818014D01*
X128264985Y-54813921D01*
X128252556Y-54807278D01*
X128241662Y-54798338D01*
X128232722Y-54787444D01*
X128226079Y-54775015D01*
X128221986Y-54761523D01*
X128220000Y-54741359D01*
X128220000Y-54258641D01*
X128221986Y-54238477D01*
X128226079Y-54224985D01*
X128232722Y-54212556D01*
X128241662Y-54201662D01*
X128252556Y-54192722D01*
X128264985Y-54186079D01*
X128278477Y-54181986D01*
X128298641Y-54180000D01*
X128681359Y-54180000D01*
X128701523Y-54181986D01*
X128701523Y-54181986D01*
G37*
G36*
X137900000Y-53300000D02*
G01*
X137000000Y-53300000D01*
X137000000Y-52300000D01*
X137900000Y-52300000D01*
X137900000Y-53300000D01*
X137900000Y-53300000D01*
G37*
G36*
X142000000Y-53300000D02*
G01*
X141100000Y-53300000D01*
X141100000Y-52300000D01*
X142000000Y-52300000D01*
X142000000Y-53300000D01*
X142000000Y-53300000D01*
G37*
G36*
X125900000Y-53300000D02*
G01*
X125000000Y-53300000D01*
X125000000Y-52300000D01*
X125900000Y-52300000D01*
X125900000Y-53300000D01*
X125900000Y-53300000D01*
G37*
G36*
X130000000Y-53300000D02*
G01*
X129100000Y-53300000D01*
X129100000Y-52300000D01*
X130000000Y-52300000D01*
X130000000Y-53300000D01*
X130000000Y-53300000D01*
G37*
G36*
X131900000Y-53300000D02*
G01*
X131000000Y-53300000D01*
X131000000Y-52300000D01*
X131900000Y-52300000D01*
X131900000Y-53300000D01*
X131900000Y-53300000D01*
G37*
G36*
X136000000Y-53300000D02*
G01*
X135100000Y-53300000D01*
X135100000Y-52300000D01*
X136000000Y-52300000D01*
X136000000Y-53300000D01*
X136000000Y-53300000D01*
G37*
G36*
X144290423Y-50081149D02*
G01*
X144370534Y-50105451D01*
X144444364Y-50144914D01*
X144444365Y-50144915D01*
X144444367Y-50144916D01*
X144493209Y-50185000D01*
X144509081Y-50198026D01*
X144562193Y-50262743D01*
X144601656Y-50336573D01*
X144625958Y-50416684D01*
X144634163Y-50500000D01*
X144625958Y-50583316D01*
X144601656Y-50663427D01*
X144562193Y-50737257D01*
X144562191Y-50737260D01*
X144509081Y-50801974D01*
X144444367Y-50855084D01*
X144444365Y-50855085D01*
X144444364Y-50855086D01*
X144370534Y-50894549D01*
X144290423Y-50918851D01*
X144227985Y-50925000D01*
X144186229Y-50925000D01*
X144126475Y-50919115D01*
X144101970Y-50919115D01*
X144077937Y-50923896D01*
X144055298Y-50933273D01*
X144034923Y-50946887D01*
X144017596Y-50964214D01*
X144003983Y-50984589D01*
X143994605Y-51007228D01*
X143989825Y-51031261D01*
X143989825Y-51055766D01*
X143994606Y-51079799D01*
X144003983Y-51102438D01*
X144025835Y-51131901D01*
X144101041Y-51207107D01*
X143500000Y-51808148D01*
X142898959Y-51207107D01*
X143500000Y-50606066D01*
X143575206Y-50681272D01*
X143594148Y-50696818D01*
X143615759Y-50708369D01*
X143639208Y-50715482D01*
X143663594Y-50717884D01*
X143687980Y-50715482D01*
X143711429Y-50708369D01*
X143733040Y-50696818D01*
X143751982Y-50681272D01*
X143767528Y-50662330D01*
X143779079Y-50640719D01*
X143786192Y-50617270D01*
X143787992Y-50580632D01*
X143780051Y-50500000D01*
X143788256Y-50416684D01*
X143812558Y-50336573D01*
X143852021Y-50262743D01*
X143905133Y-50198026D01*
X143921005Y-50185000D01*
X143969847Y-50144916D01*
X143969849Y-50144915D01*
X143969850Y-50144914D01*
X144043680Y-50105451D01*
X144123791Y-50081149D01*
X144186229Y-50075000D01*
X144227985Y-50075000D01*
X144290423Y-50081149D01*
X144290423Y-50081149D01*
G37*
G36*
X142000000Y-51700000D02*
G01*
X141100000Y-51700000D01*
X141100000Y-50700000D01*
X142000000Y-50700000D01*
X142000000Y-51700000D01*
X142000000Y-51700000D01*
G37*
G36*
X131900000Y-51700000D02*
G01*
X131000000Y-51700000D01*
X131000000Y-50700000D01*
X131900000Y-50700000D01*
X131900000Y-51700000D01*
X131900000Y-51700000D01*
G37*
G36*
X136000000Y-51700000D02*
G01*
X135100000Y-51700000D01*
X135100000Y-50700000D01*
X136000000Y-50700000D01*
X136000000Y-51700000D01*
X136000000Y-51700000D01*
G37*
G36*
X125900000Y-51700000D02*
G01*
X125000000Y-51700000D01*
X125000000Y-50700000D01*
X125900000Y-50700000D01*
X125900000Y-51700000D01*
X125900000Y-51700000D01*
G37*
G36*
X137900000Y-51700000D02*
G01*
X137000000Y-51700000D01*
X137000000Y-50700000D01*
X137900000Y-50700000D01*
X137900000Y-51700000D01*
X137900000Y-51700000D01*
G37*
G36*
X130000000Y-51700000D02*
G01*
X129100000Y-51700000D01*
X129100000Y-50700000D01*
X130000000Y-50700000D01*
X130000000Y-51700000D01*
X130000000Y-51700000D01*
G37*
G36*
X123241463Y-50682226D02*
G01*
X123257298Y-50687030D01*
X123271886Y-50694827D01*
X123284676Y-50705324D01*
X123295173Y-50718114D01*
X123302970Y-50732702D01*
X123307774Y-50748537D01*
X123310000Y-50771140D01*
X123310000Y-51228860D01*
X123307774Y-51251463D01*
X123302970Y-51267298D01*
X123295173Y-51281886D01*
X123284676Y-51294676D01*
X123271886Y-51305173D01*
X123257298Y-51312970D01*
X123241463Y-51317774D01*
X123218860Y-51320000D01*
X122811140Y-51320000D01*
X122788537Y-51317774D01*
X122772702Y-51312970D01*
X122758114Y-51305173D01*
X122745324Y-51294676D01*
X122734827Y-51281886D01*
X122727030Y-51267298D01*
X122722226Y-51251463D01*
X122720000Y-51228860D01*
X122720000Y-50771140D01*
X122722226Y-50748537D01*
X122727030Y-50732702D01*
X122734827Y-50718114D01*
X122745324Y-50705324D01*
X122758114Y-50694827D01*
X122772702Y-50687030D01*
X122788537Y-50682226D01*
X122811140Y-50680000D01*
X123218860Y-50680000D01*
X123241463Y-50682226D01*
X123241463Y-50682226D01*
G37*
G36*
X124211463Y-50682226D02*
G01*
X124227298Y-50687030D01*
X124241886Y-50694827D01*
X124254676Y-50705324D01*
X124265173Y-50718114D01*
X124272970Y-50732702D01*
X124277774Y-50748537D01*
X124280000Y-50771140D01*
X124280000Y-51228860D01*
X124277774Y-51251463D01*
X124272970Y-51267298D01*
X124265173Y-51281886D01*
X124254676Y-51294676D01*
X124241886Y-51305173D01*
X124227298Y-51312970D01*
X124211463Y-51317774D01*
X124188860Y-51320000D01*
X123781140Y-51320000D01*
X123758537Y-51317774D01*
X123742702Y-51312970D01*
X123728114Y-51305173D01*
X123715324Y-51294676D01*
X123704827Y-51281886D01*
X123697030Y-51267298D01*
X123692226Y-51251463D01*
X123690000Y-51228860D01*
X123690000Y-50771140D01*
X123692226Y-50748537D01*
X123697030Y-50732702D01*
X123704827Y-50718114D01*
X123715324Y-50705324D01*
X123728114Y-50694827D01*
X123742702Y-50687030D01*
X123758537Y-50682226D01*
X123781140Y-50680000D01*
X124188860Y-50680000D01*
X124211463Y-50682226D01*
X124211463Y-50682226D01*
G37*
G36*
X140350000Y-50850000D02*
G01*
X138650000Y-50850000D01*
X138650000Y-50300000D01*
X140350000Y-50300000D01*
X140350000Y-50850000D01*
X140350000Y-50850000D01*
G37*
G36*
X134350000Y-50850000D02*
G01*
X132650000Y-50850000D01*
X132650000Y-50300000D01*
X134350000Y-50300000D01*
X134350000Y-50850000D01*
X134350000Y-50850000D01*
G37*
G36*
X128350000Y-50850000D02*
G01*
X126650000Y-50850000D01*
X126650000Y-50300000D01*
X128350000Y-50300000D01*
X128350000Y-50850000D01*
X128350000Y-50850000D01*
G37*
G36*
X123221523Y-49681986D02*
G01*
X123235015Y-49686079D01*
X123247444Y-49692722D01*
X123258338Y-49701662D01*
X123267278Y-49712556D01*
X123273921Y-49724985D01*
X123278014Y-49738477D01*
X123280000Y-49758641D01*
X123280000Y-50241359D01*
X123278014Y-50261523D01*
X123273921Y-50275015D01*
X123267278Y-50287444D01*
X123258338Y-50298338D01*
X123247444Y-50307278D01*
X123235015Y-50313921D01*
X123221523Y-50318014D01*
X123201359Y-50320000D01*
X122818641Y-50320000D01*
X122798477Y-50318014D01*
X122784985Y-50313921D01*
X122772556Y-50307278D01*
X122761662Y-50298338D01*
X122752722Y-50287444D01*
X122746079Y-50275015D01*
X122741986Y-50261523D01*
X122740000Y-50241359D01*
X122740000Y-49758641D01*
X122741986Y-49738477D01*
X122746079Y-49724985D01*
X122752722Y-49712556D01*
X122761662Y-49701662D01*
X122772556Y-49692722D01*
X122784985Y-49686079D01*
X122798477Y-49681986D01*
X122818641Y-49680000D01*
X123201359Y-49680000D01*
X123221523Y-49681986D01*
X123221523Y-49681986D01*
G37*
G36*
X122201523Y-49681986D02*
G01*
X122215015Y-49686079D01*
X122227444Y-49692722D01*
X122238338Y-49701662D01*
X122247278Y-49712556D01*
X122253921Y-49724985D01*
X122258014Y-49738477D01*
X122260000Y-49758641D01*
X122260000Y-50241359D01*
X122258014Y-50261523D01*
X122253921Y-50275015D01*
X122247278Y-50287444D01*
X122238338Y-50298338D01*
X122227444Y-50307278D01*
X122215015Y-50313921D01*
X122201523Y-50318014D01*
X122181359Y-50320000D01*
X121798641Y-50320000D01*
X121778477Y-50318014D01*
X121764985Y-50313921D01*
X121752556Y-50307278D01*
X121741662Y-50298338D01*
X121732722Y-50287444D01*
X121726079Y-50275015D01*
X121721986Y-50261523D01*
X121720000Y-50241359D01*
X121720000Y-49758641D01*
X121721986Y-49738477D01*
X121726079Y-49724985D01*
X121732722Y-49712556D01*
X121741662Y-49701662D01*
X121752556Y-49692722D01*
X121764985Y-49686079D01*
X121778477Y-49681986D01*
X121798641Y-49680000D01*
X122181359Y-49680000D01*
X122201523Y-49681986D01*
X122201523Y-49681986D01*
G37*
G36*
X142201523Y-49181986D02*
G01*
X142215015Y-49186079D01*
X142227444Y-49192722D01*
X142238338Y-49201662D01*
X142247278Y-49212556D01*
X142253921Y-49224985D01*
X142258014Y-49238477D01*
X142260000Y-49258641D01*
X142260000Y-49741359D01*
X142258014Y-49761523D01*
X142253921Y-49775015D01*
X142247278Y-49787444D01*
X142238338Y-49798338D01*
X142227444Y-49807278D01*
X142215015Y-49813921D01*
X142201523Y-49818014D01*
X142181359Y-49820000D01*
X141798641Y-49820000D01*
X141778477Y-49818014D01*
X141764985Y-49813921D01*
X141752556Y-49807278D01*
X141741662Y-49798338D01*
X141732722Y-49787444D01*
X141726079Y-49775015D01*
X141721986Y-49761523D01*
X141720000Y-49741359D01*
X141720000Y-49258641D01*
X141721986Y-49238477D01*
X141726079Y-49224985D01*
X141732722Y-49212556D01*
X141741662Y-49201662D01*
X141752556Y-49192722D01*
X141764985Y-49186079D01*
X141778477Y-49181986D01*
X141798641Y-49180000D01*
X142181359Y-49180000D01*
X142201523Y-49181986D01*
X142201523Y-49181986D01*
G37*
G36*
X143221523Y-49181986D02*
G01*
X143235015Y-49186079D01*
X143247444Y-49192722D01*
X143258338Y-49201662D01*
X143267278Y-49212556D01*
X143273921Y-49224985D01*
X143278014Y-49238477D01*
X143280000Y-49258641D01*
X143280000Y-49741359D01*
X143278014Y-49761523D01*
X143273921Y-49775015D01*
X143267278Y-49787444D01*
X143258338Y-49798338D01*
X143247444Y-49807278D01*
X143235015Y-49813921D01*
X143221523Y-49818014D01*
X143201359Y-49820000D01*
X142818641Y-49820000D01*
X142798477Y-49818014D01*
X142784985Y-49813921D01*
X142772556Y-49807278D01*
X142761662Y-49798338D01*
X142752722Y-49787444D01*
X142746079Y-49775015D01*
X142741986Y-49761523D01*
X142740000Y-49741359D01*
X142740000Y-49258641D01*
X142741986Y-49238477D01*
X142746079Y-49224985D01*
X142752722Y-49212556D01*
X142761662Y-49201662D01*
X142772556Y-49192722D01*
X142784985Y-49186079D01*
X142798477Y-49181986D01*
X142818641Y-49180000D01*
X143201359Y-49180000D01*
X143221523Y-49181986D01*
X143221523Y-49181986D01*
G37*
G36*
X138395000Y-49255000D02*
G01*
X137495000Y-49255000D01*
X137495000Y-47255000D01*
X138395000Y-47255000D01*
X138395000Y-49255000D01*
X138395000Y-49255000D01*
G37*
G36*
X137125000Y-49255000D02*
G01*
X136225000Y-49255000D01*
X136225000Y-47255000D01*
X137125000Y-47255000D01*
X137125000Y-49255000D01*
X137125000Y-49255000D01*
G37*
G36*
X135855000Y-49255000D02*
G01*
X134955000Y-49255000D01*
X134955000Y-47255000D01*
X135855000Y-47255000D01*
X135855000Y-49255000D01*
X135855000Y-49255000D01*
G37*
G36*
X134585000Y-49255000D02*
G01*
X133685000Y-49255000D01*
X133685000Y-47255000D01*
X134585000Y-47255000D01*
X134585000Y-49255000D01*
X134585000Y-49255000D01*
G37*
G36*
X133315000Y-49255000D02*
G01*
X132415000Y-49255000D01*
X132415000Y-47255000D01*
X133315000Y-47255000D01*
X133315000Y-49255000D01*
X133315000Y-49255000D01*
G37*
G36*
X130775000Y-49255000D02*
G01*
X129875000Y-49255000D01*
X129875000Y-47255000D01*
X130775000Y-47255000D01*
X130775000Y-49255000D01*
X130775000Y-49255000D01*
G37*
G36*
X132045000Y-49255000D02*
G01*
X131145000Y-49255000D01*
X131145000Y-47255000D01*
X132045000Y-47255000D01*
X132045000Y-49255000D01*
X132045000Y-49255000D01*
G37*
G36*
X139665000Y-49255000D02*
G01*
X138765000Y-49255000D01*
X138765000Y-47255000D01*
X139665000Y-47255000D01*
X139665000Y-49255000D01*
X139665000Y-49255000D01*
G37*
G36*
X128235000Y-49255000D02*
G01*
X127335000Y-49255000D01*
X127335000Y-47255000D01*
X128235000Y-47255000D01*
X128235000Y-49255000D01*
X128235000Y-49255000D01*
G37*
G36*
X129505000Y-49255000D02*
G01*
X128605000Y-49255000D01*
X128605000Y-47255000D01*
X129505000Y-47255000D01*
X129505000Y-49255000D01*
X129505000Y-49255000D01*
G37*
G36*
X122650000Y-48750000D02*
G01*
X121650000Y-48750000D01*
X121650000Y-47250000D01*
X122650000Y-47250000D01*
X122650000Y-48750000D01*
X122650000Y-48750000D01*
G37*
G36*
X121350000Y-48750000D02*
G01*
X120350000Y-48750000D01*
X120350000Y-47250000D01*
X121350000Y-47250000D01*
X121350000Y-48750000D01*
X121350000Y-48750000D01*
G37*
G36*
X143000000Y-47705000D02*
G01*
X141000000Y-47705000D01*
X141000000Y-46805000D01*
X143000000Y-46805000D01*
X143000000Y-47705000D01*
X143000000Y-47705000D01*
G37*
G36*
X126000000Y-47705000D02*
G01*
X124000000Y-47705000D01*
X124000000Y-46805000D01*
X126000000Y-46805000D01*
X126000000Y-47705000D01*
X126000000Y-47705000D01*
G37*
G36*
X146697500Y-46692082D02*
G01*
X146711930Y-46696459D01*
X146725221Y-46703563D01*
X146736873Y-46713127D01*
X146746437Y-46724779D01*
X146753541Y-46738070D01*
X146757918Y-46752500D01*
X146760000Y-46773640D01*
X146760000Y-47226360D01*
X146757918Y-47247500D01*
X146753541Y-47261930D01*
X146746437Y-47275221D01*
X146736873Y-47286873D01*
X146725221Y-47296437D01*
X146711930Y-47303541D01*
X146697500Y-47307918D01*
X146676360Y-47310000D01*
X146283640Y-47310000D01*
X146262500Y-47307918D01*
X146248070Y-47303541D01*
X146234779Y-47296437D01*
X146223127Y-47286873D01*
X146213563Y-47275221D01*
X146206459Y-47261930D01*
X146202082Y-47247500D01*
X146200000Y-47226360D01*
X146200000Y-46773640D01*
X146202082Y-46752500D01*
X146206459Y-46738070D01*
X146213563Y-46724779D01*
X146223127Y-46713127D01*
X146234779Y-46703563D01*
X146248070Y-46696459D01*
X146262500Y-46692082D01*
X146283640Y-46690000D01*
X146676360Y-46690000D01*
X146697500Y-46692082D01*
X146697500Y-46692082D01*
G37*
G36*
X145737500Y-46692082D02*
G01*
X145751930Y-46696459D01*
X145765221Y-46703563D01*
X145776873Y-46713127D01*
X145786437Y-46724779D01*
X145793541Y-46738070D01*
X145797918Y-46752500D01*
X145800000Y-46773640D01*
X145800000Y-47226360D01*
X145797918Y-47247500D01*
X145793541Y-47261930D01*
X145786437Y-47275221D01*
X145776873Y-47286873D01*
X145765221Y-47296437D01*
X145751930Y-47303541D01*
X145737500Y-47307918D01*
X145716360Y-47310000D01*
X145323640Y-47310000D01*
X145302500Y-47307918D01*
X145288070Y-47303541D01*
X145274779Y-47296437D01*
X145263127Y-47286873D01*
X145253563Y-47275221D01*
X145246459Y-47261930D01*
X145242082Y-47247500D01*
X145240000Y-47226360D01*
X145240000Y-46773640D01*
X145242082Y-46752500D01*
X145246459Y-46738070D01*
X145253563Y-46724779D01*
X145263127Y-46713127D01*
X145274779Y-46703563D01*
X145288070Y-46696459D01*
X145302500Y-46692082D01*
X145323640Y-46690000D01*
X145716360Y-46690000D01*
X145737500Y-46692082D01*
X145737500Y-46692082D01*
G37*
G36*
X143000000Y-46435000D02*
G01*
X141000000Y-46435000D01*
X141000000Y-45535000D01*
X143000000Y-45535000D01*
X143000000Y-46435000D01*
X143000000Y-46435000D01*
G37*
G36*
X126000000Y-46435000D02*
G01*
X124000000Y-46435000D01*
X124000000Y-45535000D01*
X126000000Y-45535000D01*
X126000000Y-46435000D01*
X126000000Y-46435000D01*
G37*
G36*
X145875000Y-45920000D02*
G01*
X145225000Y-45920000D01*
X145225000Y-44700000D01*
X145875000Y-44700000D01*
X145875000Y-45920000D01*
X145875000Y-45920000D01*
G37*
G36*
X146825000Y-45920000D02*
G01*
X146175000Y-45920000D01*
X146175000Y-44700000D01*
X146825000Y-44700000D01*
X146825000Y-45920000D01*
X146825000Y-45920000D01*
G37*
G36*
X147775000Y-45920000D02*
G01*
X147125000Y-45920000D01*
X147125000Y-44700000D01*
X147775000Y-44700000D01*
X147775000Y-45920000D01*
X147775000Y-45920000D01*
G37*
G36*
X119297500Y-45192082D02*
G01*
X119311930Y-45196459D01*
X119325221Y-45203563D01*
X119336873Y-45213127D01*
X119346437Y-45224779D01*
X119353541Y-45238070D01*
X119357918Y-45252500D01*
X119360000Y-45273640D01*
X119360000Y-45726360D01*
X119357918Y-45747500D01*
X119353541Y-45761930D01*
X119346437Y-45775221D01*
X119336873Y-45786873D01*
X119325221Y-45796437D01*
X119311930Y-45803541D01*
X119297500Y-45807918D01*
X119276360Y-45810000D01*
X118883640Y-45810000D01*
X118862500Y-45807918D01*
X118848070Y-45803541D01*
X118834779Y-45796437D01*
X118823127Y-45786873D01*
X118813563Y-45775221D01*
X118806459Y-45761930D01*
X118802082Y-45747500D01*
X118800000Y-45726360D01*
X118800000Y-45273640D01*
X118802082Y-45252500D01*
X118806459Y-45238070D01*
X118813563Y-45224779D01*
X118823127Y-45213127D01*
X118834779Y-45203563D01*
X118848070Y-45196459D01*
X118862500Y-45192082D01*
X118883640Y-45190000D01*
X119276360Y-45190000D01*
X119297500Y-45192082D01*
X119297500Y-45192082D01*
G37*
G36*
X118337500Y-45192082D02*
G01*
X118351930Y-45196459D01*
X118365221Y-45203563D01*
X118376873Y-45213127D01*
X118386437Y-45224779D01*
X118393541Y-45238070D01*
X118397918Y-45252500D01*
X118400000Y-45273640D01*
X118400000Y-45726360D01*
X118397918Y-45747500D01*
X118393541Y-45761930D01*
X118386437Y-45775221D01*
X118376873Y-45786873D01*
X118365221Y-45796437D01*
X118351930Y-45803541D01*
X118337500Y-45807918D01*
X118316360Y-45810000D01*
X117923640Y-45810000D01*
X117902500Y-45807918D01*
X117888070Y-45803541D01*
X117874779Y-45796437D01*
X117863127Y-45786873D01*
X117853563Y-45775221D01*
X117846459Y-45761930D01*
X117842082Y-45747500D01*
X117840000Y-45726360D01*
X117840000Y-45273640D01*
X117842082Y-45252500D01*
X117846459Y-45238070D01*
X117853563Y-45224779D01*
X117863127Y-45213127D01*
X117874779Y-45203563D01*
X117888070Y-45196459D01*
X117902500Y-45192082D01*
X117923640Y-45190000D01*
X118316360Y-45190000D01*
X118337500Y-45192082D01*
X118337500Y-45192082D01*
G37*
G36*
X144261523Y-45251986D02*
G01*
X144275015Y-45256079D01*
X144287444Y-45262722D01*
X144298338Y-45271662D01*
X144307278Y-45282556D01*
X144313921Y-45294985D01*
X144318014Y-45308477D01*
X144320000Y-45328641D01*
X144320000Y-45711359D01*
X144318014Y-45731523D01*
X144313921Y-45745015D01*
X144307278Y-45757444D01*
X144298338Y-45768338D01*
X144287444Y-45777278D01*
X144275015Y-45783921D01*
X144261523Y-45788014D01*
X144241359Y-45790000D01*
X143758641Y-45790000D01*
X143738477Y-45788014D01*
X143724985Y-45783921D01*
X143712556Y-45777278D01*
X143701662Y-45768338D01*
X143692722Y-45757444D01*
X143686079Y-45745015D01*
X143681986Y-45731523D01*
X143680000Y-45711359D01*
X143680000Y-45328641D01*
X143681986Y-45308477D01*
X143686079Y-45294985D01*
X143692722Y-45282556D01*
X143701662Y-45271662D01*
X143712556Y-45262722D01*
X143724985Y-45256079D01*
X143738477Y-45251986D01*
X143758641Y-45250000D01*
X144241359Y-45250000D01*
X144261523Y-45251986D01*
X144261523Y-45251986D01*
G37*
G36*
X122201523Y-44681986D02*
G01*
X122215015Y-44686079D01*
X122227444Y-44692722D01*
X122238338Y-44701662D01*
X122247278Y-44712556D01*
X122253921Y-44724985D01*
X122258014Y-44738477D01*
X122260000Y-44758641D01*
X122260000Y-45241359D01*
X122258014Y-45261523D01*
X122253921Y-45275015D01*
X122247278Y-45287444D01*
X122238338Y-45298338D01*
X122227444Y-45307278D01*
X122215015Y-45313921D01*
X122201523Y-45318014D01*
X122181359Y-45320000D01*
X121798641Y-45320000D01*
X121778477Y-45318014D01*
X121764985Y-45313921D01*
X121752556Y-45307278D01*
X121741662Y-45298338D01*
X121732722Y-45287444D01*
X121726079Y-45275015D01*
X121721986Y-45261523D01*
X121720000Y-45241359D01*
X121720000Y-44758641D01*
X121721986Y-44738477D01*
X121726079Y-44724985D01*
X121732722Y-44712556D01*
X121741662Y-44701662D01*
X121752556Y-44692722D01*
X121764985Y-44686079D01*
X121778477Y-44681986D01*
X121798641Y-44680000D01*
X122181359Y-44680000D01*
X122201523Y-44681986D01*
X122201523Y-44681986D01*
G37*
G36*
X123221523Y-44681986D02*
G01*
X123235015Y-44686079D01*
X123247444Y-44692722D01*
X123258338Y-44701662D01*
X123267278Y-44712556D01*
X123273921Y-44724985D01*
X123278014Y-44738477D01*
X123280000Y-44758641D01*
X123280000Y-45241359D01*
X123278014Y-45261523D01*
X123273921Y-45275015D01*
X123267278Y-45287444D01*
X123258338Y-45298338D01*
X123247444Y-45307278D01*
X123235015Y-45313921D01*
X123221523Y-45318014D01*
X123201359Y-45320000D01*
X122818641Y-45320000D01*
X122798477Y-45318014D01*
X122784985Y-45313921D01*
X122772556Y-45307278D01*
X122761662Y-45298338D01*
X122752722Y-45287444D01*
X122746079Y-45275015D01*
X122741986Y-45261523D01*
X122740000Y-45241359D01*
X122740000Y-44758641D01*
X122741986Y-44738477D01*
X122746079Y-44724985D01*
X122752722Y-44712556D01*
X122761662Y-44701662D01*
X122772556Y-44692722D01*
X122784985Y-44686079D01*
X122798477Y-44681986D01*
X122818641Y-44680000D01*
X123201359Y-44680000D01*
X123221523Y-44681986D01*
X123221523Y-44681986D01*
G37*
G36*
X143000000Y-45165000D02*
G01*
X141000000Y-45165000D01*
X141000000Y-44265000D01*
X143000000Y-44265000D01*
X143000000Y-45165000D01*
X143000000Y-45165000D01*
G37*
G36*
X126000000Y-45165000D02*
G01*
X124000000Y-45165000D01*
X124000000Y-44265000D01*
X126000000Y-44265000D01*
X126000000Y-45165000D01*
X126000000Y-45165000D01*
G37*
G36*
X117957500Y-44192082D02*
G01*
X117971930Y-44196459D01*
X117985221Y-44203563D01*
X117996873Y-44213127D01*
X118006437Y-44224779D01*
X118013541Y-44238070D01*
X118017918Y-44252500D01*
X118020000Y-44273640D01*
X118020000Y-44726360D01*
X118017918Y-44747500D01*
X118013541Y-44761930D01*
X118006437Y-44775221D01*
X117996873Y-44786873D01*
X117985221Y-44796437D01*
X117971930Y-44803541D01*
X117957500Y-44807918D01*
X117936360Y-44810000D01*
X117543640Y-44810000D01*
X117522500Y-44807918D01*
X117508070Y-44803541D01*
X117494779Y-44796437D01*
X117483127Y-44786873D01*
X117473563Y-44775221D01*
X117466459Y-44761930D01*
X117462082Y-44747500D01*
X117460000Y-44726360D01*
X117460000Y-44273640D01*
X117462082Y-44252500D01*
X117466459Y-44238070D01*
X117473563Y-44224779D01*
X117483127Y-44213127D01*
X117494779Y-44203563D01*
X117508070Y-44196459D01*
X117522500Y-44192082D01*
X117543640Y-44190000D01*
X117936360Y-44190000D01*
X117957500Y-44192082D01*
X117957500Y-44192082D01*
G37*
G36*
X118917500Y-44192082D02*
G01*
X118931930Y-44196459D01*
X118945221Y-44203563D01*
X118956873Y-44213127D01*
X118966437Y-44224779D01*
X118973541Y-44238070D01*
X118977918Y-44252500D01*
X118980000Y-44273640D01*
X118980000Y-44726360D01*
X118977918Y-44747500D01*
X118973541Y-44761930D01*
X118966437Y-44775221D01*
X118956873Y-44786873D01*
X118945221Y-44796437D01*
X118931930Y-44803541D01*
X118917500Y-44807918D01*
X118896360Y-44810000D01*
X118503640Y-44810000D01*
X118482500Y-44807918D01*
X118468070Y-44803541D01*
X118454779Y-44796437D01*
X118443127Y-44786873D01*
X118433563Y-44775221D01*
X118426459Y-44761930D01*
X118422082Y-44747500D01*
X118420000Y-44726360D01*
X118420000Y-44273640D01*
X118422082Y-44252500D01*
X118426459Y-44238070D01*
X118433563Y-44224779D01*
X118443127Y-44213127D01*
X118454779Y-44203563D01*
X118468070Y-44196459D01*
X118482500Y-44192082D01*
X118503640Y-44190000D01*
X118896360Y-44190000D01*
X118917500Y-44192082D01*
X118917500Y-44192082D01*
G37*
G36*
X144261523Y-44231986D02*
G01*
X144275015Y-44236079D01*
X144287444Y-44242722D01*
X144298338Y-44251662D01*
X144307278Y-44262556D01*
X144313921Y-44274985D01*
X144318014Y-44288477D01*
X144320000Y-44308641D01*
X144320000Y-44691359D01*
X144318014Y-44711523D01*
X144313921Y-44725015D01*
X144307278Y-44737444D01*
X144298338Y-44748338D01*
X144287444Y-44757278D01*
X144275015Y-44763921D01*
X144261523Y-44768014D01*
X144241359Y-44770000D01*
X143758641Y-44770000D01*
X143738477Y-44768014D01*
X143724985Y-44763921D01*
X143712556Y-44757278D01*
X143701662Y-44748338D01*
X143692722Y-44737444D01*
X143686079Y-44725015D01*
X143681986Y-44711523D01*
X143680000Y-44691359D01*
X143680000Y-44308641D01*
X143681986Y-44288477D01*
X143686079Y-44274985D01*
X143692722Y-44262556D01*
X143701662Y-44251662D01*
X143712556Y-44242722D01*
X143724985Y-44236079D01*
X143738477Y-44231986D01*
X143758641Y-44230000D01*
X144241359Y-44230000D01*
X144261523Y-44231986D01*
X144261523Y-44231986D01*
G37*
G36*
X149261523Y-43741986D02*
G01*
X149275015Y-43746079D01*
X149287444Y-43752722D01*
X149298338Y-43761662D01*
X149307278Y-43772556D01*
X149313921Y-43784985D01*
X149318014Y-43798477D01*
X149320000Y-43818641D01*
X149320000Y-44201359D01*
X149318014Y-44221523D01*
X149313921Y-44235015D01*
X149307278Y-44247444D01*
X149298338Y-44258338D01*
X149287444Y-44267278D01*
X149275015Y-44273921D01*
X149261523Y-44278014D01*
X149241359Y-44280000D01*
X148758641Y-44280000D01*
X148738477Y-44278014D01*
X148724985Y-44273921D01*
X148712556Y-44267278D01*
X148701662Y-44258338D01*
X148692722Y-44247444D01*
X148686079Y-44235015D01*
X148681986Y-44221523D01*
X148680000Y-44201359D01*
X148680000Y-43818641D01*
X148681986Y-43798477D01*
X148686079Y-43784985D01*
X148692722Y-43772556D01*
X148701662Y-43761662D01*
X148712556Y-43752722D01*
X148724985Y-43746079D01*
X148738477Y-43741986D01*
X148758641Y-43740000D01*
X149241359Y-43740000D01*
X149261523Y-43741986D01*
X149261523Y-43741986D01*
G37*
G36*
X126000000Y-43895000D02*
G01*
X124000000Y-43895000D01*
X124000000Y-42995000D01*
X126000000Y-42995000D01*
X126000000Y-43895000D01*
X126000000Y-43895000D01*
G37*
G36*
X143000000Y-43895000D02*
G01*
X141000000Y-43895000D01*
X141000000Y-42995000D01*
X143000000Y-42995000D01*
X143000000Y-43895000D01*
X143000000Y-43895000D01*
G37*
G36*
X118517500Y-43192082D02*
G01*
X118531930Y-43196459D01*
X118545221Y-43203563D01*
X118556873Y-43213127D01*
X118566437Y-43224779D01*
X118573541Y-43238070D01*
X118577918Y-43252500D01*
X118580000Y-43273640D01*
X118580000Y-43726360D01*
X118577918Y-43747500D01*
X118573541Y-43761930D01*
X118566437Y-43775221D01*
X118556873Y-43786873D01*
X118545221Y-43796437D01*
X118531930Y-43803541D01*
X118517500Y-43807918D01*
X118496360Y-43810000D01*
X118103640Y-43810000D01*
X118082500Y-43807918D01*
X118068070Y-43803541D01*
X118054779Y-43796437D01*
X118043127Y-43786873D01*
X118033563Y-43775221D01*
X118026459Y-43761930D01*
X118022082Y-43747500D01*
X118020000Y-43726360D01*
X118020000Y-43273640D01*
X118022082Y-43252500D01*
X118026459Y-43238070D01*
X118033563Y-43224779D01*
X118043127Y-43213127D01*
X118054779Y-43203563D01*
X118068070Y-43196459D01*
X118082500Y-43192082D01*
X118103640Y-43190000D01*
X118496360Y-43190000D01*
X118517500Y-43192082D01*
X118517500Y-43192082D01*
G37*
G36*
X117557500Y-43192082D02*
G01*
X117571930Y-43196459D01*
X117585221Y-43203563D01*
X117596873Y-43213127D01*
X117606437Y-43224779D01*
X117613541Y-43238070D01*
X117617918Y-43252500D01*
X117620000Y-43273640D01*
X117620000Y-43726360D01*
X117617918Y-43747500D01*
X117613541Y-43761930D01*
X117606437Y-43775221D01*
X117596873Y-43786873D01*
X117585221Y-43796437D01*
X117571930Y-43803541D01*
X117557500Y-43807918D01*
X117536360Y-43810000D01*
X117143640Y-43810000D01*
X117122500Y-43807918D01*
X117108070Y-43803541D01*
X117094779Y-43796437D01*
X117083127Y-43786873D01*
X117073563Y-43775221D01*
X117066459Y-43761930D01*
X117062082Y-43747500D01*
X117060000Y-43726360D01*
X117060000Y-43273640D01*
X117062082Y-43252500D01*
X117066459Y-43238070D01*
X117073563Y-43224779D01*
X117083127Y-43213127D01*
X117094779Y-43203563D01*
X117108070Y-43196459D01*
X117122500Y-43192082D01*
X117143640Y-43190000D01*
X117536360Y-43190000D01*
X117557500Y-43192082D01*
X117557500Y-43192082D01*
G37*
G36*
X145875000Y-43300000D02*
G01*
X145225000Y-43300000D01*
X145225000Y-42080000D01*
X145875000Y-42080000D01*
X145875000Y-43300000D01*
X145875000Y-43300000D01*
G37*
G36*
X147775000Y-43300000D02*
G01*
X147125000Y-43300000D01*
X147125000Y-42080000D01*
X147775000Y-42080000D01*
X147775000Y-43300000D01*
X147775000Y-43300000D01*
G37*
G36*
X149261523Y-42721986D02*
G01*
X149275015Y-42726079D01*
X149287444Y-42732722D01*
X149298338Y-42741662D01*
X149307278Y-42752556D01*
X149313921Y-42764985D01*
X149318014Y-42778477D01*
X149320000Y-42798641D01*
X149320000Y-43181359D01*
X149318014Y-43201523D01*
X149313921Y-43215015D01*
X149307278Y-43227444D01*
X149298338Y-43238338D01*
X149287444Y-43247278D01*
X149275015Y-43253921D01*
X149261523Y-43258014D01*
X149241359Y-43260000D01*
X148758641Y-43260000D01*
X148738477Y-43258014D01*
X148724985Y-43253921D01*
X148712556Y-43247278D01*
X148701662Y-43238338D01*
X148692722Y-43227444D01*
X148686079Y-43215015D01*
X148681986Y-43201523D01*
X148680000Y-43181359D01*
X148680000Y-42798641D01*
X148681986Y-42778477D01*
X148686079Y-42764985D01*
X148692722Y-42752556D01*
X148701662Y-42741662D01*
X148712556Y-42732722D01*
X148724985Y-42726079D01*
X148738477Y-42721986D01*
X148758641Y-42720000D01*
X149241359Y-42720000D01*
X149261523Y-42721986D01*
X149261523Y-42721986D01*
G37*
G36*
X118217500Y-42192082D02*
G01*
X118231930Y-42196459D01*
X118245221Y-42203563D01*
X118256873Y-42213127D01*
X118266437Y-42224779D01*
X118273541Y-42238070D01*
X118277918Y-42252500D01*
X118280000Y-42273640D01*
X118280000Y-42726360D01*
X118277918Y-42747500D01*
X118273541Y-42761930D01*
X118266437Y-42775221D01*
X118256873Y-42786873D01*
X118245221Y-42796437D01*
X118231930Y-42803541D01*
X118217500Y-42807918D01*
X118196360Y-42810000D01*
X117803640Y-42810000D01*
X117782500Y-42807918D01*
X117768070Y-42803541D01*
X117754779Y-42796437D01*
X117743127Y-42786873D01*
X117733563Y-42775221D01*
X117726459Y-42761930D01*
X117722082Y-42747500D01*
X117720000Y-42726360D01*
X117720000Y-42273640D01*
X117722082Y-42252500D01*
X117726459Y-42238070D01*
X117733563Y-42224779D01*
X117743127Y-42213127D01*
X117754779Y-42203563D01*
X117768070Y-42196459D01*
X117782500Y-42192082D01*
X117803640Y-42190000D01*
X118196360Y-42190000D01*
X118217500Y-42192082D01*
X118217500Y-42192082D01*
G37*
G36*
X117257500Y-42192082D02*
G01*
X117271930Y-42196459D01*
X117285221Y-42203563D01*
X117296873Y-42213127D01*
X117306437Y-42224779D01*
X117313541Y-42238070D01*
X117317918Y-42252500D01*
X117320000Y-42273640D01*
X117320000Y-42726360D01*
X117317918Y-42747500D01*
X117313541Y-42761930D01*
X117306437Y-42775221D01*
X117296873Y-42786873D01*
X117285221Y-42796437D01*
X117271930Y-42803541D01*
X117257500Y-42807918D01*
X117236360Y-42810000D01*
X116843640Y-42810000D01*
X116822500Y-42807918D01*
X116808070Y-42803541D01*
X116794779Y-42796437D01*
X116783127Y-42786873D01*
X116773563Y-42775221D01*
X116766459Y-42761930D01*
X116762082Y-42747500D01*
X116760000Y-42726360D01*
X116760000Y-42273640D01*
X116762082Y-42252500D01*
X116766459Y-42238070D01*
X116773563Y-42224779D01*
X116783127Y-42213127D01*
X116794779Y-42203563D01*
X116808070Y-42196459D01*
X116822500Y-42192082D01*
X116843640Y-42190000D01*
X117236360Y-42190000D01*
X117257500Y-42192082D01*
X117257500Y-42192082D01*
G37*
G36*
X123075000Y-42675000D02*
G01*
X119925000Y-42675000D01*
X119925000Y-27825000D01*
X123075000Y-27825000D01*
X123075000Y-42675000D01*
X123075000Y-42675000D01*
G37*
G36*
X143000000Y-42625000D02*
G01*
X141000000Y-42625000D01*
X141000000Y-41725000D01*
X143000000Y-41725000D01*
X143000000Y-42625000D01*
X143000000Y-42625000D01*
G37*
G36*
X126000000Y-42625000D02*
G01*
X124000000Y-42625000D01*
X124000000Y-41725000D01*
X126000000Y-41725000D01*
X126000000Y-42625000D01*
X126000000Y-42625000D01*
G37*
G36*
X117057500Y-41192082D02*
G01*
X117071930Y-41196459D01*
X117085221Y-41203563D01*
X117096873Y-41213127D01*
X117106437Y-41224779D01*
X117113541Y-41238070D01*
X117117918Y-41252500D01*
X117120000Y-41273640D01*
X117120000Y-41726360D01*
X117117918Y-41747500D01*
X117113541Y-41761930D01*
X117106437Y-41775221D01*
X117096873Y-41786873D01*
X117085221Y-41796437D01*
X117071930Y-41803541D01*
X117057500Y-41807918D01*
X117036360Y-41810000D01*
X116643640Y-41810000D01*
X116622500Y-41807918D01*
X116608070Y-41803541D01*
X116594779Y-41796437D01*
X116583127Y-41786873D01*
X116573563Y-41775221D01*
X116566459Y-41761930D01*
X116562082Y-41747500D01*
X116560000Y-41726360D01*
X116560000Y-41273640D01*
X116562082Y-41252500D01*
X116566459Y-41238070D01*
X116573563Y-41224779D01*
X116583127Y-41213127D01*
X116594779Y-41203563D01*
X116608070Y-41196459D01*
X116622500Y-41192082D01*
X116643640Y-41190000D01*
X117036360Y-41190000D01*
X117057500Y-41192082D01*
X117057500Y-41192082D01*
G37*
G36*
X118017500Y-41192082D02*
G01*
X118031930Y-41196459D01*
X118045221Y-41203563D01*
X118056873Y-41213127D01*
X118066437Y-41224779D01*
X118073541Y-41238070D01*
X118077918Y-41252500D01*
X118080000Y-41273640D01*
X118080000Y-41726360D01*
X118077918Y-41747500D01*
X118073541Y-41761930D01*
X118066437Y-41775221D01*
X118056873Y-41786873D01*
X118045221Y-41796437D01*
X118031930Y-41803541D01*
X118017500Y-41807918D01*
X117996360Y-41810000D01*
X117603640Y-41810000D01*
X117582500Y-41807918D01*
X117568070Y-41803541D01*
X117554779Y-41796437D01*
X117543127Y-41786873D01*
X117533563Y-41775221D01*
X117526459Y-41761930D01*
X117522082Y-41747500D01*
X117520000Y-41726360D01*
X117520000Y-41273640D01*
X117522082Y-41252500D01*
X117526459Y-41238070D01*
X117533563Y-41224779D01*
X117543127Y-41213127D01*
X117554779Y-41203563D01*
X117568070Y-41196459D01*
X117582500Y-41192082D01*
X117603640Y-41190000D01*
X117996360Y-41190000D01*
X118017500Y-41192082D01*
X118017500Y-41192082D01*
G37*
G36*
X143000000Y-41355000D02*
G01*
X141000000Y-41355000D01*
X141000000Y-40455000D01*
X143000000Y-40455000D01*
X143000000Y-41355000D01*
X143000000Y-41355000D01*
G37*
G36*
X126000000Y-41355000D02*
G01*
X124000000Y-41355000D01*
X124000000Y-40455000D01*
X126000000Y-40455000D01*
X126000000Y-41355000D01*
X126000000Y-41355000D01*
G37*
G36*
X145749116Y-39903595D02*
G01*
X145778313Y-39912452D01*
X145805218Y-39926833D01*
X145828808Y-39946192D01*
X145848167Y-39969782D01*
X145862548Y-39996687D01*
X145871405Y-40025884D01*
X145875000Y-40062390D01*
X145875000Y-40937610D01*
X145871405Y-40974116D01*
X145862548Y-41003313D01*
X145848167Y-41030218D01*
X145828808Y-41053808D01*
X145805218Y-41073167D01*
X145778313Y-41087548D01*
X145749116Y-41096405D01*
X145712610Y-41100000D01*
X145162390Y-41100000D01*
X145125884Y-41096405D01*
X145096687Y-41087548D01*
X145069782Y-41073167D01*
X145046192Y-41053808D01*
X145026833Y-41030218D01*
X145012452Y-41003313D01*
X145003595Y-40974116D01*
X145000000Y-40937610D01*
X145000000Y-40062390D01*
X145003595Y-40025884D01*
X145012452Y-39996687D01*
X145026833Y-39969782D01*
X145046192Y-39946192D01*
X145069782Y-39926833D01*
X145096687Y-39912452D01*
X145125884Y-39903595D01*
X145162390Y-39900000D01*
X145712610Y-39900000D01*
X145749116Y-39903595D01*
X145749116Y-39903595D01*
G37*
G36*
X147874116Y-39903595D02*
G01*
X147903313Y-39912452D01*
X147930218Y-39926833D01*
X147953808Y-39946192D01*
X147973167Y-39969782D01*
X147987548Y-39996687D01*
X147996405Y-40025884D01*
X148000000Y-40062390D01*
X148000000Y-40937610D01*
X147996405Y-40974116D01*
X147987548Y-41003313D01*
X147973167Y-41030218D01*
X147953808Y-41053808D01*
X147930218Y-41073167D01*
X147903313Y-41087548D01*
X147874116Y-41096405D01*
X147837610Y-41100000D01*
X147287390Y-41100000D01*
X147250884Y-41096405D01*
X147221687Y-41087548D01*
X147194782Y-41073167D01*
X147171192Y-41053808D01*
X147151833Y-41030218D01*
X147137452Y-41003313D01*
X147128595Y-40974116D01*
X147125000Y-40937610D01*
X147125000Y-40062390D01*
X147128595Y-40025884D01*
X147137452Y-39996687D01*
X147151833Y-39969782D01*
X147171192Y-39946192D01*
X147194782Y-39926833D01*
X147221687Y-39912452D01*
X147250884Y-39903595D01*
X147287390Y-39900000D01*
X147837610Y-39900000D01*
X147874116Y-39903595D01*
X147874116Y-39903595D01*
G37*
G36*
X116837500Y-40192082D02*
G01*
X116851930Y-40196459D01*
X116865221Y-40203563D01*
X116876873Y-40213127D01*
X116886437Y-40224779D01*
X116893541Y-40238070D01*
X116897918Y-40252500D01*
X116900000Y-40273640D01*
X116900000Y-40726360D01*
X116897918Y-40747500D01*
X116893541Y-40761930D01*
X116886437Y-40775221D01*
X116876873Y-40786873D01*
X116865221Y-40796437D01*
X116851930Y-40803541D01*
X116837500Y-40807918D01*
X116816360Y-40810000D01*
X116423640Y-40810000D01*
X116402500Y-40807918D01*
X116388070Y-40803541D01*
X116374779Y-40796437D01*
X116363127Y-40786873D01*
X116353563Y-40775221D01*
X116346459Y-40761930D01*
X116342082Y-40747500D01*
X116340000Y-40726360D01*
X116340000Y-40273640D01*
X116342082Y-40252500D01*
X116346459Y-40238070D01*
X116353563Y-40224779D01*
X116363127Y-40213127D01*
X116374779Y-40203563D01*
X116388070Y-40196459D01*
X116402500Y-40192082D01*
X116423640Y-40190000D01*
X116816360Y-40190000D01*
X116837500Y-40192082D01*
X116837500Y-40192082D01*
G37*
G36*
X117797500Y-40192082D02*
G01*
X117811930Y-40196459D01*
X117825221Y-40203563D01*
X117836873Y-40213127D01*
X117846437Y-40224779D01*
X117853541Y-40238070D01*
X117857918Y-40252500D01*
X117860000Y-40273640D01*
X117860000Y-40726360D01*
X117857918Y-40747500D01*
X117853541Y-40761930D01*
X117846437Y-40775221D01*
X117836873Y-40786873D01*
X117825221Y-40796437D01*
X117811930Y-40803541D01*
X117797500Y-40807918D01*
X117776360Y-40810000D01*
X117383640Y-40810000D01*
X117362500Y-40807918D01*
X117348070Y-40803541D01*
X117334779Y-40796437D01*
X117323127Y-40786873D01*
X117313563Y-40775221D01*
X117306459Y-40761930D01*
X117302082Y-40747500D01*
X117300000Y-40726360D01*
X117300000Y-40273640D01*
X117302082Y-40252500D01*
X117306459Y-40238070D01*
X117313563Y-40224779D01*
X117323127Y-40213127D01*
X117334779Y-40203563D01*
X117348070Y-40196459D01*
X117362500Y-40192082D01*
X117383640Y-40190000D01*
X117776360Y-40190000D01*
X117797500Y-40192082D01*
X117797500Y-40192082D01*
G37*
G36*
X135000000Y-40745000D02*
G01*
X130000000Y-40745000D01*
X130000000Y-35745000D01*
X135000000Y-35745000D01*
X135000000Y-40745000D01*
X135000000Y-40745000D01*
G37*
G36*
X143000000Y-40085000D02*
G01*
X141000000Y-40085000D01*
X141000000Y-39185000D01*
X143000000Y-39185000D01*
X143000000Y-40085000D01*
X143000000Y-40085000D01*
G37*
G36*
X126000000Y-40085000D02*
G01*
X124000000Y-40085000D01*
X124000000Y-39185000D01*
X126000000Y-39185000D01*
X126000000Y-40085000D01*
X126000000Y-40085000D01*
G37*
G36*
X116777500Y-39192082D02*
G01*
X116791930Y-39196459D01*
X116805221Y-39203563D01*
X116816873Y-39213127D01*
X116826437Y-39224779D01*
X116833541Y-39238070D01*
X116837918Y-39252500D01*
X116840000Y-39273640D01*
X116840000Y-39726360D01*
X116837918Y-39747500D01*
X116833541Y-39761930D01*
X116826437Y-39775221D01*
X116816873Y-39786873D01*
X116805221Y-39796437D01*
X116791930Y-39803541D01*
X116777500Y-39807918D01*
X116756360Y-39810000D01*
X116363640Y-39810000D01*
X116342500Y-39807918D01*
X116328070Y-39803541D01*
X116314779Y-39796437D01*
X116303127Y-39786873D01*
X116293563Y-39775221D01*
X116286459Y-39761930D01*
X116282082Y-39747500D01*
X116280000Y-39726360D01*
X116280000Y-39273640D01*
X116282082Y-39252500D01*
X116286459Y-39238070D01*
X116293563Y-39224779D01*
X116303127Y-39213127D01*
X116314779Y-39203563D01*
X116328070Y-39196459D01*
X116342500Y-39192082D01*
X116363640Y-39190000D01*
X116756360Y-39190000D01*
X116777500Y-39192082D01*
X116777500Y-39192082D01*
G37*
G36*
X117737500Y-39192082D02*
G01*
X117751930Y-39196459D01*
X117765221Y-39203563D01*
X117776873Y-39213127D01*
X117786437Y-39224779D01*
X117793541Y-39238070D01*
X117797918Y-39252500D01*
X117800000Y-39273640D01*
X117800000Y-39726360D01*
X117797918Y-39747500D01*
X117793541Y-39761930D01*
X117786437Y-39775221D01*
X117776873Y-39786873D01*
X117765221Y-39796437D01*
X117751930Y-39803541D01*
X117737500Y-39807918D01*
X117716360Y-39810000D01*
X117323640Y-39810000D01*
X117302500Y-39807918D01*
X117288070Y-39803541D01*
X117274779Y-39796437D01*
X117263127Y-39786873D01*
X117253563Y-39775221D01*
X117246459Y-39761930D01*
X117242082Y-39747500D01*
X117240000Y-39726360D01*
X117240000Y-39273640D01*
X117242082Y-39252500D01*
X117246459Y-39238070D01*
X117253563Y-39224779D01*
X117263127Y-39213127D01*
X117274779Y-39203563D01*
X117288070Y-39196459D01*
X117302500Y-39192082D01*
X117323640Y-39190000D01*
X117716360Y-39190000D01*
X117737500Y-39192082D01*
X117737500Y-39192082D01*
G37*
G36*
X149237500Y-38692082D02*
G01*
X149251930Y-38696459D01*
X149265221Y-38703563D01*
X149276873Y-38713127D01*
X149286437Y-38724779D01*
X149293541Y-38738070D01*
X149297918Y-38752500D01*
X149300000Y-38773640D01*
X149300000Y-39226360D01*
X149297918Y-39247500D01*
X149293541Y-39261930D01*
X149286437Y-39275221D01*
X149276873Y-39286873D01*
X149265221Y-39296437D01*
X149251930Y-39303541D01*
X149237500Y-39307918D01*
X149216360Y-39310000D01*
X148823640Y-39310000D01*
X148802500Y-39307918D01*
X148788070Y-39303541D01*
X148774779Y-39296437D01*
X148763127Y-39286873D01*
X148753563Y-39275221D01*
X148746459Y-39261930D01*
X148742082Y-39247500D01*
X148740000Y-39226360D01*
X148740000Y-38773640D01*
X148742082Y-38752500D01*
X148746459Y-38738070D01*
X148753563Y-38724779D01*
X148763127Y-38713127D01*
X148774779Y-38703563D01*
X148788070Y-38696459D01*
X148802500Y-38692082D01*
X148823640Y-38690000D01*
X149216360Y-38690000D01*
X149237500Y-38692082D01*
X149237500Y-38692082D01*
G37*
G36*
X150197500Y-38692082D02*
G01*
X150211930Y-38696459D01*
X150225221Y-38703563D01*
X150236873Y-38713127D01*
X150246437Y-38724779D01*
X150253541Y-38738070D01*
X150257918Y-38752500D01*
X150260000Y-38773640D01*
X150260000Y-39226360D01*
X150257918Y-39247500D01*
X150253541Y-39261930D01*
X150246437Y-39275221D01*
X150236873Y-39286873D01*
X150225221Y-39296437D01*
X150211930Y-39303541D01*
X150197500Y-39307918D01*
X150176360Y-39310000D01*
X149783640Y-39310000D01*
X149762500Y-39307918D01*
X149748070Y-39303541D01*
X149734779Y-39296437D01*
X149723127Y-39286873D01*
X149713563Y-39275221D01*
X149706459Y-39261930D01*
X149702082Y-39247500D01*
X149700000Y-39226360D01*
X149700000Y-38773640D01*
X149702082Y-38752500D01*
X149706459Y-38738070D01*
X149713563Y-38724779D01*
X149723127Y-38713127D01*
X149734779Y-38703563D01*
X149748070Y-38696459D01*
X149762500Y-38692082D01*
X149783640Y-38690000D01*
X150176360Y-38690000D01*
X150197500Y-38692082D01*
X150197500Y-38692082D01*
G37*
G36*
X143000000Y-38815000D02*
G01*
X141000000Y-38815000D01*
X141000000Y-37915000D01*
X143000000Y-37915000D01*
X143000000Y-38815000D01*
X143000000Y-38815000D01*
G37*
G36*
X126000000Y-38815000D02*
G01*
X124000000Y-38815000D01*
X124000000Y-37915000D01*
X126000000Y-37915000D01*
X126000000Y-38815000D01*
X126000000Y-38815000D01*
G37*
G36*
X146197500Y-38192082D02*
G01*
X146211930Y-38196459D01*
X146225221Y-38203563D01*
X146236873Y-38213127D01*
X146246437Y-38224779D01*
X146253541Y-38238070D01*
X146257918Y-38252500D01*
X146260000Y-38273640D01*
X146260000Y-38726360D01*
X146257918Y-38747500D01*
X146253541Y-38761930D01*
X146246437Y-38775221D01*
X146236873Y-38786873D01*
X146225221Y-38796437D01*
X146211930Y-38803541D01*
X146197500Y-38807918D01*
X146176360Y-38810000D01*
X145783640Y-38810000D01*
X145762500Y-38807918D01*
X145748070Y-38803541D01*
X145734779Y-38796437D01*
X145723127Y-38786873D01*
X145713563Y-38775221D01*
X145706459Y-38761930D01*
X145702082Y-38747500D01*
X145700000Y-38726360D01*
X145700000Y-38273640D01*
X145702082Y-38252500D01*
X145706459Y-38238070D01*
X145713563Y-38224779D01*
X145723127Y-38213127D01*
X145734779Y-38203563D01*
X145748070Y-38196459D01*
X145762500Y-38192082D01*
X145783640Y-38190000D01*
X146176360Y-38190000D01*
X146197500Y-38192082D01*
X146197500Y-38192082D01*
G37*
G36*
X145237500Y-38192082D02*
G01*
X145251930Y-38196459D01*
X145265221Y-38203563D01*
X145276873Y-38213127D01*
X145286437Y-38224779D01*
X145293541Y-38238070D01*
X145297918Y-38252500D01*
X145300000Y-38273640D01*
X145300000Y-38726360D01*
X145297918Y-38747500D01*
X145293541Y-38761930D01*
X145286437Y-38775221D01*
X145276873Y-38786873D01*
X145265221Y-38796437D01*
X145251930Y-38803541D01*
X145237500Y-38807918D01*
X145216360Y-38810000D01*
X144823640Y-38810000D01*
X144802500Y-38807918D01*
X144788070Y-38803541D01*
X144774779Y-38796437D01*
X144763127Y-38786873D01*
X144753563Y-38775221D01*
X144746459Y-38761930D01*
X144742082Y-38747500D01*
X144740000Y-38726360D01*
X144740000Y-38273640D01*
X144742082Y-38252500D01*
X144746459Y-38238070D01*
X144753563Y-38224779D01*
X144763127Y-38213127D01*
X144774779Y-38203563D01*
X144788070Y-38196459D01*
X144802500Y-38192082D01*
X144823640Y-38190000D01*
X145216360Y-38190000D01*
X145237500Y-38192082D01*
X145237500Y-38192082D01*
G37*
G36*
X117717500Y-38192082D02*
G01*
X117731930Y-38196459D01*
X117745221Y-38203563D01*
X117756873Y-38213127D01*
X117766437Y-38224779D01*
X117773541Y-38238070D01*
X117777918Y-38252500D01*
X117780000Y-38273640D01*
X117780000Y-38726360D01*
X117777918Y-38747500D01*
X117773541Y-38761930D01*
X117766437Y-38775221D01*
X117756873Y-38786873D01*
X117745221Y-38796437D01*
X117731930Y-38803541D01*
X117717500Y-38807918D01*
X117696360Y-38810000D01*
X117303640Y-38810000D01*
X117282500Y-38807918D01*
X117268070Y-38803541D01*
X117254779Y-38796437D01*
X117243127Y-38786873D01*
X117233563Y-38775221D01*
X117226459Y-38761930D01*
X117222082Y-38747500D01*
X117220000Y-38726360D01*
X117220000Y-38273640D01*
X117222082Y-38252500D01*
X117226459Y-38238070D01*
X117233563Y-38224779D01*
X117243127Y-38213127D01*
X117254779Y-38203563D01*
X117268070Y-38196459D01*
X117282500Y-38192082D01*
X117303640Y-38190000D01*
X117696360Y-38190000D01*
X117717500Y-38192082D01*
X117717500Y-38192082D01*
G37*
G36*
X116757500Y-38192082D02*
G01*
X116771930Y-38196459D01*
X116785221Y-38203563D01*
X116796873Y-38213127D01*
X116806437Y-38224779D01*
X116813541Y-38238070D01*
X116817918Y-38252500D01*
X116820000Y-38273640D01*
X116820000Y-38726360D01*
X116817918Y-38747500D01*
X116813541Y-38761930D01*
X116806437Y-38775221D01*
X116796873Y-38786873D01*
X116785221Y-38796437D01*
X116771930Y-38803541D01*
X116757500Y-38807918D01*
X116736360Y-38810000D01*
X116343640Y-38810000D01*
X116322500Y-38807918D01*
X116308070Y-38803541D01*
X116294779Y-38796437D01*
X116283127Y-38786873D01*
X116273563Y-38775221D01*
X116266459Y-38761930D01*
X116262082Y-38747500D01*
X116260000Y-38726360D01*
X116260000Y-38273640D01*
X116262082Y-38252500D01*
X116266459Y-38238070D01*
X116273563Y-38224779D01*
X116283127Y-38213127D01*
X116294779Y-38203563D01*
X116308070Y-38196459D01*
X116322500Y-38192082D01*
X116343640Y-38190000D01*
X116736360Y-38190000D01*
X116757500Y-38192082D01*
X116757500Y-38192082D01*
G37*
G36*
X148237500Y-37192082D02*
G01*
X148251930Y-37196459D01*
X148265221Y-37203563D01*
X148276873Y-37213127D01*
X148286437Y-37224779D01*
X148293541Y-37238070D01*
X148297918Y-37252500D01*
X148300000Y-37273640D01*
X148300000Y-37726360D01*
X148297918Y-37747500D01*
X148293541Y-37761930D01*
X148286437Y-37775221D01*
X148276873Y-37786873D01*
X148265221Y-37796437D01*
X148251930Y-37803541D01*
X148237500Y-37807918D01*
X148216360Y-37810000D01*
X147823640Y-37810000D01*
X147802500Y-37807918D01*
X147788070Y-37803541D01*
X147774779Y-37796437D01*
X147763127Y-37786873D01*
X147753563Y-37775221D01*
X147746459Y-37761930D01*
X147742082Y-37747500D01*
X147740000Y-37726360D01*
X147740000Y-37273640D01*
X147742082Y-37252500D01*
X147746459Y-37238070D01*
X147753563Y-37224779D01*
X147763127Y-37213127D01*
X147774779Y-37203563D01*
X147788070Y-37196459D01*
X147802500Y-37192082D01*
X147823640Y-37190000D01*
X148216360Y-37190000D01*
X148237500Y-37192082D01*
X148237500Y-37192082D01*
G37*
G36*
X116837500Y-37192082D02*
G01*
X116851930Y-37196459D01*
X116865221Y-37203563D01*
X116876873Y-37213127D01*
X116886437Y-37224779D01*
X116893541Y-37238070D01*
X116897918Y-37252500D01*
X116900000Y-37273640D01*
X116900000Y-37726360D01*
X116897918Y-37747500D01*
X116893541Y-37761930D01*
X116886437Y-37775221D01*
X116876873Y-37786873D01*
X116865221Y-37796437D01*
X116851930Y-37803541D01*
X116837500Y-37807918D01*
X116816360Y-37810000D01*
X116423640Y-37810000D01*
X116402500Y-37807918D01*
X116388070Y-37803541D01*
X116374779Y-37796437D01*
X116363127Y-37786873D01*
X116353563Y-37775221D01*
X116346459Y-37761930D01*
X116342082Y-37747500D01*
X116340000Y-37726360D01*
X116340000Y-37273640D01*
X116342082Y-37252500D01*
X116346459Y-37238070D01*
X116353563Y-37224779D01*
X116363127Y-37213127D01*
X116374779Y-37203563D01*
X116388070Y-37196459D01*
X116402500Y-37192082D01*
X116423640Y-37190000D01*
X116816360Y-37190000D01*
X116837500Y-37192082D01*
X116837500Y-37192082D01*
G37*
G36*
X146197500Y-37192082D02*
G01*
X146211930Y-37196459D01*
X146225221Y-37203563D01*
X146236873Y-37213127D01*
X146246437Y-37224779D01*
X146253541Y-37238070D01*
X146257918Y-37252500D01*
X146260000Y-37273640D01*
X146260000Y-37726360D01*
X146257918Y-37747500D01*
X146253541Y-37761930D01*
X146246437Y-37775221D01*
X146236873Y-37786873D01*
X146225221Y-37796437D01*
X146211930Y-37803541D01*
X146197500Y-37807918D01*
X146176360Y-37810000D01*
X145783640Y-37810000D01*
X145762500Y-37807918D01*
X145748070Y-37803541D01*
X145734779Y-37796437D01*
X145723127Y-37786873D01*
X145713563Y-37775221D01*
X145706459Y-37761930D01*
X145702082Y-37747500D01*
X145700000Y-37726360D01*
X145700000Y-37273640D01*
X145702082Y-37252500D01*
X145706459Y-37238070D01*
X145713563Y-37224779D01*
X145723127Y-37213127D01*
X145734779Y-37203563D01*
X145748070Y-37196459D01*
X145762500Y-37192082D01*
X145783640Y-37190000D01*
X146176360Y-37190000D01*
X146197500Y-37192082D01*
X146197500Y-37192082D01*
G37*
G36*
X149197500Y-37192082D02*
G01*
X149211930Y-37196459D01*
X149225221Y-37203563D01*
X149236873Y-37213127D01*
X149246437Y-37224779D01*
X149253541Y-37238070D01*
X149257918Y-37252500D01*
X149260000Y-37273640D01*
X149260000Y-37726360D01*
X149257918Y-37747500D01*
X149253541Y-37761930D01*
X149246437Y-37775221D01*
X149236873Y-37786873D01*
X149225221Y-37796437D01*
X149211930Y-37803541D01*
X149197500Y-37807918D01*
X149176360Y-37810000D01*
X148783640Y-37810000D01*
X148762500Y-37807918D01*
X148748070Y-37803541D01*
X148734779Y-37796437D01*
X148723127Y-37786873D01*
X148713563Y-37775221D01*
X148706459Y-37761930D01*
X148702082Y-37747500D01*
X148700000Y-37726360D01*
X148700000Y-37273640D01*
X148702082Y-37252500D01*
X148706459Y-37238070D01*
X148713563Y-37224779D01*
X148723127Y-37213127D01*
X148734779Y-37203563D01*
X148748070Y-37196459D01*
X148762500Y-37192082D01*
X148783640Y-37190000D01*
X149176360Y-37190000D01*
X149197500Y-37192082D01*
X149197500Y-37192082D01*
G37*
G36*
X117797500Y-37192082D02*
G01*
X117811930Y-37196459D01*
X117825221Y-37203563D01*
X117836873Y-37213127D01*
X117846437Y-37224779D01*
X117853541Y-37238070D01*
X117857918Y-37252500D01*
X117860000Y-37273640D01*
X117860000Y-37726360D01*
X117857918Y-37747500D01*
X117853541Y-37761930D01*
X117846437Y-37775221D01*
X117836873Y-37786873D01*
X117825221Y-37796437D01*
X117811930Y-37803541D01*
X117797500Y-37807918D01*
X117776360Y-37810000D01*
X117383640Y-37810000D01*
X117362500Y-37807918D01*
X117348070Y-37803541D01*
X117334779Y-37796437D01*
X117323127Y-37786873D01*
X117313563Y-37775221D01*
X117306459Y-37761930D01*
X117302082Y-37747500D01*
X117300000Y-37726360D01*
X117300000Y-37273640D01*
X117302082Y-37252500D01*
X117306459Y-37238070D01*
X117313563Y-37224779D01*
X117323127Y-37213127D01*
X117334779Y-37203563D01*
X117348070Y-37196459D01*
X117362500Y-37192082D01*
X117383640Y-37190000D01*
X117776360Y-37190000D01*
X117797500Y-37192082D01*
X117797500Y-37192082D01*
G37*
G36*
X145237500Y-37192082D02*
G01*
X145251930Y-37196459D01*
X145265221Y-37203563D01*
X145276873Y-37213127D01*
X145286437Y-37224779D01*
X145293541Y-37238070D01*
X145297918Y-37252500D01*
X145300000Y-37273640D01*
X145300000Y-37726360D01*
X145297918Y-37747500D01*
X145293541Y-37761930D01*
X145286437Y-37775221D01*
X145276873Y-37786873D01*
X145265221Y-37796437D01*
X145251930Y-37803541D01*
X145237500Y-37807918D01*
X145216360Y-37810000D01*
X144823640Y-37810000D01*
X144802500Y-37807918D01*
X144788070Y-37803541D01*
X144774779Y-37796437D01*
X144763127Y-37786873D01*
X144753563Y-37775221D01*
X144746459Y-37761930D01*
X144742082Y-37747500D01*
X144740000Y-37726360D01*
X144740000Y-37273640D01*
X144742082Y-37252500D01*
X144746459Y-37238070D01*
X144753563Y-37224779D01*
X144763127Y-37213127D01*
X144774779Y-37203563D01*
X144788070Y-37196459D01*
X144802500Y-37192082D01*
X144823640Y-37190000D01*
X145216360Y-37190000D01*
X145237500Y-37192082D01*
X145237500Y-37192082D01*
G37*
G36*
X126000000Y-37545000D02*
G01*
X124000000Y-37545000D01*
X124000000Y-36645000D01*
X126000000Y-36645000D01*
X126000000Y-37545000D01*
X126000000Y-37545000D01*
G37*
G36*
X143000000Y-37545000D02*
G01*
X141000000Y-37545000D01*
X141000000Y-36645000D01*
X143000000Y-36645000D01*
X143000000Y-37545000D01*
X143000000Y-37545000D01*
G37*
G36*
X117831463Y-36182226D02*
G01*
X117847298Y-36187030D01*
X117861886Y-36194827D01*
X117874676Y-36205324D01*
X117885173Y-36218114D01*
X117892970Y-36232702D01*
X117897774Y-36248537D01*
X117900000Y-36271140D01*
X117900000Y-36728860D01*
X117897774Y-36751463D01*
X117892970Y-36767298D01*
X117885173Y-36781886D01*
X117874676Y-36794676D01*
X117861886Y-36805173D01*
X117847298Y-36812970D01*
X117831463Y-36817774D01*
X117808860Y-36820000D01*
X117401140Y-36820000D01*
X117378537Y-36817774D01*
X117362702Y-36812970D01*
X117348114Y-36805173D01*
X117335324Y-36794676D01*
X117324827Y-36781886D01*
X117317030Y-36767298D01*
X117312226Y-36751463D01*
X117310000Y-36728860D01*
X117310000Y-36271140D01*
X117312226Y-36248537D01*
X117317030Y-36232702D01*
X117324827Y-36218114D01*
X117335324Y-36205324D01*
X117348114Y-36194827D01*
X117362702Y-36187030D01*
X117378537Y-36182226D01*
X117401140Y-36180000D01*
X117808860Y-36180000D01*
X117831463Y-36182226D01*
X117831463Y-36182226D01*
G37*
G36*
X116861463Y-36182226D02*
G01*
X116877298Y-36187030D01*
X116891886Y-36194827D01*
X116904676Y-36205324D01*
X116915173Y-36218114D01*
X116922970Y-36232702D01*
X116927774Y-36248537D01*
X116930000Y-36271140D01*
X116930000Y-36728860D01*
X116927774Y-36751463D01*
X116922970Y-36767298D01*
X116915173Y-36781886D01*
X116904676Y-36794676D01*
X116891886Y-36805173D01*
X116877298Y-36812970D01*
X116861463Y-36817774D01*
X116838860Y-36820000D01*
X116431140Y-36820000D01*
X116408537Y-36817774D01*
X116392702Y-36812970D01*
X116378114Y-36805173D01*
X116365324Y-36794676D01*
X116354827Y-36781886D01*
X116347030Y-36767298D01*
X116342226Y-36751463D01*
X116340000Y-36728860D01*
X116340000Y-36271140D01*
X116342226Y-36248537D01*
X116347030Y-36232702D01*
X116354827Y-36218114D01*
X116365324Y-36205324D01*
X116378114Y-36194827D01*
X116392702Y-36187030D01*
X116408537Y-36182226D01*
X116431140Y-36180000D01*
X116838860Y-36180000D01*
X116861463Y-36182226D01*
X116861463Y-36182226D01*
G37*
G36*
X146197500Y-36192082D02*
G01*
X146211930Y-36196459D01*
X146225221Y-36203563D01*
X146236873Y-36213127D01*
X146246437Y-36224779D01*
X146253541Y-36238070D01*
X146257918Y-36252500D01*
X146260000Y-36273640D01*
X146260000Y-36726360D01*
X146257918Y-36747500D01*
X146253541Y-36761930D01*
X146246437Y-36775221D01*
X146236873Y-36786873D01*
X146225221Y-36796437D01*
X146211930Y-36803541D01*
X146197500Y-36807918D01*
X146176360Y-36810000D01*
X145783640Y-36810000D01*
X145762500Y-36807918D01*
X145748070Y-36803541D01*
X145734779Y-36796437D01*
X145723127Y-36786873D01*
X145713563Y-36775221D01*
X145706459Y-36761930D01*
X145702082Y-36747500D01*
X145700000Y-36726360D01*
X145700000Y-36273640D01*
X145702082Y-36252500D01*
X145706459Y-36238070D01*
X145713563Y-36224779D01*
X145723127Y-36213127D01*
X145734779Y-36203563D01*
X145748070Y-36196459D01*
X145762500Y-36192082D01*
X145783640Y-36190000D01*
X146176360Y-36190000D01*
X146197500Y-36192082D01*
X146197500Y-36192082D01*
G37*
G36*
X145237500Y-36192082D02*
G01*
X145251930Y-36196459D01*
X145265221Y-36203563D01*
X145276873Y-36213127D01*
X145286437Y-36224779D01*
X145293541Y-36238070D01*
X145297918Y-36252500D01*
X145300000Y-36273640D01*
X145300000Y-36726360D01*
X145297918Y-36747500D01*
X145293541Y-36761930D01*
X145286437Y-36775221D01*
X145276873Y-36786873D01*
X145265221Y-36796437D01*
X145251930Y-36803541D01*
X145237500Y-36807918D01*
X145216360Y-36810000D01*
X144823640Y-36810000D01*
X144802500Y-36807918D01*
X144788070Y-36803541D01*
X144774779Y-36796437D01*
X144763127Y-36786873D01*
X144753563Y-36775221D01*
X144746459Y-36761930D01*
X144742082Y-36747500D01*
X144740000Y-36726360D01*
X144740000Y-36273640D01*
X144742082Y-36252500D01*
X144746459Y-36238070D01*
X144753563Y-36224779D01*
X144763127Y-36213127D01*
X144774779Y-36203563D01*
X144788070Y-36196459D01*
X144802500Y-36192082D01*
X144823640Y-36190000D01*
X145216360Y-36190000D01*
X145237500Y-36192082D01*
X145237500Y-36192082D01*
G37*
G36*
X126000000Y-36275000D02*
G01*
X124000000Y-36275000D01*
X124000000Y-35375000D01*
X126000000Y-35375000D01*
X126000000Y-36275000D01*
X126000000Y-36275000D01*
G37*
G36*
X143000000Y-36275000D02*
G01*
X141000000Y-36275000D01*
X141000000Y-35375000D01*
X143000000Y-35375000D01*
X143000000Y-36275000D01*
X143000000Y-36275000D01*
G37*
G36*
X118017500Y-35192082D02*
G01*
X118031930Y-35196459D01*
X118045221Y-35203563D01*
X118056873Y-35213127D01*
X118066437Y-35224779D01*
X118073541Y-35238070D01*
X118077918Y-35252500D01*
X118080000Y-35273640D01*
X118080000Y-35726360D01*
X118077918Y-35747500D01*
X118073541Y-35761930D01*
X118066437Y-35775221D01*
X118056873Y-35786873D01*
X118045221Y-35796437D01*
X118031930Y-35803541D01*
X118017500Y-35807918D01*
X117996360Y-35810000D01*
X117603640Y-35810000D01*
X117582500Y-35807918D01*
X117568070Y-35803541D01*
X117554779Y-35796437D01*
X117543127Y-35786873D01*
X117533563Y-35775221D01*
X117526459Y-35761930D01*
X117522082Y-35747500D01*
X117520000Y-35726360D01*
X117520000Y-35273640D01*
X117522082Y-35252500D01*
X117526459Y-35238070D01*
X117533563Y-35224779D01*
X117543127Y-35213127D01*
X117554779Y-35203563D01*
X117568070Y-35196459D01*
X117582500Y-35192082D01*
X117603640Y-35190000D01*
X117996360Y-35190000D01*
X118017500Y-35192082D01*
X118017500Y-35192082D01*
G37*
G36*
X146197500Y-35192082D02*
G01*
X146211930Y-35196459D01*
X146225221Y-35203563D01*
X146236873Y-35213127D01*
X146246437Y-35224779D01*
X146253541Y-35238070D01*
X146257918Y-35252500D01*
X146260000Y-35273640D01*
X146260000Y-35726360D01*
X146257918Y-35747500D01*
X146253541Y-35761930D01*
X146246437Y-35775221D01*
X146236873Y-35786873D01*
X146225221Y-35796437D01*
X146211930Y-35803541D01*
X146197500Y-35807918D01*
X146176360Y-35810000D01*
X145783640Y-35810000D01*
X145762500Y-35807918D01*
X145748070Y-35803541D01*
X145734779Y-35796437D01*
X145723127Y-35786873D01*
X145713563Y-35775221D01*
X145706459Y-35761930D01*
X145702082Y-35747500D01*
X145700000Y-35726360D01*
X145700000Y-35273640D01*
X145702082Y-35252500D01*
X145706459Y-35238070D01*
X145713563Y-35224779D01*
X145723127Y-35213127D01*
X145734779Y-35203563D01*
X145748070Y-35196459D01*
X145762500Y-35192082D01*
X145783640Y-35190000D01*
X146176360Y-35190000D01*
X146197500Y-35192082D01*
X146197500Y-35192082D01*
G37*
G36*
X145237500Y-35192082D02*
G01*
X145251930Y-35196459D01*
X145265221Y-35203563D01*
X145276873Y-35213127D01*
X145286437Y-35224779D01*
X145293541Y-35238070D01*
X145297918Y-35252500D01*
X145300000Y-35273640D01*
X145300000Y-35726360D01*
X145297918Y-35747500D01*
X145293541Y-35761930D01*
X145286437Y-35775221D01*
X145276873Y-35786873D01*
X145265221Y-35796437D01*
X145251930Y-35803541D01*
X145237500Y-35807918D01*
X145216360Y-35810000D01*
X144823640Y-35810000D01*
X144802500Y-35807918D01*
X144788070Y-35803541D01*
X144774779Y-35796437D01*
X144763127Y-35786873D01*
X144753563Y-35775221D01*
X144746459Y-35761930D01*
X144742082Y-35747500D01*
X144740000Y-35726360D01*
X144740000Y-35273640D01*
X144742082Y-35252500D01*
X144746459Y-35238070D01*
X144753563Y-35224779D01*
X144763127Y-35213127D01*
X144774779Y-35203563D01*
X144788070Y-35196459D01*
X144802500Y-35192082D01*
X144823640Y-35190000D01*
X145216360Y-35190000D01*
X145237500Y-35192082D01*
X145237500Y-35192082D01*
G37*
G36*
X117057500Y-35192082D02*
G01*
X117071930Y-35196459D01*
X117085221Y-35203563D01*
X117096873Y-35213127D01*
X117106437Y-35224779D01*
X117113541Y-35238070D01*
X117117918Y-35252500D01*
X117120000Y-35273640D01*
X117120000Y-35726360D01*
X117117918Y-35747500D01*
X117113541Y-35761930D01*
X117106437Y-35775221D01*
X117096873Y-35786873D01*
X117085221Y-35796437D01*
X117071930Y-35803541D01*
X117057500Y-35807918D01*
X117036360Y-35810000D01*
X116643640Y-35810000D01*
X116622500Y-35807918D01*
X116608070Y-35803541D01*
X116594779Y-35796437D01*
X116583127Y-35786873D01*
X116573563Y-35775221D01*
X116566459Y-35761930D01*
X116562082Y-35747500D01*
X116560000Y-35726360D01*
X116560000Y-35273640D01*
X116562082Y-35252500D01*
X116566459Y-35238070D01*
X116573563Y-35224779D01*
X116583127Y-35213127D01*
X116594779Y-35203563D01*
X116608070Y-35196459D01*
X116622500Y-35192082D01*
X116643640Y-35190000D01*
X117036360Y-35190000D01*
X117057500Y-35192082D01*
X117057500Y-35192082D01*
G37*
G36*
X143000000Y-35005000D02*
G01*
X141000000Y-35005000D01*
X141000000Y-34105000D01*
X143000000Y-34105000D01*
X143000000Y-35005000D01*
X143000000Y-35005000D01*
G37*
G36*
X126000000Y-35005000D02*
G01*
X124000000Y-35005000D01*
X124000000Y-34105000D01*
X126000000Y-34105000D01*
X126000000Y-35005000D01*
X126000000Y-35005000D01*
G37*
G36*
X117257500Y-34192082D02*
G01*
X117271930Y-34196459D01*
X117285221Y-34203563D01*
X117296873Y-34213127D01*
X117306437Y-34224779D01*
X117313541Y-34238070D01*
X117317918Y-34252500D01*
X117320000Y-34273640D01*
X117320000Y-34726360D01*
X117317918Y-34747500D01*
X117313541Y-34761930D01*
X117306437Y-34775221D01*
X117296873Y-34786873D01*
X117285221Y-34796437D01*
X117271930Y-34803541D01*
X117257500Y-34807918D01*
X117236360Y-34810000D01*
X116843640Y-34810000D01*
X116822500Y-34807918D01*
X116808070Y-34803541D01*
X116794779Y-34796437D01*
X116783127Y-34786873D01*
X116773563Y-34775221D01*
X116766459Y-34761930D01*
X116762082Y-34747500D01*
X116760000Y-34726360D01*
X116760000Y-34273640D01*
X116762082Y-34252500D01*
X116766459Y-34238070D01*
X116773563Y-34224779D01*
X116783127Y-34213127D01*
X116794779Y-34203563D01*
X116808070Y-34196459D01*
X116822500Y-34192082D01*
X116843640Y-34190000D01*
X117236360Y-34190000D01*
X117257500Y-34192082D01*
X117257500Y-34192082D01*
G37*
G36*
X146197500Y-34192082D02*
G01*
X146211930Y-34196459D01*
X146225221Y-34203563D01*
X146236873Y-34213127D01*
X146246437Y-34224779D01*
X146253541Y-34238070D01*
X146257918Y-34252500D01*
X146260000Y-34273640D01*
X146260000Y-34726360D01*
X146257918Y-34747500D01*
X146253541Y-34761930D01*
X146246437Y-34775221D01*
X146236873Y-34786873D01*
X146225221Y-34796437D01*
X146211930Y-34803541D01*
X146197500Y-34807918D01*
X146176360Y-34810000D01*
X145783640Y-34810000D01*
X145762500Y-34807918D01*
X145748070Y-34803541D01*
X145734779Y-34796437D01*
X145723127Y-34786873D01*
X145713563Y-34775221D01*
X145706459Y-34761930D01*
X145702082Y-34747500D01*
X145700000Y-34726360D01*
X145700000Y-34273640D01*
X145702082Y-34252500D01*
X145706459Y-34238070D01*
X145713563Y-34224779D01*
X145723127Y-34213127D01*
X145734779Y-34203563D01*
X145748070Y-34196459D01*
X145762500Y-34192082D01*
X145783640Y-34190000D01*
X146176360Y-34190000D01*
X146197500Y-34192082D01*
X146197500Y-34192082D01*
G37*
G36*
X145237500Y-34192082D02*
G01*
X145251930Y-34196459D01*
X145265221Y-34203563D01*
X145276873Y-34213127D01*
X145286437Y-34224779D01*
X145293541Y-34238070D01*
X145297918Y-34252500D01*
X145300000Y-34273640D01*
X145300000Y-34726360D01*
X145297918Y-34747500D01*
X145293541Y-34761930D01*
X145286437Y-34775221D01*
X145276873Y-34786873D01*
X145265221Y-34796437D01*
X145251930Y-34803541D01*
X145237500Y-34807918D01*
X145216360Y-34810000D01*
X144823640Y-34810000D01*
X144802500Y-34807918D01*
X144788070Y-34803541D01*
X144774779Y-34796437D01*
X144763127Y-34786873D01*
X144753563Y-34775221D01*
X144746459Y-34761930D01*
X144742082Y-34747500D01*
X144740000Y-34726360D01*
X144740000Y-34273640D01*
X144742082Y-34252500D01*
X144746459Y-34238070D01*
X144753563Y-34224779D01*
X144763127Y-34213127D01*
X144774779Y-34203563D01*
X144788070Y-34196459D01*
X144802500Y-34192082D01*
X144823640Y-34190000D01*
X145216360Y-34190000D01*
X145237500Y-34192082D01*
X145237500Y-34192082D01*
G37*
G36*
X118217500Y-34192082D02*
G01*
X118231930Y-34196459D01*
X118245221Y-34203563D01*
X118256873Y-34213127D01*
X118266437Y-34224779D01*
X118273541Y-34238070D01*
X118277918Y-34252500D01*
X118280000Y-34273640D01*
X118280000Y-34726360D01*
X118277918Y-34747500D01*
X118273541Y-34761930D01*
X118266437Y-34775221D01*
X118256873Y-34786873D01*
X118245221Y-34796437D01*
X118231930Y-34803541D01*
X118217500Y-34807918D01*
X118196360Y-34810000D01*
X117803640Y-34810000D01*
X117782500Y-34807918D01*
X117768070Y-34803541D01*
X117754779Y-34796437D01*
X117743127Y-34786873D01*
X117733563Y-34775221D01*
X117726459Y-34761930D01*
X117722082Y-34747500D01*
X117720000Y-34726360D01*
X117720000Y-34273640D01*
X117722082Y-34252500D01*
X117726459Y-34238070D01*
X117733563Y-34224779D01*
X117743127Y-34213127D01*
X117754779Y-34203563D01*
X117768070Y-34196459D01*
X117782500Y-34192082D01*
X117803640Y-34190000D01*
X118196360Y-34190000D01*
X118217500Y-34192082D01*
X118217500Y-34192082D01*
G37*
G36*
X118517500Y-33192082D02*
G01*
X118531930Y-33196459D01*
X118545221Y-33203563D01*
X118556873Y-33213127D01*
X118566437Y-33224779D01*
X118573541Y-33238070D01*
X118577918Y-33252500D01*
X118580000Y-33273640D01*
X118580000Y-33726360D01*
X118577918Y-33747500D01*
X118573541Y-33761930D01*
X118566437Y-33775221D01*
X118556873Y-33786873D01*
X118545221Y-33796437D01*
X118531930Y-33803541D01*
X118517500Y-33807918D01*
X118496360Y-33810000D01*
X118103640Y-33810000D01*
X118082500Y-33807918D01*
X118068070Y-33803541D01*
X118054779Y-33796437D01*
X118043127Y-33786873D01*
X118033563Y-33775221D01*
X118026459Y-33761930D01*
X118022082Y-33747500D01*
X118020000Y-33726360D01*
X118020000Y-33273640D01*
X118022082Y-33252500D01*
X118026459Y-33238070D01*
X118033563Y-33224779D01*
X118043127Y-33213127D01*
X118054779Y-33203563D01*
X118068070Y-33196459D01*
X118082500Y-33192082D01*
X118103640Y-33190000D01*
X118496360Y-33190000D01*
X118517500Y-33192082D01*
X118517500Y-33192082D01*
G37*
G36*
X117557500Y-33192082D02*
G01*
X117571930Y-33196459D01*
X117585221Y-33203563D01*
X117596873Y-33213127D01*
X117606437Y-33224779D01*
X117613541Y-33238070D01*
X117617918Y-33252500D01*
X117620000Y-33273640D01*
X117620000Y-33726360D01*
X117617918Y-33747500D01*
X117613541Y-33761930D01*
X117606437Y-33775221D01*
X117596873Y-33786873D01*
X117585221Y-33796437D01*
X117571930Y-33803541D01*
X117557500Y-33807918D01*
X117536360Y-33810000D01*
X117143640Y-33810000D01*
X117122500Y-33807918D01*
X117108070Y-33803541D01*
X117094779Y-33796437D01*
X117083127Y-33786873D01*
X117073563Y-33775221D01*
X117066459Y-33761930D01*
X117062082Y-33747500D01*
X117060000Y-33726360D01*
X117060000Y-33273640D01*
X117062082Y-33252500D01*
X117066459Y-33238070D01*
X117073563Y-33224779D01*
X117083127Y-33213127D01*
X117094779Y-33203563D01*
X117108070Y-33196459D01*
X117122500Y-33192082D01*
X117143640Y-33190000D01*
X117536360Y-33190000D01*
X117557500Y-33192082D01*
X117557500Y-33192082D01*
G37*
G36*
X143000000Y-33735000D02*
G01*
X141000000Y-33735000D01*
X141000000Y-32835000D01*
X143000000Y-32835000D01*
X143000000Y-33735000D01*
X143000000Y-33735000D01*
G37*
G36*
X126000000Y-33735000D02*
G01*
X124000000Y-33735000D01*
X124000000Y-32835000D01*
X126000000Y-32835000D01*
X126000000Y-33735000D01*
X126000000Y-33735000D01*
G37*
G36*
X118897500Y-32192082D02*
G01*
X118911930Y-32196459D01*
X118925221Y-32203563D01*
X118936873Y-32213127D01*
X118946437Y-32224779D01*
X118953541Y-32238070D01*
X118957918Y-32252500D01*
X118960000Y-32273640D01*
X118960000Y-32726360D01*
X118957918Y-32747500D01*
X118953541Y-32761930D01*
X118946437Y-32775221D01*
X118936873Y-32786873D01*
X118925221Y-32796437D01*
X118911930Y-32803541D01*
X118897500Y-32807918D01*
X118876360Y-32810000D01*
X118483640Y-32810000D01*
X118462500Y-32807918D01*
X118448070Y-32803541D01*
X118434779Y-32796437D01*
X118423127Y-32786873D01*
X118413563Y-32775221D01*
X118406459Y-32761930D01*
X118402082Y-32747500D01*
X118400000Y-32726360D01*
X118400000Y-32273640D01*
X118402082Y-32252500D01*
X118406459Y-32238070D01*
X118413563Y-32224779D01*
X118423127Y-32213127D01*
X118434779Y-32203563D01*
X118448070Y-32196459D01*
X118462500Y-32192082D01*
X118483640Y-32190000D01*
X118876360Y-32190000D01*
X118897500Y-32192082D01*
X118897500Y-32192082D01*
G37*
G36*
X117937500Y-32192082D02*
G01*
X117951930Y-32196459D01*
X117965221Y-32203563D01*
X117976873Y-32213127D01*
X117986437Y-32224779D01*
X117993541Y-32238070D01*
X117997918Y-32252500D01*
X118000000Y-32273640D01*
X118000000Y-32726360D01*
X117997918Y-32747500D01*
X117993541Y-32761930D01*
X117986437Y-32775221D01*
X117976873Y-32786873D01*
X117965221Y-32796437D01*
X117951930Y-32803541D01*
X117937500Y-32807918D01*
X117916360Y-32810000D01*
X117523640Y-32810000D01*
X117502500Y-32807918D01*
X117488070Y-32803541D01*
X117474779Y-32796437D01*
X117463127Y-32786873D01*
X117453563Y-32775221D01*
X117446459Y-32761930D01*
X117442082Y-32747500D01*
X117440000Y-32726360D01*
X117440000Y-32273640D01*
X117442082Y-32252500D01*
X117446459Y-32238070D01*
X117453563Y-32224779D01*
X117463127Y-32213127D01*
X117474779Y-32203563D01*
X117488070Y-32196459D01*
X117502500Y-32192082D01*
X117523640Y-32190000D01*
X117916360Y-32190000D01*
X117937500Y-32192082D01*
X117937500Y-32192082D01*
G37*
G36*
X126000000Y-32465000D02*
G01*
X124000000Y-32465000D01*
X124000000Y-31565000D01*
X126000000Y-31565000D01*
X126000000Y-32465000D01*
X126000000Y-32465000D01*
G37*
G36*
X143000000Y-32465000D02*
G01*
X141000000Y-32465000D01*
X141000000Y-31565000D01*
X143000000Y-31565000D01*
X143000000Y-32465000D01*
X143000000Y-32465000D01*
G37*
G36*
X119297500Y-31192082D02*
G01*
X119311930Y-31196459D01*
X119325221Y-31203563D01*
X119336873Y-31213127D01*
X119346437Y-31224779D01*
X119353541Y-31238070D01*
X119357918Y-31252500D01*
X119360000Y-31273640D01*
X119360000Y-31726360D01*
X119357918Y-31747500D01*
X119353541Y-31761930D01*
X119346437Y-31775221D01*
X119336873Y-31786873D01*
X119325221Y-31796437D01*
X119311930Y-31803541D01*
X119297500Y-31807918D01*
X119276360Y-31810000D01*
X118883640Y-31810000D01*
X118862500Y-31807918D01*
X118848070Y-31803541D01*
X118834779Y-31796437D01*
X118823127Y-31786873D01*
X118813563Y-31775221D01*
X118806459Y-31761930D01*
X118802082Y-31747500D01*
X118800000Y-31726360D01*
X118800000Y-31273640D01*
X118802082Y-31252500D01*
X118806459Y-31238070D01*
X118813563Y-31224779D01*
X118823127Y-31213127D01*
X118834779Y-31203563D01*
X118848070Y-31196459D01*
X118862500Y-31192082D01*
X118883640Y-31190000D01*
X119276360Y-31190000D01*
X119297500Y-31192082D01*
X119297500Y-31192082D01*
G37*
G36*
X118337500Y-31192082D02*
G01*
X118351930Y-31196459D01*
X118365221Y-31203563D01*
X118376873Y-31213127D01*
X118386437Y-31224779D01*
X118393541Y-31238070D01*
X118397918Y-31252500D01*
X118400000Y-31273640D01*
X118400000Y-31726360D01*
X118397918Y-31747500D01*
X118393541Y-31761930D01*
X118386437Y-31775221D01*
X118376873Y-31786873D01*
X118365221Y-31796437D01*
X118351930Y-31803541D01*
X118337500Y-31807918D01*
X118316360Y-31810000D01*
X117923640Y-31810000D01*
X117902500Y-31807918D01*
X117888070Y-31803541D01*
X117874779Y-31796437D01*
X117863127Y-31786873D01*
X117853563Y-31775221D01*
X117846459Y-31761930D01*
X117842082Y-31747500D01*
X117840000Y-31726360D01*
X117840000Y-31273640D01*
X117842082Y-31252500D01*
X117846459Y-31238070D01*
X117853563Y-31224779D01*
X117863127Y-31213127D01*
X117874779Y-31203563D01*
X117888070Y-31196459D01*
X117902500Y-31192082D01*
X117923640Y-31190000D01*
X118316360Y-31190000D01*
X118337500Y-31192082D01*
X118337500Y-31192082D01*
G37*
G36*
X144737500Y-30692082D02*
G01*
X144751930Y-30696459D01*
X144765221Y-30703563D01*
X144776873Y-30713127D01*
X144786437Y-30724779D01*
X144793541Y-30738070D01*
X144797918Y-30752500D01*
X144800000Y-30773640D01*
X144800000Y-31226360D01*
X144797918Y-31247500D01*
X144793541Y-31261930D01*
X144786437Y-31275221D01*
X144776873Y-31286873D01*
X144765221Y-31296437D01*
X144751930Y-31303541D01*
X144737500Y-31307918D01*
X144716360Y-31310000D01*
X144323640Y-31310000D01*
X144302500Y-31307918D01*
X144288070Y-31303541D01*
X144274779Y-31296437D01*
X144263127Y-31286873D01*
X144253563Y-31275221D01*
X144246459Y-31261930D01*
X144242082Y-31247500D01*
X144240000Y-31226360D01*
X144240000Y-30773640D01*
X144242082Y-30752500D01*
X144246459Y-30738070D01*
X144253563Y-30724779D01*
X144263127Y-30713127D01*
X144274779Y-30703563D01*
X144288070Y-30696459D01*
X144302500Y-30692082D01*
X144323640Y-30690000D01*
X144716360Y-30690000D01*
X144737500Y-30692082D01*
X144737500Y-30692082D01*
G37*
G36*
X145697500Y-30692082D02*
G01*
X145711930Y-30696459D01*
X145725221Y-30703563D01*
X145736873Y-30713127D01*
X145746437Y-30724779D01*
X145753541Y-30738070D01*
X145757918Y-30752500D01*
X145760000Y-30773640D01*
X145760000Y-31226360D01*
X145757918Y-31247500D01*
X145753541Y-31261930D01*
X145746437Y-31275221D01*
X145736873Y-31286873D01*
X145725221Y-31296437D01*
X145711930Y-31303541D01*
X145697500Y-31307918D01*
X145676360Y-31310000D01*
X145283640Y-31310000D01*
X145262500Y-31307918D01*
X145248070Y-31303541D01*
X145234779Y-31296437D01*
X145223127Y-31286873D01*
X145213563Y-31275221D01*
X145206459Y-31261930D01*
X145202082Y-31247500D01*
X145200000Y-31226360D01*
X145200000Y-30773640D01*
X145202082Y-30752500D01*
X145206459Y-30738070D01*
X145213563Y-30724779D01*
X145223127Y-30713127D01*
X145234779Y-30703563D01*
X145248070Y-30696459D01*
X145262500Y-30692082D01*
X145283640Y-30690000D01*
X145676360Y-30690000D01*
X145697500Y-30692082D01*
X145697500Y-30692082D01*
G37*
G36*
X143000000Y-31195000D02*
G01*
X141000000Y-31195000D01*
X141000000Y-30295000D01*
X143000000Y-30295000D01*
X143000000Y-31195000D01*
X143000000Y-31195000D01*
G37*
G36*
X126000000Y-31195000D02*
G01*
X124000000Y-31195000D01*
X124000000Y-30295000D01*
X126000000Y-30295000D01*
X126000000Y-31195000D01*
X126000000Y-31195000D01*
G37*
M02*
